                                      <svg width="21" height="20" viewBox="0 0 21 20" fill="none"
                                          xmlns="http://www.w3.org/2000/svg">
                                          <path
                                              d="M10.5012 14.0032C10.2025 14.0033 9.90663 13.9444 9.63065 13.83C9.35467 13.7157 9.10396 13.5479 8.89289 13.3365L3.45955 7.90069C3.35142 7.78181 3.29322 7.62585 3.29705 7.4652C3.30089 7.30454 3.36646 7.15154 3.48014 7.03796C3.59383 6.92438 3.7469 6.85896 3.90755 6.85527C4.06821 6.85159 4.22412 6.90993 4.34289 7.01819L9.77789 12.4507C9.97024 12.6428 10.231 12.7508 10.5029 12.7508C10.7748 12.7508 11.0355 12.6428 11.2279 12.4507L16.6612 7.01735C16.7797 6.90695 16.9364 6.84685 17.0983 6.84971C17.2602 6.85256 17.4147 6.91816 17.5292 7.03267C17.6437 7.14718 17.7093 7.30167 17.7122 7.46358C17.7151 7.6255 17.655 7.78221 17.5446 7.90069L12.1112 13.3365C11.8999 13.5481 11.649 13.716 11.3727 13.8304C11.0964 13.9448 10.8003 14.0035 10.5012 14.0032Z"
                                              fill="#292D32" />
                                      </svg>