<svg width="25" height="25" viewBox="0 0 25 25" fill="none" xmlns="http://www.w3.org/2000/svg">
<path d="M10.0706 19.7844C9.97208 19.7847 9.87448 19.7654 9.78348 19.7277C9.69248 19.6899 9.60992 19.6344 9.54061 19.5644L3.47161 13.4944C3.33213 13.3532 3.25391 13.1628 3.25391 12.9644C3.25391 12.7659 3.33213 12.5755 3.47161 12.4344L9.54061 6.36535C9.68278 6.23287 9.87083 6.16075 10.0651 6.16418C10.2594 6.16761 10.4448 6.24632 10.5822 6.38373C10.7196 6.52115 10.7984 6.70653 10.8018 6.90083C10.8052 7.09513 10.7331 7.28318 10.6006 7.42535L5.06061 12.9654L10.6006 18.5054C10.7401 18.6465 10.8183 18.8369 10.8183 19.0354C10.8183 19.2338 10.7401 19.4242 10.6006 19.5654C10.5318 19.636 10.4493 19.6918 10.3582 19.7295C10.2671 19.7671 10.1692 19.7858 10.0706 19.7844Z" fill="white"/>
<path d="M21.0019 13.7148H4.17188C3.97337 13.7135 3.78336 13.6341 3.64299 13.4937C3.50262 13.3534 3.42319 13.1634 3.42188 12.9648C3.42319 12.7663 3.50262 12.5763 3.64299 12.436C3.78336 12.2956 3.97337 12.2162 4.17188 12.2148H21.0019C21.2004 12.2162 21.3904 12.2956 21.5308 12.436C21.6711 12.5763 21.7506 12.7663 21.7519 12.9648C21.7506 13.1634 21.6711 13.3534 21.5308 13.4937C21.3904 13.6341 21.2004 13.7135 21.0019 13.7148Z" fill="white"/>
</svg>
