<svg width="1440" height="283" viewBox="0 0 1440 283" fill="none" xmlns="http://www.w3.org/2000/svg">
<path opacity="0.11" d="M212.502 322.444C212.597 339.712 200.141 354.106 183.688 356.986C199.884 359.676 212.347 373.514 212.869 390.376L212.886 391.278L213.087 427.359L177.005 427.515C157.721 427.597 142.001 412.031 141.893 392.747L141.301 286.668L212.3 286.362L212.502 322.444ZM287.891 392.119C287.997 411.102 272.935 426.612 254.07 427.171L253.168 427.187L217.087 427.342L216.885 391.261L216.892 390.359C217.225 373.493 229.533 359.548 245.698 356.718C229.215 353.98 216.598 339.695 216.502 322.427L216.3 286.345L287.3 286.04L287.891 392.119ZM512.498 321.153C512.594 338.421 500.137 352.815 483.684 355.695C499.881 358.385 512.344 372.223 512.865 389.085L512.882 389.987L513.083 426.068L477.001 426.223C457.717 426.306 441.997 410.74 441.889 391.456L441.297 285.377L512.297 285.071L512.498 321.153ZM587.888 390.828C587.993 409.81 572.931 425.32 554.066 425.88L553.165 425.896L517.083 426.051L516.882 389.969L516.888 389.068C517.222 372.202 529.529 358.257 545.694 355.427C529.211 352.689 516.595 338.404 516.498 321.136L516.297 285.054L587.296 284.749L587.888 390.828ZM812.494 319.862C812.59 337.13 800.133 351.524 783.68 354.404C799.877 357.094 812.34 370.932 812.861 387.794L812.878 388.696L813.079 424.777L776.998 424.932C757.714 425.015 741.993 409.449 741.885 390.165L741.293 284.086L812.293 283.78L812.494 319.862ZM887.884 389.537C887.989 408.519 872.927 424.029 854.062 424.589L853.161 424.605L817.079 424.76L816.878 388.678L816.885 387.777C817.218 370.911 829.526 356.966 845.691 354.136C829.207 351.398 816.591 337.113 816.494 319.844L816.293 283.763L887.292 283.457L887.884 389.537ZM1112.49 318.571C1112.59 335.839 1100.13 350.233 1083.68 353.113C1099.88 355.803 1112.34 369.64 1112.86 386.503L1112.88 387.404L1113.08 423.486L1077 423.641C1057.71 423.724 1041.99 408.158 1041.89 388.874L1041.29 282.795L1112.29 282.489L1112.49 318.571ZM1187.88 388.246C1187.99 407.228 1172.93 422.738 1154.06 423.298L1153.16 423.313L1117.08 423.469L1116.88 387.387L1116.88 386.486C1117.22 369.62 1129.53 355.675 1145.69 352.845C1129.21 350.107 1116.59 335.822 1116.49 318.553L1116.29 282.472L1187.29 282.166L1187.88 388.246ZM1262.49 317.925C1262.59 335.193 1250.13 349.588 1233.68 352.467C1249.87 355.158 1262.34 368.995 1262.86 385.858L1262.87 386.759L1263.08 422.84L1226.99 422.996C1207.71 423.078 1191.99 407.512 1191.88 388.228L1191.29 282.149L1262.29 281.844L1262.49 317.925ZM1337.88 387.6C1337.99 406.582 1322.92 422.093 1304.06 422.652L1303.16 422.668L1267.08 422.823L1266.87 386.742L1266.88 385.84C1267.21 368.974 1279.52 355.029 1295.69 352.199C1279.2 349.461 1266.59 335.176 1266.49 317.908L1266.29 281.826L1337.29 281.521L1337.88 387.6ZM1412.49 317.279C1412.59 334.548 1400.13 348.942 1383.68 351.822C1399.87 354.512 1412.34 368.349 1412.86 385.212L1412.87 386.113L1413.08 422.195L1376.99 422.35C1357.71 422.433 1341.99 406.867 1341.88 387.583L1341.29 281.504L1412.29 281.198L1412.49 317.279ZM1487.88 386.955C1487.99 405.937 1472.92 421.447 1454.06 422.007L1453.16 422.022L1417.08 422.178L1416.87 386.096L1416.88 385.195C1417.21 368.329 1429.52 354.384 1445.69 351.554C1429.2 348.816 1416.59 334.531 1416.49 317.262L1416.29 281.181L1487.29 280.875L1487.88 386.955ZM62.502 323.088C62.5978 340.357 50.1409 354.751 33.6884 357.631C49.8848 360.321 62.3478 374.158 62.8692 391.021L62.8859 391.922L63.0872 428.004L27.0055 428.159C7.7215 428.242 -7.99888 412.676 -8.10691 393.392L-8.69861 287.313L62.3007 287.007L62.502 323.088ZM137.892 392.764C137.997 411.746 122.935 427.256 104.07 427.816L103.169 427.831L67.0872 427.987L66.8859 391.905L66.8926 391.004C67.2259 374.138 79.5334 360.193 95.6985 357.363C79.215 354.625 66.5987 340.34 66.5019 323.071L66.3007 286.99L137.3 286.684L137.892 392.764ZM362.498 321.797C362.594 339.066 350.137 353.46 333.685 356.34C349.881 359.03 362.344 372.867 362.865 389.73L362.882 390.631L363.083 426.713L327.002 426.868C307.718 426.951 291.997 411.385 291.889 392.101L291.298 286.021L362.297 285.716L362.498 321.797ZM437.888 391.472C437.993 410.455 422.931 425.965 404.066 426.525L403.165 426.54L367.083 426.695L366.882 390.614L366.889 389.713C367.222 372.847 379.53 358.902 395.695 356.072C379.211 353.333 366.595 339.048 366.498 321.78L366.297 285.699L437.296 285.393L437.888 391.472ZM662.494 320.506C662.59 337.775 650.133 352.169 633.681 355.048C649.877 357.739 662.34 371.576 662.862 388.439L662.878 389.34L663.08 425.422L626.998 425.577C607.714 425.66 591.994 410.094 591.886 390.81L591.294 284.73L662.293 284.425L662.494 320.506ZM737.884 390.181C737.99 409.164 722.927 424.674 704.063 425.233L703.161 425.249L667.08 425.404L666.878 389.323L666.885 388.422C667.218 371.555 679.526 357.611 695.691 354.781C679.208 352.042 666.591 337.757 666.494 320.489L666.293 284.408L737.292 284.102L737.884 390.181ZM962.495 319.215C962.59 336.484 950.133 350.878 933.681 353.757C949.877 356.448 962.34 370.285 962.862 387.148L962.879 388.049L963.08 424.13L926.998 424.286C907.714 424.368 891.994 408.802 891.886 389.519L891.294 283.439L962.293 283.134L962.495 319.215ZM1037.88 388.89C1037.99 407.873 1022.93 423.383 1004.06 423.942L1003.16 423.958L967.08 424.113L966.879 388.032L966.885 387.13C967.219 370.264 979.526 356.319 995.691 353.49C979.208 350.751 966.591 336.466 966.495 319.198L966.293 283.116L1037.29 282.811L1037.88 388.89ZM142.893 392.743L142.908 393.618C143.475 411.943 158.561 426.593 177 426.515L212.081 426.364L211.886 391.282C211.781 372.563 196.531 357.452 177.817 357.511L142.697 357.663L142.893 392.743ZM251.575 357.194C232.861 357.296 217.781 372.537 217.885 391.256L218.081 426.338L253.163 426.187L254.038 426.172C272.363 425.629 286.994 410.562 286.891 392.123L286.696 357.043L251.575 357.194ZM442.889 391.452L442.905 392.327C443.471 410.652 458.557 425.302 476.996 425.223L512.077 425.072L511.882 389.991C511.777 371.272 496.528 356.161 477.813 356.22L442.693 356.371L442.889 391.452ZM551.571 355.903C532.857 356.005 517.777 371.246 517.882 389.965L518.077 425.047L553.159 424.896L554.034 424.881C572.359 424.338 586.99 409.271 586.888 390.832L586.692 355.752L551.571 355.903ZM742.885 390.161L742.901 391.036C743.468 409.361 758.553 424.011 776.992 423.932L812.074 423.781L811.878 388.7C811.773 369.981 796.524 354.869 777.809 354.929L742.689 355.08L742.885 390.161ZM851.567 354.612C832.854 354.714 817.774 369.955 817.878 388.674L818.074 423.756L853.155 423.605L854.03 423.59C872.355 423.047 886.986 407.98 886.884 389.541L886.688 354.461L851.567 354.612ZM1042.89 388.87L1042.9 389.745C1043.47 408.07 1058.55 422.72 1076.99 422.641L1112.07 422.49L1111.88 387.409C1111.77 368.69 1096.52 353.578 1077.81 353.638L1042.69 353.789L1042.89 388.87ZM1151.57 353.321C1132.85 353.423 1117.77 368.664 1117.88 387.383L1118.07 422.464L1153.16 422.313L1154.03 422.299C1172.36 421.756 1186.99 406.689 1186.88 388.25L1186.69 353.169L1151.57 353.321ZM1192.88 388.224L1192.9 389.099C1193.46 407.424 1208.55 422.075 1226.99 421.996L1262.07 421.845L1261.87 386.763C1261.77 368.044 1246.52 352.933 1227.81 352.993L1192.69 353.144L1192.88 388.224ZM1301.56 352.675C1282.85 352.777 1267.77 368.018 1267.87 386.737L1268.07 421.819L1303.15 421.668L1304.03 421.653C1322.35 421.11 1336.98 406.043 1336.88 387.604L1336.68 352.524L1301.56 352.675ZM1342.88 387.579L1342.9 388.454C1343.46 406.779 1358.55 421.429 1376.99 421.35L1412.07 421.199L1411.87 386.118C1411.77 367.399 1396.52 352.287 1377.81 352.347L1342.69 352.498L1342.88 387.579ZM1451.56 352.03C1432.85 352.131 1417.77 367.373 1417.87 386.092L1418.07 421.173L1453.15 421.022L1454.03 421.008C1472.35 420.464 1486.98 405.398 1486.88 386.959L1486.68 351.878L1451.56 352.03ZM-7.10692 393.388L-7.09129 394.263C-6.52452 412.588 8.56074 427.238 26.9999 427.159L62.0816 427.008L61.8859 391.927C61.7815 373.207 46.5318 358.096 27.8172 358.156L-7.30259 358.307L-7.10692 393.388ZM101.575 357.839C82.8614 357.94 67.7815 373.182 67.8859 391.901L68.0816 426.982L103.163 426.831L104.038 426.817C122.363 426.274 136.994 411.207 136.892 392.768L136.696 357.687L101.575 357.839ZM292.889 392.097L292.905 392.971C293.472 411.297 308.557 425.947 326.996 425.868L362.078 425.717L361.882 390.636C361.778 371.916 346.528 356.805 327.813 356.865L292.694 357.016L292.889 392.097ZM401.572 356.547C382.858 356.649 367.778 371.891 367.882 390.61L368.078 425.691L403.16 425.54L404.034 425.526C422.359 424.982 436.99 409.916 436.888 391.477L436.692 356.396L401.572 356.547ZM592.886 390.805L592.901 391.68C593.468 410.006 608.553 424.656 626.992 424.577L662.074 424.426L661.878 389.344C661.774 370.625 646.524 355.514 627.81 355.574L592.69 355.725L592.886 390.805ZM701.568 355.256C682.854 355.358 667.774 370.6 667.878 389.319L668.074 424.4L703.156 424.249L704.031 424.235C722.355 423.691 736.987 408.625 736.884 390.186L736.689 355.105L701.568 355.256ZM892.886 389.514L892.901 390.389C893.468 408.714 908.553 423.365 926.993 423.286L962.074 423.135L961.879 388.053C961.774 369.334 946.524 354.223 927.81 354.283L892.69 354.434L892.886 389.514ZM1001.57 353.965C982.854 354.067 967.774 369.309 967.879 388.027L968.074 423.109L1003.16 422.958L1004.03 422.943C1022.36 422.4 1036.99 407.333 1036.88 388.895L1036.69 353.814L1001.57 353.965ZM142.691 356.662L177.773 356.511L177.811 356.511L178.648 356.497C196.973 355.954 211.604 340.887 211.502 322.448L211.306 287.367L142.307 287.664L142.691 356.662ZM217.502 322.422C217.606 341.14 232.854 356.252 251.567 356.194C251.581 356.194 251.595 356.193 251.608 356.193L286.69 356.042L286.305 287.044L217.306 287.341L217.502 322.422ZM442.688 355.37L477.769 355.219L477.807 355.22L478.644 355.206C496.969 354.663 511.6 339.596 511.498 321.157L511.302 286.076L442.303 286.373L442.688 355.37ZM517.498 321.131C517.603 339.849 532.851 354.961 551.564 354.903C551.577 354.903 551.591 354.902 551.605 354.902L586.686 354.751L586.301 285.753L517.302 286.05L517.498 321.131ZM742.684 354.079L777.766 353.928L777.804 353.929L778.641 353.915C796.965 353.372 811.596 338.305 811.494 319.866L811.298 284.784L742.299 285.081L742.684 354.079ZM817.494 319.84C817.599 338.558 832.847 353.67 851.56 353.612C851.573 353.612 851.587 353.611 851.601 353.611L886.683 353.46L886.298 284.462L817.298 284.759L817.494 319.84ZM1042.68 352.788L1077.77 352.637L1077.8 352.638L1078.64 352.624C1096.97 352.08 1111.6 337.014 1111.49 318.575L1111.3 283.493L1042.3 283.79L1042.68 352.788ZM1117.49 318.549C1117.6 337.267 1132.85 352.379 1151.56 352.321C1151.57 352.321 1151.59 352.32 1151.6 352.319L1186.68 352.169L1186.3 283.171L1117.3 283.468L1117.49 318.549ZM1192.68 352.143L1227.76 351.992L1227.8 351.993L1228.64 351.978C1246.96 351.435 1261.59 336.368 1261.49 317.929L1261.3 282.848L1192.3 283.145L1192.68 352.143ZM1267.49 317.903C1267.6 336.621 1282.84 351.733 1301.56 351.675C1301.57 351.675 1301.58 351.674 1301.6 351.674L1336.68 351.523L1336.29 282.525L1267.3 282.822L1267.49 317.903ZM1342.68 351.497L1377.76 351.346L1377.8 351.347L1378.64 351.333C1396.96 350.789 1411.59 335.723 1411.49 317.284L1411.29 282.202L1342.3 282.499L1342.68 351.497ZM1417.49 317.258C1417.6 335.976 1432.84 351.088 1451.56 351.03C1451.57 351.029 1451.58 351.028 1451.6 351.028L1486.68 350.877L1486.29 281.879L1417.29 282.176L1417.49 317.258ZM-7.30818 357.306L27.7735 357.155L27.8116 357.156L28.6485 357.142C46.9731 356.598 61.6043 341.532 61.502 323.093L61.3063 288.011L-7.69305 288.308L-7.30818 357.306ZM67.5019 323.067C67.6069 341.785 82.8547 356.897 101.568 356.839C101.581 356.838 101.595 356.838 101.609 356.837L136.69 356.686L136.306 287.688L67.3063 287.985L67.5019 323.067ZM292.688 356.015L327.77 355.864L327.808 355.865L328.645 355.851C346.969 355.307 361.601 340.241 361.498 321.802L361.303 286.72L292.303 287.017L292.688 356.015ZM367.498 321.776C367.603 340.494 382.851 355.606 401.564 355.547C401.577 355.547 401.592 355.546 401.605 355.546L436.687 355.395L436.302 286.397L367.302 286.694L367.498 321.776ZM592.684 354.724L627.766 354.573L627.804 354.574L628.641 354.559C646.965 354.016 661.597 338.949 661.494 320.511L661.299 285.429L592.299 285.726L592.684 354.724ZM667.494 320.485C667.599 339.203 682.847 354.315 701.56 354.256C701.574 354.256 701.588 354.255 701.601 354.255L736.683 354.104L736.298 285.106L667.299 285.403L667.494 320.485ZM892.684 353.433L927.766 353.282L927.804 353.283L928.641 353.268C946.966 352.725 961.597 337.658 961.495 319.219L961.299 284.138L892.3 284.435L892.684 353.433ZM967.495 319.194C967.6 337.911 982.847 353.023 1001.56 352.965C1001.57 352.965 1001.59 352.964 1001.6 352.964L1036.68 352.813L1036.3 283.815L967.299 284.112L967.495 319.194ZM211.695 177.444L211.688 178.346C211.355 195.212 199.047 209.156 182.881 211.985C199.365 214.723 211.982 229.009 212.079 246.278L212.28 282.36L141.281 282.665L140.689 176.586C140.581 157.302 156.128 141.601 175.412 141.518L211.493 141.363L211.695 177.444ZM252.477 141.198C271.347 141.595 286.582 156.975 286.688 175.957L287.279 282.037L216.28 282.342L216.079 246.261C215.982 228.992 228.44 214.599 244.892 211.72C228.696 209.029 216.233 195.191 215.711 178.328L215.695 177.427L215.493 141.345L251.575 141.19L252.477 141.198ZM511.691 176.153L511.684 177.054C511.351 193.921 499.043 207.865 482.877 210.694C499.362 213.432 511.978 227.718 512.075 244.987L512.276 281.068L441.277 281.374L440.685 175.295C440.578 156.01 456.124 140.31 475.408 140.227L511.49 140.072L511.691 176.153ZM552.473 139.907C571.343 140.304 586.578 155.683 586.684 174.666L587.275 280.746L516.276 281.051L516.075 244.97C515.979 227.701 528.436 213.308 544.888 210.428C528.692 207.738 516.229 193.9 515.708 177.037L515.691 176.136L515.49 140.054L551.571 139.899L552.473 139.907ZM811.687 174.862L811.68 175.763C811.347 192.63 799.039 206.574 782.874 209.403C799.358 212.141 811.975 226.427 812.071 243.696L812.272 279.777L741.273 280.083L740.681 174.003C740.574 154.719 756.12 139.019 775.404 138.936L811.486 138.78L811.687 174.862ZM852.469 138.616C871.339 139.013 886.574 154.392 886.68 173.375L887.272 279.455L816.272 279.76L816.071 243.679C815.975 226.41 828.432 212.017 844.885 209.137C828.688 206.447 816.226 192.609 815.704 175.746L815.687 174.845L815.486 138.763L851.568 138.608L852.469 138.616ZM1111.69 173.571L1111.68 174.472C1111.35 191.339 1099.04 205.283 1082.87 208.112C1099.36 210.85 1111.97 225.136 1112.07 242.405L1112.27 278.486L1041.27 278.792L1040.68 172.712C1040.57 153.428 1056.12 137.728 1075.4 137.645L1111.49 137.489L1111.69 173.571ZM1152.47 137.325C1171.34 137.722 1186.57 153.101 1186.68 172.084L1187.27 278.163L1116.27 278.469L1116.07 242.388C1115.98 225.119 1128.43 210.726 1144.88 207.846C1128.69 205.156 1116.23 191.318 1115.7 174.455L1115.69 173.554L1115.49 137.472L1151.57 137.317L1152.47 137.325ZM1261.68 172.925L1261.68 173.827C1261.34 190.693 1249.04 204.637 1232.87 207.467C1249.35 210.205 1261.97 224.49 1262.07 241.759L1262.27 277.841L1191.27 278.146L1190.68 172.067C1190.57 152.782 1206.12 137.082 1225.4 136.999L1261.48 136.844L1261.68 172.925ZM1302.47 136.679C1321.34 137.076 1336.57 152.456 1336.68 171.438L1337.27 277.518L1266.27 277.823L1266.07 241.742C1265.97 224.473 1278.43 210.08 1294.88 207.201C1278.69 204.511 1266.22 190.672 1265.7 173.809L1265.68 172.908L1265.48 136.827L1301.56 136.671L1302.47 136.679ZM1411.68 172.28L1411.68 173.181C1411.34 190.047 1399.04 203.991 1382.87 206.821C1399.35 209.559 1411.97 223.845 1412.07 241.114L1412.27 277.195L1341.27 277.501L1340.68 171.421C1340.57 152.137 1356.12 136.437 1375.4 136.354L1411.48 136.198L1411.68 172.28ZM1452.47 136.034C1471.34 136.431 1486.57 151.81 1486.68 170.793L1487.27 276.872L1416.27 277.178L1416.07 241.096C1415.97 223.828 1428.43 209.435 1444.88 206.555C1428.68 203.865 1416.22 190.027 1415.7 173.164L1415.68 172.263L1415.48 136.181L1451.56 136.026L1452.47 136.034ZM61.6951 178.089L61.6884 178.99C61.355 195.856 49.0471 209.801 32.8815 212.63C49.3658 215.368 61.9827 229.654 62.0791 246.923L62.2804 283.004L-8.71899 283.31L-9.3107 177.23C-9.41823 157.946 6.12771 142.246 25.4122 142.163L61.4939 142.007L61.6951 178.089ZM102.477 141.843C121.347 142.24 136.582 157.619 136.688 176.602L137.28 282.681L66.2803 282.987L66.0791 246.905C65.9828 229.636 78.4398 215.244 94.8927 212.364C78.6961 209.674 66.2335 195.836 65.7118 178.973L65.6951 178.072L65.4938 141.99L101.576 141.835L102.477 141.843ZM361.691 176.798L361.685 177.699C361.351 194.565 349.043 208.509 332.878 211.339C349.362 214.077 361.979 228.363 362.075 245.632L362.277 281.713L291.277 282.019L290.686 175.939C290.578 156.655 306.124 140.954 325.408 140.871L361.49 140.716L361.691 176.798ZM402.473 140.552C421.343 140.949 436.578 156.328 436.684 175.311L437.276 281.39L366.277 281.696L366.075 245.614C365.979 228.345 378.436 213.953 394.889 211.073C378.692 208.383 366.23 194.545 365.708 177.682L365.691 176.78L365.49 140.699L401.572 140.544L402.473 140.552ZM661.688 175.507L661.681 176.408C661.347 193.274 649.039 207.218 632.874 210.048C649.358 212.786 661.975 227.072 662.072 244.34L662.273 280.422L591.273 280.727L590.682 174.648C590.574 155.364 606.12 139.663 625.405 139.58L661.486 139.425L661.688 175.507ZM702.469 139.26C721.34 139.658 736.574 155.037 736.68 174.02L737.272 280.099L666.273 280.405L666.072 244.323C665.975 227.054 678.432 212.662 694.885 209.782C678.689 207.092 666.226 193.253 665.704 176.391L665.688 175.489L665.486 139.408L701.568 139.253L702.469 139.26ZM961.688 174.215L961.681 175.117C961.348 191.983 949.039 205.927 932.874 208.757C949.358 211.495 961.975 225.781 962.072 243.049L962.273 279.131L891.274 279.436L890.682 173.357C890.575 154.073 906.12 138.372 925.405 138.289L961.486 138.134L961.688 174.215ZM1002.47 137.969C1021.34 138.367 1036.57 153.746 1036.68 172.729L1037.27 278.808L966.273 279.114L966.072 243.032C965.976 225.763 978.433 211.37 994.885 208.491C978.689 205.801 966.226 191.962 965.704 175.1L965.688 174.198L965.486 138.117L1001.57 137.961L1002.47 137.969ZM176.972 212.512L141.89 212.663L142.275 281.661L211.274 281.364L211.079 246.282C210.976 227.843 196.177 212.903 177.847 212.518L177.01 212.511L176.972 212.512ZM250.767 212.193C232.054 212.296 216.974 227.538 217.079 246.257L217.274 281.338L286.274 281.041L285.889 212.043L250.807 212.194C250.794 212.194 250.78 212.193 250.767 212.193ZM476.968 211.221L441.886 211.372L442.271 280.37L511.271 280.073L511.075 244.991C510.972 226.552 496.173 211.612 477.843 211.227L477.006 211.22L476.968 211.221ZM550.763 210.902C532.05 211.005 516.971 226.247 517.075 244.965L517.271 280.047L586.27 279.75L585.885 210.752L550.803 210.903C550.79 210.903 550.776 210.902 550.763 210.902ZM776.964 209.93L741.883 210.081L742.267 279.079L811.267 278.782L811.071 243.7C810.968 225.261 796.169 210.321 777.839 209.936L777.002 209.929L776.964 209.93ZM850.76 209.611C832.046 209.713 816.967 224.956 817.071 243.674L817.267 278.756L886.266 278.459L885.881 209.461L850.8 209.612C850.786 209.612 850.773 209.611 850.76 209.611ZM1076.96 208.639L1041.88 208.79L1042.27 277.787L1111.27 277.491L1111.07 242.409C1110.97 223.97 1096.17 209.03 1077.84 208.645L1077 208.637L1076.96 208.639ZM1150.76 208.32C1132.05 208.422 1116.97 223.665 1117.07 242.383L1117.27 277.465L1186.27 277.168L1185.88 208.17L1150.8 208.321C1150.79 208.321 1150.77 208.32 1150.76 208.32ZM1226.96 207.993L1191.88 208.144L1192.26 277.142L1261.26 276.845L1261.07 241.763C1260.96 223.324 1246.17 208.385 1227.84 207.999L1227 207.992L1226.96 207.993ZM1300.76 207.674C1282.04 207.777 1266.96 223.019 1267.07 241.738L1267.26 276.819L1336.26 276.522L1335.88 207.524L1300.8 207.675C1300.78 207.675 1300.77 207.674 1300.76 207.674ZM1376.96 207.347L1341.88 207.498L1342.26 276.496L1411.26 276.199L1411.07 241.118C1410.96 222.679 1396.17 207.739 1377.84 207.353L1377 207.346L1376.96 207.347ZM1450.76 207.029C1432.04 207.131 1416.96 222.374 1417.07 241.092L1417.26 276.174L1486.26 275.877L1485.88 206.879L1450.8 207.03C1450.78 207.03 1450.77 207.029 1450.76 207.029ZM26.9723 213.156L-8.10945 213.307L-7.72458 282.305L61.2748 282.008L61.0791 246.927C60.9762 228.488 46.1775 213.548 27.8473 213.162L27.0103 213.155L26.9723 213.156ZM100.767 212.838C82.0539 212.94 66.9747 228.183 67.079 246.901L67.2747 281.983L136.274 281.686L135.889 212.688L100.808 212.839C100.794 212.839 100.781 212.838 100.767 212.838ZM326.968 211.865L291.887 212.016L292.272 281.014L361.271 280.717L361.075 245.636C360.972 227.197 346.174 212.257 327.844 211.871L327.007 211.864L326.968 211.865ZM400.764 211.547C382.05 211.649 366.971 226.891 367.075 245.61L367.271 280.691L436.27 280.395L435.885 211.397L400.804 211.548C400.791 211.548 400.777 211.547 400.764 211.547ZM626.965 210.574L591.883 210.725L592.268 279.723L661.267 279.426L661.072 244.345C660.969 225.906 646.17 210.966 627.84 210.58L627.003 210.573L626.965 210.574ZM700.76 210.256C682.046 210.358 666.967 225.6 667.072 244.319L667.267 279.4L736.267 279.103L735.882 210.105L700.8 210.256C700.787 210.257 700.773 210.256 700.76 210.256ZM926.965 209.283L891.883 209.434L892.268 278.432L961.267 278.135L961.072 243.054C960.969 224.615 946.17 209.675 927.84 209.289L927.003 209.282L926.965 209.283ZM1000.76 208.965C982.047 209.067 966.967 224.309 967.072 243.028L967.267 278.109L1036.27 277.812L1035.88 208.814L1000.8 208.965C1000.79 208.965 1000.77 208.965 1000.76 208.965ZM175.417 142.518C156.978 142.598 142.057 157.377 141.695 175.706L141.689 176.581L141.885 211.662L177.004 211.511C195.719 211.409 210.799 196.168 210.695 177.448L210.499 142.367L175.417 142.518ZM216.695 177.423C216.799 196.141 232.048 211.252 250.762 211.193L285.883 211.042L285.688 175.962C285.585 157.522 270.786 142.583 252.456 142.197L251.581 142.19L216.499 142.341L216.695 177.423ZM475.414 141.227C456.974 141.306 442.053 156.086 441.691 174.415L441.685 175.29L441.881 210.371L477.001 210.22C495.715 210.118 510.795 194.876 510.691 176.157L510.495 141.076L475.414 141.227ZM516.691 176.132C516.796 194.85 532.045 209.961 550.759 209.902L585.879 209.751L585.684 174.671C585.581 156.231 570.782 141.292 552.452 140.906L551.577 140.899L516.495 141.05L516.691 176.132ZM775.41 139.936C756.97 140.015 742.049 154.795 741.687 173.124L741.681 173.999L741.877 209.08L776.997 208.929C795.711 208.827 810.791 193.585 810.687 174.866L810.492 139.785L775.41 139.936ZM816.687 174.84C816.792 193.559 832.041 208.67 850.755 208.611L885.876 208.46L885.68 173.379C885.577 154.94 870.778 140 852.448 139.615L851.573 139.608L816.491 139.759L816.687 174.84ZM1075.41 138.645C1056.97 138.724 1042.05 153.503 1041.69 171.833L1041.68 172.708L1041.88 207.789L1077 207.637C1095.71 207.536 1110.79 192.294 1110.69 173.575L1110.49 138.494L1075.41 138.645ZM1116.69 173.549C1116.79 192.268 1132.04 207.379 1150.76 207.32L1185.88 207.169L1185.68 172.088C1185.58 153.649 1170.78 138.709 1152.45 138.324L1151.57 138.317L1116.49 138.468L1116.69 173.549ZM1225.41 137.999C1206.97 138.078 1192.05 152.858 1191.68 171.187L1191.68 172.062L1191.87 207.143L1226.99 206.992C1245.71 206.89 1260.79 191.648 1260.68 172.93L1260.49 137.848L1225.41 137.999ZM1266.68 172.904C1266.79 191.622 1282.04 206.734 1300.75 206.674L1335.87 206.523L1335.68 171.443C1335.57 153.003 1320.78 138.064 1302.45 137.678L1301.57 137.671L1266.49 137.822L1266.68 172.904ZM1375.41 137.354C1356.97 137.433 1342.05 152.212 1341.68 170.542L1341.68 171.417L1341.87 206.497L1376.99 206.346C1395.71 206.245 1410.79 191.003 1410.68 172.284L1410.49 137.203L1375.41 137.354ZM1416.68 172.258C1416.79 190.977 1432.04 206.088 1450.75 206.029L1485.87 205.878L1485.68 170.797C1485.57 152.358 1470.77 137.418 1452.44 137.033L1451.57 137.026L1416.49 137.177L1416.68 172.258ZM25.4178 143.163C6.97811 143.242 -7.94294 158.021 -8.30485 176.351L-8.31071 177.226L-8.11503 212.306L27.0048 212.155C45.719 212.054 60.7993 196.812 60.6951 178.093L60.4995 143.012L25.4178 143.163ZM66.6951 178.067C66.7997 196.786 82.0486 211.897 100.763 211.838L135.884 211.687L135.688 176.606C135.585 158.167 120.786 143.227 102.456 142.842L101.581 142.835L66.4994 142.986L66.6951 178.067ZM325.414 141.871C306.974 141.951 292.053 156.73 291.691 175.06L291.686 175.935L291.881 211.015L327.001 210.864C345.715 210.763 360.796 195.521 360.691 176.802L360.496 141.72L325.414 141.871ZM366.691 176.776C366.796 195.495 382.045 210.606 400.759 210.547L435.88 210.396L435.684 175.315C435.581 156.876 420.783 141.936 402.452 141.551L401.577 141.544L366.496 141.695L366.691 176.776ZM625.41 140.58C606.971 140.66 592.05 155.439 591.688 173.769L591.682 174.644L591.877 209.724L626.997 209.573C645.711 209.472 660.792 194.23 660.688 175.511L660.492 140.429L625.41 140.58ZM666.688 175.485C666.792 194.204 682.041 209.315 700.755 209.256L735.876 209.105L735.68 174.024C735.577 155.585 720.779 140.645 702.449 140.26L701.574 140.253L666.492 140.404L666.688 175.485ZM925.41 139.289C906.971 139.369 892.05 154.148 891.688 172.478L891.682 173.353L891.878 208.433L926.997 208.282C945.711 208.18 960.792 192.939 960.688 174.22L960.492 139.138L925.41 139.289ZM966.688 174.194C966.792 192.913 982.041 208.024 1000.76 207.965L1035.88 207.813L1035.68 172.733C1035.58 154.294 1020.78 139.354 1002.45 138.968L1001.57 138.961L966.492 139.112L966.688 174.194ZM210.884 32.4494C210.98 49.7183 198.523 64.1121 182.07 66.9916C198.267 69.6817 210.73 83.5191 211.251 100.382L211.268 101.283L211.469 137.365L175.388 137.52C156.104 137.603 140.383 122.037 140.275 102.753L139.683 -3.32654L210.683 -3.6321L210.884 32.4494ZM286.274 102.125C286.379 121.107 271.317 136.617 252.452 137.177L251.551 137.192L215.469 137.348L215.268 101.266L215.275 100.365C215.608 83.4987 227.916 69.5538 244.081 66.7238C227.597 63.9853 214.981 49.7005 214.884 32.4322L214.683 -3.64931L285.682 -3.95488L286.274 102.125ZM510.88 31.1583C510.976 48.4271 498.519 62.821 482.067 65.7005C498.263 68.3906 510.726 82.228 511.247 99.0908L511.264 99.9921L511.465 136.074L475.384 136.229C456.1 136.311 440.379 120.746 440.271 101.462L439.68 -4.61764L510.679 -4.92321L510.88 31.1583ZM586.27 100.833C586.376 119.816 571.313 135.326 552.448 135.886L551.547 135.901L515.465 136.056L515.264 99.9749L515.271 99.0735C515.604 82.2075 527.912 68.2627 544.077 65.4327C527.593 62.6942 514.977 48.4094 514.88 31.141L514.679 -4.94042L585.678 -5.24598L586.27 100.833ZM810.876 29.8672C810.972 47.136 798.516 61.5299 782.063 64.4094C798.259 67.0995 810.722 80.9369 811.244 97.7997L811.26 98.701L811.462 134.783L775.38 134.938C756.096 135.02 740.375 119.455 740.268 100.171L739.676 -5.90875L810.675 -6.21431L810.876 29.8672ZM886.266 99.5423C886.372 118.525 871.31 134.035 852.445 134.594L851.543 134.61L815.462 134.765L815.26 98.6838L815.267 97.7824C815.6 80.9164 827.908 66.9715 844.073 64.1416C827.589 61.4032 814.973 47.1184 814.876 29.8499L814.675 -6.23153L885.675 -6.53709L886.266 99.5423ZM1110.88 28.576C1110.97 45.8449 1098.52 60.2387 1082.06 63.1183C1098.26 65.8083 1110.72 79.6458 1111.24 96.5086L1111.26 97.4099L1111.46 133.491L1075.38 133.647C1056.1 133.729 1040.38 118.164 1040.27 98.8795L1039.68 -7.19987L1110.68 -7.50544L1110.88 28.576ZM1186.27 98.2512C1186.37 117.234 1171.31 132.744 1152.44 133.303L1151.54 133.319L1115.46 133.474L1115.26 97.3927L1115.27 96.4913C1115.6 79.6253 1127.91 65.6803 1144.07 62.8504C1127.59 60.1121 1114.97 45.8273 1114.88 28.5588L1114.68 -7.52265L1185.67 -7.82821L1186.27 98.2512ZM1260.87 27.9305C1260.97 45.1991 1248.51 59.5932 1232.06 62.4727C1248.26 65.1629 1260.72 79.0002 1261.24 95.8631L1261.26 96.7644L1261.46 132.846L1225.38 133.001C1206.09 133.084 1190.37 117.518 1190.26 98.234L1189.67 -7.84542L1260.67 -8.15098L1260.87 27.9305ZM1336.26 97.6056C1336.37 116.588 1321.31 132.098 1302.44 132.658L1301.54 132.673L1265.46 132.829L1265.26 96.7472L1265.26 95.8458C1265.6 78.9796 1277.9 65.0348 1294.07 62.2049C1277.59 59.4666 1264.97 45.1816 1264.87 27.9133L1264.67 -8.1682L1335.67 -8.47376L1336.26 97.6056ZM1410.87 27.2849C1410.97 44.5537 1398.51 58.9476 1382.06 61.8272C1398.26 64.5172 1410.72 78.3548 1411.24 95.2175L1411.26 96.1188L1411.46 132.2L1375.38 132.356C1356.09 132.438 1340.37 116.872 1340.26 97.5884L1339.67 -8.49098L1410.67 -8.79654L1410.87 27.2849ZM1486.26 96.9601C1486.37 115.943 1471.31 131.453 1452.44 132.012L1451.54 132.028L1415.46 132.183L1415.26 96.1016L1415.26 95.2002C1415.6 78.3342 1427.9 64.3892 1444.07 61.5593C1427.59 58.821 1414.97 44.5362 1414.87 27.2677L1414.67 -8.81376L1485.67 -9.11932L1486.26 96.9601ZM60.8844 33.094C60.9804 50.3628 48.5236 64.7567 32.0708 67.6362C48.2674 70.3263 60.7302 84.1636 61.2516 101.027L61.2684 101.928L61.4696 138.009L25.3879 138.165C6.10379 138.247 -9.61666 122.681 -9.72449 103.397L-10.3162 -2.68195L60.6831 -2.98751L60.8844 33.094ZM136.274 102.769C136.38 121.752 121.318 137.262 102.453 137.821L101.551 137.837L65.4696 137.992L65.2683 101.911L65.275 101.009C65.6083 84.1431 77.9158 70.1983 94.081 67.3684C77.5974 64.63 64.981 50.3452 64.8844 33.0767L64.6831 -3.00473L135.682 -3.31029L136.274 102.769ZM360.881 31.8028C360.977 49.0717 348.52 63.4655 332.067 66.3451C348.264 69.0352 360.726 82.8726 361.248 99.7354L361.265 100.637L361.466 136.718L325.384 136.873C306.1 136.956 290.38 121.39 290.272 102.106L289.68 -3.97306L360.679 -4.27862L360.881 31.8028ZM436.27 101.478C436.376 120.461 421.314 135.971 402.449 136.53L401.548 136.546L365.466 136.701L365.265 100.62L365.271 99.7181C365.605 82.852 377.912 68.9072 394.077 66.0773C377.594 63.3389 364.977 49.0541 364.881 31.7856L364.679 -4.29584L435.679 -4.6014L436.27 101.478ZM660.877 30.5117C660.973 47.7805 648.516 62.1743 632.063 65.054C648.26 67.7441 660.723 81.5816 661.244 98.4443L661.261 99.3456L661.462 135.427L625.38 135.582C606.096 135.665 590.376 120.099 590.268 100.815L589.676 -5.26417L660.676 -5.56973L660.877 30.5117ZM736.267 100.187C736.372 119.17 721.31 134.68 702.445 135.239L701.544 135.255L665.462 135.41L665.261 99.3284L665.267 98.427C665.601 81.5609 677.908 67.616 694.073 64.7862C677.59 62.0478 664.973 47.763 664.877 30.4945L664.676 -5.58694L735.675 -5.89251L736.267 100.187ZM960.877 29.2206C960.973 46.4893 948.516 60.8831 932.063 63.7629C948.26 66.4531 960.723 80.2905 961.244 97.1532L961.261 98.0545L961.462 134.136L925.381 134.291C906.096 134.374 890.376 118.808 890.268 99.5241L889.676 -6.55529L960.676 -6.86085L960.877 29.2206ZM1036.27 98.8958C1036.37 117.878 1021.31 133.388 1002.45 133.948L1001.54 133.963L965.462 134.119L965.261 98.0373L965.268 97.1359C965.601 80.2699 977.909 66.3249 994.074 63.495C977.59 60.7567 964.974 46.4719 964.877 29.2034L964.676 -6.87807L1035.68 -7.18363L1036.27 98.8958ZM141.275 102.749L141.291 103.623C141.857 121.949 156.943 136.599 175.382 136.52L210.464 136.369L210.268 101.288C210.163 82.5682 194.914 67.457 176.199 67.5169L141.079 67.6681L141.275 102.749ZM249.957 67.1995C231.244 67.3016 216.164 82.543 216.268 101.262L216.464 136.343L251.545 136.192L252.42 136.178C270.745 135.635 285.376 120.568 285.274 102.129L285.078 67.0483L249.957 67.1995ZM441.271 101.457L441.287 102.332C441.854 120.658 456.939 135.308 475.378 135.229L510.46 135.078L510.264 99.9965C510.16 81.2771 494.91 66.1659 476.195 66.2258L441.076 66.3769L441.271 101.457ZM549.954 65.9084C531.24 66.0104 516.16 81.2519 516.264 99.9706L516.46 135.052L551.542 134.901L552.416 134.887C570.742 134.344 585.373 119.277 585.27 100.838L585.074 65.7572L549.954 65.9084ZM741.268 100.166L741.283 101.041C741.85 119.367 756.935 134.017 775.374 133.938L810.456 133.787L810.26 98.7053C810.156 79.9861 794.906 64.8747 776.192 64.9347L741.072 65.0858L741.268 100.166ZM849.95 64.6173C831.236 64.7192 816.156 79.9608 816.26 98.6795L816.456 133.761L851.538 133.61L852.413 133.596C870.738 133.053 885.369 117.986 885.266 99.5466L885.071 64.4661L849.95 64.6173ZM1041.27 98.8752L1041.28 99.7502C1041.85 118.076 1056.94 132.726 1075.37 132.647L1110.46 132.496L1110.26 97.4142C1110.16 78.695 1094.91 63.5836 1076.19 63.6436L1041.07 63.7947L1041.27 98.8752ZM1149.95 63.3261C1131.24 63.428 1116.16 78.6697 1116.26 97.3884L1116.46 132.47L1151.54 132.319L1152.41 132.304C1170.74 131.761 1185.37 116.695 1185.27 98.2555L1185.07 63.175L1149.95 63.3261ZM1191.26 98.2297L1191.28 99.1046C1191.85 117.43 1206.93 132.08 1225.37 132.001L1260.45 131.85L1260.26 96.7687C1260.15 78.0494 1244.9 62.9382 1226.19 62.998L1191.07 63.1492L1191.26 98.2297ZM1299.95 62.6806C1281.23 62.7825 1266.15 78.024 1266.26 96.7429L1266.45 131.824L1301.53 131.673L1302.41 131.659C1320.73 131.116 1335.37 116.049 1335.26 97.6099L1335.07 62.5294L1299.95 62.6806ZM1341.26 97.5841L1341.28 98.4591C1341.85 116.784 1356.93 131.435 1375.37 131.356L1410.45 131.205L1410.26 96.1231C1410.15 77.404 1394.9 62.2926 1376.19 62.3525L1341.07 62.5036L1341.26 97.5841ZM1449.95 62.035C1431.23 62.1369 1416.15 77.3786 1416.26 96.0973L1416.45 131.179L1451.53 131.028L1452.41 131.013C1470.73 130.47 1485.37 115.404 1485.26 96.9644L1485.07 61.8839L1449.95 62.035ZM-8.7245 103.393L-8.70887 104.268C-8.1423 122.593 6.94303 137.244 25.3823 137.165L60.4641 137.014L60.2684 101.932C60.1639 83.2128 44.9144 68.1015 26.1996 68.1615L-8.92018 68.3126L-8.7245 103.393ZM99.9577 67.8441C81.2438 67.946 66.1639 83.1874 66.2683 101.906L66.464 136.988L101.546 136.837L102.421 136.822C120.746 136.279 135.377 121.213 135.274 102.773L135.078 67.6929L99.9577 67.8441ZM291.272 102.102L291.287 102.977C291.854 121.302 306.939 135.953 325.379 135.874L360.46 135.723L360.265 100.641C360.16 81.9218 344.911 66.8105 326.196 66.8704L291.076 67.0215L291.272 102.102ZM399.954 66.5529C381.24 66.6548 366.16 81.8963 366.265 100.615L366.46 135.697L401.542 135.546L402.417 135.531C420.742 134.988 435.373 119.922 435.27 101.482L435.075 66.4018L399.954 66.5529ZM591.268 100.811L591.284 101.686C591.85 120.011 606.935 134.662 625.375 134.582L660.457 134.431L660.261 99.3499C660.156 80.6307 644.907 65.5195 626.192 65.5793L591.072 65.7304L591.268 100.811ZM699.95 65.2618C681.236 65.3637 666.156 80.6053 666.261 99.3241L666.456 134.406L701.538 134.255L702.413 134.24C720.738 133.697 735.369 118.63 735.267 100.191L735.071 65.1107L699.95 65.2618ZM891.268 99.5198L891.284 100.395C891.85 118.72 906.936 133.37 925.375 133.291L960.457 133.14L960.261 98.0588C960.156 79.3397 944.907 64.2284 926.192 64.2882L891.072 64.4393L891.268 99.5198ZM999.95 63.9707C981.237 64.0726 966.157 79.3142 966.261 98.033L966.457 133.114L1001.54 132.963L1002.41 132.949C1020.74 132.406 1035.37 117.339 1035.27 98.9001L1035.07 63.8196L999.95 63.9707ZM141.074 66.6671L176.156 66.5161L176.194 66.5169L177.03 66.5026C195.355 65.9595 209.987 50.8929 209.884 32.4537L209.688 -2.62781L140.689 -2.33085L141.074 66.6671ZM215.884 32.4279C215.989 51.1458 231.237 66.2575 249.95 66.1995C249.963 66.1994 249.977 66.1984 249.991 66.1983L285.072 66.0474L284.688 -2.95059L215.688 -2.65363L215.884 32.4279ZM441.07 65.376L476.152 65.225L476.19 65.2258L477.027 65.2115C495.352 64.6684 509.983 49.6018 509.88 31.1626L509.685 -3.91892L440.685 -3.62196L441.07 65.376ZM515.88 31.1367C515.985 49.8547 531.233 64.9665 549.946 64.9084C549.959 64.9083 549.974 64.9073 549.987 64.9072L585.069 64.7563L584.684 -4.24169L515.684 -3.94474L515.88 31.1367ZM741.066 64.0849L776.148 63.9339L776.186 63.9347L777.023 63.9204C795.348 63.3773 809.979 48.3107 809.876 29.8715L809.681 -5.21002L740.681 -4.91307L741.066 64.0849ZM815.876 29.8456C815.981 48.5637 831.229 63.6754 849.942 63.6173C849.956 63.6172 849.97 63.6162 849.983 63.6161L885.065 63.4651L884.68 -5.5328L815.681 -5.23585L815.876 29.8456ZM1041.07 62.7938L1076.15 62.6428L1076.19 62.6436L1077.02 62.6292C1095.35 62.0861 1109.98 47.0196 1109.88 28.5803L1109.68 -6.50115L1040.68 -6.20419L1041.07 62.7938ZM1115.88 28.5545C1115.98 47.2726 1131.23 62.3844 1149.94 62.3262C1149.96 62.3261 1149.97 62.3251 1149.98 62.325L1185.07 62.174L1184.68 -6.82393L1115.68 -6.52697L1115.88 28.5545ZM1191.06 62.1482L1226.14 61.9972L1226.18 61.998L1227.02 61.9837C1245.34 61.4405 1259.98 46.3737 1259.87 27.9348L1259.68 -7.1467L1190.68 -6.84974L1191.06 62.1482ZM1265.87 27.909C1265.98 46.6268 1281.23 61.7388 1299.94 61.6806C1299.95 61.6805 1299.97 61.6795 1299.98 61.6795L1335.06 61.5285L1334.68 -7.46947L1265.68 -7.17252L1265.87 27.909ZM1341.06 61.5026L1376.14 61.3517L1376.18 61.3525L1377.02 61.3381C1395.34 60.795 1409.98 45.7284 1409.87 27.2892L1409.68 -7.79225L1340.68 -7.4953L1341.06 61.5026ZM1415.87 27.2634C1415.98 45.9815 1431.23 61.0933 1449.94 61.035C1449.95 61.035 1449.97 61.034 1449.98 61.0339L1485.06 60.8829L1484.68 -8.11503L1415.68 -7.81808L1415.87 27.2634ZM-8.92576 67.3117L26.1559 67.1607L26.194 67.1615L27.0309 67.1472C45.3558 66.6041 59.9869 51.5375 59.8844 33.0983L59.6887 -1.98323L-9.31063 -1.68627L-8.92576 67.3117ZM65.8844 33.0724C65.9891 51.7905 81.237 66.9023 99.9502 66.8441C99.9637 66.844 99.9777 66.843 99.9912 66.8429L135.073 66.6919L134.688 -2.306L65.6887 -2.00905L65.8844 33.0724ZM291.07 66.0206L326.152 65.8696L326.19 65.8704L327.027 65.8561C345.352 65.3129 359.983 50.2463 359.881 31.8071L359.685 -3.27433L290.686 -2.97738L291.07 66.0206ZM365.881 31.7813C365.985 50.4994 381.233 65.6112 399.946 65.553C399.96 65.5529 399.974 65.5519 399.987 65.5518L435.069 65.4008L434.684 -3.59711L365.685 -3.30016L365.881 31.7813ZM591.067 64.7295L626.148 64.5785L626.187 64.5793L627.023 64.5649C645.348 64.0217 659.979 48.9552 659.877 30.516L659.681 -4.56544L590.682 -4.26849L591.067 64.7295ZM665.877 30.4902C665.982 49.2083 681.23 64.3201 699.943 64.2619C699.956 64.2618 699.97 64.2608 699.984 64.2607L735.065 64.1097L734.681 -4.88822L665.681 -4.59126L665.877 30.4902ZM891.067 63.4383L926.149 63.2874L926.187 63.2882L927.023 63.2738C945.348 62.7305 959.98 47.664 959.877 29.2249L959.681 -5.85656L890.682 -5.55961L891.067 63.4383ZM965.877 29.1991C965.982 47.9172 981.23 63.029 999.943 62.9707C999.956 62.9707 999.97 62.9697 999.984 62.9696L1035.07 62.8186L1034.68 -6.17934L965.681 -5.88239L965.877 29.1991ZM210.077 -112.55L210.07 -111.649C209.737 -94.7823 197.429 -80.8384 181.264 -78.009C197.748 -75.2714 210.365 -60.9856 210.461 -43.7164L210.662 -7.63497L139.663 -7.32941L139.071 -113.409C138.964 -132.693 154.51 -148.393 173.794 -148.477L209.876 -148.632L210.077 -112.55ZM250.859 -148.796C269.729 -148.4 284.964 -133.02 285.07 -114.037L285.662 -7.95775L214.662 -7.65219L214.461 -43.7337C214.365 -61.0025 226.822 -75.3951 243.275 -78.2749C227.078 -80.9652 214.615 -94.8034 214.094 -111.666L214.077 -112.568L213.876 -148.649L249.958 -148.804L250.859 -148.796ZM510.073 -113.841L510.067 -112.94C509.733 -96.0734 497.426 -82.1295 481.26 -79.3001C497.744 -76.5625 510.361 -62.2767 510.457 -45.0075L510.659 -8.92608L439.659 -8.62052L439.068 -114.7C438.96 -133.984 454.506 -149.684 473.79 -149.768L509.872 -149.923L510.073 -113.841ZM550.855 -150.088C569.726 -149.691 584.96 -134.311 585.066 -115.328L585.658 -9.24886L514.659 -8.9433L514.457 -45.0248C514.361 -62.2936 526.818 -76.6863 543.271 -79.5661C527.074 -82.2562 514.612 -96.0945 514.09 -112.957L514.073 -113.859L513.872 -149.94L549.954 -150.095L550.855 -150.088ZM810.07 -115.133L810.063 -114.231C809.73 -97.3645 797.422 -83.4206 781.256 -80.5913C797.74 -77.8536 810.357 -63.5677 810.454 -46.2987L810.655 -10.2172L739.655 -9.91162L739.064 -115.991C738.956 -135.275 754.502 -150.976 773.787 -151.059L809.868 -151.214L810.07 -115.133ZM850.851 -151.379C869.722 -150.982 884.956 -135.602 885.062 -116.619L885.654 -10.54L814.655 -10.2344L814.454 -46.3159C814.357 -63.5847 826.814 -77.9774 843.267 -80.8572C827.071 -83.5473 814.608 -97.3855 814.086 -114.248L814.07 -115.15L813.868 -151.231L849.95 -151.387L850.851 -151.379ZM1110.07 -116.424L1110.06 -115.522C1109.73 -98.6557 1097.42 -84.7117 1081.26 -81.8824C1097.74 -79.1447 1110.36 -64.8588 1110.45 -47.5898L1110.65 -11.5083L1039.66 -11.2027L1039.06 -117.282C1038.96 -136.566 1054.5 -152.267 1073.79 -152.35L1109.87 -152.505L1110.07 -116.424ZM1150.85 -152.67C1169.72 -152.273 1184.96 -136.893 1185.06 -117.91L1185.65 -11.8311L1114.65 -11.5255L1114.45 -47.607C1114.36 -64.8758 1126.81 -79.2686 1143.27 -82.1483C1127.07 -84.8383 1114.61 -98.6766 1114.09 -115.54L1114.07 -116.441L1113.87 -152.522L1149.95 -152.678L1150.85 -152.67ZM1260.07 -117.069L1260.06 -116.168C1259.73 -99.3014 1247.42 -85.3573 1231.25 -82.5279C1247.74 -79.7901 1260.35 -65.5044 1260.45 -48.2353L1260.65 -12.1539L1189.65 -11.8483L1189.06 -117.928C1188.95 -137.212 1204.5 -152.912 1223.78 -152.995L1259.87 -153.151L1260.07 -117.069ZM1300.85 -153.315C1319.72 -152.918 1334.95 -137.539 1335.06 -118.556L1335.65 -12.4766L1264.65 -12.1711L1264.45 -48.2525C1264.35 -65.5215 1276.81 -79.9141 1293.26 -82.7938C1277.07 -85.4839 1264.6 -99.3224 1264.08 -116.185L1264.07 -117.086L1263.87 -153.168L1299.95 -153.323L1300.85 -153.315ZM1410.07 -117.715L1410.06 -116.813C1409.73 -99.9468 1397.42 -86.0029 1381.25 -83.1735C1397.74 -80.4358 1410.35 -66.1499 1410.45 -48.8809L1410.65 -12.7994L1339.65 -12.4939L1339.06 -118.573C1338.95 -137.857 1354.5 -153.558 1373.78 -153.641L1409.86 -153.796L1410.07 -117.715ZM1450.85 -153.961C1469.72 -153.564 1484.95 -138.184 1485.06 -119.202L1485.65 -13.1222L1414.65 -12.8166L1414.45 -48.8981C1414.35 -66.1669 1426.81 -80.5597 1443.26 -83.4394C1427.07 -86.1294 1414.6 -99.9677 1414.08 -116.831L1414.07 -117.732L1413.86 -153.813L1449.95 -153.969L1450.85 -153.961ZM60.0776 -111.906L60.0709 -111.004C59.7376 -94.1377 47.4298 -80.1938 31.2639 -77.3645C47.7484 -74.6268 60.3651 -60.341 60.4615 -43.0719L60.6628 -6.99039L-10.3366 -6.68483L-10.9283 -112.764C-11.0358 -132.049 4.51013 -147.749 23.7946 -147.832L59.8763 -147.987L60.0776 -111.906ZM100.859 -148.152C119.73 -147.755 134.964 -132.376 135.07 -113.393L135.662 -7.31317L64.6627 -7.00761L64.4615 -43.0891C64.3652 -60.3581 76.8222 -74.7507 93.2751 -77.6304C77.0784 -80.3204 64.6157 -94.1587 64.0943 -111.022L64.0775 -111.923L63.8763 -148.004L99.958 -148.16L100.859 -148.152ZM360.074 -113.197L360.067 -112.295C359.734 -95.4289 347.426 -81.485 331.26 -78.6556C347.745 -75.9178 360.361 -61.6321 360.458 -44.363L360.659 -8.2815L289.66 -7.97593L289.068 -114.055C288.96 -133.34 304.506 -149.04 323.791 -149.123L359.873 -149.278L360.074 -113.197ZM400.856 -149.443C419.726 -149.046 434.961 -133.667 435.067 -114.684L435.658 -8.60428L364.659 -8.29871L364.458 -44.3802C364.362 -61.6491 376.818 -76.0418 393.271 -78.9215C377.075 -81.6115 364.612 -95.4498 364.09 -112.313L364.074 -113.214L363.872 -149.296L399.954 -149.451L400.856 -149.443ZM660.07 -114.488L660.063 -113.587C659.73 -96.7201 647.422 -82.7761 631.256 -79.9467C647.741 -77.2089 660.357 -62.9231 660.454 -45.6541L660.655 -9.5726L589.656 -9.26704L589.064 -115.346C588.957 -134.631 604.503 -150.331 623.787 -150.414L659.869 -150.569L660.07 -114.488ZM700.852 -150.734C719.722 -150.337 734.957 -134.958 735.063 -115.975L735.655 -9.89538L664.655 -9.58982L664.454 -45.6713C664.358 -62.9402 676.815 -77.3329 693.268 -80.2126C677.071 -82.9026 664.608 -96.7409 664.087 -113.604L664.07 -114.505L663.869 -150.587L699.95 -150.742L700.852 -150.734ZM960.07 -115.779L960.063 -114.878C959.73 -98.0112 947.422 -84.0673 931.257 -81.2378C947.741 -78.5 960.358 -64.2141 960.454 -46.9452L960.655 -10.8637L889.656 -10.5582L889.064 -116.638C888.957 -135.922 904.503 -151.622 923.787 -151.705L959.869 -151.861L960.07 -115.779ZM1000.85 -152.025C1019.72 -151.628 1034.96 -136.249 1035.06 -117.266L1035.65 -11.1865L964.655 -10.8809L964.454 -46.9624C964.358 -64.2313 976.815 -78.624 993.268 -81.5037C977.071 -84.1937 964.608 -98.032 964.087 -114.895L964.07 -115.796L963.869 -151.878L999.951 -152.033L1000.85 -152.025ZM175.354 -77.4826L140.273 -77.3316L140.657 -8.3337L209.657 -8.63065L209.461 -43.7121C209.358 -62.1516 194.56 -77.0914 176.229 -77.4766L175.392 -77.4838L175.354 -77.4826ZM249.149 -77.8012C230.436 -77.6987 215.357 -62.4564 215.461 -43.738L215.657 -8.65648L284.656 -8.95343L284.271 -77.9514L249.19 -77.8004C249.176 -77.8004 249.163 -77.8012 249.149 -77.8012ZM475.35 -78.7737L440.269 -78.6228L440.654 -9.62481L509.653 -9.92176L509.457 -45.0032C509.354 -63.4427 494.556 -78.3825 476.226 -78.7677L475.389 -78.7749L475.35 -78.7737ZM549.146 -79.0923C530.432 -78.9899 515.353 -63.7475 515.457 -45.0291L515.653 -9.94758L584.652 -10.2445L584.267 -79.2425L549.186 -79.0915C549.173 -79.0915 549.159 -79.0923 549.146 -79.0923ZM775.347 -80.0648L740.265 -79.9139L740.65 -10.9159L809.649 -11.2129L809.454 -46.2944C809.35 -64.7337 794.552 -79.6736 776.222 -80.0588L775.385 -80.066L775.347 -80.0648ZM849.142 -80.3834C830.429 -80.2811 815.349 -65.0386 815.454 -46.3202L815.649 -11.2387L884.649 -11.5356L884.264 -80.5336L849.182 -80.3826C849.169 -80.3826 849.155 -80.3835 849.142 -80.3834ZM1075.35 -81.356L1040.27 -81.205L1040.65 -12.207L1109.65 -12.504L1109.45 -47.5855C1109.35 -66.0248 1094.55 -80.9647 1076.22 -81.35L1075.38 -81.3571L1075.35 -81.356ZM1149.14 -81.6745C1130.43 -81.5722 1115.35 -66.3297 1115.45 -47.6113L1115.65 -12.5298L1184.65 -12.8268L1184.26 -81.8247L1149.18 -81.6737C1149.17 -81.6737 1149.16 -81.6746 1149.14 -81.6745ZM1225.34 -82.0015L1190.26 -81.8505L1190.65 -12.8526L1259.65 -13.1495L1259.45 -48.231C1259.35 -66.6704 1244.55 -81.6101 1226.22 -81.9955L1225.38 -82.0027L1225.34 -82.0015ZM1299.14 -82.3201C1280.43 -82.2178 1265.35 -66.9755 1265.45 -48.2568L1265.65 -13.1754L1334.65 -13.4723L1334.26 -82.4703L1299.18 -82.3193C1299.17 -82.3192 1299.15 -82.3201 1299.14 -82.3201ZM1375.34 -82.6471L1340.26 -82.4961L1340.65 -13.4981L1409.65 -13.7951L1409.45 -48.8766C1409.35 -67.3158 1394.55 -82.2558 1376.22 -82.6411L1375.38 -82.6482L1375.34 -82.6471ZM1449.14 -82.9656C1430.42 -82.8634 1415.35 -67.6208 1415.45 -48.9024L1415.65 -13.8209L1484.64 -14.1179L1484.26 -83.1158L1449.18 -82.9648C1449.17 -82.9648 1449.15 -82.9657 1449.14 -82.9656ZM25.3547 -76.838L-9.72703 -76.6871L-9.34216 -7.68912L59.6572 -7.98607L59.4615 -43.0676C59.3586 -61.507 44.5601 -76.4468 26.2297 -76.832L25.3928 -76.8392L25.3547 -76.838ZM99.1499 -77.1566C80.4363 -77.0543 65.3571 -61.812 65.4615 -43.0934L65.6571 -8.01189L134.657 -8.30885L134.272 -77.3068L99.1899 -77.1558C99.1766 -77.1558 99.1632 -77.1567 99.1499 -77.1566ZM325.351 -78.1292L290.269 -77.9782L290.654 -8.98022L359.653 -9.27718L359.458 -44.3587C359.355 -62.798 344.556 -77.7378 326.226 -78.1232L325.389 -78.1303L325.351 -78.1292ZM399.146 -78.4477C380.433 -78.3454 365.353 -63.103 365.458 -44.3845L365.653 -9.303L434.653 -9.59996L434.268 -78.5979L399.186 -78.4469C399.173 -78.4469 399.159 -78.4478 399.146 -78.4477ZM625.347 -79.4203L590.265 -79.2693L590.65 -10.2713L659.65 -10.5683L659.454 -45.6498C659.351 -64.0891 644.552 -79.0288 626.222 -79.4143L625.385 -79.4214L625.347 -79.4203ZM699.142 -79.7388C680.429 -79.6365 665.35 -64.3941 665.454 -45.6756L665.65 -10.5941L734.649 -10.8911L734.264 -79.889L699.182 -79.738C699.169 -79.738 699.156 -79.7389 699.142 -79.7388ZM925.347 -80.7114L890.266 -80.5604L890.65 -11.5625L959.65 -11.8594L959.454 -46.9409C959.351 -65.3801 944.552 -80.3199 926.222 -80.7054L925.385 -80.7125L925.347 -80.7114ZM999.142 -81.03C980.429 -80.9277 965.35 -65.6852 965.454 -46.9667L965.65 -11.8852L1034.65 -12.1822L1034.26 -81.1801L999.183 -81.0292C999.169 -81.0291 999.156 -81.03 999.142 -81.03ZM173.8 -147.477C155.36 -147.397 140.439 -132.618 140.077 -114.288L140.071 -113.413L140.267 -78.3326L175.387 -78.4838C194.101 -78.5849 209.182 -93.8267 209.077 -112.546L208.881 -147.628L173.8 -147.477ZM215.077 -112.572C215.182 -93.8529 230.431 -78.742 249.145 -78.8012L284.266 -78.9523L284.07 -114.033C283.967 -132.472 269.169 -147.412 250.838 -147.797L249.963 -147.804L214.881 -147.653L215.077 -112.572ZM473.796 -148.768C455.357 -148.688 440.435 -133.909 440.073 -115.579L440.068 -114.704L440.263 -79.6237L475.383 -79.7749C494.098 -79.876 509.178 -95.1178 509.073 -113.837L508.878 -148.919L473.796 -148.768ZM515.073 -113.863C515.178 -95.144 530.427 -80.033 549.141 -80.0923L584.262 -80.2434L584.066 -115.324C583.963 -133.763 569.165 -148.703 550.834 -149.088L549.959 -149.095L514.878 -148.944L515.073 -113.863ZM773.792 -150.059C755.353 -149.979 740.432 -135.2 740.07 -116.87L740.064 -115.995L740.259 -80.9148L775.379 -81.066C794.094 -81.1671 809.174 -96.4089 809.07 -115.128L808.874 -150.21L773.792 -150.059ZM815.07 -115.154C815.174 -96.4351 830.423 -81.3241 849.137 -81.3834L884.258 -81.5346L884.062 -116.615C883.959 -135.054 869.161 -149.994 850.831 -150.38L849.956 -150.387L814.874 -150.236L815.07 -115.154ZM1073.79 -151.35C1055.35 -151.27 1040.43 -136.491 1040.07 -118.161L1040.06 -117.286L1040.26 -82.2059L1075.38 -82.3571C1094.09 -82.4582 1109.17 -97.7 1109.07 -116.419L1108.87 -151.501L1073.79 -151.35ZM1115.07 -116.445C1115.17 -97.7261 1130.42 -82.6151 1149.14 -82.6745L1184.26 -82.8257L1184.06 -117.906C1183.96 -136.346 1169.16 -151.285 1150.83 -151.671L1149.96 -151.678L1114.87 -151.527L1115.07 -116.445ZM1223.79 -151.995C1205.35 -151.916 1190.43 -137.137 1190.07 -118.807L1190.06 -117.932L1190.26 -82.8515L1225.38 -83.0026C1244.09 -83.1039 1259.17 -98.3458 1259.07 -117.065L1258.87 -152.146L1223.79 -151.995ZM1265.07 -117.091C1265.17 -98.3719 1280.42 -83.2607 1299.13 -83.3201L1334.25 -83.4712L1334.06 -118.552C1333.96 -136.991 1319.16 -151.931 1300.83 -152.316L1299.95 -152.323L1264.87 -152.172L1265.07 -117.091ZM1373.79 -152.641C1355.35 -152.562 1340.43 -137.782 1340.07 -119.453L1340.06 -118.578L1340.26 -83.4971L1375.38 -83.6482C1394.09 -83.7494 1409.17 -98.9911 1409.07 -117.71L1408.87 -152.792L1373.79 -152.641ZM1415.07 -117.736C1415.17 -99.0172 1430.42 -83.9062 1449.13 -83.9656L1484.25 -84.1168L1484.06 -119.197C1483.96 -137.637 1469.16 -152.576 1450.83 -152.962L1449.95 -152.969L1414.87 -152.818L1415.07 -117.736ZM23.8002 -146.832C5.36053 -146.753 -9.56053 -131.973 -9.92243 -113.644L-9.92829 -112.769L-9.73261 -77.688L25.3872 -77.8392C44.1017 -77.9403 59.1819 -93.1821 59.0776 -111.901L58.8819 -146.983L23.8002 -146.832ZM65.0775 -111.927C65.182 -93.2082 80.4309 -78.0972 99.1453 -78.1566L134.266 -78.3078L134.07 -113.388C133.967 -131.828 119.169 -146.768 100.839 -147.153L99.9635 -147.16L64.8818 -147.009L65.0775 -111.927ZM323.796 -148.123C305.357 -148.044 290.436 -133.264 290.074 -114.935L290.068 -114.06L290.264 -78.9791L325.383 -79.1303C344.098 -79.2315 359.178 -94.4732 359.074 -113.193L358.878 -148.274L323.796 -148.123ZM365.074 -113.218C365.178 -94.4993 380.427 -79.3883 399.142 -79.4477L434.262 -79.5989L434.067 -114.679C433.964 -133.119 419.165 -148.059 400.835 -148.444L399.96 -148.451L364.878 -148.3L365.074 -113.218ZM623.793 -149.414C605.353 -149.335 590.432 -134.555 590.07 -116.226L590.064 -115.351L590.26 -80.2702L625.38 -80.4214C644.094 -80.5227 659.174 -95.7644 659.07 -114.484L658.874 -149.565L623.793 -149.414ZM665.07 -114.509C665.174 -95.7904 680.423 -80.6794 699.138 -80.7388L734.259 -80.89L734.063 -115.97C733.96 -134.41 719.161 -149.35 700.831 -149.735L699.956 -149.742L664.874 -149.591L665.07 -114.509ZM923.793 -150.705C905.353 -150.626 890.432 -135.846 890.07 -117.517L890.064 -116.642L890.26 -81.5614L925.38 -81.7125C944.094 -81.8139 959.175 -97.0555 959.07 -115.775L958.874 -150.856L923.793 -150.705ZM965.07 -115.801C965.175 -97.0816 980.424 -81.9705 999.138 -82.0299L1034.26 -82.1811L1034.06 -117.262C1033.96 -135.701 1019.16 -150.641 1000.83 -151.026L999.956 -151.033L964.874 -150.882L965.07 -115.801Z" fill="white"/>
</svg>
