<svg width="25" height="25" viewBox="0 0 25 25" fill="none" xmlns="http://www.w3.org/2000/svg">
<path d="M13.5095 3.42031L19.4095 6.04031C21.1095 6.79031 21.1095 8.03031 19.4095 8.78031L13.5095 11.4003C12.8395 11.7003 11.7395 11.7003 11.0695 11.4003L5.16953 8.78031C3.46953 8.03031 3.46953 6.79031 5.16953 6.04031L11.0695 3.42031C11.7395 3.12031 12.8395 3.12031 13.5095 3.42031Z" stroke="#003090" stroke-width="1.5" stroke-linecap="round" stroke-linejoin="round"/>
<path opacity="0.4" d="M3.5 11.5C3.5 12.34 4.13 13.31 4.9 13.65L11.69 16.67C12.21 16.9 12.8 16.9 13.31 16.67L20.1 13.65C20.87 13.31 21.5 12.34 21.5 11.5" stroke="#003090" stroke-width="1.5" stroke-linecap="round" stroke-linejoin="round"/>
<path opacity="0.4" d="M3.5 16.5C3.5 17.43 4.05 18.27 4.9 18.65L11.69 21.67C12.21 21.9 12.8 21.9 13.31 21.67L20.1 18.65C20.95 18.27 21.5 17.43 21.5 16.5" stroke="#003090" stroke-width="1.5" stroke-linecap="round" stroke-linejoin="round"/>
</svg>
