                                      <svg width="24" height="25" viewBox="0 0 24 25" fill="none"
                                            xmlns="http://www.w3.org/2000/svg">
                                            <path
                                                d="M12 22.8848C9.87386 22.8848 7.79545 22.2543 6.02762 21.0731C4.2598 19.8918 2.88194 18.2129 2.0683 16.2486C1.25466 14.2843 1.04177 12.1228 1.45656 10.0375C1.87135 7.95225 2.89519 6.03679 4.39861 4.53337C5.90202 3.02996 7.81749 2.00612 9.90278 1.59133C11.9881 1.17654 14.1495 1.38942 16.1139 2.20307C18.0782 3.01671 19.7571 4.39456 20.9383 6.16239C22.1195 7.93022 22.75 10.0086 22.75 12.1348C22.7476 14.9851 21.6143 17.718 19.5988 19.7335C17.5833 21.749 14.8504 22.8824 12 22.8848ZM12 2.88477C10.1705 2.88477 8.38213 3.42727 6.86098 4.44368C5.33983 5.46008 4.15423 6.90473 3.45412 8.59495C2.75401 10.2852 2.57083 12.145 2.92774 13.9394C3.28465 15.7337 4.16563 17.3819 5.45927 18.6755C6.7529 19.9691 8.40109 20.8501 10.1954 21.207C11.9897 21.5639 13.8496 21.3808 15.5398 20.6807C17.23 19.9805 18.6747 18.795 19.6911 17.2738C20.7075 15.7526 21.25 13.9642 21.25 12.1348C21.2471 9.68241 20.2716 7.33133 18.5375 5.59725C16.8034 3.86317 14.4524 2.88768 12 2.88477Z"
                                                fill="#5A5A5A" />
                                            <path
                                                d="M15.7106 16.0645C15.5758 16.0669 15.4433 16.0286 15.3306 15.9545L12.2306 14.1045C11.8346 13.8472 11.5062 13.4985 11.273 13.0878C11.0398 12.6771 10.9087 12.2165 10.8906 11.7445V7.64453C10.8919 7.44602 10.9714 7.25602 11.1117 7.11565C11.2521 6.97528 11.4421 6.89584 11.6406 6.89453C11.8391 6.89584 12.0291 6.97528 12.1695 7.11565C12.3099 7.25602 12.3893 7.44602 12.3906 7.64453V11.7445C12.4094 11.9563 12.4736 12.1614 12.5789 12.3461C12.6841 12.5308 12.828 12.6905 13.0006 12.8145L16.1006 14.6645C16.1855 14.7149 16.2597 14.7815 16.3187 14.8606C16.3778 14.9397 16.4207 15.0297 16.4448 15.1255C16.469 15.2212 16.474 15.3207 16.4595 15.4184C16.4451 15.5161 16.4115 15.6099 16.3606 15.6945C16.2927 15.8064 16.1973 15.899 16.0836 15.9638C15.9698 16.0285 15.8415 16.0632 15.7106 16.0645Z"
                                                fill="#5A5A5A" />
                                        </svg>