                                <svg width="24" height="25" viewBox="0 0 24 25" fill="none"
                                    xmlns="http://www.w3.org/2000/svg">
                                    <path
                                        d="M7.25827 2.5H16.7283C17.3783 2.5 17.9583 2.52003 18.4783 2.59003C21.2483 2.90003 21.9983 4.20001 21.9983 7.76001V14.08C21.9983 17.64 21.2483 18.94 18.4783 19.25C17.9583 19.32 17.3883 19.34 16.7283 19.34H7.25827C6.60827 19.34 6.02827 19.32 5.50827 19.25C2.73827 18.94 1.98828 17.64 1.98828 14.08V7.76001C1.98828 4.20001 2.73827 2.90003 5.50827 2.59003C6.02827 2.52003 6.60827 2.5 7.25827 2.5Z"
                                        stroke="#003090" stroke-width="1.5" stroke-linecap="round"
                                        stroke-linejoin="round" />
                                    <path opacity="0.4" d="M13.5781 8.82031H17.2581" stroke="#003090" stroke-width="1.5"
                                        stroke-linecap="round" stroke-linejoin="round" />
                                    <path opacity="0.4" d="M6.73828 14.6094H6.75827H17.2683" stroke="#003090"
                                        stroke-width="1.5" stroke-linecap="round" stroke-linejoin="round" />
                                    <path opacity="0.4" d="M7 22.5H17" stroke="#003090" stroke-width="1.5"
                                        stroke-linecap="round" stroke-linejoin="round" />
                                    <path opacity="0.4" d="M7.19373 8.80078H7.20271" stroke="#003090" stroke-width="2"
                                        stroke-linecap="round" stroke-linejoin="round" />
                                    <path opacity="0.4" d="M10.4945 8.80078H10.5035" stroke="#003090" stroke-width="2"
                                        stroke-linecap="round" stroke-linejoin="round" />
                                </svg>