<svg width="24" height="24" viewBox="0 0 24 24" fill="none" xmlns="http://www.w3.org/2000/svg">
<path d="M12 22.75C9.87386 22.75 7.79545 22.1195 6.02762 20.9383C4.2598 19.7571 2.88194 18.0782 2.0683 16.1139C1.25466 14.1495 1.04177 11.9881 1.45656 9.90278C1.87135 7.81749 2.89519 5.90202 4.39861 4.39861C5.90202 2.89519 7.81749 1.87135 9.90278 1.45656C11.9881 1.04177 14.1495 1.25466 16.1139 2.0683C18.0782 2.88194 19.7571 4.2598 20.9383 6.02762C22.1195 7.79545 22.75 9.87386 22.75 12C22.7476 14.8504 21.6143 17.5833 19.5988 19.5988C17.5833 21.6143 14.8504 22.7476 12 22.75ZM12 2.75C10.1705 2.75 8.38213 3.29251 6.86098 4.30891C5.33983 5.32531 4.15423 6.76997 3.45412 8.46018C2.75401 10.1504 2.57083 12.0103 2.92774 13.8046C3.28465 15.5989 4.16563 17.2471 5.45927 18.5407C6.7529 19.8344 8.40109 20.7154 10.1954 21.0723C11.9897 21.4292 13.8496 21.246 15.5398 20.5459C17.23 19.8458 18.6747 18.6602 19.6911 17.139C20.7075 15.6179 21.25 13.8295 21.25 12C21.2471 9.54765 20.2716 7.19656 18.5375 5.46248C16.8034 3.7284 14.4524 2.75292 12 2.75Z" fill="#666666"/>
<path d="M15.7106 15.9298C15.5758 15.9322 15.4433 15.8938 15.3306 15.8198L12.2306 13.9698C11.8346 13.7124 11.5062 13.3638 11.273 12.9531C11.0398 12.5424 10.9087 12.0817 10.8906 11.6098V7.50977C10.8919 7.31126 10.9714 7.12125 11.1117 6.98088C11.2521 6.84051 11.4421 6.76108 11.6406 6.75977C11.8391 6.76108 12.0291 6.84051 12.1695 6.98088C12.3099 7.12125 12.3893 7.31126 12.3906 7.50977V11.6098C12.4094 11.8215 12.4736 12.0267 12.5789 12.2113C12.6841 12.396 12.828 12.5558 13.0006 12.6798L16.1006 14.5298C16.1855 14.5801 16.2597 14.6468 16.3187 14.7259C16.3778 14.805 16.4207 14.895 16.4448 14.9907C16.469 15.0864 16.474 15.186 16.4595 15.2836C16.4451 15.3813 16.4115 15.4751 16.3606 15.5598C16.2927 15.6716 16.1973 15.7642 16.0836 15.829C15.9698 15.8937 15.8415 15.9284 15.7106 15.9298Z" fill="#666666"/>
</svg>
