<svg width="640" height="350" viewBox="0 0 640 350" fill="none" xmlns="http://www.w3.org/2000/svg">
<path d="M1 182C1 98.605 68.605 31 152 31H295C299.418 31 303 34.5817 303 39V182C303 265.395 235.395 333 152 333V333C68.605 333 1 265.395 1 182V182Z" stroke="#003090" stroke-width="2" stroke-linecap="round" stroke-dasharray="12 12"/>
<path d="M341.691 28.2482C343.906 26.4022 344.058 23.0524 342.019 21.0134C339.966 18.9596 336.587 19.131 334.751 21.382L321.517 37.6131C320.581 38.761 320.665 40.431 321.713 41.4783C322.768 42.534 324.455 42.6105 325.602 41.6548L341.691 28.2482Z" fill="#003090"/>
<path d="M325.774 19.7168C326.516 17.6989 325.366 15.4792 323.289 14.9227C321.197 14.3622 319.079 15.7325 318.733 17.8703L316.238 33.2852C316.062 34.3754 316.739 35.4222 317.806 35.708C318.881 35.9961 319.998 35.4168 320.383 34.3721L325.774 19.7168Z" fill="#003090"/>
<path d="M344.151 45.0974C346.281 44.8007 347.696 42.7395 347.208 40.6456C346.716 38.5365 344.509 37.3148 342.461 38.0175L327.69 43.0845C326.645 43.4428 326.042 44.5337 326.292 45.6092C326.545 46.6932 327.583 47.4057 328.685 47.2521L344.151 45.0974Z" fill="#003090"/>
<path d="M338 151C338 67.605 405.605 0 489 0C572.395 0 640 67.605 640 151C640 234.395 572.395 302 489 302H346C341.582 302 338 298.418 338 294V151Z" fill="#F8F8F8"/>
<g clip-path="url(#clip0_3238_22222)">
<path d="M541.787 135.294C537.882 137.796 533.24 135.95 526.584 131.526C521.579 128.199 516.977 125.235 513.234 119.541C510.614 115.557 509.143 111.273 508.42 107.489C507.636 103.39 506.152 98.3968 509.469 95.9923C514.025 92.69 528.608 95.6426 537.541 108.307C547.353 122.22 545.605 132.849 541.787 135.294Z" fill="#F8F8F8"/>
<path d="M566.113 175.986C561.077 178.484 554.395 175.272 554.395 175.272C554.395 175.272 555.88 168.012 560.918 165.518C565.953 163.02 572.633 166.229 572.633 166.229C572.633 166.229 571.148 173.489 566.113 175.986Z" fill="white"/>
<path d="M402.913 124.657C411.064 129.542 422.756 125.026 422.756 125.026C422.756 125.026 421.228 112.593 413.073 107.714C404.923 102.829 393.234 107.339 393.234 107.339C393.234 107.339 394.764 119.773 402.913 124.657Z" fill="#D6D6D6"/>
<path d="M567.783 121.209C564.924 121.209 562.606 123.527 562.606 126.387C562.606 129.246 564.924 131.564 567.783 131.564C570.643 131.564 572.961 129.246 572.961 126.387C572.961 123.527 570.643 121.209 567.783 121.209Z" fill="#003090"/>
<path d="M413.558 140.785C411.204 140.785 409.295 142.694 409.295 145.048C409.295 147.402 411.204 149.311 413.558 149.311C415.912 149.311 417.82 147.402 417.82 145.048C417.82 142.694 415.912 140.785 413.558 140.785Z" fill="#003090"/>
<path d="M435.669 228.296C432.988 228.296 430.815 226.123 430.815 223.442C430.815 220.761 432.988 218.588 435.669 218.588C438.35 218.588 440.523 220.761 440.523 223.442C440.523 226.123 438.35 228.296 435.669 228.296Z" fill="#003090"/>
<path d="M575.121 186.146C573.87 186.146 572.856 185.132 572.856 183.881C572.856 182.629 573.87 181.615 575.121 181.615C576.372 181.615 577.387 182.629 577.387 183.881C577.387 185.132 576.372 186.146 575.121 186.146Z" fill="#003090"/>
<path d="M526.744 219.073C525.135 219.073 523.831 217.769 523.831 216.161C523.831 214.552 525.135 213.248 526.744 213.248C528.352 213.248 529.656 214.552 529.656 216.161C529.656 217.769 528.352 219.073 526.744 219.073Z" fill="#D6D6D6"/>
<path d="M396.949 201.012C394.626 201.012 392.742 199.128 392.742 196.805C392.742 194.481 394.626 192.598 396.949 192.598C399.273 192.598 401.156 194.481 401.156 196.805C401.156 199.128 399.273 201.012 396.949 201.012Z" fill="#D6D6D6"/>
<path d="M571.646 223.287C569.877 223.287 568.444 221.853 568.444 220.085C568.444 218.316 569.877 216.883 571.646 216.883C573.414 216.883 574.848 218.316 574.848 220.085C574.848 221.853 573.414 223.287 571.646 223.287Z" fill="#D6D6D6"/>
<path d="M572.757 104.534C570.791 104.534 569.197 102.94 569.197 100.974C569.197 99.0078 570.791 97.4141 572.757 97.4141C574.723 97.4141 576.316 99.0078 576.316 100.974C576.316 102.94 574.723 104.534 572.757 104.534Z" fill="#D6D6D6"/>
<path d="M389.495 152.488C389.952 154.193 388.94 155.946 387.235 156.403C385.529 156.86 383.776 155.848 383.32 154.142C382.863 152.437 383.875 150.684 385.58 150.227C387.285 149.77 389.038 150.782 389.495 152.488Z" fill="#D6D6D6"/>
<path d="M447.873 91.4401C447.138 91.4401 446.542 90.8444 446.542 90.1097C446.542 89.3749 447.138 88.7793 447.873 88.7793C448.607 88.7793 449.203 89.3749 449.203 90.1097C449.203 90.8444 448.607 91.4401 447.873 91.4401Z" fill="#D6D6D6"/>
<path d="M565.877 199.294C564.071 199.294 562.606 198.123 562.606 196.677C562.606 195.232 564.071 194.061 565.877 194.061C567.684 194.061 569.148 195.232 569.148 196.677C569.148 198.123 567.684 199.294 565.877 199.294Z" fill="#D6D6D6"/>
<path d="M555.651 154.525C555.651 117.14 525.31 86.7988 487.925 86.7988C450.541 86.7988 420.199 117.14 420.199 154.525C420.199 191.909 450.541 222.25 487.925 222.25" stroke="#D6D6D6" stroke-width="7.57333" stroke-linecap="round" stroke-linejoin="round"/>
<path d="M460.835 93.5703H467.608C454.402 133.133 454.402 175.914 467.608 215.477H460.835M508.243 93.5703C514.812 113.346 518.131 133.935 518.131 154.524" stroke="#D6D6D6" stroke-width="7.57333" stroke-linecap="round" stroke-linejoin="round"/>
<path d="M426.973 181.615V174.842C446.749 181.412 467.337 184.731 487.926 184.731M426.973 134.208C466.535 121.001 509.317 121.001 548.879 134.208" stroke="#D6D6D6" stroke-width="7.57333" stroke-linecap="round" stroke-linejoin="round"/>
<path d="M470.328 76.4082H407.475C403.99 76.4082 401.164 79.2338 401.164 82.7193V161.925C401.164 165.41 403.99 168.236 407.475 168.236H470.328C473.813 168.236 476.639 165.41 476.639 161.925V82.7193C476.639 79.2338 473.813 76.4082 470.328 76.4082Z" fill="white" stroke="#D6D6D6" stroke-width="1.26222" stroke-linecap="round" stroke-linejoin="round"/>
<mask id="mask0_3238_22222" style="mask-type:alpha" maskUnits="userSpaceOnUse" x="399" y="74" width="80" height="101">
<path d="M401.164 76.4102H476.578V172.325H401.164V76.4102Z" fill="white" stroke="white" stroke-width="3.47111" stroke-linecap="round" stroke-linejoin="round"/>
</mask>
<g mask="url(#mask0_3238_22222)">
<path d="M444.234 92.8828H433.143C424.985 92.8828 418.371 99.4965 418.371 107.655V118.746C418.371 126.904 424.985 133.518 433.143 133.518H444.234C452.393 133.518 459.006 126.904 459.006 118.746V107.655C459.006 99.4965 452.393 92.8828 444.234 92.8828Z" fill="#003090"/>
<path fill-rule="evenodd" clip-rule="evenodd" d="M447.922 121.724V123.082C447.922 123.832 447.322 124.441 446.582 124.441H430.493C429.753 124.441 429.152 123.832 429.152 123.082V121.702C429.152 117.591 433.788 114.92 438.537 114.92C443.286 114.92 447.922 117.592 447.922 121.702M441.902 102.984C443.761 104.843 443.761 107.857 441.902 109.717C440.043 111.576 437.029 111.576 435.17 109.717C433.311 107.857 433.311 104.843 435.17 102.984C437.029 101.125 440.043 101.125 441.902 102.984Z" fill="white"/>
<path d="M461.017 147.062H417.087C415.772 147.062 414.707 148.128 414.707 149.442C414.707 150.756 415.772 151.822 417.087 151.822H461.017C462.331 151.822 463.396 150.756 463.396 149.442C463.396 148.128 462.331 147.062 461.017 147.062Z" fill="#D6D6D6"/>
<path d="M460.651 137.545H417.453C415.936 137.545 414.707 138.774 414.707 140.291C414.707 141.807 415.936 143.036 417.453 143.036H460.651C462.167 143.036 463.396 141.807 463.396 140.291C463.396 138.774 462.167 137.545 460.651 137.545Z" fill="#D6D6D6"/>
<path d="M460.651 155.85H417.453C415.936 155.85 414.707 157.079 414.707 158.595C414.707 160.112 415.936 161.341 417.453 161.341H460.651C462.167 161.341 463.396 160.112 463.396 158.595C463.396 157.079 462.167 155.85 460.651 155.85Z" fill="#D6D6D6"/>
<path d="M413.977 84.463C413.977 83.0477 412.829 81.9004 411.414 81.9004C409.999 81.9004 408.852 83.0477 408.852 84.463C408.852 85.8783 409.999 87.0256 411.414 87.0256C412.829 87.0256 413.977 85.8783 413.977 84.463Z" fill="#D6D6D6"/>
<path d="M421.297 84.463C421.297 83.0477 420.15 81.9004 418.735 81.9004C417.319 81.9004 416.172 83.0477 416.172 84.463C416.172 85.8783 417.319 87.0256 418.735 87.0256C420.15 87.0256 421.297 85.8783 421.297 84.463Z" fill="#D6D6D6"/>
<path d="M428.621 84.463C428.621 83.0477 427.474 81.9004 426.059 81.9004C424.643 81.9004 423.496 83.0477 423.496 84.463C423.496 85.8783 424.643 87.0256 426.059 87.0256C427.474 87.0256 428.621 85.8783 428.621 84.463Z" fill="#D6D6D6"/>
</g>
<path d="M547.469 78.3789H536.378C528.219 78.3789 521.605 84.9926 521.605 93.151V104.242C521.605 112.401 528.219 119.014 536.378 119.014H547.469C555.627 119.014 562.241 112.401 562.241 104.242V93.151C562.241 84.9926 555.627 78.3789 547.469 78.3789Z" fill="#003090"/>
<path d="M523.863 187H512.772C504.614 187 498 193.614 498 201.772V212.863C498 221.022 504.614 227.635 512.772 227.635H523.863C532.022 227.635 538.635 221.022 538.635 212.863V201.772C538.635 193.614 532.022 187 523.863 187Z" fill="#003090"/>
<path fill-rule="evenodd" clip-rule="evenodd" d="M551.157 107.219V108.578C551.157 109.328 550.556 109.936 549.816 109.936H533.728C532.988 109.936 532.387 109.328 532.387 108.578V107.198C532.387 103.087 537.023 100.415 541.772 100.415C546.52 100.415 551.157 103.088 551.157 107.198M545.137 88.4799C546.996 90.3392 546.996 93.3533 545.137 95.2123C543.277 97.0715 540.263 97.0715 538.404 95.2123C536.545 93.3533 536.545 90.3392 538.404 88.4799C540.263 86.6213 543.277 86.6213 545.137 88.4799Z" fill="white"/>
<path fill-rule="evenodd" clip-rule="evenodd" d="M527.551 215.84V217.199C527.551 217.949 526.951 218.558 526.211 218.558H510.122C509.382 218.558 508.781 217.949 508.781 217.199V215.819C508.781 211.708 513.417 209.037 518.166 209.037C522.915 209.037 527.551 211.709 527.551 215.819M521.531 197.101C523.39 198.96 523.39 201.974 521.531 203.833C519.672 205.693 516.658 205.693 514.799 203.833C512.94 201.974 512.94 198.96 514.799 197.101C516.658 195.242 519.672 195.242 521.531 197.101Z" fill="white"/>
<path d="M517.816 127.068H506.725C498.567 127.068 491.953 133.682 491.953 141.84V152.932C491.953 161.09 498.567 167.704 506.725 167.704H517.816C525.975 167.704 532.588 161.09 532.588 152.932V141.84C532.588 133.682 525.975 127.068 517.816 127.068Z" fill="#003090"/>
<path fill-rule="evenodd" clip-rule="evenodd" d="M521.504 155.909V157.268C521.504 158.018 520.904 158.626 520.164 158.626H504.075C503.335 158.626 502.734 158.018 502.734 157.268V155.887C502.734 151.776 507.371 149.105 512.119 149.105C516.868 149.105 521.504 151.778 521.504 155.887M515.484 137.17C517.343 139.029 517.343 142.043 515.484 143.902C513.625 145.761 510.611 145.761 508.752 143.902C506.893 142.043 506.893 139.029 508.752 137.17C510.611 135.311 513.625 135.311 515.484 137.17Z" fill="white"/>
</g>
<path d="M163 48.5H306C310.142 48.5 313.5 51.8579 313.5 56V199C313.5 282.119 246.119 349.5 163 349.5C79.8811 349.5 12.5 282.119 12.5 199C12.5 115.881 79.8811 48.5 163 48.5Z" fill="#F8F8F8" stroke="#D6D6D6"/>
<g clip-path="url(#clip1_3238_22222)">
<mask id="mask1_3238_22222" style="mask-type:luminance" maskUnits="userSpaceOnUse" x="-32" y="57" width="380" height="254">
<path d="M347.805 57.4316H-31.9295V310.588H347.805V57.4316Z" fill="white"/>
</mask>
<g mask="url(#mask1_3238_22222)">
<path d="M89.7745 112.689H258.736C266.666 112.689 273.094 119.118 273.094 127.047V230.935C273.094 238.864 266.666 245.293 258.736 245.293H89.7745C81.8449 245.293 75.4168 238.864 75.4168 230.935V127.047C75.4168 119.118 81.8449 112.689 89.7745 112.689Z" fill="white" stroke="#D6D6D6" stroke-width="1.24848"/>
<path d="M257.579 126.35C255.972 126.35 254.669 125.048 254.669 123.441C254.669 121.834 255.972 120.531 257.579 120.531C259.186 120.531 260.488 121.834 260.488 123.441C260.488 125.048 259.186 126.35 257.579 126.35Z" fill="#D6D6D6"/>
<path d="M247.528 126.35C245.921 126.35 244.618 125.048 244.618 123.441C244.618 121.834 245.921 120.531 247.528 120.531C249.135 120.531 250.438 121.834 250.438 123.441C250.438 125.048 249.135 126.35 247.528 126.35Z" fill="#D6D6D6"/>
<path d="M237.477 126.35C235.87 126.35 234.567 125.048 234.567 123.441C234.567 121.834 235.87 120.531 237.477 120.531C239.084 120.531 240.387 121.834 240.387 123.441C240.387 125.048 239.084 126.35 237.477 126.35Z" fill="#D6D6D6"/>
<path d="M36.476 173.93C38.7991 148.805 80.5985 149.258 80.5985 149.258C80.5985 149.258 115.397 186.466 123.57 186.075C131.742 185.684 100.028 148.45 100.028 148.45C115.264 144.257 158.063 156.378 158.063 156.378C158.063 156.378 164.087 205.802 171.912 203.412C179.737 201.021 164.346 159.919 164.346 159.919C180.124 161.81 197.166 176.873 197.166 176.873C219.621 202.321 185.783 229.844 185.783 229.844C185.783 229.844 188.239 246.927 202.131 264.595C202.131 264.595 205.124 267.782 208.598 273.483L204.51 274.195C204 273.178 203.445 272.185 202.848 271.216C202.845 271.208 202.843 271.204 202.836 271.198C202.825 271.183 202.82 271.171 202.81 271.157C202.421 270.575 201.859 269.743 201.167 268.738L201.165 268.734L201.164 268.73C199.49 266.5 198.329 264.842 197.571 263.633L197.566 263.621C192.488 256.594 185.357 247.532 181.396 246.061C181.396 246.061 181.738 245.347 181.946 244.035C181.769 244.681 181.591 245.356 181.396 246.061C177.007 262.276 142.448 270.863 122.256 270.255C102.064 269.647 109.604 262.67 118.551 251.919C127.498 241.168 149.902 239.694 155.789 235.064C161.677 230.434 151.573 228.588 138.746 231.848C125.925 235.11 121.683 249.237 101.037 254.89C80.3909 260.543 57.5213 223.831 57.5213 223.831C72.8018 225.811 97.4064 213.285 97.5368 208.115C97.6659 202.94 59.2596 210.137 53.0024 209.681C46.7359 209.225 34.1528 199.055 36.476 173.93Z" fill="url(#paint0_linear_3238_22222)"/>
<path d="M250.833 201.599C245.223 192.517 229.471 200.557 229.471 200.557C229.471 200.557 223.291 221.206 220.121 222.596C216.951 223.987 221.958 203.909 221.958 203.909C215.396 205.188 201.462 217.838 201.462 217.838C201.462 217.838 208.484 237.698 205.069 238.266C201.654 238.833 199.748 220.363 199.748 220.363C194.126 224.049 190.505 232.965 190.505 232.965C186.788 246.834 204.79 250.892 204.79 250.892C204.79 250.892 207.075 257.827 205.138 267.136C205.138 267.136 204.604 268.907 204.361 271.721L206.044 271.221C206.046 270.74 206.069 270.259 206.113 269.78C206.113 269.776 206.112 269.774 206.114 269.77C206.115 269.763 206.115 269.757 206.116 269.75C206.154 269.456 206.21 269.035 206.283 268.524L206.283 268.522V268.521C206.497 267.36 206.625 266.514 206.684 265.913L206.684 265.908C207.285 262.289 208.281 257.513 209.505 256.21C209.505 256.21 209.241 256.004 208.915 255.546C209.104 255.758 209.298 255.98 209.505 256.21C214.22 261.528 228.931 258.275 236.467 254.243C244.003 250.211 239.832 248.987 234.419 246.599C229.005 244.21 220.239 247.869 217.137 247.223C214.034 246.577 217.515 243.976 222.988 242.796C228.46 241.618 232.727 246.172 241.613 244.427C250.5 242.682 252.254 224.468 252.254 224.468C246.837 228.094 235.157 227.98 234.134 226.046C233.111 224.11 249.017 219.606 251.302 218.256C253.59 216.903 256.444 210.681 250.833 201.599Z" fill="url(#paint1_linear_3238_22222)"/>
<path d="M166.07 185.715C164.282 188.52 159.611 191.788 156.297 191.744C145.01 191.537 141.294 183.848 140.076 181.049C140.305 180.993 140.691 180.948 140.964 180.914C143.043 180.613 145.166 178.557 145.787 176.238C146.586 173.22 147.569 167.32 147.452 163.57L161.729 171.471C161.706 172.555 161.634 173.74 161.533 174.936C161.46 175.662 161.388 176.377 161.304 177.07C161.226 177.735 161.136 178.366 161.053 178.948C160.79 180.903 161.662 182.842 163.31 183.921L166.07 185.715Z" fill="#F8AE9D"/>
<path d="M167.297 154.98C166.525 157.003 166.849 159.3 167.632 161.317C168.185 162.742 169.414 161.485 170.946 161.513C173.315 161.552 175.164 159.087 176.595 152.555C177.506 147.761 177.735 145.33 177.55 144.867C176.896 143.207 174.74 142.319 172.963 142.162" fill="#444444"/>
<path d="M170.902 140.615C174.635 145.113 175.993 157.77 172.841 166.587C170.6 172.857 167.996 176.902 164.957 176.774C160.341 176.578 151.395 172.784 148.484 169.616C143.237 163.911 144.762 152.724 145.846 145.683C146.83 139.286 149.825 130.976 157.866 132.557C163.152 133.591 167.555 136.575 170.902 140.615Z" fill="#F8AE9D"/>
<path d="M149.787 145.584C150.614 146.648 152.074 146.882 153.276 147.092C154.893 147.375 155.692 147.964 156.531 149.545C157.063 150.554 157.594 151.66 158.544 152.207C159.317 152.653 159.288 151.513 159.412 150.629C159.424 150.552 159.44 150.476 159.46 150.401C159.647 149.696 160.398 149.817 160.62 150.512C160.821 151.137 161.252 151.666 161.8 151.96C161.889 152.008 161.984 152.05 162.079 152.032C162.208 152.015 162.308 151.894 162.392 151.786C162.568 151.559 162.743 151.271 162.924 150.965C163.518 149.963 164.638 150.323 165.301 151.281C165.714 151.876 166.207 152.489 166.883 152.627C167.102 152.675 167.375 152.639 167.476 152.429C167.605 152.171 167.404 151.912 167.437 151.648C167.465 151.401 167.571 151.293 167.689 151.083C168.15 150.265 169.203 150.236 169.852 150.915C170.303 151.386 170.774 151.839 171.263 152.273C171.469 152.453 171.771 152.633 171.978 152.453C172.09 152.357 172.118 152.195 172.141 152.038C172.258 151.275 172.37 150.512 172.487 149.749C172.555 149.322 172.784 148.763 173.175 148.871C173.365 148.926 173.477 149.124 173.583 149.304C173.712 149.532 176.011 152.134 176.055 151.936C176.414 150.458 177.146 149.112 177.504 147.633C179.819 138.12 169.545 130.47 161.699 130.428C159.954 130.416 158.36 130.444 156.666 130.847C154.859 131.279 152.952 131.966 151.313 132.934C149.015 134.286 147.275 136.744 147.723 139.677" fill="#444444"/>
<path d="M153.478 142.319C154.618 143.609 154.92 145.425 155.026 147.141C155.183 149.728 154.97 152.416 153.775 154.712C153.434 155.366 153.182 158.601 152.657 158.422C152.489 158.367 152.517 155.858 152.076 154.506C151.394 152.41 148.254 151.611 146.84 152.935C144.583 155.042 145.907 157.601 146.656 159.194C147.103 160.155 147.812 161.233 147.936 162.25C148.086 163.552 148.131 168.296 147.282 169.403C146.572 170.33 145.818 165.849 145.175 164.966C140.42 158.389 135.86 141.642 143.979 138.01C145.214 137.457 149.025 137.172 150.182 137.876M183.541 275.442C184.011 275.52 184.485 275.587 184.977 275.604C187.593 275.688 190.118 275.112 192.672 274.676C194.918 274.291 195.527 274.078 195.482 271.368C195.091 249.906 191.934 228.499 186.257 207.796C185.391 204.633 184.447 201.448 182.787 198.621C179.954 193.799 173.45 189.636 168.46 187.3C167.756 186.97 164.839 188.825 164.129 188.507C163.509 188.228 162.961 187.792 162.336 187.518C160.503 186.719 159.274 188.39 157.742 189.088C156.949 189.446 156.066 189.675 155.194 189.636C154.485 189.608 153.842 189.178 153.194 189.513C150.277 191.022 143.035 179.824 143.035 179.824L139.889 183.092L130.709 192.709L107.765 224.319C107.765 224.319 103.602 250.224 100.741 267.206C100.244 270.133 98.2773 276.464 97.8862 278.683C97.9697 278.202 117.471 278.074 118.522 278.074H158.268C160.497 278.074 166.493 279.018 168.057 277.381C169.985 275.369 172.215 266.138 172.332 263.551C172.718 254.851 172.12 246.218 172.002 237.467C172.053 241.027 173.075 244.245 173.511 247.732C174.076 252.219 174.88 256.7 175.606 261.165C176.188 264.753 176.746 268.351 177.194 271.961C177.395 273.587 177.138 274.553 178.512 275.191C179.669 275.721 182.189 275.213 183.541 275.442Z" fill="#444444"/>
<path d="M173.86 268.01C172.798 267.574 166.243 265.948 163.288 265.333C161.74 265.015 154.721 263.193 153.096 263.193C151.47 263.193 149.257 265.518 149.257 265.518L149.843 273.514C151.408 273.358 153.503 274.168 154.626 274.324C155.75 274.48 159.566 274.503 161.913 273.324C162.047 273.257 162.17 273.184 162.293 273.112C163.237 273.95 164.422 274.766 165.735 274.833C165.735 274.833 166.763 274.726 166.663 274.313C166.618 274.112 165.936 273.072 165.254 272.056C166.26 273.078 167.903 274.738 169.797 274.833C169.797 274.833 170.825 274.726 170.725 274.313C170.669 274.067 169.685 272.597 168.892 271.429C168.903 271.441 168.92 271.446 168.926 271.458C169.758 272.19 171.736 274.715 174.078 274.833C174.078 274.833 175.106 274.726 175.005 274.313C174.972 274.162 174.581 273.542 174.106 272.821C174.799 273.353 175.542 273.818 176.324 274.207C178.855 275.458 180.297 274.509 180.297 274.207C180.302 273.899 174.922 268.446 173.86 268.01Z" fill="#F8AE9D"/>
<path d="M151.066 258.725C151.066 258.725 155.145 261.038 154.782 265.955C154.419 270.872 152.943 276.572 146.786 275.974C140.628 275.382 151.066 258.725 151.066 258.725Z" fill="#444444"/>
<path d="M147.782 275.486C133.018 280.611 113.266 275.716 100.743 267.205C92.8981 261.886 87.8916 255.13 88.7354 248.531C90.9202 231.388 104.392 192.095 116.048 186.362C123.972 182.461 133.583 180.846 138.941 180.198C141.456 179.891 143.026 179.818 143.026 179.818L141.082 185.306L131.348 212.753C130.985 229.041 119.328 238.713 121.647 242.507C123.966 246.29 142.278 250.375 151.894 256.851C154.554 258.651 157.929 271.665 147.782 275.486Z" fill="#444444"/>
<path d="M131.347 212.754C131.358 215.844 130.928 218.94 130.123 221.935C129.313 224.93 128.128 227.818 126.754 230.601C126.066 231.993 125.334 233.356 124.58 234.703C123.837 236.055 123.072 237.396 122.446 238.771C122.138 239.458 121.87 240.168 121.764 240.866C121.736 241.207 121.708 241.559 121.803 241.855C121.825 242.017 121.92 242.14 121.976 242.285C122.083 242.414 122.155 242.554 122.289 242.677C123.289 243.677 124.72 244.353 126.078 245.006C131.654 247.549 137.577 249.432 143.221 251.969C146.043 253.237 148.836 254.607 151.435 256.316L151.916 256.64C152.078 256.752 152.228 256.898 152.385 257.026C152.673 257.305 152.922 257.62 153.128 257.965C153.542 258.641 153.821 259.379 154.039 260.127C154.452 261.63 154.626 263.178 154.637 264.726C154.536 263.189 154.279 261.653 153.827 260.194C153.346 258.747 152.603 257.339 151.212 256.663C148.602 255.042 145.802 253.751 142.964 252.561C140.12 251.388 137.242 250.276 134.353 249.197C131.464 248.102 128.559 247.057 125.72 245.761C124.323 245.068 122.887 244.414 121.697 243.213C121.546 243.068 121.423 242.866 121.294 242.693C121.199 242.481 121.071 242.28 121.037 242.056C120.903 241.609 120.948 241.168 120.987 240.749C121.121 239.922 121.423 239.173 121.747 238.458C122.412 237.027 123.189 235.692 123.943 234.345C124.698 232.998 125.458 231.663 126.178 230.305C129.056 224.896 131.056 218.945 131.347 212.754Z" fill="white"/>
<path d="M169.605 187.831C168.197 189.228 161.928 193.693 155.949 193.693C154.89 193.691 153.833 193.592 152.792 193.396C147.774 192.48 143.55 189.133 141.08 185.3C140.629 184.595 140.231 183.857 139.89 183.093C139.443 182.132 139.124 181.148 138.94 180.198C141.455 179.891 143.857 179.259 144.248 178.812C144.673 181.741 148.288 187.027 153.764 188.021C154.409 188.141 155.064 188.206 155.72 188.217H155.731C158.302 188.262 160.274 187.44 161.62 186.613C161.632 186.613 164.242 184.557 164.252 184.546L169.605 187.831Z" fill="#444444"/>
<path d="M173.54 251.665C173.525 251.392 173.56 251.122 173.55 250.848C173.539 250.552 173.506 250.262 173.484 249.967L173.322 248.275C173.217 247.123 173.113 245.97 173.026 244.816C172.853 242.53 172.735 240.239 172.673 237.946C172.555 233.364 172.621 228.771 172.929 224.198C173.016 222.918 173.119 221.64 173.24 220.363C173.305 219.708 173.372 219.054 173.442 218.399C173.513 217.757 173.617 217.119 173.625 216.469C173.63 216.066 173.024 216.038 172.933 216.413C172.666 217.525 172.627 218.719 172.512 219.856C172.402 220.998 172.304 222.14 172.217 223.287C172.051 225.596 171.94 227.908 171.886 230.223C171.787 234.829 171.951 239.437 172.344 244.032C172.454 245.321 172.586 246.609 172.74 247.893C172.819 248.548 172.906 249.202 173.002 249.854C173.046 250.143 173.084 250.432 173.14 250.714C173.209 251.046 173.332 251.352 173.401 251.684C173.439 251.761 173.549 251.732 173.54 251.665Z" fill="white"/>
<path d="M172.253 162.485C172.292 162.485 172.398 162.424 172.309 162.424C172.264 162.424 172.163 162.485 172.253 162.485Z" fill="#CC6144"/>
<path d="M259.974 208.393C257.847 212.15 258.856 217.843 258.856 217.843C258.856 217.843 264.942 216.169 267.069 212.411C269.196 208.654 269.332 204.71 267.374 203.6C265.413 202.488 262.1 204.636 259.974 208.393Z" fill="url(#paint2_linear_3238_22222)"/>
<path d="M253.618 177.78C253.1 184.318 258.144 191.51 258.144 191.51C258.144 191.51 265.45 185.299 265.968 178.76C266.485 172.221 264.141 166.703 260.732 166.43C257.319 166.158 254.135 171.241 253.618 177.78Z" fill="url(#paint3_linear_3238_22222)"/>
<path d="M218.875 189.804C215.449 192.518 214.226 198.243 214.226 198.243C214.226 198.243 220.572 198.991 223.999 196.278C227.426 193.564 229.057 189.917 227.644 188.129C226.228 186.339 222.302 187.091 218.875 189.804Z" fill="url(#paint4_linear_3238_22222)"/>
<path d="M258.102 240.364V246.788L252.303 253.7H276.664C284.027 253.7 290 247.727 290 240.364C290 233 284.027 227.027 276.664 227.027H271.439C264.07 227.027 258.102 233 258.102 240.364Z" fill="#D6D6D6"/>
<path d="M268.379 240.342C268.379 240.97 268.129 241.573 267.684 242.018C267.24 242.462 266.637 242.712 266.008 242.713C265.379 242.712 264.776 242.462 264.332 242.018C263.887 241.573 263.637 240.97 263.637 240.342C263.638 239.713 263.887 239.11 264.332 238.665C264.776 238.221 265.379 237.971 266.008 237.971C266.637 237.971 267.24 238.221 267.684 238.665C268.129 239.11 268.379 239.713 268.379 240.342ZM276.436 240.342C276.436 240.97 276.186 241.573 275.741 242.018C275.296 242.462 274.693 242.712 274.065 242.712C273.436 242.712 272.833 242.462 272.389 242.018C271.944 241.573 271.694 240.97 271.694 240.342C271.694 239.713 271.944 239.11 272.389 238.665C272.833 238.221 273.436 237.971 274.065 237.971C274.693 237.971 275.296 238.221 275.741 238.665C276.186 239.11 276.436 239.713 276.436 240.342ZM284.492 240.342C284.492 240.97 284.242 241.573 283.797 242.018C283.353 242.462 282.75 242.712 282.121 242.712C281.493 242.712 280.89 242.462 280.445 242.018C280 241.573 279.75 240.97 279.75 240.342C279.75 239.713 280 239.11 280.445 238.665C280.89 238.221 281.493 237.971 282.121 237.971C282.75 237.971 283.353 238.221 283.797 238.665C284.242 239.11 284.492 239.713 284.492 240.342Z" fill="white"/>
<path d="M200.61 141.374L192.997 159.934C192.873 160.236 192.81 160.559 192.811 160.885C192.812 161.211 192.877 161.533 193.003 161.834C193.128 162.135 193.312 162.408 193.543 162.638C193.775 162.868 194.049 163.05 194.35 163.174L226.584 176.394C227.058 176.588 227.581 176.631 228.081 176.515C228.581 176.4 229.033 176.133 229.374 175.75C229.563 175.54 229.714 175.299 229.821 175.038L237.43 156.486C237.555 156.184 237.618 155.862 237.617 155.536C237.616 155.21 237.551 154.888 237.426 154.587C237.3 154.286 237.117 154.013 236.886 153.784C236.655 153.554 236.381 153.372 236.079 153.249L203.847 140.026C202.581 139.507 201.137 140.109 200.61 141.374Z" fill="#D6D6D6"/>
<path d="M213.888 159.061L193.472 161.309C193.541 161.598 193.678 161.868 193.871 162.094C194.065 162.321 194.309 162.498 194.585 162.611L226.814 175.833C227.088 175.945 227.385 175.991 227.68 175.966C227.975 175.941 228.26 175.847 228.512 175.691L213.888 159.061Z" fill="#D6D6D6" stroke="white" stroke-width="1.21599"/>
<path d="M236.871 156.255C236.964 156.028 237.012 155.784 237.012 155.538C237.011 155.292 236.962 155.049 236.868 154.822C236.773 154.595 236.635 154.389 236.46 154.216C236.286 154.042 236.079 153.905 235.852 153.812H235.851L203.619 140.589C203.207 140.421 202.75 140.404 202.327 140.541C201.905 140.679 201.544 140.962 201.311 141.34L213.757 160.867L236.608 156.895L236.871 156.255Z" fill="#D6D6D6" stroke="white" stroke-width="1.21599"/>
<path d="M65.6571 264.821C70.0591 269.301 78.2909 268.357 78.2909 268.357C78.2909 268.357 79.3803 260.148 74.9741 255.67C70.5722 251.19 62.3446 252.131 62.3446 252.131C62.3446 252.131 61.2552 260.34 65.6571 264.821Z" fill="url(#paint5_linear_3238_22222)"/>
<path d="M286.014 140.975C284.63 143.512 280.867 144.129 280.867 144.129C280.867 144.129 279.352 140.633 280.739 138.097C282.124 135.56 285.884 134.941 285.884 134.941C285.884 134.941 287.399 138.438 286.014 140.975Z" fill="url(#paint6_linear_3238_22222)"/>
<path d="M54.4919 140.285C51.5637 137.755 51.8202 132.657 51.8202 132.657C51.8202 132.657 56.8243 131.664 59.7508 134.196C62.6789 136.726 62.4241 141.821 62.4241 141.821C62.4241 141.821 57.42 142.815 54.4919 140.285Z" fill="url(#paint7_linear_3238_22222)"/>
<path d="M63.865 121.235C62.9697 118.661 64.9219 115.641 64.9219 115.641C64.9219 115.641 68.3248 116.797 69.218 119.373C70.1133 121.948 68.1632 124.967 68.1632 124.967C68.1632 124.967 64.7603 123.81 63.865 121.235Z" fill="url(#paint8_linear_3238_22222)"/>
<path fill-rule="evenodd" clip-rule="evenodd" d="M43.4867 226.986V205.768C43.4868 205.257 43.6899 204.766 44.0514 204.405C44.4129 204.043 44.9032 203.84 45.4145 203.84H76.2632C76.7745 203.84 77.2648 204.043 77.6264 204.405C77.988 204.766 78.1912 205.257 78.1914 205.768V229.92C78.1914 232.113 75.8856 233.541 73.9219 232.564L67.4129 229.326C67.0087 229.125 66.5636 229.019 66.1121 229.017L45.4047 228.914C44.8952 228.911 44.4076 228.707 44.0482 228.345C43.6889 227.984 43.487 227.495 43.4867 226.986Z" fill="#003090"/>
<path d="M61.1077 216.101C61.1433 216.136 61.1716 216.178 61.1908 216.225C61.2101 216.271 61.2201 216.321 61.2201 216.371C61.2201 216.422 61.2102 216.472 61.1909 216.518C61.1717 216.565 61.1435 216.607 61.1079 216.642C61.0724 216.678 61.0301 216.706 60.9836 216.726C60.9372 216.745 60.8873 216.755 60.837 216.755C60.7867 216.755 60.7368 216.745 60.6903 216.726C60.6438 216.706 60.6016 216.678 60.566 216.643C60.4941 216.571 60.4536 216.473 60.4536 216.372C60.4536 216.27 60.4939 216.173 60.5658 216.101C60.6376 216.029 60.7351 215.988 60.8367 215.988C60.9383 215.988 61.0358 216.029 61.1077 216.101ZM54.2075 216.101C54.2432 216.136 54.2714 216.178 54.2907 216.225C54.31 216.271 54.3199 216.321 54.32 216.372C54.32 216.422 54.3101 216.472 54.2908 216.518C54.2716 216.565 54.2433 216.607 54.2077 216.643C54.1721 216.679 54.1299 216.707 54.0833 216.726C54.0368 216.745 53.9869 216.755 53.9366 216.755C53.8862 216.755 53.8364 216.745 53.7898 216.726C53.7433 216.707 53.701 216.679 53.6654 216.643C53.5934 216.571 53.553 216.474 53.5529 216.372C53.5529 216.27 53.5933 216.173 53.6652 216.101C53.737 216.029 53.8346 215.988 53.9363 215.988C54.038 215.988 54.1356 216.029 54.2075 216.101ZM68.0088 216.101C68.0444 216.136 68.0726 216.178 68.0919 216.225C68.1112 216.271 68.1211 216.321 68.1211 216.371C68.1211 216.422 68.1112 216.472 68.092 216.518C68.0728 216.565 68.0445 216.607 68.009 216.642C67.9734 216.678 67.9311 216.706 67.8847 216.726C67.8382 216.745 67.7884 216.755 67.738 216.755C67.6877 216.755 67.6379 216.745 67.5914 216.726C67.5449 216.706 67.5026 216.678 67.467 216.643C67.3951 216.571 67.3547 216.473 67.3547 216.372C67.3546 216.27 67.395 216.173 67.4668 216.101C67.5386 216.029 67.6361 215.988 67.7377 215.988C67.8394 215.988 67.9369 216.029 68.0088 216.101Z" stroke="white" stroke-width="3.81464" stroke-linecap="round" stroke-linejoin="round"/>
<path d="M80.5937 181.82C77.2005 179.494 76.8685 174.077 76.8685 174.077C76.8685 174.077 82.0379 172.436 85.4298 174.765C88.8225 177.092 89.1562 182.506 89.1562 182.506C89.1562 182.506 83.9864 184.147 80.5937 181.82Z" fill="#D6D6D6"/>
<path d="M75.4025 144.211C71.9982 144.211 69.2385 146.971 69.2385 150.375C69.2385 153.779 71.9982 156.539 75.4025 156.539C78.8067 156.539 81.5664 153.779 81.5664 150.375C81.5664 146.971 78.8067 144.211 75.4025 144.211Z" fill="#D6D6D6"/>
<path d="M55.1208 182.859C53.0539 182.859 51.3783 184.534 51.3783 186.601C51.3783 188.668 53.0539 190.344 55.1208 190.344C57.1877 190.344 58.8633 188.668 58.8633 186.601C58.8633 184.534 57.1877 182.859 55.1208 182.859Z" fill="#D6D6D6"/>
<path d="M48.9573 251.242L54.4609 245.959L48.9573 240.676L43.4541 245.959L48.9573 251.242Z" stroke="#D6D6D6" stroke-width="2.23959" stroke-linecap="round" stroke-linejoin="round"/>
<path d="M168.327 269.872C166.646 274.032 169.708 278.572 174.195 278.572H229.316C231.9 278.572 234.224 277.001 235.188 274.604L250.79 235.81C252.463 231.651 249.401 227.119 244.918 227.119H189.874C187.294 227.119 184.972 228.685 184.006 231.077L168.327 269.872Z" fill="#003090"/>
<path d="M234.398 276.57H143.568V278.574H233.591L234.398 276.57Z" fill="#003090"/>
<path d="M218.43 252.717C219.312 249.619 217.534 247.107 214.463 247.107C211.393 247.107 208.193 249.619 207.311 252.717C206.429 255.816 208.208 258.328 211.278 258.328C214.348 258.328 217.548 255.816 218.43 252.717Z" fill="white"/>
</g>
</g>
<defs>
<linearGradient id="paint0_linear_3238_22222" x1="202.546" y1="378.966" x2="25.0633" y2="-33.7912" gradientUnits="userSpaceOnUse">
<stop stop-color="white"/>
<stop offset="1" stop-color="#EEEEEE"/>
</linearGradient>
<linearGradient id="paint1_linear_3238_22222" x1="226.512" y1="310.547" x2="216.052" y2="120.748" gradientUnits="userSpaceOnUse">
<stop stop-color="white"/>
<stop offset="1" stop-color="#EEEEEE"/>
</linearGradient>
<linearGradient id="paint2_linear_3238_22222" x1="254.759" y1="208.092" x2="276.803" y2="214.147" gradientUnits="userSpaceOnUse">
<stop stop-color="white"/>
<stop offset="1" stop-color="#EEEEEE"/>
</linearGradient>
<linearGradient id="paint3_linear_3238_22222" x1="246.245" y1="180.713" x2="280.485" y2="174.903" gradientUnits="userSpaceOnUse">
<stop stop-color="white"/>
<stop offset="1" stop-color="#EEEEEE"/>
</linearGradient>
<linearGradient id="paint4_linear_3238_22222" x1="214.098" y1="187.535" x2="232.468" y2="201.615" gradientUnits="userSpaceOnUse">
<stop stop-color="white"/>
<stop offset="1" stop-color="#EEEEEE"/>
</linearGradient>
<linearGradient id="paint5_linear_3238_22222" x1="83.2203" y1="280.124" x2="51.3964" y2="230.238" gradientUnits="userSpaceOnUse">
<stop stop-color="white"/>
<stop offset="1" stop-color="#EEEEEE"/>
</linearGradient>
<linearGradient id="paint6_linear_3238_22222" x1="280.166" y1="149.959" x2="287.975" y2="123.873" gradientUnits="userSpaceOnUse">
<stop stop-color="white"/>
<stop offset="1" stop-color="#EEEEEE"/>
</linearGradient>
<linearGradient id="paint7_linear_3238_22222" x1="44.3905" y1="130.089" x2="76.3165" y2="147.69" gradientUnits="userSpaceOnUse">
<stop stop-color="white"/>
<stop offset="1" stop-color="#EEEEEE"/>
</linearGradient>
<linearGradient id="paint8_linear_3238_22222" x1="61.2938" y1="111.458" x2="74.5714" y2="133.44" gradientUnits="userSpaceOnUse">
<stop stop-color="white"/>
<stop offset="1" stop-color="#EEEEEE"/>
</linearGradient>
<clipPath id="clip0_3238_22222">
<rect width="284" height="189.333" fill="white" transform="translate(338 60)"/>
</clipPath>
<clipPath id="clip1_3238_22222">
<rect width="254" height="191.133" fill="white" transform="matrix(-1 0 0 1 290 103)"/>
</clipPath>
</defs>
</svg>
