<svg width="254" height="255" viewBox="0 0 254 255" fill="none" xmlns="http://www.w3.org/2000/svg">
<path d="M217.804 173.415C216.242 172.726 214.328 172.967 212.758 172.632C211.734 172.384 210.723 172.084 209.729 171.734C209.394 171.622 207.936 171.285 207.936 170.837C207.841 169.932 207.691 169.033 207.486 168.146C208.241 167.728 208.863 167.105 209.281 166.35C209.761 165.285 210.064 164.15 210.179 162.987C211.027 158.13 211.551 153.222 211.749 148.296C212.365 138.657 212.253 128.985 211.412 119.363C210.964 113.756 210.51 108.243 209.507 102.653C209.405 102.091 208.386 102.205 208.386 102.765C209.635 117.94 212.3 136.148 208.946 159.623C208.175 164.251 208.167 165.562 206.816 166.463C205.81 167.108 204.714 167.599 203.563 167.921C202.661 168.263 201.719 168.489 200.759 168.594C200.759 149.066 203.045 141.091 201.775 132.82C200.642 126.028 196.222 118.121 190.336 116.223C189.328 115.887 188.88 117.457 189.888 117.793C191.497 118.404 192.951 119.361 194.149 120.596C194.092 124.391 193.755 128.177 193.141 131.923C191.275 142.491 188.53 149.288 182.6 159.173C182.039 160.189 180.695 162.426 180.581 162.538C178.735 161.792 176.937 160.93 175.199 159.958C175.402 159.495 183.182 143.409 184.842 134.278C186.469 125.451 184.092 118.964 182.937 113.419C182.469 110.679 182.281 107.899 182.377 105.121C182.359 104.409 182.396 103.696 182.489 102.99C182.489 102.782 182.406 102.582 182.259 102.435C182.112 102.288 181.912 102.205 181.704 102.205C181.496 102.205 181.296 102.288 181.149 102.435C181.002 102.582 180.919 102.782 180.919 102.99C180.785 105.793 180.822 108.602 181.031 111.401C181.76 118.513 184.559 122.733 183.387 132.708C182.601 138.792 177.291 151.426 174.751 156.931C174.414 157.604 172.846 160.071 173.629 160.741C173.944 161.029 174.282 161.292 174.639 161.527C174.33 162.093 173.954 162.62 173.518 163.096C173.293 162.985 173.067 162.867 172.845 162.985C171.864 163.626 170.961 164.379 170.154 165.228C169.131 165.977 168.383 167.04 168.022 168.255C167.986 169.511 168.296 170.752 168.919 171.843C169.2 173.061 169.2 174.326 168.919 175.544C168.841 176.18 168.879 176.826 169.032 177.449C169.271 178.089 169.655 178.665 170.154 179.132C172.16 181.39 174.69 181.82 176.657 179.468C179.291 176.321 177.177 170.79 178.788 167.244C178.9 166.908 178.676 166.684 178.676 166.346C178.676 166.009 180.47 164.328 180.47 164.328C180.759 164.44 181.079 164.44 181.368 164.328C181.592 164.217 183.947 160.404 184.62 159.281C188.886 152.343 192.027 144.773 193.928 136.853C195.102 132.046 195.667 127.111 195.609 122.163C197.84 125.205 199.407 128.682 200.208 132.368C201.804 141.033 199.31 148.116 199.31 169.599C199.326 169.832 199.425 170.051 199.59 170.217C199.756 170.382 199.975 170.481 200.208 170.497C200.545 170.497 200.993 170.384 201.329 170.384C200.993 170.497 201.554 172.628 201.329 172.74C200.432 173.3 199.971 174.525 199.424 175.319C197.174 178.577 199.118 181.688 203.797 181.263C207.406 181.009 208.643 179.52 210.302 179.243C212.048 178.662 214.943 179.808 217.142 179.132C217.764 179.025 218.345 178.749 218.82 178.333C219.295 177.918 219.646 177.379 219.835 176.777C219.901 176.073 219.739 175.367 219.373 174.761C219.008 174.156 218.458 173.684 217.804 173.415ZM174.517 179.584C173.976 179.644 173.429 179.573 172.92 179.378C172.412 179.183 171.958 178.869 171.596 178.462C169.913 176.668 171.303 174.525 170.923 172.407C170.721 171.282 170.027 170.388 169.802 169.266C169.465 166.912 172.156 167.136 173.391 168.033C175.296 169.266 174.176 172.632 174.736 174.425C175.076 175.774 176.766 179.055 174.516 179.586L174.517 179.584ZM177.993 165.567C177.768 165.342 175.302 163.772 174.966 163.547C175.19 163.211 175.862 162.426 175.975 162.201C176.423 162.426 179.451 163.884 179.563 163.884C179.113 164.335 178.104 165.456 177.992 165.569L177.993 165.567ZM206.247 170.951C205.044 171.545 203.809 172.069 202.546 172.521V170.055C203.811 169.745 205.049 169.332 206.247 168.82V170.951Z" fill="#191919"/>
<path d="M169.023 77.201C169.135 76.8657 169.247 76.6409 169.36 76.3044C169.013 76.0059 168.637 75.7429 168.238 75.5195C163.137 88.2741 161.961 104.94 163.191 110.171C160.575 112.264 158.521 117.586 159.042 120.712C158.945 121.504 159.145 122.303 159.603 122.955C159.669 123.022 159.751 123.071 159.841 123.097C159.931 123.122 160.026 123.124 160.116 123.101C160.207 123.078 160.29 123.032 160.358 122.967C160.425 122.902 160.474 122.82 160.5 122.731C160.631 122.021 160.592 121.291 160.388 120.599C160.243 118.795 160.551 116.983 161.285 115.329C162.034 113.733 163.019 112.259 164.206 110.955C164.319 110.938 164.427 110.898 164.523 110.837C164.62 110.775 164.702 110.695 164.766 110.6C164.829 110.505 164.872 110.398 164.891 110.285C164.911 110.173 164.907 110.057 164.879 109.947C164.68 109.605 164.565 109.22 164.543 108.825C164.356 107.488 164.281 106.138 164.318 104.788C164.397 95.3995 165.986 86.0849 169.023 77.201Z" fill="#191919"/>
<path d="M176.087 89.8738C172.54 94.0851 169.851 99.9678 167.788 105.125C167.222 106.583 166.772 108.083 166.443 109.611C166.413 109.699 166.401 109.792 166.408 109.885C166.415 109.978 166.439 110.069 166.481 110.152C166.523 110.235 166.58 110.31 166.651 110.371C166.721 110.432 166.803 110.478 166.891 110.508C167.292 110.947 167.634 111.437 167.907 111.965C168.211 112.56 168.4 113.206 168.467 113.87C168.656 115.405 168.581 116.96 168.244 118.469C168.117 119.476 169.477 119.814 169.701 118.917C170.332 117.079 170.449 115.103 170.038 113.202C169.717 111.807 169.018 110.527 168.019 109.502C170.197 103.514 171.623 98.5314 177.103 90.6625C177.559 89.9945 176.53 89.3125 176.087 89.8738Z" fill="#191919"/>
<path d="M220.727 24.942C220.061 28.1909 218.928 31.3261 217.363 34.2499C214.262 39.8874 209.687 41.8445 204.242 44.5673C204.605 45.0106 204.907 45.5011 205.139 46.0253C206.597 45.2392 208.06 44.4556 209.624 43.7825C213.206 42.0708 216.236 39.3902 218.372 36.0444C220.219 32.795 221.543 29.2757 222.296 25.6151C222.515 24.2689 220.967 23.8257 220.727 24.942Z" fill="#191919"/>
<path d="M229.582 12.3824C229.471 11.9341 229.275 10.7555 228.461 11.1492C227.917 11.4121 227.901 12.1576 227.563 12.719C227.066 13.5755 226.463 14.3664 225.77 15.0735C225.788 14.6223 225.75 14.1704 225.657 13.7286C225.383 11.4081 224.577 9.18209 223.302 7.22367C222.966 6.55057 222.069 7.11191 222.293 7.78501C223.238 9.64427 223.846 11.6568 224.087 13.7286C224.045 14.6316 224.121 15.5362 224.312 16.4197C223.975 16.7563 223.639 17.2046 223.296 17.5412C222.653 18.2419 222.191 19.0889 221.95 20.0088C221.838 20.5688 222.734 20.9054 222.848 20.2323C223.571 18.3032 226.729 15.5917 227.894 13.7286C228.138 16.4803 227.381 19.2275 225.763 21.4667C225.539 21.915 225.202 22.2516 224.979 22.6999C224.754 22.8117 224.529 23.0364 224.642 23.26C225.366 30.2564 225.175 35.5218 222.848 41.9887C220.726 47.5548 217.438 52.6023 213.203 56.7918L214.219 57.8002C223.753 48.7959 228.617 36.3372 226.218 23.1482C226.502 22.7908 226.765 22.4163 227.003 22.0268C227.436 21.5074 227.812 20.9433 228.124 20.344C229.486 17.9275 229.999 15.1246 229.582 12.3824Z" fill="#191919"/>
<path d="M222.401 15.0728C222.197 13.8684 221.738 12.7214 221.055 11.7085C220.225 10.3388 219.206 9.0929 218.027 8.00776C217.93 7.9129 217.803 7.85585 217.668 7.84693C217.532 7.83802 217.398 7.87783 217.29 7.95916C217.181 8.0405 217.105 8.15798 217.076 8.29036C217.047 8.42273 217.066 8.56126 217.129 8.68086C219.056 10.4838 220.385 12.8324 220.939 15.4119C221.02 15.8806 221.171 16.3344 221.388 16.7581C221.724 17.2064 222.383 17.2038 222.509 16.6463C222.583 16.12 222.546 15.5841 222.401 15.0728Z" fill="#191919"/>
<path d="M164.201 125.199C163.582 123.868 163.312 122.401 163.417 120.937C163.437 119.241 163.624 117.551 163.977 115.891C163.994 115.824 163.998 115.754 163.988 115.685C163.978 115.617 163.954 115.551 163.917 115.492C163.881 115.432 163.834 115.381 163.777 115.341C163.721 115.3 163.657 115.272 163.589 115.257C163.521 115.241 163.451 115.24 163.383 115.253C163.314 115.265 163.249 115.291 163.191 115.33C163.134 115.368 163.084 115.418 163.046 115.475C163.007 115.533 162.981 115.598 162.968 115.666C162.388 117.441 162.086 119.295 162.07 121.162C162.07 122.62 162.07 124.638 163.192 125.759C163.528 126.096 164.426 125.759 164.201 125.199Z" fill="#191919"/>
<path d="M167.675 123.178C167.103 122.28 166.686 121.292 166.442 120.257C166.292 119.029 166.254 117.79 166.329 116.556C166.32 116.435 166.27 116.322 166.186 116.235C166.103 116.148 165.991 116.093 165.871 116.079C165.751 116.066 165.63 116.095 165.53 116.162C165.429 116.229 165.355 116.328 165.32 116.444C165.023 117.808 164.948 119.211 165.099 120.598C165.183 121.224 165.373 121.831 165.661 122.393C165.969 123.164 166.688 124.236 167.455 123.851C167.567 123.784 167.65 123.679 167.691 123.555C167.731 123.432 167.725 123.297 167.675 123.178Z" fill="#191919"/>
<path d="M220.494 22.7009C219.082 21.2874 220.147 19.3012 219.486 17.0939C218.745 15.0705 217.419 13.3134 215.676 12.0469C215.161 11.6011 214.063 12.6819 214.778 13.1683C215.694 13.7009 216.494 14.4122 217.129 15.26C217.765 16.1078 218.224 17.0749 218.479 18.1035C218.59 19.2237 218.367 20.2333 218.479 21.3547C218.525 21.8179 218.696 22.26 218.972 22.6349C219.248 23.0097 219.62 23.3036 220.048 23.4858C220.147 23.5084 220.25 23.4986 220.343 23.4578C220.436 23.417 220.513 23.3473 220.563 23.2592C220.613 23.1711 220.633 23.0692 220.621 22.9686C220.609 22.8681 220.564 22.7742 220.494 22.7009Z" fill="#191919"/>
<path d="M126.519 89.4245L125.397 81.4693L117.659 78.2168L106.222 86.2915L105.997 86.0667C104.233 83.8353 102.155 81.8713 99.8284 80.2361L90.9701 83.0326C90.9701 83.0326 89.0651 95.5929 89.0651 95.7047L84.582 103.219L90.7504 113.535L99.4982 111.406L97.4789 104.341L104.88 116.34L106.338 116.115L110.264 121.387L125.852 114.209L124.836 106.022L131.34 104.228C131.34 104.228 133.134 93.2384 133.582 92.9018C134.033 92.4535 126.519 89.4245 126.519 89.4245ZM122.258 91.7804C121.92 91.8922 112.165 99.6303 112.165 99.6303L104.427 97.2757L111.492 96.1543C111.492 96.1543 122.37 91.6674 122.258 91.7804Z" fill="#003090"/>
<path d="M204.683 69.9103C209.119 65.9174 215.549 63.6873 218.145 62.397L205.131 43.1133C193.019 47.4872 187.165 51.4953 181.805 55.7853C179.44 57.6789 175.638 57.2433 175.638 57.2433C171.313 63.4047 168.088 70.2684 166.105 77.5303L176.423 83.5869L179.451 107.478C179.451 107.478 200.533 103.438 210.963 103.217L207.486 69.5737C206.814 70.022 206.141 70.3586 205.581 70.8069C204.908 71.2565 204.235 70.3586 204.683 69.9103Z" fill="#003090"/>
<path d="M194.702 32.5757C194.755 31.3501 194.382 30.144 193.645 29.1627C192.909 28.1813 191.856 27.4854 190.664 27.1935C189.523 27.0005 188.351 27.0942 187.255 27.4662C186.159 27.8381 185.172 28.4767 184.384 29.3245C183.703 30.1355 182.952 30.8859 182.141 31.5674C177.435 35.4116 175.77 34.4884 174.521 36.8379C173.536 38.6951 173.258 40.8462 173.736 42.8932C174.072 44.9125 175.194 46.7032 175.754 48.6082C177.205 53.4406 176.654 53.3237 177.101 55.5602C177.143 55.7061 177.231 55.8344 177.352 55.9257C177.474 56.017 177.621 56.0664 177.773 56.0664C177.925 56.0664 178.073 56.017 178.194 55.9257C178.315 55.8344 178.404 55.7061 178.446 55.5602C178.577 54.5145 178.539 53.4545 178.334 52.4208C178.137 51.2108 177.874 50.0126 177.545 48.8317C178.329 48.8502 179.091 48.5696 179.676 48.0469C180.155 47.7039 180.56 47.2688 180.867 46.7672C181.175 46.2656 181.38 45.7076 181.469 45.1259C181.469 44.0565 180.475 44.0896 180.012 43.7809C179.813 43.6613 179.655 43.4852 179.557 43.2752C179.46 43.0653 179.427 42.831 179.463 42.6022C179.499 42.3735 179.603 42.1607 179.76 41.991C179.918 41.8214 180.123 41.7026 180.348 41.6499C180.556 41.6539 180.756 41.7333 180.909 41.8734C181.133 41.9864 181.469 42.21 181.694 42.323C181.863 42.392 182.045 42.4264 182.227 42.4242C182.41 42.4219 182.59 42.3831 182.757 42.3099C182.925 42.2367 183.076 42.1307 183.201 41.9981C183.327 41.8656 183.425 41.7091 183.489 41.5381C183.489 41.4251 183.601 41.3133 183.601 41.2016C183.692 40.9895 183.73 40.7586 183.712 40.5285C183.774 39.6672 183.736 38.8018 183.601 37.9491C184.846 38.2637 186.126 38.4144 187.411 38.3974C187.517 38.5244 189.878 41.5191 190.663 42.4347C190.215 42.4347 189.766 42.5465 189.205 42.5465C189.084 42.5519 188.965 42.5836 188.857 42.6394C188.749 42.6953 188.654 42.7739 188.579 42.8699C188.505 42.966 188.452 43.0771 188.424 43.1956C188.397 43.314 188.395 43.4371 188.42 43.5562C188.951 44.9493 189.4 46.372 189.766 47.817C189.653 48.0418 189.205 48.1536 189.093 48.2666C187.258 48.8947 185.301 49.0865 183.378 48.8266C182.593 48.7149 182.37 50.0611 183.155 50.1728C185.5 50.5869 187.914 50.3144 190.108 49.388C190.57 49.2198 190.964 48.9043 191.229 48.4901C191.566 47.93 191.341 47.3687 191.229 46.6956C191.005 45.799 190.668 44.9024 190.332 43.8927C191.005 43.8927 191.566 43.7809 192.237 43.7809C192.39 43.776 192.539 43.7269 192.666 43.6395C192.792 43.5522 192.891 43.4303 192.95 43.2884C193.009 43.1465 193.027 42.9906 192.999 42.8392C192.972 42.6878 192.902 42.5474 192.798 42.4347C192.399 41.9471 189.515 38.4495 189.322 38.0609C189.657 37.9491 189.882 37.9491 190.219 37.8373C191.4 37.4975 192.455 36.8173 193.252 35.8816C194.05 34.9459 194.554 33.7961 194.702 32.5757Z" fill="#191919"/>
<path d="M120.803 120.04C121.701 119.479 122.486 118.919 123.382 118.357C124.509 117.737 125.531 116.942 126.41 116.003C127.083 114.987 126.515 113.313 126.298 112.193C125.95 110.401 125.625 108.604 125.289 106.809C126.191 106.847 127.095 106.772 127.98 106.586C128.842 106.519 129.677 106.25 130.417 105.802C131.157 105.354 131.782 104.739 132.242 104.006C132.902 102.401 133.282 100.693 133.363 98.9593C133.826 97.1663 134.015 95.3135 133.923 93.464C133.733 91.846 131.976 91.6644 129.214 90.4363C128.878 90.3245 127.531 89.4203 127.083 89.5397C127.096 87.9247 126.983 86.3112 126.747 84.7137C126.442 82.8087 126.313 81.2059 124.504 80.3398C121.837 79.0609 119.233 77.8722 116.542 76.7508C114.106 75.5329 113.38 75.8707 112.28 76.7508C110.934 77.6487 109.589 78.7701 108.356 79.7785C106.979 80.6906 105.765 81.8284 104.767 83.144C104.34 82.5682 103.851 82.0413 103.309 81.573C98.5119 76.3774 97.3397 77.128 94.1126 78.2087C91.9815 78.7701 89.8416 79.2971 87.6089 80.0033C87.4466 80.0614 87.3059 80.1677 87.2056 80.3079C87.1053 80.4482 87.0502 80.6157 87.0476 80.7881C86.9283 84.9482 87.1535 89.1111 87.7207 93.2341C87.2532 93.6272 86.8387 94.0793 86.4875 94.579C86.0339 95.1672 85.5471 95.729 85.0296 96.2618C83.7964 97.7198 82.5797 99.193 81.3288 100.636C80.4398 101.652 78.6376 103.215 78.5246 104.673C78.5365 104.991 78.6121 105.304 78.7469 105.593C78.8817 105.882 79.073 106.141 79.3095 106.354C81.5724 109.571 84.2498 112.475 87.2724 114.99C87.4126 115.104 87.5774 115.184 87.7538 115.223C87.9302 115.262 88.1132 115.259 88.2884 115.215C91.744 114.138 95.2404 113.646 98.7176 112.748C99.1659 112.748 99.839 116.785 100.176 117.346C100.736 118.131 101.857 117.683 102.642 117.57C103.701 117.362 104.75 117.1 105.783 116.785C106.239 117.684 106.764 118.546 107.352 119.364H106.336C84.4682 119.364 61.2514 123.402 61.2514 130.803V145.154C61.2514 146.836 62.4845 148.405 64.6156 149.752L64.9521 154.462C53.1767 154.462 38.7127 169.49 30.4081 190.347C25.8107 201.904 23.6365 213.789 24.3528 223.542C25.0932 233.638 28.8384 240.364 34.782 242.831L45.8844 247.317C55.6964 251.091 65.9503 242.27 72.5734 234.083C77.7321 238.457 90.9656 241.373 106.217 241.373C114.696 241.499 123.151 240.442 131.338 238.233C138.404 236.107 142.215 233.187 142.215 229.934L147.822 149.752C149.953 148.405 151.186 146.831 151.186 145.154V130.803C151.755 124.637 135.606 121.161 120.803 120.04ZM112.953 112.975C111.148 113.38 109.143 114.096 108.467 114.32C107.906 114.433 101.851 116.225 101.851 116.225C100.505 112.415 99.2713 108.487 97.9251 104.674C97.8134 104.225 97.4768 103.658 97.0285 103.888C96.5802 104.001 96.6869 104.563 96.8037 105.01C97.3384 107.035 97.9251 109.16 98.5982 111.178C95.5706 111.851 92.5429 112.636 89.5152 113.309C89.1974 113.478 88.8288 113.526 88.4783 113.444C88.1278 113.361 87.8192 113.154 87.6102 112.861C85.1635 110.545 82.9122 108.032 80.8792 105.346C80.2226 104.034 79.5863 105.951 88.1677 94.9169C88.3925 95.7017 88.5043 96.5996 88.7291 97.3845C88.7291 97.6093 88.8408 97.9445 89.0656 97.9445C89.5139 98.0576 89.6257 97.4962 89.6257 97.0479C89.2891 91.7774 88.9526 86.6187 88.616 81.3482C94.378 79.8445 96.3478 78.9923 97.7004 78.9923C98.3144 79.1783 98.8858 79.4834 99.3818 79.8902C104.753 84.3352 107.524 90.0655 108.241 90.543C108.327 90.6086 108.426 90.6552 108.532 90.6796C108.637 90.704 108.746 90.7056 108.853 90.6845C108.959 90.6633 109.059 90.6199 109.147 90.5569C109.235 90.494 109.309 90.413 109.363 90.3195C109.588 89.9829 109.363 89.4216 109.139 89.0863C108.018 87.4035 106.896 85.7221 105.662 84.0393C112.685 78.2938 113.418 77.7528 114.073 77.5344C114.457 77.544 114.837 77.6201 115.195 77.7592C124.574 81.8867 124.374 81.6035 124.727 82.133C124.88 82.2983 124.999 82.4926 125.076 82.7044C125.153 82.9161 125.187 83.1412 125.176 83.3662C126.399 89.4863 124.505 89.7607 127.194 91.1043C128.652 91.6657 130.115 92.3375 131.567 92.8988C132.098 93.1643 132.241 93.2938 132.241 94.132C131.953 97.0939 131.389 100.022 130.558 102.88C130.277 103.798 130.037 103.991 129.1 104.225C127.701 104.567 126.276 104.792 124.839 104.898C124.615 104.326 124.5 103.717 124.502 103.103C124.237 101.658 122.407 101.518 122.82 103.776C123.232 106.034 123.663 108.383 124.054 110.618C124.327 111.723 124.515 112.847 124.615 113.981C124.615 114.877 124.161 115.093 123.494 115.551C119.713 118.198 115.739 120.559 111.607 122.616C110.037 120.485 108.579 118.242 107.009 116.111C108.91 115.572 110.781 114.936 112.617 114.206C113.177 113.978 113.963 113.421 113.633 112.861C113.85 112.975 113.511 112.849 112.953 112.975ZM90.0753 140.002L87.2724 122.283C89.4026 122.058 91.6463 121.833 94.0034 121.61L95.4613 140.45C93.6643 140.225 91.8698 140.114 90.0753 140.002ZM32.4338 191.138C36.4673 181.044 42.0794 171.961 48.3583 165.57C53.86 159.968 62.2305 154.118 69.5533 157.048C80.7674 161.533 82.2241 184.073 73.0293 207.288C68.5437 218.614 62.0426 228.485 54.975 234.875C48.0243 241.157 41.2984 243.497 35.9098 241.38C24.7071 236.978 23.1171 214.461 32.4338 191.138ZM47.0121 245.865L41.7416 243.734C46.2273 243.173 51.1396 240.559 55.9834 236.114C77.3334 216.498 87.7448 174.034 75.3852 159.297L80.6557 161.427C85.9262 163.558 89.2917 169.838 89.9635 179.258C90.6404 188.79 88.5792 200.326 84.0199 211.78C74.7464 235.068 58.1145 250.351 47.0121 245.865ZM140.992 230.052C140.992 234.878 127.199 239.922 106.677 239.922C98.7821 240.01 90.9078 239.105 83.2389 237.229C84.7797 234.114 86.0913 230.891 87.1632 227.585C90.3509 218.032 92.3956 208.521 92.6585 193.158C92.7725 188.343 92.359 183.531 91.4253 178.807C90.5287 169.051 86.9396 162.434 81.1078 160.079C69.5267 155.401 68.8993 154.999 66.9778 154.808L66.753 150.883C82.9468 158.757 130.28 158.817 146.599 150.883L140.992 230.052ZM106.677 155.029C81.1078 155.029 63.277 149.87 63.277 145.272V134.282C74.834 145.164 138.514 145.164 150.076 134.282V145.272C150.073 149.87 132.242 155.029 106.673 155.029H106.677ZM106.677 140.787H104.318L103.982 121.161H108.916C109.364 121.946 109.932 122.619 110.374 123.404C110.71 123.853 111.047 124.526 111.607 124.75C112.28 124.974 112.953 124.414 113.512 124.189C118.018 121.936 117.709 121.903 118.447 121.61C139.081 122.956 150.228 127.442 150.183 131.029C150.128 135.516 132.242 140.787 106.673 140.787H106.677Z" fill="#191919"/>
<path d="M130.443 165.573C130.287 165.562 130.131 165.583 129.984 165.634C129.837 165.685 129.701 165.765 129.586 165.87C129.471 165.975 129.378 166.102 129.313 166.244C129.249 166.385 129.213 166.539 129.209 166.695L125.957 222.205C125.991 222.502 126.118 222.781 126.319 223.003C126.52 223.224 126.786 223.376 127.078 223.438C127.234 223.449 127.39 223.429 127.537 223.378C127.684 223.327 127.82 223.246 127.935 223.141C128.05 223.037 128.143 222.909 128.208 222.768C128.273 222.626 128.308 222.473 128.312 222.317L131.564 166.806C131.575 166.651 131.555 166.495 131.503 166.348C131.452 166.2 131.372 166.065 131.267 165.95C131.162 165.835 131.035 165.742 130.894 165.677C130.752 165.612 130.598 165.577 130.443 165.573Z" fill="#191919"/>
<path d="M106.668 167.701C106.36 167.728 106.074 167.87 105.866 168.099C105.658 168.328 105.544 168.627 105.547 168.936V224.445C105.544 224.754 105.659 225.052 105.866 225.281C106.074 225.509 106.361 225.651 106.668 225.678C106.995 225.675 107.307 225.545 107.537 225.314C107.768 225.083 107.899 224.771 107.901 224.445V168.934C107.899 168.608 107.768 168.296 107.537 168.066C107.306 167.835 106.994 167.704 106.668 167.701Z" fill="#191919"/>
<path d="M58.1085 184.748L56.8753 184.299C55.9568 183.907 54.9689 183.704 53.9702 183.701C52.9716 183.699 51.9826 183.897 51.062 184.284C50.1414 184.671 49.308 185.239 48.6112 185.954C47.9145 186.67 47.3687 187.518 47.0061 188.448L40.9508 203.363C40.5528 204.307 40.357 205.323 40.3763 206.347C40.3955 207.371 40.6293 208.379 41.0625 209.307C41.4161 210.243 41.9711 211.09 42.6884 211.787C43.4056 212.485 44.2675 213.017 45.2129 213.344C46.9833 213.997 46.883 214.017 47.2309 214.017C47.6244 214.015 48.0045 213.874 48.3048 213.62C48.605 213.366 48.8062 213.014 48.8731 212.626C48.94 212.238 48.8684 211.839 48.6708 211.499C48.4732 211.159 48.1622 210.899 47.7923 210.765C46.2683 210.188 44.804 209.817 43.9823 207.962C43.7605 207.448 43.646 206.895 43.646 206.336C43.646 205.776 43.7605 205.223 43.9823 204.709L50.0351 189.801C50.2303 189.277 50.5297 188.799 50.9153 188.394C51.3008 187.99 51.7644 187.668 52.2781 187.447C52.7917 187.227 53.3446 187.114 53.9035 187.114C54.4623 187.113 55.0153 187.227 55.5291 187.446L56.7636 187.895C56.9698 187.983 57.1914 188.03 57.4157 188.032C57.64 188.035 57.8627 187.994 58.0709 187.91C58.2792 187.827 58.469 187.703 58.6295 187.546C58.79 187.39 58.9181 187.203 59.0064 186.997C59.0947 186.791 59.1415 186.569 59.1442 186.345C59.1469 186.12 59.1053 185.898 59.0219 185.689C58.9386 185.481 58.815 185.291 58.6582 185.131C58.5015 184.97 58.3147 184.842 58.1085 184.754V184.748Z" fill="#191919"/>
<path d="M188.086 11.9332C183.04 10.2505 177.77 11.0353 172.719 12.2698C168.257 13.4022 163.874 14.8255 159.598 16.5306C144.078 22.8628 131.498 32.8272 124.84 40.8663C124.737 40.9706 124.679 41.1115 124.68 41.2581C124.68 41.4047 124.739 41.5452 124.842 41.6488C124.946 41.7525 125.086 41.8109 125.233 41.8114C125.38 41.8118 125.52 41.7542 125.625 41.6512C128.877 38.5105 132.13 35.3711 135.606 32.4551C145.954 23.8689 158.044 17.6322 171.039 14.176C176.422 12.7181 182.254 11.7084 187.748 12.9429C188.421 13.0546 188.758 12.1567 188.086 11.9332Z" fill="#191919"/>
<path d="M146.595 39.6335C142.275 43.3142 138.365 47.4504 134.933 51.9703C130.761 57.5902 127.013 63.5124 123.719 69.688C122.854 71.1787 122.068 72.7137 121.364 74.2867C121.139 74.622 122.152 74.8493 122.486 74.3985C125.235 70.6748 132.892 52.4668 147.378 40.4196C147.933 39.9599 147.148 39.1788 146.595 39.6335Z" fill="#191919"/>
<path d="M113.514 61.1636C110.645 65.5539 108.133 70.1669 106.001 74.9583C105.776 75.6302 106.674 75.855 107.017 75.4066C107.69 74.2852 108.227 73.1524 108.811 71.9294C110.523 68.4233 112.431 65.0165 114.526 61.7249C114.86 61.1636 113.963 60.6035 113.514 61.1636Z" fill="#191919"/>
<path d="M122.48 91.1078C121.529 91.4888 112.701 98.2376 111.939 98.8459C109.36 98.0611 106.669 97.2762 104.09 96.7148C103.942 96.6727 103.783 96.6905 103.648 96.7644C103.513 96.8383 103.413 96.9623 103.368 97.1096C103.324 97.257 103.34 97.4158 103.412 97.5518C103.484 97.6878 103.606 97.79 103.753 97.8363C105.099 98.2846 110.706 100.079 111.043 100.192C111.433 100.369 111.85 100.483 112.276 100.527C112.613 100.527 112.949 100.192 113.292 99.9673C113.825 99.1672 120.686 94.3666 121.367 93.7989C122.111 93.3752 122.791 92.8466 123.385 92.2292C123.823 91.6679 123.152 90.883 122.48 91.1078Z" fill="#191919"/>
<path d="M140.201 65.538C139.652 66.0417 139.163 66.6063 138.743 67.2208C137.335 68.8736 136.061 70.636 134.933 72.4913C131.723 77.5344 131.048 80.2751 129.326 84.8268C129.112 85.3919 130.01 85.6167 130.222 85.0516C132.492 79.0097 135.586 73.311 139.418 68.1174C139.966 67.4919 140.454 66.8162 140.876 66.0994C141.322 65.651 140.644 65.1951 140.201 65.538Z" fill="#191919"/>
<path d="M176.426 61.2771C176.762 60.7158 175.868 60.157 175.528 60.7158C174.68 62.1098 174.18 63.6869 174.07 65.3144C173.164 72.1115 174.691 79.5448 175.641 83.8171C175.863 84.8264 176.201 85.8066 176.649 86.7381C176.97 87.4188 177.995 86.9629 177.883 86.178C175.818 79.736 174.944 72.9715 175.304 66.2161C175.352 64.5123 175.733 62.8344 176.426 61.2771Z" fill="#191919"/>
</svg>
