<svg width="24" height="25" viewBox="0 0 24 25" fill="none" xmlns="http://www.w3.org/2000/svg">
<path d="M21.0003 7.69458H20.9203C15.6737 7.09854 10.3804 7.03153 5.12032 7.49457L3.08032 7.69458C2.98077 7.70549 2.88005 7.69649 2.78401 7.66811C2.68797 7.63972 2.59854 7.59251 2.52092 7.52922C2.44331 7.46594 2.37906 7.38785 2.33191 7.29949C2.28477 7.21113 2.25567 7.11428 2.24632 7.01457C2.23596 6.91665 2.24512 6.81765 2.27326 6.72328C2.3014 6.62892 2.34797 6.54107 2.41028 6.46482C2.47258 6.38856 2.54938 6.32542 2.63624 6.27903C2.7231 6.23265 2.8183 6.20394 2.91632 6.19457L4.95632 5.99457C10.3197 5.52665 15.7163 5.59364 21.0663 6.19457C21.2637 6.21503 21.4449 6.31276 21.5704 6.4664C21.696 6.62004 21.7556 6.81711 21.7363 7.01457C21.7211 7.19948 21.637 7.37193 21.5007 7.49784C21.3644 7.62375 21.1859 7.69395 21.0003 7.69458Z" fill="#F55157"/>
<path d="M8.49946 6.68484C8.45589 6.68613 8.41231 6.68277 8.36946 6.67484C8.17544 6.63988 8.00287 6.53022 7.88882 6.36942C7.77476 6.20863 7.72832 6.00951 7.75946 5.81484L7.97946 4.50484C8.13946 3.54484 8.35946 2.21484 10.6895 2.21484H13.3095C15.6495 2.21484 15.8695 3.59484 16.0195 4.51484L16.2395 5.81484C16.2596 5.91292 16.2599 6.01407 16.2402 6.11224C16.2204 6.21042 16.1811 6.30362 16.1246 6.38629C16.0681 6.46896 15.9955 6.5394 15.9112 6.59342C15.8269 6.64744 15.7326 6.68394 15.6339 6.70073C15.5351 6.71751 15.434 6.71426 15.3366 6.69115C15.2392 6.66803 15.1474 6.62554 15.0667 6.5662C14.9861 6.50687 14.9182 6.43189 14.8671 6.34576C14.816 6.25962 14.7828 6.16409 14.7695 6.06484L14.5485 4.76484C14.4085 3.89484 14.3785 3.72484 13.3185 3.72484H10.6995C9.63946 3.72484 9.61946 3.86484 9.46946 4.75484L9.23946 6.05484C9.21097 6.2306 9.12088 6.3905 8.9853 6.50592C8.84973 6.62134 8.67751 6.68476 8.49946 6.68484Z" fill="#F55157"/>
<path d="M15.2118 23.7158H8.79178C5.30178 23.7158 5.16178 21.7858 5.05178 20.2258L4.39978 10.1548C4.38794 9.95623 4.45474 9.76097 4.58574 9.61127C4.71673 9.46156 4.90139 9.36943 5.09978 9.3548C5.29829 9.34323 5.4934 9.41012 5.64305 9.54106C5.7927 9.67201 5.8849 9.85651 5.89978 10.0548L6.54978 20.1248C6.65978 21.6448 6.69978 22.2148 8.78978 22.2148H15.2098C17.3098 22.2148 17.3498 21.6448 17.4498 20.1248L18.0998 10.0548C18.1161 9.85709 18.2088 9.6735 18.3581 9.54286C18.5074 9.41222 18.7016 9.34478 18.8998 9.3548C18.9983 9.36128 19.0946 9.38713 19.1831 9.43086C19.2716 9.47458 19.3507 9.53534 19.4157 9.60965C19.4807 9.68395 19.5304 9.77035 19.562 9.86389C19.5936 9.95744 19.6064 10.0563 19.5998 10.1548L18.9498 20.2248C18.8418 21.7858 18.6998 23.7158 15.2118 23.7158Z" fill="#F55157"/>
<path d="M13.6581 18.2148H10.3281C10.1296 18.2135 9.93961 18.1341 9.79924 17.9937C9.65887 17.8534 9.57944 17.6634 9.57812 17.4648C9.57944 17.2663 9.65887 17.0763 9.79924 16.936C9.93961 16.7956 10.1296 16.7162 10.3281 16.7148H13.6581C13.8566 16.7162 14.0466 16.7956 14.187 16.936C14.3274 17.0763 14.4068 17.2663 14.4081 17.4648C14.4068 17.6634 14.3274 17.8534 14.187 17.9937C14.0466 18.1341 13.8566 18.2135 13.6581 18.2148Z" fill="#F55157"/>
<path d="M14.5 14.2148H9.5C9.30149 14.2135 9.11149 14.1341 8.97112 13.9937C8.83075 13.8534 8.75131 13.6634 8.75 13.4648C8.75131 13.2663 8.83075 13.0763 8.97112 12.936C9.11149 12.7956 9.30149 12.7162 9.5 12.7148H14.5C14.6985 12.7162 14.8885 12.7956 15.0289 12.936C15.1693 13.0763 15.2487 13.2663 15.25 13.4648C15.2487 13.6634 15.1693 13.8534 15.0289 13.9937C14.8885 14.1341 14.6985 14.2135 14.5 14.2148Z" fill="#F55157"/>
</svg>
