                <svg width="24" height="24" viewBox="0 0 24 24" fill="none"
                                                    xmlns="http://www.w3.org/2000/svg">
                                                    <path
                                                        d="M5.54036 19.5196C4.95303 19.5308 4.38383 19.316 3.95036 18.9196C3.68647 18.6577 3.48752 18.3378 3.36945 17.9853C3.25137 17.6328 3.21743 17.2575 3.27036 16.8896L3.64036 13.6496C3.74391 12.9583 4.04618 12.3121 4.51036 11.7896L12.7204 3.09956C14.7704 0.929561 16.9104 0.869561 19.0804 2.91956C21.2504 4.96956 21.3104 7.10956 19.2604 9.27956L11.0524 17.9696C10.556 18.4618 9.92707 18.7988 9.24236 18.9396L6.02236 19.4896C5.85236 19.4996 5.70036 19.5196 5.54036 19.5196ZM15.9304 2.90956C15.5136 2.95347 15.1103 3.08267 14.7456 3.28911C14.3809 3.49555 14.0625 3.77483 13.8104 4.10956L5.60036 12.8096C5.36507 13.0999 5.20378 13.4431 5.13036 13.8096L4.76036 17.0496C4.73342 17.1862 4.73933 17.3272 4.77757 17.4611C4.81582 17.5949 4.88532 17.7178 4.98036 17.8196C5.08767 17.9077 5.21392 17.9698 5.34924 18.0011C5.48456 18.0323 5.62527 18.0318 5.76036 17.9996L8.98036 17.4496C9.34199 17.3598 9.67545 17.1811 9.95036 16.9296L18.1604 8.23956C19.4004 6.91956 19.8504 5.69956 18.0404 3.99956C17.5054 3.37587 16.7486 2.98493 15.9304 2.90956Z"
                                                        fill="#00AF6C" />
                                                    <path
                                                        d="M17.3401 10.9505H17.2701C15.7545 10.802 14.3314 10.1534 13.2252 9.10687C12.1189 8.06036 11.3924 6.67546 11.1601 5.17046C11.1318 4.9732 11.1819 4.7727 11.2996 4.61195C11.4174 4.45119 11.5935 4.34296 11.7901 4.31046C11.9873 4.28216 12.1878 4.33226 12.3486 4.45003C12.5093 4.56779 12.6176 4.74385 12.6501 4.94046C12.8332 6.1171 13.402 7.19956 14.2673 8.01773C15.1325 8.8359 16.245 9.34339 17.4301 9.46046C17.6274 9.48092 17.8086 9.57864 17.9342 9.73228C18.0597 9.88592 18.1194 10.083 18.1001 10.2805C18.0751 10.4648 17.9845 10.634 17.8449 10.7571C17.7054 10.8801 17.5261 10.9488 17.3401 10.9505Z"
                                                        fill="#00AF6C" />
                                                </svg>
