                            <svg width="30" height="30" viewBox="0 0 45 33" fill="none" xmlns="http://www.w3.org/2000/svg">
                                <path d="M38.0423 0.75H6.73592C3.4129 0.75 0.71875 3.44415 0.71875 6.76717V26.5739C0.71875 29.8969 3.4129 32.591 6.73592 32.591H38.0423C41.3652 32.591 44.0595 29.8969 44.0595 26.5739V6.76717C44.0595 3.44415 41.3652 0.75 38.0423 0.75ZM15.8005 22.2337L7.37443 29.4222C6.7801 29.9294 5.88662 29.8589 5.37949 29.264C4.87226 28.6696 4.94278 27.7762 5.53778 27.269L13.9638 20.0806C14.5581 19.5733 15.4515 19.6438 15.9587 20.2389C16.4659 20.8331 16.3954 21.7266 15.8005 22.2337ZM22.3891 19.5009C21.2621 19.4981 20.1696 19.1236 19.3155 18.3849L19.3162 18.3856L19.3134 18.3836C19.3141 18.3843 19.3149 18.3843 19.3155 18.3849L6.38707 7.16384C5.79622 6.65103 5.73332 5.75763 6.24537 5.16754C6.75809 4.57668 7.65157 4.51379 8.24158 5.02583L21.1736 16.2497C21.45 16.4957 21.9054 16.6733 22.3891 16.6705C22.8721 16.672 23.3198 16.4992 23.6115 16.2449L23.6177 16.2394L36.5366 5.02592C37.1267 4.51387 38.0201 4.57677 38.5329 5.16762C39.0448 5.75763 38.982 6.65111 38.3912 7.16392L25.4592 18.3884C24.6079 19.1194 23.5168 19.4994 22.3891 19.5009ZM39.3993 29.264C38.8921 29.8589 37.9986 29.9294 37.4045 29.4222L28.9784 22.2337C28.3835 21.7265 28.313 20.8331 28.8202 20.2389C29.3274 19.6438 30.2208 19.5734 30.8151 20.0806L39.2411 27.269C39.836 27.7762 39.9066 28.6696 39.3993 29.264Z" fill="#003090"/>
                            </svg>