                            <svg width="30" height="30" viewBox="0 0 40 41" fill="none" xmlns="http://www.w3.org/2000/svg">
                                <path d="M35.7755 0.951172H4.78806C3.66737 0.951172 2.59259 1.39636 1.80014 2.18881C1.00769 2.98126 0.5625 4.05605 0.5625 5.17674L0.5625 36.1642C0.5625 37.2849 1.00769 38.3597 1.80014 39.1521C2.59259 39.9446 3.66737 40.3898 4.78806 40.3898H16.8705V26.9815H11.3245V20.6705H16.8705V15.8604C16.8705 10.3891 20.1277 7.36699 25.1165 7.36699C27.5058 7.36699 30.0041 7.79306 30.0041 7.79306V13.1631H27.2513C24.5391 13.1631 23.6931 14.8462 23.6931 16.5726V20.6705H29.7479L28.7796 26.9815H23.6931V40.3898H35.7755C36.8962 40.3898 37.971 39.9446 38.7635 39.1521C39.5559 38.3597 40.0011 37.2849 40.0011 36.1642V5.17674C40.0011 4.05605 39.5559 2.98126 38.7635 2.18881C37.971 1.39636 36.8962 0.951172 35.7755 0.951172Z" fill="#003090"/>
                            </svg>