                                      <svg width="23" height="22" viewBox="0 0 23 22" fill="none"
                                          xmlns="http://www.w3.org/2000/svg">
                                          <path
                                              d="M22.4789 3.34844C22.3459 4.16944 21.5499 4.71744 20.7509 4.57844C20.7109 4.57144 16.6429 3.89844 11.4999 3.89844C6.35693 3.89844 2.28893 4.57144 2.24893 4.57844C1.43293 4.70944 0.658927 4.16444 0.520927 3.34844C0.383927 2.53144 0.933927 1.75744 1.75093 1.61944C1.92593 1.59044 6.09293 0.898438 11.4999 0.898438C16.9069 0.898438 21.0739 1.58944 21.2489 1.61944C22.0649 1.75744 22.6169 2.53044 22.4789 3.34844ZM18.2259 9.91644C16.6779 9.68044 14.2539 9.39844 11.4999 9.39844C8.74593 9.39844 6.32293 9.67944 4.77393 9.91644C3.95493 10.0404 3.39293 10.8064 3.51693 11.6244C3.63793 12.4484 4.42493 13.0094 5.22593 12.8814C6.67193 12.6614 8.93493 12.3994 11.4999 12.3994C14.0649 12.3994 16.3279 12.6624 17.7739 12.8814C18.5919 13.0094 19.3589 12.4444 19.4819 11.6244C19.6069 10.8064 19.0449 10.0404 18.2259 9.91644ZM15.6479 18.1054C12.8559 17.8304 10.1439 17.8304 7.35293 18.1054C6.52893 18.1874 5.92593 18.9214 6.00793 19.7464C6.08893 20.5704 6.81993 21.1704 7.64793 21.0924C10.2429 20.8344 12.7569 20.8344 15.3529 21.0924C16.1639 21.1754 16.9149 20.5744 16.9939 19.7464C17.0749 18.9224 16.4729 18.1874 15.6479 18.1054Z"
                                              fill="#5A5A5A" />
                                      </svg>