                                          <svg width="28" height="27" viewBox="0 0 28 27" fill="none"
                                              xmlns="http://www.w3.org/2000/svg">
                                              <path
                                                  d="M25.0754 12.4528V5.21862C25.0754 3.62284 24.3688 2.98438 22.6132 2.98438H18.1536C16.398 2.98438 15.6914 3.62284 15.6914 5.21862V12.4528C15.6914 14.0486 16.398 14.687 18.1536 14.687H22.6132C24.3688 14.687 25.0754 14.0486 25.0754 12.4528Z"
                                                  stroke="#707070" stroke-width="1.89252" stroke-linecap="round"
                                                  stroke-linejoin="round" />
                                              <path
                                                  d="M25.0754 22.0258V20.1112C25.0754 18.5154 24.3688 17.877 22.6132 17.877H18.1536C16.398 17.877 15.6914 18.5154 15.6914 20.1112V22.0258C15.6914 23.6216 16.398 24.2601 18.1536 24.2601H22.6132C24.3688 24.2601 25.0754 23.6216 25.0754 22.0258Z"
                                                  stroke="#707070" stroke-width="1.89252" stroke-linecap="round"
                                                  stroke-linejoin="round" />
                                              <path
                                                  d="M12.3801 14.7928V22.027C12.3801 23.6228 11.6735 24.2613 9.91791 24.2613H5.45828C3.70273 24.2613 2.99609 23.6228 2.99609 22.027V14.7928C2.99609 13.1971 3.70273 12.5586 5.45828 12.5586H9.91791C11.6735 12.5586 12.3801 13.1971 12.3801 14.7928Z"
                                                  stroke="#707070" stroke-width="1.89252" stroke-linecap="round"
                                                  stroke-linejoin="round" />
                                              <path
                                                  d="M12.3801 5.21862V7.13327C12.3801 8.72905 11.6735 9.36751 9.91791 9.36751H5.45828C3.70273 9.36751 2.99609 8.72905 2.99609 7.13327V5.21862C2.99609 3.62284 3.70273 2.98438 5.45828 2.98438H9.91791C11.6735 2.98438 12.3801 3.62284 12.3801 5.21862Z"
                                                  stroke="#707070" stroke-width="1.89252" stroke-linecap="round"
                                                  stroke-linejoin="round" />
                                          </svg>