<svg width="20" height="21" viewBox="0 0 20 21" fill="none" xmlns="http://www.w3.org/2000/svg">
<path d="M9.99984 18.8332C14.6022 18.8332 18.3332 15.1022 18.3332 10.4998C18.3332 5.89746 14.6022 2.1665 9.99984 2.1665C5.39746 2.1665 1.6665 5.89746 1.6665 10.4998C1.6665 15.1022 5.39746 18.8332 9.99984 18.8332Z" stroke="#232323" stroke-width="1.25" stroke-linecap="round" stroke-linejoin="round"/>
<g opacity="0.4">
<path d="M6.66618 3H7.49951C5.87451 7.86667 5.87451 13.1333 7.49951 18H6.66618" stroke="#232323" stroke-width="1.25" stroke-linecap="round" stroke-linejoin="round"/>
<path d="M12.5 3C14.125 7.86667 14.125 13.1333 12.5 18" stroke="#232323" stroke-width="1.25" stroke-linecap="round" stroke-linejoin="round"/>
<path d="M2.5 13.8333V13C7.36667 14.625 12.6333 14.625 17.5 13V13.8333" stroke="#232323" stroke-width="1.25" stroke-linecap="round" stroke-linejoin="round"/>
<path d="M2.5 8C7.36667 6.375 12.6333 6.375 17.5 8" stroke="#232323" stroke-width="1.25" stroke-linecap="round" stroke-linejoin="round"/>
</g>
</svg>
