                      <svg width="20" height="21" viewBox="0 0 20 21" fill="none"
                            xmlns="http://www.w3.org/2000/svg">
                            <path
                                d="M10.0013 18.8327C14.6037 18.8327 18.3346 15.1017 18.3346 10.4993C18.3346 5.89698 14.6037 2.16602 10.0013 2.16602C5.39893 2.16602 1.66797 5.89698 1.66797 10.4993C1.66797 15.1017 5.39893 18.8327 10.0013 18.8327Z"
                                stroke="white" stroke-width="1.25" stroke-linecap="round" stroke-linejoin="round" />
                            <g opacity="0.4">
                                <path d="M6.66667 3H7.5C5.875 7.86667 5.875 13.1333 7.5 18H6.66667" stroke="white"
                                    stroke-width="1.25" stroke-linecap="round" stroke-linejoin="round" />
                                <path d="M12.5 3C14.125 7.86667 14.125 13.1333 12.5 18" stroke="white" stroke-width="1.25"
                                    stroke-linecap="round" stroke-linejoin="round" />
                                <path d="M2.5 13.8333V13C7.36667 14.625 12.6333 14.625 17.5 13V13.8333" stroke="white"
                                    stroke-width="1.25" stroke-linecap="round" stroke-linejoin="round" />
                                <path d="M2.5 8C7.36667 6.375 12.6333 6.375 17.5 8" stroke="white" stroke-width="1.25"
                                    stroke-linecap="round" stroke-linejoin="round" />
                            </g>
                        </svg>