                                <svg width="24" height="25" viewBox="0 0 24 25" fill="none"
                                    xmlns="http://www.w3.org/2000/svg">
                                    <path
                                        d="M21.6602 10.9405L20.6802 15.1205C19.8402 18.7305 18.1802 20.1905 15.0602 19.8905C14.5602 19.8505 14.0202 19.7605 13.4402 19.6205L11.7602 19.2205C7.59018 18.2305 6.30018 16.1705 7.28018 11.9905L8.26018 7.8005C8.46018 6.9505 8.70018 6.2105 9.00018 5.6005C10.1702 3.1805 12.1602 2.5305 15.5002 3.3205L17.1702 3.7105C21.3602 4.6905 22.6402 6.7605 21.6602 10.9405Z"
                                        stroke="#003090" stroke-width="1.5" stroke-linecap="round"
                                        stroke-linejoin="round" />
                                    <path opacity="0.4"
                                        d="M15.0584 19.8896C14.4384 20.3096 13.6584 20.6596 12.7084 20.9696L11.1284 21.4896C7.15839 22.7696 5.06839 21.6996 3.77839 17.7296L2.49839 13.7796C1.21839 9.80961 2.27839 7.70961 6.24839 6.42961L7.82839 5.90961C8.23839 5.77961 8.62839 5.66961 8.99839 5.59961C8.69839 6.20961 8.45839 6.94961 8.25839 7.79961L7.27839 11.9896C6.29839 16.1696 7.58839 18.2296 11.7584 19.2196L13.4384 19.6196C14.0184 19.7596 14.5584 19.8496 15.0584 19.8896Z"
                                        stroke="#003090" stroke-width="1.5" stroke-linecap="round"
                                        stroke-linejoin="round" />
                                    <path opacity="0.4" d="M12.6406 9.0293L17.4906 10.2593" stroke="#003090"
                                        stroke-width="1.5" stroke-linecap="round" stroke-linejoin="round" />
                                    <path opacity="0.4" d="M11.6602 12.9004L14.5602 13.6404" stroke="#003090"
                                        stroke-width="1.5" stroke-linecap="round" stroke-linejoin="round" />
                                </svg>