                          <svg width="30" height="30" viewBox="0 0 40 41" fill="none" xmlns="http://www.w3.org/2000/svg">
                                <path fill-rule="evenodd" clip-rule="evenodd" d="M0.0820317 4.24609C0.0820317 3.37223 0.429174 2.53415 1.04709 1.91623C1.66501 1.29832 2.50308 0.951176 3.37695 0.951176H36.2221C36.6552 0.950469 37.0841 1.03519 37.4844 1.20048C37.8847 1.36577 38.2484 1.60838 38.5548 1.91444C38.8612 2.22049 39.1042 2.58398 39.27 2.98407C39.4357 3.38417 39.5209 3.81303 39.5206 4.24609V37.0913C39.5211 37.5244 39.4362 37.9534 39.2707 38.3537C39.1052 38.754 38.8624 39.1177 38.5562 39.4241C38.25 39.7304 37.8864 39.9734 37.4862 40.1391C37.086 40.3048 36.6571 40.39 36.2239 40.3898H3.37695C2.9441 40.3898 2.5155 40.3045 2.11562 40.1388C1.71575 39.9731 1.35244 39.7302 1.04646 39.4241C0.740471 39.1179 0.497807 38.7545 0.332328 38.3545C0.166848 37.9546 0.0817962 37.5259 0.0820317 37.0931V4.24609ZM15.6925 15.988H21.0329V18.6699C21.8037 17.1282 23.7757 15.7406 26.7389 15.7406C32.4199 15.7406 33.7662 18.8115 33.7662 24.4458V34.8827H28.0171V25.7294C28.0171 22.5205 27.2463 20.7099 25.2887 20.7099C22.5728 20.7099 21.4434 22.6621 21.4434 25.7294V34.8827H15.6925V15.988ZM5.8329 34.6371H11.5838V15.7406H5.8329V34.6353V34.6371ZM12.4066 9.57747C12.4174 10.0699 12.3298 10.5595 12.1489 11.0175C11.9679 11.4756 11.6973 11.8929 11.3529 12.245C11.0085 12.5971 10.5973 12.8768 10.1433 13.0678C9.68929 13.2588 9.20174 13.3572 8.70922 13.3572C8.21671 13.3572 7.72915 13.2588 7.27517 13.0678C6.82119 12.8768 6.40993 12.5971 6.06553 12.245C5.72112 11.8929 5.45051 11.4756 5.26957 11.0175C5.08863 10.5595 5.00101 10.0699 5.01186 9.57747C5.03314 8.61096 5.43203 7.69122 6.1231 7.01519C6.81417 6.33917 7.74248 5.96063 8.70922 5.96063C9.67596 5.96063 10.6043 6.33917 11.2953 7.01519C11.9864 7.69122 12.3853 8.61096 12.4066 9.57747Z" fill="#003090"/>
                            </svg>