  <svg width="31" height="25" viewBox="0 0 31 25" fill="none"
                                              xmlns="http://www.w3.org/2000/svg">
                                              <path
                                                  d="M9.48035 4.82506H29.015C29.3339 4.81687 29.6372 4.67199 29.8601 4.42138C30.083 4.17078 30.2077 3.83434 30.2077 3.484C30.2077 3.13367 30.083 2.79723 29.8601 2.54662C29.6372 2.29602 29.3339 2.15113 29.015 2.14294H9.48035C9.3176 2.13877 9.15574 2.17036 9.00427 2.23588C8.8528 2.3014 8.71479 2.39951 8.59834 2.52445C8.48189 2.64939 8.38936 2.79864 8.32619 2.96343C8.26301 3.12821 8.23047 3.30521 8.23047 3.484C8.23047 3.6628 8.26301 3.83979 8.32619 4.00458C8.38936 4.16936 8.48189 4.31861 8.59834 4.44356C8.71479 4.5685 8.8528 4.66661 9.00427 4.73213C9.15574 4.79765 9.3176 4.82924 9.48035 4.82506Z"
                                                  fill="#5A5A5A" />
                                              <path
                                                  d="M29.015 11.5277H9.48035C9.3176 11.5235 9.15574 11.5551 9.00427 11.6206C8.8528 11.6862 8.71479 11.7843 8.59834 11.9092C8.48189 12.0342 8.38936 12.1834 8.32619 12.3482C8.26301 12.513 8.23047 12.69 8.23047 12.8688C8.23047 13.0476 8.26301 13.2246 8.32619 13.3893C8.38936 13.5541 8.48189 13.7034 8.59834 13.8283C8.71479 13.9533 8.8528 14.0514 9.00427 14.1169C9.15574 14.1824 9.3176 14.214 9.48035 14.2098H29.015C29.3339 14.2016 29.6372 14.0568 29.8601 13.8061C30.083 13.5555 30.2077 13.2191 30.2077 12.8688C30.2077 12.5184 30.083 12.182 29.8601 11.9314C29.6372 11.6808 29.3339 11.5359 29.015 11.5277Z"
                                                  fill="#5A5A5A" />
                                              <path
                                                  d="M29.015 20.9164H9.48035C9.3176 20.9122 9.15574 20.9438 9.00427 21.0093C8.8528 21.0748 8.71479 21.1729 8.59834 21.2979C8.48189 21.4228 8.38936 21.5721 8.32619 21.7369C8.26301 21.9017 8.23047 22.0786 8.23047 22.2574C8.23047 22.4362 8.26301 22.6132 8.32619 22.778C8.38936 22.9428 8.48189 23.0921 8.59834 23.217C8.71479 23.3419 8.8528 23.4401 9.00427 23.5056C9.15574 23.5711 9.3176 23.6027 9.48035 23.5985H29.015C29.3339 23.5903 29.6372 23.4454 29.8601 23.1948C30.083 22.9442 30.2077 22.6078 30.2077 22.2574C30.2077 21.9071 30.083 21.5707 29.8601 21.3201C29.6372 21.0695 29.3339 20.9246 29.015 20.9164Z"
                                                  fill="#5A5A5A" />
                                              <path
                                                  d="M3.20697 5.88309C4.49704 5.88309 5.54285 4.73445 5.54285 3.31752C5.54285 1.9006 4.49704 0.751953 3.20697 0.751953C1.9169 0.751953 0.871094 1.9006 0.871094 3.31752C0.871094 4.73445 1.9169 5.88309 3.20697 5.88309Z"
                                                  fill="#5A5A5A" />
                                              <path
                                                  d="M3.20697 15.4124C4.49704 15.4124 5.54285 14.2637 5.54285 12.8468C5.54285 11.4299 4.49704 10.2812 3.20697 10.2812C1.9169 10.2812 0.871094 11.4299 0.871094 12.8468C0.871094 14.2637 1.9169 15.4124 3.20697 15.4124Z"
                                                  fill="#5A5A5A" />
                                              <path
                                                  d="M3.20697 24.9417C4.49704 24.9417 5.54285 23.793 5.54285 22.3761C5.54285 20.9592 4.49704 19.8105 3.20697 19.8105C1.9169 19.8105 0.871094 20.9592 0.871094 22.3761C0.871094 23.793 1.9169 24.9417 3.20697 24.9417Z"
                                                  fill="#5A5A5A" />
                                          </svg>