                                <svg width="24" height="25" viewBox="0 0 24 25" fill="none"
                                    xmlns="http://www.w3.org/2000/svg">
                                    <path
                                        d="M9.15859 11.37C9.05859 11.36 8.93859 11.36 8.82859 11.37C6.44859 11.29 4.55859 9.34 4.55859 6.94C4.55859 4.49 6.53859 2.5 8.99859 2.5C11.4486 2.5 13.4386 4.49 13.4386 6.94C13.4286 9.34 11.5386 11.29 9.15859 11.37Z"
                                        stroke="#003090" stroke-width="1.5" stroke-linecap="round"
                                        stroke-linejoin="round" />
                                    <path opacity="0.4"
                                        d="M16.4112 4.5C18.3512 4.5 19.9112 6.07 19.9112 8C19.9112 9.89 18.4113 11.43 16.5413 11.5C16.4613 11.49 16.3713 11.49 16.2812 11.5"
                                        stroke="#003090" stroke-width="1.5" stroke-linecap="round"
                                        stroke-linejoin="round" />
                                    <path
                                        d="M4.15875 15.06C1.73875 16.68 1.73875 19.32 4.15875 20.93C6.90875 22.77 11.4188 22.77 14.1688 20.93C16.5888 19.31 16.5888 16.67 14.1688 15.06C11.4288 13.23 6.91875 13.23 4.15875 15.06Z"
                                        stroke="#003090" stroke-width="1.5" stroke-linecap="round"
                                        stroke-linejoin="round" />
                                    <path opacity="0.4"
                                        d="M18.3398 20.5C19.0598 20.35 19.7398 20.06 20.2998 19.63C21.8598 18.46 21.8598 16.53 20.2998 15.36C19.7498 14.94 19.0798 14.66 18.3698 14.5"
                                        stroke="#003090" stroke-width="1.5" stroke-linecap="round"
                                        stroke-linejoin="round" />
                                </svg>