<svg width="24" height="24" viewBox="0 0 24 24" fill="none" xmlns="http://www.w3.org/2000/svg">
<path d="M9.15844 11.62H9.07844C9.01886 11.61 8.95802 11.61 8.89844 11.62C7.547 11.5819 6.26486 11.0134 5.32928 10.0374C4.39371 9.06139 3.8799 7.75637 3.89895 6.40452C3.918 5.05268 4.46839 3.76266 5.4311 2.81342C6.39381 1.86419 7.69146 1.33203 9.04344 1.33203C10.3954 1.33203 11.6931 1.86419 12.6558 2.81342C13.6185 3.76266 14.1689 5.05268 14.1879 6.40452C14.207 7.75637 13.6932 9.06139 12.7576 10.0374C11.822 11.0134 10.5399 11.5819 9.18844 11.62H9.15844ZM8.99844 2.74999C8.02948 2.74465 7.09738 3.12108 6.40387 3.7978C5.71035 4.47453 5.31121 5.39712 5.2928 6.36593C5.2744 7.33473 5.63822 8.27181 6.30553 8.97439C6.97284 9.67697 7.88997 10.0885 8.85844 10.12C8.96486 10.1097 9.07202 10.1097 9.17844 10.12C10.1411 10.0752 11.048 9.65518 11.7049 8.94998C12.3617 8.24477 12.7164 7.31041 12.6929 6.34696C12.6693 5.38351 12.2695 4.46757 11.579 3.79527C10.8885 3.12297 9.96217 2.74776 8.99844 2.74999Z" fill="#666666"/>
<path d="M16.5423 11.75C16.5119 11.7516 16.4815 11.7482 16.4523 11.74C16.2496 11.7637 16.0456 11.7084 15.8828 11.5854C15.72 11.4625 15.6109 11.2814 15.5783 11.08C15.564 10.9844 15.5689 10.887 15.5927 10.7933C15.6164 10.6997 15.6586 10.6117 15.7166 10.5344C15.7747 10.4572 15.8475 10.3923 15.9309 10.3435C16.0143 10.2946 16.1065 10.2629 16.2023 10.25C16.3223 10.24 16.4523 10.24 16.5623 10.24C17.2784 10.2013 17.9512 9.88467 18.4373 9.35738C18.9234 8.8301 19.1845 8.13388 19.1649 7.41697C19.1454 6.70006 18.8467 6.01911 18.3326 5.51911C17.8185 5.0191 17.1295 4.73956 16.4123 4.74C16.3143 4.74119 16.2171 4.72294 16.1262 4.68629C16.0353 4.64965 15.9526 4.59535 15.8828 4.52653C15.8131 4.4577 15.7577 4.37573 15.7198 4.28535C15.682 4.19498 15.6624 4.09799 15.6623 4C15.6636 3.80149 15.743 3.61149 15.8834 3.47112C16.0238 3.33075 16.2138 3.25131 16.4123 3.25C17.5387 3.25238 18.6183 3.70091 19.4149 4.49742C20.2114 5.29394 20.6599 6.37356 20.6623 7.5C20.6653 8.60066 20.2403 9.65938 19.4771 10.4525C18.7139 11.2455 17.6722 11.7108 16.5723 11.75H16.5423Z" fill="#666666"/>
<path d="M9.17156 22.5499C7.25772 22.5856 5.37473 22.0645 3.75156 21.0499C3.12219 20.6883 2.59483 20.173 2.21882 19.5522C1.84281 18.9313 1.63043 18.2252 1.60156 17.4999C1.63125 16.7722 1.84378 16.0636 2.21955 15.4397C2.59531 14.8158 3.12219 14.2965 3.75156 13.9299C5.39074 12.9532 7.26342 12.4375 9.17156 12.4375C11.0797 12.4375 12.9524 12.9532 14.5916 13.9299C15.2195 14.2932 15.7457 14.8089 16.1215 15.4294C16.4973 16.0499 16.7106 16.7552 16.7416 17.4799C16.7119 18.2077 16.4993 18.9162 16.1236 19.5402C15.7478 20.1641 15.2209 20.6833 14.5916 21.0499C12.9679 22.0634 11.0852 22.5844 9.17156 22.5499ZM4.58156 15.1899C4.16063 15.4221 3.80462 15.7561 3.54607 16.1614C3.28753 16.5667 3.1347 17.0303 3.10156 17.5099C3.13732 17.9862 3.29141 18.446 3.54985 18.8476C3.8083 19.2493 4.16292 19.58 4.58156 19.8099C5.97223 20.6299 7.55716 21.0624 9.17156 21.0624C10.786 21.0624 12.3709 20.6299 13.7616 19.8099C14.1825 19.5777 14.5385 19.2437 14.7971 18.8384C15.0556 18.4331 15.2084 17.9695 15.2416 17.4899C15.2058 17.0137 15.0517 16.5539 14.7933 16.1522C14.5348 15.7506 14.1802 15.4198 13.7616 15.1899C12.3693 14.3747 10.785 13.945 9.17156 13.945C7.55816 13.945 5.97386 14.3747 4.58156 15.1899Z" fill="#666666"/>
<path d="M18.3383 20.7505C18.1657 20.7517 17.9981 20.6923 17.8647 20.5826C17.7313 20.473 17.6406 20.3201 17.6083 20.1505C17.5696 19.9558 17.6086 19.7536 17.717 19.5873C17.8254 19.421 17.9946 19.3037 18.1883 19.2605C18.7897 19.1458 19.3573 18.8962 19.8483 18.5305C20.106 18.3613 20.32 18.1336 20.4729 17.866C20.6259 17.5983 20.7134 17.2984 20.7283 16.9905C20.7142 16.6849 20.628 16.387 20.4768 16.1211C20.3256 15.8552 20.1137 15.6289 19.8583 15.4605C19.3709 15.1014 18.8114 14.8524 18.2183 14.7305C18.1218 14.7088 18.0305 14.6683 17.9496 14.6114C17.8688 14.5544 17.7999 14.4821 17.7469 14.3985C17.6401 14.2298 17.6046 14.0254 17.6483 13.8305C17.6921 13.6355 17.8115 13.466 17.9803 13.3591C18.1491 13.2522 18.3534 13.2167 18.5483 13.2605C19.3529 13.4264 20.111 13.7678 20.7683 14.2605C21.2082 14.5697 21.5694 14.9778 21.8229 15.4519C22.0765 15.926 22.2153 16.453 22.2283 16.9905C22.2123 17.5299 22.0712 18.0581 21.8161 18.5336C21.561 19.0091 21.1989 19.4189 20.7583 19.7305C20.0921 20.2335 19.3187 20.5758 18.4983 20.7305C18.4466 20.7464 18.3924 20.7531 18.3383 20.7505Z" fill="#666666"/>
</svg>
