<svg width="56" height="56" viewBox="0 0 56 56" fill="none" xmlns="http://www.w3.org/2000/svg">
<g filter="url(#filter0_d_3238_13073)">
<rect x="5.5" y="2" width="45" height="45" rx="12" fill="#003090"/>
</g>
<path d="M25.0007 22.1673C27.578 22.1673 29.6673 20.078 29.6673 17.5007C29.6673 14.9233 27.578 12.834 25.0007 12.834C22.4233 12.834 20.334 14.9233 20.334 17.5007C20.334 20.078 22.4233 22.1673 25.0007 22.1673Z" fill="white"/>
<path d="M25.0007 34.9993C29.511 34.9993 33.1673 32.91 33.1673 30.3327C33.1673 27.7554 29.511 25.666 25.0007 25.666C20.4903 25.666 16.834 27.7554 16.834 30.3327C16.834 32.91 20.4903 34.9993 25.0007 34.9993Z" fill="white"/>
<path d="M39.0019 30.334C39.0019 32.2669 36.6272 33.8339 33.7276 33.8339C34.5819 32.9002 35.1693 31.7282 35.1693 30.3355C35.1693 28.9413 34.5805 27.7683 33.7246 26.834C36.6241 26.834 39.0019 28.4009 39.0019 30.334Z" fill="white"/>
<path d="M35.4986 17.5C35.4986 19.433 33.9317 21 31.9986 21C31.5771 21 31.1731 20.9255 30.7988 20.7889C31.3508 19.8182 31.666 18.6952 31.666 17.4987C31.666 16.303 31.3512 15.1809 30.8 14.2106C31.1739 14.0744 31.5776 14 31.9986 14C33.9317 14 35.4986 15.567 35.4986 17.5Z" fill="white"/>
<defs>
<filter id="filter0_d_3238_13073" x="-4.76837e-07" y="-2.38419e-07" width="56" height="56" filterUnits="userSpaceOnUse" color-interpolation-filters="sRGB">
<feFlood flood-opacity="0" result="BackgroundImageFix"/>
<feColorMatrix in="SourceAlpha" type="matrix" values="0 0 0 0 0 0 0 0 0 0 0 0 0 0 0 0 0 0 127 0" result="hardAlpha"/>
<feOffset dy="3.5"/>
<feGaussianBlur stdDeviation="2.75"/>
<feColorMatrix type="matrix" values="0 0 0 0 0 0 0 0 0 0 0 0 0 0 0 0 0 0 0.02 0"/>
<feBlend mode="normal" in2="BackgroundImageFix" result="effect1_dropShadow_3238_13073"/>
<feBlend mode="normal" in="SourceGraphic" in2="effect1_dropShadow_3238_13073" result="shape"/>
</filter>
</defs>
</svg>
