<svg width="56" height="56" viewBox="0 0 56 56" fill="none" xmlns="http://www.w3.org/2000/svg">
<g filter="url(#filter0_d_3238_13064)">
<rect x="5.5" y="2" width="45" height="45" rx="12" fill="#003090"/>
</g>
<path fill-rule="evenodd" clip-rule="evenodd" d="M40 24.5C40 30.8512 34.8512 36 28.5 36C22.1487 36 17 30.8512 17 24.5C17 18.1487 22.1487 13 28.5 13C34.8512 13 40 18.1487 40 24.5ZM33.1348 21.0151C33.4717 21.3519 33.4717 21.8981 33.1348 22.2348L27.3848 27.9848C27.048 28.3217 26.502 28.3217 26.1651 27.9848L23.8651 25.6848C23.5283 25.348 23.5283 24.802 23.8651 24.4652C24.2019 24.1283 24.7481 24.1283 25.0849 24.4652L26.775 26.1552L29.345 23.5852L31.9152 21.0151C32.252 20.6783 32.798 20.6783 33.1348 21.0151Z" fill="white"/>
<defs>
<filter id="filter0_d_3238_13064" x="-4.76837e-07" y="-2.38419e-07" width="56" height="56" filterUnits="userSpaceOnUse" color-interpolation-filters="sRGB">
<feFlood flood-opacity="0" result="BackgroundImageFix"/>
<feColorMatrix in="SourceAlpha" type="matrix" values="0 0 0 0 0 0 0 0 0 0 0 0 0 0 0 0 0 0 127 0" result="hardAlpha"/>
<feOffset dy="3.5"/>
<feGaussianBlur stdDeviation="2.75"/>
<feColorMatrix type="matrix" values="0 0 0 0 0 0 0 0 0 0 0 0 0 0 0 0 0 0 0.02 0"/>
<feBlend mode="normal" in2="BackgroundImageFix" result="effect1_dropShadow_3238_13064"/>
<feBlend mode="normal" in="SourceGraphic" in2="effect1_dropShadow_3238_13064" result="shape"/>
</filter>
</defs>
</svg>
