<svg width="631" height="1048" viewBox="0 0 631 1048" fill="none" xmlns="http://www.w3.org/2000/svg">
<mask id="mask0_4517_31989" style="mask-type:luminance" maskUnits="userSpaceOnUse" x="-661" y="0" width="1292" height="1048">
<path d="M630.617 0.281738H-661V1047.66H630.617V0.281738Z" fill="white"/>
</mask>
<g mask="url(#mask0_4517_31989)">
<path d="M225.416 431.797L143.786 506.033L71.8456 421.803C40.7097 385.353 44.1084 329.756 79.4364 297.627L161.061 223.39L233.002 307.625C264.133 344.075 260.739 399.672 225.411 431.802L225.416 431.797Z" stroke="#003090" stroke-width="0.446448" stroke-miterlimit="10"/>
<path d="M168.403 216.712C248.81 143.585 371.439 151.565 442.305 234.538C513.171 317.511 505.437 444.054 425.03 517.181L168.403 216.712Z" stroke="#003090" stroke-width="0.446448" stroke-miterlimit="10"/>
<path d="M417.691 523.867L272.1 656.273L143.789 506.036L225.414 431.799C260.742 399.67 314.614 403.177 345.75 439.632L417.691 523.862V523.867Z" stroke="#003090" stroke-width="0.446448" stroke-miterlimit="10"/>
<path d="M272.098 656.27L417.689 523.864L546 674.102L464.375 748.338C429.047 780.468 375.175 776.961 344.039 740.505L272.098 656.275V656.27Z" stroke="#003090" stroke-width="0.446448" stroke-miterlimit="10"/>
</g>
</svg>
