<svg width="254" height="255" viewBox="0 0 254 255" fill="none" xmlns="http://www.w3.org/2000/svg">
<path d="M6.70728 147.677C6.18023 148.566 6.2069 149.286 7.00319 149.411C9.47969 149.792 40.2454 149.187 45.154 149.116C46.3783 149.116 46.4329 147.917 45.869 146.756C41.7923 138.27 34.3704 125.217 28.2554 118.226C27.8883 117.805 27.1822 117.582 26.4672 118.538C19.2797 127.83 12.6801 137.562 6.70728 147.677ZM28.9437 142.687C29.2523 145.1 25.2963 145.21 25.9757 142.581C26.0412 142.227 26.2318 141.908 26.5126 141.683C26.7935 141.457 27.1459 141.341 27.5057 141.353C27.8655 141.366 28.2087 141.508 28.4727 141.753C28.7366 141.998 28.9038 142.329 28.9437 142.687ZM28.2643 137.01C28.2643 139.228 26.0557 140.193 26.1053 135.785C26.1053 133.666 26.1053 131.547 26.2132 129.435C26.3021 127.648 27.4108 127.648 27.8134 128.265C28.4967 129.329 28.2592 135.32 28.2643 137.01ZM8.42432 147.856C13.7355 139.416 22.3638 126.961 27.6737 119.933C33.7367 129.284 39.1037 137.09 44.0186 147.257C32.6191 147.435 19.8327 147.729 8.42432 147.856Z" fill="#003090"/>
<path d="M214.575 50.0054C208.54 60.2607 201.262 72.6622 196.22 83.3023C195.718 84.3475 196.041 85.0092 196.846 85.0904C199.005 85.3444 233.862 83.3734 238.868 83.1143C240.074 83.0508 240.209 81.7643 239.315 80.2708C233.085 69.6633 225.979 59.5953 218.072 50.1718C216.79 48.691 215.943 47.6813 214.575 50.0054ZM220.092 77.2571C220.132 77.5365 220.101 77.8214 220.002 78.0857C219.903 78.3499 219.739 78.585 219.525 78.7694C219.311 78.9537 219.055 79.0814 218.779 79.1407C218.503 79.2 218.217 79.189 217.946 79.1087C216.158 78.7062 217.267 76.8012 217.311 76.6678C217.74 75.3915 219.909 75.8995 220.092 77.2571ZM218.17 60.1807C218.561 62.1212 219.296 69.4707 219.36 71.4735C219.423 73.4763 217.258 73.7532 217.016 72.1796C216.623 69.4974 216.025 62.7638 216.435 60.2607C216.476 60.0667 216.581 59.892 216.732 59.7638C216.884 59.6356 217.073 59.5611 217.271 59.552C217.469 59.5428 217.665 59.5996 217.828 59.7133C217.99 59.827 218.11 59.9914 218.17 60.1807ZM197.686 83.4979C203.57 72.0679 210.249 61.3694 216.211 50.6671C225.466 61.6742 230.151 69.0821 237.724 81.3528C225.313 82.0056 211.687 83.0965 197.686 83.4979Z" fill="#003090"/>
<path d="M202.366 192.864C182.489 193.874 181.193 227.385 204.797 226.188C228.401 224.99 226.863 191.618 202.366 192.864ZM211.779 216.898C210.636 216.898 205.28 212.025 204.073 210.979C202.597 212.454 199.173 216.059 197.815 217.023C197.641 217.142 197.431 217.195 197.222 217.171C197.014 217.148 196.82 217.051 196.677 216.897C196.534 216.743 196.451 216.543 196.444 216.333C196.436 216.123 196.504 215.917 196.635 215.753C198.476 213.58 200.433 211.509 202.5 209.548C200.871 208.109 197.474 205.283 196.464 203.683C195.957 202.887 197.046 202.19 197.724 202.566C199.92 204.266 202.027 206.077 204.038 207.992C205.021 207 209.617 202.11 210.689 201.555C211.467 201.152 212.262 202.19 211.914 202.896C211.44 203.836 206.55 208.484 205.655 209.415C207.813 211.043 209.881 212.786 211.852 214.636C212.656 215.554 213.55 216.895 211.779 216.895V216.898Z" fill="#003090"/>
<path d="M233.093 95.034C213.216 96.0437 211.919 129.555 235.524 128.358C259.128 127.16 257.59 93.7882 233.093 95.034ZM242.506 119.068C241.363 119.068 236.006 114.195 234.8 113.149C233.324 114.624 229.9 118.229 228.541 119.193C228.368 119.312 228.158 119.364 227.949 119.341C227.74 119.318 227.547 119.221 227.404 119.067C227.261 118.913 227.178 118.713 227.17 118.503C227.162 118.293 227.23 118.087 227.361 117.923C229.202 115.75 231.16 113.678 233.226 111.718C231.598 110.279 228.201 107.453 227.191 105.853C226.683 105.057 227.773 104.36 228.451 104.736C230.646 106.436 232.754 108.247 234.764 110.162C235.747 109.17 240.343 104.28 241.415 103.725C242.194 103.322 242.989 104.36 242.641 105.066C242.167 106.006 237.276 110.654 236.382 111.585C238.54 113.213 240.608 114.956 242.578 116.806C243.382 117.724 244.276 119.065 242.506 119.065V119.068Z" fill="#003090"/>
<path d="M156.612 37.7185C156.952 45.3639 159.66 51.926 169.826 52.5255C171.908 52.7021 174.003 52.4396 175.977 51.7548C177.951 51.0701 179.758 49.9784 181.283 48.5506C182.808 47.1227 184.016 45.3905 184.829 43.4661C185.641 41.5417 186.041 39.4681 186.001 37.3794C185.92 29.6007 182.024 23.2824 171.696 22.8773C161.8 22.4912 156.231 29.1448 156.612 37.7185ZM176.344 44.2184L171.325 38.9708C169.223 40.9024 167.185 42.9141 165.013 44.7734C164.829 44.8915 164.61 44.9424 164.393 44.9175C164.175 44.8926 163.973 44.7934 163.821 44.6367C163.668 44.48 163.575 44.2754 163.556 44.0575C163.537 43.8397 163.593 43.6219 163.716 43.4412C164.699 42.1623 168.437 38.7206 169.849 37.3706C168.96 36.4041 164.834 32.3807 164.485 31.2009C164.423 30.9952 164.485 28.8311 167.279 31.6213C168.676 33.0183 170.041 34.4559 171.427 35.8681C172.785 34.4574 174.215 33.1175 175.71 31.8537C177.006 30.8707 178.224 32.4176 176.773 33.8209C175.503 35.0452 174.226 36.2441 172.947 37.4506L177.99 42.6906C178.195 42.9095 178.305 43.201 178.295 43.5008C178.285 43.8007 178.157 44.0844 177.938 44.2895C177.719 44.4946 177.428 44.6044 177.128 44.5946C176.828 44.5849 176.544 44.4564 176.339 44.2374L176.344 44.2184Z" fill="#003090"/>
<path d="M66.3259 63.7203C65.9855 56.085 61.4085 48.9883 49.2038 48.9883C39.887 48.9883 34.4718 55.4259 34.8985 64.6347C35.3252 73.8435 41.5025 78.8866 50.2324 79.307C52.3487 79.4903 54.4796 79.2171 56.481 78.5058C58.4825 77.7944 60.3079 76.6615 61.8337 75.1838C63.3595 73.706 64.5502 71.9178 65.3252 69.9401C66.1002 67.9623 66.4415 65.8413 66.3259 63.7203ZM58.7059 59.133C56.5647 61.1409 54.4768 63.2097 52.3559 65.2494C53.6081 66.706 54.7613 68.2618 56.1113 69.6296C58.5344 72.115 56.5939 73.6707 55.5576 72.4464L50.7468 66.7772C48.9743 68.5923 47.087 70.2916 45.0966 71.8648C44.4082 72.3296 43.4773 71.3466 43.9612 70.685C45.6352 68.7244 47.4267 66.8672 49.3257 65.1236C48.0023 63.5501 43.9612 58.9273 43.1205 57.5036C42.521 56.466 43.9155 55.8044 44.586 56.4483C46.7857 58.5768 48.8964 61.2412 50.9081 63.6009C52.982 61.5892 55.0381 59.5369 57.1667 57.5747C58.9764 55.8971 59.5289 58.3634 58.7084 59.1343L58.7059 59.133Z" fill="#003090"/>
<path d="M80.301 108.781C71.2446 108.781 67.0778 115.558 68.0163 124.231C68.9548 132.904 73.3808 135.855 81.2764 135.855C89.1719 135.855 94.1034 131.438 94.017 123.337C93.9306 115.235 88.429 108.781 80.301 108.781ZM85.508 127.933C84.619 127.665 81.9317 123.927 80.9741 122.863C79.1859 124.445 77.4879 126.074 75.6731 127.592C74.8679 128.263 73.6411 127.021 74.3942 126.26C76.0452 124.553 77.8232 122.958 79.5441 121.316C78.2539 120.12 77.0829 118.802 76.0478 117.379C75.9589 117.138 76.0478 115.135 78.57 117.379C79.459 118.174 80.2591 119.042 81.11 119.865L83.8633 117.316C84.6418 116.601 86.6573 115.527 86.4211 117.316C86.3132 118.205 83.6132 120.418 82.5311 121.42C83.2741 122.261 86.5951 125.891 86.5545 127.035C86.558 127.167 86.5319 127.299 86.4782 127.419C86.4244 127.54 86.3444 127.648 86.2439 127.734C86.1434 127.82 86.0249 127.882 85.8972 127.917C85.7694 127.951 85.6356 127.957 85.5054 127.933H85.508Z" fill="#003090"/>
<path d="M121.464 119.968C118.594 119.968 115.205 119.691 113.676 122.65C113.319 123.321 114.409 123.849 114.819 123.259C116.313 121.149 120.515 121.676 122.965 121.676C126.082 121.771 129.201 121.686 132.308 121.422C132.446 121.397 132.571 121.323 132.66 121.216C132.75 121.108 132.799 120.972 132.799 120.832C132.799 120.692 132.75 120.556 132.66 120.448C132.571 120.34 132.446 120.267 132.308 120.241C131.492 119.827 122.387 119.968 121.464 119.968ZM115.285 115.132C115.384 115.015 115.522 114.937 115.673 114.914C115.825 114.89 115.98 114.922 116.109 115.004C116.239 115.086 116.335 115.212 116.379 115.358C116.423 115.505 116.413 115.663 116.35 115.803C115.667 117.355 114.809 118.825 113.793 120.183C111.308 124.064 108.044 128.776 104.583 131.681C104.029 132.146 103.277 131.279 103.744 130.792C105.932 128.404 107.983 125.892 109.885 123.27C111.146 121.462 114.762 115.523 115.285 115.132ZM117.968 132.638C116.385 132.029 117.315 135.267 112.058 138.199C111.919 138.282 111.815 138.413 111.765 138.567C111.714 138.721 111.722 138.888 111.785 139.037C111.848 139.186 111.963 139.308 112.108 139.379C112.254 139.45 112.42 139.466 112.576 139.425C113.897 138.891 115.096 138.096 116.102 137.088C117.108 136.08 117.901 134.88 118.432 133.558C118.472 133.379 118.447 133.192 118.362 133.029C118.277 132.866 118.137 132.739 117.968 132.669V132.638ZM128.643 128.015C128.796 128.82 129.278 130.966 128.153 130.975C127.204 130.975 127.329 129.365 127.264 128.829C127.233 127.912 126.938 127.024 126.415 126.27C125.892 125.517 125.162 124.931 124.314 124.582C122.496 124.077 120.592 123.961 118.726 124.242C118.587 124.241 118.453 124.19 118.349 124.098C118.245 124.006 118.178 123.879 118.16 123.741C118.143 123.604 118.176 123.464 118.254 123.349C118.331 123.234 118.448 123.151 118.582 123.115C120.776 122.509 123.105 122.603 125.243 123.384C126.142 123.828 126.922 124.479 127.518 125.285C128.115 126.09 128.51 127.026 128.672 128.015H128.643ZM125.622 128.024C126.173 129.199 126.307 130.526 126.003 131.788C125.726 133.576 124.752 133.237 124.591 132.879C124.046 131.628 125.279 130.993 124.17 128.632C122.99 126.111 120.741 126.496 118.359 126.585C118.207 126.582 118.062 126.525 117.948 126.425C117.835 126.324 117.762 126.186 117.741 126.036C117.721 125.886 117.754 125.733 117.836 125.606C117.918 125.479 118.043 125.385 118.188 125.342C121.311 124.68 124.157 124.921 125.622 128.024ZM122.828 131.064C121.88 127.926 121.245 128.524 117.463 128.668C117.288 128.668 117.12 128.737 116.995 128.861C116.871 128.986 116.802 129.154 116.802 129.329C116.802 129.505 116.871 129.673 116.995 129.797C117.12 129.921 117.288 129.991 117.463 129.991C118.556 129.869 119.66 129.897 120.745 130.072C121.21 130.206 121.71 132.593 121.424 133.649C121.215 134.206 120.86 134.697 120.396 135.07C119.38 136.086 122.047 136.805 122.945 134.282C123.251 133.225 123.212 132.097 122.832 131.064H122.828Z" fill="#191919"/>
<path d="M125.328 134.208C124.439 134.081 124.439 135.549 124.21 136.89C124.083 137.713 123.79 138.777 124.21 139.225C125.099 140.114 125.533 138.49 125.702 136.939C125.784 136.268 126.231 134.353 125.291 134.256L125.328 134.208ZM138.104 139.501C137.977 137.32 137.871 119.491 139.23 119.214C140.393 118.897 141.412 118.192 142.119 117.217C142.826 116.241 143.179 115.053 143.119 113.85C143.209 109.46 140.616 110.712 140.133 111.615C138.962 113.797 135.942 105.66 135.942 101.118C127.296 99.5942 116.407 98.0422 112.701 88.8334C110.778 84.0671 122.062 81.484 138.952 95.36C149.261 90.6127 146.105 100.724 142.421 109.317C145.935 110.3 145.729 119.062 140.203 120.797C139.506 127.467 139.632 133.207 139.426 139.43C139.426 140.467 138.138 140.628 138.085 139.546L138.104 139.501ZM119.47 98.963C118.175 102.066 116.861 113.993 117.075 117.623C117.075 118.231 118.111 118.32 118.156 117.694C118.479 112.643 119.444 103.851 120.838 99.2309C121.035 98.5604 119.775 98.3419 119.516 98.963H119.47ZM135.099 124.998C134.21 124.279 133.875 125.534 132.292 126.649C131.112 127.472 129.61 127.839 129.879 128.607C130.26 129.581 131.864 128.786 133.259 127.767C133.812 127.378 136.114 125.817 135.099 124.999V124.998Z" fill="#191919"/>
<path d="M142.293 139.868C138.506 142.601 134.124 144.396 129.508 145.108C126.577 145.547 126.496 144.894 124.912 142.586C124.36 141.764 123.822 140.924 123.261 140.092C123.179 139.944 123.042 139.834 122.879 139.787C122.716 139.741 122.541 139.76 122.393 139.842C122.245 139.924 122.135 140.062 122.089 140.225C122.042 140.387 122.062 140.562 122.144 140.71C122.906 142.455 123.899 144.091 125.094 145.573C123.472 147.091 121.976 148.738 120.623 150.5C119.489 148.082 118.687 145.523 118.237 142.891L119.761 142.291C119.942 142.228 120.091 142.094 120.174 141.921C120.257 141.747 120.268 141.548 120.204 141.366C120.14 141.185 120.006 141.036 119.833 140.953C119.659 140.87 119.46 140.86 119.278 140.924C116.82 141.692 114.37 142.713 111.956 143.607C112.845 140.686 112.645 140.406 111.205 139.609C105.841 136.659 103.552 134.791 101.272 131.563C100.772 130.865 100.011 131.893 100.449 132.591C102.881 136.462 105.617 138.93 110.928 141.469C110.258 143.544 109.596 145.63 108.943 147.727C103.784 146.396 101.468 145.153 97.8027 141.041C97.7011 140.921 97.5584 140.845 97.403 140.825C97.2475 140.806 97.0904 140.846 96.9629 140.937C96.8353 141.028 96.7464 141.163 96.7138 141.316C96.6812 141.47 96.7072 141.629 96.7867 141.764C98.1201 143.734 99.8365 145.415 101.834 146.707C103.831 147.999 106.068 148.875 108.411 149.284C105.3 159.199 101.777 169.41 99.2022 179.415C99.0397 180.058 100.091 180.431 100.32 179.796C104.432 168.747 107.874 156.665 111.388 145.337C113.274 144.856 115.111 144.204 116.878 143.389C117.066 146.034 117.765 148.618 118.934 150.997C120.545 154.315 121.446 150.774 126.087 146.758C126.976 148.189 130.278 154.421 131.721 154.626C135.15 155.101 144.39 147.278 146.707 144.523C151.279 147.205 161.013 152.731 163.928 157.237C168.81 164.748 175.845 221.773 154.254 221.693C139.268 221.631 123.783 212.904 110.487 206.851C110.909 201.646 112.291 196.565 114.564 191.865C114.896 191.103 113.938 190.792 113.509 191.444C110.846 195.954 109.379 201.068 109.244 206.303C106.955 205.283 104.612 204.387 102.226 203.621C102.53 198.729 104.908 190.361 107.433 187.705C122.093 189.896 136.505 193.507 150.466 198.489C151.065 198.704 151.414 197.647 150.887 197.327C148.823 196.303 146.668 195.473 144.45 194.849C143.861 185.728 144.395 176.569 146.04 167.578C146.06 167.508 146.065 167.434 146.057 167.362C146.048 167.289 146.025 167.219 145.99 167.155C145.954 167.091 145.906 167.035 145.849 166.99C145.791 166.945 145.725 166.911 145.655 166.891C145.585 166.872 145.511 166.866 145.438 166.874C145.366 166.883 145.296 166.906 145.232 166.942C145.168 166.977 145.112 167.025 145.067 167.083C145.021 167.14 144.988 167.206 144.968 167.276C143.1 171.848 142.85 188.904 143.297 194.466C139.416 193.187 108.783 185.087 106.638 186.592C103.812 188.541 100.796 198.098 100.898 203.579C100.898 204.76 101.675 204.876 102.597 205.261C114.845 210.384 138.316 222.981 153.56 223.411C153.793 225.583 154.017 230.501 154.221 232.102C154.32 232.879 155.447 232.62 155.41 231.848C155.303 229.308 155.473 225.831 155.205 223.409C176.45 222.71 171.121 166.883 165.934 157.352C162.287 150.656 147.883 143.583 147.535 143.255C147.187 142.928 143.064 139.357 142.295 139.91L142.293 139.868ZM98.5723 133.029C99.1095 132.215 100.03 133.029 99.521 133.918C93.0745 144.03 71.9023 178.445 78.0186 190.515C79.1352 192.577 80.8302 194.268 82.8952 195.38C84.9602 196.492 87.3052 196.976 89.6417 196.773C89.8156 196.766 89.9858 196.825 90.1171 196.939C90.2484 197.053 90.3307 197.214 90.347 197.387C90.3634 197.56 90.3124 197.733 90.2047 197.87C90.0971 198.007 89.941 198.097 89.7687 198.122C87.0636 198.56 84.2895 198.102 81.8686 196.818C79.4477 195.535 77.5125 193.495 76.3575 191.01C70.0278 177.965 91.5568 143.694 98.6206 133.028L98.5723 133.029ZM95.3757 204.834C95.3657 204.703 95.3106 204.58 95.2198 204.486C95.129 204.392 95.0082 204.332 94.8782 204.317C94.7481 204.302 94.6169 204.333 94.507 204.404C94.3971 204.475 94.3154 204.582 94.2759 204.707C93.1494 208.517 93.5965 221.09 94.9287 224.833C95.1611 225.468 96.2076 225.377 96.1263 224.662C95.3692 218.082 95.1183 211.453 95.3757 204.834ZM119.379 218.245C119.584 218.648 119.252 221.706 119.709 227.017C119.762 227.669 118.82 227.705 118.609 227.114C118.27 225.935 117.564 219.435 118.341 218.173C118.4 218.086 118.479 218.017 118.572 217.97C118.665 217.923 118.769 217.901 118.873 217.906C118.977 217.91 119.078 217.941 119.166 217.996C119.255 218.051 119.328 218.127 119.379 218.218V218.245ZM124.046 151.502C124.206 150.875 125.378 150.785 125.27 151.502C123.688 163.034 122.883 175.149 121.829 185.727C121.747 186.504 120.603 186.3 120.639 185.539C120.952 179.477 122.517 157.537 124.046 151.475V151.502ZM145.459 143.455C140.264 148.64 137.34 150.856 132.251 153.155C130.9 151.09 129.569 149.016 128.209 146.96C132.679 146.96 139.289 144.009 142.829 141.523L145.459 143.455Z" fill="#191919"/>
<path d="M125.638 116.857C124.918 116.841 124.205 116.705 123.529 116.456C124.199 115.123 124.879 113.773 125.549 112.45C125.588 112.335 125.586 112.211 125.546 112.097C125.506 111.982 125.429 111.885 125.327 111.819C125.225 111.754 125.104 111.724 124.984 111.734C124.863 111.745 124.749 111.795 124.66 111.877C123.873 113.401 123.096 114.925 122.291 116.437C121.647 117.662 125.044 118.029 125.617 118.047C125.764 118.035 125.902 117.968 126.004 117.86C126.105 117.752 126.162 117.61 126.165 117.462C126.168 117.314 126.115 117.17 126.018 117.058C125.921 116.946 125.785 116.875 125.638 116.857ZM123.85 102.552C118.36 103.822 120.194 105.663 121.168 105.278C122.113 104.888 123.086 104.568 124.079 104.322C125.259 104.068 124.705 102.346 123.838 102.534L123.85 102.552ZM127.427 105.842C127.265 105.952 127.143 106.112 127.08 106.297C127.017 106.482 127.015 106.683 127.076 106.869C127.136 107.055 127.255 107.216 127.415 107.329C127.575 107.441 127.767 107.499 127.962 107.493C129.32 107.191 130.717 107.101 132.103 107.225C133.131 107.315 132.8 105.929 132.103 105.769C131.771 105.762 129.459 104.394 127.427 105.842ZM122.383 109.133C123.265 110.847 121.427 112.879 120.927 111.636C120.318 110.116 121.748 107.895 122.383 109.133ZM130.511 110.625C130.306 109.293 128.196 110.625 128.987 112.968C129.434 114.184 130.892 112.789 130.552 110.616L130.511 110.625Z" fill="#191919"/>
<path d="M99.4634 201.357C97.9394 199.997 95.1619 200.525 93.4004 201.738C92.8467 199.056 92.6676 189.8 95.5594 188.085C96.9907 187.196 98.7967 187.648 100.03 187.495C100.656 187.424 100.996 186.414 100.284 186.164C99.3955 185.864 98.4561 185.745 97.521 185.814C96.5859 185.883 95.6741 186.139 94.8393 186.566C91.164 188.623 90.8604 198.082 91.9183 202.006C91.9407 202.294 92.0434 202.57 92.2148 202.802C92.3863 203.034 92.6195 203.213 92.8879 203.319C93.1563 203.425 93.4491 203.453 93.7328 203.401C94.0166 203.348 94.2798 203.217 94.4926 203.022C96.2274 201.853 97.5508 202.326 98.963 202.326C99.4101 202.326 99.852 201.718 99.419 201.37L99.4634 201.357ZM104.416 183.126C106.603 185.151 104.846 185.997 103.746 184.762C101.528 182.277 101.385 182.813 98.2023 184.208C97.7641 184.396 95.9671 183.547 99.4634 182.124C101.681 181.221 102.518 181.368 104.416 183.126Z" fill="#191919"/>
<path d="M223.087 144.696C223.186 143.274 230.326 133.073 231.841 133.012C233.356 132.951 241.493 142.632 241.156 143.848C241.005 144.403 237.276 144.814 233.253 145.011C233.507 150.375 234.933 169.58 234.674 172.799C234.559 174.157 223.998 172.531 203.256 172.969C203.417 176.804 203.99 185.262 203.882 188.168C203.894 188.288 203.882 188.409 203.847 188.524C203.811 188.64 203.753 188.747 203.675 188.839C203.597 188.931 203.501 189.006 203.394 189.061C203.286 189.115 203.169 189.147 203.048 189.155C202.928 189.163 202.807 189.146 202.693 189.106C202.58 189.066 202.475 189.004 202.386 188.923C202.297 188.842 202.225 188.743 202.175 188.634C202.124 188.524 202.097 188.405 202.094 188.285C201.127 181.633 199.59 118.402 200.1 112.573C194.521 112.376 172.812 112.716 170.001 111.911C168.839 111.59 168.722 71.1223 168.803 66.5986C140.665 66.1605 112.609 65.5077 84.2655 65.5699C84.329 68.7627 85.2815 93.3829 84.5195 94.8701C84.0267 95.8264 55.0135 94.7354 51.5718 94.7532C51.6658 104.387 51.7611 114.019 51.8576 123.651C53.4578 123.49 63.4146 122.945 64.6617 123.168C65.5507 123.328 65.4834 124.795 64.6617 124.848C60.4047 125.153 56.1312 125.171 51.8754 125.331C51.822 131.769 51.7776 193.461 51.0981 194.176C50.4187 194.891 30.8201 194.239 19.277 194.632C16.4979 197.088 13.5249 199.316 10.387 201.294C9.70757 201.548 9.1983 186.816 9.49802 186.181C9.9095 185.165 17.3479 190.839 19.4586 192.967C24.8765 192.627 44.1627 192.297 49.5894 192.797C49.8129 160.1 50.1075 127.528 49.7862 94.8129L28.7754 95.3057C28.7754 99.945 28.5785 112.364 28.1937 114.197C28.1611 114.349 28.0753 114.485 27.9516 114.579C27.828 114.673 27.6747 114.721 27.5194 114.712C27.3641 114.703 27.2169 114.64 27.1044 114.532C26.9919 114.425 26.9215 114.281 26.9059 114.126C26.6735 112.132 26.9059 99.23 26.9059 95.3501C26.9059 94.0801 27.5409 93.6242 27.9613 93.562C34.0319 93.0616 43.4286 92.9447 49.7773 92.8825C49.7773 89.7443 49.724 86.4627 49.7138 82.9219C49.7138 81.8754 51.2696 82.0329 51.3064 83.0654C51.4334 87.071 51.5211 89.9945 51.6011 92.9003C62.1158 92.8232 72.6301 93.0138 83.1441 93.4718C83.0818 91.0486 82.4379 66.1579 82.5814 64.8612C82.6615 64.164 83.0552 63.8871 83.8514 63.8783C111.657 63.5201 141.073 63.8783 168.888 64.7673C168.85 61.9071 169.011 59.0477 169.371 56.21C169.398 56.0336 169.489 55.8735 169.627 55.7602C169.765 55.647 169.94 55.5887 170.119 55.5964C170.297 55.6041 170.466 55.6773 170.594 55.802C170.722 55.9267 170.799 56.0941 170.811 56.2722C170.973 59.1223 170.973 61.9794 170.811 64.8295C180.502 65.1508 189.051 65.5445 200.316 66.0004C201.504 66.0538 201.639 67.9143 200.443 67.8597L170.689 66.6862C170.492 80.7324 170.537 97.6666 171.647 110.374C174.015 110.204 199.487 110.053 201.365 110.938C202.168 111.319 203.073 166.917 203.153 171.361C206.853 171.029 226.622 171.361 232.908 171.405L231.17 145.111C227.003 145.224 223.057 145.125 223.087 144.696Z" fill="#191919"/>
</svg>
