<svg width="196" height="156" viewBox="0 0 196 156" fill="none" xmlns="http://www.w3.org/2000/svg">
<path d="M185.239 0H148.325C142.632 0 138 4.39775 138 9.8028V28.6318C138 34.0361 142.632 38.4338 148.325 38.4338H156.321C154.669 43.6105 150.698 48.9714 144.2 54.8023C144.133 54.8621 144.089 54.9432 144.076 55.0318C144.062 55.1203 144.08 55.2109 144.125 55.288C144.171 55.3652 144.242 55.424 144.326 55.4546C144.411 55.4852 144.503 55.4856 144.587 55.4558C155.394 51.6581 162.276 46.0873 165.617 38.4338H185.239C190.932 38.4338 195.563 34.0361 195.563 28.6318V9.8028C195.563 4.39775 190.932 0 185.239 0Z" fill="#003090"/>
<path fill-rule="evenodd" clip-rule="evenodd" d="M151.617 12.168V30.3807L160.504 21.2739L151.617 12.168Z" fill="white"/>
<path fill-rule="evenodd" clip-rule="evenodd" d="M174.026 11.6055H152.148L166.716 26.5338L176.549 16.4616C175.815 15.8714 175.211 15.1349 174.777 14.2989C174.342 13.4629 174.087 12.5456 174.026 11.6055Z" fill="white"/>
<path fill-rule="evenodd" clip-rule="evenodd" d="M177.18 16.9219L172.934 21.2732L181.82 30.3799V18.1212C180.184 18.2375 178.554 17.8164 177.18 16.9219Z" fill="white"/>
<path fill-rule="evenodd" clip-rule="evenodd" d="M172.391 21.8281C168.474 25.8434 167.359 27.0156 166.986 27.3493C166.807 27.5104 166.668 27.5336 166.486 27.3787C166.147 27.0915 165.104 25.9851 161.045 21.8281L152.148 30.9442H181.287L172.391 21.8281Z" fill="white"/>
<path fill-rule="evenodd" clip-rule="evenodd" d="M181.301 5.06857C179.623 5.02477 177.996 5.64695 176.776 6.79908C175.556 7.95121 174.841 9.53956 174.789 11.2169C174.885 12.8789 175.613 14.4413 176.823 15.584C178.034 16.7268 179.636 17.3633 181.301 17.3633C182.965 17.3633 184.567 16.7268 185.778 15.584C186.988 14.4413 187.716 12.8789 187.812 11.2169C187.76 9.53956 187.045 7.95121 185.825 6.79908C184.605 5.64695 182.978 5.02477 181.301 5.06857Z" fill="#005FDC"/>
<path d="M181.86 7.62236C179.077 10.6954 179.139 10.5459 179.141 10.8084V11.9047C179.142 11.9959 179.169 12.0848 179.22 12.1607C179.27 12.2366 179.342 12.2962 179.425 12.3323C179.509 12.3684 179.601 12.3794 179.691 12.3639C179.781 12.3485 179.865 12.3073 179.931 12.2454L180.734 11.4952L180.703 14.4923C180.702 14.5543 180.714 14.616 180.737 14.6736C180.76 14.7312 180.794 14.7836 180.838 14.8277C180.881 14.8718 180.933 14.9067 180.991 14.9303C181.048 14.954 181.11 14.9659 181.172 14.9654L182.211 14.9561C182.334 14.9551 182.453 14.9052 182.54 14.8175C182.627 14.7298 182.675 14.6112 182.675 14.4877V7.93671C182.675 7.84217 182.647 7.74988 182.593 7.67195C182.54 7.59403 182.464 7.53412 182.376 7.50011C182.287 7.4661 182.191 7.45958 182.099 7.4814C182.007 7.50322 181.924 7.55236 181.86 7.62236Z" fill="white"/>
<path d="M77.0531 91.7826C75.746 91.0415 74.5317 90.1475 73.4359 89.1195C73.3643 89.052 73.2748 89.0067 73.1781 88.9889C73.0814 88.9711 72.9816 88.9816 72.8907 89.0191C71.7046 89.5153 70.2061 89.8377 69.0981 90.5644C68.9937 90.6305 68.9152 90.7304 68.8756 90.8475C68.836 90.9646 68.8378 91.0916 68.8806 91.2076C69.3823 92.7205 69.7683 94.2694 70.0353 95.8409C69.3347 98.658 62.4999 120.191 60.5987 133.349C59.9861 137.515 63.4778 141.047 65.0015 144.795C65.0455 144.901 65.1146 144.994 65.2027 145.066C65.2909 145.138 65.3954 145.188 65.5072 145.211C65.6191 145.233 65.7347 145.228 65.8441 145.196C65.9535 145.164 66.0533 145.105 66.1348 145.025C69.075 141.975 71.7916 138.717 74.2636 135.276C74.3504 135.153 74.3962 135.006 74.3945 134.856C74.2468 122.994 74.7161 108.324 73.3486 96.177C73.4252 96.1097 76.5822 93.2903 77.2935 92.605C77.3704 92.5504 77.4283 92.4732 77.4593 92.3842C77.4902 92.2951 77.4926 92.1987 77.4662 92.1082C77.4397 92.0177 77.3857 91.9377 77.3117 91.8794C77.2377 91.821 77.1473 91.7872 77.0531 91.7826Z" fill="#003090"/>
<path d="M38.1093 20.3556C39.2403 16.1978 43.4234 13.9045 46.6746 15.5722C47.1759 15.8029 47.6048 16.1659 47.9152 16.6222C48.2255 17.0785 48.4055 17.6108 48.4358 18.1619C48.4382 18.8868 48.2881 19.6041 47.9953 20.2673C47.7024 20.9305 47.2733 21.5246 46.7359 22.0111C43.4173 25.5387 39.1293 26.7976 38.5228 32.7166C38.4112 35.0921 38.6313 37.4716 39.1767 39.7864C39.1918 39.9209 39.2333 40.0512 39.2987 40.1697C39.3641 40.2882 39.4522 40.3927 39.558 40.4772C39.6638 40.5617 39.7852 40.6245 39.9153 40.662C40.0454 40.6996 40.1816 40.7111 40.3161 40.6961C40.4507 40.681 40.5809 40.6395 40.6994 40.5741C40.818 40.5087 40.9225 40.4206 41.0069 40.3148C41.0914 40.209 41.1542 40.0876 41.1918 39.9575C41.2293 39.8274 41.2409 39.6912 41.2258 39.5567C41.0994 36.6508 41.0236 31.9884 42.8384 29.7211C44.5995 27.5189 48.0146 25.8083 50.0744 22.9644C52.6495 19.4084 52.0859 14.7529 48.0912 12.7536C46.7642 12.1009 45.2851 11.8203 43.8113 11.9416C42.3375 12.063 40.9242 12.5818 39.7219 13.4428C38.7126 14.234 37.882 15.2297 37.2848 16.3646C36.6875 17.4996 36.337 18.748 36.2563 20.0279C36.2133 20.2736 36.2696 20.5264 36.4129 20.7306C36.5562 20.9348 36.7748 21.0737 37.0205 21.1167C37.2662 21.1598 37.519 21.1035 37.7232 20.9602C37.9274 20.8169 38.0663 20.5983 38.1093 20.3526V20.3556Z" fill="#003090"/>
<path d="M16.922 52.8321C16.4779 49.9285 21.0714 46.2316 23.1113 49.2332C24.1067 50.695 23.4704 51.499 22.6519 52.9646C21.6304 54.7969 21.2621 56.2809 22.0393 58.3062C22.5526 59.4313 23.1409 60.5205 23.8004 61.5666C23.8808 61.7471 24.0295 61.8884 24.214 61.9593C24.3984 62.0301 24.6035 62.0248 24.784 61.9445C24.9645 61.8642 25.1058 61.7154 25.1766 61.531C25.2475 61.3465 25.2422 61.1415 25.1619 60.9609C24.8349 59.9885 24.3617 58.81 24.0501 57.6546C23.501 55.6201 24.073 55.1024 25.0968 53.2632C26.1611 51.3489 26.2308 49.7409 24.9873 47.9346C21.4045 42.7231 13.5736 48.1536 15.6157 53.1935C15.6668 53.3631 15.7822 53.506 15.9372 53.5916C16.0922 53.6773 16.2745 53.6989 16.4453 53.6519C16.6161 53.605 16.7617 53.4931 16.851 53.3402C16.9404 53.1873 16.9664 53.0055 16.9236 52.8336L16.922 52.8321Z" fill="#003090"/>
<path d="M80.471 23.2748C80.3239 24.2335 80.3944 24.2702 79.752 27.647C79.7457 27.7449 79.7199 27.8406 79.676 27.9284C79.6322 28.0162 79.5711 28.0942 79.4966 28.158C79.422 28.2217 79.3354 28.2699 79.2418 28.2996C79.1483 28.3293 79.0498 28.3399 78.9521 28.3308C78.8544 28.3218 78.7595 28.2932 78.673 28.2468C78.5866 28.2004 78.5103 28.1371 78.4487 28.0607C78.3872 27.9843 78.3415 27.8964 78.3146 27.802C78.2876 27.7077 78.2798 27.6089 78.2917 27.5115C78.2125 25.7712 78.2342 24.0278 78.3568 22.2901C78.3805 22.0567 78.4777 21.8369 78.6345 21.6623C78.7913 21.4878 78.9994 21.3676 79.229 21.3192C82.0621 20.7066 83.8746 17.1215 80.4273 15.7708C79.1601 15.2746 78.1547 15.623 77.6378 16.427C77.3213 16.9563 77.1311 17.5514 77.082 18.1662C77.0329 18.7809 77.1261 19.3987 77.3545 19.9715C77.406 20.0475 77.4415 20.1332 77.4587 20.2233C77.476 20.3135 77.4746 20.4062 77.4547 20.4958C77.4348 20.5855 77.3968 20.6701 77.343 20.7445C77.2893 20.8189 77.2209 20.8815 77.142 20.9285C77.0632 20.9755 76.9756 21.006 76.8846 21.0179C76.7936 21.0298 76.7011 21.0231 76.6128 20.998C76.5245 20.9729 76.4422 20.93 76.3711 20.872C76.2999 20.814 76.2414 20.7421 76.199 20.6606C73.519 17.0779 76.2909 11.7562 81.2528 13.6436C86.6702 15.7049 84.9397 21.7449 80.471 23.2748Z" fill="#003090"/>
<path d="M115.412 41.3306C114.641 44.4555 114.526 44.5466 113.385 48.1195C113.357 48.2525 113.303 48.3787 113.227 48.4908C113.15 48.6029 113.052 48.6987 112.938 48.7725C112.823 48.8464 112.696 48.8969 112.562 48.921C112.428 48.9452 112.291 48.9426 112.159 48.9134C112.026 48.8841 111.9 48.8288 111.789 48.7507C111.678 48.6726 111.583 48.5732 111.511 48.4582C111.438 48.3433 111.39 48.2151 111.367 48.0811C111.344 47.9471 111.349 47.81 111.379 47.6777C111.67 44.9695 112.099 42.278 112.665 39.6139C112.729 39.3014 112.89 39.0169 113.125 38.8007C113.36 38.5845 113.656 38.4473 113.973 38.4087C114.833 38.3114 115.685 38.153 116.523 37.9347C120.285 36.8811 121.692 32.9782 119.203 29.6841C117.041 26.8227 113.856 26.7882 111.401 29.1045C111.063 29.41 110.763 29.7553 110.507 30.1328C110.224 30.5453 109.976 30.9808 109.766 31.4346C109.689 31.6694 109.523 31.8647 109.304 31.9788C109.085 32.0928 108.829 32.1165 108.593 32.0448C108.356 31.973 108.157 31.8115 108.039 31.5948C107.92 31.3782 107.89 31.1236 107.957 30.8855C108.189 29.6036 108.719 28.3941 109.504 27.3548C112.839 23.0125 118.408 23.4351 121.731 27.7691C124.521 31.4085 124.822 37.0603 119.465 40.1086C118.206 40.7745 116.829 41.1895 115.412 41.3306Z" fill="#003090"/>
<path d="M126.9 51.8793C128.149 50.7647 129.74 50.1076 131.411 50.0156C134.498 49.8464 136.423 51.9995 135.356 55.5364C134.172 59.4699 129.913 57.5081 127.163 61.8106C126.483 62.8742 126.05 64.1078 125.463 65.1997C125.368 65.3707 125.343 65.5714 125.391 65.7608C125.44 65.9501 125.559 66.1137 125.724 66.2181C125.894 66.319 126.096 66.3493 126.288 66.3023C126.48 66.2553 126.645 66.1349 126.749 65.9669C127.425 65.0083 128.057 63.947 128.816 63.0052C130.05 61.4821 131.026 61.1896 132.957 60.5273C135.287 59.7279 136.76 58.7845 137.534 56.1903C140.044 47.7674 130.282 45.03 125.895 50.9727C125.779 51.1081 125.719 51.2826 125.727 51.4607C125.735 51.6388 125.811 51.8072 125.939 51.9314C126.005 51.992 126.082 52.0388 126.167 52.0691C126.251 52.0993 126.341 52.1124 126.43 52.1076C126.52 52.1027 126.608 52.08 126.688 52.0408C126.769 52.0017 126.841 51.9467 126.9 51.8793Z" fill="#003090"/>
<path d="M71.447 79.0256C70.5224 78.3813 69.7436 77.5499 69.161 76.5852C68.5785 75.6205 68.2053 74.5442 68.0656 73.426C67.5365 70.1763 68.3183 66.6708 68.94 63.634C69.2225 62.2201 69.6223 60.8321 70.1353 59.4846C70.1695 59.3847 70.2409 59.3018 70.3346 59.2531C70.4284 59.2045 70.5372 59.1939 70.6386 59.2235C70.74 59.2531 70.8261 59.3206 70.8789 59.412C70.9318 59.5034 70.9474 59.6117 70.9225 59.7143C70.6981 60.6477 70.473 62.624 70.2226 63.8852C69.1414 69.3141 68.0281 74.9061 72.3505 78.1152C72.8727 78.4475 72.6208 79.3962 72.5251 81.6329C72.5298 81.6913 72.5228 81.75 72.5044 81.8056C72.486 81.8612 72.4566 81.9126 72.418 81.9567C72.3794 82.0007 72.3324 82.0366 72.2796 82.0622C72.2269 82.0877 72.1696 82.1025 72.1111 82.1055C72.0526 82.1085 71.9941 82.0998 71.939 82.0798C71.884 82.0598 71.8335 82.029 71.7905 81.9891C71.7476 81.9492 71.7131 81.9012 71.6891 81.8478C71.6651 81.7943 71.652 81.7366 71.6507 81.6781C71.5634 81.0303 71.5343 79.6681 71.447 79.0256ZM71.5925 79.1183C71.6216 79.1366 71.6216 79.1497 71.6507 79.1581L71.5925 79.1183ZM71.447 79.0126V78.9751C71.447 78.9169 71.447 78.8327 71.4179 78.8403C71.3007 78.8641 71.3597 78.9406 71.447 79.0126Z" fill="#191919"/>
<path d="M73.076 71.0953C73.0488 71.4752 73.1189 71.8557 73.2797 72.201C73.375 72.3856 73.4925 72.5579 73.6296 72.714C75.1144 74.5563 78.4697 73.3151 79.168 71.0348C79.2217 70.9306 79.2335 70.8099 79.201 70.6973C79.1686 70.5847 79.0943 70.4888 78.9935 70.4291C78.9411 70.4009 78.8837 70.3833 78.8245 70.3773C78.7653 70.3713 78.7056 70.3771 78.6486 70.3943C78.5917 70.4115 78.5387 70.4399 78.4928 70.4776C78.4468 70.5154 78.4088 70.5619 78.3809 70.6144C78.1642 70.8527 77.9198 71.064 77.6527 71.2439C77.1397 71.7438 76.4906 72.0812 75.7867 72.214C75.5062 72.2458 75.2223 72.2003 74.9659 72.0823C74.7094 71.9644 74.4901 71.7785 74.3318 71.5448C74.2312 71.4457 74.1433 71.3346 74.0699 71.214C74.0117 71.1213 73.9535 71.0448 73.8946 70.9445C73.8855 70.8924 73.8663 70.8426 73.8379 70.798C73.8095 70.7534 73.7726 70.7149 73.7292 70.6846C73.6859 70.6544 73.6369 70.633 73.5853 70.6217C73.5336 70.6105 73.4803 70.6096 73.4283 70.619C73.3195 70.6377 73.2221 70.6977 73.1564 70.7864C73.0908 70.8752 73.062 70.9858 73.076 71.0953Z" fill="#191919"/>
<path d="M75.3524 62.4793C75.2292 63.0055 75.1417 63.5394 75.0905 64.0773C74.9362 65.0031 74.8291 65.9362 74.7697 66.8729C74.7697 67.6165 74.6931 68.5139 75.2069 68.5897C75.6663 68.6517 75.9489 67.6609 76.0231 67.2328C76.2115 66.5307 76.4826 63.9571 76.6058 63.0214C76.674 62.5107 76.7927 61.2304 76.2559 61.1331C75.7995 61.0359 75.5492 61.8284 75.3524 62.4793Z" fill="#191919"/>
<path d="M72.661 59.6875C72.849 59.4094 73.1118 59.1902 73.4191 59.055C74.1481 58.8322 74.4436 60.0504 75.0516 59.7985C75.5493 59.601 75.2047 58.6499 75.0516 58.4202C74.2231 56.9654 72.0224 57.7188 71.5538 59.0519C71.4374 59.3667 71.2828 60.2426 71.7575 60.3613C72.0431 60.4455 72.6082 59.7641 72.661 59.6875Z" fill="#191919"/>
<path d="M79.9506 59.4118C80.2554 59.1778 80.6179 59.0307 80.9996 58.986C81.1673 58.979 81.3345 59.0076 81.4903 59.0701C81.646 59.1325 81.7868 59.2273 81.9032 59.3482C82.5632 59.8988 82.5739 60.0986 82.9238 59.9669C83.4269 59.7785 83.1237 58.8773 82.9238 58.5365C82.7099 58.2152 82.412 57.9585 82.0626 57.7944C81.7131 57.6303 81.3254 57.5649 80.9414 57.6054C80.229 57.6371 79.5583 57.9499 79.0761 58.4753C78.8916 58.6928 78.4528 59.5588 78.8464 59.8298C79.1228 59.9929 79.8717 59.4715 79.9506 59.4118Z" fill="#191919"/>
<path d="M3.87053 81.6717C4.72813 84.8961 8.57201 86.6373 11.7574 87.5677C14.3608 88.3334 16.3226 87.6067 16.5959 90.103C16.5989 90.1616 16.6135 90.2191 16.6387 90.2722C16.664 90.3252 16.6994 90.3728 16.743 90.4122C16.7867 90.4515 16.8376 90.4819 16.893 90.5016C16.9483 90.5212 17.007 90.5298 17.0657 90.5268C17.1244 90.5238 17.1819 90.5092 17.2349 90.484C17.288 90.4587 17.3355 90.4233 17.3749 90.3797C17.4143 90.3361 17.4446 90.2851 17.4643 90.2297C17.484 90.1744 17.4925 90.1157 17.4895 90.057C17.5356 89.6273 17.4936 89.1927 17.3661 88.7797C17.2387 88.3667 17.0285 87.984 16.7483 87.655C15.8118 86.5968 13.8302 86.7468 12.154 86.2514C9.29791 85.4038 6.12249 83.9114 4.61327 81.3432C4.59189 81.2931 4.56073 81.2477 4.52162 81.2097C4.48251 81.1717 4.43623 81.1419 4.38548 81.122C4.33472 81.1022 4.28052 81.0926 4.22602 81.0939C4.17153 81.0952 4.11783 81.1073 4.06808 81.1296C4.01839 81.1509 3.97359 81.1821 3.93643 81.2214C3.89928 81.2606 3.87056 81.3071 3.85205 81.3579C3.83354 81.4087 3.82563 81.4627 3.82881 81.5167C3.83199 81.5707 3.84618 81.6234 3.87053 81.6717Z" fill="#191919"/>
<path d="M8.11862 80.7808C9.29355 82.2494 10.8676 83.3476 12.6517 83.9432C13.1693 84.0787 14.278 84.2908 14.3737 83.7648C14.5636 83.068 12.8668 82.8819 10.9518 81.5587C10.2861 81.0832 9.66605 80.5469 9.0995 79.9569C9.03212 79.8803 8.11786 78.8764 7.72658 79.1146C7.30237 79.4124 7.95782 80.5273 8.11862 80.7808Z" fill="#191919"/>
<path d="M13.0446 78.6581C13.9977 79.8455 15.2141 80.7948 16.5976 81.4307C16.9804 81.567 17.9889 81.8434 18.1665 81.3718C18.2569 81.054 18.1665 80.9238 17.1856 80.2707C16.6274 79.8985 16.0309 79.5777 15.508 79.1596C14.3065 78.2055 13.2108 76.7936 12.6962 77.1894C12.3019 77.4896 12.9198 78.4957 13.0446 78.6581Z" fill="#191919"/>
<path d="M18.6662 78.7275C19.6892 79.5492 20.8677 80.1556 22.1311 80.5101C22.4136 80.5545 23.4389 80.6571 23.5262 80.1701C23.6893 79.5667 22.3363 79.2903 21.02 78.6057C20.314 78.2382 18.4702 76.8936 18.0337 77.5046C17.7895 77.8515 18.5238 78.6027 18.6662 78.7275Z" fill="#191919"/>
<path d="M24.5975 76.3864C24.9382 77.048 25.8777 78.2302 25.7744 78.5511C25.5446 79.5664 23.4412 80.8337 23.0499 82.3973C22.6755 83.8674 23.7866 84.9593 25.1855 85.5466C25.2872 85.607 25.4086 85.6247 25.5233 85.596C25.638 85.5674 25.7368 85.4946 25.7981 85.3935C25.8557 85.2912 25.8719 85.1707 25.8434 85.0567C25.815 84.9428 25.7439 84.8441 25.645 84.7809C25.0959 84.3337 24.1855 83.4149 24.3593 82.7303C24.635 81.6836 26.7729 80.3903 27.1052 78.8597C27.426 77.3788 25.5669 76.2225 25.2743 75.9002C25.2099 75.8104 25.1124 75.7499 25.0033 75.7321C24.8942 75.7142 24.7825 75.7404 24.6928 75.8048C24.603 75.8693 24.5426 75.9668 24.5247 76.0759C24.5068 76.1849 24.533 76.2966 24.5975 76.3864Z" fill="#191919"/>
<path d="M28.3644 80.8564C28.9311 82.9368 28.889 82.5409 29.062 83.1734C29.6394 85.2876 29.4005 86.6191 29.1049 88.6544C29.0367 89.1246 29.0184 89.6024 28.9311 90.1093C28.8973 90.222 28.9096 90.3435 28.9654 90.4471C29.0212 90.5507 29.1158 90.6279 29.2286 90.6617C29.3413 90.6955 29.4628 90.6832 29.5664 90.6274C29.67 90.5716 29.7472 90.477 29.781 90.3643C30.003 89.9032 30.1993 89.4303 30.3691 88.9477C31.1984 86.3366 30.964 82.7454 29.0835 80.4674C29.0289 80.3718 28.9391 80.3012 28.8334 80.2706C28.7276 80.24 28.614 80.2518 28.5168 80.3035C28.4238 80.3571 28.3557 80.4452 28.3272 80.5487C28.2987 80.6522 28.312 80.7627 28.3644 80.8564Z" fill="#191919"/>
<path d="M121.601 86.6866C124.062 81.8871 130.686 83.6238 135.201 82.1926C135.314 82.1636 135.41 82.0919 135.471 81.9928C135.532 81.8937 135.551 81.7749 135.526 81.6616C135.5 81.5483 135.432 81.4493 135.335 81.3857C135.237 81.322 135.119 81.2986 135.005 81.3205C131.522 81.7853 121.997 80.5862 120.84 86.4163C120.822 86.4666 120.814 86.5199 120.817 86.5731C120.82 86.6264 120.833 86.6785 120.856 86.7266C120.879 86.7747 120.911 86.8178 120.951 86.8535C120.991 86.8891 121.037 86.9166 121.087 86.9343C121.138 86.9521 121.191 86.9597 121.244 86.9569C121.297 86.9541 121.349 86.9408 121.398 86.9178C121.446 86.8948 121.489 86.8625 121.524 86.8229C121.56 86.7832 121.588 86.7369 121.605 86.6866H121.601Z" fill="#191919"/>
<path d="M131.409 84.7866C131.121 85.2017 130.75 85.5527 130.32 85.8173C129.349 86.4122 127.64 86.5064 127.705 87.2032C127.748 87.6933 128.843 87.6918 129.078 87.6787C130.556 87.5891 132.234 86.351 132.524 85.4229C132.7 85.0217 132.854 84.1274 132.415 83.9865C132.07 83.877 131.465 84.7101 131.409 84.7866Z" fill="#191919"/>
<path d="M136.705 85.287C137.722 85.3001 138.731 85.1028 139.669 84.7075C140.606 84.3122 141.452 83.7274 142.153 82.9899C142.502 82.5672 143.191 81.5863 142.742 81.2685C142.402 81.0281 142.221 81.241 141.238 82.0725C139.982 83.2253 138.364 83.9055 136.661 83.9968C135.324 84.1806 135.124 84.2012 135.091 84.5328C135.039 85.0741 136.307 85.2587 136.705 85.287Z" fill="#191919"/>
<path d="M141.215 86.7218C142.36 86.44 143.412 85.8637 144.266 85.0502C144.371 84.9254 145.015 84.1 144.68 83.7646C144.413 83.5012 144.067 83.688 143.503 84.0395C143.338 84.1382 143.178 84.2458 143.024 84.3618C142.337 84.8108 141.607 85.1897 140.844 85.4928C140.768 85.5257 139.867 85.9668 139.951 86.3864C140.073 86.7968 140.95 86.7578 141.215 86.7218Z" fill="#191919"/>
<path d="M142.456 88.9984C143.982 88.5423 145.349 87.6667 146.401 86.4715C146.672 86.1185 147.254 85.2839 146.86 84.9677C146.595 84.7548 146.346 84.8474 145.487 85.5649C144.506 86.5209 143.342 87.2696 142.065 87.7663C141.101 88.2327 140.9 88.3276 140.933 88.6599C141.027 89.1576 142.107 89.0635 142.456 88.9984Z" fill="#191919"/>
<path d="M134.656 93.5485C135.202 93.3885 137.739 92.9475 137.816 92.936C140.533 92.4765 143.248 92.2468 145.531 91.1878C147.107 90.5137 148.412 89.3303 149.236 87.8271C149.304 87.7288 149.33 87.6076 149.309 87.4902C149.287 87.3727 149.22 87.2686 149.122 87.2008C149.023 87.1329 148.902 87.1069 148.785 87.1285C148.667 87.15 148.563 87.2173 148.495 87.3156C145.432 90.939 141.242 90.8425 137.576 91.622C136.446 91.8372 135.357 92.2314 134.351 92.7897C134.299 92.8085 134.252 92.8374 134.212 92.8747C134.172 92.912 134.14 92.957 134.118 93.007C134.095 93.057 134.083 93.111 134.082 93.1657C134.081 93.2205 134.091 93.2749 134.111 93.3257C134.155 93.4266 134.236 93.5063 134.338 93.5479C134.44 93.5896 134.554 93.5898 134.656 93.5485Z" fill="#191919"/>
<path d="M72.7706 64.8024C72.9033 64.8292 73.0431 64.8146 73.1819 64.7593C73.3208 64.7041 73.4559 64.6094 73.5796 64.4805C73.7034 64.3516 73.8133 64.1912 73.9031 64.0083C73.993 63.8254 74.0609 63.6237 74.1032 63.4147C74.1454 63.2056 74.1611 62.9933 74.1493 62.7899C74.1375 62.5865 74.0985 62.396 74.0345 62.2292C73.9704 62.0624 73.8827 61.9226 73.7762 61.8178C73.6697 61.7131 73.5465 61.6453 73.4138 61.6185C73.281 61.5917 73.1412 61.6063 73.0024 61.6615C72.8636 61.7168 72.7284 61.8115 72.6047 61.9404C72.4809 62.0692 72.371 62.2297 72.2812 62.4126C72.1914 62.5954 72.1234 62.7972 72.0812 63.0062C72.0389 63.2153 72.0233 63.4276 72.0351 63.631C72.0468 63.8344 72.0859 64.0249 72.1499 64.1917C72.2139 64.3585 72.3017 64.4982 72.4082 64.603C72.5147 64.7078 72.6378 64.7755 72.7706 64.8024Z" fill="#191919"/>
<path d="M80.4535 64.7185C80.7381 64.7746 81.0439 64.6615 81.3037 64.404C81.5635 64.1465 81.756 63.7657 81.8389 63.3454C81.9218 62.9251 81.8882 62.4998 81.7456 62.1629C81.6029 61.8261 81.3629 61.6053 81.0784 61.5492C80.9375 61.5214 80.7899 61.5349 80.644 61.5889C80.4981 61.6429 80.3568 61.7363 80.2282 61.8638C80.0995 61.9913 79.986 62.1504 79.8942 62.332C79.8024 62.5136 79.734 62.7142 79.693 62.9223C79.652 63.1304 79.6391 63.3419 79.6551 63.5448C79.6711 63.7477 79.7157 63.938 79.7863 64.1048C79.857 64.2716 79.9522 64.4116 80.0667 64.5169C80.1812 64.6222 80.3126 64.6907 80.4535 64.7185Z" fill="#191919"/>
<path d="M90.4537 63.9019C91.2738 61.7288 91.244 59.8735 89.6115 58.1989C89.5402 52.5969 84.1075 49.6229 80.05 46.2354C78.1357 44.5967 76.3432 41.9765 74.0452 40.9022C72.8155 40.3264 71.3591 40.1479 70.4303 41.1457C69.9749 41.6905 69.7089 42.3685 69.6723 43.0776C69.0392 42.4271 68.2446 41.9566 67.3698 41.7146C64.2977 40.9359 63.0519 43.279 63.7257 46.4819C63.6595 46.4459 63.5915 46.4132 63.522 46.3839C62.0434 45.7767 61.2096 46.3502 61.0151 47.2086C60.7609 48.067 61.2555 49.6114 61.6277 50.407C63.0971 53.5502 65.7748 56.2938 68.3614 58.6063C68.4643 58.7002 68.5935 58.7603 68.7316 58.7786C68.8697 58.7969 69.0101 58.7725 69.134 58.7086C69.2578 58.6447 69.3591 58.5445 69.4242 58.4213C69.4894 58.2982 69.5153 58.158 69.4984 58.0197C69.3989 56.6139 69.4112 56.8865 69.4112 56.6782C70.4124 57.1731 71.4565 57.576 72.5307 57.8819C72.6431 57.9135 72.762 57.9148 72.8751 57.8854C72.9882 57.8561 73.0915 57.7973 73.1744 57.715C73.2573 57.6327 73.3169 57.5299 73.3471 57.417C73.3773 57.3041 73.377 57.1852 73.3462 57.0725C73.2175 56.5036 73.1164 55.924 72.9962 55.3374C74.3102 55.95 75.2413 56.4041 76.6985 56.9615C76.8181 57.0075 76.9487 57.0174 77.0739 56.9901C77.1992 56.9627 77.3137 56.8992 77.4033 56.8075C77.4929 56.7158 77.5536 56.5999 77.5781 56.474C77.6025 56.3481 77.5895 56.2179 77.5407 56.0993C77.4243 55.7471 77.311 55.3979 77.1916 55.0434C79.699 55.8518 82.076 57.0194 84.2484 58.5098C84.2293 58.545 84.2093 58.5818 84.1871 58.6193C83.8301 59.4552 83.7387 60.3806 83.9253 61.2702C84.1236 62.5558 84.9973 64.1653 85.2078 64.1845C86.4743 64.3729 87.9843 64.5819 88.6765 65.3484C88.8459 65.5139 88.9657 65.7235 89.0224 65.9535C89.0791 66.1835 89.0704 66.4248 88.9974 66.6501C88.5195 68.3071 86.2094 68.278 84.508 68.0146C84.3413 67.9892 84.1711 68.0271 84.0308 68.1207C83.8906 68.2144 83.7904 68.357 83.7499 68.5207C82.8585 71.4425 81.5947 74.2374 79.9895 76.8364C78.5048 79.3487 78.8524 76.8509 78.8524 82.5073C78.8475 82.5651 78.8542 82.6233 78.8722 82.6785C78.8902 82.7337 78.9191 82.7847 78.9572 82.8285C78.9952 82.8724 79.0417 82.9081 79.0938 82.9337C79.1459 82.9593 79.2026 82.9741 79.2605 82.9774C79.3195 82.9828 79.3789 82.9759 79.435 82.9572C79.4911 82.9384 79.5427 82.9082 79.5865 82.8685C79.6304 82.8288 79.6655 82.7804 79.6896 82.7263C79.7138 82.6723 79.7265 82.6139 79.7269 82.5547C79.9313 80.5394 79.9895 79.4789 80.0768 78.9651V78.9076C81.2476 77.73 83.7966 73.2414 84.9161 69.4564C85.5644 69.5333 86.2189 69.5441 86.8694 69.4886C88.9124 69.2773 89.9729 68.229 90.2799 67.0023C90.4568 66.33 90.4331 64.954 89.8802 64.4808L89.9468 64.1906C90.0521 64.2146 90.1626 64.1982 90.2564 64.1448C90.3502 64.0914 90.4206 64.0047 90.4537 63.9019Z" fill="#191919"/>
<path d="M28.5128 64.2335C28.3399 63.9237 28.0989 63.6572 27.8081 63.454C27.5172 63.2508 27.1841 63.1162 26.8337 63.0604C26.4834 63.0046 26.1249 63.0291 25.7853 63.1318C25.4458 63.2346 25.1339 63.4131 24.8733 63.6539C24.4746 64.0986 24.2504 64.6728 24.2424 65.2701C24.2344 65.8674 24.443 66.4474 24.8297 66.9028C25.0314 67.1466 25.2844 67.3429 25.5707 67.4776C25.857 67.6124 26.1695 67.6822 26.4859 67.6822C26.8024 67.6822 27.1149 67.6124 27.4012 67.4776C27.6875 67.3429 27.9405 67.1466 28.1422 66.9028C28.4452 66.5359 28.6403 66.092 28.7057 65.6207C28.7712 65.1493 28.7044 64.6691 28.5128 64.2335Z" fill="#003090"/>
<path d="M42.9269 43.733C42.7539 43.4234 42.5129 43.157 42.2221 42.9539C41.9312 42.7508 41.5981 42.6162 41.2478 42.5605C40.8975 42.5047 40.5391 42.529 40.1995 42.6317C39.86 42.7344 39.5482 42.9128 39.2875 43.1534C38.8887 43.5983 38.6645 44.1726 38.6565 44.7701C38.6484 45.3675 38.8571 45.9476 39.2438 46.4031C39.4455 46.6469 39.6985 46.8432 39.9848 46.9779C40.2711 47.1127 40.5837 47.1826 40.9001 47.1826C41.2165 47.1826 41.529 47.1127 41.8153 46.9779C42.1016 46.8432 42.3546 46.6469 42.5563 46.4031C42.859 46.0359 43.0539 45.5919 43.1193 45.1205C43.1847 44.6491 43.1181 44.1688 42.9269 43.733Z" fill="#003090"/>
<path d="M80.7514 31.0842C80.5783 30.7746 80.3372 30.5083 80.0464 30.3053C79.7555 30.1023 79.4225 29.9678 79.0722 29.912C78.7219 29.8562 78.3636 29.8806 78.024 29.9832C77.6845 30.0858 77.3727 30.264 77.112 30.5045C76.713 30.9493 76.4887 31.5237 76.4807 32.1212C76.4727 32.7187 76.6814 33.2988 77.0683 33.7542C77.27 33.998 77.523 34.1943 77.8093 34.3291C78.0956 34.4638 78.4081 34.5337 78.7246 34.5337C79.041 34.5337 79.3535 34.4638 79.6398 34.3291C79.9261 34.1943 80.1791 33.998 80.3808 33.7542C80.6834 33.3869 80.8782 32.9429 80.9436 32.4716C81.0091 32.0002 80.9425 31.52 80.7514 31.0842Z" fill="#003090"/>
<path d="M113.259 51.3112C113.086 51.0015 112.845 50.7351 112.554 50.532C112.263 50.3289 111.93 50.1944 111.58 50.1386C111.229 50.0828 110.871 50.1072 110.531 50.2099C110.192 50.3126 109.88 50.4909 109.619 50.7315C109.22 51.1766 108.996 51.7509 108.988 52.3483C108.981 52.9457 109.189 53.5258 109.576 53.9812C109.778 54.2251 110.031 54.4213 110.317 54.5561C110.603 54.6908 110.916 54.7607 111.232 54.7607C111.549 54.7607 111.861 54.6908 112.147 54.5561C112.434 54.4213 112.687 54.2251 112.888 53.9812C113.191 53.6142 113.387 53.1701 113.452 52.6987C113.517 52.2273 113.451 51.7469 113.259 51.3112Z" fill="#003090"/>
<path d="M125.767 68.6002C125.594 68.2906 125.353 68.0241 125.062 67.821C124.771 67.6179 124.438 67.4834 124.088 67.4276C123.737 67.3718 123.379 67.3962 123.039 67.4989C122.7 67.6016 122.388 67.78 122.127 68.0206C121.729 68.4655 121.504 69.0398 121.496 69.6373C121.488 70.2347 121.697 70.8148 122.084 71.2703C122.285 71.5141 122.538 71.7104 122.825 71.8451C123.111 71.9799 123.424 72.0497 123.74 72.0497C124.056 72.0497 124.369 71.9799 124.655 71.8451C124.941 71.7104 125.194 71.5141 125.396 71.2703C125.699 70.903 125.894 70.4591 125.959 69.9877C126.025 69.5163 125.958 69.036 125.767 68.6002Z" fill="#003090"/>
<path d="M136.072 95.7828C136.108 95.6353 136.094 95.48 136.031 95.3419C135.967 95.2039 135.859 95.0913 135.724 95.0224C129.898 91.9887 123.918 89.2628 117.806 86.8561C117.721 86.8217 117.63 86.805 117.538 86.807C117.446 86.809 117.355 86.8297 117.272 86.8678C117.188 86.9059 117.113 86.9606 117.052 87.0287C116.99 87.0967 116.942 87.1766 116.913 87.2634C116.26 89.1555 116.078 89.7819 115.082 93.2046C110.475 94.3976 109.025 100.061 108.108 104.675C102.941 94.6442 93.3554 87.1356 82.7173 83.3882C82.1124 83.1791 82.9179 83.2886 73.1926 88.2979C72.6011 86.3984 71.8804 84.5416 71.0356 82.7404C70.9738 82.6221 70.8793 82.5241 70.7634 82.4581C70.6474 82.3921 70.5149 82.3609 70.3816 82.3682C70.0325 82.3943 69.6838 82.4305 69.3357 82.477C61.8033 83.5069 55.3461 85.1616 48.2602 89.3401C42.9114 92.5376 38.1799 96.669 34.2905 101.538C33.6173 100.098 32.4268 98.9644 30.9558 98.3625C31.2621 96.7721 31.4849 94.6871 31.6311 93.0232C31.6389 92.9202 31.6236 92.8168 31.5863 92.7205C31.5489 92.6242 31.4906 92.5374 31.4154 92.4666C31.3402 92.3958 31.2502 92.3426 31.1519 92.3111C31.0535 92.2795 30.9494 92.2704 30.847 92.2842C24.8745 93.1541 19.294 92.4703 13.4768 91.0591C13.385 91.0396 13.2902 91.039 13.1982 91.0572C13.1062 91.0755 13.0188 91.1122 12.9413 91.1651C12.8639 91.2181 12.798 91.2862 12.7476 91.3654C12.6972 91.4446 12.6635 91.5331 12.6483 91.6257C12.4952 92.8287 11.973 96.5707 11.8826 97.2484C7.6773 99.1244 6.78984 103.85 6.47743 108.428C5.84188 118.194 8.8274 130.144 16.5902 136.124C24.6118 142.301 34.5845 136.431 42.7432 130.482L42.5257 137.343C42.5276 137.45 42.5709 137.552 42.6466 137.628C42.7222 137.704 42.8244 137.747 42.9315 137.75C43.0386 137.752 43.1424 137.712 43.2211 137.64C43.2998 137.567 43.3472 137.467 43.3535 137.36L43.6666 129.91C44.9039 128.905 46.04 127.782 47.0588 126.557C47.1447 126.476 47.1948 126.364 47.1981 126.245C47.2014 126.127 47.1576 126.013 47.0764 125.927C46.9951 125.841 46.8831 125.791 46.7649 125.787C46.6467 125.784 46.5321 125.828 46.4462 125.909C46.3696 125.966 37.5448 135.009 27.834 137.203C24.1938 138.025 20.5543 137.706 17.3069 135.174C9.98516 129.441 7.17423 117.691 7.83504 108.513C8.10533 104.31 8.83047 99.848 12.7601 98.3456C12.8754 98.2992 12.9765 98.2233 13.0531 98.1254C13.1297 98.0276 13.1792 97.9113 13.1966 97.7882C13.5243 94.7812 13.6009 94.6771 13.8941 92.5461C19.2119 93.9224 24.7338 94.3309 30.1962 93.7521C30.1104 94.6503 29.847 96.8372 29.5499 98.4995C23.1983 99.6481 21.0995 98.6971 15.0274 98.6267C14.9197 98.6121 14.8106 98.641 14.7241 98.7069C14.6377 98.7728 14.581 98.8704 14.5664 98.9781C14.5519 99.0858 14.5808 99.1949 14.6467 99.2814C14.7126 99.3678 14.8102 99.4246 14.9179 99.4391C15.6836 99.6175 16.5581 99.8549 17.686 100.021C20.7098 100.456 25.1785 100.681 28.1257 100.034C28.761 99.8871 29.3839 99.6907 29.9887 99.4467C30.8211 99.738 31.5771 100.213 32.2008 100.837C33.5914 102.318 33.5163 104.243 33.6833 106.544C33.9706 109.925 33.8902 113.327 33.4436 116.69C33.3341 117.557 33.269 118.409 33.1373 119.244C33.1238 119.301 33.1218 119.36 33.1312 119.418C33.1407 119.476 33.1615 119.532 33.1925 119.582C33.2234 119.632 33.264 119.675 33.3117 119.71C33.3595 119.744 33.4135 119.769 33.4708 119.782C33.528 119.796 33.5874 119.798 33.6455 119.788C33.7035 119.779 33.7592 119.758 33.8092 119.727C33.8592 119.696 33.9026 119.656 33.937 119.608C33.9714 119.56 33.996 119.506 34.0094 119.449C34.2884 118.609 34.521 117.754 34.7062 116.888C35.4626 112.425 35.4071 107.862 34.5424 103.419C43.9392 91.3792 55.5995 85.4472 70.0133 83.7871C70.7492 85.2718 71.3916 87.386 72.008 89.0759C68.9852 90.0798 65.9022 90.8923 62.7773 91.5086C64.2051 89.4919 65.5011 87.3851 66.6572 85.2014C66.7101 85.1065 66.7237 84.9947 66.6951 84.8899C66.6665 84.7851 66.5979 84.6957 66.5041 84.6409C66.4081 84.588 66.2953 84.5744 66.1895 84.603C66.0837 84.6316 65.993 84.7 65.9367 84.794C65.0056 86.3775 62.3968 89.8631 60.6846 92.1319C60.6039 92.2406 60.5582 92.3715 60.5537 92.5069C60.5492 92.6423 60.5862 92.7758 60.6595 92.8897C60.7329 93.0036 60.8393 93.0924 60.9644 93.1443C61.0896 93.1962 61.2276 93.2087 61.36 93.1801C65.3264 92.3378 69.2759 91.5905 73.0639 90.151C76.4678 92.8816 80.2864 95.0504 84.3751 96.5753C84.4954 96.6186 84.6254 96.627 84.7503 96.5995C84.8751 96.5721 84.9897 96.5099 85.0808 96.4202C85.1718 96.3305 85.2357 96.2169 85.265 96.0925C85.2943 95.968 85.2879 95.8379 85.2465 95.7169C84.1321 92.5955 83.5296 89.3145 83.4623 86.0008C83.4634 85.8837 83.4182 85.7709 83.3366 85.687C83.2551 85.603 83.1437 85.5545 83.0266 85.5521C82.9074 85.552 82.7928 85.5983 82.7071 85.6812C82.6213 85.7641 82.5712 85.877 82.5672 85.9962C82.4047 88.956 82.7288 91.9225 83.5267 94.7774C80.1929 93.3918 77.0662 91.5531 74.2347 89.3133C77.0495 87.8584 79.8352 86.3982 82.5672 84.7956C93.3263 88.6601 103.451 96.8831 107.759 107.12C107.765 107.134 107.772 107.148 107.778 107.162C107.166 109.278 106.065 117.987 106.039 118.283C105.984 118.903 105.974 119.518 105.93 120.137C105.911 120.254 105.94 120.374 106.009 120.47C106.079 120.566 106.183 120.631 106.301 120.649C106.418 120.668 106.539 120.64 106.637 120.571C106.734 120.502 106.801 120.398 106.824 120.281C106.977 119.703 107.13 119.137 107.259 118.554C108.183 114.46 108.938 103.075 111.552 98.0424C112.467 96.2598 113.772 94.8264 115.736 94.4504C115.858 94.4264 115.97 94.3704 116.062 94.2881C116.154 94.2058 116.222 94.1003 116.259 93.9826C116.691 92.5032 117.828 88.7757 117.959 88.3829C123.444 90.5644 129.267 93.1778 134.632 95.9635C134.203 97.5845 133.937 98.8043 133.324 100.8C133.3 100.892 133.296 100.988 133.311 101.081C133.326 101.175 133.36 101.265 133.411 101.345C135.692 104.924 134.246 109.202 132.976 113.214C130.33 121.731 126.107 133.144 118.264 137.42C114.712 139.366 110.963 140.816 107.498 140.292C102.385 139.521 100.683 135.315 97.9152 130.951C97.8644 130.844 97.7733 130.761 97.6618 130.722C97.5502 130.682 97.4275 130.688 97.3206 130.739C97.2137 130.79 97.1313 130.881 97.0916 130.992C97.0519 131.104 97.0581 131.226 97.1089 131.333C97.9278 133.355 99.0758 135.227 100.506 136.874C100.599 138.83 100.571 140.195 100.524 142.114C100.523 142.23 100.568 142.343 100.649 142.426C100.73 142.51 100.841 142.559 100.957 142.563C101.073 142.567 101.187 142.525 101.273 142.446C101.359 142.368 101.411 142.259 101.418 142.142C101.469 140.033 101.483 141.076 101.483 138.077C106.303 143.228 112.618 141.729 118.809 138.413C127.04 134.003 131.423 122.451 134.24 113.611C135.601 109.225 137.036 104.882 134.699 100.892C134.874 100.266 135.812 96.8739 136.072 95.7828Z" fill="#191919"/>
</svg>
