<svg width="20" height="20" viewBox="0 0 20 20" fill="none"
                                            xmlns="http://www.w3.org/2000/svg">
                                            <path
                                                d="M12.5013 10.791H6.66797C6.50255 10.7899 6.34421 10.7237 6.22723 10.6068C6.11026 10.4898 6.04406 10.3314 6.04297 10.166C6.04406 10.0006 6.11026 9.84225 6.22723 9.72528C6.34421 9.60831 6.50255 9.54211 6.66797 9.54102H12.5013C12.6667 9.54211 12.8251 9.60831 12.942 9.72528C13.059 9.84225 13.1252 10.0006 13.1263 10.166C13.1252 10.3314 13.059 10.4898 12.942 10.6068C12.8251 10.7237 12.6667 10.7899 12.5013 10.791Z"
                                                fill="#003090" />
                                            <path
                                                d="M10.318 14.125H6.66797C6.50255 14.1239 6.34421 14.0577 6.22723 13.9407C6.11026 13.8238 6.04406 13.6654 6.04297 13.5C6.04406 13.3346 6.11026 13.1762 6.22723 13.0593C6.34421 12.9423 6.50255 12.8761 6.66797 12.875H10.318C10.4834 12.8761 10.6417 12.9423 10.7587 13.0593C10.8757 13.1762 10.9419 13.3346 10.943 13.5C10.9419 13.6654 10.8757 13.8238 10.7587 13.9407C10.6417 14.0577 10.4834 14.1239 10.318 14.125Z"
                                                fill="#003090" />
                                            <path
                                                d="M11.668 5.62435H8.33464C7.53464 5.62435 6.04297 5.62435 6.04297 3.33268C6.04297 1.04102 7.53464 1.04102 8.33464 1.04102H11.668C12.468 1.04102 13.9596 1.04102 13.9596 3.33268C13.9596 4.13268 13.9596 5.62435 11.668 5.62435ZM8.33464 2.29102C7.50964 2.29102 7.29297 2.29102 7.29297 3.33268C7.29297 4.37435 7.50964 4.37435 8.33464 4.37435H11.668C12.7096 4.37435 12.7096 4.15768 12.7096 3.33268C12.7096 2.29102 12.493 2.29102 11.668 2.29102H8.33464Z"
                                                fill="#003090" />
                                            <path
                                                d="M12.5 18.9575H7.5C2.81667 18.9575 1.875 16.8066 1.875 13.3325V8.33247C1.875 4.53247 3.25 2.90747 6.63333 2.73247C6.79882 2.72473 6.9607 2.78248 7.08391 2.89321C7.20713 3.00395 7.28177 3.15877 7.29167 3.32414C7.29592 3.40577 7.28396 3.48743 7.25645 3.5644C7.22895 3.64137 7.18646 3.71213 7.13144 3.77257C7.07642 3.83302 7.00996 3.88196 6.9359 3.91656C6.86185 3.95115 6.78167 3.97073 6.7 3.97414C4.33333 4.10747 3.125 4.81581 3.125 8.33247V13.3325C3.125 16.4158 3.73333 17.7075 7.5 17.7075H12.5C16.2667 17.7075 16.875 16.4158 16.875 13.3325V8.33247C16.875 4.81581 15.6667 4.10747 13.3 3.97414C13.1347 3.96403 12.98 3.88933 12.8693 3.76616C12.7586 3.64299 12.7008 3.48124 12.7083 3.31581C12.7182 3.15037 12.7928 2.99547 12.916 2.8846C13.0392 2.77372 13.2011 2.71579 13.3667 2.72331C16.75 2.90664 18.125 4.53164 18.125 8.32331V13.3233C18.125 16.8066 17.1833 18.9575 12.5 18.9575Z"
                                                fill="#003090" />
                                        </svg>