<svg width="30" height="29" viewBox="0 0 30 29" fill="none" xmlns="http://www.w3.org/2000/svg">
<path d="M14.375 26.2826C11.8409 26.2826 9.36377 25.5562 7.25676 24.1952C5.14976 22.8343 3.50755 20.9 2.5378 18.6368C1.56805 16.3737 1.31432 13.8834 1.80869 11.4809C2.30307 9.07833 3.52334 6.87146 5.3152 5.13933C7.10706 3.4072 9.39003 2.2276 11.8754 1.74971C14.3608 1.27181 16.937 1.51709 19.2781 2.45451C21.6193 3.39193 23.6204 4.9794 25.0282 7.01617C26.4361 9.05294 27.1875 11.4475 27.1875 13.8971C27.1829 17.1806 25.8315 20.3283 23.4297 22.65C21.0279 24.9718 17.7717 26.2781 14.375 26.2826ZM14.375 3.32422C12.2118 3.32422 10.0971 3.94431 8.29846 5.10608C6.49979 6.26785 5.09791 7.91911 4.27007 9.85106C3.44224 11.783 3.22564 13.9089 3.64767 15.9598C4.06969 18.0108 5.11139 19.8947 6.64103 21.3733C8.17066 22.852 10.1195 23.8589 12.2412 24.2669C14.3629 24.6749 16.562 24.4655 18.5606 23.6652C20.5592 22.865 22.2674 21.5098 23.4692 19.7711C24.671 18.0324 25.3125 15.9883 25.3125 13.8971C25.3092 11.094 24.1558 8.40661 22.1053 6.42449C20.0549 4.44238 17.2748 3.32742 14.375 3.32422Z" fill="#5A5A5A"/>
<path d="M27.5003 27.4924C27.3771 27.4928 27.2551 27.4695 27.1414 27.4239C27.0276 27.3782 26.9244 27.3112 26.8378 27.2266L24.3378 24.8099C24.1618 24.64 24.0627 24.4095 24.0625 24.1691C24.0623 23.9287 24.1608 23.698 24.3366 23.5278C24.5123 23.3577 24.7507 23.2619 24.9994 23.2617C25.2481 23.2615 25.4868 23.3568 25.6628 23.5266L28.1628 25.9433C28.3372 26.1138 28.4349 26.3439 28.4349 26.5837C28.4349 26.8235 28.3372 27.0536 28.1628 27.2241C28.0764 27.3092 27.9733 27.3767 27.8595 27.4228C27.7457 27.4688 27.6236 27.4925 27.5003 27.4924Z" fill="#5A5A5A"/>
</svg>
