                            <svg width="30" height="30" viewBox="0 0 44 44" fill="none" xmlns="http://www.w3.org/2000/svg">
                                <path d="M3.61328 23.4217V12.6226C3.61328 7.6384 7.65842 3.61133 12.6426 3.61133H30.7012C35.6854 3.61133 39.7306 7.6384 39.7306 12.6226V25.2275C39.7306 30.1936 35.6854 34.2207 30.7012 34.2207H27.9924C27.4326 34.2207 26.8909 34.4916 26.5477 34.9431L23.839 38.5367C22.6471 40.1259 20.6968 40.1259 19.5049 38.5367L16.7961 34.9431C16.5071 34.5458 15.857 34.2207 15.3514 34.2207H12.6426C7.65842 34.2207 3.61328 30.1936 3.61328 25.2275V23.4217Z" fill="#003090"/>
                                <path d="M21.6731 21.6703C20.6618 21.6703 19.8672 20.8577 19.8672 19.8645C19.8672 18.8712 20.6798 18.0586 21.6731 18.0586C22.6663 18.0586 23.4789 18.8712 23.4789 19.8645C23.4789 20.8577 22.6843 21.6703 21.6731 21.6703Z" fill="white"/>
                                <path d="M28.8957 21.6703C27.8844 21.6703 27.0898 20.8577 27.0898 19.8645C27.0898 18.8712 27.9025 18.0586 28.8957 18.0586C29.8889 18.0586 30.7016 18.8712 30.7016 19.8645C30.7016 20.8577 29.907 21.6703 28.8957 21.6703Z" fill="white"/>
                                <path d="M14.4465 21.6703C13.4352 21.6703 12.6406 20.8577 12.6406 19.8645C12.6406 18.8712 13.4533 18.0586 14.4465 18.0586C15.4397 18.0586 16.2524 18.8712 16.2524 19.8645C16.2524 20.8577 15.4578 21.6703 14.4465 21.6703Z" fill="white"/>
                            </svg>