<svg width="25" height="25" viewBox="0 0 25 25" fill="none" xmlns="http://www.w3.org/2000/svg">
<path d="M12.6367 22.6348C18.1596 22.6348 22.6367 18.1576 22.6367 12.6348C22.6367 7.11192 18.1596 2.63477 12.6367 2.63477C7.11387 2.63477 2.63672 7.11192 2.63672 12.6348C2.63672 18.1576 7.11387 22.6348 12.6367 22.6348Z" stroke="#3B4057" stroke-width="1.5" stroke-linecap="round" stroke-linejoin="round"/>
<path opacity="0.4" d="M11.3867 15.1655V10.1055C11.3867 9.62555 11.1867 9.43555 10.6767 9.43555H9.37672C8.86672 9.43555 8.66672 9.62555 8.66672 10.1055V15.1655C8.66672 15.6455 8.86672 15.8355 9.37672 15.8355H10.6667C11.1867 15.8355 11.3867 15.6455 11.3867 15.1655Z" stroke="#3B4057" stroke-width="1.5" stroke-linecap="round" stroke-linejoin="round"/>
<path opacity="0.4" d="M16.6667 15.1655V10.1055C16.6667 9.62555 16.4667 9.43555 15.9567 9.43555H14.6667C14.1567 9.43555 13.9567 9.62555 13.9567 10.1055V15.1655C13.9567 15.6455 14.1567 15.8355 14.6667 15.8355H15.9567C16.4667 15.8355 16.6667 15.6455 16.6667 15.1655Z" stroke="#3B4057" stroke-width="1.5" stroke-linecap="round" stroke-linejoin="round"/>
</svg>
