<svg width="18" height="18" viewBox="0 0 18 18" fill="none" xmlns="http://www.w3.org/2000/svg">
<path d="M7.53764 1.89747L3.02264 4.84497C1.57514 5.78997 1.57514 7.90497 3.02264 8.84997L7.53764 11.7975C8.34764 12.33 9.68264 12.33 10.4926 11.7975L14.9851 8.84997C16.4251 7.90497 16.4251 5.79747 14.9851 4.85247L10.4926 1.90497C9.68264 1.36497 8.34764 1.36497 7.53764 1.89747Z" stroke="#003090" stroke-width="1.125" stroke-linecap="round" stroke-linejoin="round"/>
<path opacity="0.4" d="M4.22234 9.80994L4.21484 13.3274C4.21484 14.2799 4.94984 15.2999 5.84984 15.5999L8.24234 16.3949C8.65484 16.5299 9.33734 16.5299 9.75734 16.3949L12.1498 15.5999C13.0498 15.2999 13.7848 14.2799 13.7848 13.3274V9.84744" stroke="#003090" stroke-width="1.125" stroke-linecap="round" stroke-linejoin="round"/>
<path opacity="0.4" d="M16.0498 11.25V6.75" stroke="#003090" stroke-width="1.125" stroke-linecap="round" stroke-linejoin="round"/>
</svg>
