<svg width="367" height="367" viewBox="0 0 367 367" fill="none" xmlns="http://www.w3.org/2000/svg">
<rect x="0.5" y="0.5" width="366" height="366" rx="15.5" fill="#D9E6FF" stroke="#EEEEEE"/>
<path d="M253.426 278.761H228.587L217.008 214.492H241.846L253.426 278.761Z" fill="#4D89F5"/>
<path d="M198.061 282.777V278.76L227.7 274.184H252.538L272.376 278.76V282.777H198.061Z" fill="#4D89F5"/>
<path d="M249.452 278.761H224.613L213.039 214.492H237.877L249.452 278.761Z" fill="black"/>
<path d="M284.694 246.624H169.766C166.863 246.624 164.672 243.983 165.211 241.127L179.196 167.173C179.745 164.259 182.292 162.146 185.258 162.146H300.186C303.089 162.146 305.28 164.788 304.741 167.643L290.756 241.598C290.207 244.511 287.66 246.624 284.694 246.624Z" fill="black"/>
<path d="M281.595 243.435H166.667C163.764 243.435 161.572 240.794 162.111 237.938L176.097 163.983C176.646 161.07 179.193 158.957 182.158 158.957H297.086C299.989 158.957 302.181 161.598 301.642 164.454L287.656 238.409C287.107 241.322 284.56 243.435 281.595 243.435Z" fill="#4D89F5"/>
<path d="M166.669 239.863C166.235 239.863 165.968 239.622 165.853 239.476C165.733 239.335 165.545 239.026 165.628 238.602L179.614 164.648C179.844 163.424 180.921 162.529 182.166 162.529H297.094C297.528 162.529 297.795 162.77 297.915 162.916C298.035 163.058 298.224 163.366 298.14 163.79L284.155 237.75C283.924 238.974 282.847 239.868 281.602 239.868H166.674L166.669 239.863Z" stroke="black" stroke-width="0.523018" stroke-miterlimit="10"/>
<path d="M194.09 282.777V278.76L223.729 274.184H248.567L268.4 278.76V282.777H194.09Z" fill="black"/>
<path d="M239.325 274.184H224.707" stroke="white" stroke-width="0.523018" stroke-linecap="round" stroke-linejoin="round"/>
<path d="M279.621 168.355C280.39 167.651 280.534 166.557 279.943 165.912C279.352 165.266 278.249 165.314 277.48 166.018C276.711 166.722 276.567 167.816 277.158 168.462C277.749 169.107 278.852 169.06 279.621 168.355Z" fill="white"/>
<path d="M286.394 168.353C287.163 167.649 287.308 166.555 286.717 165.91C286.125 165.264 285.023 165.312 284.254 166.016C283.485 166.72 283.34 167.814 283.932 168.46C284.523 169.105 285.625 169.058 286.394 168.353Z" fill="white"/>
<path d="M293.16 168.353C293.929 167.649 294.073 166.555 293.482 165.91C292.891 165.264 291.788 165.312 291.019 166.016C290.25 166.72 290.106 167.814 290.697 168.46C291.288 169.105 292.391 169.058 293.16 168.353Z" fill="white"/>
<path d="M197.263 190.391L177.111 219.847C177.111 219.847 180.223 229.946 186.092 229.544C195.888 228.864 211.761 204.036 211.761 204.036" fill="white"/>
<path d="M179.587 178.205C179.587 178.205 179.445 174.91 179.445 170.705C179.445 168.492 177.902 166.343 176.072 163.016C175.167 160.93 172.944 161.196 172.651 163.571C172.62 163.838 172.667 164.245 172.751 164.7C171.26 162.363 169.686 160.056 169.058 159.183C168.221 158.016 166.804 157.865 166.035 158.377C165.967 158.288 165.91 158.21 165.852 158.142C164.56 156.52 161.929 157.608 162.348 158.754C160.716 157.216 158.472 158.382 158.943 159.423C158.959 159.46 158.995 159.523 159.037 159.601C157.703 158.749 156.035 159.857 156.605 160.971C156.945 161.636 160.125 167.415 160.125 167.415C160.125 167.415 162.73 172.425 163.603 174.204C164.607 175.904 166.752 178.911 168.488 179.837C170.125 189.591 177.118 219.842 177.118 219.842L191.966 207.698C191.966 207.698 183.096 188.226 179.592 178.205H179.587Z" fill="white"/>
<path d="M160 160.684L164.064 168.069" stroke="black" stroke-width="0.261509" stroke-linecap="round" stroke-linejoin="round"/>
<path d="M162.84 159.596L166.904 166.981" stroke="black" stroke-width="0.261509" stroke-linecap="round" stroke-linejoin="round"/>
<path d="M165.947 158.754L170.011 166.134" stroke="black" stroke-width="0.261509" stroke-linecap="round" stroke-linejoin="round"/>
<path d="M173.012 165.172C173.012 165.172 173.681 167.206 174.649 168.645" stroke="black" stroke-width="0.261509" stroke-linecap="round" stroke-linejoin="round"/>
<path d="M190.188 200.103C190.188 200.103 199.659 210.281 206.877 216.657L218.43 200.699L210.967 172.76C210.967 172.76 208.697 174.073 205.245 178.811C202.311 182.844 197.505 189.852 190.188 200.098V200.103Z" fill="#003090"/>
<path d="M264.524 204.123C262.667 210.342 260.445 216.336 258.933 220.609C258.436 222.021 258.117 223.894 257.976 226.075C257.683 230.489 257.715 234.919 258.598 239.6H207.212C207.651 237.565 207.991 235.395 207.907 233.24C206.501 198.255 204.801 182.549 209.754 174.128C212.74 169.05 229.801 167.094 229.801 167.094L246.694 167.251C246.694 167.251 266.423 172.01 267.824 183.302C268.504 188.794 266.784 196.618 264.524 204.123Z" fill="#003090"/>
<path d="M252.631 195.354L252.882 226.07H257.976C258.117 223.895 258.436 222.017 258.933 220.605C260.445 216.332 262.668 210.338 264.524 204.125L252.631 195.359V195.354Z" fill="black"/>
<path d="M221.921 129.572C221.921 129.572 219.144 140.095 223.213 142.078C226.519 143.694 226.811 138.981 226.811 138.981L227.596 133.851" fill="black"/>
<path d="M246.705 167.242C246.705 167.242 243.944 174.381 233.462 173.366C224.341 172.483 229.796 167.095 229.796 167.095C229.796 167.095 230.272 165.657 230.852 163.748C231.417 161.881 232.082 159.585 232.495 157.78L236.145 154.789L243.881 148.455C243.881 148.455 242.882 162.221 246.705 167.242Z" fill="white"/>
<path d="M240.874 154.863C240.874 154.863 237.715 161.599 230.848 163.754C231.413 161.887 232.077 159.591 232.49 157.787L236.141 154.795L240.874 154.863Z" fill="black"/>
<path d="M224.185 135.369C224.185 135.369 215.587 156.164 225.927 159.799C225.927 159.799 232.873 162.398 240.127 156.504C242.219 154.809 243.882 152.654 245.169 150.29C247.256 146.451 250.661 139.249 249.944 134.208C248.924 127.027 228.469 119.6 224.185 135.363V135.369Z" fill="white"/>
<path d="M251.653 143.33C251.653 143.33 251.643 143.346 251.638 143.346C251.617 146.39 250.178 149.7 247.422 150.919C246.706 153.775 243.845 156.16 243.845 156.16C243.834 154.549 243.615 152.211 243.667 149.554C246.256 147.206 247.846 142.927 245.011 141.4C244.038 140.877 241.732 140.542 240.1 143.194C237.799 142.153 237.621 140.087 237.5 139.151C233.51 139.706 219.807 140.647 218.52 128.22C218.316 126.227 218.196 121.541 220.544 120.322C222.265 119.439 225.633 119.601 228.834 122.681C226.998 117.509 236.35 117.357 242.605 122.451C243.379 118.717 250.346 123.267 251.298 128.335C258.97 130.004 255.032 141.358 251.648 143.325L251.653 143.33Z" fill="black"/>
<path d="M224.869 194.6C224.869 194.6 193.906 184.464 184.1 203.789L201.208 253.586C211.014 234.26 241.977 244.397 241.977 244.397L224.869 194.6Z" fill="white"/>
<path d="M222.427 196.14C222.427 196.14 204.932 191.522 191.982 205.738L208.541 254.404C208.541 254.404 220.743 240.257 239.786 242.385L222.427 196.14Z" fill="black"/>
<path d="M274.509 194.234L256.015 200.856C256.015 200.856 258.458 214.099 260.21 223.267C252.511 222.409 242.772 221.311 238.112 220.307C237.699 220.077 237.291 219.794 236.925 219.439C235.199 216.881 233.201 215.772 231.224 213.22C230.429 211.928 228.541 212.451 228.379 214.025C228.285 216.332 229.932 218.074 230.733 219.161C228.405 218.497 223.484 217.237 220.806 216.588C219.069 216.165 217.647 217.493 217.971 218.581C217.762 218.565 217.563 218.565 217.396 218.581C215.565 218.774 215.424 220.296 215.68 220.788C215.774 220.971 216.14 221.196 216.569 221.41C215.581 221.641 215.439 223.084 215.701 223.482C215.973 223.89 217.526 224.475 218.74 224.878C217.537 225.176 217.322 226.416 217.526 226.855C217.96 227.776 224.765 229.92 226.339 230.338C229.843 231.264 232.27 231.547 236.313 231.505C252.218 236.044 264.41 238.487 269.525 239C275.001 239.549 278.547 237.294 279.347 233.571C280.545 228.027 274.499 194.245 274.499 194.245L274.509 194.234Z" fill="white"/>
<path d="M277.228 209.612C269.132 211.312 259.064 211.971 254.869 212.18C253.577 204.377 252.51 197.311 251.721 191.966L250.486 168.398C250.486 168.398 267.851 173.555 269.791 177.473C273.222 184.392 276.083 201.835 277.228 209.612Z" fill="#003090"/>
<path d="M252.855 222.432L265.968 223.917" stroke="black" stroke-width="0.261509" stroke-linecap="round" stroke-linejoin="round"/>
<path d="M226.952 143.507C227.161 145.746 225.514 147.733 223.275 147.942C221.037 148.152 219.049 146.504 218.84 144.266C218.631 142.027 220.278 140.04 222.517 139.83C224.756 139.621 226.743 141.269 226.952 143.507Z" stroke="black" stroke-width="0.523018" stroke-miterlimit="10"/>
<path d="M237.015 145.16C237.224 147.398 235.576 149.386 233.338 149.595C231.099 149.804 229.112 148.156 228.903 145.918C228.693 143.679 230.341 141.692 232.579 141.483C234.818 141.274 236.805 142.921 237.015 145.16Z" stroke="black" stroke-width="0.523018" stroke-miterlimit="10"/>
<path d="M226.898 144.639L228.923 144.979" stroke="black" stroke-width="0.523018" stroke-miterlimit="10"/>
<path d="M243.584 143.147C243.584 143.147 241.91 142.723 241.372 145.182C241.016 146.813 241.78 147.943 242.826 147.959" stroke="black" stroke-width="0.261509" stroke-miterlimit="10" stroke-linecap="round"/>
<path d="M243.181 144.701C243.181 144.701 241.397 144.539 241.324 146.458" stroke="black" stroke-width="0.261509" stroke-miterlimit="10" stroke-linecap="round"/>
<path d="M219.002 219.219L229.269 222.331" stroke="black" stroke-width="0.261509" stroke-linecap="round" stroke-linejoin="round"/>
<path d="M217.443 221.777L228.662 225.177" stroke="black" stroke-width="0.261509" stroke-linecap="round" stroke-linejoin="round"/>
<path d="M219.283 225.051L228.248 227.77" stroke="black" stroke-width="0.261509" stroke-linecap="round" stroke-linejoin="round"/>
<path d="M245.208 164.23C244.203 165.59 242.195 167.462 239.7 168.608C236.588 170.041 233.942 170.412 233.942 170.412L232.242 173.158L231.431 170.255C229.904 168.152 230.458 165.004 230.458 165.004L227.462 167.415C225.762 171.73 227.99 176.296 227.99 176.296L229.365 173.88L232.143 175.056C232.143 175.056 234.067 174.821 235.197 174.596L236.191 177.896C236.191 177.896 245.778 173.461 246.698 167.237L245.202 164.225L245.208 164.23Z" fill="black"/>
<path d="M252.631 196.551C252.631 196.551 250.842 184.433 256.255 179.224C261.564 174.114 267.971 177.069 267.971 177.069" stroke="black" stroke-width="0.261509" stroke-miterlimit="10"/>
<path d="M33.1113 282.775H274.019" stroke="black" stroke-width="0.523018" stroke-miterlimit="10"/>
<path d="M124.513 188.142C122.704 183.524 116.093 179.361 106.856 182.53C92.7243 187.379 94.3614 199.915 99.8844 208.969C99.9263 209.037 99.9681 209.1 100.01 209.162L93.7285 224.267L110.753 229.518L113.849 219.508C118.248 220.773 125.826 221.804 127.411 214.576C129.676 204.251 124.513 188.137 124.513 188.137V188.142Z" fill="white"/>
<path d="M113.849 219.511C113.849 219.511 111.652 218.664 110.35 217.832C110.35 217.832 111.223 220.478 113.247 221.457L113.849 219.511Z" fill="black"/>
<path d="M116.365 192.49C116.365 192.49 122.432 194.933 126.146 186.24C129.859 177.548 124.153 175.827 119.357 177.098C119.357 177.098 120.895 173.656 118.363 173.024C115.827 172.391 113.562 176.826 113.562 176.826C113.562 176.826 114.106 172.025 109.671 172.48C105.236 172.935 101.067 179.54 101.067 179.54C101.067 179.54 91.7783 177.992 87.4843 187.009C83.4571 195.477 97.997 214.018 97.997 214.018C100.685 214.933 105.858 214.713 107.95 213.557L109.66 200.597C109.66 200.597 118.18 202.454 116.371 192.49H116.365Z" fill="black"/>
<path d="M113.117 208.97C116.811 208.192 119.074 204.083 118.17 199.792C117.267 195.501 113.54 192.654 109.845 193.431C106.151 194.209 103.889 198.318 104.792 202.609C105.695 206.9 109.423 209.747 113.117 208.97Z" fill="#4D89F5"/>
<path d="M115.443 208.473C119.138 207.696 121.4 203.587 120.497 199.296C119.593 195.005 115.866 192.157 112.172 192.935C108.477 193.713 106.215 197.822 107.118 202.113C108.022 206.404 111.749 209.251 115.443 208.473Z" fill="#4D89F5"/>
<path d="M111.945 194.476C111.945 194.476 108.321 182.08 102.259 177.875L97.3477 179.601C97.3477 179.601 103.901 183.576 107.055 195.835L111.945 194.476Z" fill="#4D89F5"/>
<path d="M115.443 208.473C119.138 207.696 121.4 203.587 120.497 199.296C119.593 195.005 115.866 192.157 112.172 192.935C108.477 193.713 106.215 197.822 107.118 202.113C108.022 206.404 111.749 209.251 115.443 208.473Z" stroke="black" stroke-width="0.209207" stroke-linecap="round" stroke-linejoin="round"/>
<path d="M143.507 255.004C143.507 255.004 135.118 235.245 132.916 232.373C130.275 228.932 117.753 223.074 113.172 221.709C106.885 221.102 100.201 220.987 94.3327 221.243C87.4864 222.828 79.6777 226.134 77.7687 227.07C64.824 233.424 57.8574 299.811 57.8574 299.811H123.82C123.82 299.811 125.264 275.334 126.477 262.028C132.581 259.591 135.845 258.231 143.507 254.999V255.004Z" fill="#003090"/>
<path d="M73.9531 232.457C73.9531 232.457 90.8518 231.254 113.849 234.596" stroke="black" stroke-width="0.261509" stroke-linecap="round" stroke-linejoin="round"/>
<path d="M187.221 278.749L187.164 280.805C187.153 281.124 186.756 281.26 186.552 281.019L185.234 279.44L176.845 255.266C176.656 254.717 176.944 254.12 177.493 253.927C178.042 253.738 178.639 254.026 178.832 254.575L187.221 278.749Z" fill="black"/>
<path d="M181.675 270.832C178.118 271.998 173.986 273.332 173.986 273.332L148.4 266.831L142.741 255.324L123.803 263.149L130.9 276.611C132.846 280.304 136.679 282.615 140.853 282.615H194.081C199.907 282.615 197.82 279.242 197.82 279.242C197.82 279.242 190.482 274.352 186.298 271.491C184.938 270.565 183.228 270.319 181.664 270.832H181.675Z" fill="white"/>
<path d="M133.99 282.775H208.505" stroke="black" stroke-width="0.523018" stroke-miterlimit="10"/>
<path d="M120.883 264.487L114.816 251.244L125.01 281.166L126.108 267.505L123.807 263.148L120.883 264.487Z" fill="black"/>
<path d="M103.666 299.81L97.4209 269.47C95.5328 260.296 87.4574 253.717 78.0954 253.717H55.4748C47.1955 253.717 41.0029 261.316 42.6714 269.423L48.9267 299.81" fill="black"/>
<path d="M100.004 298.286L94.3662 270.901C92.5671 262.161 84.8735 255.885 75.9455 255.885H60.6211" stroke="white" stroke-width="0.523018" stroke-miterlimit="10" stroke-linecap="round"/>
<path d="M237.209 262.27H230.473V299.812H237.209V262.27Z" fill="white"/>
<path d="M257.913 262.27H237.207V299.812H257.913V262.27Z" fill="#003090"/>
<path d="M232.646 262.27V299.812" stroke="black" stroke-width="0.261509" stroke-linejoin="round"/>
<path d="M233.84 262.27V299.812" stroke="black" stroke-width="0.261509" stroke-linejoin="round"/>
<path d="M235.033 262.27V299.812" stroke="black" stroke-width="0.261509" stroke-linejoin="round"/>
<path d="M236.219 262.27V299.812" stroke="black" stroke-width="0.261509" stroke-linejoin="round"/>
<path d="M231.459 262.27V299.812" stroke="black" stroke-width="0.261509" stroke-linejoin="round"/>
<path d="M242.426 262.27H240.156V271.046L242.426 268.744L244.696 271.046V262.27H242.426Z" fill="#4D89F5"/>
<path d="M255.99 273.285H239.133V281.146H255.99V273.285Z" fill="white" stroke="black" stroke-width="0.261509" stroke-miterlimit="10"/>
<path d="M239.787 278.008C239.787 278.008 241.335 275.958 242.794 275.838C244.798 275.67 245.075 278.265 246.649 278.139C247.852 278.045 248.752 276.853 249.808 276.936C250.959 277.025 250.802 278.782 252.381 278.631C253.558 278.516 254.892 276.858 254.892 276.858" fill="white"/>
<path d="M239.787 278.008C239.787 278.008 241.335 275.958 242.794 275.838C244.798 275.67 245.075 278.265 246.649 278.139C247.852 278.045 248.752 276.853 249.808 276.936C250.959 277.025 250.802 278.782 252.381 278.631C253.558 278.516 254.892 276.858 254.892 276.858" stroke="black" stroke-width="0.261509" stroke-miterlimit="10" stroke-linecap="round"/>
<path d="M230.471 262.27H229.807V299.812H230.471V262.27Z" fill="#003090"/>
<path d="M243.328 291.443H273.946C274.772 291.443 275.441 292.113 275.441 292.939V298.316C275.441 299.142 274.772 299.812 273.946 299.812H243.328V291.443Z" fill="#003090"/>
<path d="M243.328 292.247H267.361C267.842 292.247 268.234 292.64 268.234 293.121V298.126C268.234 298.607 267.842 299 267.361 299H243.328V292.242V292.247Z" fill="white"/>
<path d="M268.234 294.439H243.328" stroke="black" stroke-width="0.261509" stroke-linejoin="round"/>
<path d="M268.234 295.627H243.328" stroke="black" stroke-width="0.261509" stroke-linejoin="round"/>
<path d="M268.234 296.82H243.328" stroke="black" stroke-width="0.261509" stroke-linejoin="round"/>
<path d="M268.234 298.008H243.328" stroke="black" stroke-width="0.261509" stroke-linejoin="round"/>
<path d="M268.234 293.246H243.328" stroke="black" stroke-width="0.261509" stroke-linejoin="round"/>
<path d="M223.887 271.752L223.871 293.755H222.804L221.486 271.752" fill="white"/>
<path d="M224.685 271.943L219.246 293.262L220.282 293.528L227.008 272.54" fill="white"/>
<path d="M223.128 265.945C223.128 266.312 223.128 272.635 223.128 272.635C223.128 272.97 222.856 273.242 222.516 273.242C222.181 273.242 221.909 272.97 221.909 272.63V271.877C221.909 271.877 221.527 269.868 219.012 270.015C219.012 270.015 221.873 270.375 221.967 270.407C222.061 270.438 223.133 265.579 223.133 265.945H223.128Z" fill="#4D89F5"/>
<path d="M224.274 272.749C224.059 273.591 224.567 274.443 225.409 274.658C226.251 274.872 227.103 274.365 227.318 273.523C227.318 273.523 227.417 273.01 227.616 272.733C227.919 272.299 228.547 272.137 229.666 272.414C229.682 272.414 229.703 272.425 229.718 272.43C232.496 273.136 235.451 270.986 236.303 267.629C237.161 264.276 235.597 260.971 232.82 260.259C230.043 259.553 227.088 261.703 226.235 265.061C226.204 265.181 226.183 265.301 226.162 265.421H226.151L224.279 272.749H224.274ZM230.194 270.563C228.447 270.118 227.506 267.864 228.102 265.536C228.693 263.209 230.602 261.682 232.349 262.126C234.096 262.571 235.037 264.825 234.441 267.153C233.85 269.48 231.941 271.007 230.194 270.563Z" fill="#4D89F5"/>
<path d="M213.697 264.694C213.697 268.157 216.025 270.976 218.891 270.976C218.917 270.976 218.943 270.976 218.969 270.976C220.109 270.991 220.664 271.305 220.852 271.797C220.972 272.121 220.946 272.639 220.946 272.639C220.946 273.507 221.652 274.213 222.515 274.213C223.378 274.213 224.09 273.507 224.09 272.644V265.081H224.079C224.084 264.961 224.095 264.835 224.095 264.715C224.095 261.253 221.767 258.434 218.901 258.434C216.035 258.434 213.703 261.247 213.703 264.71L213.697 264.694ZM215.622 264.694C215.622 262.293 217.092 260.343 218.896 260.343C220.7 260.343 222.165 262.299 222.165 264.699C222.165 267.1 220.695 269.051 218.891 269.051C217.086 269.051 215.622 267.095 215.622 264.694Z" fill="#4D89F5"/>
<path d="M222.012 260.35C222.069 260.35 222.121 260.298 222.127 260.235L222.169 259.623C222.169 259.555 222.121 259.498 222.053 259.493C221.985 259.487 221.928 259.54 221.923 259.608L221.881 260.22C221.881 260.288 221.928 260.345 221.996 260.35C221.996 260.35 222.006 260.35 222.012 260.35Z" fill="white"/>
<path d="M219.352 288.079L220.962 288.189L222.683 262.19L221.878 262.132L221.072 262.08L219.352 288.079Z" fill="#003090"/>
<path d="M221.857 259.979L222.186 259.999L222.683 262.191L221.072 262.081L221.857 259.979Z" fill="black"/>
<path d="M220.385 281.385L217.616 281.885L213.294 257.962C213.272 257.839 213.356 257.717 213.48 257.695L215.796 257.277C215.919 257.254 216.041 257.339 216.063 257.462L220.385 281.385Z" fill="white"/>
<path d="M213.74 260.358L216.506 259.856L216.072 257.44C216.051 257.314 215.931 257.231 215.806 257.257L213.489 257.675C213.363 257.696 213.279 257.816 213.306 257.942L213.74 260.358Z" fill="black"/>
<path d="M216.513 259.845L213.744 260.346L213.894 261.174L216.663 260.674L216.513 259.845Z" fill="#4D89F5"/>
<path d="M220.385 281.385L217.616 281.885L213.294 257.962C213.272 257.839 213.356 257.717 213.48 257.695L215.796 257.277C215.919 257.254 216.041 257.339 216.063 257.462L220.385 281.385Z" stroke="black" stroke-width="0.261509" stroke-linecap="round" stroke-linejoin="round"/>
<path d="M215.465 287.315L219.98 285.535L210.352 261.103L205.836 262.883L215.465 287.315Z" fill="#003090"/>
<path d="M207.629 263.104L206.139 263.689" stroke="white" stroke-width="0.261509" stroke-miterlimit="10"/>
<path d="M208.128 264.369L206.643 264.96" stroke="white" stroke-width="0.261509" stroke-miterlimit="10"/>
<path d="M208.629 265.641L207.139 266.226" stroke="white" stroke-width="0.261509" stroke-miterlimit="10"/>
<path d="M209.858 266.623L207.641 267.496" stroke="white" stroke-width="0.261509" stroke-miterlimit="10"/>
<path d="M209.63 268.176L208.145 268.762" stroke="white" stroke-width="0.261509" stroke-miterlimit="10"/>
<path d="M210.129 269.449L208.639 270.035" stroke="white" stroke-width="0.261509" stroke-miterlimit="10"/>
<path d="M210.628 270.717L209.143 271.303" stroke="white" stroke-width="0.261509" stroke-miterlimit="10"/>
<path d="M211.857 271.695L209.645 272.569" stroke="white" stroke-width="0.261509" stroke-miterlimit="10"/>
<path d="M211.633 273.254L210.143 273.84" stroke="white" stroke-width="0.261509" stroke-miterlimit="10"/>
<path d="M212.13 274.521L210.645 275.112" stroke="white" stroke-width="0.261509" stroke-miterlimit="10"/>
<path d="M212.631 275.793L211.141 276.379" stroke="white" stroke-width="0.261509" stroke-miterlimit="10"/>
<path d="M213.86 276.775L211.643 277.649" stroke="white" stroke-width="0.261509" stroke-miterlimit="10"/>
<path d="M213.63 278.326L212.145 278.912" stroke="white" stroke-width="0.261509" stroke-miterlimit="10"/>
<path d="M214.133 279.598L212.643 280.183" stroke="white" stroke-width="0.261509" stroke-miterlimit="10"/>
<path d="M214.63 280.865L213.145 281.456" stroke="white" stroke-width="0.261509" stroke-miterlimit="10"/>
<path d="M215.859 281.848L213.646 282.721" stroke="white" stroke-width="0.261509" stroke-miterlimit="10"/>
<path d="M215.633 283.406L214.143 283.992" stroke="white" stroke-width="0.261509" stroke-miterlimit="10"/>
<path d="M216.13 284.674L214.645 285.26" stroke="white" stroke-width="0.261509" stroke-miterlimit="10"/>
<path d="M216.633 285.943L215.143 286.529" stroke="white" stroke-width="0.261509" stroke-miterlimit="10"/>
<path d="M225.158 299.813H213.542L211.324 278.762H227.376L225.158 299.813Z" fill="#4D89F5"/>
<path d="M212.939 281.146H225.759" stroke="#181820" stroke-width="0.261509" stroke-miterlimit="10" stroke-linecap="round"/>
<path d="M293.916 264.173C288.963 245.177 275.621 236.662 275.621 236.662C276.944 254.12 286.139 264.173 286.139 264.173H293.916Z" fill="white" stroke="black" stroke-width="0.261509" stroke-linecap="round" stroke-linejoin="round"/>
<path d="M278.279 241.703C278.279 241.703 286.193 254.784 290.398 264.669" stroke="black" stroke-width="0.261509" stroke-linecap="round" stroke-linejoin="round"/>
<path d="M289.698 268.76C289.698 268.76 289.285 246.041 305.106 229.639C305.106 229.639 308.365 249.963 299.118 268.76H289.698Z" fill="#003090"/>
<path d="M273.475 262.27C273.475 262.27 274.474 280.727 282.889 282.615H302.12C310.536 280.727 311.535 262.27 311.535 262.27H273.475Z" fill="white"/>
<mask id="mask0_4294_14759" style="mask-type:luminance" maskUnits="userSpaceOnUse" x="273" y="262" width="39" height="21">
<path d="M273.475 262.27C273.475 262.27 274.474 280.727 282.889 282.615H302.12C310.536 280.727 311.535 262.27 311.535 262.27H273.475Z" fill="white"/>
</mask>
<g mask="url(#mask0_4294_14759)">
<path d="M282.461 268.168C275.761 268.168 270.332 273.597 270.332 280.297C270.332 286.997 275.761 292.42 282.461 292.42C289.161 292.42 294.584 286.991 294.584 280.297C294.584 273.602 289.155 268.168 282.461 268.168ZM282.461 287.133C278.685 287.133 275.62 284.073 275.62 280.297C275.62 276.521 278.685 273.456 282.461 273.456C286.237 273.456 289.297 276.521 289.297 280.297C289.297 284.073 286.237 287.133 282.461 287.133Z" fill="#4D89F5"/>
<path d="M298.705 246.627C292.005 246.627 286.576 252.056 286.576 258.756C286.576 265.456 292.005 270.879 298.705 270.879C305.405 270.879 310.829 265.45 310.829 258.756C310.829 252.061 305.4 246.627 298.705 246.627ZM298.705 268.458C293.344 268.458 288.998 264.117 288.998 258.756C288.998 253.395 293.349 249.049 298.705 249.049C304.061 249.049 308.407 253.4 308.407 258.756C308.407 264.111 304.066 268.458 298.705 268.458Z" fill="#4D89F5"/>
</g>
<path d="M273.475 262.27C273.475 262.27 274.474 280.727 282.889 282.615H302.12C310.536 280.727 311.535 262.27 311.535 262.27H273.475Z" stroke="black" stroke-width="0.261509" stroke-linecap="round" stroke-linejoin="round"/>
<path d="M295.205 262.269C295.205 262.269 297.883 255.904 300.461 253.854C300.461 253.854 306.225 260.716 306.22 274.178C306.22 274.178 299.258 270.078 297.674 262.264H295.205V262.269Z" fill="white" stroke="black" stroke-width="0.261509" stroke-linecap="round" stroke-linejoin="round"/>
<path d="M278.279 282.775H317.731" stroke="black" stroke-width="0.523018" stroke-miterlimit="10"/>
<path d="M206.883 299.811H304.708" stroke="#181820" stroke-width="0.523018" stroke-miterlimit="10"/>
<path d="M186.26 299.811H202.96" stroke="#181820" stroke-width="0.523018" stroke-miterlimit="10"/>
<path d="M191.981 123.137C192.712 123.137 193.305 122.544 193.305 121.813C193.305 121.083 192.712 120.49 191.981 120.49C191.251 120.49 190.658 121.083 190.658 121.813C190.658 122.544 191.251 123.137 191.981 123.137Z" fill="black"/>
<path d="M196.978 123.137C197.708 123.137 198.301 122.544 198.301 121.813C198.301 121.083 197.708 120.49 196.978 120.49C196.247 120.49 195.654 121.083 195.654 121.813C195.654 122.544 196.247 123.137 196.978 123.137Z" fill="black"/>
<path d="M201.978 123.137C202.708 123.137 203.301 122.544 203.301 121.813C203.301 121.083 202.708 120.49 201.978 120.49C201.247 120.49 200.654 121.083 200.654 121.813C200.654 122.544 201.247 123.137 201.978 123.137Z" fill="black"/>
<path d="M209.51 134.835L205.535 127.545C206.795 125.683 207.454 123.381 207.245 120.918C206.821 115.991 202.82 112.021 197.893 111.629C191.586 111.127 186.361 116.342 186.852 122.644C187.239 127.634 191.293 131.661 196.282 132.027C198.458 132.184 200.503 131.661 202.224 130.646L208.892 135.379C209.259 135.641 209.724 135.228 209.51 134.83V134.835Z" stroke="black" stroke-width="0.523018" stroke-miterlimit="10"/>
<path d="M298.155 141.176C310.509 141.176 320.524 131.161 320.524 118.807C320.524 106.453 310.509 96.4375 298.155 96.4375C285.8 96.4375 275.785 106.453 275.785 118.807C275.785 131.161 285.8 141.176 298.155 141.176Z" stroke="#181820" stroke-width="0.523018" stroke-miterlimit="10"/>
<path d="M298.128 118.747C297.636 119.239 296.841 119.239 296.355 118.747L285.753 108.146C285.262 107.654 285.262 106.859 285.753 106.373C286.245 105.881 287.04 105.881 287.527 106.373L298.128 116.974C298.62 117.466 298.62 118.261 298.128 118.747Z" fill="#4D89F5"/>
<path d="M301.744 118.807C301.744 120.789 300.138 122.395 298.156 122.395C296.174 122.395 294.568 120.789 294.568 118.807C294.568 116.824 296.174 115.219 298.156 115.219C300.138 115.219 301.744 116.824 301.744 118.807Z" fill="#4D89F5"/>
<path d="M299.395 118.806C299.395 119.491 298.841 120.046 298.156 120.046C297.47 120.046 296.916 119.491 296.916 118.806C296.916 118.121 297.47 117.566 298.156 117.566C298.841 117.566 299.395 118.121 299.395 118.806Z" fill="black"/>
<path d="M299.556 100.102C299.556 100.876 298.928 101.509 298.149 101.509C297.37 101.509 296.742 100.882 296.742 100.102C296.742 99.3229 297.37 98.6953 298.149 98.6953C298.928 98.6953 299.556 99.3229 299.556 100.102Z" fill="black"/>
<path d="M316.778 120.296C316.004 120.296 315.371 119.669 315.371 118.889C315.371 118.11 315.999 117.482 316.778 117.482C317.557 117.482 318.185 118.11 318.185 118.889C318.185 119.669 317.557 120.296 316.778 120.296Z" fill="black"/>
<path d="M296.58 137.514C296.58 136.74 297.208 136.107 297.987 136.107C298.766 136.107 299.394 136.735 299.394 137.514C299.394 138.294 298.766 138.921 297.987 138.921C297.208 138.921 296.58 138.294 296.58 137.514Z" fill="black"/>
<path d="M280.732 118.942C280.857 118.175 280.336 117.452 279.569 117.327C278.802 117.203 278.079 117.723 277.954 118.49C277.83 119.257 278.35 119.98 279.117 120.105C279.884 120.23 280.607 119.709 280.732 118.942Z" fill="black"/>
<path d="M298.072 118.806L313.658 105.662" stroke="black" stroke-width="0.523018" stroke-miterlimit="10" stroke-linecap="round"/>
<path d="M125.312 78V129.266" stroke="#181820" stroke-width="0.523018" stroke-miterlimit="10"/>
<path d="M125.311 157.363C129.37 157.363 132.66 154.073 132.66 150.014C132.66 145.956 129.37 142.666 125.311 142.666C121.253 142.666 117.963 145.956 117.963 150.014C117.963 154.073 121.253 157.363 125.311 157.363Z" fill="#E6E9E3" stroke="#181820" stroke-width="0.523018" stroke-miterlimit="10"/>
<path d="M130.046 135.162V131.401C130.046 128.786 127.927 126.668 125.312 126.668C122.697 126.668 120.579 128.786 120.579 131.401V135.162C115.333 136.987 107.598 141.176 107.598 150.021H143.027C143.027 141.182 135.297 136.992 130.046 135.162Z" fill="#181820"/>
<path d="M52.1367 78H198.618" stroke="#181820" stroke-width="0.523018" stroke-miterlimit="10"/>
<path d="M77.0391 78C77.0391 78 79.6437 92.3359 84.4502 92.3359C89.9942 92.3359 91.9294 78 91.9294 78C91.9294 78 91.8928 107.059 102.212 105.202C110.293 103.753 110.355 78 110.355 78C110.355 78 112.013 86.6612 116.757 86.6612C121.762 86.6612 122.777 78 122.777 78" stroke="#181820" stroke-width="0.523018" stroke-linecap="round" stroke-linejoin="round"/>
<path d="M56.8347 211.861C61.6644 211.861 65.5796 207.946 65.5796 203.116C65.5796 198.286 61.6644 194.371 56.8347 194.371C52.0051 194.371 48.0898 198.286 48.0898 203.116C48.0898 207.946 52.0051 211.861 56.8347 211.861Z" fill="black"/>
<path d="M66.8776 203.116C66.8776 197.566 62.3796 193.068 56.8304 193.068C51.2812 193.068 46.7832 197.566 46.7832 203.116C46.7832 206.808 48.7811 210.019 51.7414 211.766L52.39 217.064H61.2603L61.9089 211.766C64.8744 210.019 66.8671 206.803 66.8671 203.116H66.8776Z" stroke="#181820" stroke-width="0.261509" stroke-linecap="round" stroke-linejoin="round"/>
<path d="M61.7305 218.037H51.9344C51.4895 218.037 51.1289 218.398 51.1289 218.843C51.1289 219.287 51.4895 219.648 51.9344 219.648H61.7305C62.1753 219.648 62.5359 219.287 62.5359 218.843C62.5359 218.398 62.1753 218.037 61.7305 218.037Z" stroke="#181820" stroke-width="0.261509" stroke-linecap="round" stroke-linejoin="round"/>
<path d="M61.1079 220.523H52.5566C52.5566 220.523 51.8452 225.027 56.8296 225.027C61.814 225.027 61.1027 220.523 61.1027 220.523H61.1079Z" fill="#4D89F5"/>
<path d="M58.6556 217.069V203.068C58.6556 202.226 59.3407 201.541 60.1828 201.541C61.0248 201.541 61.71 202.226 61.71 203.068V203.168C61.71 204.01 61.0248 204.695 60.1828 204.695H56.8355H53.4881C52.6461 204.695 51.9609 204.01 51.9609 203.168V203.068C51.9609 202.226 52.6461 201.541 53.4881 201.541C54.3302 201.541 55.0154 202.226 55.0154 203.068V217.069" stroke="#181820" stroke-width="0.523018" stroke-linejoin="round"/>
<path d="M56.834 191.026V185.816" stroke="#181820" stroke-width="0.523018" stroke-linecap="round" stroke-linejoin="round"/>
<path d="M63.377 192.949L66.196 188.566" stroke="#181820" stroke-width="0.523018" stroke-linecap="round" stroke-linejoin="round"/>
<path d="M67.8398 198.106L72.5836 195.951" stroke="#181820" stroke-width="0.523018" stroke-linecap="round" stroke-linejoin="round"/>
<path d="M68.8008 204.861L73.9525 205.614" stroke="#181820" stroke-width="0.523018" stroke-linecap="round" stroke-linejoin="round"/>
<path d="M65.9512 211.061L69.879 214.481" stroke="#181820" stroke-width="0.523018" stroke-linecap="round" stroke-linejoin="round"/>
<path d="M50.2859 192.949L47.4668 188.566" stroke="#181820" stroke-width="0.523018" stroke-linecap="round" stroke-linejoin="round"/>
<path d="M45.8245 198.106L41.0859 195.951" stroke="#181820" stroke-width="0.523018" stroke-linecap="round" stroke-linejoin="round"/>
<path d="M44.8627 204.861L39.7109 205.614" stroke="#181820" stroke-width="0.523018" stroke-linecap="round" stroke-linejoin="round"/>
<path d="M47.713 211.061L43.7852 214.481" stroke="#181820" stroke-width="0.523018" stroke-linecap="round" stroke-linejoin="round"/>
<path d="M82.4622 128.633H31.2064C28.2717 128.633 25.8926 131.012 25.8926 133.947V165.453C25.8926 168.388 28.2717 170.767 31.2064 170.767H82.4622C85.397 170.767 87.7761 168.388 87.7761 165.453V133.947C87.7761 131.012 85.397 128.633 82.4622 128.633Z" stroke="#181820" stroke-width="0.523018" stroke-miterlimit="10"/>
<path d="M70.921 134.424C71.9204 134.424 72.7306 133.614 72.7306 132.614C72.7306 131.615 71.9204 130.805 70.921 130.805C69.9215 130.805 69.1113 131.615 69.1113 132.614C69.1113 133.614 69.9215 134.424 70.921 134.424Z" fill="#181820"/>
<path d="M76.7471 134.424C77.7466 134.424 78.5568 133.614 78.5568 132.614C78.5568 131.615 77.7466 130.805 76.7471 130.805C75.7477 130.805 74.9375 131.615 74.9375 132.614C74.9375 133.614 75.7477 134.424 76.7471 134.424Z" fill="#4D89F5"/>
<path d="M82.5733 134.424C83.5727 134.424 84.383 133.614 84.383 132.614C84.383 131.615 83.5727 130.805 82.5733 130.805C81.5739 130.805 80.7637 131.615 80.7637 132.614C80.7637 133.614 81.5739 134.424 82.5733 134.424Z" fill="#003090"/>
<path d="M45.3809 143.334L46.997 159.663C46.997 160.74 51.7094 161.613 57.5306 161.613C63.3518 161.613 68.0642 160.74 68.0642 159.663L69.6803 143.334H45.3809Z" fill="#4D89F5"/>
<path d="M69.6751 143.335H45.3809L46.7773 157.436L46.997 159.659C46.997 160.213 48.2627 160.72 50.292 161.076C51.0033 158.655 52.8391 155.244 57.5306 153.545C57.541 153.545 57.5463 153.534 57.5567 153.534L69.0788 149.366L69.6751 143.33V143.335Z" fill="black"/>
<path d="M57.5308 135.83L34.1152 144.298L57.5308 152.771L80.9463 144.298L57.5308 135.83Z" fill="#4D89F5"/>
<path d="M57.5308 135.83L34.1152 144.298L57.5308 152.771L80.9463 144.298L57.5308 135.83Z" stroke="black" stroke-width="0.261509" stroke-linecap="round" stroke-linejoin="round"/>
<path d="M57.5312 144.299L75.1151 146.407V159.493" stroke="black" stroke-width="0.523018" stroke-linecap="round" stroke-linejoin="round"/>
<path d="M75.7836 161.451C75.7836 161.451 76.4531 161.085 76.4217 160.269C76.3799 159.051 75.1141 159.051 75.1141 159.051C75.1141 159.051 73.8484 159.051 73.8066 160.269C73.7752 161.085 74.4447 161.451 74.4447 161.451C74.4447 161.451 72.8809 162.576 72.8809 166.98H77.3474C77.3474 162.571 75.7836 161.451 75.7836 161.451Z" fill="black"/>
<path d="M164.065 151.438C171.219 151.438 177.02 145.637 177.02 138.483C177.02 131.328 171.219 125.527 164.065 125.527C156.91 125.527 151.109 131.328 151.109 138.483C151.109 145.637 156.91 151.438 164.065 151.438Z" fill="white" stroke="black" stroke-width="0.523018" stroke-miterlimit="10"/>
<path d="M164.064 149.068C169.911 149.068 174.65 144.329 174.65 138.482C174.65 132.636 169.911 127.896 164.064 127.896C158.218 127.896 153.479 132.636 153.479 138.482C153.479 144.329 158.218 149.068 164.064 149.068Z" fill="black"/>
<path d="M177.154 129.304L164.062 138.483V122.494C169.476 122.494 174.267 125.188 177.154 129.309V129.304Z" fill="#4D89F5"/>
<path d="M216.725 93.8692L212.06 95.6108L216.725 97.3525V98.7594L210.496 96.3378V94.8786L216.725 92.457V93.864V93.8692Z" fill="#4D89F5"/>
<path d="M228.551 100.342L225.983 96.7491L223.441 100.342H221.443L224.958 95.5148L221.632 90.8809H223.619L226.041 94.2439L228.431 90.8809H230.335L227.024 95.4468L230.58 100.337H228.551V100.342Z" fill="#4D89F5"/>
<path d="M233.133 98.5058C233.342 98.7151 233.441 98.9818 233.441 99.3165C233.441 99.463 233.421 99.6094 233.379 99.7716C233.337 99.9285 233.253 100.164 233.128 100.483L232.437 102.387H231.344L231.883 100.321C231.684 100.242 231.527 100.112 231.417 99.9337C231.302 99.7559 231.25 99.5519 231.25 99.3165C231.25 98.9818 231.355 98.7151 231.559 98.5058C231.768 98.2966 232.029 98.1973 232.343 98.1973C232.657 98.1973 232.918 98.3019 233.128 98.5058H233.133Z" fill="#4D89F5"/>
<path d="M238.839 97.0054V100.342H237.082V97.0316L233.363 90.8809H235.241L238.013 95.4887L240.811 90.8809H242.542L238.839 97.0054Z" fill="#4D89F5"/>
<path d="M253.26 94.8831V96.3424L247.031 98.7639V97.357L251.697 95.6154L247.031 93.8737V92.4668L253.26 94.8884V94.8831Z" fill="#4D89F5"/>
<path d="M259.138 86.4883H204.613C203.816 86.4883 203.17 87.1346 203.17 87.9318V103.429C203.17 104.226 203.816 104.872 204.613 104.872H259.138C259.935 104.872 260.582 104.226 260.582 103.429V87.9318C260.582 87.1346 259.935 86.4883 259.138 86.4883Z" stroke="black" stroke-width="0.261509" stroke-linecap="round" stroke-linejoin="round"/>
<path d="M147.125 211.86L144.865 208.612L142.648 211.86H140.158L143.621 207.101L140.331 202.498H142.789L144.944 205.532L147.057 202.498H149.395L146.131 207.017L149.62 211.86H147.12H147.125Z" fill="#4D89F5"/>
<path d="M154.042 206.379V207.409H149.915V206.593L152.018 204.606C152.243 204.391 152.394 204.208 152.467 204.057C152.546 203.905 152.582 203.753 152.582 203.602C152.582 203.382 152.509 203.215 152.363 203.1C152.216 202.984 151.997 202.922 151.714 202.922C151.474 202.922 151.259 202.969 151.066 203.058C150.872 203.147 150.71 203.283 150.585 203.466L149.664 202.875C149.878 202.556 150.171 202.31 150.543 202.132C150.914 201.954 151.348 201.865 151.829 201.865C152.232 201.865 152.588 201.933 152.891 202.064C153.194 202.195 153.43 202.383 153.602 202.624C153.77 202.864 153.853 203.152 153.853 203.476C153.853 203.774 153.791 204.051 153.665 204.308C153.54 204.569 153.299 204.862 152.938 205.197L151.683 206.384H154.031L154.042 206.379Z" fill="#4D89F5"/>
<path d="M92.3059 105.828H62.3944C60.7711 105.828 59.4551 107.144 59.4551 108.767V119.249C59.4551 120.872 60.7711 122.188 62.3944 122.188H92.3059C93.9292 122.188 95.2452 120.872 95.2452 119.249V108.767C95.2452 107.144 93.9292 105.828 92.3059 105.828Z" fill="white"/>
<path d="M70.9768 118.863L68.6337 115.489L66.3324 118.863H63.7539L67.347 113.926L63.9317 109.15H66.4841L68.7174 112.299L70.9088 109.15H73.3356L69.9517 113.842L73.571 118.863H70.9768Z" fill="#4D89F5"/>
<path d="M75.6152 114.088H79.5431V115.824H75.6152V114.088Z" fill="#4D89F5"/>
<path d="M87.1735 115.421V118.863H84.9246V115.395L81.1641 109.15H83.549L86.1432 113.465L88.7374 109.15H90.9445L87.1683 115.421H87.1735Z" fill="#4D89F5"/>
<path d="M18.9457 202.782C22.7817 202.782 25.8914 199.672 25.8914 195.836C25.8914 192 22.7817 188.891 18.9457 188.891C15.1097 188.891 12 192 12 195.836C12 199.672 15.1097 202.782 18.9457 202.782Z" fill="white"/>
<path d="M331.954 246.196C335.79 246.196 338.899 243.086 338.899 239.25C338.899 235.414 335.79 232.305 331.954 232.305C328.118 232.305 325.008 235.414 325.008 239.25C325.008 243.086 328.118 246.196 331.954 246.196Z" stroke="white" stroke-width="0.523018" stroke-miterlimit="10"/>
<path d="M159.44 103.102C163.276 103.102 166.386 99.9926 166.386 96.1566C166.386 92.3206 163.276 89.2109 159.44 89.2109C155.604 89.2109 152.494 92.3206 152.494 96.1566C152.494 99.9926 155.604 103.102 159.44 103.102Z" stroke="white" stroke-width="1.04604" stroke-miterlimit="10"/>
<path d="M334.76 168.874C338.264 168.874 341.104 166.034 341.104 162.53C341.104 159.026 338.264 156.186 334.76 156.186C331.256 156.186 328.416 159.026 328.416 162.53C328.416 166.034 331.256 168.874 334.76 168.874Z" fill="#003090"/>
<path d="M322.701 165.746C323.903 165.746 324.877 164.772 324.877 163.57C324.877 162.369 323.903 161.395 322.701 161.395C321.5 161.395 320.525 162.369 320.525 163.57C320.525 164.772 321.5 165.746 322.701 165.746Z" fill="white"/>
<path d="M38.0487 118.81C41.8153 118.81 44.8688 115.757 44.8688 111.99C44.8688 108.223 41.8153 105.17 38.0487 105.17C34.282 105.17 31.2285 108.223 31.2285 111.99C31.2285 115.757 34.282 118.81 38.0487 118.81Z" fill="#003090"/>
<path d="M151.107 193.042C152.58 193.042 153.774 191.848 153.774 190.374C153.774 188.901 152.58 187.707 151.107 187.707C149.634 187.707 148.439 188.901 148.439 190.374C148.439 191.848 149.634 193.042 151.107 193.042Z" fill="white"/>
<path d="M49.3237 105.165C50.456 105.165 51.3739 104.247 51.3739 103.115C51.3739 101.982 50.456 101.064 49.3237 101.064C48.1914 101.064 47.2734 101.982 47.2734 103.115C47.2734 104.247 48.1914 105.165 49.3237 105.165Z" fill="white"/>
<path d="M327.579 248.747C329.737 248.747 331.486 246.998 331.486 244.841C331.486 242.683 329.737 240.934 327.579 240.934C325.421 240.934 323.672 242.683 323.672 244.841C323.672 246.998 325.421 248.747 327.579 248.747Z" fill="white"/>
<path d="M167.975 262.326C170.133 262.326 171.882 260.576 171.882 258.419C171.882 256.261 170.133 254.512 167.975 254.512C165.818 254.512 164.068 256.261 164.068 258.419C164.068 260.576 165.818 262.326 167.975 262.326Z" fill="white"/>
<path d="M323.408 118.805C349.716 117.481 365.605 145.651 356.343 166.619C346.96 187.864 317.53 186.917 318.183 177.984C318.691 171.023 340.506 178.136 335.296 198.398C331.159 214.486 309.125 216.729 296.588 206.541" stroke="black" stroke-width="0.261509" stroke-miterlimit="10"/>
<path d="M33.1112 210.801C25.8936 212.778 15.0409 222.924 20.2816 235.597C26.8245 251.424 55.5016 240.634 48.8802 235.597C43.7912 231.727 37.0077 255.89 56.8353 249.818" stroke="black" stroke-width="0.261509" stroke-miterlimit="10"/>
</svg>
