                                <svg width="24" height="25" viewBox="0 0 24 25" fill="none"
                                    xmlns="http://www.w3.org/2000/svg">
                                    <path
                                        d="M9 22.5H15C20 22.5 22 20.5 22 15.5V9.5C22 4.5 20 2.5 15 2.5H9C4 2.5 2 4.5 2 9.5V15.5C2 20.5 4 22.5 9 22.5Z"
                                        stroke="#003090" stroke-width="1.5" stroke-linecap="round"
                                        stroke-linejoin="round" />
                                    <g opacity="0.4">
                                        <path
                                            d="M18.3811 15.7693V8.07925C18.3811 7.30926 17.7611 6.74927 17.0011 6.80927H16.9611C15.6211 6.91927 13.5911 7.60928 12.4511 8.31928L12.3411 8.38928C12.1611 8.49928 11.8511 8.49928 11.6611 8.38928L11.5011 8.28928C10.3711 7.57928 8.3411 6.90926 7.0011 6.79926C6.2411 6.73926 5.62109 7.30928 5.62109 8.06928V15.7693C5.62109 16.3793 6.12108 16.9593 6.73108 17.0293L6.91107 17.0593C8.29107 17.2393 10.4311 17.9493 11.6511 18.6193L11.6811 18.6293C11.8511 18.7293 12.1311 18.7293 12.2911 18.6293C13.5111 17.9493 15.6611 17.2493 17.0511 17.0593L17.2611 17.0293C17.8811 16.9593 18.3811 16.3893 18.3811 15.7693Z"
                                            stroke="#003090" stroke-width="1.5" stroke-linecap="round"
                                            stroke-linejoin="round" />
                                        <path d="M12 8.59961V18.1596" stroke="#003090" stroke-width="1.5"
                                            stroke-linecap="round" stroke-linejoin="round" />
                                    </g>
                                </svg>