<svg width="150" height="150" viewBox="0 0 139 139" fill="none"
                    xmlns="http://www.w3.org/2000/svg" style="width:150px; height:150px;">
                    <path
                        d="M100.18 19.1344C97.0467 15.3677 92.7189 12.7869 87.9157 11.8209C83.2141 10.8597 77.465 10.7721 73.1894 13.1928C73.1247 13.2285 73.0688 13.2783 73.0259 13.3384C72.983 13.3986 72.9541 13.4675 72.9413 13.5403C63.1327 17.8535 56.2474 35.0297 66.0065 47.5633C66.7175 47.3076 67.3458 47.2082 68.1138 46.9601C67.5272 45.274 67.6586 43.4899 67.04 41.8115C66.5431 40.4646 66.2151 39.0433 66.3867 38.3073C66.5202 37.7374 67.8247 37.9279 68.3209 38.2413C69.4489 38.9537 69.7039 40.8371 70.089 42.2911C70.073 41.8942 70.7916 41.3876 71.1968 41.382C71.3976 41.3922 71.5933 41.449 71.7683 41.5479C71.9434 41.6468 72.0929 41.7851 72.2053 41.9519C72.4172 42.1764 72.5778 42.4444 72.6758 42.7373C72.659 42.5687 72.6935 42.399 72.7745 42.2502C72.8556 42.1015 72.9796 41.9806 73.1303 41.9033C73.3097 41.7806 73.5209 41.7129 73.7382 41.7085C73.9554 41.7041 74.1693 41.763 74.3535 41.8782C74.8817 42.1034 74.9651 42.1764 75.3703 42.7873C75.3126 42.2257 75.6344 42.2174 76.1966 42.2918C76.7282 42.3882 77.2017 42.6872 77.5171 43.1258C79.5869 45.568 78.7466 51.8598 77.5832 54.7615C81.9849 55.6509 86.5553 55.1242 90.6393 53.2567C94.7233 51.3892 98.1114 48.2769 100.318 44.3656C104.718 36.7999 106.004 26.3255 100.18 19.1344ZM93.4278 23.0959C92.5986 24.8716 91.2288 26.3026 90.0223 27.8399C82.1041 37.9292 84.2816 40.4889 81.8908 42.0541C81.7247 42.1521 81.5308 42.1923 81.3394 42.1684C81.148 42.1446 80.9699 42.0579 80.833 41.922C76.3405 36.4885 72.9482 33.5271 72.1059 32.192C72.0504 32.0939 72.0287 31.9803 72.0439 31.8687C72.0591 31.757 72.1105 31.6534 72.1902 31.5737C72.2699 31.494 72.3735 31.4427 72.4852 31.4274C72.5968 31.4122 72.7104 31.4339 72.8085 31.4894C74.824 32.593 79.9434 38.2545 81.4446 39.9851C81.8943 38.9961 82.1396 34.9908 88.9645 26.3825C90.0255 24.8869 91.3041 23.5582 92.7578 22.4405C93.1977 22.1361 93.6092 22.7046 93.4278 23.0931V23.0959Z"
                        fill="#003090" />
                    <path
                        d="M43.6986 66.1832C43.3024 65.9143 42.7256 65.9282 42.6561 66.5961C42.5866 67.264 43.5067 68.0792 44.028 67.6539C44.5492 67.2285 44.0947 66.4515 43.6986 66.1832Z"
                        fill="#191919" />
                    <path
                        d="M69.2045 43.3641C68.9751 42.0081 68.8167 39.7348 67.5184 38.9425C67.3287 38.8264 67.0083 38.9751 67.0805 39.2205C67.2939 39.9544 67.706 40.6014 67.9145 41.3444C68.3972 43.4273 68.7397 45.5402 68.9397 47.6689C68.0721 47.4932 67.1703 47.6485 66.4115 48.1042C65.6527 48.5599 65.0918 49.283 64.8392 50.1313C64.7585 50.5528 64.7754 50.9873 64.8885 51.4013C65.0016 51.8153 65.208 52.198 65.4918 52.52C66.2542 53.5748 67.1029 54.5644 68.0292 55.4786C68.1682 55.6114 68.4553 55.4724 68.335 55.2805C66.7504 52.7431 65.555 52.0641 65.4751 50.8506C65.4661 50.4198 65.5777 49.9951 65.7972 49.6243C66.0168 49.2536 66.3356 48.9516 66.7178 48.7524C67.4524 48.3458 68.1891 48.4383 68.9654 48.2812C68.9737 48.6366 68.9709 48.992 68.957 49.3473C68.9561 49.3992 68.9749 49.4494 69.0097 49.4878C69.0445 49.5263 69.0926 49.55 69.1443 49.5542C69.1959 49.5583 69.2473 49.5426 69.2878 49.5103C69.3283 49.4779 69.3549 49.4313 69.3622 49.38C69.6725 47.3816 69.6191 45.3435 69.2045 43.3641Z"
                        fill="#191919" />
                    <path
                        d="M70.7627 43.7866C70.79 43.6999 70.8426 43.6234 70.9138 43.5668C70.9849 43.5103 71.0713 43.4762 71.1619 43.4691C71.2526 43.462 71.3432 43.4822 71.4223 43.527C71.5014 43.5718 71.5653 43.6392 71.6057 43.7206C71.9125 44.3328 72.1774 44.9651 72.3987 45.6131C72.5954 46.3081 72.5377 47.2811 73.0103 47.8447C73.0381 47.8782 73.0733 47.9046 73.1132 47.922C73.153 47.9393 73.1964 47.9471 73.2397 47.9447C73.2831 47.9422 73.3253 47.9297 73.363 47.908C73.4006 47.8863 73.4327 47.856 73.4565 47.8197C73.8534 47.2109 73.5907 46.3067 73.4072 45.6652C73.1894 44.8884 72.864 44.1459 72.4404 43.4593C72.1576 43.0055 71.7628 42.4946 71.1589 42.5558C70.9012 42.6048 70.6702 42.746 70.509 42.9529C70.3478 43.1599 70.2676 43.4185 70.2832 43.6803C70.2727 43.9444 70.7307 44.0834 70.7627 43.7866Z"
                        fill="#191919" />
                    <path
                        d="M73.5596 43.6435C74.7237 42.5266 75.0191 45.2301 75.1046 45.8251C75.4014 47.9156 75.1741 48.0824 75.5591 48.5606C75.5841 48.5896 75.6152 48.6125 75.6503 48.6277C75.6854 48.643 75.7234 48.65 75.7616 48.6484C75.7998 48.6468 75.8371 48.6366 75.8708 48.6185C75.9045 48.6004 75.9336 48.5749 75.956 48.5439C76.382 47.9712 76.1457 47.0239 76.072 46.354C76.0128 45.5004 75.8518 44.6569 75.5925 43.8415C75.1991 42.7747 73.969 42.2118 73.1878 43.2966C73.0182 43.5295 73.3442 43.852 73.5596 43.6435Z"
                        fill="#191919" />
                    <path
                        d="M76.1979 43.9833C77.1709 44.1626 77.1542 45.7681 77.2147 46.5117C77.3535 48.2993 77.214 50.0976 76.8012 51.8424C76.5082 52.6267 76.3212 53.4466 76.2452 54.2804C76.2542 54.5035 76.5266 54.7266 76.7247 54.5278C77.4767 53.7758 77.6595 52.5367 77.8652 51.5282C78.1014 50.3449 78.2068 49.1393 78.1794 47.933C78.1522 46.543 78.244 43.3022 76.1708 43.4377C75.8421 43.4593 75.9255 43.9326 76.1979 43.9833Z"
                        fill="#191919" />
                    <path d="M69.2305 87.2461C69.2738 87.2806 69.2826 87.2894 69.2305 87.2461V87.2461Z"
                        fill="#191919" />
                    <path
                        d="M21.8368 118.555C22.848 113.075 23.6007 107.435 22.7792 101.886C22.7201 101.489 22.0773 101.589 22.0842 101.977C22.3059 113.371 20.0534 120.97 18.0261 130.75C17.7731 131.974 17.2553 133.387 17.2908 134.642C17.3262 135.88 18.4723 135.652 18.5467 134.981L18.6384 134.138C18.5487 133.513 20.8103 124.116 21.8368 118.555Z"
                        fill="#191919" />
                    <path
                        d="M81.1634 79.8506C80.5156 73.2564 79.854 66.4829 77.9323 60.1244C77.7329 59.4634 76.6917 59.6282 76.8495 60.3329C77.9778 65.6516 78.8303 71.0251 79.4036 76.4319C80.0465 81.8779 80.5942 87.4066 79.9409 92.8776C79.3793 97.5717 78.0894 102.654 73.9326 105.422C70.4701 107.728 66.1486 109.149 62.1808 108.092C56.9989 106.711 55.6687 105.273 51.867 101.662C51.8146 101.604 51.7416 101.568 51.6634 101.563C51.5852 101.557 51.5079 101.583 51.4478 101.633C51.3877 101.683 51.3496 101.755 51.3415 101.833C51.3333 101.911 51.3558 101.989 51.4042 102.051C53.6525 105.137 56.1809 107.333 59.0401 108.514C59.1902 110.443 59.4525 112.361 59.8255 114.259C62.0175 129.483 60.8527 131.366 61.5275 135.274C61.5866 135.613 62.1072 135.581 62.1892 135.274C62.773 133.094 62.5832 130.696 62.495 128.463C62.242 122.069 61.0563 112.59 60.0236 108.877C63.7015 110.084 67.8722 109.715 72.569 107.654C77.443 105.515 79.4217 101.824 80.5851 96.9267C81.9126 91.3375 81.7229 85.5454 81.1634 79.8506Z"
                        fill="#191919" />
                    <path
                        d="M131.177 9.36519C130.568 7.58808 129.169 5.51489 127.367 5.03465C126.119 4.78759 124.854 4.63841 123.582 4.58846C106.227 2.82663 93.605 3.66689 79.6661 3.71276C79.584 3.71046 79.5032 3.73352 79.4347 3.77878C64.3754 4.24026 51.6944 3.31522 35.3724 5.81166C34.1332 6.00139 32.8704 6.05004 31.8355 6.89447C30.1724 8.25528 29.3842 10.3903 29.0673 12.5386C27.8622 20.6958 28.3153 40.1495 28.8192 49.3972C29.0548 53.7236 29.1667 59.1223 32.4638 61.9176C31.8106 62.5476 31.3835 63.3755 31.2489 64.273C30.5136 68.4138 32.8877 70.3973 34.2242 73.4212C34.7985 74.4303 35.7446 75.1749 36.8604 75.4958C36.9813 76.6036 36.8191 77.7239 36.3892 78.7519C29.5128 79.4469 25.4366 81.3658 19.9177 84.9916C17.0757 86.7631 14.3935 88.7788 11.9015 91.0159C7.32356 95.3297 4.47962 101.082 5.63749 107.462C6.89266 114.379 12.3005 120.466 18.3143 123.833C18.8606 124.139 19.2588 123.376 18.7938 123.015C16.4003 121.157 13.9518 119.428 11.9015 117.172C6.75158 111.505 5.55618 105.116 7.12479 100.123C9.0138 94.1121 14.1867 90.0978 19.3971 86.6193C22.1092 84.6668 25.0308 83.0231 28.1075 81.7189C34.0644 79.4407 40.5786 79.2864 46.8593 79.8424C50.5699 80.1718 54.7191 81.4617 58.2803 82.5946C61.8095 83.7177 67.9658 87.5117 69.2717 87.6604C69.2717 87.6604 70.547 87.9891 69.7922 87.0988C69.2237 86.4275 67.3709 85.4378 65.0072 84.3383C65.0814 84.315 65.1484 84.2732 65.2019 84.2168C65.2555 84.1603 65.2937 84.0912 65.313 84.0158C65.4492 82.8689 65.4576 81.7104 65.338 80.5617C65.1614 68.7251 67.7184 60.6576 68.4703 57.0088C68.4828 56.9619 68.4807 56.9123 68.4645 56.8665C68.4482 56.8208 68.4185 56.781 68.3793 56.7524C69.7839 56.8267 71.1975 56.7524 72.6021 56.8017C73.9741 56.8511 75.4787 57.2097 76.8333 57.0102C76.9016 56.9957 76.9634 56.9595 77.0095 56.907C77.0556 56.8545 77.0836 56.7885 77.0892 56.7189C77.0948 56.6493 77.0778 56.5797 77.0407 56.5205C77.0036 56.4613 76.9484 56.4156 76.8833 56.3903C75.5712 55.8558 73.8754 55.9684 72.4784 55.9441C70.9966 55.8703 69.5111 55.9589 68.0485 56.2082C67.9894 56.2216 67.9367 56.2546 67.8989 56.3019C67.8612 56.3492 67.8406 56.4079 67.8406 56.4685C67.8406 56.529 67.8612 56.5877 67.8989 56.635C67.9367 56.6823 67.9894 56.7154 68.0485 56.7287C67.3827 57.1096 64.2128 68.7522 64.3963 81.092C64.4046 81.6924 64.3608 83.5342 64.6854 84.1826C59.9086 81.9843 53.1157 79.5185 49.4211 79.0758C47.5446 78.8506 45.6361 78.6789 43.727 78.5893C43.383 77.6563 43.2312 76.6634 43.2808 75.6703C44.2809 75.8093 45.347 75.6779 45.8592 74.8189C46.7023 73.4053 45.6723 71.6288 45.5951 70.1492C45.5931 70.0881 45.5695 70.0297 45.5284 69.9844C45.4873 69.9391 45.4315 69.9099 45.3709 69.9019C45.3102 69.894 45.2488 69.9079 45.1974 69.9411C45.1461 69.9743 45.1082 70.0246 45.0906 70.0832C44.5902 71.3293 45.5298 72.5546 45.322 73.8188C45.0259 75.6209 43.0507 74.2935 41.9589 74.7112C41.8927 74.7317 41.8349 74.7729 41.7938 74.8287C41.7527 74.8844 41.7306 74.9519 41.7306 75.0211C41.7306 75.0904 41.7527 75.1579 41.7938 75.2136C41.8349 75.2694 41.8927 75.3106 41.9589 75.3311C42.2235 75.4278 42.4939 75.5079 42.7686 75.5709C42.6476 76.2569 42.6476 76.9588 42.7686 77.6448C42.8107 77.9488 42.8686 78.2503 42.9423 78.5483C41.0794 78.4844 39.2143 78.5201 37.3552 78.6553C37.4388 78.3237 37.4997 77.9868 37.5373 77.6469C37.6337 76.9882 37.6196 76.318 37.4956 75.664C38.0794 75.8243 38.6843 75.8946 39.2894 75.8725C41.0908 75.7627 42.1389 73.5999 41.3556 71.9555C42.3578 71.9555 43.2419 70.8331 42.5038 70.1534C42.4667 70.1188 42.4205 70.0956 42.3707 70.0865C42.3208 70.0773 42.2694 70.0826 42.2225 70.1018C42.1756 70.1209 42.1351 70.1531 42.1059 70.1945C42.0767 70.2359 42.0599 70.2848 42.0576 70.3354C41.8345 72.2043 39.7418 70.2534 39.4958 69.3354C39.2456 68.402 40.1804 67.1718 41.1986 67.9551C41.446 68.1455 41.7017 67.6993 41.6364 67.4429C41.5523 67.1127 41.4877 66.7736 41.3966 66.4428C41.5483 66.3201 41.6891 66.1848 41.8178 66.0383C42.5261 65.6625 43.1984 65.2225 43.8263 64.724C44.4369 66.3435 45.4399 67.7861 46.7453 68.9225C46.5718 69.0332 46.3764 69.1052 46.1726 69.1337C45.9687 69.1621 45.7611 69.1462 45.5639 69.0872C45.4641 69.0596 45.3575 69.0727 45.2674 69.1236C45.1774 69.1746 45.1113 69.2593 45.0836 69.359C45.056 69.4587 45.0691 69.5653 45.12 69.6554C45.171 69.7454 45.2556 69.8116 45.3553 69.8392C45.7529 69.9511 46.1737 69.9501 46.5707 69.8363C46.9676 69.7225 47.3251 69.5004 47.603 69.195C47.6747 69.1223 47.7149 69.0243 47.7149 68.9222C47.7149 68.8201 47.6747 68.7221 47.603 68.6494C45.1705 66.5964 44.5088 64.4446 44.2559 64.3404C44.3386 64.266 44.4213 64.1833 44.504 64.1089C48.3637 64.2811 52.2304 64.215 56.082 63.9109C59.083 63.6614 62.0534 64.0388 65.2059 63.9852C65.2636 63.7621 65.313 63.5307 65.3713 63.2993C62.3828 63.2993 60.6683 63.1533 57.8918 63.0678C55.544 62.9983 54.635 63.5502 45.2476 63.316C47.2464 60.8835 47.3041 57.9645 46.165 56.2826C45.7356 55.6057 45.1103 55.0755 44.3722 54.7625C43.6342 54.4495 42.8184 54.3686 42.0332 54.5305C40.4702 54.9475 39.6063 56.4417 38.8265 57.7275C37.2725 60.2927 36.8034 60.2232 34.4793 60.8431C34.0111 60.9625 33.5629 61.1498 33.1491 61.3991C30.8278 59.5755 30.2537 56.548 29.9423 53.5456C29.2168 46.5435 28.8998 25.3794 29.5538 16.3979C29.6928 14.4644 29.738 12.2279 30.4796 10.4146C30.9092 9.17935 31.7085 8.10614 32.7689 7.34066C33.245 7.05293 33.4542 6.99663 37.0994 6.4726C51.2434 4.44042 63.8319 5.09372 77.2385 4.78723C95.8255 4.36189 109.262 3.93029 125.741 5.77899C127.014 5.92147 127.924 6.10008 128.84 7.11756C130.148 8.57011 130.61 10.3403 130.94 12.2661C132.33 20.3976 133.04 44.8686 132.584 52.2981C132.44 54.6535 132.07 57.3542 130.667 59.2731C129.707 60.586 128.213 60.8362 126.766 61.0662C121.021 61.9816 96.7784 62.2206 84.8501 62.7342C84.4143 62.753 83.7895 62.8142 80.1561 62.8732C80.1887 63.047 80.1644 63.3444 80.1971 63.5099C80.2666 63.5099 116.407 62.803 121.023 62.5515C122.576 62.466 124.138 62.3631 125.692 62.1789C127.12 62.1104 128.525 61.7887 129.84 61.2289C131.421 60.4143 132.263 58.5927 132.782 56.89C133.553 54.3623 133.597 51.6177 133.616 48.9732C133.665 42.4326 133.283 15.5104 131.177 9.36519Z"
                        fill="#191919" />
                </svg>