<svg width="227" height="227" viewBox="0 0 227 227" fill="none" xmlns="http://www.w3.org/2000/svg">
<path d="M170.785 220.487C170.785 222.21 146.227 223.607 115.932 223.607C85.6368 223.607 61.0781 222.21 61.0781 220.487C61.0781 218.764 85.6368 217.367 115.932 217.367C146.227 217.367 170.785 218.764 170.785 220.487Z" fill="#263238"/>
<path d="M70.353 127.634L46.8177 119.674C45.9128 119.368 44.9122 119.608 44.2458 120.293L26.9143 138.094C26.32 138.705 26.0803 139.578 26.2801 140.406L30.8242 159.275L76.5143 148.272L71.9702 129.403C71.7709 128.574 71.1602 127.907 70.353 127.634Z" fill="white" stroke="#9ABAE3" stroke-width="1.135" stroke-miterlimit="10" stroke-linecap="round" stroke-linejoin="round"/>
<path d="M73.9718 137.703L71.8316 138.218C70.6399 138.505 69.5303 139.063 68.5883 139.847L53.9858 155.079L34.1837 148.142C32.982 147.867 31.7326 147.875 30.534 148.163L28.2812 148.706L34.4325 174.249L80.1231 163.247L73.9718 137.703Z" fill="white" stroke="#9ABAE3" stroke-width="1.135" stroke-miterlimit="10" stroke-linecap="round" stroke-linejoin="round"/>
<path d="M80.1222 163.249L34.4316 174.252L48.4353 153.14C49.0187 152.348 49.8631 151.788 50.8197 151.557L55.1994 150.503C56.156 150.273 57.163 150.387 58.0433 150.827L80.1222 163.249Z" fill="white" stroke="#9ABAE3" stroke-width="1.135" stroke-miterlimit="10" stroke-linecap="round" stroke-linejoin="round"/>
<path d="M188.365 160.731L186.631 160.387C185.666 160.195 184.669 160.228 183.719 160.483L167.95 166.674L155.85 154.955C155.065 154.351 154.152 153.936 153.182 153.743L151.357 153.381L147.248 174.071L184.255 181.421L188.365 160.731Z" fill="white" stroke="#9ABAE3" stroke-width="1.135" stroke-miterlimit="10" stroke-linecap="round" stroke-linejoin="round"/>
<path d="M184.258 181.423L147.25 174.073L164.56 163.395C165.252 163.013 166.056 162.889 166.831 163.043L170.379 163.747C171.153 163.901 171.849 164.324 172.343 164.941L184.258 181.423Z" fill="white" stroke="#9ABAE3" stroke-width="1.135" stroke-miterlimit="10" stroke-linecap="round" stroke-linejoin="round"/>
<path d="M151.835 155.779L166.313 169.499C166.87 170.026 167.68 170.187 168.397 169.912L187.019 162.766C187.657 162.521 188.126 161.966 188.259 161.295L188.961 157.76C189.078 157.173 188.696 156.603 188.11 156.487L153.226 149.558C152.64 149.441 152.07 149.823 151.953 150.409L151.251 153.944C151.118 154.616 151.338 155.308 151.835 155.779Z" fill="white" stroke="#9ABAE3" stroke-width="1.135" stroke-miterlimit="10" stroke-linecap="round" stroke-linejoin="round"/>
<path d="M196.777 57.016C195.35 56.4063 194.405 55.699 193.465 55.1809C194.111 56.0513 194.951 56.8953 195.758 58.2409C196.696 59.799 196.719 63.0642 193.795 63.7339C190.871 64.4058 189.469 61.458 189.633 59.6442C189.773 58.0988 190.155 56.982 190.357 55.9269C189.728 56.8108 189.185 57.8709 188.154 59.0558C186.961 60.4292 183.863 61.4611 182.322 58.886C180.78 56.311 183.152 54.0686 184.926 53.6641C186.436 53.32 187.616 53.3373 188.682 53.2033C187.648 52.8783 186.471 52.6885 185.029 52.0769C183.355 51.3655 181.417 48.7387 183.389 46.4764C185.361 44.2159 188.228 45.7763 189.16 47.3395C189.955 48.671 190.303 49.7983 190.759 50.7694C190.749 49.6857 190.565 48.5094 190.702 46.9468C190.86 45.1344 192.76 42.4794 195.52 43.6562C198.28 44.8325 197.681 48.0413 196.484 49.4111C195.463 50.5797 194.497 51.2593 193.714 51.9925C194.741 51.6484 195.804 51.1104 197.333 50.7572C199.106 50.3472 202.218 51.3324 201.952 54.322C201.686 57.3111 198.449 57.732 196.777 57.016Z" fill="white" stroke="#9ABAE3" stroke-width="1.135" stroke-miterlimit="10" stroke-linecap="round" stroke-linejoin="round"/>
<path d="M193.605 54.1594C193.1 55.3448 191.73 55.8964 190.544 55.3911C189.359 54.8858 188.807 53.5151 189.312 52.3293C189.818 51.1439 191.188 50.5923 192.374 51.0976C193.559 51.6029 194.111 52.9735 193.605 54.1594Z" fill="white" stroke="#9ABAE3" stroke-width="1.135" stroke-miterlimit="10" stroke-linecap="round" stroke-linejoin="round"/>
<path d="M38.0396 52.4115C37.1956 53.1107 36.4451 53.4762 35.8159 53.8989C36.5718 53.7745 37.3736 53.5193 38.48 53.4471C39.7621 53.3618 41.8209 54.4028 41.2961 56.4571C40.7731 58.5115 38.4677 58.4393 37.3813 57.7501C36.4556 57.1627 35.8776 56.5611 35.2797 56.093C35.6316 56.774 36.1219 57.4582 36.5332 58.4888C37.0108 59.6819 36.6576 61.9619 34.5411 62.0985C32.4245 62.2347 31.7826 60.0197 32.1022 58.7739C32.3741 57.7143 32.7664 56.9779 33.0265 56.2651C32.4881 56.8099 31.9882 57.4877 31.1379 58.1964C30.15 59.0177 27.8727 59.3868 27.0891 57.416C26.306 55.4461 28.2137 54.1499 29.4967 54.0696C30.5903 54.0005 31.4112 54.1463 32.1689 54.1735C31.4847 53.8298 30.6861 53.5647 29.7486 52.9736C28.6613 52.2881 27.6071 50.2364 29.2388 48.8822C30.8705 47.5283 32.6924 48.9421 33.1659 50.1375C33.5704 51.1562 33.6848 51.983 33.8927 52.7121C34.0085 51.9557 34.0144 51.114 34.2864 50.0389C34.6019 48.7927 36.2268 47.156 38.0196 48.2892C39.812 49.4224 39.0298 51.5925 38.0396 52.4115Z" fill="white" stroke="#9ABAE3" stroke-width="1.135" stroke-miterlimit="10" stroke-linecap="round" stroke-linejoin="round"/>
<path d="M35.2183 53.4824C35.7998 54.183 35.7031 55.2226 35.0026 55.8042C34.3021 56.3858 33.2624 56.2891 32.6809 55.5886C32.0993 54.8876 32.196 53.8484 32.8965 53.2668C33.597 52.6852 34.6367 52.7819 35.2183 53.4824Z" fill="white" stroke="#9ABAE3" stroke-width="1.135" stroke-miterlimit="10" stroke-linecap="round" stroke-linejoin="round"/>
<path d="M207.832 143.912C206.988 144.611 206.237 144.976 205.608 145.399C206.364 145.275 207.166 145.019 208.272 144.947C209.554 144.862 211.613 145.903 211.088 147.957C210.565 150.012 208.26 149.939 207.174 149.25C206.248 148.663 205.67 148.061 205.072 147.593C205.424 148.274 205.914 148.958 206.326 149.989C206.803 151.182 206.45 153.462 204.333 153.599C202.217 153.735 201.575 151.52 201.895 150.274C202.166 149.214 202.559 148.478 202.819 147.765C202.281 148.31 201.781 148.988 200.931 149.696C199.943 150.518 197.666 150.887 196.882 148.916C196.099 146.946 198.006 145.65 199.289 145.57C200.383 145.501 201.204 145.646 201.962 145.674C201.278 145.33 200.479 145.065 199.541 144.474C198.454 143.788 197.4 141.736 199.032 140.382C200.663 139.028 202.485 140.442 202.959 141.638C203.363 142.656 203.478 143.483 203.686 144.212C203.801 143.456 203.807 142.614 204.079 141.539C204.395 140.292 206.02 138.656 207.812 139.789C209.604 140.922 208.822 143.093 207.832 143.912Z" fill="white" stroke="#9ABAE3" stroke-width="1.135" stroke-miterlimit="10" stroke-linecap="round" stroke-linejoin="round"/>
<path d="M205.011 144.982C205.593 145.683 205.496 146.723 204.796 147.304C204.095 147.886 203.055 147.789 202.474 147.089C201.892 146.388 201.989 145.348 202.689 144.767C203.39 144.185 204.43 144.282 205.011 144.982Z" fill="white" stroke="#9ABAE3" stroke-width="1.135" stroke-miterlimit="10" stroke-linecap="round" stroke-linejoin="round"/>
<path d="M93.5352 206.639L93.7444 214.196H109.335L110.801 206.639H93.5352Z" fill="#DFDFDF" stroke="#263238" stroke-width="0.454" stroke-miterlimit="10" stroke-linecap="round" stroke-linejoin="round"/>
<path d="M109.334 214.192V220.491H86.5801L93.7447 214.192L93.2834 212.732H109.618L109.334 214.192Z" fill="#003090" stroke="#263238" stroke-width="0.454" stroke-miterlimit="10" stroke-linecap="round" stroke-linejoin="round"/>
<path d="M109.335 221.161V214.193C107.661 214.511 103.514 218.196 102.059 218.484C100.604 218.771 98.8533 217.852 97.6825 217.977C96.5116 218.102 95.5096 218.729 94.7578 218.729C94.006 218.729 92.3834 216.881 90.5642 216.99C88.745 217.1 85.1198 221.161 86.5813 221.161C88.0427 221.161 109.335 221.161 109.335 221.161Z" fill="white" stroke="#263238" stroke-width="0.454" stroke-miterlimit="10" stroke-linecap="round" stroke-linejoin="round"/>
<path d="M95.9343 215.857C95.9343 215.857 94.2327 214.627 92.0117 215.31" stroke="#263238" stroke-width="0.454" stroke-miterlimit="10" stroke-linecap="round" stroke-linejoin="round"/>
<path d="M96.3941 214.531C96.3941 214.531 94.6126 213.421 92.4434 214.253" stroke="#263238" stroke-width="0.454" stroke-miterlimit="10" stroke-linecap="round" stroke-linejoin="round"/>
<path d="M118.551 133.266H96.6854C93.5296 144.321 90.0098 176.227 90.2586 178.909C90.5074 181.591 90.9346 209.906 90.9346 209.906C90.9346 209.906 93.9882 212.16 98.3452 210.845C111.34 206.922 111.712 211.171 111.712 211.171C111.712 211.171 113.811 209.735 113.98 208.049C114.45 203.366 113.911 194.514 114.155 188.88C114.487 181.217 112.693 174.09 112.693 174.09C113.385 170.498 118.551 133.266 118.551 133.266Z" fill="#9ABAE3" stroke="#263238" stroke-width="0.454" stroke-miterlimit="10" stroke-linecap="round" stroke-linejoin="round"/>
<path d="M110.438 209.914C110.695 210.074 111.02 210.291 111.303 210.52C111.595 210.756 111.808 210.98 111.883 211.149C111.917 211.227 111.909 211.261 111.903 211.273C111.896 211.289 111.864 211.337 111.732 211.388C111.123 211.62 110.582 211.66 110.196 211.644C110.036 211.637 109.903 211.618 109.803 211.601L110.257 209.805C110.311 209.837 110.373 209.873 110.438 209.914Z" fill="#263238" stroke="#263238" stroke-width="0.454"/>
<path d="M114.432 136.537L108.604 172.374L106.256 172.907L108.587 174.378L106.95 176.298L108.587 177.197C108.587 177.197 109.512 182.387 109.334 188.067C109.157 193.747 109.334 205.023 109.334 205.023" stroke="#263238" stroke-width="0.454" stroke-miterlimit="10" stroke-linecap="round" stroke-linejoin="round"/>
<path d="M129.332 204.958L133.502 211.264L146.74 203.027L143.992 195.836L129.332 204.958Z" fill="#DFDFDF" stroke="#263238" stroke-width="0.454" stroke-miterlimit="10" stroke-linecap="round" stroke-linejoin="round"/>
<path d="M146.737 203.031L150.065 208.378L130.746 220.399L133.502 211.266L132.339 210.271L146.208 201.641L146.737 203.031Z" fill="#003090" stroke="#263238" stroke-width="0.454" stroke-miterlimit="10" stroke-linecap="round" stroke-linejoin="round"/>
<path d="M150.419 208.947L146.738 203.031C145.485 204.185 143.911 209.505 142.827 210.518C141.744 211.53 139.772 211.675 138.844 212.4C137.916 213.125 137.396 214.186 136.758 214.583C136.119 214.981 133.765 214.269 132.279 215.323C130.792 216.377 129.859 221.74 131.1 220.968C132.342 220.196 150.419 208.947 150.419 208.947Z" fill="white" stroke="#263238" stroke-width="0.454" stroke-miterlimit="10" stroke-linecap="round" stroke-linejoin="round"/>
<path d="M136.233 211.519C136.233 211.519 134.138 211.373 132.613 213.127" stroke="#263238" stroke-width="0.454" stroke-miterlimit="10" stroke-linecap="round" stroke-linejoin="round"/>
<path d="M135.923 210.148C135.923 210.148 133.824 210.147 132.422 211.999" stroke="#263238" stroke-width="0.454" stroke-miterlimit="10" stroke-linecap="round" stroke-linejoin="round"/>
<path d="M133.407 133.266C133.407 133.266 137.685 145.486 135.647 150.098C135.009 151.54 137.057 168.202 136.366 171.793C136.366 171.793 140.464 176.073 142.392 184.278C143.571 189.298 147.428 193.17 148.442 196.958C148.936 198.805 147.87 201.126 147.87 201.126C147.87 201.126 146.095 195.511 134.753 205.908C131.427 208.957 129.047 207.683 129.047 207.683C129.047 207.683 116.53 180.379 115.983 177.742C115.514 175.482 114.514 161.861 113.528 151.726L108.235 150.355C108.235 150.355 106.815 136.645 106.846 133.266H133.407V133.266Z" fill="#9ABAE3"/>
<path d="M147.869 201.127C147.869 201.127 147.974 199.97 146.079 200.191C146.238 199.428 146.074 198.174 145.856 197.364C144.827 193.515 140.923 189.548 139.724 184.449C137.767 176.118 133.605 171.771 133.605 171.771C134.309 168.125 132.241 151.23 132.886 149.766C134.681 145.707 131.659 135.673 130.818 133.266H133.406C133.406 133.266 137.686 145.486 135.644 150.098C135.01 151.54 137.056 168.203 136.366 171.793C136.366 171.793 140.462 176.073 142.39 184.279C143.569 189.297 147.427 193.168 148.44 196.958C148.934 198.805 147.869 201.127 147.869 201.127Z" fill="white"/>
<path d="M146.408 200.418C146.892 200.431 147.349 200.504 147.668 200.64C147.863 200.723 147.98 200.818 148.035 200.91C148.083 200.989 148.101 201.093 148.035 201.251C147.873 201.64 147.595 201.973 147.35 202.211C147.276 202.283 147.204 202.344 147.143 202.396L146.408 200.418Z" fill="#263238" stroke="#263238" stroke-width="0.454"/>
<path d="M106.846 133.266H133.407C133.407 133.266 137.685 145.486 135.646 150.098C135.009 151.54 137.057 168.202 136.365 171.793C136.365 171.793 140.463 176.073 142.391 184.278C143.571 189.298 147.428 193.17 148.442 196.958C148.936 198.805 147.87 201.126 147.87 201.126C147.87 201.126 146.095 195.511 134.753 205.908C131.426 208.957 129.046 207.683 129.046 207.683C129.046 207.683 116.53 180.379 115.982 177.742C115.513 175.482 114.514 161.861 113.527 151.726L108.235 150.355" stroke="#263238" stroke-width="0.454" stroke-miterlimit="10" stroke-linecap="round" stroke-linejoin="round"/>
<path d="M112.754 137.416L113.527 151.3" stroke="#263238" stroke-width="0.454" stroke-miterlimit="10" stroke-linecap="round" stroke-linejoin="round"/>
<path d="M107.463 136.471L108.236 150.354" stroke="#263238" stroke-width="0.454" stroke-miterlimit="10" stroke-linecap="round" stroke-linejoin="round"/>
<path d="M105.795 149.795C107.519 150.275 116.903 152.545 116.903 152.545" stroke="#263238" stroke-width="0.454" stroke-miterlimit="10" stroke-linecap="round" stroke-linejoin="round"/>
<path d="M129.046 144.95C129.046 144.95 124.146 144.026 122.598 141.962C121.051 139.899 120.879 136.471 120.879 136.471" stroke="#263238" stroke-width="0.454" stroke-miterlimit="10" stroke-linecap="round" stroke-linejoin="round"/>
<path d="M96.1758 144.95C96.1758 144.95 100.436 144.026 101.782 141.962C103.127 139.899 103.276 136.471 103.276 136.471" stroke="#263238" stroke-width="0.454" stroke-miterlimit="10" stroke-linecap="round" stroke-linejoin="round"/>
<path d="M130.523 135.775C130.523 135.775 132.849 145.532 132.616 147.282C132.315 149.54 131.464 151.172 131.464 151.172L132.425 172.376C132.425 172.376 136.512 178.833 138.036 183.655C139.559 188.477 143.073 195.84 143.073 195.84" stroke="#263238" stroke-width="0.454" stroke-miterlimit="10" stroke-linecap="round" stroke-linejoin="round"/>
<path d="M168.091 88.1974C167.569 90.1364 165.337 93.1578 162.532 95.0342C161.091 97.2742 157.349 101.635 157.349 101.635L147.887 92.504C152.06 88.2796 154.662 84.8432 154.662 84.8432C157.133 81.6471 156.2 76.5496 157.821 76.3571C160.91 75.9902 160.356 83.3232 160.356 83.3232C160.356 83.3232 168.511 86.6179 168.091 88.1974Z" fill="#DFDFDF" stroke="#263238" stroke-width="0.454" stroke-miterlimit="10" stroke-linecap="round" stroke-linejoin="round"/>
<path d="M63.1892 99.2539C64.0664 101.06 66.8271 103.608 69.9352 104.923C71.7712 106.852 76.2676 110.431 76.2676 110.431L83.8431 99.6833C78.9494 96.3192 75.7473 93.4336 75.7473 93.4336C72.7192 90.7591 72.6765 85.5771 71.0493 85.6933C67.9458 85.9144 68.27 92.1996 68.27 92.1996C68.27 92.1996 62.4792 97.7815 63.1892 99.2539Z" fill="#DFDFDF" stroke="#263238" stroke-width="0.454" stroke-miterlimit="10" stroke-linecap="round" stroke-linejoin="round"/>
<path d="M61.4652 20.5267L65.5312 92.123L162.892 86.5938L158.826 14.9975L61.4652 20.5267Z" fill="white" stroke="#263238" stroke-width="0.454" stroke-miterlimit="10" stroke-linecap="round" stroke-linejoin="round"/>
<path d="M84.3799 39.9902C84.8737 39.963 85.2477 40.0606 85.5225 40.2559C85.791 40.4468 85.937 40.7158 85.958 41.0869C85.9789 41.4582 85.8641 41.7408 85.6191 41.9609C85.3692 42.1853 85.0104 42.324 84.5195 42.3535L82.1377 42.3623L81.9072 42.3633L81.9121 42.5938C81.9471 44.4501 82.0147 46.2622 82.1152 48.0303V48.0361L82.6074 53.7344V53.7354C82.6492 54.472 82.5475 54.9916 82.3389 55.3271C82.1396 55.6474 81.8248 55.8296 81.3535 55.8564C80.8822 55.8832 80.5487 55.7381 80.3145 55.4424C80.0997 55.1713 79.9496 54.751 79.8877 54.1562L79.8672 53.8906L79.7109 48.1729V48.166L79.6455 47.1787C79.5639 46.0683 79.4333 44.5897 79.2549 42.7441L79.2334 42.5156L79.0049 42.54L76.5195 42.8076C76.0239 42.8354 75.6502 42.7385 75.375 42.543C75.1066 42.352 74.9595 42.0841 74.9385 41.7129C74.9175 41.3417 75.0325 41.0581 75.2773 40.8379C75.5291 40.612 75.8904 40.4729 76.3877 40.4443L80.3809 40.3447H80.3887L80.3955 40.3438L84.3799 39.9902Z" fill="#263238" stroke="#263238" stroke-width="0.454"/>
<path d="M99.1729 39.0684C99.6393 39.042 99.9698 39.1872 100.203 39.4863C100.448 39.8 100.607 40.3108 100.649 41.0547C100.699 41.9167 100.726 43.266 100.732 45.1055L100.733 45.3027L100.928 45.3301C101.314 45.385 101.61 45.5243 101.829 45.7373C102.021 45.9233 102.134 46.1408 102.171 46.3984L102.182 46.5117C102.199 46.8215 102.115 47.0886 101.928 47.3232C101.746 47.5518 101.472 47.7096 101.082 47.7822L100.88 47.8203L100.897 48.0254L101.31 52.6816C101.35 53.4152 101.25 53.933 101.043 54.2676C100.845 54.5877 100.533 54.7684 100.065 54.7949C99.598 54.8214 99.2669 54.6766 99.0342 54.3809C98.8209 54.1096 98.6721 53.6893 98.6104 53.0947L98.5898 52.8291L98.4453 48.0586L98.4385 47.8301L98.21 47.8379L95.2861 47.9404L95.2764 47.9414L92.4434 48.166L92.2148 48.1836L92.2344 48.4121L92.6523 53.165V53.166C92.6941 53.903 92.5926 54.4233 92.3838 54.7588C92.1845 55.0789 91.8695 55.2603 91.3984 55.2871C90.927 55.3138 90.5937 55.1688 90.3594 54.873C90.1447 54.6021 89.9946 54.1822 89.9326 53.5879L89.9121 53.3223L89.7949 48.6553L89.7891 48.4492L89.584 48.4346L89.4414 48.4199C89.166 48.3802 88.9508 48.2854 88.7852 48.1436L88.7061 48.0684C88.4965 47.8471 88.3855 47.5887 88.3682 47.2852C88.3511 46.9858 88.4367 46.7233 88.6309 46.4873V46.4863C88.8261 46.2482 89.0991 46.0772 89.4619 45.9805L89.6465 45.9316L89.6299 45.7412L89.2744 41.7139C89.2333 40.974 89.3348 40.4514 89.543 40.1133C89.7425 39.7895 90.0578 39.6068 90.5283 39.5801C90.9985 39.5535 91.3316 39.6992 91.5664 39.998C91.8124 40.3114 91.9733 40.8216 92.0156 41.5654C92.0661 42.4558 92.0953 43.8341 92.1035 45.7021L92.1045 45.9365L92.3379 45.9277L95.1572 45.8311H95.1621C96.117 45.7768 97.0925 45.7004 98.0879 45.6016L98.3115 45.5791L98.292 45.3555L97.9297 41.2021C97.8884 40.4614 97.9893 39.9379 98.1963 39.5996C98.3943 39.2762 98.7065 39.0948 99.1729 39.0684Z" fill="#263238" stroke="#263238" stroke-width="0.454"/>
<path d="M110.299 38.4365C110.635 38.4176 110.939 38.4898 111.217 38.6533L111.334 38.7295C111.499 38.8481 111.687 39.1125 111.878 39.5752C112.073 40.048 112.273 40.5412 112.478 41.0557C112.684 41.573 112.903 42.1043 113.139 42.6484C113.255 42.9181 113.395 43.2488 113.558 43.6406L114.114 45.001C114.53 46.0296 114.773 46.6233 114.839 46.7773L114.915 46.9561L115.104 46.9082C115.126 46.9024 115.164 46.8958 115.219 46.8896L115.437 46.8721C115.866 46.8475 116.21 46.9511 116.483 47.167C116.759 47.3845 116.898 47.6499 116.916 47.9736C116.931 48.2456 116.862 48.4611 116.719 48.6367C116.571 48.8172 116.329 48.9737 115.968 49.0928L115.728 49.1719L115.832 49.4023C116.281 50.3945 116.62 51.1766 116.848 51.749C116.961 52.0351 117.046 52.2665 117.104 52.4443C117.163 52.629 117.187 52.7368 117.189 52.7852C117.204 53.039 117.117 53.2801 116.907 53.5156C116.709 53.7374 116.436 53.8649 116.067 53.8857C115.797 53.9011 115.568 53.8399 115.372 53.708C115.223 53.6076 115.084 53.4607 114.958 53.2598L114.837 53.041C114.763 52.8885 114.275 51.6598 113.367 49.3281L113.311 49.1826H113.155C112.058 49.189 111.148 49.2118 110.429 49.2529C109.711 49.2935 109.077 49.3443 108.528 49.4033L108.382 49.4189L108.337 49.5596C108.19 50.0133 108.018 50.6819 107.821 51.5586C107.625 52.434 107.476 53.0515 107.372 53.416L107.371 53.418C107.274 53.7677 107.13 54.014 106.95 54.1758C106.773 54.3352 106.546 54.4278 106.254 54.4443C105.911 54.4638 105.651 54.3751 105.451 54.1973H105.45C105.255 54.0228 105.135 53.7606 105.113 53.377C105.104 53.2034 105.162 52.8338 105.312 52.2393C105.46 51.656 105.688 50.8831 105.998 49.9189L106.078 49.6699L105.82 49.626C105.483 49.568 105.251 49.4519 105.101 49.2969C104.952 49.1441 104.861 48.9313 104.845 48.6377C104.822 48.2445 104.943 47.9704 105.188 47.7773C105.448 47.573 105.876 47.4363 106.508 47.4004L106.672 47.3916L106.714 47.2324C106.794 46.9276 106.913 46.4986 107.071 45.9463L107.662 43.917C108.133 42.3171 108.437 41.2677 108.571 40.7725C108.705 40.2806 108.808 39.935 108.884 39.7295C108.958 39.5285 109.061 39.3079 109.197 39.0693C109.424 38.6789 109.779 38.4659 110.299 38.4365ZM110.453 41.8945C110.39 41.898 110.345 41.9251 110.32 41.9434C110.295 41.9622 110.277 41.9829 110.266 41.9971C110.243 42.0253 110.226 42.0565 110.214 42.082C110.188 42.1352 110.161 42.2061 110.133 42.2881C110.076 42.4543 110.005 42.6977 109.921 43.0146C109.752 43.6501 109.524 44.599 109.237 45.8594L108.95 47.1201L108.889 47.3906L109.166 47.3975C109.527 47.4058 110.053 47.3897 110.741 47.3506C111.429 47.3115 111.954 47.2682 112.312 47.2188L112.584 47.1807L112.496 46.9209C111.947 45.2934 111.52 44.0713 111.216 43.2559C111.064 42.8488 110.942 42.5388 110.85 42.3301C110.804 42.2271 110.763 42.1424 110.727 42.0811C110.709 42.0514 110.688 42.0177 110.663 41.9893C110.651 41.9752 110.631 41.9556 110.604 41.9375C110.585 41.925 110.551 41.9048 110.504 41.8975L110.453 41.8945Z" fill="#263238" stroke="#263238" stroke-width="0.454"/>
<path d="M129.86 37.3242C130.332 37.2975 130.665 37.4417 130.899 37.7373C131.114 38.0084 131.263 38.4289 131.325 39.0234L131.347 39.2891L131.503 45.0078L131.504 45.0166L131.924 51.3164C131.958 51.9198 131.855 52.338 131.655 52.6074C131.461 52.8688 131.147 53.0286 130.669 53.0557C130.206 53.0818 129.821 52.92 129.503 52.5469L129.37 52.374L123.343 43.4629L122.946 42.8779L122.928 43.584C122.918 43.9321 122.936 44.5028 122.98 45.2871L122.981 45.292L123.477 51.4189C123.518 52.1532 123.415 52.6711 123.207 53.0059C123.008 53.3261 122.693 53.5074 122.222 53.5342C121.75 53.5609 121.417 53.4167 121.183 53.1211C120.968 52.8501 120.819 52.4294 120.757 51.835L120.735 51.5693L120.579 45.8506V45.8447L120.495 44.7412C120.454 44.2675 120.4 43.6879 120.333 43.0029C120.199 41.6352 120.106 40.4776 120.052 39.5293C120.018 38.9318 120.119 38.5181 120.316 38.252C120.507 37.9943 120.816 37.8374 121.287 37.8105C121.931 37.7742 122.382 37.9941 122.687 38.46L122.688 38.4609L128.845 47.7666L129.316 48.4785L129.261 47.626L129.099 45.1484V45.1436L128.606 39.4443C128.565 38.7075 128.666 38.1881 128.875 37.8525C129.074 37.5322 129.389 37.351 129.86 37.3242Z" fill="#263238" stroke="#263238" stroke-width="0.454"/>
<path d="M145.075 36.4619C145.395 36.4439 145.671 36.5356 145.914 36.7412C146.152 36.943 146.281 37.2023 146.3 37.5352C146.343 38.3066 146.079 39.3538 145.473 40.6914C144.868 42.0251 144.17 43.1689 143.383 44.124L143.285 44.2422L143.358 44.377C144.117 45.7651 144.947 47.0027 145.848 48.0889C146.295 48.6286 146.678 49.0561 146.994 49.3691C147.265 49.6369 147.503 49.8371 147.703 49.9453L147.786 49.9863C147.907 50.0384 148.061 50.0656 148.233 50.0781C148.306 50.0834 148.358 50.0935 148.395 50.1045L148.462 50.1348C148.453 50.1275 148.462 50.1298 148.475 50.1689C148.487 50.2074 148.499 50.2673 148.504 50.3535C148.527 50.754 148.401 51.1463 148.108 51.5361C147.827 51.91 147.469 52.1026 147.02 52.1279H147.019C146.613 52.1509 146.232 52.0559 145.87 51.8369L145.717 51.7354L145.555 51.6113C145.221 51.3372 144.823 50.9098 144.362 50.3203L144.127 50.0117C143.485 49.1557 142.496 47.6997 141.156 45.6396L141.07 45.5078L140.916 45.542C140.419 45.654 140.062 45.7136 139.837 45.7266C139.594 45.7405 139.438 45.7349 139.354 45.7188L139.059 45.6621L139.085 45.9619L139.489 50.4844V50.4854C139.532 51.2294 139.43 51.7545 139.221 52.0938C139.021 52.4174 138.707 52.6003 138.236 52.627C137.766 52.6536 137.433 52.5071 137.198 52.208C136.953 51.8955 136.793 51.3878 136.75 50.6475L136.583 44.7334L136.582 44.7197L136.092 39.0557C136.051 38.3154 136.152 37.7922 136.36 37.4541C136.56 37.1306 136.874 36.9486 137.345 36.9219C137.814 36.8952 138.147 37.0407 138.382 37.3398C138.628 37.6533 138.789 38.1635 138.831 38.9072C138.843 39.1113 138.865 40.3887 138.901 42.752L138.905 43.0029L139.154 42.9736C139.631 42.9185 139.939 42.8881 140.085 42.8799C140.222 42.8722 140.565 42.8854 141.134 42.9238L141.233 42.9307L141.306 42.8623C141.851 42.3452 142.339 41.6401 142.775 40.7559C143.211 39.8746 143.552 38.963 143.799 38.0205L143.8 38.0176C143.932 37.4803 144.113 37.0966 144.328 36.8457C144.538 36.6013 144.784 36.4784 145.075 36.4619Z" fill="#263238" stroke="#263238" stroke-width="0.454"/>
<path d="M101.22 57.8105C101.523 57.7935 101.775 57.8933 101.991 58.1191C102.216 58.3541 102.334 58.6263 102.353 58.9424C102.361 59.0859 102.325 59.3028 102.227 59.6045C102.129 59.9023 101.976 60.2666 101.765 60.6982C101.338 61.5696 100.763 62.6814 100.04 64.0352C99.3141 65.3942 98.7508 66.5533 98.3516 67.5127L98.3291 67.5664L98.335 67.625C98.4878 69.0175 98.5969 70.1255 98.6621 70.9502L98.7129 71.6807C98.7547 72.4173 98.6529 72.9368 98.4443 73.2725C98.245 73.593 97.9294 73.775 97.458 73.8018C96.987 73.8291 96.6542 73.6843 96.4199 73.3887C96.2053 73.1178 96.0553 72.6978 95.9932 72.1035L95.9727 71.8379C95.9349 71.1718 95.9053 69.8089 95.8867 67.7432V67.6846L95.8574 67.6338L95.4463 66.9287C95.0011 66.1891 94.4551 65.3439 93.8096 64.3926V64.3916C92.9514 63.1274 92.2682 62.0936 91.7607 61.2891C91.5095 60.8913 91.3223 60.5486 91.1953 60.2607C91.0671 59.9701 91.0062 59.7483 90.9971 59.5879C90.9773 59.2395 91.0672 58.9526 91.2588 58.7129C91.4455 58.4793 91.6914 58.3524 92.0156 58.334C92.3795 58.3134 92.6324 58.3635 92.7969 58.4551C92.9261 58.527 93.079 58.6645 93.2549 58.8818L93.4385 59.126C93.693 59.4905 93.9366 59.8801 94.168 60.2949V60.2959C95.1253 62.0308 96.0135 63.511 96.832 64.7363L97.0498 65.0625L97.2236 64.7119C97.9442 63.2631 98.5287 62.0021 98.9766 60.9307C99.4221 59.8651 99.7461 59.1417 99.9502 58.7529C100.155 58.3636 100.338 58.1294 100.491 58.0156C100.6 57.9349 100.759 57.8711 100.979 57.8359L101.22 57.8105Z" fill="#263238" stroke="#263238" stroke-width="0.454"/>
<path d="M111.596 57.1162C113.609 57.0021 115.328 57.6731 116.768 59.1377C118.21 60.6062 118.996 62.447 119.122 64.6729C119.248 66.8983 118.672 68.8193 117.398 70.4492C116.127 72.0754 114.492 72.9395 112.479 73.0537C110.465 73.1679 108.742 72.4941 107.296 71.0225C105.846 69.5475 105.056 67.7041 104.93 65.4785C104.803 63.2533 105.383 61.3354 106.663 59.7119C107.942 58.0923 109.582 57.2305 111.596 57.1162ZM111.699 59.3115C110.45 59.3825 109.433 59.9607 108.658 61.0205L108.506 61.2393C107.72 62.43 107.372 63.7909 107.459 65.3135C107.546 66.8369 108.048 68.16 108.972 69.2734C109.901 70.3952 111.034 70.9354 112.354 70.8604C113.676 70.7853 114.738 70.1198 115.535 68.9004C116.326 67.69 116.677 66.3184 116.591 64.7949C116.504 63.2725 116.005 61.9594 115.089 60.8652C114.166 59.7637 113.031 59.2359 111.699 59.3115Z" fill="#263238" stroke="#263238" stroke-width="0.454"/>
<path d="M132.409 56.0215C132.88 55.9946 133.214 56.1403 133.449 56.4395C133.665 56.7138 133.815 57.1387 133.877 57.7393L133.898 58.0068L134.16 66.334V66.3398C134.246 67.8558 133.837 69.17 132.936 70.2949C132.047 71.4034 130.72 72.0209 128.919 72.123C127.117 72.2251 125.729 71.7651 124.721 70.7705C123.698 69.7626 123.144 68.5071 123.058 66.9912V66.9854L122.375 58.6768C122.334 57.9357 122.435 57.4126 122.644 57.0742C122.843 56.7505 123.158 56.5678 123.628 56.541C124.098 56.5143 124.432 56.6599 124.667 56.959C124.912 57.2715 125.072 57.7799 125.115 58.5205V58.5215L125.351 65.2754L125.352 65.2803C125.479 67.5159 126.053 69.021 127.183 69.6289L127.187 69.6309C127.65 69.8683 128.193 69.9626 128.805 69.9277C129.341 69.8971 129.811 69.771 130.206 69.541L130.371 69.4365C130.796 69.1418 131.101 68.7407 131.287 68.2412C131.633 67.3394 131.762 66.2217 131.687 64.8994V64.8945L131.156 58.1582C131.115 57.4168 131.216 56.8933 131.425 56.5547C131.624 56.2309 131.939 56.0482 132.409 56.0215Z" fill="#263238" stroke="#263238" stroke-width="0.454"/>
<path d="M114.494 26.3844C114.547 27.3133 113.836 28.1091 112.907 28.1618C111.978 28.2145 111.182 27.504 111.13 26.5751C111.077 25.6462 111.788 24.8503 112.716 24.7977C113.645 24.745 114.441 25.4555 114.494 26.3844Z" fill="white" stroke="#003090" stroke-width="1.135" stroke-miterlimit="10" stroke-linecap="round" stroke-linejoin="round"/>
<path d="M72.1364 60.3726C72.1891 61.3015 71.479 62.0974 70.5497 62.15C69.6208 62.2027 68.8249 61.4927 68.7723 60.5633C68.7196 59.6344 69.4301 58.8386 70.359 58.7859C71.2879 58.7337 72.0838 59.4438 72.1364 60.3726Z" fill="white" stroke="#003090" stroke-width="1.135" stroke-miterlimit="10" stroke-linecap="round" stroke-linejoin="round"/>
<path d="M147.273 68.4782C147.326 69.407 146.616 70.2029 145.686 70.2556C144.757 70.3082 143.962 69.5982 143.909 68.6688C143.856 67.74 144.566 66.9441 145.496 66.8914C146.425 66.8388 147.22 67.5493 147.273 68.4782Z" fill="white" stroke="#003090" stroke-width="1.135" stroke-miterlimit="10" stroke-linecap="round" stroke-linejoin="round"/>
<path d="M81.029 81.8727C81.0817 82.8016 80.3716 83.5974 79.4423 83.6501C78.5134 83.7028 77.7175 82.9927 77.6649 82.0634C77.6122 81.1345 78.3227 80.3386 79.2516 80.286C80.18 80.2333 80.9759 80.9433 81.029 81.8727Z" fill="white" stroke="#003090" stroke-width="1.135" stroke-miterlimit="10" stroke-linecap="round" stroke-linejoin="round"/>
<path d="M87.929 71.2519C87.9576 71.7599 87.5695 72.1953 87.0614 72.2239C86.5534 72.253 86.118 71.8643 86.0894 71.3563C86.0604 70.8483 86.449 70.4129 86.957 70.3843C87.465 70.3557 87.9004 70.7439 87.929 71.2519Z" fill="white" stroke="#003090" stroke-width="1.135" stroke-miterlimit="10" stroke-linecap="round" stroke-linejoin="round"/>
<path d="M156.449 52.6796C156.478 53.1877 156.089 53.623 155.581 53.6516C155.073 53.6807 154.638 53.2921 154.609 52.784C154.58 52.276 154.968 51.8406 155.477 51.812C155.985 51.7834 156.419 52.1716 156.449 52.6796Z" fill="white" stroke="#003090" stroke-width="1.135" stroke-miterlimit="10" stroke-linecap="round" stroke-linejoin="round"/>
<path d="M94.8919 32.8476C94.9209 33.3557 94.5323 33.791 94.0243 33.8196C93.5162 33.8483 93.0809 33.4601 93.0523 32.9521C93.0237 32.444 93.4118 32.0086 93.9199 31.98C94.4274 31.951 94.8628 32.3396 94.8919 32.8476Z" fill="white" stroke="#003090" stroke-width="1.135" stroke-miterlimit="10" stroke-linecap="round" stroke-linejoin="round"/>
<path d="M127.652 32.3691C127.681 32.8771 127.292 33.3125 126.784 33.3411C126.276 33.3702 125.841 32.9816 125.812 32.4735C125.783 31.9655 126.172 31.5301 126.68 31.5015C127.188 31.4725 127.623 31.8606 127.652 32.3691Z" fill="white" stroke="#003090" stroke-width="1.135" stroke-miterlimit="10" stroke-linecap="round" stroke-linejoin="round"/>
<path d="M65.0208 94.1847C63.583 93.8161 62.0135 93.0534 62.7195 91.409C63.4255 89.7646 68.4485 89.4413 69.5568 89.5476C71.0091 89.687 71.2248 91.4194 69.0015 92.2521C66.9799 93.0098 66.3093 93.2522 66.3093 93.2522" fill="#DFDFDF"/>
<path d="M65.0208 94.1847C63.583 93.8161 62.0135 93.0534 62.7195 91.409C63.4255 89.7646 68.4485 89.4413 69.5568 89.5476C71.0091 89.687 71.2248 91.4194 69.0015 92.2521C66.9799 93.0098 66.3093 93.2522 66.3093 93.2522" stroke="#263238" stroke-width="0.454" stroke-miterlimit="10" stroke-linecap="round" stroke-linejoin="round"/>
<path d="M62.7716 97.6662C61.287 96.9711 59.7416 95.8216 60.8448 94.1822C61.9481 92.5428 67.4646 93.2238 68.6446 93.5666C70.1918 94.016 70.0697 95.9396 67.4869 96.3868C65.1379 96.7936 64.3606 96.9194 64.3606 96.9194" fill="#DFDFDF"/>
<path d="M62.7716 97.6662C61.287 96.9711 59.7416 95.8216 60.8448 94.1822C61.9481 92.5428 67.4646 93.2238 68.6446 93.5666C70.1918 94.016 70.0697 95.9396 67.4869 96.3868C65.1379 96.7936 64.3606 96.9194 64.3606 96.9194" stroke="#263238" stroke-width="0.454" stroke-miterlimit="10" stroke-linecap="round" stroke-linejoin="round"/>
<path d="M65.8036 102.319C62.9502 101.089 60.5576 100.149 61.1573 98.3602C61.7566 96.5709 67.0693 95.7869 68.1598 95.9258C69.589 96.1079 69.8959 98.0119 67.7667 98.8804C65.8304 99.6704 65.7382 99.7031 65.7382 99.7031" fill="#DFDFDF"/>
<path d="M65.8036 102.319C62.9502 101.089 60.5576 100.149 61.1573 98.3602C61.7566 96.5709 67.0693 95.7869 68.1598 95.9258C69.589 96.1079 69.8959 98.0119 67.7667 98.8804C65.8304 99.6704 65.7382 99.7031 65.7382 99.7031" stroke="#263238" stroke-width="0.454" stroke-miterlimit="10" stroke-linecap="round" stroke-linejoin="round"/>
<path d="M70.8323 93.0183C71.1928 90.263 70.0228 94.9433 72.1562 99.639" stroke="#263238" stroke-width="0.454" stroke-miterlimit="10" stroke-linecap="round" stroke-linejoin="round"/>
<path d="M165.339 83.5644C166.682 82.9316 168.08 81.8878 167.077 80.4055C166.075 78.9232 161.08 79.5506 160.012 79.8634C158.611 80.2734 158.726 82.0154 161.066 82.4154C163.194 82.779 163.899 82.8912 163.899 82.8912" fill="#DFDFDF"/>
<path d="M165.339 83.5644C166.682 82.9316 168.08 81.8878 167.077 80.4055C166.075 78.9232 161.08 79.5506 160.012 79.8634C158.611 80.2734 158.726 82.0154 161.066 82.4154C163.194 82.779 163.899 82.8912 163.899 82.8912" stroke="#263238" stroke-width="0.454" stroke-miterlimit="10" stroke-linecap="round" stroke-linejoin="round"/>
<path d="M168.203 86.5588C169.53 85.5968 170.832 84.1771 169.44 82.7747C168.048 81.3723 162.758 83.0784 161.664 83.6373C160.229 84.3696 160.71 86.236 163.331 86.1892C165.715 86.147 166.502 86.1239 166.502 86.1239" fill="#DFDFDF"/>
<path d="M168.203 86.5588C169.53 85.5968 170.832 84.1771 169.44 82.7747C168.048 81.3723 162.758 83.0784 161.664 83.6373C160.229 84.3696 160.71 86.236 163.331 86.1892C165.715 86.147 166.502 86.1239 166.502 86.1239" stroke="#263238" stroke-width="0.454" stroke-miterlimit="10" stroke-linecap="round" stroke-linejoin="round"/>
<path d="M166.101 91.7009C168.672 89.9557 170.845 88.5833 169.919 86.9389C168.994 85.2941 163.629 85.5238 162.584 85.8652C161.215 86.3128 161.271 88.2405 163.526 88.6932C165.577 89.1049 165.673 89.1195 165.673 89.1195" fill="#DFDFDF"/>
<path d="M166.101 91.7009C168.672 89.9557 170.845 88.5833 169.919 86.9389C168.994 85.2941 163.629 85.5238 162.584 85.8652C161.215 86.3128 161.271 88.2405 163.526 88.6932C165.577 89.1049 165.673 89.1195 165.673 89.1195" stroke="#263238" stroke-width="0.454" stroke-miterlimit="10" stroke-linecap="round" stroke-linejoin="round"/>
<path d="M115.625 101.604C113.22 97.7559 109.17 98.2508 105.911 99.2972C101.042 100.861 92.9103 105.372 92.9103 105.372L82.5986 97.207C81.0051 97.3727 79.8619 97.4731 76.8818 102.236C71.7521 110.435 69.5547 106.534 69.5547 106.534C69.5547 106.534 69.0376 108.646 70.8468 110.164C76.1954 114.652 84.2639 120.177 86.7972 121.414C90.6417 123.292 92.933 122.977 94.0344 122.513C97.8571 120.904 105.091 117.511 109.937 114.047C116.605 109.281 118.506 106.216 115.625 101.604Z" fill="#003090" stroke="#263238" stroke-width="0.454" stroke-miterlimit="10" stroke-linecap="round" stroke-linejoin="round"/>
<path d="M71.9717 107.159C71.9561 107.165 71.9405 107.173 71.9238 107.18C71.7203 107.258 71.4401 107.348 71.1309 107.4C70.503 107.507 69.817 107.449 69.3594 106.906C69.2184 106.739 69.1835 106.547 69.2217 106.331C69.2613 106.108 69.3787 105.868 69.5303 105.639C69.6803 105.412 69.8546 105.209 69.9932 105.062C70.0176 105.037 70.0419 105.013 70.0635 104.991L71.9717 107.159Z" fill="#263238" stroke="#263238" stroke-width="0.454"/>
<path d="M124.895 100.151C132.241 103.89 132.371 115.21 133.769 124.198C134.609 129.595 138.904 136.71 136.704 139.251C136.704 139.251 137.595 137.81 132.058 137.85C128.555 137.876 122.406 139.193 113.029 139.921C102.116 140.767 95.9997 137.316 95.0554 138.113C95.0554 138.113 93.0787 138.892 93.9295 134.643C94.1356 133.613 97.6455 114.136 103.444 104.283C105.886 100.132 109.491 98.7539 113.514 99.2692C118.172 99.8662 120.418 97.8722 124.895 100.151Z" fill="#003090"/>
<path d="M136.707 139.238C136.764 139.124 137.041 138.384 135.013 138.036C134.97 134.667 132.198 129.223 131.587 124.891C130.299 115.729 130.332 104.211 122.918 100.303C121.395 99.5017 120.121 99.1916 118.924 99.1153C120.747 98.9387 122.502 98.9387 124.888 100.151C132.236 103.892 132.365 115.214 133.763 124.199C134.603 129.586 138.883 136.685 136.707 139.238Z" fill="white"/>
<path d="M113.514 99.2695C118.172 99.8665 120.417 97.8721 124.895 100.151C132.241 103.89 132.371 115.21 133.769 124.198C134.609 129.595 138.904 136.709 136.704 139.251C136.704 139.251 137.595 137.81 132.058 137.85C128.555 137.875 122.406 139.193 113.029 139.921C102.116 140.767 95.9997 137.316 95.0554 138.112C95.0554 138.112 93.0787 138.892 93.9295 134.643C94.1024 133.778 96.4868 119.807 100.802 109.639" stroke="#263238" stroke-width="0.454" stroke-miterlimit="10" stroke-linecap="round" stroke-linejoin="round"/>
<path d="M99.0137 110.73C99.0137 110.73 99.9303 111.656 99.2611 113.554" stroke="#263238" stroke-width="0.454" stroke-miterlimit="10" stroke-linecap="round" stroke-linejoin="round"/>
<path d="M107.465 134.738C107.465 134.738 112.082 135.267 117.283 132.199" stroke="#263238" stroke-width="0.454" stroke-miterlimit="10" stroke-linecap="round" stroke-linejoin="round"/>
<path d="M109.084 132.041C109.084 132.041 110.353 132.617 112.119 132.219" stroke="#263238" stroke-width="0.454" stroke-miterlimit="10" stroke-linecap="round" stroke-linejoin="round"/>
<path d="M135.092 138.424C135.312 138.44 135.605 138.469 135.899 138.516C136.196 138.563 136.483 138.628 136.695 138.713C136.802 138.755 136.879 138.798 136.928 138.839C136.976 138.879 136.982 138.904 136.982 138.908C137.01 139.084 136.944 139.247 136.787 139.41C136.626 139.577 136.388 139.724 136.126 139.847C135.867 139.968 135.602 140.058 135.398 140.118C135.362 140.129 135.326 140.137 135.294 140.146L135.006 138.418C135.033 138.42 135.062 138.422 135.092 138.424Z" fill="#263238" stroke="#263238" stroke-width="0.454"/>
<path d="M119.115 99.0932C121.483 98.6819 126.098 99.1885 128.358 99.4696C134.58 100.244 139.542 100.945 139.542 100.945L147.276 89.5982C148.996 89.4725 150.998 89.1156 155.113 93.5726C162.196 101.244 163.018 97.9223 163.018 97.9223C163.018 97.9223 163.878 99.7656 162.27 101.706C157.515 107.443 152.124 114.416 149.693 116.197C146.004 118.9 143.907 118.888 141.043 118.79C136.568 118.637 129.936 116.668 127.23 117.666" fill="#003090"/>
<path d="M162.269 101.706C157.516 107.44 152.122 114.414 149.694 116.198C146.003 118.899 143.905 118.886 141.04 118.79C140.6 118.777 140.137 118.74 139.66 118.695C141.957 118.386 144.5 117.469 147.224 115.472C149.684 113.668 155.146 106.605 159.963 100.794C160.676 99.9357 160.907 99.0867 160.948 98.4148C162.723 99.1185 163.018 97.9199 163.018 97.9199C163.018 97.9199 163.877 99.7632 162.269 101.706Z" fill="white"/>
<path d="M119.115 99.0932C121.483 98.6819 126.098 99.1885 128.358 99.4696C134.58 100.244 139.542 100.945 139.542 100.945L147.276 89.5982C148.996 89.4725 150.998 89.1156 155.113 93.5726C162.196 101.244 163.018 97.9223 163.018 97.9223C163.018 97.9223 163.878 99.7656 162.27 101.706C157.515 107.443 152.124 114.416 149.693 116.197C146.004 118.9 143.907 118.888 141.043 118.79C136.568 118.637 129.936 116.668 127.23 117.666" stroke="#263238" stroke-width="0.454" stroke-miterlimit="10" stroke-linecap="round" stroke-linejoin="round"/>
<path d="M161.869 96.29C162.046 96.4156 162.277 96.5892 162.5 96.7812C162.725 96.9752 162.932 97.1803 163.066 97.3691C163.212 97.5731 163.225 97.6887 163.207 97.7393C163.087 98.0737 162.858 98.2607 162.566 98.3604C162.265 98.4634 161.896 98.4717 161.521 98.4277C161.15 98.3841 160.793 98.292 160.526 98.209C160.467 98.1906 160.414 98.1699 160.365 98.1533L161.754 96.21C161.788 96.2337 161.828 96.2604 161.869 96.29Z" fill="#263238" stroke="#263238" stroke-width="0.454"/>
<path d="M139.69 100.729C138.953 101.662 138.363 102.588 138.363 102.588" stroke="#263238" stroke-width="0.454" stroke-miterlimit="10" stroke-linecap="round" stroke-linejoin="round"/>
<path d="M117.087 100.146C117.069 100.158 117.051 100.172 117.031 100.185C116.707 100.394 116.258 100.664 115.755 100.908C115.251 101.153 114.701 101.369 114.175 101.477C113.646 101.584 113.165 101.577 112.781 101.404C112.673 101.356 112.617 101.301 112.588 101.251C112.558 101.201 112.543 101.137 112.548 101.053C112.559 100.873 112.659 100.643 112.815 100.397C112.967 100.158 113.155 99.9297 113.307 99.7598C113.379 99.6788 113.443 99.6118 113.489 99.5645L117.087 100.146Z" fill="#263238" stroke="#263238" stroke-width="0.454"/>
<path d="M120.747 96.5771C122.13 93.5925 121.213 90.2284 118.7 89.063C116.185 87.8975 113.026 89.3726 111.643 92.3572C110.259 95.3418 111.176 98.7059 113.69 99.8713C116.204 101.036 119.363 99.5617 120.747 96.5771Z" fill="#DFDFDF" stroke="#263238" stroke-width="0.454" stroke-miterlimit="10" stroke-linecap="round" stroke-linejoin="round"/>
<path d="M113.69 99.8703C114.392 100.195 115.146 100.315 115.896 100.251C115.535 100.193 115.182 100.085 114.839 99.9284C112.456 98.8224 111.588 95.634 112.899 92.8037C114.211 89.9735 117.206 88.5761 119.589 89.6802C119.649 89.7088 119.71 89.7374 119.768 89.7697C119.454 89.4855 119.096 89.2458 118.699 89.0623C116.186 87.8983 113.026 89.3724 111.642 92.357C110.26 95.3411 111.176 98.7039 113.69 99.8703Z" fill="white"/>
<path d="M120.747 96.5771C122.13 93.5925 121.213 90.2284 118.7 89.063C116.185 87.8975 113.026 89.3726 111.643 92.3572C110.259 95.3418 111.176 98.7059 113.69 99.8713C116.204 101.036 119.363 99.5617 120.747 96.5771Z" stroke="#263238" stroke-width="0.454" stroke-miterlimit="10" stroke-linecap="round" stroke-linejoin="round"/>
<path d="M187.347 134.327C185.363 137.704 181.334 140.067 178.512 141.417C175.691 140.068 171.661 137.705 169.686 134.327C167.42 130.483 167.173 124.858 171.917 123.482C176.149 122.265 178.512 127.635 178.512 127.635C178.512 127.635 180.875 122.265 185.107 123.482C189.851 124.858 189.604 130.483 187.347 134.327Z" fill="#003090" stroke="#263238" stroke-width="1.135" stroke-miterlimit="10" stroke-linecap="round" stroke-linejoin="round"/>
<path d="M199.536 92.4761C197.819 94.2566 194.996 95.1124 193.065 95.5238C191.531 94.2789 189.406 92.2327 188.692 89.8678C187.869 87.1729 188.548 83.6825 191.664 83.5382C194.442 83.416 195.1 87.0621 195.1 87.0621C195.1 87.0621 197.344 84.1143 199.763 85.4863C202.472 87.0317 201.489 90.4494 199.536 92.4761Z" fill="#003090" stroke="#263238" stroke-width="1.135" stroke-miterlimit="10" stroke-linecap="round" stroke-linejoin="round"/>
<path d="M40.3994 97.8686C39.7393 100.642 37.4398 103.146 35.7641 104.688C33.5127 104.351 30.204 103.567 28.1092 101.638C25.7116 99.4467 24.3392 95.5846 27.3469 93.6147C30.0328 91.8645 32.8231 95.097 32.8231 95.097C32.8231 95.097 33.3216 90.8557 36.5264 90.7994C40.1207 90.744 41.1499 94.7115 40.3994 97.8686Z" fill="#003090" stroke="#263238" stroke-width="1.135" stroke-miterlimit="10" stroke-linecap="round" stroke-linejoin="round"/>
</svg>
