<svg width="228" height="227" viewBox="0 0 228 227" fill="none" xmlns="http://www.w3.org/2000/svg">
<g clip-path="url(#clip0_3238_11478)">
<path d="M227.55 0.757812H2.25391V226.054H227.55V0.757812Z" fill="white"/>
<path d="M185.121 65.4162C184.738 65.4162 184.364 65.4432 183.999 65.4973C184.153 64.88 184.234 64.2311 184.234 63.5643C184.234 59.1079 180.62 55.4941 176.164 55.4941C172.333 55.4941 169.125 58.1662 168.305 61.7484C167.535 61.3473 166.656 61.122 165.728 61.122C162.889 61.122 160.546 63.2263 160.163 65.9614C159.271 65.61 158.302 65.4162 157.288 65.4162C152.953 65.4162 149.443 68.9308 149.443 73.261C149.443 77.5912 152.958 81.1058 157.288 81.1058H185.121C189.456 81.1058 192.966 77.5912 192.966 73.261C192.966 68.9308 189.451 65.4162 185.121 65.4162Z" fill="white"/>
<path d="M166.51 190.943C166.28 190.943 166.055 190.961 165.838 190.992C165.929 190.623 165.978 190.235 165.978 189.834C165.978 187.167 163.815 185.004 161.148 185.004C158.854 185.004 156.935 186.604 156.444 188.748C155.979 188.51 155.457 188.374 154.903 188.374C153.204 188.374 151.802 189.636 151.573 191.272C151.041 191.06 150.46 190.947 149.851 190.947C147.256 190.947 145.156 193.052 145.156 195.642C145.156 198.233 147.261 200.338 149.851 200.338H166.514C169.11 200.338 171.21 198.233 171.21 195.642C171.21 193.052 169.105 190.947 166.514 190.947L166.51 190.943Z" fill="white"/>
<path opacity="0.21" d="M49.7834 102.985C49.4004 102.985 49.0264 103.012 48.6614 103.066C48.8146 102.448 48.8957 101.799 48.8957 101.133C48.8957 96.6762 45.282 93.0625 40.8256 93.0625C36.9956 93.0625 33.7874 95.7345 32.9673 99.3167C32.1968 98.9157 31.3181 98.6904 30.3899 98.6904C27.5512 98.6904 25.2081 100.795 24.8251 103.53C23.9329 103.178 22.9641 102.985 21.9503 102.985C17.6156 102.985 14.1055 106.499 14.1055 110.829C14.1055 115.16 17.6201 118.674 21.9503 118.674H49.7834C54.1181 118.674 57.6282 115.16 57.6282 110.829C57.6282 106.499 54.1136 102.985 49.7834 102.985Z" fill="#CCCCCC"/>
<path opacity="0.21" d="M183.924 68.3556C183.541 68.3556 183.167 68.3827 182.802 68.4368C182.955 67.8194 183.036 67.1706 183.036 66.5037C183.036 62.0473 179.423 58.4336 174.966 58.4336C171.136 58.4336 167.928 61.1056 167.108 64.6878C166.337 64.2868 165.459 64.0615 164.531 64.0615C161.692 64.0615 159.349 66.1658 158.966 68.9009C158.074 68.5494 157.105 68.3556 156.091 68.3556C151.756 68.3556 148.246 71.8703 148.246 76.2005C148.246 80.5307 151.761 84.0453 156.091 84.0453H183.924C188.259 84.0453 191.769 80.5307 191.769 76.2005C191.769 71.8703 188.254 68.3556 183.924 68.3556Z" fill="#CCCCCC"/>
<path opacity="0.21" d="M43.8457 78.7809C57.0174 77.8898 66.9728 66.4897 66.0818 53.3181C65.1907 40.1464 53.7907 30.1909 40.619 31.082C27.4473 31.973 17.4919 43.3731 18.3829 56.5448C19.2739 69.7164 30.674 79.6719 43.8457 78.7809Z" stroke="#222221" stroke-width="0.450593" stroke-miterlimit="10"/>
<path opacity="0.21" d="M20.2048 89.44C19.0108 89.7554 17.7896 89.0389 17.4787 87.8494C17.1633 86.6553 17.8798 85.4342 19.0693 85.1233C20.2634 84.8079 21.4845 85.5243 21.7954 86.7139C22.1108 87.9079 21.3944 89.129 20.2048 89.44Z" fill="#CCCCCC"/>
<path opacity="0.21" d="M177.643 202.442C188.349 194.718 190.766 179.777 183.042 169.071C175.317 158.365 160.376 155.948 149.67 163.672C138.964 171.396 136.547 186.337 144.271 197.043C151.996 207.75 166.937 210.167 177.643 202.442Z" stroke="#222221" stroke-width="0.450593" stroke-miterlimit="10"/>
<path opacity="0.21" d="M204.603 182.298C205.522 183.118 205.608 184.529 204.787 185.452C203.967 186.372 202.557 186.457 201.633 185.637C200.714 184.817 200.628 183.407 201.449 182.483C202.269 181.564 203.679 181.478 204.603 182.298Z" fill="#CCCCCC"/>
<path opacity="0.21" d="M179.79 31.3947C180.356 22.975 173.99 15.6902 165.57 15.1236C157.151 14.557 149.866 20.9231 149.299 29.3428C148.733 37.7624 155.099 45.0472 163.519 45.6138C171.938 46.1804 179.223 39.8143 179.79 31.3947Z" stroke="#222221" stroke-width="0.450593" stroke-miterlimit="10"/>
<path opacity="0.21" d="M188.562 31.748C187.8 31.9463 187.021 31.4912 186.818 30.7297C186.62 29.9682 187.075 29.1886 187.836 28.9859C188.598 28.7876 189.377 29.2427 189.58 30.0042C189.783 30.7657 189.323 31.5452 188.562 31.748Z" fill="#CCCCCC"/>
<path d="M135.289 126.762C135.289 124.329 133.316 122.355 130.882 122.355H33.4146C30.9814 122.355 29.0078 124.329 29.0078 126.762V130.993H135.289V126.762Z" fill="#FAF1E9"/>
<path d="M29.0078 130.994V199.502C29.0078 201.935 30.9814 203.909 33.4146 203.909H130.887C133.32 203.909 135.294 201.935 135.294 199.502V130.994H29.0078Z" fill="white"/>
<path d="M29.0078 130.994V199.502C29.0078 201.935 30.9814 203.909 33.4146 203.909H130.887C133.32 203.909 135.294 201.935 135.294 199.502V130.994H29.0078Z" stroke="#222221" stroke-width="0.450593" stroke-linecap="round" stroke-linejoin="round"/>
<path d="M38.1381 127.061C38.1381 128.323 37.1153 129.341 35.8581 129.341C34.601 129.341 33.5781 128.318 33.5781 127.061C33.5781 125.804 34.601 124.781 35.8581 124.781C37.1153 124.781 38.1381 125.804 38.1381 127.061Z" fill="#FAF1E9"/>
<path d="M42.6999 129.341C43.9591 129.341 44.9799 128.32 44.9799 127.061C44.9799 125.802 43.9591 124.781 42.6999 124.781C41.4407 124.781 40.4199 125.802 40.4199 127.061C40.4199 128.32 41.4407 129.341 42.6999 129.341Z" fill="#FAF1E9"/>
<path d="M51.8276 127.061C51.8276 128.323 50.8047 129.341 49.5476 129.341C48.2904 129.341 47.2676 128.318 47.2676 127.061C47.2676 125.804 48.2904 124.781 49.5476 124.781C50.8047 124.781 51.8276 125.804 51.8276 127.061Z" fill="#FAF1E9"/>
<path d="M135.289 126.762C135.289 124.329 133.316 122.355 130.882 122.355H33.4146C30.9814 122.355 29.0078 124.329 29.0078 126.762V130.993H135.289V126.762Z" fill="white" stroke="#222221" stroke-width="0.450593" stroke-linecap="round" stroke-linejoin="round"/>
<path d="M29.0078 130.994V199.502C29.0078 201.935 30.9814 203.909 33.4146 203.909H130.887C133.32 203.909 135.294 201.935 135.294 199.502V130.994H29.0078Z" fill="white" stroke="#222221" stroke-width="0.450593" stroke-linecap="round" stroke-linejoin="round"/>
<path d="M38.1381 127.061C38.1381 128.323 37.1153 129.341 35.8581 129.341C34.601 129.341 33.5781 128.318 33.5781 127.061C33.5781 125.804 34.601 124.781 35.8581 124.781C37.1153 124.781 38.1381 125.804 38.1381 127.061Z" fill="#202020"/>
<path d="M42.6999 129.341C43.9591 129.341 44.9799 128.32 44.9799 127.061C44.9799 125.802 43.9591 124.781 42.6999 124.781C41.4407 124.781 40.4199 125.802 40.4199 127.061C40.4199 128.32 41.4407 129.341 42.6999 129.341Z" fill="#202020"/>
<path d="M51.8276 127.061C51.8276 128.323 50.8047 129.341 49.5476 129.341C48.2904 129.341 47.2676 128.318 47.2676 127.061C47.2676 125.804 48.2904 124.781 49.5476 124.781C50.8047 124.781 51.8276 125.804 51.8276 127.061Z" fill="#202020"/>
<mask id="mask0_3238_11478" style="mask-type:luminance" maskUnits="userSpaceOnUse" x="29" y="121" width="107" height="83">
<path d="M29.0098 121.914V199.497C29.0098 201.93 30.9834 203.904 33.4166 203.904H130.889C133.322 203.904 135.296 201.93 135.296 199.497V121.914H29.0098Z" fill="white"/>
</mask>
<g mask="url(#mask0_3238_11478)">
<path d="M102.759 181.826L93.8466 184.944C93.8466 184.944 93.788 187.833 93.8916 191.618C96.9286 191.536 99.9927 191.005 102.84 189.914L102.759 181.831V181.826Z" fill="#202020" stroke="#202020" stroke-width="0.477628" stroke-linecap="round" stroke-linejoin="round"/>
<path d="M92.8691 195.02L93.8334 197.047L107.022 197.854C110.014 195.619 112.362 193.668 112.362 193.668L92.8691 195.02Z" fill="#222221" stroke="#222221" stroke-width="0.477628" stroke-linecap="round" stroke-linejoin="round"/>
<path d="M94.0097 197.412L97.1368 203.982C99.7458 203.04 103.765 200.282 107.023 197.853L93.834 197.047L94.0097 197.412Z" fill="white" stroke="#222221" stroke-width="0.450593" stroke-linecap="round" stroke-linejoin="round"/>
<path d="M62.959 196.168C62.959 196.168 67.8704 214.727 68.8212 216.012C69.7719 217.296 92.644 218.247 100.579 214.714C100.579 214.714 100.065 203.692 96.7489 195.875C96.7489 195.875 96.8346 194.545 96.6723 190.238C96.6723 190.238 105.08 187.584 107.545 183.204C107.545 183.204 99.0244 170.078 95.0637 169.668C91.0985 169.258 85.9708 170.876 85.9708 170.876L68.7131 174.728" fill="white"/>
<path d="M62.959 196.168C62.959 196.168 67.8704 214.727 68.8212 216.012C69.7719 217.296 92.644 218.247 100.579 214.714C100.579 214.714 100.065 203.692 96.7489 195.875C96.7489 195.875 96.8346 194.545 96.6723 190.238C96.6723 190.238 105.08 187.584 107.545 183.204C107.545 183.204 99.0244 170.078 95.0637 169.668C91.0985 169.258 85.9708 170.876 85.9708 170.876L68.7131 174.728" stroke="#222221" stroke-width="0.450593" stroke-linecap="round" stroke-linejoin="round"/>
<path d="M71.1992 175.55C72.9836 175.987 75.7592 176.329 78.99 175.563C82.3469 174.761 84.1763 173.256 85.1135 172.166C83.2706 172.184 80.7202 172.468 77.53 173.45C74.5697 174.36 72.4474 175.099 71.1992 175.554V175.55Z" fill="white" stroke="#222221" stroke-width="0.477628" stroke-linecap="round" stroke-linejoin="round"/>
<path d="M69.0879 174.853C69.0879 174.853 69.8719 175.227 71.2012 175.552C72.4493 175.096 74.5671 174.357 77.532 173.447C80.7222 172.47 83.2725 172.181 85.1155 172.163C85.7463 171.424 85.9761 170.879 85.9761 170.879C77.9916 171.523 69.0924 174.853 69.0924 174.853H69.0879Z" fill="#202020" stroke="#202020" stroke-width="0.477628" stroke-linecap="round" stroke-linejoin="round"/>
<path d="M82.7602 172.691L82.5664 170.875L82.4628 169.879C79.8223 171.438 75.3795 172.429 73.2031 172.844L73.6898 175.218" fill="white"/>
<path d="M82.7602 172.691L82.5664 170.875L82.4628 169.879C79.8223 171.438 75.3795 172.429 73.2031 172.844L73.6898 175.218" stroke="#222221" stroke-width="0.477628" stroke-linecap="round" stroke-linejoin="round"/>
<path d="M82.1149 166.543L72.373 168.751L72.9859 171.743L73.2111 172.838C75.3875 172.419 79.8304 171.427 82.4708 169.873L82.1194 166.543H82.1149Z" fill="#202020" stroke="#202020" stroke-width="0.477628" stroke-linecap="round" stroke-linejoin="round"/>
<path d="M81.7598 133.578C83.9091 133.429 86.0179 134.511 87.4868 136.092C88.9557 137.669 89.8569 139.697 90.4968 141.756C91.4205 144.717 91.8576 147.826 91.79 150.921" stroke="#202020" stroke-width="0.225296" stroke-miterlimit="10"/>
<path d="M82.4149 132.435C82.4149 132.435 91.1924 134.634 91.8548 148.72L55.3883 162.904C55.3883 162.904 46.9081 150.923 53.4102 143.326C51.716 136.396 61.6966 130.719 69.5369 129.322C74.3808 128.461 79.2697 128.2 82.4149 132.431" fill="#202020"/>
<path d="M85.8754 155.865L84.2578 149.173C84.2578 149.173 91.1879 144.591 93.3958 150.746C95.5992 156.901 89.1287 159.199 85.8799 155.865H85.8754Z" fill="white" stroke="#222221" stroke-width="0.450593" stroke-linecap="round" stroke-linejoin="round"/>
<path d="M88.1243 155.583C88.1243 155.583 88.1603 155.57 88.1739 155.556C88.2279 155.507 88.2324 155.425 88.1874 155.371C88.1649 155.344 85.9209 152.744 87.5926 150.712C88.1784 150 88.8543 149.608 89.5977 149.55C90.8819 149.446 91.9543 150.379 91.9634 150.388C92.0174 150.437 92.0985 150.428 92.1481 150.374C92.1977 150.32 92.1887 150.239 92.1391 150.19C92.094 150.149 90.9766 149.176 89.5797 149.288C88.7641 149.351 88.0252 149.775 87.3898 150.546C85.5739 152.749 87.9621 155.516 87.9891 155.543C88.0252 155.583 88.0792 155.597 88.1243 155.583Z" fill="#202020"/>
<path d="M90.4672 152.204C90.5032 152.191 90.5393 152.164 90.5528 152.123C90.5753 152.055 90.5438 151.979 90.4762 151.956C90.4492 151.947 87.8853 151.046 86.7993 153.083C86.7633 153.146 86.7903 153.227 86.8534 153.259C86.9165 153.295 86.9976 153.268 87.0292 153.204C88.0114 151.371 90.3635 152.195 90.3861 152.204C90.4131 152.213 90.4401 152.213 90.4672 152.204Z" fill="#683936"/>
<path d="M85.1803 137.473C85.1803 137.473 88.5417 142.073 89.88 149.769C91.1146 156.871 87.2665 165.491 78.1465 168.843C69.5763 171.993 61.1321 171.015 55.0627 160.746C48.9932 150.481 50.8676 141.105 61.4656 135.679C71.9013 130.335 81.1159 131.579 85.1803 137.468V137.473Z" fill="#202020"/>
<path d="M85.3346 137.69C85.3346 137.69 88.6149 142.467 90.0748 150.352C91.4221 157.62 88.0426 166.308 79.5715 169.48C71.6095 172.463 63.6565 171.237 57.6817 160.612C51.7068 149.987 53.2163 140.48 63.0212 135.235C72.6729 130.066 81.3603 131.58 85.3346 137.69Z" fill="white" stroke="#222221" stroke-width="0.450593" stroke-linecap="round" stroke-linejoin="round"/>
<path d="M82.9289 141.218C82.9289 141.218 84.1005 147.445 87.507 148.342L91.0847 147.927C91.0847 147.927 89.6923 125.848 67.3294 131.629C44.971 137.41 55.8258 158.967 55.8258 158.967C55.8258 158.967 57.2497 160.066 58.1193 158.273C59.0926 156.268 61.2599 151.347 60.6516 145.85C60.6516 145.85 81.0455 149.82 82.9289 141.213" fill="#202020"/>
<path d="M59.6502 144.152C60.3441 147.189 60.9794 150.33 60.4702 153.408C59.9611 156.485 58.0731 159.522 55.1172 160.522" stroke="#202020" stroke-width="0.225296" stroke-miterlimit="10"/>
<path d="M53.8882 144.242C52.5274 144.612 51.4595 145.734 50.9098 147.031C50.3601 148.329 50.2699 149.775 50.3691 151.177C50.7025 155.877 53.1763 160.378 56.9658 163.176" stroke="#202020" stroke-width="0.225296" stroke-miterlimit="10"/>
<path d="M60.5811 156.93C60.5811 156.93 53.8222 156.556 55.3903 162.9C56.9629 169.245 63.6226 167.577 64.4878 162.999" fill="white"/>
<path d="M60.5811 156.93C60.5811 156.93 53.8222 156.556 55.3903 162.9C56.9629 169.245 63.6226 167.577 64.4878 162.999" stroke="#222221" stroke-width="0.450593" stroke-linecap="round" stroke-linejoin="round"/>
<path d="M62.4575 164.009C62.4575 164.009 62.4215 164.018 62.4035 164.009C62.3314 164 62.2818 163.933 62.2908 163.861C62.2908 163.824 62.7234 160.418 60.2046 159.652C59.3214 159.382 58.5419 159.431 57.8885 159.792C56.7621 160.418 56.3881 161.783 56.3836 161.801C56.3655 161.869 56.2934 161.914 56.2258 161.896C56.1537 161.878 56.1132 161.806 56.1312 161.738C56.1492 161.68 56.5368 160.251 57.7624 159.571C58.4788 159.174 59.3259 159.116 60.2812 159.409C63.0118 160.238 62.5567 163.865 62.5522 163.901C62.5432 163.955 62.5071 163.996 62.462 164.009H62.4575Z" fill="#202020"/>
<path d="M58.6339 162.49C58.5979 162.503 58.5528 162.494 58.5167 162.472C58.4582 162.427 58.4447 162.345 58.4897 162.287C58.5077 162.264 60.1434 160.097 62.1756 161.187C62.2386 161.223 62.2612 161.3 62.2296 161.363C62.1936 161.426 62.117 161.449 62.0539 161.417C60.22 160.435 58.7195 162.422 58.7015 162.445C58.6835 162.467 58.6609 162.485 58.6339 162.49Z" fill="#202020"/>
<path d="M79.014 161.24C77.2521 162.187 76.2608 160.83 76.2518 160.817C76.2113 160.758 76.2248 160.677 76.2834 160.637C76.3374 160.596 76.4231 160.61 76.4681 160.668C76.5087 160.722 77.4504 161.993 79.2032 160.826C79.2663 160.79 79.3429 160.803 79.3834 160.862C79.424 160.92 79.406 161.002 79.3474 161.042C79.2347 161.119 79.1221 161.186 79.014 161.245V161.24Z" fill="#202020" stroke="#202020" stroke-width="0.112648" stroke-miterlimit="10"/>
<path d="M64.5213 154.221C64.5213 154.221 62.9397 153.491 65.1567 151.31C67.3736 149.129 68.3919 149.156 69.0273 149.719C69.6085 150.233 69.2886 151.364 68.0224 152.563C66.4994 154.004 65.391 154.658 64.5213 154.225V154.221Z" fill="#202020"/>
<path d="M70.6483 157.287C70.9052 158.139 70.5492 159 69.8508 159.211C69.1524 159.423 68.3774 158.905 68.1205 158.053C67.8637 157.202 68.2197 156.341 68.9181 156.129C69.6165 155.918 70.3915 156.436 70.6483 157.287Z" fill="#040504"/>
<path d="M84.1601 153.203C84.4169 154.055 84.0609 154.916 83.3625 155.127C82.6641 155.339 81.8891 154.821 81.6322 153.969C81.3754 153.118 81.7314 152.257 82.4298 152.045C83.1282 151.834 83.9032 152.352 84.1601 153.203Z" fill="#040504"/>
<path d="M84.7706 148.636C84.7706 148.636 85.6808 147.154 82.6303 146.563C79.5798 145.973 78.7417 146.563 78.5254 147.379C78.3271 148.127 79.2148 148.893 80.9361 149.19C82.9998 149.546 84.284 149.479 84.7706 148.636Z" fill="#202020"/>
<path d="M78.4221 158.316C78.3726 158.33 78.323 158.316 78.287 158.276C78.2374 158.222 78.2464 158.141 78.3005 158.091C78.3095 158.082 79.1701 157.316 79.3459 156.284C79.481 155.473 79.053 154.45 78.4492 154.135C78.0842 153.946 77.6967 154.036 77.3272 154.401C77.3137 154.414 77.2957 154.432 77.2731 154.459C76.0025 155.82 75.1869 155.626 74.7228 155.225C73.8757 154.491 73.2268 150.503 73.0376 149.669C73.024 149.597 73.0691 149.53 73.1367 149.512C73.2088 149.494 73.2764 149.539 73.2944 149.611C73.7991 151.85 74.2316 154.455 74.894 155.027C75.4392 155.5 76.1737 155.248 77.0794 154.279C77.1064 154.248 77.1289 154.225 77.1425 154.211C77.5976 153.77 78.1022 153.657 78.5708 153.901C79.2783 154.27 79.7604 155.401 79.6072 156.325C79.418 157.451 78.5168 158.249 78.4762 158.285C78.4627 158.298 78.4447 158.307 78.4266 158.312L78.4221 158.316Z" fill="#202020" stroke="#202020" stroke-width="0.112648" stroke-miterlimit="10"/>
<path d="M84.7393 137.693C84.4599 140.537 82.7206 143.119 80.4046 144.795C78.0885 146.471 75.2453 147.305 72.402 147.579C70.3338 147.778 68.2431 147.701 66.1974 147.341C63.976 146.953 61.8266 146.241 59.6818 145.534C57.9335 144.957 56.1897 144.38 54.4414 143.803" stroke="#202020" stroke-width="0.225296" stroke-miterlimit="10"/>
<path d="M81.2266 203.112C85.4036 202.112 89.4228 200.467 93.1087 198.264" stroke="#222221" stroke-width="0.238814" stroke-linecap="round" stroke-linejoin="round"/>
<path d="M95.5918 177.607C95.5918 177.607 96.7724 185.425 96.6777 190.242" stroke="#222221" stroke-width="0.477628" stroke-linecap="round" stroke-linejoin="round"/>
<path d="M96.6309 188.331C96.6309 188.331 102.646 186.186 106.661 182.014" stroke="#222221" stroke-width="0.238814" stroke-linecap="round" stroke-linejoin="round"/>
<path d="M79.9629 176.878C86.9561 174.598 87.6095 170.602 87.6095 170.602" stroke="#222221" stroke-width="0.238814" stroke-linecap="round" stroke-linejoin="round"/>
</g>
<path d="M140.794 38.0072C140.794 35.6731 138.888 33.7852 136.541 33.7852H42.3981C40.0505 33.7852 38.1445 35.6776 38.1445 38.0072V42.0625H140.794V38.0072Z" fill="white"/>
<path d="M38.1445 42.0645V107.756C38.1445 110.09 40.0505 111.978 42.3981 111.978H136.536C138.884 111.978 140.79 110.086 140.79 107.756V42.0645H38.1445Z" fill="white"/>
<path d="M140.794 38.0072C140.794 35.6731 138.888 33.7852 136.541 33.7852H42.3981C40.0505 33.7852 38.1445 35.6776 38.1445 38.0072V42.0625H140.794V38.0072Z" stroke="#222221" stroke-width="0.450593" stroke-linecap="round" stroke-linejoin="round"/>
<path d="M38.1445 42.0645V107.756C38.1445 110.09 40.0505 111.978 42.3981 111.978H136.536C138.884 111.978 140.79 110.086 140.79 107.756V42.0645H38.1445Z" stroke="#222221" stroke-width="0.450593" stroke-linecap="round" stroke-linejoin="round"/>
<path d="M46.9576 38.2993C46.9576 39.5068 45.9708 40.4891 44.7542 40.4891C43.5376 40.4891 42.5508 39.5114 42.5508 38.2993C42.5508 37.0872 43.5376 36.1094 44.7542 36.1094C45.9708 36.1094 46.9576 37.0872 46.9576 38.2993Z" fill="#040602"/>
<path d="M53.5689 38.2993C53.5689 39.5068 52.5821 40.4891 51.3655 40.4891C50.1489 40.4891 49.1621 39.5114 49.1621 38.2993C49.1621 37.0872 50.1489 36.1094 51.3655 36.1094C52.5821 36.1094 53.5689 37.0872 53.5689 38.2993Z" fill="#040602"/>
<path d="M60.1783 38.2993C60.1783 39.5068 59.1915 40.4891 57.9749 40.4891C56.7583 40.4891 55.7715 39.5114 55.7715 38.2993C55.7715 37.0872 56.7583 36.1094 57.9749 36.1094C59.1915 36.1094 60.1783 37.0872 60.1783 38.2993Z" fill="#040602"/>
<path d="M217.395 99.858C217.395 97.4248 215.422 95.4512 212.988 95.4512H115.516C113.083 95.4512 111.109 97.4248 111.109 99.858V104.089H217.391V99.858H217.395Z" fill="white" stroke="#222221" stroke-width="0.450593" stroke-linecap="round" stroke-linejoin="round"/>
<path d="M111.117 104.09V172.598C111.117 175.031 113.091 177.005 115.524 177.005H212.996C215.429 177.005 217.403 175.031 217.403 172.598V104.09H111.122H111.117Z" stroke="white" stroke-width="0.450593" stroke-linecap="round" stroke-linejoin="round"/>
<path d="M117.96 102.445C119.219 102.445 120.24 101.424 120.24 100.165C120.24 98.9056 119.219 97.8848 117.96 97.8848C116.7 97.8848 115.68 98.9056 115.68 100.165C115.68 101.424 116.7 102.445 117.96 102.445Z" fill="#202020"/>
<path d="M124.803 102.445C126.063 102.445 127.083 101.424 127.083 100.165C127.083 98.9056 126.063 97.8848 124.803 97.8848C123.544 97.8848 122.523 98.9056 122.523 100.165C122.523 101.424 123.544 102.445 124.803 102.445Z" fill="#202020"/>
<path d="M131.645 102.445C132.904 102.445 133.925 101.424 133.925 100.165C133.925 98.9056 132.904 97.8848 131.645 97.8848C130.386 97.8848 129.365 98.9056 129.365 100.165C129.365 101.424 130.386 102.445 131.645 102.445Z" fill="#202020"/>
<path d="M111.117 104.092V172.6C111.117 175.033 113.091 177.007 115.524 177.007H212.996C215.429 177.007 217.403 175.033 217.403 172.6V104.092H111.122H111.117Z" fill="white" stroke="#222221" stroke-width="0.450593" stroke-linecap="round" stroke-linejoin="round"/>
<path d="M88.7004 75.642C88.7004 75.642 95.7387 75.7952 99.7219 77.8679C102.772 79.454 107.071 86.4562 108.572 92.2013C108.572 92.2013 104.899 95.2022 99.9292 95.36C99.9292 95.36 99.9292 104.372 98.9965 107.941C98.0637 111.509 74.7816 112.442 69.6584 108.251L70.5911 96.4459C70.5911 96.4459 64.3279 96.3963 61.2773 92.4086C61.2773 92.4086 65.0037 78.4357 72.2988 76.4215C79.5939 74.4029 88.7004 75.6465 88.7004 75.6465V75.642Z" fill="white" stroke="#222221" stroke-width="0.450593" stroke-linecap="round" stroke-linejoin="round"/>
<path d="M108.567 92.2027L108.017 90.6211C104.881 92.7118 102.178 92.9957 102.178 92.9957L102.687 94.9198C102.687 94.9198 106.152 94.1582 108.567 92.2072V92.2027Z" fill="white" stroke="#222221" stroke-width="0.319921" stroke-linecap="round" stroke-linejoin="round"/>
<path d="M96.4811 76.8355C96.3819 76.475 85.41 74.7538 78.998 75.4657C78.998 75.4657 80.449 81.2693 88.0279 81.9768C94.4399 82.5761 96.4811 76.84 96.4811 76.84V76.8355Z" fill="white" stroke="#222221" stroke-width="0.319921" stroke-linecap="round" stroke-linejoin="round"/>
<path d="M94.8061 77.3488C94.7295 77.1145 85.7267 76.1052 81.4551 76.1863C81.4551 76.1863 81.9958 80.2281 88.0518 80.6877C93.175 81.0752 94.8061 77.3488 94.8061 77.3488Z" fill="white" stroke="#222221" stroke-width="0.450593" stroke-linecap="round" stroke-linejoin="round"/>
<path d="M94.8061 77.3488C94.7295 77.1145 85.7267 76.1052 81.4551 76.1863C81.4551 76.1863 81.9958 80.2281 88.0518 80.6877C93.175 81.0752 94.8061 77.3488 94.8061 77.3488Z" stroke="#202020" stroke-width="0.319921" stroke-miterlimit="10"/>
<path d="M83.2438 77.8716C83.2213 77.768 83.2168 77.7094 83.2168 77.7094L83.9107 73.4243L84.0684 72.4375C86.6098 74.1317 90.976 75.3618 93.1163 75.8981L92.2241 79.291" fill="white"/>
<path d="M83.2438 77.8716C83.2213 77.768 83.2168 77.7094 83.2168 77.7094L83.9107 73.4243L84.0684 72.4375C86.6098 74.1317 90.976 75.3618 93.1163 75.898L92.2241 79.291" stroke="#222221" stroke-width="0.450593" stroke-linecap="round" stroke-linejoin="round"/>
<path d="M83.2438 77.8716C83.2213 77.768 83.2168 77.7094 83.2168 77.7094L83.9107 73.4243L84.0684 72.4375C86.6098 74.1317 90.976 75.3618 93.1163 75.898L92.2241 79.291" stroke="#202020" stroke-width="0.319921" stroke-miterlimit="10"/>
<path d="M84.6046 69.1426L94.1752 71.8777L93.4001 74.8201L93.1163 75.897C90.9714 75.3608 86.6097 74.1306 84.0684 72.4364L84.6001 69.1426H84.6046Z" fill="#202020" stroke="#202020" stroke-width="0.319921" stroke-miterlimit="10"/>
<path d="M75.1067 41.541C75.1067 41.541 70.2944 47.6781 72.9934 50.4537C72.9934 50.4537 69.6185 55.8879 73.3719 58.7401C73.3719 58.7401 72.687 66.4137 78.8737 67.8962L86.0426 42.5143L75.1022 41.541H75.1067Z" fill="#040602"/>
<path d="M114.171 52.5731C114.171 52.5731 115.063 60.3233 111.31 61.2741C111.31 61.2741 111.341 67.6725 106.65 68.1366C106.65 68.1366 103.217 75.0352 97.1699 73.0616L104.339 47.6797L114.171 52.5731Z" fill="#040602"/>
<path d="M113.304 50.4938C113.304 50.4938 113.795 56.2208 110.709 63.4078C107.861 70.0405 99.5387 75.1097 89.3598 72.8297C79.7937 70.6849 72.6518 65.1561 72.8681 53.1748C73.0798 41.1936 80.0325 34.3941 92.7167 35.7639C105.207 37.1112 112.903 43.2978 113.313 50.4893L113.304 50.4938Z" fill="#040602"/>
<path d="M89.355 72.8281C91.3061 71.188 74.8143 51.5331 72.8633 53.1733L89.355 72.8281Z" fill="#3A2924"/>
<path d="M103.665 60.3224C103.665 60.3224 111.974 60.1963 110.519 66.5677C109.063 72.9391 102.372 71.3935 101.426 66.8335" fill="white"/>
<path d="M103.665 60.3224C103.665 60.3224 111.974 60.1963 110.519 66.5677C109.063 72.9391 102.372 71.3935 101.426 66.8335" stroke="#222221" stroke-width="0.450593" stroke-linecap="round" stroke-linejoin="round"/>
<path d="M103.465 67.8079C103.465 67.8079 103.501 67.8124 103.519 67.8079C103.591 67.7989 103.641 67.7313 103.627 67.6592C103.623 67.6232 103.131 64.2257 105.637 63.4146C106.515 63.1308 107.295 63.1623 107.953 63.5138C109.088 64.1176 109.489 65.4784 109.494 65.4919C109.512 65.5595 109.584 65.6 109.656 65.582C109.724 65.564 109.764 65.4919 109.746 65.4198C109.728 65.3612 109.314 63.9418 108.079 63.2795C107.353 62.8965 106.506 62.8559 105.556 63.1623C102.839 64.041 103.361 67.6592 103.37 67.6953C103.379 67.7493 103.415 67.7899 103.465 67.8034V67.8079Z" fill="#2E2521"/>
<path d="M107.264 66.2174C107.304 66.2264 107.345 66.2174 107.381 66.1949C107.44 66.1498 107.449 66.0687 107.403 66.0101C107.385 65.9876 105.709 63.8518 103.7 64.9783C103.636 65.0143 103.614 65.0954 103.65 65.1585C103.686 65.2216 103.763 65.2441 103.83 65.2081C105.646 64.1897 107.183 66.1543 107.201 66.1723C107.219 66.1949 107.241 66.2129 107.268 66.2174H107.264Z" fill="#2E2521"/>
<path d="M111.227 50.1647C111.227 50.1647 111.417 55.9594 108.402 63.3851C105.622 70.2386 98.097 75.7359 89.2474 73.8479C80.934 72.0726 74.8915 66.7556 75.5809 54.585C76.2703 42.4145 82.6642 35.2186 93.7488 36.0792C104.667 36.9263 111.169 42.8786 111.223 50.1647H111.227Z" fill="white" stroke="#222221" stroke-width="0.450593" stroke-linecap="round" stroke-linejoin="round"/>
<path d="M91.6657 34.3435C72.7228 28.9904 72.8985 52.4348 72.8985 52.4348L75.3002 55.4448C79.5538 54.0704 79.0806 50.3936 79.0806 50.3936C83.537 49.8889 83.8344 45.9057 83.8344 45.9057C87.2319 46.4554 89.2866 44.6305 90.3274 43.2427C90.7825 44.4142 91.8324 45.775 94.0899 47.0052C94.0899 47.0052 93.8781 51.9707 99.1861 52.1464C99.1861 52.1464 99.6907 57.6842 104.503 59.784C104.503 59.784 105.314 61.5052 110.352 62.2848C110.352 62.2848 111.758 57.8509 114.182 52.5745C116.43 47.6765 111.767 34.2399 91.6702 34.3435H91.6657Z" fill="#040602"/>
<path d="M77.7764 52.9444C77.7764 52.9444 72.2837 48.9882 70.1884 55.1794C68.0932 61.3705 74.6087 63.5559 77.7989 60.1629" fill="white"/>
<path d="M77.7764 52.9444C77.7764 52.9444 72.2837 48.9882 70.1884 55.1794C68.0932 61.3705 74.6087 63.5559 77.7989 60.1629" stroke="#222221" stroke-width="0.450593" stroke-linecap="round" stroke-linejoin="round"/>
<path d="M75.5475 59.9195C75.5475 59.9195 75.5114 59.906 75.4979 59.8925C75.4438 59.8475 75.4348 59.7618 75.4844 59.7078C75.5069 59.6807 77.7013 57.0403 75.9936 55.0396C75.3943 54.3367 74.7094 53.9582 73.9659 53.9131C72.6817 53.832 71.6273 54.7828 71.6138 54.7918C71.5597 54.8414 71.4786 54.8369 71.4291 54.7828C71.3795 54.7287 71.384 54.6476 71.4381 54.598C71.4831 54.5575 72.5826 53.5662 73.9794 53.6473C74.7995 53.6969 75.543 54.1069 76.1918 54.8684C78.0483 57.0403 75.7097 59.8474 75.6827 59.8745C75.6466 59.915 75.597 59.9286 75.5475 59.915V59.9195Z" fill="#2E2521"/>
<path d="M73.1376 56.5818C73.0971 56.5728 73.0655 56.5412 73.052 56.5007C73.025 56.4331 73.061 56.3565 73.1286 56.3294C73.1556 56.3204 75.7015 55.3742 76.828 57.3883C76.864 57.4514 76.8415 57.5325 76.7784 57.5686C76.7153 57.6046 76.6342 57.5821 76.5982 57.519C75.5843 55.7031 73.2458 56.5683 73.2232 56.5773C73.1962 56.5863 73.1692 56.5863 73.1421 56.5773L73.1376 56.5818Z" fill="#2E2521"/>
<path d="M84.8271 52.6727C84.8271 52.6727 83.962 51.1587 87.035 50.6675C90.1035 50.1764 90.9191 50.7892 91.1129 51.6138C91.2886 52.3708 90.3739 53.1052 88.6436 53.344C86.5664 53.6324 85.2867 53.5243 84.8271 52.6682V52.6727Z" fill="#040602"/>
<path d="M88.0389 58.726C87.755 59.5686 86.962 60.0642 86.2726 59.8299C85.5786 59.5956 85.2497 58.7215 85.5336 57.8788C85.8175 57.0362 86.6105 56.5406 87.2999 56.7749C87.9938 57.0092 88.3228 57.8834 88.0389 58.726Z" fill="#040504"/>
<path d="M99.1964 64.2655C98.5025 64.0312 98.1735 63.157 98.4574 62.3144C98.7413 61.4718 99.5343 60.9761 100.224 61.2104C100.918 61.4448 101.247 62.3189 100.963 63.1615C100.679 64.0041 99.8858 64.4998 99.1964 64.2655Z" fill="#040504"/>
<path d="M104.578 59.1477C104.578 59.1477 106.182 58.4673 104.037 56.2188C101.892 53.9703 100.874 53.9613 100.22 54.502C99.6257 54.9977 99.9051 56.1377 101.135 57.3768C102.613 58.8638 103.699 59.5532 104.578 59.1477Z" fill="#040602"/>
<path d="M93.3337 63.9933C93.2886 63.9753 93.2526 63.9347 93.2436 63.8807C93.2346 63.8086 93.2886 63.7455 93.3607 63.7365C93.3742 63.7365 94.5187 63.6103 95.2577 62.8713C95.839 62.2901 96.0823 61.2086 95.7759 60.6003C95.5912 60.2354 95.2217 60.0867 94.708 60.1678C94.69 60.1678 94.6674 60.1768 94.6314 60.1813C92.8065 60.5508 92.2523 59.9245 92.1081 59.3297C91.8467 58.2392 93.6311 54.612 93.96 53.8279C93.987 53.7603 94.0636 53.7333 94.1312 53.7558C94.1988 53.7829 94.2304 53.8595 94.2033 53.9271C93.3157 56.0449 92.1576 58.415 92.3649 59.2666C92.5361 59.9695 93.2796 60.1903 94.5818 59.9245C94.6224 59.9154 94.6539 59.9109 94.6719 59.9064C95.2983 59.8073 95.7759 60.0101 96.0147 60.4787C96.3752 61.1906 96.1138 62.3937 95.4515 63.0561C94.6449 63.8626 93.4463 63.9933 93.3968 63.9978C93.3787 63.9978 93.3607 63.9978 93.3427 63.9933H93.3337Z" fill="#2E2521"/>
<path d="M96.0556 61.3855C97.2496 57.9114 100.944 56.091 104.292 57.3346C107.64 58.5783 109.389 62.4128 108.19 65.8914C106.996 69.3655 103.301 71.1859 99.9532 69.9422C96.6053 68.6986 94.857 64.864 96.0556 61.3855ZM96.38 61.5071C95.249 64.7965 96.9027 68.4327 100.07 69.6088C103.238 70.7848 106.735 69.0636 107.87 65.7742C109.001 62.4849 107.347 58.8486 104.18 57.6726C101.012 56.4965 97.5155 58.2178 96.38 61.5071Z" fill="#040602"/>
<path d="M78.3734 55.1814C79.6486 51.6127 83.5913 49.7428 87.1645 51.0179C90.7332 52.2931 92.6031 56.2358 91.3279 59.809C90.0528 63.3777 86.1101 65.2477 82.5369 63.9725C78.9682 62.6973 77.0982 58.7546 78.3734 55.1814ZM78.7159 55.3031C77.5083 58.6825 79.2746 62.4179 82.654 63.6255C86.0335 64.8331 89.7689 63.0668 90.9765 59.6828C92.1841 56.3034 90.4177 52.568 87.0338 51.3604C83.6543 50.1528 79.9189 51.9191 78.7113 55.3031H78.7159Z" fill="#040602"/>
<path d="M91.4132 59.0176C91.4447 59.0266 91.4763 59.0311 91.5078 59.0266C94.4862 58.4634 96.4733 60.7839 96.4959 60.811C96.559 60.8876 96.6761 60.8966 96.7527 60.8335C96.8293 60.7704 96.8383 60.6533 96.7752 60.5767C96.7527 60.5541 94.6259 58.0668 91.4402 58.6706C91.3411 58.6887 91.278 58.7833 91.296 58.8824C91.3096 58.95 91.3546 58.9996 91.4132 59.0221V59.0176Z" fill="#040602"/>
<path d="M93.6343 66.8414C93.9993 66.4809 94.175 66.0979 94.175 66.0979C92.5439 64.638 90.309 63.7773 90.309 63.7773C90.309 63.7773 90.0972 64.1919 89.998 64.7506C90.9353 65.0705 92.3411 65.7014 93.6343 66.8414Z" fill="#202020" stroke="#202020" stroke-width="0.225296" stroke-miterlimit="10"/>
<path d="M89.9983 64.752C89.8631 65.4999 89.9217 66.4957 90.9625 67.077C92.2467 67.7935 93.1254 67.3429 93.6346 66.8427C92.3414 65.7027 90.9355 65.0719 89.9983 64.752Z" fill="white" stroke="#222221" stroke-width="0.225296" stroke-linecap="round" stroke-linejoin="round"/>
<path d="M97.1895 78.6465C97.1895 78.6465 101.272 84.3465 102.128 92.5112" stroke="#202020" stroke-width="0.157707" stroke-miterlimit="10"/>
<path d="M77.7166 76.4629C77.7166 76.4629 72.3996 81.7799 71.0703 94.2253" stroke="#202020" stroke-width="0.157707" stroke-miterlimit="10"/>
<path d="M70.584 96.4434L70.7688 94.8077C70.7688 94.8077 63.8477 94.1318 61.8515 90.6172L61.2207 92.5277C61.2207 92.5277 63.3069 95.9071 70.5795 96.4434H70.584Z" fill="white" stroke="#222221" stroke-width="0.319921" stroke-linecap="round" stroke-linejoin="round"/>
<path d="M98.1191 97.0277L99.5295 102.511C102.684 102.124 105.644 100.943 108.221 99.186C107.145 95.6173 106.077 92.4316 106.077 92.4316C106.077 92.4316 103.31 96.0905 98.1237 97.0322L98.1191 97.0277Z" fill="#222221" stroke="#222221" stroke-width="0.450593" stroke-linecap="round" stroke-linejoin="round"/>
<path d="M100.094 104.716L107.313 113.886C107.313 113.886 111.048 111.146 110.197 106.649C109.832 104.725 109.025 101.851 108.223 99.1875C105.646 100.945 102.69 102.125 99.5312 102.513L100.099 104.721L100.094 104.716Z" fill="white" stroke="#222221" stroke-width="0.450593" stroke-linecap="round" stroke-linejoin="round"/>
<path d="M116.315 86.8843L79.5029 82.1817C77.8984 81.9767 76.4315 83.1113 76.2265 84.7158L73.2231 108.226C73.0182 109.83 74.1527 111.297 75.7572 111.502L112.569 116.205C114.173 116.41 115.64 115.275 115.845 113.671L118.849 90.1607C119.054 88.5562 117.919 87.0893 116.315 86.8843Z" fill="#003090"/>
<path d="M116.315 86.8843L79.5029 82.1817C77.8984 81.9767 76.4315 83.1113 76.2265 84.7158L73.2231 108.226C73.0182 109.83 74.1527 111.297 75.7572 111.502L112.569 116.205C114.173 116.41 115.64 115.275 115.845 113.671L118.849 90.1607C119.054 88.5562 117.919 87.0893 116.315 86.8843Z" stroke="#222221" stroke-width="0.450593" stroke-linecap="round" stroke-linejoin="round"/>
<path d="M77.6934 83.0078L93.3695 101.82C94.4194 103.077 96.2578 103.316 97.5915 102.37L117.855 87.9598" stroke="#222221" stroke-width="0.450593" stroke-linecap="round" stroke-linejoin="round"/>
<path d="M103.162 98.8555L114.314 115.712" stroke="#222221" stroke-width="0.450593" stroke-linecap="round" stroke-linejoin="round"/>
<path d="M89.3749 97.0938L74.3477 110.607" stroke="#222221" stroke-width="0.450593" stroke-linecap="round" stroke-linejoin="round"/>
<path d="M91.7342 108.727C91.1484 107.668 86.7597 109.628 86.7597 109.628C86.7597 109.628 92.4146 106.906 91.6937 106.293C91.198 105.874 88.6251 106.667 87.0571 107.208C86.3586 107.474 85.836 107.645 85.836 107.645C85.836 107.645 86.3406 107.451 87.0571 107.208C88.6476 106.604 91.1484 105.518 90.4185 104.924C89.3641 104.072 83.565 106.627 83.565 106.627C83.565 106.627 86.5479 102.671 84.4752 103.022C82.4024 103.369 79.0545 106.55 79.0545 106.55C79.0545 106.55 76.3645 105.302 68.1006 104.757L70.1193 104.919L70.4482 98.8181C66.3478 98.8766 63.3469 97.7096 61.5084 96.6777C61.0984 100.053 60.5352 105.225 60.5352 108.141C60.5352 112.723 64.7167 114.715 64.7167 114.715C70.8898 115.909 80.564 113.575 80.564 113.575C85.534 114.557 91.216 111.714 91.0899 111.146C90.8781 110.205 87.0571 111.565 87.0571 111.565C87.0571 111.565 92.2389 109.619 91.7387 108.722L91.7342 108.727Z" fill="white"/>
<path d="M87.0571 107.208C88.6251 106.667 91.198 105.874 91.6937 106.293C92.4146 106.906 86.7597 109.628 86.7597 109.628C86.7597 109.628 91.1484 107.668 91.7342 108.727L91.7387 108.722C92.2389 109.619 87.0571 111.565 87.0571 111.565C87.0571 111.565 90.8781 110.205 91.0899 111.146C91.216 111.714 85.534 114.557 80.564 113.575C80.564 113.575 70.8898 115.909 64.7167 114.715C64.7167 114.715 60.5352 112.723 60.5352 108.141C60.5352 105.225 61.0984 100.053 61.5084 96.6777C63.3469 97.7096 66.3478 98.8766 70.4482 98.8181L70.1193 104.919L68.1006 104.757C76.3645 105.302 79.0545 106.55 79.0545 106.55C79.0545 106.55 82.4024 103.369 84.4752 103.022C86.5479 102.671 83.565 106.627 83.565 106.627C83.565 106.627 89.3641 104.072 90.4185 104.924C91.1484 105.518 88.6476 106.604 87.0571 107.208ZM87.0571 107.208C86.3586 107.474 85.836 107.645 85.836 107.645C85.836 107.645 86.3406 107.451 87.0571 107.208Z" stroke="#222221" stroke-width="0.450593" stroke-linecap="round" stroke-linejoin="round"/>
<path d="M70.4431 98.8224L70.5963 96.4387C65.3243 96.4838 61.9269 93.4062 61.9269 93.4062C61.9269 93.4062 61.7421 94.7535 61.5078 96.6821C63.3462 97.7139 66.3472 98.881 70.4476 98.8224H70.4431Z" fill="#222221" stroke="#222221" stroke-width="0.450593" stroke-linecap="round" stroke-linejoin="round"/>
<path d="M87.0551 107.207C86.3386 107.455 85.834 107.644 85.834 107.644C85.834 107.644 86.3567 107.468 87.0551 107.207Z" fill="white" stroke="#222221" stroke-width="0.450593" stroke-linecap="round" stroke-linejoin="round"/>
<path d="M120.814 91.7197C120.471 90.6428 119.872 90.1381 118.746 90.2418C118.034 90.3049 117.213 90.4716 116.466 90.8456C114.591 91.7738 119.291 91.7513 119.291 91.7513C119.291 91.7513 114.731 92.5038 114.388 93.806C114.046 95.1082 118.065 93.9051 118.065 93.9051C118.065 93.9051 114.298 95.2028 114.082 96.122C113.861 97.0367 118.493 96.0454 118.493 96.0454C118.493 96.0454 115.213 96.6312 115.366 97.8298C115.497 98.8481 119.403 97.7847 119.403 97.7847C119.403 97.7847 116.794 98.4245 117.182 99.3122C117.182 99.3122 117.574 100.389 120.697 98.3029C122.373 97.1809 121.445 93.6933 120.823 91.7242L120.814 91.7197Z" fill="white" stroke="#222221" stroke-width="0.450593" stroke-linecap="round" stroke-linejoin="round"/>
<mask id="mask1_3238_11478" style="mask-type:luminance" maskUnits="userSpaceOnUse" x="111" y="92" width="107" height="86">
<path d="M111.117 92.2422V172.601C111.117 175.034 113.091 177.008 115.524 177.008H212.996C215.429 177.008 217.403 175.034 217.403 172.601V92.2422H111.122H111.117Z" fill="white"/>
</mask>
<g mask="url(#mask1_3238_11478)">
<path d="M160.716 177.084L202.509 178.99C202.509 178.99 204.455 159.574 201.035 154.537C197.124 148.778 190 148.071 190 148.071L172.504 147.476C172.504 147.476 166.687 147.043 161.694 152.175C158.094 155.875 152.398 160.345 152.398 160.345" fill="white"/>
<path d="M160.716 177.084L202.509 178.99C202.509 178.99 204.455 159.574 201.035 154.537C197.124 148.778 190 148.071 190 148.071L172.504 147.476C172.504 147.476 166.687 147.043 161.694 152.175C158.094 155.875 152.398 160.345 152.398 160.345" stroke="#222221" stroke-width="0.450593" stroke-linecap="round" stroke-linejoin="round"/>
<path d="M150.912 153.369C150.912 153.369 150.024 145.479 149.191 142.555C149.191 142.555 145.199 145.362 138.44 143.587C138.44 143.587 137.917 155.798 139.936 162.737C139.936 162.737 142.734 180.121 156.995 174.889C155.914 172.073 154.675 167.324 153.846 159.411L150.917 153.369H150.912Z" fill="white" stroke="#222221" stroke-width="0.450593" stroke-linecap="round" stroke-linejoin="round"/>
<path d="M153.844 159.41C154.673 167.323 155.912 172.072 156.993 174.888C158.106 174.478 159.287 173.937 160.549 173.234L153.848 159.41H153.844Z" fill="#222221" stroke="#222221" stroke-width="0.450593" stroke-linecap="round" stroke-linejoin="round"/>
<path d="M172.879 148.588C173.587 149.913 175.601 151.985 181.306 152.184C187.226 152.391 189.781 150.715 190.849 149.498C182.959 148.137 176.101 148.358 172.875 148.588H172.879Z" fill="white" stroke="#222221" stroke-width="0.603794" stroke-linecap="round" stroke-linejoin="round"/>
<path d="M190.855 149.493C191.445 148.822 191.585 148.29 191.585 148.29C176.512 146.326 172.502 147.479 172.502 147.479C172.502 147.479 172.543 147.948 172.88 148.588C176.107 148.353 182.965 148.132 190.855 149.498V149.493Z" fill="#202020" stroke="#202020" stroke-width="0.603794" stroke-miterlimit="10"/>
<path d="M176.92 150.361L176.857 147.567L176.844 146.594C179.57 147.783 183.963 148.22 186.108 148.365L185.829 150.334" fill="white"/>
<path d="M176.92 150.361L176.857 147.567L176.844 146.594C179.57 147.783 183.963 148.22 186.108 148.365L185.829 150.334" stroke="#222221" stroke-width="0.603794" stroke-linecap="round" stroke-linejoin="round"/>
<path d="M176.783 141.916L186.426 142.903L186.192 147.292L186.106 148.373C183.961 148.224 179.568 147.792 176.842 146.602L176.788 141.921L176.783 141.916Z" fill="#202020" stroke="#202020" stroke-width="0.603794" stroke-miterlimit="10"/>
<path d="M166.399 124.266C164.993 122.324 165.286 119.548 166.471 117.467C167.656 115.385 170.004 113.335 170.022 113.569" stroke="black" stroke-width="0.351462" stroke-miterlimit="10"/>
<path d="M201.456 134.994C203.321 134.94 205.115 133.809 205.966 132.151C206.818 130.493 206.692 128.375 205.651 126.825C207.931 125.054 208.873 121.751 207.872 119.043C206.872 116.335 204.011 114.438 201.127 114.569" stroke="black" stroke-width="0.351462" stroke-miterlimit="10"/>
<path d="M183.699 142.496L182.595 145.244C179.368 145.1 176.255 144.244 173.592 142.748L174.777 138.697L183.694 142.496H183.699Z" fill="#D8A079"/>
<path d="M172.895 113.081C170.881 115.807 169.862 117.47 168.222 124.643C166.704 131.285 169.466 139.125 177.261 142.081C184.583 144.861 193.762 144.496 198.817 134.466C203.076 126.013 203.305 116.388 194.51 111.139C185.714 105.889 176.725 107.904 172.904 113.081H172.895Z" fill="white" stroke="#222221" stroke-width="0.450593" stroke-linecap="round" stroke-linejoin="round"/>
<path d="M178.582 104.125C176.077 104.612 178.46 104.603 176.446 106.175C174.437 107.748 168.263 111.244 169.516 113.47C168.556 114.827 164.861 120.135 165.983 124.663C166.362 126.195 167.268 126.871 168.718 126.258C170.174 125.645 171.237 123.46 171.814 121.991C172.386 120.522 173.333 118.76 173.499 117.192C175.806 115.638 177.942 113.835 179.866 111.826C180.844 110.803 181.804 109.654 182.043 108.257C182.281 106.865 181.515 105.202 180.123 104.95" fill="#202020"/>
<path d="M198.79 133.245C198.79 133.245 196.15 131.713 197.326 126.652C197.326 126.652 195.23 124.927 195.96 119.727C195.96 119.727 181.803 120.682 178.964 117.163C178.964 117.163 177.833 115.613 179.279 114.009C179.279 114.009 176.828 114.793 173.625 112.607C170.421 110.422 173.935 105.867 176.45 105.916C176.45 105.916 177.252 98.7968 184.155 102C191.058 105.204 192.612 104.384 196.726 105.885C200.84 107.39 202.602 110.688 203.03 113.229C203.03 113.229 211.249 121.655 205.747 126.49C205.747 126.49 207.063 133.461 202.097 134.263C197.132 135.065 198.786 133.245 198.786 133.245H198.79Z" fill="#202020"/>
<path d="M202.963 115.577C204.175 115.067 205.311 114.378 206.32 113.535C206.55 113.346 206.779 112.995 206.568 112.787C206.405 112.63 206.14 112.724 205.937 112.828C205.22 113.197 204.499 113.567 203.783 113.936C204.689 113.17 205.446 112.229 205.995 111.174C206.198 110.787 206.356 110.269 206.059 109.953C205.833 109.714 205.432 109.719 205.144 109.881C204.855 110.039 204.653 110.318 204.459 110.584C203.526 111.882 202.593 113.175 201.656 114.473" fill="#202020"/>
<path d="M170.097 130.352C170.741 128.82 170.228 123.701 170.228 123.701C170.228 123.701 165.248 119.943 163.194 125.603C161.139 131.262 168.434 134.304 170.097 130.352Z" fill="white" stroke="#222221" stroke-width="0.450593" stroke-linecap="round" stroke-linejoin="round"/>
<path d="M168.03 130.083C168.03 130.083 167.998 130.069 167.984 130.056C167.935 130.011 167.93 129.934 167.975 129.885C167.998 129.862 170.075 127.474 168.539 125.595C167.998 124.937 167.381 124.572 166.696 124.514C165.515 124.414 164.524 125.266 164.515 125.275C164.465 125.32 164.389 125.316 164.344 125.266C164.299 125.216 164.303 125.14 164.353 125.095C164.398 125.059 165.43 124.167 166.714 124.275C167.466 124.338 168.142 124.73 168.723 125.442C170.386 127.478 168.174 130.015 168.151 130.042C168.12 130.078 168.07 130.092 168.025 130.078L168.03 130.083Z" fill="#202020"/>
<path d="M165.881 126.959C165.845 126.95 165.818 126.923 165.804 126.882C165.782 126.819 165.813 126.752 165.876 126.729C165.899 126.72 168.264 125.905 169.26 127.779C169.292 127.838 169.269 127.91 169.211 127.941C169.152 127.973 169.08 127.95 169.048 127.892C168.152 126.197 165.98 126.95 165.957 126.954C165.93 126.963 165.908 126.963 165.881 126.954V126.959Z" fill="#202020"/>
<path d="M198.053 132.278C198.053 132.278 194.038 150.716 177.569 145.309C162.429 140.334 169.823 123.572 169.823 123.572C169.823 123.572 171.017 124.126 173.847 129.908C175.37 133.017 178.704 131.399 181.597 132.458C184.485 133.517 185.603 134.454 188.838 135.531C192.073 136.608 193.457 130.786 198.057 132.282L198.053 132.278Z" fill="#202020"/>
<path d="M180.292 135.708C182.054 136.249 182.707 134.848 182.712 134.834C182.739 134.776 182.712 134.704 182.653 134.677C182.595 134.65 182.523 134.677 182.496 134.735C182.469 134.794 181.842 136.109 180.049 135.366C179.986 135.343 179.918 135.366 179.891 135.429C179.864 135.492 179.891 135.56 179.954 135.587C180.072 135.636 180.184 135.677 180.292 135.708Z" fill="white"/>
<path d="M194.1 137.718C194.425 136.087 197.723 132.14 197.723 132.14C197.723 132.14 203.955 131.82 202.481 137.66C201.008 143.499 193.262 141.922 194.1 137.718Z" fill="white" stroke="#222221" stroke-width="0.450593" stroke-linecap="round" stroke-linejoin="round"/>
<path d="M192.962 127.947C192.962 127.947 194.422 127.28 192.39 125.262C190.358 123.243 189.42 123.261 188.83 123.779C188.294 124.252 188.582 125.293 189.745 126.402C191.142 127.735 192.16 128.339 192.962 127.947Z" fill="#202020"/>
<path d="M187.211 130.598C186.972 131.383 187.297 132.18 187.941 132.374C188.586 132.572 189.302 132.094 189.541 131.31C189.78 130.526 189.455 129.733 188.811 129.535C188.167 129.337 187.45 129.814 187.211 130.598Z" fill="#040602"/>
<path d="M174.281 122.313C174.281 122.313 173.448 120.943 176.264 120.412C179.08 119.88 179.846 120.425 180.04 121.182C180.22 121.871 179.4 122.574 177.809 122.84C175.903 123.16 174.723 123.093 174.281 122.313Z" fill="#202020"/>
<path d="M178.246 127.784C178.007 128.568 177.291 129.041 176.646 128.847C176.002 128.649 175.678 127.856 175.916 127.072C176.155 126.288 176.872 125.814 177.516 126.008C178.16 126.206 178.485 127 178.246 127.784Z" fill="#040602"/>
<path d="M195.96 138.656C195.96 138.656 195.991 138.66 196.009 138.656C196.077 138.647 196.122 138.588 196.113 138.521C196.113 138.489 195.73 135.348 198.051 134.655C198.866 134.411 199.583 134.456 200.182 134.794C201.214 135.375 201.556 136.637 201.561 136.651C201.579 136.714 201.642 136.754 201.709 136.736C201.773 136.718 201.813 136.655 201.795 136.588C201.782 136.534 201.426 135.218 200.304 134.582C199.646 134.213 198.866 134.159 197.983 134.42C195.464 135.173 195.87 138.516 195.874 138.548C195.879 138.597 195.915 138.633 195.96 138.647V138.656Z" fill="#202020"/>
<path d="M199.487 137.271C199.523 137.28 199.564 137.276 199.595 137.253C199.649 137.212 199.658 137.136 199.622 137.086C199.609 137.064 198.108 135.063 196.234 136.059C196.175 136.091 196.153 136.163 196.184 136.221C196.216 136.28 196.288 136.302 196.346 136.271C198.041 135.37 199.415 137.212 199.428 137.231C199.446 137.253 199.465 137.267 199.492 137.276L199.487 137.271Z" fill="#202020"/>
<path d="M181.073 131.761C181.118 131.775 181.168 131.761 181.199 131.725C181.244 131.676 181.24 131.599 181.19 131.554C181.181 131.545 180.393 130.838 180.235 129.887C180.113 129.139 180.51 128.197 181.069 127.909C181.407 127.738 181.763 127.823 182.1 128.157C182.109 128.166 182.127 128.184 182.15 128.211C183.317 129.468 184.07 129.297 184.498 128.927C185.282 128.251 186.85 121.51 187.03 120.744C187.043 120.681 187.003 120.614 186.94 120.6C186.877 120.587 186.809 120.627 186.796 120.69C186.322 122.754 184.953 128.22 184.344 128.747C183.84 129.18 183.164 128.945 182.335 128.049C182.308 128.022 182.29 127.999 182.276 127.99C181.862 127.58 181.393 127.476 180.96 127.697C180.307 128.035 179.856 129.076 179.996 129.928C180.167 130.964 180.992 131.707 181.028 131.739C181.042 131.752 181.055 131.757 181.073 131.766V131.761Z" fill="#202020"/>
<path d="M176.455 105.912C176.455 105.912 181.412 101.127 184.16 101.996C191.419 104.285 192.618 104.38 196.732 105.88" fill="#202020"/>
<path d="M160.645 177.049C160.645 177.049 161.136 170.637 162.095 162.932L160.645 177.049Z" fill="white"/>
<path d="M160.645 177.049C160.645 177.049 161.136 170.637 162.095 162.932" stroke="#222221" stroke-width="0.603794" stroke-linecap="round" stroke-linejoin="round"/>
<path d="M150.822 151.656L152.683 162.741" stroke="#222221" stroke-width="0.603794" stroke-linecap="round" stroke-linejoin="round"/>
<path d="M149.878 146.451C143.615 149.033 138.915 147.285 138.915 147.285L138.861 145.428C138.861 145.428 143.89 147.208 149.612 144.396L149.874 146.447L149.878 146.451Z" fill="#222221" stroke="#222221" stroke-width="0.603794" stroke-linecap="round" stroke-linejoin="round"/>
<path d="M138.865 145.429C138.865 145.429 142.772 142.839 149.616 144.398C149.616 144.398 145.448 146.961 138.865 145.429Z" fill="#222221" stroke="#222221" stroke-width="0.603794" stroke-linecap="round" stroke-linejoin="round"/>
<path d="M198.178 165.17C198.178 165.17 195.758 172.853 190.779 177.408C185.8 181.964 180.961 176.696 180.961 176.696L198.178 165.17Z" fill="#222221" stroke="#222221" stroke-width="0.450593" stroke-linecap="round" stroke-linejoin="round"/>
<path d="M171.246 147.67C171.246 147.67 171.638 153.397 181.348 153.753C191.059 154.109 192.911 148.774 192.947 148.878" stroke="#222221" stroke-width="0.319921" stroke-linecap="round" stroke-linejoin="round"/>
</g>
<path d="M147.747 154.966C147.747 154.966 149.685 151.47 156.692 148.91C156.692 148.91 153.997 154.497 147.738 154.971" fill="#222221"/>
<path d="M147.747 154.966C147.747 154.966 149.685 151.47 156.692 148.91C156.692 148.91 153.997 154.497 147.738 154.971" stroke="#222221" stroke-width="0.603794" stroke-linecap="round" stroke-linejoin="round"/>
<path d="M154.069 117.7L119.121 123.011C117.598 123.242 116.551 124.664 116.782 126.187L120.174 148.51C120.406 150.033 121.828 151.08 123.351 150.849L158.299 145.538C159.822 145.307 160.869 143.885 160.637 142.362L157.245 120.039C157.014 118.516 155.592 117.469 154.069 117.7Z" fill="#003090"/>
<path d="M154.069 117.7L119.121 123.011C117.598 123.242 116.551 124.664 116.782 126.187L120.174 148.51C120.406 150.033 121.828 151.08 123.351 150.849L158.299 145.538C159.822 145.307 160.869 143.885 160.637 142.362L157.245 120.039C157.014 118.516 155.592 117.469 154.069 117.7Z" stroke="#222221" stroke-width="0.450593" stroke-linecap="round" stroke-linejoin="round"/>
<path d="M117.68 124.241L136.956 137.375C138.245 138.254 139.993 137.993 140.966 136.772L155.764 118.279" stroke="#222221" stroke-width="0.450593" stroke-linecap="round" stroke-linejoin="round"/>
<path d="M145.15 132.102L159.768 144.628" stroke="#222221" stroke-width="0.450593" stroke-linecap="round" stroke-linejoin="round"/>
<path d="M132.059 134.094L121.826 150.396" stroke="#222221" stroke-width="0.450593" stroke-linecap="round" stroke-linejoin="round"/>
<path d="M150.525 155.867C149.71 154.578 149.246 153.758 149.246 153.758C145.249 151.054 143.365 145.3 143.834 145.007C144.613 144.516 146.254 148.017 146.254 148.017C146.254 148.017 144.095 143.21 145.037 142.944C146.15 142.633 147.763 146.913 147.763 146.913C147.763 146.913 145.817 141.263 146.713 141.344C147.331 141.398 148.516 143.674 149.2 145.093C149.489 145.742 149.723 146.215 149.723 146.215C149.723 146.215 149.516 145.742 149.2 145.093C148.543 143.611 147.601 141.191 148.493 141.29C149.777 141.43 151.936 147.071 151.936 147.071C151.936 147.071 152.611 142.403 153.765 144.039C154.919 145.674 154.68 148.346 154.68 148.346C154.68 148.346 155.766 149.027 157.622 150.392" fill="white"/>
<path d="M150.525 155.867C149.71 154.578 149.246 153.758 149.246 153.758C145.249 151.054 143.365 145.3 143.834 145.007C144.613 144.516 146.254 148.017 146.254 148.017C146.254 148.017 144.095 143.21 145.037 142.944C146.15 142.633 147.763 146.913 147.763 146.913C147.763 146.913 145.817 141.263 146.713 141.344C147.331 141.398 148.516 143.674 149.2 145.093M149.2 145.093C149.489 145.742 149.723 146.215 149.723 146.215C149.723 146.215 149.516 145.742 149.2 145.093ZM149.2 145.093C148.543 143.611 147.601 141.191 148.493 141.29C149.777 141.43 151.936 147.071 151.936 147.071C151.936 147.071 152.611 142.403 153.765 144.039C154.919 145.674 154.68 148.346 154.68 148.346C154.68 148.346 155.766 149.027 157.622 150.392" stroke="#222221" stroke-width="0.450593" stroke-linecap="round" stroke-linejoin="round"/>
<path d="M198.919 164.257C198.919 164.257 192.353 173.224 189.163 175.491C172.347 187.449 158.235 171.057 158.235 171.057C153.134 165.934 147.74 154.966 147.74 154.966C154.526 153.285 156.684 148.91 156.684 148.91C158.816 151.078 175.181 163.874 175.181 163.874C175.181 163.874 180.246 158.269 185.766 154.781" fill="white"/>
<path d="M198.919 164.257C198.919 164.257 192.353 173.224 189.163 175.491C172.347 187.449 158.235 171.057 158.235 171.057C153.134 165.934 147.74 154.966 147.74 154.966C154.526 153.285 156.684 148.91 156.684 148.91C158.816 151.078 175.181 163.874 175.181 163.874C175.181 163.874 180.246 158.269 185.766 154.781" stroke="#222221" stroke-width="0.450593" stroke-linecap="round" stroke-linejoin="round"/>
<path d="M198.919 164.257C198.919 164.257 192.353 173.224 189.163 175.491C172.347 187.449 158.235 171.057 158.235 171.057C153.134 165.934 147.74 154.966 147.74 154.966C154.526 153.285 156.684 148.91 156.684 148.91C158.816 151.078 175.181 163.874 175.181 163.874C175.181 163.874 180.246 158.269 185.766 154.781" fill="white"/>
<path d="M198.919 164.257C198.919 164.257 192.353 173.224 189.163 175.491C172.347 187.449 158.235 171.057 158.235 171.057C153.134 165.934 147.74 154.966 147.74 154.966C154.526 153.285 156.684 148.91 156.684 148.91C158.816 151.078 175.181 163.874 175.181 163.874C175.181 163.874 180.246 158.269 185.766 154.781" stroke="#222221" stroke-width="0.450593" stroke-linecap="round" stroke-linejoin="round"/>
<path d="M148.74 156.441C148.74 156.441 153.079 155.802 158.059 150.395" stroke="#222221" stroke-width="0.319921" stroke-linecap="round" stroke-linejoin="round"/>
<path d="M113.291 166.124L78.3435 171.435C76.8205 171.666 75.7735 173.088 76.0049 174.611L79.3969 196.934C79.6283 198.457 81.0505 199.504 82.5734 199.273L117.521 193.962C119.044 193.731 120.091 192.309 119.86 190.786L116.468 168.463C116.236 166.94 114.814 165.893 113.291 166.124Z" fill="#003090"/>
<path d="M113.291 166.124L78.3435 171.435C76.8205 171.666 75.7735 173.088 76.0049 174.611L79.3969 196.934C79.6283 198.457 81.0505 199.504 82.5734 199.273L117.521 193.962C119.044 193.731 120.091 192.309 119.86 190.786L116.468 168.463C116.236 166.94 114.814 165.893 113.291 166.124Z" stroke="#222221" stroke-width="0.450593" stroke-linecap="round" stroke-linejoin="round"/>
<path d="M76.9043 172.663L96.1807 185.797C97.4694 186.676 99.2177 186.415 100.191 185.193L114.988 166.701" stroke="#222221" stroke-width="0.450593" stroke-linecap="round" stroke-linejoin="round"/>
<path d="M104.377 180.525L118.994 193.052" stroke="#222221" stroke-width="0.450593" stroke-linecap="round" stroke-linejoin="round"/>
<path d="M91.2883 182.516L81.0508 198.823" stroke="#222221" stroke-width="0.450593" stroke-linecap="round" stroke-linejoin="round"/>
<path d="M69.7111 189.741C67.1878 189.714 64.295 192.314 58.6445 194.914C59.2979 196.675 60.2261 198.879 61.3391 201.073C64.4797 200.704 69.3101 199.776 73.7124 197.432L69.7066 189.736L69.7111 189.741Z" fill="#222221" stroke="#222221" stroke-width="0.477628" stroke-linecap="round" stroke-linejoin="round"/>
<path d="M101.051 195.297C100.528 194.54 97.6351 197.099 97.6351 197.099C97.6351 197.099 101.524 193.544 100.767 192.927C99.87 192.201 96.6889 195.486 96.6889 195.486C96.6889 195.486 100.722 191.075 99.8655 190.791C99.2798 190.597 97.2836 192.21 96.0941 193.242C95.5714 193.724 95.1704 194.062 95.1704 194.062C95.1704 194.062 95.5489 193.711 96.0941 193.242C97.2881 192.143 99.113 190.295 98.2524 190.029C97.0178 189.651 92.7957 193.968 92.7957 193.968C92.7957 193.968 94.0304 189.412 92.3226 190.457C90.6149 191.503 89.7723 194.049 89.7723 194.049C89.7723 194.049 83.482 195.013 74.1862 198.347L73.7131 197.437C69.3063 199.78 64.4805 200.708 61.3398 201.078C63.4441 205.228 66.2062 209.333 69.0179 210.275C76.9979 212.942 92.6065 201.182 92.6065 201.182C97.3512 200.285 101.362 195.756 101.051 195.301V195.297Z" fill="white"/>
<path d="M96.0941 193.242C97.2836 192.21 99.2798 190.597 99.8655 190.791C100.722 191.075 96.6889 195.486 96.6889 195.486C96.6889 195.486 99.87 192.201 100.767 192.927C101.524 193.544 97.6351 197.099 97.6351 197.099C97.6351 197.099 100.528 194.54 101.051 195.297V195.301C101.362 195.756 97.3512 200.285 92.6065 201.182C92.6065 201.182 76.9979 212.942 69.0179 210.275C66.2062 209.333 63.4441 205.228 61.3398 201.078C64.4805 200.708 69.3063 199.78 73.7131 197.437L74.1862 198.347C83.482 195.013 89.7723 194.049 89.7723 194.049C89.7723 194.049 90.6149 191.503 92.3226 190.457C94.0304 189.412 92.7957 193.968 92.7957 193.968C92.7957 193.968 97.0178 189.651 98.2524 190.029C99.113 190.295 97.2881 192.143 96.0941 193.242ZM96.0941 193.242C95.5714 193.724 95.1704 194.062 95.1704 194.062C95.1704 194.062 95.5489 193.711 96.0941 193.242Z" stroke="#222221" stroke-width="0.450593" stroke-linecap="round" stroke-linejoin="round"/>
<path d="M96.0897 193.242C95.5445 193.715 95.166 194.062 95.166 194.062C95.166 194.062 95.567 193.724 96.0897 193.242Z" fill="white" stroke="#222221" stroke-width="0.450593" stroke-linecap="round" stroke-linejoin="round"/>
<path d="M68.7205 174.729C68.7205 174.729 64.6246 175.558 62.0607 178.405C57.5728 183.389 56.9375 197.33 56.9375 197.33C56.9375 197.33 67.8959 200.034 74.4385 195.767C74.4385 195.767 74.0105 190.36 72.4469 185.664" fill="white"/>
<path d="M68.7205 174.729C68.7205 174.729 64.6246 175.558 62.0607 178.405C57.5728 183.389 56.9375 197.33 56.9375 197.33C56.9375 197.33 67.8959 200.034 74.4385 195.767C74.4385 195.767 74.0105 190.36 72.4469 185.664" stroke="#222221" stroke-width="0.450593" stroke-linecap="round" stroke-linejoin="round"/>
<path d="M67.0566 175.141C67.0566 175.141 68.2102 177.88 76.4695 177.65" stroke="#222221" stroke-width="0.238814" stroke-linecap="round" stroke-linejoin="round"/>
<path d="M121.033 179.297C120.708 178.27 120.136 177.792 119.059 177.887C118.379 177.95 117.599 178.108 116.887 178.459C115.103 179.347 119.577 179.32 119.577 179.32C119.577 179.32 115.234 180.036 114.909 181.28C114.58 182.523 118.41 181.374 118.41 181.374C118.41 181.374 114.824 182.613 114.616 183.483C114.409 184.353 118.82 183.411 118.82 183.411C118.82 183.411 115.698 183.97 115.842 185.114C115.964 186.083 119.69 185.069 119.69 185.069C119.69 185.069 117.207 185.682 117.577 186.525C117.577 186.525 117.951 187.552 120.925 185.56C122.524 184.488 121.637 181.167 121.042 179.293L121.033 179.297Z" fill="white" stroke="#222221" stroke-width="0.450593" stroke-linecap="round" stroke-linejoin="round"/>
</g>
<defs>
<clipPath id="clip0_3238_11478">
<rect width="228" height="225.296" fill="white" transform="translate(0 0.753906)"/>
</clipPath>
</defs>
</svg>
