<svg width="366" height="244" viewBox="0 0 366 244" fill="none" xmlns="http://www.w3.org/2000/svg">
<path d="M59.4984 202.991H299.291C299.291 202.991 327.052 160.286 302.261 87.6188C277.47 14.952 173.787 4.21962 145.133 69.9374C106.659 158.176 27.6698 114.011 59.4971 202.991H59.4984Z" fill="#F7F7F7"/>
<path d="M74.169 217.663C66.078 217.663 59.4961 211.081 59.4961 202.99C59.4961 194.899 66.078 188.317 74.169 188.317H284.615C292.706 188.317 299.288 194.899 299.288 202.99C299.288 211.081 292.706 217.663 284.615 217.663H74.169Z" fill="#D1D1D1"/>
<path d="M284.617 192.248H74.1708C68.2381 192.248 63.4287 197.057 63.4287 202.99C63.4287 208.923 68.2381 213.732 74.1708 213.732H284.617C290.55 213.732 295.359 208.923 295.359 202.99C295.359 197.057 290.55 192.248 284.617 192.248Z" fill="#E8E8E8"/>
<path d="M93.7913 196.757H84.8853V209.56H93.7913V196.757Z" fill="#F7F7F7"/>
<path d="M106.656 196.757H97.7505V209.56H106.656V196.757Z" fill="#F7F7F7"/>
<path d="M119.521 196.757H110.615V209.56H119.521V196.757Z" fill="#F7F7F7"/>
<path d="M132.386 196.757H123.48V209.56H132.386V196.757Z" fill="#F7F7F7"/>
<path d="M145.251 196.757H136.345V209.56H145.251V196.757Z" fill="#F7F7F7"/>
<path d="M158.116 196.757H149.21V209.56H158.116V196.757Z" fill="#F7F7F7"/>
<path d="M170.981 196.757H162.075V209.56H170.981V196.757Z" fill="#F7F7F7"/>
<path d="M183.846 196.757H174.94V209.56H183.846V196.757Z" fill="#F7F7F7"/>
<path d="M196.709 196.757H187.803V209.56H196.709V196.757Z" fill="#F7F7F7"/>
<path d="M209.574 196.757H200.668V209.56H209.574V196.757Z" fill="#F7F7F7"/>
<path d="M222.439 196.757H213.533V209.56H222.439V196.757Z" fill="#F7F7F7"/>
<path d="M235.304 196.757H226.398V209.56H235.304V196.757Z" fill="#F7F7F7"/>
<path d="M248.169 196.757H239.263V209.56H248.169V196.757Z" fill="#F7F7F7"/>
<path d="M261.034 196.757H252.128V209.56H261.034V196.757Z" fill="#F7F7F7"/>
<path d="M273.897 196.757H264.991V209.56H273.897V196.757Z" fill="#F7F7F7"/>
<path d="M289.283 198.939H70.1187V207.027H289.283V198.939Z" fill="#D1D1D1"/>
<path d="M84.5184 201.356H82.9006C82.6762 200.129 82.1955 198.97 81.4867 197.943L82.631 196.798C82.775 196.654 82.775 196.421 82.631 196.277L80.8584 194.505C80.7144 194.361 80.4814 194.361 80.3374 194.505L79.1931 195.649C78.1658 194.94 77.0068 194.461 75.7795 194.235V192.617C75.7795 192.414 75.6148 192.249 75.4111 192.249H72.904C72.7002 192.249 72.5355 192.414 72.5355 192.617V194.235C71.3082 194.46 70.1492 194.94 69.122 195.649L67.9776 194.505C67.8336 194.361 67.6006 194.361 67.4567 194.505L65.684 196.277C65.54 196.421 65.54 196.654 65.684 196.798L66.8284 197.943C66.1195 198.97 65.6401 200.129 65.4144 201.356H63.7967C63.5929 201.356 63.4282 201.521 63.4282 201.725V204.232C63.4282 204.436 63.5929 204.6 63.7967 204.6H65.4144C65.6389 205.828 66.1195 206.987 66.8284 208.014L65.684 209.158C65.54 209.302 65.54 209.535 65.684 209.679L67.4567 211.452C67.6006 211.596 67.8336 211.596 67.9776 211.452L69.122 210.307C70.1492 211.016 71.3082 211.496 72.5355 211.721V213.339C72.5355 213.543 72.7002 213.708 72.904 213.708H75.4111C75.6148 213.708 75.7795 213.543 75.7795 213.339V211.721C77.0068 211.497 78.1658 211.016 79.1931 210.307L80.3374 211.452C80.4814 211.596 80.7144 211.596 80.8584 211.452L82.631 209.679C82.775 209.535 82.775 209.302 82.631 209.158L81.4867 208.014C82.1955 206.987 82.6749 205.828 82.9006 204.6H84.5184C84.7221 204.6 84.8868 204.436 84.8868 204.232V201.725C84.8868 201.521 84.7221 201.356 84.5184 201.356ZM74.1569 207.016C71.9267 207.016 70.1199 205.208 70.1199 202.979C70.1199 200.749 71.928 198.942 74.1569 198.942C76.3858 198.942 78.1939 200.75 78.1939 202.979C78.1939 205.208 76.3858 207.016 74.1569 207.016Z" fill="white"/>
<path d="M294.987 201.369H293.369C293.144 200.142 292.664 198.983 291.955 197.955L293.099 196.811C293.243 196.667 293.243 196.434 293.099 196.29L291.327 194.517C291.183 194.374 290.95 194.374 290.806 194.517L289.661 195.662C288.634 194.953 287.475 194.474 286.248 194.248V192.63C286.248 192.426 286.083 192.262 285.879 192.262H283.372C283.168 192.262 283.004 192.426 283.004 192.63V194.248C281.776 194.472 280.617 194.953 279.59 195.662L278.446 194.517C278.302 194.374 278.069 194.374 277.925 194.517L276.152 196.29C276.008 196.434 276.008 196.667 276.152 196.811L277.297 197.955C276.588 198.983 276.108 200.142 275.883 201.369H274.265C274.061 201.369 273.896 201.534 273.896 201.737V204.245C273.896 204.448 274.061 204.613 274.265 204.613H275.883C276.107 205.84 276.588 206.999 277.297 208.027L276.152 209.171C276.008 209.315 276.008 209.548 276.152 209.692L277.925 211.465C278.069 211.608 278.302 211.608 278.446 211.465L279.59 210.32C280.617 211.029 281.776 211.508 283.004 211.734V213.352C283.004 213.556 283.168 213.72 283.372 213.72H285.879C286.083 213.72 286.248 213.556 286.248 213.352V211.734C287.475 211.51 288.634 211.029 289.661 210.32L290.806 211.465C290.95 211.608 291.183 211.608 291.327 211.465L293.099 209.692C293.243 209.548 293.243 209.315 293.099 209.171L291.955 208.027C292.664 206.999 293.143 205.84 293.369 204.613H294.987C295.19 204.613 295.355 204.448 295.355 204.245V201.737C295.355 201.534 295.19 201.369 294.987 201.369ZM284.625 207.029C282.395 207.029 280.588 205.221 280.588 202.992C280.588 200.763 282.396 198.955 284.625 198.955C286.854 198.955 288.662 200.763 288.662 202.992C288.662 205.221 286.854 207.029 284.625 207.029Z" fill="white"/>
<path d="M152.134 164.065H149.318C148.926 161.928 148.091 159.91 146.857 158.123L148.848 156.132C149.099 155.882 149.099 155.475 148.848 155.224L145.763 152.139C145.513 151.889 145.105 151.889 144.855 152.139L142.864 154.13C141.077 152.897 139.059 152.061 136.923 151.669V148.854C136.923 148.499 136.635 148.212 136.281 148.212H131.917C131.562 148.212 131.276 148.5 131.276 148.854V151.669C129.139 152.061 127.121 152.897 125.334 154.13L123.343 152.139C123.093 151.889 122.686 151.889 122.435 152.139L119.35 155.224C119.1 155.475 119.1 155.882 119.35 156.132L121.341 158.123C120.108 159.91 119.272 161.928 118.88 164.065H116.065C115.71 164.065 115.423 164.353 115.423 164.706V169.07C115.423 169.425 115.711 169.712 116.065 169.712H118.88C119.272 171.848 120.108 173.866 121.341 175.653L119.35 177.644C119.1 177.895 119.1 178.302 119.35 178.552L122.435 181.637C122.686 181.888 123.093 181.888 123.343 181.637L125.334 179.646C127.121 180.88 129.139 181.716 131.276 182.107V184.923C131.276 185.278 131.563 185.565 131.917 185.565H136.281C136.636 185.565 136.923 185.277 136.923 184.923V182.107C139.059 181.716 141.077 180.88 142.864 179.646L144.855 181.637C145.105 181.888 145.513 181.888 145.763 181.637L148.848 178.552C149.099 178.302 149.099 177.895 148.848 177.644L146.857 175.653C148.091 173.866 148.926 171.848 149.318 169.712H152.134C152.489 169.712 152.776 169.424 152.776 169.07V164.706C152.776 164.351 152.488 164.065 152.134 164.065ZM134.097 173.917C130.215 173.917 127.069 170.771 127.069 166.889C127.069 163.007 130.215 159.86 134.097 159.86C137.979 159.86 141.126 163.007 141.126 166.889C141.126 170.771 137.979 173.917 134.097 173.917Z" fill="#E8E8E8"/>
<path d="M174.149 157.826H172.441C172.203 156.53 171.697 155.306 170.949 154.223L172.157 153.015C172.309 152.863 172.309 152.616 172.157 152.465L170.285 150.593C170.133 150.441 169.886 150.441 169.735 150.593L168.527 151.801C167.442 151.053 166.22 150.546 164.924 150.309V148.601C164.924 148.386 164.75 148.212 164.535 148.212H161.889C161.674 148.212 161.5 148.386 161.5 148.601V150.309C160.204 150.547 158.981 151.053 157.897 151.801L156.689 150.593C156.537 150.441 156.29 150.441 156.139 150.593L154.268 152.465C154.115 152.617 154.115 152.864 154.268 153.015L155.475 154.223C154.728 155.307 154.22 156.53 153.983 157.826H152.275C152.061 157.826 151.886 158 151.886 158.215V160.861C151.886 161.076 152.061 161.25 152.275 161.25H153.983C154.221 162.546 154.728 163.769 155.475 164.853L154.268 166.061C154.115 166.213 154.115 166.459 154.268 166.611L156.139 168.482C156.292 168.635 156.538 168.635 156.689 168.482L157.897 167.274C158.982 168.022 160.204 168.53 161.5 168.766V170.474C161.5 170.689 161.674 170.864 161.889 170.864H164.535C164.75 170.864 164.924 170.689 164.924 170.474V168.766C166.22 168.529 167.444 168.022 168.527 167.274L169.735 168.482C169.887 168.635 170.134 168.635 170.285 168.482L172.157 166.611C172.309 166.458 172.309 166.212 172.157 166.061L170.949 164.853C171.697 163.768 172.204 162.546 172.441 161.25H174.149C174.364 161.25 174.538 161.076 174.538 160.861V158.215C174.538 158 174.364 157.826 174.149 157.826ZM163.211 163.8C160.858 163.8 158.95 161.892 158.95 159.538C158.95 157.185 160.858 155.277 163.211 155.277C165.565 155.277 167.473 157.185 167.473 159.538C167.473 161.892 165.565 163.8 163.211 163.8Z" fill="#E8E8E8"/>
<path d="M158.405 142.362H157.264C157.105 141.496 156.766 140.679 156.266 139.954L157.073 139.148C157.174 139.046 157.174 138.882 157.073 138.779L155.822 137.529C155.721 137.427 155.556 137.427 155.454 137.529L154.647 138.335C153.922 137.835 153.105 137.497 152.239 137.337V136.196C152.239 136.052 152.123 135.937 151.979 135.937H150.21C150.066 135.937 149.95 136.052 149.95 136.196V137.337C149.084 137.496 148.267 137.835 147.542 138.335L146.735 137.529C146.634 137.427 146.469 137.427 146.367 137.529L145.117 138.779C145.015 138.88 145.015 139.045 145.117 139.148L145.923 139.954C145.423 140.679 145.085 141.496 144.925 142.362H143.784C143.64 142.362 143.524 142.478 143.524 142.622V144.391C143.524 144.535 143.64 144.651 143.784 144.651H144.925C145.084 145.517 145.423 146.335 145.923 147.059L145.117 147.866C145.015 147.967 145.015 148.132 145.117 148.234L146.367 149.485C146.468 149.586 146.633 149.586 146.735 149.485L147.542 148.678C148.267 149.178 149.084 149.516 149.95 149.676V150.817C149.95 150.961 150.066 151.077 150.21 151.077H151.979C152.123 151.077 152.239 150.961 152.239 150.817V149.676C153.105 149.518 153.922 149.178 154.647 148.678L155.454 149.485C155.555 149.586 155.72 149.586 155.822 149.485L157.073 148.234C157.174 148.133 157.174 147.968 157.073 147.866L156.266 147.059C156.766 146.335 157.104 145.517 157.264 144.651H158.405C158.549 144.651 158.665 144.535 158.665 144.391V142.622C158.665 142.478 158.549 142.362 158.405 142.362ZM151.096 146.355C149.523 146.355 148.247 145.08 148.247 143.507C148.247 141.933 149.522 140.658 151.096 140.658C152.67 140.658 153.944 141.933 153.944 143.507C153.944 145.08 152.67 146.355 151.096 146.355Z" fill="#E8E8E8"/>
<path d="M263.453 65.1905V41.9434H240.206V65.1905H263.453Z" fill="#E8E8E8"/>
<path d="M261.326 44.0732H242.336V63.0625H261.326V44.0732Z" fill="#F7F7F7"/>
<path d="M279.291 52.3283V39.0889H266.051V52.3283H279.291Z" fill="#E8E8E8"/>
<path d="M278.078 40.3027H267.264V51.1168H278.078V40.3027Z" fill="#F7F7F7"/>
<path d="M279.291 68.6301V55.3906H266.051V68.6301H279.291Z" fill="#E8E8E8"/>
<path d="M278.078 56.6045H267.264V67.4186H278.078V56.6045Z" fill="#F7F7F7"/>
<path d="M254.657 50.3496H248.999V56.008H254.657V50.3496Z" fill="#D1D1D1"/>
<path d="M275.502 42.8818H269.844V48.5402H275.502V42.8818Z" fill="#D1D1D1"/>
<path d="M275.502 59.1826H269.844V64.841H275.502V59.1826Z" fill="#D1D1D1"/>
<path d="M181.777 81.6439C181.777 81.6439 177.765 78.0608 176.819 78.3951C175.872 78.7293 172.782 80.2421 172.782 81.9453C172.782 82.7248 174.174 86.225 175.678 86.674C177.181 87.1229 180.523 86.1774 180.523 86.1774L181.777 81.6439Z" fill="#FFD1C1"/>
<mask id="mask0_4458_3839" style="mask-type:luminance" maskUnits="userSpaceOnUse" x="172" y="78" width="10" height="9">
<path d="M181.776 81.641C181.776 81.641 177.764 78.0579 176.818 78.3921C175.871 78.7264 172.781 80.2392 172.781 81.9423C172.781 82.7219 174.173 86.2221 175.677 86.671C177.18 87.12 180.522 86.1745 180.522 86.1745L181.776 81.641Z" fill="white"/>
</mask>
<g mask="url(#mask0_4458_3839)">
<path d="M178.243 86.689C178.243 86.689 176.159 83.639 175.525 83.578C174.891 83.517 175.253 84.9981 175.736 85.4812C176.219 85.9643 177.73 87.0221 177.73 87.0221L178.243 86.689Z" fill="#FFB2A0"/>
</g>
<path d="M257.424 108.584C257.424 108.584 257.848 112.699 258.158 113.077C258.468 113.455 261.479 114.692 262.259 114.314C263.038 113.936 264.929 110.74 264.826 110.155C264.722 109.571 261.402 106.539 261.402 106.539L257.424 108.584Z" fill="#FFD1C1"/>
<mask id="mask1_4458_3839" style="mask-type:luminance" maskUnits="userSpaceOnUse" x="257" y="106" width="8" height="9">
<path d="M257.423 108.585C257.423 108.585 257.848 112.7 258.158 113.078C258.468 113.456 261.479 114.693 262.258 114.315C263.038 113.937 264.929 110.741 264.825 110.156C264.721 109.572 261.402 106.54 261.402 106.54L257.423 108.585Z" fill="white"/>
</mask>
<g mask="url(#mask1_4458_3839)">
<path d="M257.695 112.368C257.695 112.368 257.873 110.524 258.438 110.138C259.003 109.751 263.102 108.342 263.102 108.342L263.494 109.9L260.044 114.242C260.044 114.242 257.932 113.826 257.694 112.368H257.695Z" fill="#FFB2A0"/>
</g>
<path d="M260.709 117.386L258.291 114.968C257.972 114.649 257.796 114.224 257.796 113.771C257.796 113.319 257.972 112.894 258.291 112.575L262.815 108.052C263.135 107.732 263.559 107.557 264.012 107.557C264.464 107.557 264.889 107.732 265.209 108.052L267.627 110.47L260.71 117.386H260.709ZM264.012 108.367C263.776 108.367 263.554 108.458 263.387 108.625L258.863 113.148C258.696 113.315 258.605 113.536 258.605 113.771C258.605 114.007 258.696 114.229 258.863 114.396L260.708 116.241L266.479 110.47L264.634 108.625C264.467 108.458 264.246 108.367 264.011 108.367H264.012Z" fill="#373660"/>
<path d="M266.653 136.364L254.394 124.106C253.736 123.449 253.736 122.384 254.394 121.726L271.967 104.153C272.625 103.496 273.69 103.496 274.347 104.153L286.606 116.412C287.263 117.069 287.263 118.135 286.606 118.792L269.033 136.365C268.375 137.023 267.31 137.023 266.653 136.365V136.364Z" fill="#003090"/>
<mask id="mask2_4458_3839" style="mask-type:luminance" maskUnits="userSpaceOnUse" x="253" y="103" width="35" height="34">
<path d="M266.654 136.362L254.396 124.104C253.738 123.447 253.738 122.382 254.396 121.724L271.968 104.151C272.626 103.494 273.691 103.494 274.349 104.151L286.607 116.41C287.265 117.068 287.265 118.133 286.607 118.79L269.034 136.363C268.377 137.021 267.312 137.021 266.654 136.363V136.362Z" fill="white"/>
</mask>
<g mask="url(#mask2_4458_3839)">
<path opacity="0.55" d="M252.975 123.144L258.581 123.88C259.534 124.005 260.49 123.679 261.17 123L273.474 110.696C274.149 110.02 274.475 109.069 274.354 108.121L273.638 102.479L252.975 123.143V123.144Z" fill="#02308C"/>
</g>
<path d="M267.447 114.988L265.226 117.21C265.018 117.418 265.018 117.754 265.226 117.962L266.089 118.826C266.297 119.033 266.634 119.033 266.842 118.826L269.063 116.604C269.271 116.396 269.271 116.06 269.063 115.852L268.199 114.988C267.992 114.781 267.655 114.781 267.447 114.988Z" fill="#373660"/>
<path d="M263.194 108.889C262.957 108.86 259.128 110.623 258.852 111.744C258.577 112.865 259.742 113.881 260.038 113.98C260.335 114.079 263.789 111.506 264.026 111.03C264.264 110.554 263.193 108.889 263.193 108.889H263.194Z" fill="#FFD1C1"/>
<path d="M277.479 136.027L280.062 135.266L283.192 145.58C283.724 147.331 285.271 148.58 287.095 148.73L289.087 124.556L278.3 126.059L277.479 136.026V136.027Z" fill="#4F5285"/>
<path d="M284.002 131.645C285.116 131.645 286.02 130.742 286.02 129.627C286.02 128.513 285.116 127.609 284.002 127.609C282.887 127.609 281.984 128.513 281.984 129.627C281.984 130.742 282.887 131.645 284.002 131.645Z" fill="#373660"/>
<path d="M280.438 136.512L282.155 135.833C282.533 135.683 282.959 135.879 283.09 136.263C283.21 136.614 283.041 136.998 282.701 137.147L280.872 137.945L280.438 136.512Z" fill="#373660"/>
<path d="M281.209 139.03L282.926 138.35C283.304 138.2 283.73 138.397 283.861 138.781C283.981 139.131 283.812 139.515 283.472 139.664L281.643 140.462L281.209 139.031V139.03Z" fill="#373660"/>
<path d="M282.07 141.873L283.787 141.193C284.165 141.043 284.591 141.239 284.723 141.624C284.842 141.974 284.674 142.358 284.333 142.507L282.505 143.305L282.07 141.874V141.873Z" fill="#373660"/>
<path d="M289.079 124.552L287.087 148.727L288.882 148.874L290.874 124.7L289.079 124.552Z" fill="#373660"/>
<path d="M220.352 175.833L221.322 178.345L211.299 182.312C209.597 182.986 208.48 184.63 208.48 186.46H232.736L230.352 175.833H220.351H220.352Z" fill="#4F5285"/>
<path d="M228.041 183.674C229.07 183.248 229.559 182.067 229.133 181.038C228.706 180.008 227.526 179.519 226.496 179.946C225.467 180.372 224.978 181.552 225.404 182.582C225.831 183.612 227.011 184.101 228.041 183.674Z" fill="#373660"/>
<path d="M220.115 178.826L220.934 180.48C221.114 180.844 220.953 181.286 220.581 181.448C220.242 181.597 219.844 181.459 219.67 181.133L218.726 179.376L220.116 178.826H220.115Z" fill="#373660"/>
<path d="M217.668 179.794L218.487 181.448C218.667 181.812 218.506 182.253 218.134 182.416C217.795 182.565 217.397 182.427 217.223 182.101L216.278 180.344L217.669 179.794H217.668Z" fill="#373660"/>
<path d="M214.902 180.891L215.72 182.545C215.901 182.909 215.74 183.35 215.368 183.512C215.029 183.661 214.631 183.523 214.456 183.198L213.512 181.441L214.903 180.891H214.902Z" fill="#373660"/>
<path d="M232.736 186.458H208.48V188.259H232.736V186.458Z" fill="#373660"/>
<path d="M250.811 129.141L249.675 108.023C249.602 106.65 249.29 105.351 248.785 104.16L224.209 106.546L212.536 137.034C211.315 139.712 210.919 142.694 211.401 145.597L216.645 177.171H235.417L229.017 144.976C228.89 144.337 228.936 143.676 229.152 143.061L234.258 128.504L236.539 135.277C237.78 138.959 240.696 141.831 244.396 143.016C245.997 143.528 247.687 143.705 249.359 143.534L279.56 140.459L280.974 123.309L250.812 129.142L250.811 129.141Z" fill="#373660"/>
<mask id="mask3_4458_3839" style="mask-type:luminance" maskUnits="userSpaceOnUse" x="211" y="104" width="70" height="74">
<path d="M250.81 129.14L249.675 108.022C249.601 106.649 249.289 105.35 248.784 104.159L224.208 106.545L212.535 137.033C211.314 139.711 210.919 142.693 211.401 145.596L216.644 177.17H235.417L229.016 144.975C228.889 144.336 228.936 143.675 229.152 143.06L234.258 128.503L236.539 135.276C237.78 138.958 240.695 141.83 244.396 143.015C245.996 143.527 247.686 143.704 249.359 143.533L279.56 140.458L280.974 123.308L250.812 129.141L250.81 129.14Z" fill="white"/>
</mask>
<g mask="url(#mask3_4458_3839)">
<path d="M248.91 136.723C247.875 136.723 246.859 136.414 245.994 135.827C244.827 135.036 244.023 133.784 243.787 132.393L239.683 108.11L240.204 108.022L244.308 132.305C244.519 133.555 245.241 134.679 246.291 135.389C247.225 136.023 248.356 136.297 249.476 136.159L280.942 132.313L281.007 132.837L249.541 136.684C249.331 136.71 249.12 136.722 248.91 136.722V136.723Z" fill="#4F5285"/>
<path d="M224.991 177.217L219.904 147.085C219.703 145.893 219.601 144.674 219.601 143.465C219.601 140.373 220.242 137.377 221.509 134.556L233.334 108.213L233.816 108.429L221.991 134.772C220.756 137.523 220.129 140.448 220.129 143.464C220.129 144.643 220.229 145.832 220.425 146.995L225.511 177.128L224.991 177.216V177.217Z" fill="#4F5285"/>
</g>
<path d="M231.636 113.099L231.117 113.196L234.004 128.536L234.523 128.438L231.636 113.099Z" fill="#4F5285"/>
<path d="M221.73 85.003L244.215 88.1152L255.986 109.32L262.259 106.097L254.145 82.9631C253.62 81.4686 252.783 80.1022 251.689 78.9566C250.318 77.5207 248.586 76.4788 246.677 75.9371L226.535 70.2275L221.73 85.003Z" fill="#003090"/>
<path d="M259.171 107.84C259.108 107.84 259.049 107.803 259.024 107.742L258.943 107.54C258.91 107.46 258.949 107.367 259.029 107.334C259.11 107.301 259.202 107.34 259.235 107.421L259.317 107.622C259.35 107.703 259.311 107.795 259.23 107.828C259.211 107.837 259.19 107.84 259.171 107.84ZM258.89 107.15C258.828 107.15 258.768 107.112 258.744 107.051L258.545 106.562C258.512 106.481 258.551 106.389 258.631 106.356C258.713 106.323 258.805 106.362 258.838 106.442L259.036 106.931C259.069 107.012 259.03 107.105 258.95 107.138C258.93 107.146 258.91 107.15 258.89 107.15ZM258.491 106.171C258.429 106.171 258.369 106.134 258.345 106.073L258.146 105.583C258.113 105.503 258.152 105.41 258.232 105.377C258.314 105.344 258.406 105.383 258.439 105.464L258.638 105.953C258.67 106.034 258.631 106.126 258.551 106.159C258.531 106.168 258.511 106.171 258.491 106.171ZM258.092 105.193C258.03 105.193 257.97 105.155 257.946 105.094L257.747 104.605C257.714 104.524 257.753 104.432 257.834 104.399C257.914 104.366 258.007 104.405 258.04 104.485L258.239 104.975C258.272 105.055 258.232 105.148 258.152 105.181C258.132 105.189 258.112 105.193 258.092 105.193ZM257.694 104.215C257.632 104.215 257.572 104.177 257.548 104.116L257.349 103.626C257.316 103.546 257.355 103.453 257.436 103.42C257.518 103.387 257.609 103.426 257.642 103.507L257.841 103.996C257.874 104.077 257.835 104.169 257.754 104.202C257.735 104.211 257.714 104.215 257.694 104.215ZM257.296 103.236C257.233 103.236 257.174 103.198 257.149 103.137L256.95 102.648C256.917 102.568 256.956 102.475 257.037 102.442C257.119 102.409 257.21 102.448 257.243 102.528L257.442 103.018C257.475 103.098 257.436 103.191 257.355 103.224C257.336 103.232 257.315 103.236 257.296 103.236ZM256.898 102.258C256.836 102.258 256.776 102.22 256.751 102.159L256.553 101.67C256.52 101.589 256.559 101.496 256.639 101.463C256.721 101.431 256.812 101.47 256.845 101.55L257.044 102.039C257.077 102.12 257.038 102.213 256.958 102.245C256.938 102.254 256.917 102.258 256.898 102.258ZM256.499 101.279C256.437 101.279 256.377 101.241 256.352 101.18L256.154 100.691C256.121 100.611 256.16 100.518 256.24 100.485C256.322 100.452 256.413 100.491 256.446 100.572L256.645 101.061C256.678 101.141 256.639 101.234 256.559 101.267C256.539 101.276 256.518 101.279 256.499 101.279ZM256.1 100.301C256.038 100.301 255.978 100.263 255.954 100.202L255.755 99.7127C255.722 99.6322 255.761 99.5395 255.841 99.5066C255.923 99.4736 256.015 99.5127 256.047 99.5932L256.246 100.082C256.279 100.163 256.24 100.256 256.16 100.289C256.14 100.297 256.119 100.301 256.1 100.301ZM255.702 99.3223C255.64 99.3223 255.58 99.2845 255.556 99.2235L255.357 98.7343C255.324 98.6538 255.363 98.5611 255.444 98.5281C255.525 98.4952 255.617 98.5342 255.65 98.6147L255.849 99.104C255.882 99.1845 255.842 99.2772 255.762 99.3101C255.742 99.3187 255.722 99.3223 255.702 99.3223ZM255.303 98.3439C255.241 98.3439 255.181 98.3061 255.157 98.2451L254.958 97.7559C254.925 97.6753 254.964 97.5826 255.045 97.5497C255.126 97.5167 255.218 97.5558 255.251 97.6363L255.45 98.1255C255.483 98.206 255.444 98.2988 255.363 98.3317C255.344 98.3402 255.323 98.3439 255.303 98.3439ZM254.904 97.3655C254.842 97.3655 254.782 97.3276 254.758 97.2666L254.559 96.7774C254.526 96.6969 254.565 96.6042 254.646 96.5712C254.726 96.5383 254.819 96.5773 254.852 96.6579L255.051 97.1471C255.084 97.2276 255.045 97.3203 254.964 97.3533C254.945 97.3618 254.924 97.3655 254.904 97.3655ZM254.507 96.387C254.444 96.387 254.385 96.3492 254.36 96.2882L254.161 95.799C254.128 95.7185 254.167 95.6257 254.248 95.5928C254.33 95.5599 254.421 95.5989 254.454 95.6794L254.653 96.1686C254.686 96.2492 254.647 96.3419 254.566 96.3748C254.547 96.3834 254.526 96.387 254.507 96.387ZM254.108 95.4086C254.045 95.4086 253.986 95.3708 253.961 95.3098L253.762 94.8205C253.729 94.74 253.768 94.6473 253.849 94.6144C253.931 94.5814 254.022 94.6205 254.055 94.701L254.254 95.1902C254.287 95.2707 254.248 95.3634 254.167 95.3964C254.148 95.4049 254.127 95.4086 254.108 95.4086ZM253.709 94.4301C253.647 94.4301 253.587 94.3923 253.562 94.3313L253.363 93.8421C253.331 93.7616 253.37 93.6689 253.45 93.6359C253.532 93.603 253.623 93.642 253.656 93.7225L253.855 94.2118C253.888 94.2923 253.849 94.385 253.769 94.4179C253.749 94.4265 253.728 94.4301 253.709 94.4301ZM253.311 93.4517C253.249 93.4517 253.189 93.4139 253.165 93.3529L252.966 92.8637C252.933 92.7831 252.972 92.6904 253.052 92.6575C253.134 92.6245 253.226 92.6636 253.259 92.7441L253.457 93.2333C253.49 93.3138 253.451 93.4066 253.371 93.4395C253.351 93.448 253.331 93.4517 253.311 93.4517ZM252.912 92.4733C252.85 92.4733 252.79 92.4354 252.766 92.3744L252.567 91.8852C252.534 91.8047 252.573 91.712 252.653 91.679C252.735 91.6461 252.827 91.6851 252.86 91.7657L253.058 92.2549C253.091 92.3354 253.052 92.4281 252.972 92.4611C252.952 92.4696 252.932 92.4733 252.912 92.4733ZM252.513 91.4948C252.451 91.4948 252.391 91.457 252.367 91.396L252.168 90.9068C252.135 90.8263 252.174 90.7335 252.254 90.7006C252.336 90.6677 252.428 90.7067 252.461 90.7872L252.66 91.2764C252.692 91.357 252.653 91.4497 252.573 91.4826C252.553 91.4912 252.533 91.4948 252.513 91.4948ZM252.115 90.5164C252.053 90.5164 251.993 90.4786 251.969 90.4176L251.77 89.9283C251.737 89.8478 251.776 89.7551 251.857 89.7222C251.938 89.6892 252.03 89.7283 252.063 89.8088L252.262 90.298C252.295 90.3785 252.256 90.4712 252.175 90.5042C252.156 90.5127 252.135 90.5164 252.115 90.5164ZM251.716 89.5379C251.654 89.5379 251.594 89.5001 251.57 89.4391L251.371 88.9499C251.338 88.8694 251.377 88.7767 251.458 88.7437C251.54 88.7108 251.631 88.7498 251.664 88.8303L251.863 89.3196C251.896 89.4001 251.857 89.4928 251.776 89.5257C251.757 89.5343 251.736 89.5379 251.716 89.5379ZM251.318 88.5595C251.255 88.5595 251.196 88.5217 251.171 88.4607L250.972 87.9715C250.939 87.8909 250.978 87.7982 251.059 87.7653C251.141 87.7323 251.232 87.7714 251.265 87.8519L251.464 88.3411C251.497 88.4216 251.458 88.5144 251.377 88.5473C251.358 88.5558 251.337 88.5595 251.318 88.5595ZM250.92 87.5811C250.858 87.5811 250.798 87.5432 250.773 87.4822L250.575 86.993C250.542 86.9125 250.581 86.8198 250.661 86.7868C250.743 86.7539 250.834 86.7929 250.867 86.8735L251.066 87.3627C251.099 87.4432 251.06 87.5359 250.98 87.5689C250.96 87.5774 250.939 87.5811 250.92 87.5811ZM250.521 86.6026C250.459 86.6026 250.399 86.5648 250.374 86.5038L250.311 86.3489C250.266 86.2391 250.218 86.1305 250.17 86.0256C250.133 85.9463 250.166 85.8523 250.245 85.8145C250.324 85.7767 250.418 85.8108 250.456 85.8901C250.507 85.9999 250.557 86.1134 250.604 86.2281L250.667 86.383C250.7 86.4635 250.661 86.5563 250.581 86.5892C250.561 86.5977 250.54 86.6014 250.521 86.6014V86.6026ZM250.071 85.6474C250.016 85.6474 249.962 85.6181 249.933 85.5668C249.849 85.418 249.757 85.2704 249.662 85.1276C249.613 85.0544 249.633 84.9568 249.705 84.908C249.777 84.8592 249.875 84.8788 249.924 84.9507C250.024 85.0996 250.119 85.2545 250.209 85.4107C250.251 85.4863 250.224 85.5839 250.149 85.6266C250.124 85.64 250.098 85.6474 250.071 85.6474ZM249.481 84.7714C249.435 84.7714 249.389 84.7507 249.357 84.7116C249.317 84.6604 249.275 84.6091 249.234 84.5591C249.165 84.4774 249.095 84.3969 249.023 84.3188C248.963 84.2541 248.968 84.1541 249.032 84.0943C249.096 84.0357 249.197 84.0394 249.256 84.1041C249.331 84.1858 249.405 84.27 249.477 84.3554C249.52 84.4078 249.563 84.4615 249.606 84.5152C249.66 84.5835 249.649 84.6836 249.58 84.7372C249.551 84.7604 249.517 84.7714 249.483 84.7714H249.481ZM248.766 83.9955C248.727 83.9955 248.688 83.9808 248.658 83.9528C248.532 83.8357 248.402 83.7234 248.268 83.6161C248.199 83.5612 248.188 83.4623 248.242 83.3928C248.297 83.3245 248.397 83.3135 248.465 83.3672C248.605 83.4794 248.743 83.5978 248.874 83.7198C248.937 83.7795 248.941 83.8796 248.881 83.9442C248.849 83.9772 248.808 83.9943 248.765 83.9943L248.766 83.9955ZM247.942 83.3367C247.911 83.3367 247.88 83.3281 247.853 83.3086C247.711 83.2122 247.565 83.1207 247.415 83.0353C247.339 82.9914 247.312 82.895 247.356 82.8194C247.4 82.7438 247.496 82.7169 247.572 82.7608C247.728 82.8499 247.882 82.9463 248.03 83.0475C248.102 83.0963 248.121 83.1952 248.071 83.2684C248.041 83.3135 247.991 83.3379 247.939 83.3379L247.942 83.3367ZM247.027 82.8121C247.004 82.8121 246.98 82.8072 246.958 82.7962C246.804 82.723 246.644 82.6535 246.484 82.5925C246.402 82.5608 246.362 82.4693 246.394 82.3875C246.425 82.3058 246.517 82.2655 246.599 82.2972C246.766 82.3619 246.933 82.4339 247.095 82.5107C247.174 82.5486 247.207 82.6425 247.17 82.7218C247.143 82.7791 247.085 82.8121 247.027 82.8121ZM246.042 82.4327C246.028 82.4327 246.012 82.4302 245.997 82.4253C245.836 82.3778 245.673 82.3351 245.51 82.2985L245.488 82.2924C245.404 82.268 245.355 82.1801 245.38 82.0959C245.404 82.0118 245.492 81.963 245.576 81.9874L245.588 81.991C245.749 82.0264 245.921 82.0703 246.089 82.1216C246.173 82.1472 246.22 82.235 246.195 82.3192C246.174 82.3875 246.112 82.4327 246.043 82.4327H246.042ZM245.024 82.1533C245.009 82.1533 244.994 82.1508 244.98 82.1472L244.472 82.0008C244.388 81.9764 244.339 81.8885 244.364 81.8044C244.388 81.7202 244.476 81.6714 244.56 81.6958L245.067 81.8422C245.152 81.8666 245.2 81.9544 245.176 82.0386C245.157 82.1081 245.093 82.1533 245.024 82.1533ZM244.008 81.8617C243.994 81.8617 243.979 81.8593 243.965 81.8556L243.457 81.7092C243.373 81.6848 243.324 81.597 243.348 81.5128C243.373 81.4286 243.461 81.3798 243.545 81.4042L244.052 81.5506C244.137 81.575 244.185 81.6628 244.161 81.747C244.141 81.8166 244.078 81.8617 244.008 81.8617ZM242.993 81.5689C242.979 81.5689 242.964 81.5665 242.95 81.5628L242.442 81.4164C242.358 81.392 242.309 81.3042 242.333 81.22C242.358 81.1358 242.446 81.087 242.53 81.1114L243.037 81.2578C243.122 81.2822 243.17 81.37 243.146 81.4542C243.126 81.5238 243.063 81.5689 242.993 81.5689ZM241.978 81.2761C241.964 81.2761 241.949 81.2737 241.934 81.27L241.427 81.1236C241.343 81.0992 241.294 81.0114 241.318 80.9272C241.343 80.843 241.431 80.7942 241.515 80.8186L242.022 80.965C242.107 80.9894 242.155 81.0772 242.131 81.1614C242.111 81.231 242.048 81.2761 241.978 81.2761ZM240.963 80.9833C240.949 80.9833 240.934 80.9809 240.919 80.9772L240.412 80.8308C240.328 80.8064 240.279 80.7186 240.303 80.6344C240.328 80.5502 240.416 80.5014 240.5 80.5258L241.007 80.6722C241.091 80.6966 241.14 80.7844 241.116 80.8686C241.096 80.9382 241.033 80.9833 240.963 80.9833ZM239.948 80.6917C239.934 80.6917 239.919 80.6893 239.904 80.6856L239.397 80.5392C239.313 80.5148 239.264 80.427 239.288 80.3428C239.313 80.2586 239.401 80.2098 239.485 80.2342L239.992 80.3806C240.076 80.405 240.125 80.4929 240.101 80.577C240.081 80.6466 240.018 80.6917 239.948 80.6917ZM238.933 80.3989C238.919 80.3989 238.904 80.3965 238.889 80.3928L238.382 80.2464C238.298 80.222 238.249 80.1342 238.273 80.05C238.298 79.9658 238.386 79.917 238.47 79.9414L238.977 80.0878C239.061 80.1122 239.11 80.2001 239.086 80.2842C239.066 80.3538 239.003 80.3989 238.933 80.3989ZM237.918 80.1073C237.904 80.1073 237.889 80.1049 237.874 80.1012L237.367 79.9548C237.283 79.9304 237.234 79.8426 237.258 79.7584C237.283 79.6742 237.37 79.6254 237.455 79.6498L237.962 79.7962C238.046 79.8206 238.095 79.9085 238.071 79.9927C238.051 80.0622 237.988 80.1073 237.918 80.1073Z" fill="#02308C"/>
<path d="M216.391 54.9003C216.391 54.9003 213.605 53.4631 211.928 55.8702C210.252 58.2772 212.28 62.9681 212.28 62.9681L212.174 59.4716C212.174 59.4716 211.837 63.4805 215.21 64.2321L216.39 54.9003H216.391Z" fill="#373660"/>
<path d="M218.736 54.4066C221.528 54.0577 224.232 57.2968 224.775 61.64L225.252 65.4622C225.329 66.0735 225.426 66.6822 225.547 67.2849C225.846 68.7843 226.382 70.2276 227.098 71.5793L221.431 75.9884L220.7 70.1373C217.907 70.4862 215.204 67.2471 214.661 62.9039C214.118 58.5607 215.942 54.7567 218.735 54.4078L218.736 54.4066Z" fill="#FFD1C1"/>
<mask id="mask4_4458_3839" style="mask-type:luminance" maskUnits="userSpaceOnUse" x="214" y="54" width="14" height="22">
<path d="M218.738 54.4086C221.53 54.0596 224.234 57.2987 224.777 61.6419L225.254 65.4642C225.331 66.0754 225.428 66.6842 225.549 67.2869C225.848 68.7863 226.384 70.2295 227.1 71.5813L221.433 75.9904L220.702 70.1392C217.909 70.4882 215.206 67.2491 214.663 62.9059C214.12 58.5627 215.944 54.7587 218.737 54.4098L218.738 54.4086Z" fill="white"/>
</mask>
<g mask="url(#mask4_4458_3839)">
<path d="M213.471 61.2792C213.471 61.2792 215.818 64.3523 221.282 62.4943L214.96 57.2324L213.472 61.2804L213.471 61.2792Z" fill="#FFB2A0"/>
<path d="M220.702 70.1334L222.42 68.6523C222.42 68.6523 222.568 71.2351 220.936 72.0086L220.702 70.1334Z" fill="#FFB2A0"/>
</g>
<path d="M214.915 58.6172C214.915 58.6172 216.659 62.3004 221.278 62.4907C221.278 62.4907 220.314 60.6631 221.224 60.1654C222.135 59.6676 223.209 61.117 223.28 61.8124C223.316 62.1601 223.133 62.62 222.942 62.9933C222.737 63.3947 222.832 63.8851 223.18 64.1718L225.316 65.9372C225.316 65.9372 226.773 60.7168 226.618 57.4228C226.463 54.13 220.622 51.8474 218.102 52.4696C215.583 53.0918 214.018 57.3228 214.915 58.616V58.6172Z" fill="#373660"/>
<path d="M221.49 109.319L251.388 106.539C251.388 106.539 243.737 84.8579 226.578 70.0117L217.525 76.9035L221.489 109.319H221.49Z" fill="#003090"/>
<path d="M222.691 72.9973L206.403 85.3169L181.446 80.9639L179.442 87.7264L201.111 97.5413C202.991 98.3928 205.031 98.8333 207.095 98.8333C209.907 98.8333 212.657 98.0159 215.013 96.4811L222.279 91.7451C226.675 88.8805 228.144 83.1245 225.656 78.5044L222.691 72.9961V72.9973Z" fill="#003090"/>
<path d="M219.525 93.5719L225.847 89.5215C225.847 89.5215 225.588 93.5524 220.294 99.5535L219.525 93.5719Z" fill="#02308C"/>
<path d="M221.111 74.1931L220.966 73.4538C220.8 72.6084 221.203 71.7531 221.961 71.342L226.028 69.1387L226.578 70.0122L221.113 74.1919L221.111 74.1931Z" fill="#373660"/>
<path d="M180.873 84.7316C180.857 84.7316 180.84 84.7292 180.824 84.7243L180.573 84.6426C180.49 84.6157 180.444 84.5267 180.472 84.4425C180.498 84.3595 180.587 84.3132 180.672 84.3412L180.923 84.423C181.006 84.4498 181.052 84.5401 181.024 84.623C181.002 84.6901 180.94 84.7328 180.874 84.7328L180.873 84.7316Z" fill="#02308C"/>
<path d="M205.962 92.5087C205.962 92.5087 205.961 92.5087 205.96 92.5087C205.782 92.5062 205.601 92.4977 205.424 92.4843C205.336 92.477 205.272 92.4013 205.279 92.3135C205.286 92.2269 205.361 92.1622 205.45 92.1683C205.621 92.1817 205.794 92.189 205.965 92.1915C206.052 92.1915 206.122 92.2647 206.121 92.3525C206.121 92.4391 206.049 92.5087 205.962 92.5087ZM206.488 92.4989C206.404 92.4989 206.334 92.433 206.329 92.3489C206.325 92.261 206.393 92.1866 206.479 92.1829C206.65 92.1744 206.824 92.1598 206.993 92.1402C207.08 92.1293 207.159 92.1927 207.169 92.2793C207.179 92.3659 207.116 92.4452 207.03 92.455C206.853 92.4757 206.673 92.4904 206.495 92.4989C206.493 92.4989 206.49 92.4989 206.487 92.4989H206.488ZM204.914 92.4269C204.907 92.4269 204.9 92.4269 204.891 92.4257C204.714 92.4001 204.536 92.3696 204.363 92.333C204.277 92.3147 204.222 92.2317 204.24 92.1451C204.258 92.0597 204.341 92.0048 204.427 92.0219C204.595 92.0573 204.765 92.0866 204.935 92.111C205.022 92.1232 205.081 92.2037 205.069 92.2903C205.058 92.3696 204.99 92.4269 204.913 92.4269H204.914ZM207.532 92.3794C207.457 92.3794 207.391 92.3257 207.376 92.2488C207.36 92.1622 207.418 92.0805 207.504 92.0646C207.603 92.0463 207.702 92.0268 207.801 92.0048C207.87 91.9902 207.94 91.9731 208.008 91.956C208.094 91.9353 208.179 91.9865 208.2 92.0719C208.22 92.1573 208.169 92.2427 208.084 92.2635C208.012 92.2805 207.94 92.2976 207.868 92.3135C207.765 92.3354 207.663 92.3562 207.559 92.3745C207.549 92.3757 207.54 92.3769 207.531 92.3769L207.532 92.3794ZM203.885 92.2122C203.87 92.2122 203.856 92.2098 203.842 92.2061C203.721 92.1732 203.599 92.1366 203.478 92.0963L203.332 92.0487C203.249 92.0219 203.204 91.9316 203.231 91.8487C203.257 91.7657 203.347 91.7206 203.431 91.7474L203.577 91.795C203.693 91.8328 203.81 91.8682 203.926 91.8999C204.01 91.9231 204.06 92.0109 204.037 92.0951C204.018 92.1659 203.954 92.211 203.885 92.211V92.2122ZM208.552 92.1268C208.485 92.1268 208.423 92.0841 208.401 92.0158C208.374 91.9328 208.421 91.8438 208.505 91.8169C208.668 91.7657 208.832 91.7084 208.991 91.6461C209.073 91.6144 209.165 91.6547 209.196 91.7364C209.228 91.8182 209.188 91.9097 209.106 91.9414C208.94 92.006 208.771 92.0658 208.601 92.1195C208.585 92.1244 208.569 92.1268 208.553 92.1268H208.552ZM202.88 91.895C202.865 91.895 202.848 91.8926 202.832 91.8877L202.331 91.7254C202.249 91.6986 202.203 91.6083 202.23 91.5254C202.257 91.4424 202.346 91.3973 202.43 91.4241L202.931 91.5864C203.013 91.6132 203.059 91.7035 203.032 91.7864C203.01 91.8535 202.948 91.8962 202.88 91.8962V91.895ZM209.532 91.7474C209.472 91.7474 209.415 91.7132 209.388 91.6559C209.351 91.5766 209.386 91.4827 209.465 91.4448C209.62 91.3729 209.775 91.2948 209.926 91.213C210.003 91.1716 210.099 91.1996 210.141 91.2765C210.182 91.3533 210.154 91.4497 210.077 91.4912C209.921 91.5766 209.76 91.6571 209.599 91.7315C209.577 91.7413 209.555 91.7462 209.532 91.7462V91.7474ZM201.88 91.5693C201.864 91.5693 201.847 91.5668 201.831 91.562L201.331 91.3985C201.248 91.3716 201.203 91.2814 201.23 91.1984C201.257 91.1154 201.346 91.0703 201.43 91.0971L201.93 91.2594C202.013 91.2862 202.058 91.3753 202.031 91.4595C202.009 91.5266 201.947 91.5693 201.88 91.5693ZM210.455 91.2448C210.403 91.2448 210.352 91.2191 210.321 91.1703C210.275 91.0959 210.297 90.9983 210.371 90.952C210.516 90.8605 210.66 90.7641 210.798 90.6628C210.869 90.6116 210.968 90.6274 211.019 90.6982C211.07 90.769 211.055 90.8678 210.984 90.919C210.84 91.0227 210.69 91.124 210.54 91.2191C210.514 91.2362 210.485 91.2435 210.455 91.2435V91.2448ZM200.88 91.2448C200.864 91.2448 200.847 91.2423 200.831 91.2374L200.331 91.0752C200.248 91.0483 200.203 90.9581 200.229 90.8751C200.256 90.7921 200.345 90.7458 200.43 90.7738L200.93 90.9361C201.013 90.9629 201.058 91.0532 201.031 91.1362C201.009 91.2033 200.947 91.246 200.88 91.246V91.2448ZM199.879 90.919C199.863 90.919 199.846 90.9166 199.83 90.9117L199.33 90.7494C199.247 90.7226 199.202 90.6323 199.229 90.5494C199.256 90.4664 199.345 90.42 199.429 90.4481L199.929 90.6104C200.012 90.6372 200.057 90.7275 200.031 90.8104C200.009 90.8775 199.946 90.9202 199.879 90.9202V90.919ZM211.317 90.6409C211.268 90.6409 211.219 90.6177 211.189 90.5762C211.137 90.5054 211.152 90.4066 211.223 90.3542L211.647 90.0443C211.718 89.993 211.817 90.0077 211.868 90.0784C211.919 90.1492 211.905 90.248 211.834 90.3005L211.41 90.6104C211.381 90.6311 211.349 90.6409 211.317 90.6409ZM198.88 90.5933C198.864 90.5933 198.847 90.5908 198.831 90.586L198.331 90.4237C198.248 90.3969 198.203 90.3066 198.23 90.2236C198.257 90.1407 198.346 90.0943 198.43 90.1224L198.93 90.2846C199.013 90.3115 199.058 90.4017 199.031 90.4847C199.009 90.5518 198.947 90.5945 198.88 90.5945V90.5933ZM197.88 90.2675C197.864 90.2675 197.847 90.2651 197.831 90.2602L197.331 90.0967C197.248 90.0699 197.203 89.9796 197.229 89.8967C197.256 89.8137 197.345 89.7673 197.43 89.7954L197.93 89.9589C198.013 89.9857 198.058 90.076 198.031 90.159C198.009 90.2261 197.947 90.2688 197.88 90.2688V90.2675ZM212.167 90.0211C212.118 90.0211 212.07 89.9979 212.039 89.9564C211.988 89.8857 212.002 89.7869 212.073 89.7344L212.498 89.4245C212.569 89.3733 212.667 89.3879 212.719 89.4587C212.77 89.5294 212.755 89.6283 212.684 89.6807L212.26 89.9906C212.232 90.0113 212.199 90.0211 212.167 90.0211ZM196.879 89.9418C196.863 89.9418 196.846 89.9394 196.831 89.9345L196.33 89.7722C196.247 89.7454 196.202 89.6551 196.229 89.5721C196.256 89.4892 196.345 89.4428 196.429 89.4709L196.929 89.6331C197.012 89.66 197.057 89.7503 197.031 89.8332C197.009 89.9003 196.946 89.943 196.879 89.943V89.9418ZM195.879 89.6161C195.863 89.6161 195.846 89.6136 195.83 89.6087L195.33 89.4465C195.247 89.4196 195.202 89.3294 195.229 89.2464C195.255 89.1634 195.345 89.1183 195.429 89.1451L195.929 89.3074C196.012 89.3342 196.057 89.4245 196.03 89.5075C196.008 89.5746 195.946 89.6173 195.879 89.6173V89.6161ZM213.016 89.4001C212.967 89.4001 212.919 89.3769 212.888 89.3355C212.837 89.2647 212.852 89.1659 212.922 89.1134L213.347 88.8035C213.418 88.7523 213.516 88.7669 213.568 88.8377C213.619 88.9085 213.604 89.0073 213.534 89.0597L213.109 89.3696C213.081 89.3904 213.048 89.4001 213.016 89.4001ZM194.879 89.2903C194.863 89.2903 194.846 89.2879 194.83 89.283L194.33 89.1207C194.247 89.0939 194.201 89.0036 194.228 88.9207C194.255 88.8377 194.344 88.7913 194.428 88.8194L194.929 88.9817C195.012 89.0085 195.057 89.0988 195.03 89.1817C195.008 89.2488 194.946 89.2915 194.879 89.2915V89.2903ZM193.878 88.9646C193.862 88.9646 193.845 88.9621 193.829 88.9573L193.329 88.7938C193.246 88.7669 193.201 88.6767 193.228 88.5937C193.255 88.5107 193.344 88.4656 193.428 88.4924L193.928 88.6559C194.011 88.6828 194.056 88.773 194.029 88.856C194.007 88.9231 193.945 88.9658 193.878 88.9658V88.9646ZM213.867 88.7804C213.818 88.7804 213.769 88.7572 213.738 88.7157C213.687 88.6449 213.702 88.5461 213.773 88.4937L214.197 88.1838C214.268 88.1325 214.367 88.1472 214.418 88.2179C214.469 88.2887 214.455 88.3875 214.384 88.44L213.959 88.7499C213.931 88.7706 213.898 88.7804 213.867 88.7804ZM192.878 88.6388C192.862 88.6388 192.845 88.6364 192.829 88.6315L192.329 88.4693C192.246 88.4424 192.201 88.3521 192.227 88.2692C192.254 88.1862 192.343 88.1399 192.428 88.1679L192.928 88.3302C193.011 88.357 193.056 88.4473 193.029 88.5303C193.007 88.5974 192.945 88.6401 192.878 88.6401V88.6388ZM191.877 88.3131C191.861 88.3131 191.844 88.3107 191.829 88.3058L191.328 88.1435C191.245 88.1167 191.2 88.0264 191.227 87.9434C191.254 87.8605 191.343 87.8141 191.427 87.8422L191.927 88.0044C192.01 88.0313 192.055 88.1216 192.029 88.2045C192.007 88.2716 191.944 88.3143 191.877 88.3143V88.3131ZM214.716 88.1594C214.667 88.1594 214.618 88.1362 214.588 88.0947C214.536 88.024 214.551 87.9251 214.622 87.8727L215.046 87.5628C215.117 87.5116 215.216 87.5274 215.267 87.597C215.318 87.6677 215.304 87.7665 215.233 87.819L214.808 88.1289C214.78 88.1496 214.747 88.1594 214.714 88.1594H214.716ZM190.877 87.9874C190.861 87.9874 190.844 87.9849 190.828 87.98L190.328 87.8166C190.245 87.7897 190.2 87.6994 190.227 87.6165C190.253 87.5335 190.343 87.4872 190.427 87.5152L190.927 87.6787C191.01 87.7055 191.055 87.7958 191.028 87.8788C191.006 87.9459 190.944 87.9886 190.877 87.9886V87.9874ZM189.877 87.6616C189.861 87.6616 189.844 87.6592 189.828 87.6543L189.328 87.4908C189.245 87.464 189.199 87.3737 189.226 87.2907C189.253 87.2078 189.342 87.1614 189.426 87.1895L189.927 87.353C190.01 87.3798 190.055 87.4701 190.028 87.553C190.006 87.6201 189.944 87.6628 189.877 87.6628V87.6616ZM215.566 87.5396C215.517 87.5396 215.468 87.5164 215.438 87.475C215.387 87.4042 215.401 87.3054 215.472 87.2529L215.897 86.943C215.967 86.8918 216.066 86.9064 216.117 86.9772C216.169 87.048 216.154 87.1468 216.083 87.1992L215.659 87.5091C215.631 87.5299 215.598 87.5396 215.566 87.5396ZM188.876 87.3359C188.86 87.3359 188.843 87.3334 188.827 87.3286L188.327 87.1663C188.244 87.1395 188.199 87.0492 188.226 86.9662C188.253 86.8833 188.342 86.8369 188.426 86.865L188.926 87.0272C189.009 87.0541 189.054 87.1443 189.027 87.2273C189.005 87.2944 188.943 87.3371 188.876 87.3371V87.3359ZM187.876 87.0101C187.86 87.0101 187.843 87.0077 187.827 87.0028L187.327 86.8406C187.244 86.8137 187.199 86.7234 187.225 86.6405C187.252 86.5575 187.341 86.5124 187.426 86.5392L187.926 86.7015C188.009 86.7283 188.054 86.8186 188.027 86.9016C188.005 86.9687 187.943 87.0114 187.876 87.0114V87.0101ZM216.415 86.9186C216.366 86.9186 216.318 86.8955 216.287 86.854C216.236 86.7832 216.25 86.6844 216.321 86.6319L216.746 86.3221C216.817 86.2708 216.915 86.2855 216.968 86.3562C217.019 86.427 217.004 86.5258 216.934 86.5783L216.509 86.8881C216.481 86.9089 216.448 86.9186 216.415 86.9186ZM186.875 86.6844C186.859 86.6844 186.842 86.682 186.827 86.6771L186.326 86.5136C186.243 86.4868 186.198 86.3965 186.225 86.3135C186.252 86.2306 186.341 86.1854 186.425 86.2123L186.925 86.3757C187.008 86.4026 187.053 86.4929 187.027 86.5758C187.005 86.6429 186.942 86.6856 186.875 86.6856V86.6844ZM185.875 86.3587C185.859 86.3587 185.842 86.3562 185.826 86.3513L185.326 86.1879C185.243 86.161 185.198 86.0707 185.225 85.9878C185.251 85.9048 185.341 85.8597 185.425 85.8865L185.925 86.05C186.008 86.0768 186.053 86.1659 186.026 86.2501C186.004 86.3172 185.942 86.3599 185.875 86.3599V86.3587ZM217.264 86.2977C217.215 86.2977 217.167 86.2745 217.136 86.233C217.085 86.1622 217.1 86.0634 217.17 86.011L217.595 85.7011C217.666 85.6498 217.764 85.6645 217.816 85.7352C217.867 85.806 217.852 85.9048 217.782 85.9573L217.357 86.2672C217.329 86.2879 217.296 86.2977 217.264 86.2977ZM184.875 86.0329C184.859 86.0329 184.842 86.0305 184.826 86.0256L184.326 85.8633C184.243 85.8365 184.197 85.7462 184.224 85.6633C184.251 85.5803 184.34 85.5339 184.424 85.562L184.925 85.7243C185.008 85.7511 185.053 85.8414 185.026 85.9243C185.004 85.9914 184.942 86.0341 184.875 86.0341V86.0329ZM183.874 85.7072C183.858 85.7072 183.841 85.7047 183.825 85.6999L183.325 85.5376C183.242 85.5108 183.197 85.4205 183.224 85.3375C183.251 85.2546 183.34 85.2082 183.424 85.2363L183.924 85.3985C184.007 85.4254 184.052 85.5156 184.025 85.5986C184.003 85.6657 183.941 85.7084 183.874 85.7084V85.7072ZM218.115 85.6779C218.066 85.6779 218.017 85.6547 217.987 85.6132C217.935 85.5425 217.95 85.4437 218.021 85.3912L218.445 85.0813C218.516 85.0301 218.615 85.0447 218.667 85.1155C218.719 85.1862 218.704 85.2851 218.633 85.3375L218.209 85.6474C218.181 85.6681 218.148 85.6779 218.115 85.6779ZM182.874 85.3814C182.858 85.3814 182.841 85.379 182.825 85.3741L182.325 85.2119C182.242 85.185 182.195 85.0947 182.223 85.0118C182.25 84.9288 182.339 84.8825 182.424 84.9105L182.924 85.074C183.007 85.1008 183.053 85.1911 183.025 85.2741C183.003 85.3412 182.941 85.3839 182.875 85.3839L182.874 85.3814ZM218.964 85.0569C218.915 85.0569 218.866 85.0337 218.836 84.9923C218.784 84.9215 218.799 84.8227 218.87 84.7702L219.294 84.4603C219.365 84.4091 219.464 84.4237 219.515 84.4945C219.566 84.5653 219.552 84.6641 219.481 84.7165L219.056 85.0264C219.028 85.0472 218.995 85.0569 218.964 85.0569ZM181.873 85.0557C181.857 85.0557 181.84 85.0533 181.825 85.0484L181.324 84.8849C181.241 84.8581 181.195 84.7678 181.223 84.6848C181.25 84.6019 181.34 84.5555 181.423 84.5836L181.923 84.747C182.006 84.7739 182.053 84.8642 182.025 84.9471C182.003 85.0142 181.94 85.0569 181.875 85.0569L181.873 85.0557ZM219.814 84.4372C219.765 84.4372 219.716 84.414 219.686 84.3725C219.635 84.3017 219.649 84.2029 219.72 84.1505L220.145 83.8406C220.215 83.7893 220.314 83.804 220.366 83.8747C220.417 83.9455 220.402 84.0443 220.331 84.0968L219.907 84.4067C219.879 84.4274 219.846 84.4372 219.814 84.4372ZM220.663 83.8162C220.614 83.8162 220.566 83.793 220.535 83.7515C220.484 83.6808 220.499 83.5819 220.569 83.5295L220.994 83.2196C221.065 83.1684 221.163 83.183 221.215 83.2538C221.266 83.3245 221.251 83.4233 221.18 83.4758L220.756 83.7857C220.728 83.8064 220.695 83.8162 220.663 83.8162ZM221.512 83.1952C221.464 83.1952 221.415 83.172 221.384 83.1305C221.333 83.0598 221.348 82.961 221.418 82.9085L221.843 82.5986C221.914 82.5474 222.013 82.562 222.064 82.6328C222.115 82.7035 222.1 82.8024 222.03 82.8548L221.605 83.1647C221.577 83.1854 221.544 83.1952 221.512 83.1952ZM222.361 82.5742C222.313 82.5742 222.264 82.551 222.233 82.5096C222.182 82.4388 222.197 82.34 222.268 82.2875L222.692 81.9776C222.763 81.9264 222.862 81.9423 222.913 82.0118C222.964 82.0826 222.95 82.1814 222.879 82.2338L222.454 82.5437C222.426 82.5645 222.393 82.5742 222.361 82.5742ZM223.211 81.9532C223.162 81.9532 223.113 81.9301 223.082 81.8886C223.031 81.8178 223.046 81.719 223.117 81.6665L223.541 81.3567C223.612 81.3054 223.711 81.3201 223.762 81.3908C223.813 81.4616 223.799 81.5604 223.728 81.6129L223.303 81.9227C223.275 81.9435 223.242 81.9532 223.211 81.9532Z" fill="#02308C"/>
<path d="M224.063 81.3364C224.015 81.3364 223.966 81.3144 223.935 81.2717C223.884 81.201 223.899 81.1021 223.969 81.0509L224.183 80.8947C224.254 80.8435 224.353 80.8581 224.405 80.9289C224.456 80.9997 224.442 81.0985 224.371 81.1509L224.157 81.3071C224.129 81.3278 224.096 81.3376 224.063 81.3376V81.3364Z" fill="#02308C"/>
<path d="M225.297 90.3773C225.252 90.3773 225.207 90.3577 225.177 90.3211C225.12 90.254 225.129 90.154 225.196 90.0979C225.208 90.0869 226.462 89.0157 227.298 87.165C228.417 84.6896 228.302 82.0691 226.957 79.3753C225.817 77.0951 224.284 75.8507 223.197 75.209C222.018 74.5124 221.096 74.3526 221.086 74.3513C220.999 74.3367 220.941 74.255 220.955 74.1696C220.97 74.0842 221.052 74.0256 221.137 74.039C221.176 74.0451 222.116 74.2062 223.343 74.9284C224.47 75.5921 226.062 76.878 227.24 79.235C228.974 82.7071 228.383 85.5424 227.58 87.309C226.713 89.2219 225.452 90.2967 225.399 90.3419C225.369 90.3675 225.333 90.3797 225.296 90.3797L225.297 90.3773Z" fill="#02308C"/>
<path opacity="0.55" d="M241.763 87.7749C241.763 87.7749 235.593 74.7575 226.579 70.0117C226.579 70.0117 242.679 77.5904 244.215 88.1141L241.763 87.7749Z" fill="#02308C"/>
<path d="M100.329 148.102C92.6952 148.102 85.2886 146.606 78.3151 143.656C71.5807 140.807 65.5331 136.73 60.3408 131.538C55.1485 126.346 51.0712 120.298 48.2225 113.564C45.2726 106.589 43.7769 99.1822 43.7769 91.5499C43.7769 83.9176 45.2726 76.5098 48.2225 69.5362C51.0712 62.8018 55.1485 56.7543 60.3408 51.562C65.5331 46.3697 71.5807 42.2924 78.3151 39.4437C85.2898 36.4938 92.6964 34.998 100.329 34.998C107.961 34.998 115.369 36.4938 122.342 39.4437C129.077 42.2924 135.124 46.3697 140.317 51.562C145.509 56.7543 149.586 62.8018 152.435 69.5362C155.385 76.511 156.881 83.9176 156.881 91.5499C156.881 99.1822 155.385 106.59 152.435 113.564C149.586 120.298 145.509 126.346 140.317 131.538C135.124 136.73 129.077 140.807 122.342 143.656C115.368 146.606 107.961 148.102 100.329 148.102Z" fill="#003090"/>
<path d="M100.329 144.694C129.682 144.694 153.477 120.898 153.477 91.5455C153.477 62.1927 129.682 38.3975 100.329 38.3975C70.9759 38.3975 47.1807 62.1927 47.1807 91.5455C47.1807 120.898 70.9759 144.694 100.329 144.694Z" fill="#03266E"/>
<path d="M100.645 141.26C128.311 141.26 150.738 118.832 150.738 91.1664C150.738 63.5007 128.311 41.0732 100.645 41.0732C72.9793 41.0732 50.5518 63.5007 50.5518 91.1664C50.5518 118.832 72.9793 141.26 100.645 141.26Z" fill="#F7F7F7"/>
<mask id="mask5_4458_3839" style="mask-type:luminance" maskUnits="userSpaceOnUse" x="50" y="41" width="101" height="101">
<path d="M100.645 141.264C128.311 141.264 150.738 118.836 150.738 91.1703C150.738 63.5046 128.311 41.0771 100.645 41.0771C72.9793 41.0771 50.5518 63.5046 50.5518 91.1703C50.5518 118.836 72.9793 141.264 100.645 141.264Z" fill="white"/>
</mask>
<g mask="url(#mask5_4458_3839)">
<path opacity="0.14" d="M129.394 47.0527C129.394 47.0527 120.005 101.023 47.1807 118.14C47.1807 118.14 68.2793 156.223 122.342 143.662C122.342 143.662 151.819 135.453 156.322 88.7377C156.322 88.7377 150.62 55.1218 129.394 47.0527Z" fill="#E8E8E8"/>
</g>
<path d="M102.044 44.4014H99.1519V49.6925H102.044V44.4014Z" fill="#D1D1D1"/>
<path d="M102.137 132.641H99.2446V137.932H102.137V132.641Z" fill="#D1D1D1"/>
<path d="M134.706 59.0874L132.66 57.042L128.919 60.7834L130.964 62.8288L134.706 59.0874Z" fill="#D1D1D1"/>
<path d="M72.376 121.544L70.3306 119.499L66.5892 123.24L68.6346 125.286L72.376 121.544Z" fill="#D1D1D1"/>
<path d="M53.8799 89.7695V92.6621H59.171V89.7695H53.8799Z" fill="#D1D1D1"/>
<path d="M142.121 89.6699V92.5625H147.412V89.6699H142.121Z" fill="#D1D1D1"/>
<path d="M68.5679 57.106L66.5225 59.1514L70.2639 62.8928L72.3093 60.8474L68.5679 57.106Z" fill="#D1D1D1"/>
<path d="M131.027 119.438L128.981 121.483L132.723 125.225L134.768 123.179L131.027 119.438Z" fill="#D1D1D1"/>
<path d="M102.104 89.3879L100.647 91.7144L99.1856 89.3793C98.6427 88.5119 98.3768 87.5005 98.4231 86.4782L99.4528 63.9594C99.4662 63.6593 99.7139 63.4238 100.014 63.4238H101.194C101.493 63.4238 101.739 63.6581 101.755 63.957L102.865 86.4672C102.916 87.4956 102.65 88.5143 102.104 89.3866V89.3879Z" fill="#003090"/>
<path d="M96.808 93.0243L98.8534 95.0697L73.8446 120.079C73.6289 120.294 73.2778 120.295 73.0613 120.079L71.7983 118.816C71.5827 118.6 71.5818 118.249 71.7983 118.032L96.8071 93.0234L96.808 93.0243Z" fill="#003090"/>
<path d="M104.805 95.6903C107.277 93.218 107.277 89.2097 104.805 86.7375C102.332 84.2652 98.3241 84.2652 95.8519 86.7375C93.3796 89.2097 93.3796 93.218 95.8519 95.6903C98.3241 98.1625 102.332 98.1625 104.805 95.6903Z" fill="#373660"/>
<path d="M269.079 88.1126C269.079 88.1126 270.936 80.5656 290.882 78.3721L295.933 92.3521C295.933 92.3521 281.021 89.6778 274.544 97.6615L269.078 88.1126H269.079Z" fill="#E8E8E8"/>
<mask id="mask6_4458_3839" style="mask-type:luminance" maskUnits="userSpaceOnUse" x="269" y="78" width="27" height="20">
<path d="M269.081 88.1096C269.081 88.1096 270.938 80.5627 290.884 78.3691L295.935 92.3491C295.935 92.3491 281.023 89.6749 274.546 97.6586L269.08 88.1096H269.081Z" fill="white"/>
</mask>
<g mask="url(#mask6_4458_3839)">
<path d="M271.789 81.0205C271.789 81.0205 276.45 91.443 293.058 93.7402L273.925 99.5511L266.738 89.0444L271.789 81.0217V81.0205Z" fill="#D1D1D1"/>
</g>
<path d="M226.398 162.012C226.398 162.012 236.105 154.918 253.092 155.671L255.672 169.755C255.672 169.755 242.391 169.699 231.372 172.766L226.398 162.012Z" fill="#E8E8E8"/>
<path d="M281.208 156.229C281.208 156.229 285.938 163.538 303.378 159.859L299.286 166.955C297.05 170.832 292.705 172.99 288.266 172.418C281.906 171.598 273.252 169.136 269.079 161.987L281.208 156.228V156.229Z" fill="#E8E8E8"/>
<path d="M285.364 171.948C285.364 171.948 290.067 168.619 289.088 163.424C289.088 163.424 294.558 163.432 298.826 167.685C298.826 167.685 295.482 174.215 285.364 171.947V171.948Z" fill="#D1D1D1"/>
<path d="M175.825 137.664C175.825 137.664 183.427 142.397 188.718 141.353L195.794 129.624C179.912 125.589 177.28 112.124 177.28 112.124L167.472 124.556C168.681 130.025 172.163 134.407 175.824 137.665" fill="#E8E8E8"/>
<path d="M175.824 137.666C175.824 137.666 180.348 139.815 185.966 135.937L188.716 141.356C188.716 141.356 184.704 142.692 175.823 137.666H175.824Z" fill="#D1D1D1"/>
<path d="M197.774 174.81H137.17C135.304 174.81 133.792 173.297 133.792 171.432C133.792 169.567 135.304 168.054 137.17 168.054H197.774C199.64 168.054 201.153 169.567 201.153 171.432C201.153 173.297 199.64 174.81 197.774 174.81Z" fill="#FE6D60"/>
<path d="M137.169 175.974C134.664 175.974 132.625 173.937 132.625 171.431C132.625 168.925 134.663 166.888 137.169 166.888H197.773C200.278 166.888 202.317 168.925 202.317 171.431C202.317 173.937 200.278 175.974 197.773 175.974H137.169Z" fill="#373660"/>
<path d="M197.774 174.811H137.169C135.304 174.811 133.791 173.298 133.791 171.433C133.791 169.567 135.304 168.055 137.169 168.055H197.774C199.639 168.055 201.152 169.567 201.152 171.433C201.152 173.298 199.639 174.811 197.774 174.811Z" fill="#003090"/>
<mask id="mask7_4458_3839" style="mask-type:luminance" maskUnits="userSpaceOnUse" x="133" y="168" width="69" height="7">
<path d="M197.773 174.812H137.168C135.303 174.812 133.79 173.299 133.79 171.434C133.79 169.568 135.303 168.056 137.168 168.056H197.773C199.638 168.056 201.151 169.568 201.151 171.434C201.151 173.299 199.638 174.812 197.773 174.812Z" fill="white"/>
</mask>
<g mask="url(#mask7_4458_3839)">
<path d="M182.147 166.169L177.021 177.678H202.316V165.975L182.147 166.169Z" fill="#F7F7F7"/>
<mask id="mask8_4458_3839" style="mask-type:luminance" maskUnits="userSpaceOnUse" x="177" y="165" width="26" height="13">
<path d="M182.148 166.17L177.022 177.679H202.317V165.976L182.148 166.17Z" fill="white"/>
</mask>
<g mask="url(#mask8_4458_3839)">
<path d="M184.213 167.65L181.029 175.068H183.743L186.927 167.541L184.213 167.65Z" fill="#003090"/>
</g>
</g>
<path d="M333.098 217.355H32.9023V217.965H333.098V217.355Z" fill="#373660"/>
</svg>
