<svg width="24" height="24" viewBox="0 0 24 24" fill="none" xmlns="http://www.w3.org/2000/svg">
<path d="M9.57061 18.8185C9.47208 18.8189 9.37448 18.7996 9.28348 18.7618C9.19248 18.7241 9.10992 18.6686 9.04061 18.5985L2.97161 12.5285C2.83213 12.3874 2.75391 12.197 2.75391 11.9985C2.75391 11.8001 2.83213 11.6097 2.97161 11.4685L9.04061 5.39953C9.18278 5.26705 9.37083 5.19493 9.56513 5.19836C9.75943 5.20179 9.94482 5.2805 10.0822 5.41791C10.2196 5.55533 10.2984 5.74071 10.3018 5.93501C10.3052 6.12931 10.2331 6.31736 10.1006 6.45953L4.56061 11.9995L10.1006 17.5395C10.2401 17.6807 10.3183 17.8711 10.3183 18.0695C10.3183 18.268 10.2401 18.4584 10.1006 18.5995C10.0318 18.6702 9.94931 18.726 9.85818 18.7637C9.76705 18.8013 9.6692 18.82 9.57061 18.8185Z" fill="white"/>
<path d="M20.4999 12.75H3.66992C3.47141 12.7487 3.28141 12.6693 3.14104 12.5289C3.00067 12.3885 2.92123 12.1985 2.91992 12C2.92123 11.8015 3.00067 11.6115 3.14104 11.4711C3.28141 11.3307 3.47141 11.2513 3.66992 11.25H20.4999C20.6984 11.2513 20.8884 11.3307 21.0288 11.4711C21.1692 11.6115 21.2486 11.8015 21.2499 12C21.2486 12.1985 21.1692 12.3885 21.0288 12.5289C20.8884 12.6693 20.6984 12.7487 20.4999 12.75Z" fill="white"/>
</svg>
