<svg width="24" height="20" viewBox="0 0 24 20" fill="none" xmlns="http://www.w3.org/2000/svg">
    <path
        d="M17.975 5.14347C17.643 5.07747 17.372 4.87047 17.233 4.57447C15.681 1.30347 12.09 -0.525528 8.498 0.136472C5.226 0.736472 2.661 3.34847 2.114 6.63747C1.952 7.60847 1.964 8.58047 2.147 9.52747C2.207 9.83647 2.074 10.1805 1.801 10.4285C0.656 11.4695 0 12.9525 0 14.4985C0 17.5305 2.467 19.9985 5.5 19.9985H16.5C20.636 19.9985 24 16.6345 24 12.4985C24 8.93347 21.466 5.84047 17.974 5.14447L17.975 5.14347ZM16.501 17.9975H5.501C3.571 17.9975 2.001 16.4275 2.001 14.4975C2.001 13.5145 2.419 12.5695 3.147 11.9075C3.933 11.1925 4.302 10.1345 4.11 9.14447C3.972 8.43247 3.964 7.69947 4.086 6.96347C4.489 4.54147 6.451 2.54247 8.857 2.10147C9.242 2.03147 9.625 1.99747 10.002 1.99747C12.314 1.99747 14.408 3.28647 15.424 5.43147C15.838 6.30347 16.624 6.91247 17.582 7.10447C20.141 7.61547 21.999 9.88247 21.999 12.4985C21.999 15.5305 19.532 17.9985 16.499 17.9985L16.501 17.9975ZM15.122 11.2905C15.513 11.6815 15.513 12.3135 15.122 12.7045L12.415 15.4115C12.028 15.7985 11.519 15.9935 11.01 15.9955L11.001 15.9975L10.992 15.9955C10.483 15.9935 9.974 15.7985 9.587 15.4115L6.88 12.7045C6.489 12.3135 6.489 11.6815 6.88 11.2905C7.271 10.8995 7.903 10.8995 8.294 11.2905L10.001 12.9975V7.99747C10.001 7.44447 10.449 6.99747 11.001 6.99747C11.553 6.99747 12.001 7.44447 12.001 7.99747V12.9975L13.708 11.2905C14.099 10.8995 14.731 10.8995 15.122 11.2905Z"
        fill="white" />
</svg>