<svg width="19" height="20" viewBox="0 0 19 20" fill="none" xmlns="http://www.w3.org/2000/svg">
    <path
        d="M11.8757 18.5101H7.12565C2.8269 18.5101 0.990234 16.6734 0.990234 12.3747V7.62467C0.990234 3.32592 2.8269 1.48926 7.12565 1.48926H8.70898C8.86614 1.4903 9.01656 1.55318 9.12768 1.66431C9.23881 1.77544 9.3017 1.92586 9.30273 2.08301C9.3017 2.24016 9.23881 2.39058 9.12768 2.50171C9.01656 2.61283 8.86614 2.67572 8.70898 2.67676H7.12565C3.47607 2.67676 2.17773 3.97509 2.17773 7.62467V12.3747C2.17773 16.0243 3.47607 17.3226 7.12565 17.3226H11.8757C15.5252 17.3226 16.8236 16.0243 16.8236 12.3747V10.7913C16.8236 10.6339 16.8861 10.4828 16.9975 10.3715C17.1088 10.2601 17.2598 10.1976 17.4173 10.1976C17.5748 10.1976 17.7258 10.2601 17.8372 10.3715C17.9485 10.4828 18.0111 10.6339 18.0111 10.7913V12.3747C18.0111 16.6734 16.1744 18.5101 11.8757 18.5101Z"
        fill="white" />
    <path
        d="M6.72982 14.504C6.26461 14.5108 5.81535 14.3346 5.47898 14.0131C5.28517 13.8107 5.14187 13.5654 5.0607 13.2971C4.97954 13.0289 4.96282 12.7453 5.0119 12.4694L5.35232 10.0865C5.44577 9.57098 5.68476 9.09301 6.04107 8.70896L12.2794 2.47063C13.8548 0.895208 15.454 0.895208 17.0294 2.47063C17.4091 2.79122 17.7117 3.19332 17.9145 3.647C18.1174 4.10069 18.2153 4.59428 18.2011 5.09104C18.0739 5.91463 17.6587 6.66641 17.0294 7.21271L10.7911 13.451C10.407 13.8073 9.92904 14.0463 9.41357 14.1398L7.03065 14.4802C6.93161 14.4996 6.83067 14.5076 6.72982 14.504ZM13.1186 3.30979L6.88023 9.54813C6.70488 9.7498 6.58245 9.99193 6.52398 10.2527L6.18357 12.6356C6.16276 12.7296 6.16408 12.8272 6.18744 12.9206C6.21079 13.0141 6.25554 13.1008 6.31815 13.174C6.39132 13.2366 6.47804 13.2813 6.57146 13.3047C6.66488 13.328 6.76246 13.3294 6.85648 13.3085L9.2394 12.9681C9.50077 12.9113 9.7433 12.7887 9.94398 12.6119L16.1823 6.37354C16.6095 6.01482 16.9002 5.52004 17.0056 4.97229C16.9991 4.65056 16.9219 4.3342 16.7797 4.04556C16.6374 3.75692 16.4335 3.50305 16.1823 3.30188C14.9149 2.03442 14.044 2.39146 13.1178 3.30979H13.1186Z"
        fill="white" />
    <path
        d="M15.715 8.28223C15.6613 8.28269 15.6079 8.27468 15.5567 8.25848C14.5278 7.96553 13.5908 7.41474 12.8344 6.65831C12.0779 5.90188 11.5272 4.96485 11.2342 3.93598C11.1926 3.7838 11.2124 3.62135 11.2894 3.48364C11.3664 3.34592 11.4944 3.24397 11.6459 3.19973C11.7207 3.1787 11.799 3.17267 11.8762 3.18199C11.9534 3.19132 12.028 3.21582 12.0957 3.25408C12.1634 3.29233 12.2228 3.3436 12.2706 3.40493C12.3184 3.46625 12.3536 3.53642 12.3742 3.6114C12.6113 4.4443 13.0572 5.20285 13.6696 5.8152C14.2819 6.42756 15.0405 6.87342 15.8734 7.11057C16.0254 7.1539 16.1541 7.2557 16.2312 7.39368C16.3084 7.53167 16.3277 7.6946 16.285 7.84682C16.2522 7.97257 16.1783 8.08373 16.075 8.16263C15.9717 8.24153 15.845 8.28363 15.715 8.28223Z"
        fill="white" />
</svg>