<svg width="28" height="29" viewBox="0 0 28 29" fill="none" xmlns="http://www.w3.org/2000/svg">
    <mask id="mask0_2917_9589" style="mask-type:alpha" maskUnits="userSpaceOnUse" x="0" y="0" width="28" height="29">
        <path
            d="M23.8579 24.3576H19.7089V17.8599C19.7089 16.3104 19.6813 14.3165 17.5509 14.3165C15.3901 14.3165 15.059 16.004 15.059 17.7482V24.3576H10.9113V10.9952H14.8948V12.8208H14.95C15.7627 11.4326 17.2722 10.6034 18.8796 10.6627C23.0852 10.6627 23.8593 13.4293 23.8593 17.0265L23.8579 24.3576ZM6.22973 9.16833C4.89962 9.16833 3.82201 8.09067 3.82201 6.76051C3.82201 5.43035 4.89962 4.35269 6.22973 4.35269C7.55985 4.35269 8.63746 5.43035 8.63746 6.76051C8.63746 8.09067 7.55985 9.16833 6.22973 9.16833ZM8.30355 24.3576H4.1504V10.9952H8.30355V24.3576ZM25.9262 0.500189H2.06554C0.938255 0.48777 0.0137979 1.39156 0 2.51889V26.4784C0.0137979 27.6071 0.938255 28.5109 2.06554 28.4985H25.9262C27.0562 28.5123 27.9848 27.6085 28 26.4784V2.51751C27.9834 1.38742 27.0548 0.48501 25.9262 0.500189Z"
            fill="black" />
    </mask>
    <g mask="url(#mask0_2917_9589)">
        <rect y="0.5" width="28" height="28" rx="5" fill="#005FDC" />
    </g>
</svg>