<svg width="30" height="31" viewBox="0 0 30 31" fill="none" xmlns="http://www.w3.org/2000/svg">
    <path
        d="M10.7375 17.3875L19.275 22.3625M19.2625 8.6375L10.7375 13.6125M26.25 6.75C26.25 8.82107 24.5711 10.5 22.5 10.5C20.4289 10.5 18.75 8.82107 18.75 6.75C18.75 4.67893 20.4289 3 22.5 3C24.5711 3 26.25 4.67893 26.25 6.75ZM11.25 15.5C11.25 17.5711 9.57107 19.25 7.5 19.25C5.42893 19.25 3.75 17.5711 3.75 15.5C3.75 13.4289 5.42893 11.75 7.5 11.75C9.57107 11.75 11.25 13.4289 11.25 15.5ZM26.25 24.25C26.25 26.3211 24.5711 28 22.5 28C20.4289 28 18.75 26.3211 18.75 24.25C18.75 22.1789 20.4289 20.5 22.5 20.5C24.5711 20.5 26.25 22.1789 26.25 24.25Z"
        stroke="#1E1E1E" stroke-width="2.5" stroke-linecap="round" stroke-linejoin="round" />
</svg>