<svg width="360" height="244" viewBox="0 0 360 244" fill="none" xmlns="http://www.w3.org/2000/svg">
    <path
        d="M191.354 169.026C222.28 167.457 250.613 166.746 255.181 169.307C257.534 170.63 261.195 188.018 262.877 199.647C272.376 198.513 284.313 197.47 296.239 196.657C294.468 187.71 293.376 182.104 289.358 173.46C288.749 172.15 290.416 171.621 291.094 172.817C295.121 180.187 297.824 188.206 299.084 196.51C315.23 195.45 331.161 194.809 341.145 194.809C340.011 185.038 333.731 162.52 322.472 150.974C313.793 142.074 296.957 134.153 282.056 132.278C281.824 134.343 281.028 136.305 279.754 137.947C278.481 139.589 276.779 140.848 274.837 141.587C266.876 144.715 252.346 145.537 239.384 138.417C225.71 142.318 200.65 157.2 191.354 169.026Z"
        fill="#003090" />
    <path
        d="M358.049 238.574C276.509 240.106 195.337 239.804 113.84 239.897C112.192 239.897 111.82 242.473 113.525 242.503C194.838 244.005 277.121 242.236 358.422 241.24C360.158 241.225 359.777 238.541 358.049 238.574Z"
        fill="#003090" />
    <path
        d="M157.279 77.4637C165.65 77.6206 206.446 76.8608 210.783 76.6737C212.091 76.617 212.057 74.3604 210.783 74.3604C204.96 74.3604 166.65 75.0993 157.279 75.5907C157.053 75.6214 156.845 75.7331 156.694 75.9053C156.544 76.0776 156.461 76.2985 156.461 76.5272C156.461 76.756 156.544 76.9769 156.694 77.1491C156.845 77.3213 157.053 77.4331 157.279 77.4637Z"
        fill="#003090" />
    <path
        d="M100.929 38.2726C104.314 38.4313 173.24 38.2593 177.349 37.8549C177.933 37.7775 178.467 37.4863 178.848 37.0377C179.229 36.5891 179.43 36.015 179.412 35.4266C179.394 34.8383 179.158 34.2776 178.75 33.8533C178.342 33.429 177.791 33.1712 177.204 33.1299C158.022 33.368 118.147 33.4663 101.037 33.8405C98.4701 33.8991 98.2546 38.1516 100.929 38.2726Z"
        fill="#003090" />
    <path
        d="M197.413 111.009C192.977 111.009 159.25 110.631 156.861 111.313C156.049 111.547 155.727 112.863 156.703 113.141C159.25 113.872 192.802 113.502 197.434 113.502C202.066 113.502 206.563 113.668 211.099 113.502C212.486 113.451 212.384 111.126 211.008 111.065C206.495 110.865 201.936 111.009 197.413 111.009Z"
        fill="#003090" />
    <path
        d="M156.332 128.666C156.046 128.751 155.805 128.946 155.661 129.208C155.518 129.47 155.483 129.778 155.565 130.065C155.954 131.388 154.206 130.934 211.687 131.892C212.004 131.86 212.298 131.711 212.512 131.475C212.725 131.238 212.844 130.931 212.844 130.612C212.844 130.293 212.725 129.986 212.512 129.749C212.298 129.513 212.004 129.364 211.687 129.331C156.544 128.441 159.967 128.385 156.332 128.666Z"
        fill="#003090" />
    <path
        d="M210.454 95.8983C210.761 95.8776 211.05 95.7434 211.264 95.5216C211.478 95.2998 211.602 95.0063 211.612 94.6983C211.621 94.3902 211.516 94.0896 211.316 93.8548C211.117 93.62 210.837 93.4679 210.531 93.4281C202.328 93.2013 164.158 92.8837 157.233 94.2634C156.099 94.4883 156.352 96.1402 157.435 96.2366C163.292 96.7639 172.247 94.7964 210.454 95.8983Z"
        fill="#003090" />
    <path
        d="M260.866 62.3208C260.968 46.0404 261.724 25.7304 260.358 9.93382C260.32 9.69661 260.196 9.48172 260.009 9.33062C259.823 9.17953 259.587 9.10293 259.347 9.11561C259.107 9.1283 258.88 9.22937 258.711 9.39931C258.541 9.56926 258.44 9.79603 258.428 10.0359C257.984 17.6148 258.402 52.8293 258.428 62.5023C258.432 64.0918 260.857 63.9122 260.866 62.3208Z"
        fill="#003090" />
    <path
        d="M13.4905 9.93509C13.4905 8.51381 11.2528 8.25488 11.2339 9.71018C10.4892 69.918 11.4834 139.948 14.3599 199.844C14.4393 201.504 17.0059 201.097 16.9209 199.449C13.8818 136.091 13.4036 73.3465 13.4905 9.93509Z"
        fill="#003090" />
    <path
        d="M116.061 198.355C105.906 197.788 23.213 198.232 19.9868 198.733C19.7482 198.81 19.5419 198.964 19.4 199.171C19.2582 199.378 19.1889 199.625 19.203 199.876C19.217 200.126 19.3136 200.365 19.4776 200.554C19.6417 200.744 19.8639 200.874 20.1096 200.924C51.3759 201.012 84.5586 200.765 115.88 200.799C117.403 200.799 117.664 198.45 116.061 198.355Z"
        fill="#003090" />
    <path
        d="M245.87 65.3802C239.958 66.5142 234.743 79.4286 241.266 85.4747C245.259 89.1772 263.651 89.334 274.8 88.8596C274.88 90.2241 275.173 91.5677 275.667 92.8419C276.112 93.9759 277.442 94.335 277.111 92.29C276.931 91.1253 276.848 89.9475 276.864 88.7689C278.597 88.6937 280.328 88.5676 282.054 88.3909C281.753 90.9093 281.321 93.4101 280.757 95.8829C280.445 97.238 281.967 97.4913 282.483 96.1985C284.065 92.1097 284.705 87.7168 284.356 83.3465C283.683 73.7132 256.669 63.305 245.87 65.3802ZM247.731 70.4681C245.012 71.0899 244.369 75.2214 244.121 77.4308C243.696 81.2108 241.286 78.5648 241.865 75.2403C242.307 72.7342 244.448 68.6518 247.573 69.0581C247.754 69.0484 247.931 69.1082 248.07 69.2254C248.208 69.3425 248.297 69.5081 248.317 69.6882C248.337 69.8684 248.288 70.0495 248.179 70.1944C248.07 70.3394 247.91 70.4373 247.731 70.4681Z"
        fill="#191919" />
    <path
        d="M267.977 104.272C269.483 101.72 270.519 98.9191 271.035 96.0013C273.574 96.4611 275.995 97.4251 278.155 98.8363C279.44 99.3901 279.927 97.7023 279.289 97.1787C276.969 95.2884 274.134 94.1404 271.152 93.8845C269.776 91.2782 259.317 90.6715 257.703 93.4214C257.308 93.1998 256.87 93.0641 256.419 93.0234C255.968 92.9827 255.514 93.0378 255.085 93.1852C254.263 90.9285 244.987 90.3634 242.676 92.9697C240.012 92.6768 238.907 95.1357 242.426 95.113C242.556 97.5557 243.008 99.9705 243.77 102.295C244.681 104.159 251.232 104.13 252.536 103.187C254.087 102.066 254.792 97.1731 255.233 95.2887C255.872 95.088 256.562 95.1284 257.174 95.4022C257.16 97.9284 257.447 100.447 258.03 102.905C259.032 104.898 266.524 105.988 267.977 104.272ZM251.819 101.021C251.511 101.764 251.233 101.942 248.75 101.843C244.554 101.679 245.433 102.588 244.148 94.1378C247.103 93.1341 250.308 93.1341 253.263 94.1378C253.223 96.503 252.733 98.839 251.819 101.021ZM259.718 101.877C259.249 99.5541 259.082 97.1802 259.221 94.8144C262.462 93.6573 266.02 93.7659 269.185 95.1187C269.007 96.9773 268.531 98.795 267.773 100.501C266.699 102.851 266.522 103.159 263.137 102.883C261.511 102.75 259.946 102.389 259.718 101.879V101.877Z"
        fill="#191919" />
    <path
        d="M261.319 100.368C261.673 101.642 264.154 101.791 263.576 98.1117C263.245 96.0175 260.293 96.6753 261.319 100.368Z"
        fill="#191919" />
    <path
        d="M282.753 98.8444C276.278 99.3868 273.082 111.248 269.642 112.384C267.238 113.18 261.846 109.721 256.397 109.349C250.948 108.977 247.845 111.279 246.828 110.793C245.811 110.307 246.512 106.055 246.512 105.062C246.512 104.07 245.972 103.528 245.011 105.716C244.051 107.905 234.688 128.914 238.761 134.567C244.582 142.645 268.338 144.356 275.713 138.799C284.959 131.832 277.09 109.459 279.368 103.63C279.796 102.797 280.479 102.122 281.317 101.704C282.156 101.286 283.106 101.146 284.029 101.305C287.143 102.655 286.287 111.889 281.309 110.443C280.058 110.082 279.774 111.655 280.931 112.261C284.312 114.04 287.631 111.267 288.073 106.62C288.404 103.101 287.21 98.472 282.753 98.8444ZM256.971 119.823C252.279 119.823 251.33 117.962 250.935 114.909C254.997 115.782 259.205 115.709 263.235 114.696C262.806 117.485 262.21 119.831 256.971 119.831V119.823Z"
        fill="#191919" />
    <path
        d="M254.729 99.9956C253.86 101.999 253.209 104.09 252.788 106.233C252.321 108.775 255.702 108.782 257.607 108.489C258.741 108.315 258.949 107.023 257.708 106.932C256.795 106.864 255.001 106.818 254.831 106.503C254.987 104.394 255.393 102.311 256.039 100.298C256.301 99.4663 255.088 99.1413 254.729 99.9956Z"
        fill="#191919" />
    <path
        d="M249.362 100.455C250.412 100.055 250.496 97.2253 249.598 96.698C247.332 95.3523 247.016 101.34 249.362 100.455Z"
        fill="#191919" />
    <path
        d="M267.85 0.907227C180.441 0.975267 87.65 0.773039 1.57185 1.50636C0.10521 1.5177 0.0711904 5.28635 1.48113 5.2958C88.6196 5.84201 180.396 5.16162 267.759 5.09358C269.328 5.09169 269.362 0.907227 267.85 0.907227Z"
        fill="#191919" />
    <path
        d="M168.267 202.105C153.336 201.216 130.208 198.294 116.275 192.313C114.483 191.542 105.632 192.987 95.5831 188.344C94.5323 187.86 94.1146 189.34 95.0974 189.946C100.233 193.11 106.719 193.953 112.642 194.144C114.234 194.103 115.812 194.456 117.235 195.17C133.652 201.058 150.94 204.147 168.38 204.308C169.813 204.329 169.768 202.195 168.267 202.105Z"
        fill="#191919" />
    <path
        d="M338.022 197.82C337.731 196.229 335.586 196.79 335.854 198.372C336.778 204.051 336.412 209.864 334.783 215.382C330.925 228.826 319.574 226.669 308.211 226.145C296.285 225.597 279.861 224.454 269.557 223.98C269.33 223.949 269.099 224.009 268.915 224.146C268.731 224.283 268.608 224.487 268.572 224.714C268.535 224.94 268.589 225.172 268.721 225.36C268.853 225.547 269.054 225.676 269.279 225.718C279.192 227.293 300.368 228.224 308.618 228.616C319.901 229.152 332.488 230.657 336.69 217.593C338.757 211.213 339.215 204.42 338.022 197.82Z"
        fill="#191919" />
    <path
        d="M264.059 204.554C278.661 202.232 293.371 200.647 308.132 199.804C308.37 199.783 308.591 199.67 308.749 199.489C308.906 199.308 308.987 199.074 308.975 198.835C308.964 198.595 308.86 198.37 308.686 198.206C308.512 198.041 308.281 197.95 308.041 197.952C293.179 198.562 278.367 200.069 263.687 202.465C263.41 202.516 263.164 202.674 263.004 202.905C262.843 203.136 262.781 203.422 262.831 203.699C262.882 203.976 263.04 204.221 263.271 204.382C263.502 204.542 263.788 204.604 264.065 204.554H264.059Z"
        fill="#191919" />
    <path
        d="M108.602 188.206C108.759 188.205 108.915 188.172 109.059 188.11C109.203 188.047 109.333 187.956 109.442 187.842C109.55 187.728 109.634 187.594 109.689 187.447C109.744 187.299 109.769 187.143 109.762 186.985C109.755 186.828 109.717 186.674 109.649 186.532C109.581 186.391 109.486 186.264 109.368 186.16C109.25 186.056 109.113 185.976 108.963 185.927C108.814 185.877 108.657 185.858 108.5 185.87C101.484 186.095 97.9443 184.103 93.3138 180.815C92.5804 180.295 91.8018 181.211 92.3688 181.949C95.6649 186.305 103.355 188.41 108.602 188.206Z"
        fill="#191919" />
    <path
        d="M120.275 176.243C121.129 177.725 122.921 177.925 124.516 178.286C133.938 180.427 155.497 179.713 165.497 179.596C166.918 179.579 166.631 177.742 165.17 177.755C157.869 177.828 135.834 178.036 124.9 176.018C122.881 175.64 122.985 175.938 121.955 174.317C120.009 171.244 117.106 167.485 113.585 167.422C112.534 167.403 112.451 168.416 113.346 168.866C116.457 170.426 118.912 173.041 120.275 176.243Z"
        fill="#191919" />
    <path
        d="M114.04 176.664C109.16 175.231 102.263 172.933 98.4698 168.032C97.3358 166.562 96.3719 167.705 96.9351 168.89C99.2976 173.865 107.946 178.34 112.911 178.529C115.657 178.645 114.894 176.913 114.04 176.664Z"
        fill="#191919" />
    <path
        d="M94.2722 172.806C94.1163 172.616 93.8937 172.493 93.6501 172.463C93.4066 172.432 93.1605 172.496 92.9626 172.641C92.7646 172.786 92.6298 173.002 92.5858 173.243C92.5419 173.485 92.5921 173.734 92.7261 173.94C94.5277 176.524 96.8673 178.688 99.5842 180.283C102.301 181.878 105.331 182.866 108.466 183.18C108.713 183.188 108.956 183.116 109.158 182.974C109.36 182.832 109.51 182.627 109.586 182.392C109.661 182.157 109.657 181.903 109.575 181.67C109.493 181.437 109.337 181.237 109.131 181.101C107.474 180.386 100.428 179.927 94.2722 172.806Z"
        fill="#191919" />
    <path
        d="M311.854 230.63C308.469 230.189 269.205 231.059 267.386 230.314C265.568 229.569 256.164 176.009 253.707 172.49C251.25 168.97 173.856 171.202 170.337 173.234C166.818 175.266 178.439 236.445 181.45 237.683C184.136 238.785 307.819 237.254 311.86 237.041C315.901 236.827 315.239 231.07 311.854 230.63ZM214.345 213.028C203.786 213.907 200.477 196.585 211.028 194.863C216.037 194.045 220.45 198.487 221.386 203.956C221.58 205.022 221.548 206.117 221.29 207.17C221.033 208.223 220.557 209.209 219.892 210.065C219.228 210.921 218.391 211.628 217.435 212.138C216.479 212.649 215.426 212.952 214.345 213.028Z"
        fill="#191919" />
    <path
        d="M131.168 101.682C130.664 96.7549 128.978 89.6214 122.104 87.0856C119.53 90.3524 114.395 88.1274 113.057 85.9102C110.367 90.1171 105.795 94.0637 102.771 99.1747C101.312 101.643 99.5521 104.549 101.337 107.26C106.709 106.767 112.114 106.755 117.488 107.224C119.149 104.342 119.343 103.276 119.319 100.731C119.319 100.461 119.708 100.342 119.742 100.672C120 102.984 119.476 105.316 118.254 107.296C118.914 107.338 119.569 107.435 120.212 107.586C120.767 107.72 120.604 108.099 120.114 108.052C114.069 107.47 107.982 107.46 101.935 108.021C103.858 110.457 103.757 111.938 103.279 114.459C106.448 116.633 118.042 119.509 123.259 117.921C128.055 116.462 131.761 107.48 131.168 101.682Z"
        fill="#003090" />
    <path
        d="M82.2119 91.4698C79.2426 89.6722 72.9833 89.1982 69.5323 91.0391C68.7881 93.9889 66.3006 97.5104 65.0707 98.6265C63.2453 98.1825 60.0685 96.6957 58.8813 94.4157C53.6088 96.1002 48.454 104.118 46.9305 109.497C44.8154 107.272 40.7334 101.482 39.882 99.5156C38.0846 100.741 36.0254 101.528 33.8691 101.815C35.5419 113.47 43.1604 124.188 48.5661 123.786C52.8751 123.466 55.664 118.906 57.309 115.87C56.3034 114.749 55.4343 113.513 54.7199 112.187C54.5751 111.915 54.7754 111.4 55.1118 111.835C61.7163 120.382 70.9404 125.623 83.1948 126.328C77.0648 117.973 74.9846 99.6999 82.2119 91.4698Z"
        fill="#003090" />
    <path
        d="M65.2666 84.4111C66.9666 84.1841 67.0759 81.5518 65.6307 80.7681C65.8547 79.2726 65.9374 77.7593 65.8777 76.2482C65.7961 74.1015 64.6079 73.1546 62.6421 72.9265C60.9089 72.7241 59.289 71.9623 58.0278 70.7565C55.8427 68.668 56.0065 71.9586 58.0278 73.3927C56.1775 73.1866 54.3767 72.6632 52.7042 71.8454C51.5565 71.1561 50.9976 71.3925 51.2435 72.3898C51.3626 72.903 51.5935 73.3835 51.9197 73.7972C52.2458 74.2109 52.6593 74.5475 53.1305 74.783C51.2506 75.031 49.3402 74.9046 47.5094 74.4111C45.9321 73.9671 45.1596 74.1131 45.9859 75.4884C46.6654 76.4746 47.545 77.3066 48.5674 77.9302C49.5898 78.5538 50.7322 78.9549 51.92 79.1076C54.6423 79.4045 57.576 78.6414 60.7489 77.4154C61.1244 79.2055 62.1188 80.8061 63.5572 81.9358C63.7276 82.0707 63.9718 82.0923 64.0567 81.8454C64.5618 80.3469 66.5021 81.8454 65.7684 83.2479C65.5125 83.7368 65.1457 83.7024 64.7893 83.7063C64.433 83.7102 64.5501 83.9255 64.6012 84.2469C64.8093 85.5628 67.0665 90.5944 68.0367 91.4463C68.2681 91.6494 68.484 91.383 68.3419 91.1527C67.0354 89.0449 66.0021 86.7795 65.2666 84.4111Z"
        fill="#191919" />
    <path
        d="M116.448 77.7354C114.748 77.5084 114.639 74.876 116.084 74.0923C115.86 72.5968 115.777 71.0835 115.837 69.5724C115.919 67.4257 117.107 66.4788 119.073 66.2507C120.806 66.0483 122.426 65.2865 123.687 64.0807C125.872 61.9922 125.708 65.2828 123.687 66.7169C125.537 66.5109 127.338 65.9874 129.011 65.1696C130.158 64.4803 130.717 64.7167 130.471 65.7141C130.352 66.2272 130.121 66.7077 129.795 67.1214C129.469 67.5351 129.056 67.8717 128.584 68.1072C130.464 68.3552 132.375 68.2288 134.205 67.7354C135.783 67.2914 136.555 67.4373 135.729 68.8126C135.049 69.7988 134.17 70.6308 133.147 71.2544C132.125 71.878 130.983 72.2792 129.795 72.4318C127.073 72.7287 124.139 71.9656 120.966 70.7396C120.59 72.5297 119.596 74.1303 118.158 75.2601C117.987 75.3949 117.743 75.4166 117.658 75.1696C117.153 73.6711 115.213 75.1696 115.946 76.5721C116.202 77.061 116.569 77.0266 116.925 77.0305C117.282 77.0344 117.165 77.2497 117.114 77.5711C116.906 78.887 114.648 83.9186 113.678 84.7705C113.447 84.9737 113.231 84.7073 113.373 84.4769C114.679 82.3691 115.713 80.1037 116.448 77.7354Z"
        fill="#191919" />
    <path
        d="M55.7181 80.596C55.4464 80.6387 55.1906 80.7519 54.9764 80.9244C54.7621 81.0969 54.5969 81.3226 54.4971 81.5789C54.3151 82.0551 54.5637 82.2605 54.8884 81.8414C55.1748 81.5388 55.5315 81.3116 55.9268 81.1799C56.2504 81.0506 56.2781 80.5055 55.7181 80.596Z"
        fill="#191919" />
    <path
        d="M55.0556 83.2639C54.9702 83.507 55.1666 83.6241 55.377 83.4443C55.4933 83.3442 55.6295 83.2697 55.7766 83.2258C55.9237 83.1819 56.0784 83.1695 56.2306 83.1896C56.5325 83.1896 56.5541 82.9343 56.3127 82.7977C56.2018 82.7339 56.0782 82.6953 55.9507 82.6847C55.8231 82.674 55.6948 82.6916 55.5749 82.736C55.4549 82.7805 55.3462 82.8509 55.2564 82.9421C55.1667 83.0334 55.0981 83.1432 55.0556 83.2639Z"
        fill="#191919" />
    <path
        d="M59.6963 81.9355C59.5773 81.8613 59.4438 81.8135 59.3047 81.7953C59.1657 81.7772 59.0244 81.7891 58.8903 81.8303C58.7563 81.8715 58.6327 81.941 58.5278 82.0342C58.423 82.1273 58.3394 82.2419 58.2827 82.3701C58.1961 82.6054 58.3515 82.7264 58.5047 82.6171C58.811 82.3921 59.1819 82.2725 59.562 82.2763C59.7551 82.2524 59.9471 82.0715 59.6963 81.9355Z"
        fill="#191919" />
    <path
        d="M59.2775 86.4797C59.0788 86.5946 59.0555 86.8987 59.4384 86.8088C60.7232 86.5036 61.4231 85.7382 60.9147 84.7759C60.7687 84.4984 60.3708 84.7287 60.4957 85.0067C60.8958 85.8959 59.7575 86.2017 59.2775 86.4797Z"
        fill="#191919" />
    <path
        d="M59.3019 79.9969C59.0039 79.8522 58.6741 79.7853 58.3432 79.8024C58.0124 79.8196 57.6913 79.9203 57.4099 80.0951C57.356 80.1365 57.3181 80.1952 57.3026 80.2613C57.2872 80.3274 57.2951 80.3968 57.3251 80.4578C57.355 80.5187 57.4052 80.5673 57.467 80.5954C57.5288 80.6235 57.5985 80.6293 57.6641 80.6119C58.1416 80.4226 58.6577 80.3514 59.1687 80.4043C59.505 80.4626 59.641 80.1906 59.3019 79.9969Z"
        fill="#191919" />
    <path
        d="M57.0132 82.9934C56.8701 83.5551 56.6453 85.3733 57.3224 85.5592C57.6754 85.6563 58.7276 85.2423 58.5212 84.8815C58.3597 84.6002 57.606 85.1357 57.5105 84.9759C57.3163 84.3286 57.2656 83.6468 57.3618 82.9779C57.3696 82.6688 57.1642 82.3996 57.0132 82.9934Z"
        fill="#191919" />
    <path
        d="M90.8701 93.4251C90.8118 92.1248 89.3033 90.4326 88.0651 90.4248C87.7754 90.4248 87.5523 90.8477 87.8431 90.9243C88.4756 91.0931 89.0519 91.4268 89.513 91.8914C89.9742 92.3559 90.3036 92.9346 90.4677 93.5683C90.5637 93.9058 90.8934 93.9541 90.8701 93.4251Z"
        fill="#191919" />
    <path
        d="M91.9368 91.4664C91.5305 89.7265 89.5869 88.9883 87.9536 89.2103C86.101 89.4623 84.557 90.7416 83.3704 92.1518C82.1088 93.6503 83.2094 96.0213 80.7852 97.0008C80.2302 97.2228 80.4483 97.608 81.0122 97.436C83.9465 96.5391 82.8259 93.5576 83.9071 92.512C84.9882 91.4664 86.132 90.3225 87.6872 89.9462C89.2423 89.5699 90.8673 90.1516 91.5022 91.6579C91.621 91.9448 92.0067 91.7722 91.9368 91.4664Z"
        fill="#191919" />
    <path
        d="M88.9495 94.3339C89.1837 94.8334 89.5289 94.6514 89.4002 94.1674C89.0894 92.993 88.0243 91.328 86.5836 91.4962C86.2938 91.53 86.3444 91.979 86.5836 92.0445C88.2502 92.4974 88.5799 93.5397 88.9495 94.3339Z"
        fill="#191919" />
    <path
        d="M85.0118 92.6304C84.7027 92.6809 84.62 93.1643 85.0118 93.1787C85.5349 93.1719 86.0453 93.3401 86.4619 93.6566C86.8785 93.973 87.1774 94.4195 87.3112 94.9253C87.4599 95.2272 87.6997 95.2272 87.703 94.8198C87.7091 93.621 86.2889 92.4211 85.0118 92.6304Z"
        fill="#191919" />
    <path
        d="M33.5569 94.0558C32.877 91.4112 32.7344 90.6148 32.7738 88.9243C32.7827 88.5324 32.433 88.6262 32.2998 89.1396C32.0135 90.8949 32.2875 92.6959 33.0829 94.2867C33.2245 94.5686 33.6318 94.3455 33.5569 94.0558Z"
        fill="#191919" />
    <path
        d="M31.2309 90.8787C31.2309 90.4281 30.7925 90.6279 30.7802 90.9137C30.7301 93.127 31.3308 95.3063 32.508 97.1813C33.1799 98.3314 33.6963 99.5656 34.0436 100.852C34.1452 101.212 34.5903 101.271 34.5332 100.562C34.2924 99.2128 33.7885 97.9244 33.0502 96.7701C31.9702 94.985 31.3455 92.9619 31.2309 90.8787Z"
        fill="#191919" />
    <path
        d="M38.9716 91.7297C38.7046 91.2679 38.3849 91.5981 38.5803 91.9517C39.8435 94.2227 37.1084 97.101 38.9716 99.1983C39.0181 99.2407 39.0777 99.2661 39.1405 99.2702C39.2033 99.2743 39.2657 99.2569 39.3173 99.2209C39.3689 99.1849 39.4068 99.1323 39.4247 99.072C39.4425 99.0116 39.4393 98.9469 39.4156 98.8886C38.199 96.5582 40.3002 94.0268 38.9716 91.7297Z"
        fill="#191919" />
    <path
        d="M36.1717 88.8982C36.1662 88.6396 35.8343 88.4042 35.7333 88.8982C35.5396 89.8417 35.6511 92.6594 36.2616 93.442C36.2968 93.485 36.3451 93.5154 36.3992 93.5285C36.4532 93.5416 36.5101 93.5367 36.5611 93.5146C36.6121 93.4924 36.6545 93.4541 36.6818 93.4057C36.709 93.3572 36.7198 93.3012 36.7123 93.2461C36.4017 91.816 36.2208 90.3608 36.1717 88.8982Z"
        fill="#191919" />
    <path
        d="M34.5638 88.2032C34.5638 87.9135 34.2308 87.8786 34.1254 88.2032C33.7069 89.5208 33.8612 92.3069 34.6382 93.5312C34.8047 93.7971 35.2676 93.6883 35.1932 93.3392C34.7179 91.6703 34.5056 89.9375 34.5638 88.2032Z"
        fill="#191919" />
    <path
        d="M99.619 108.323C99.9087 108.441 99.9858 107.984 99.8149 107.824C98.8236 106.884 95.8977 106.758 94.4247 107.863C94.3696 107.893 94.328 107.943 94.3087 108.002C94.2894 108.062 94.2938 108.127 94.3211 108.183C94.3483 108.24 94.3962 108.283 94.4549 108.305C94.5136 108.327 94.5785 108.326 94.6362 108.301C97.147 107.318 98.4474 107.849 99.619 108.323Z"
        fill="#191919" />
    <path
        d="M97.4497 112.63C100.018 112.207 100.24 112.911 101.049 112.967C101.124 112.973 101.198 112.95 101.255 112.902C101.312 112.854 101.349 112.786 101.356 112.711C101.417 112.029 98.7723 111.472 97.2887 112.199C96.9963 112.343 97.1678 112.677 97.4497 112.63Z"
        fill="#191919" />
    <path
        d="M95.9664 111.393C98.596 110.578 99.489 111.093 100.957 111.494C101.25 111.575 101.325 111.141 101.129 110.982C100.096 110.137 97.244 110.146 95.8138 110.958C95.559 111.103 95.6489 111.491 95.9664 111.393Z"
        fill="#191919" />
    <path
        d="M95.1817 110.021C97.5327 109.307 98.5745 109.652 100.145 109.91C100.206 109.92 100.269 109.909 100.324 109.88C100.379 109.85 100.422 109.804 100.448 109.747C100.474 109.691 100.481 109.628 100.468 109.567C100.455 109.506 100.423 109.452 100.376 109.411C99.3703 108.536 96.1624 108.649 94.9703 109.595C94.7111 109.803 94.8843 110.112 95.1817 110.021Z"
        fill="#191919" />
    <path
        d="M124.387 77.1801C124.831 77.2961 125.275 76.2793 124.908 76.0484C124.419 75.7449 123.783 77.0214 124.387 77.1801Z"
        fill="#191919" />
    <path
        d="M127.035 78.4088C127.364 78.4294 127.729 77.7622 127.642 77.4997C127.39 76.7438 126.256 78.3611 127.035 78.4088Z"
        fill="#191919" />
    <path
        d="M127.914 75.8872C128.19 76.0521 128.406 76.3005 128.532 76.5965C128.607 76.8629 128.967 76.9489 128.963 76.4749C128.94 76.2275 128.849 75.9913 128.7 75.7927C128.55 75.5942 128.349 75.441 128.117 75.3505C127.697 75.1929 127.349 75.5558 127.914 75.8872Z"
        fill="#191919" />
    <path
        d="M125.762 74.9556C126.267 75.1221 126.428 74.6887 126.028 74.3951C125.724 74.2069 125.371 74.1109 125.013 74.1186C124.655 74.1263 124.307 74.2373 124.011 74.4384C123.823 74.6382 123.925 74.8302 124.177 74.7908C124.709 74.6715 125.266 74.7294 125.762 74.9556Z"
        fill="#191919" />
    <path
        d="M121.881 79.019C121.843 79.2185 121.844 79.4237 121.887 79.6224C121.929 79.8211 122.011 80.0093 122.127 80.1756C122.244 80.342 122.393 80.4831 122.565 80.5906C122.738 80.6981 122.93 80.7697 123.131 80.8011C123.158 80.8202 123.19 80.8327 123.223 80.8375C123.256 80.8423 123.289 80.8394 123.321 80.829C123.353 80.8186 123.382 80.8009 123.405 80.7775C123.429 80.754 123.447 80.7253 123.458 80.6937C123.468 80.6621 123.472 80.6285 123.467 80.5954C123.463 80.5623 123.451 80.5308 123.432 80.5032C123.413 80.4756 123.388 80.4528 123.359 80.4365C123.33 80.4202 123.297 80.4109 123.264 80.4093C123.13 80.3757 123.004 80.3151 122.894 80.2311C122.784 80.147 122.693 80.0414 122.625 79.9207C122.557 79.8 122.515 79.6668 122.501 79.5292C122.487 79.3916 122.501 79.2526 122.542 79.1206C122.712 78.1516 121.992 78.3475 121.881 79.019Z"
        fill="#191919" />
    <path
        d="M125.563 79.8358C126.025 79.6166 126.437 77.8217 126.205 77.5831C125.846 77.214 125.817 78.7824 125.304 79.2286C125.082 79.4207 124.805 78.8679 124.521 79.0327C124.173 79.2348 124.932 80.1339 125.563 79.8358Z"
        fill="#191919" />
    <path
        d="M96.9686 130.163C96.479 130.594 97.2871 131.168 97.7517 130.868C103.302 127.284 109.354 131.013 107.96 137.382C107.915 137.518 107.926 137.666 107.989 137.795C108.053 137.923 108.164 138.022 108.299 138.069C108.434 138.117 108.582 138.11 108.712 138.05C108.842 137.989 108.943 137.881 108.994 137.747C111.837 130.584 102.678 125.125 96.9686 130.163Z"
        fill="#191919" />
    <path
        d="M109.359 128.107C104.66 123.944 94.9794 123.653 90.101 127.778C79.8335 136.462 89.2574 151.04 102.291 148.491C112.163 146.563 116.768 134.666 109.359 128.107ZM103.601 147.023C92.7028 150.545 81.3458 139.121 89.6758 129.686C93.9016 124.898 103.479 124.696 108.341 128.667C115.093 134.183 111.705 144.404 103.601 147.023Z"
        fill="#191919" />
    <path
        d="M62.8236 87.7292C62.5227 88.255 62.1053 88.7049 61.6035 89.0445C61.1017 89.384 60.5288 89.604 59.9287 89.6878C55.4554 90.2322 54.4037 83.742 53.716 80.6474C53.6023 80.134 53.2815 80.412 53.3242 80.7029C53.6494 84.1383 55.0125 90.7112 59.5918 90.3904C59.7972 91.6254 59.8327 92.8826 59.6973 94.1272C59.6667 94.4286 59.9837 94.7305 60.2184 94.0878C60.5048 93.3047 60.4732 91.3128 60.3044 90.2727C60.919 90.112 61.4928 89.8239 61.9889 89.4271C62.4849 89.0303 62.892 88.5337 63.1838 87.9695C63.3458 87.6576 62.9862 87.4555 62.8236 87.7292Z"
        fill="#191919" />
    <path
        d="M88.2258 124.777C90.9681 124.222 98.2913 121.787 100.428 119.936C100.775 119.634 100.38 118.996 99.9574 119.199C94.5739 121.788 92.123 122.333 86.6824 123.958C80.7128 115.783 78.1148 105.951 85.3232 95.967C85.6961 95.4503 84.9386 94.9735 84.5395 95.4814C78.2403 103.504 78.268 113.7 85.029 123.684C86.0935 125.256 86.1646 125.196 88.2258 124.777Z"
        fill="#191919" />
    <path
        d="M59.8388 55.8944C71.6836 48.3275 86.0198 46.93 98.8142 53.045C113.158 59.902 118.395 71.4016 109.829 85.7179C106.415 91.4238 98.6316 98.3963 97.6431 104.289C97.5321 104.946 98.4312 105.206 98.5478 104.539C99.509 99.0351 106.668 92.5882 109.931 87.556C118.941 73.6544 115.934 61.3079 101.495 53.2776C88.6038 46.1103 71.3267 46.3295 59.4142 55.3499C58.9702 55.6874 59.3182 56.2274 59.8388 55.8944Z"
        fill="#191919" />
    <path
        d="M94.0143 74.1682C98.0736 78.5266 95.7171 84.555 91.4175 87.7684C90.9513 88.117 91.5074 88.7985 92.028 88.4145C96.372 85.2143 99.0765 79.4062 95.6943 74.4778C90.9491 67.5648 80.2964 68.9467 73.7585 74.3668C69.7403 70.024 63.7419 62.7446 60.1865 57.9122C59.818 57.4127 59.313 57.7868 59.7281 58.3562C63.2557 63.2197 68.5243 70.1833 72.5802 74.8075C73.3284 75.6611 73.5387 75.892 74.4523 75.1683C79.7636 70.9625 88.7385 68.5033 94.0143 74.1682Z"
        fill="#191919" />
    <path
        d="M106.298 62.6557C99.4451 52.8943 83.0115 49.7958 72.6114 55.2487C72.4689 55.3138 72.358 55.4328 72.3031 55.5795C72.2482 55.7263 72.2538 55.8889 72.3186 56.0315C72.3835 56.1742 72.5022 56.2853 72.6489 56.3405C72.7955 56.3957 72.9581 56.3904 73.1009 56.3259C85.8515 51.4491 96.3554 55.0261 105.586 63.3256C106.138 63.8229 106.754 63.3061 106.298 62.6557Z"
        fill="#191919" />
    <path
        d="M101.023 118.016C101.629 119.075 102.534 118.516 101.896 117.5C101.257 116.483 100.577 115.364 99.8943 114.311C99.6401 113.919 98.9463 114.311 99.1772 114.734C99.7813 115.834 100.396 116.928 101.023 118.016Z"
        fill="#191919" />
</svg>