<svg width="360" height="270" viewBox="0 0 360 270" fill="none" xmlns="http://www.w3.org/2000/svg">
    <path
        d="M292.051 159.175C293.566 159.094 295.03 158.595 296.278 157.732C297.526 156.869 298.51 155.676 299.12 154.287C299.64 152.52 297.769 151.896 297.143 153.871C296.62 154.953 295.831 155.883 294.849 156.574C293.867 157.266 292.726 157.696 291.532 157.823C291.116 157.927 290.284 159.209 292.051 159.175Z"
        fill="#191919" />
    <path
        d="M295.164 144.202C294.552 141.911 291.42 143.994 293.293 146.177C293.813 146.801 295.801 146.589 295.164 144.202Z"
        fill="#191919" />
    <path
        d="M290.698 134.536C289.24 134.946 289.242 136.615 291.112 136.615C293.202 136.461 295.3 136.784 297.247 137.56C297.381 137.605 297.526 137.603 297.659 137.554C297.791 137.505 297.903 137.412 297.976 137.291C298.048 137.169 298.077 137.027 298.058 136.887C298.038 136.747 297.971 136.617 297.868 136.521C296.887 135.692 295.738 135.086 294.5 134.743C293.262 134.401 291.965 134.33 290.698 134.536Z"
        fill="#191919" />
    <path
        d="M285.085 139.725C283.696 138.94 282.059 138.716 280.511 139.101C279.566 139.413 279.679 140.452 280.615 140.556C281.836 140.599 283.037 140.881 284.149 141.388C285.395 141.915 285.701 140.26 285.085 139.725Z"
        fill="#191919" />
    <path
        d="M286.745 146.907C286.45 149.218 286.415 151.554 286.641 153.873C287.059 156.576 293.19 154.601 292.256 153.146C291.737 152.314 289.657 154.091 288.304 153.457C287.943 151.294 287.805 149.099 287.89 146.907C287.89 146.755 287.83 146.609 287.723 146.502C287.615 146.394 287.47 146.334 287.318 146.334C287.166 146.334 287.02 146.394 286.913 146.502C286.805 146.609 286.745 146.755 286.745 146.907Z"
        fill="#191919" />
    <path
        d="M284.665 147.635C286.22 146.69 284.77 143.477 283.419 144.516C282.378 145.14 282.788 148.77 284.665 147.635Z"
        fill="#191919" />
    <path
        d="M274.165 156.056C275.621 160.838 279.155 167.075 283.209 169.986C285.08 171.337 286.016 169.986 284.154 168.219C280.157 164.851 277.141 160.47 275.422 155.535C275.353 155.368 275.22 155.236 275.054 155.167C274.887 155.098 274.7 155.098 274.533 155.167C274.366 155.236 274.234 155.369 274.165 155.536C274.096 155.702 274.096 155.89 274.165 156.056Z"
        fill="#191919" />
    <path
        d="M307.952 161.045C308.46 160.616 308.056 159.797 307.432 160.1C301.611 162.595 297.557 171.638 300.364 178.085C300.78 178.917 301.923 178.605 301.715 177.667C300.156 169.673 302.21 165.887 307.952 161.045Z"
        fill="#191919" />
    <path
        d="M273.232 163.021C274.049 165.619 275.381 168.027 277.149 170.099C278.917 172.17 281.085 173.864 283.524 175.079C284.875 175.702 286.226 174.663 284.147 173.312C279.869 170.86 276.483 167.11 274.48 162.605C273.96 161.773 273.002 162.091 273.232 163.021Z"
        fill="#191919" />
    <path
        d="M277.701 155.848C280.04 160.684 283.965 164.573 288.824 166.867C295.58 169.881 296.934 165.203 302.755 161.357C303.378 160.941 303.065 160.11 302.337 160.318C297.14 161.565 296.62 168.426 289.343 164.892C285.098 162.533 281.522 159.135 278.948 155.016C278.828 154.878 278.661 154.789 278.479 154.764C278.297 154.74 278.112 154.783 277.96 154.885C277.807 154.987 277.697 155.14 277.649 155.318C277.601 155.495 277.62 155.683 277.701 155.848Z"
        fill="#191919" />
    <path
        d="M286.743 183.197C287.264 184.026 288.616 183.301 288.198 182.469C286.223 177.166 278.323 176.022 275.516 171.344C274.996 170.513 274.061 171.344 274.382 172.176C277.283 177.678 283.218 177.568 286.743 183.197Z"
        fill="#191919" />
    <path
        d="M276.975 139.629C277.357 144.724 278.37 149.753 279.99 154.599C280.198 155.327 281.549 155.015 281.341 154.184C279.149 147.159 278.268 139.792 278.742 132.449C279.478 132.716 280.261 132.828 281.042 132.776C281.823 132.725 282.585 132.511 283.279 132.149C283.973 131.788 284.584 131.286 285.074 130.675C285.564 130.064 285.921 129.359 286.123 128.602C288.931 132.76 297.247 132.345 299.846 128.602C299.119 134.32 305.771 144.403 307.123 142.532C307.746 141.587 308.37 140.557 309.514 140.245C313.775 138.893 314.503 147.002 311.904 148.145C310.77 148.665 308.474 147.2 309.825 150.848C311.62 155.61 313.147 160.468 314.399 165.401C314.607 166.336 315.751 165.92 315.751 164.985C314.836 159.943 313.443 155 311.593 150.222C312.559 150.099 313.456 149.651 314.135 148.953C314.815 148.254 315.238 147.346 315.335 146.376C316.551 145.934 317.637 145.195 318.494 144.226C319.351 143.257 319.951 142.088 320.241 140.827C320.53 139.566 320.5 138.253 320.151 137.007C319.803 135.761 319.149 134.622 318.247 133.694C323.861 128.081 322.821 118.827 314.191 118.931C314.727 117.229 314.734 115.404 314.213 113.697C313.692 111.991 312.667 110.481 311.272 109.368C309.877 108.255 308.178 107.589 306.399 107.459C304.619 107.329 302.841 107.741 301.3 108.64C298.181 100.22 285.395 102.715 285.083 110.2C276.975 103.547 266.474 113.942 272.711 121.946C265.645 122.059 265.021 138.901 276.975 139.629Z"
        fill="#191919" />
    <path
        d="M291.214 189.009C291.836 189.706 292.657 190.196 293.565 190.414C294.474 190.631 295.427 190.566 296.298 190.227C297.168 189.888 297.915 189.291 298.436 188.516C298.958 187.741 299.231 186.825 299.218 185.891C300.938 185.218 302.606 184.419 304.208 183.5C303.975 182.087 303.443 180.741 302.648 179.55C301.03 179.969 299.462 180.561 297.971 181.317C297.37 180.572 296.547 180.038 295.622 179.792C294.698 179.546 293.719 179.601 292.827 179.948C291.935 180.295 291.177 180.917 290.663 181.724C290.148 182.531 289.904 183.48 289.965 184.435C288.925 185.059 287.782 185.787 287.366 186.099C287.314 187.535 287.711 188.952 288.5 190.153C289.341 189.841 290.373 189.433 291.214 189.009ZM292.147 184.435C292.476 180.797 297.25 181.213 296.827 185.787C296.515 189.529 291.754 188.803 292.147 184.435Z"
        fill="#191919" />
    <path
        d="M268.449 224.145C268.138 218.948 267.93 206.68 269.281 202.106C269.489 201.275 270.528 201.067 270.415 202.834C270.065 209.901 270.135 216.983 270.623 224.041C278.473 223.789 286.33 224.171 294.118 225.185C290.789 216.453 286.112 189.32 285.592 185.786C285.072 182.252 278.003 179.859 274.252 176.221C265.52 179.339 253.356 189.112 243.896 202.418C247.376 210.003 250.227 217.861 252.42 225.913C257.726 225.026 263.078 224.436 268.449 224.145Z"
        fill="#191919" />
    <path
        d="M317.413 167.283C313.152 171.752 309.513 173.935 303.068 174.039C304.42 183.3 312.53 196.806 319.598 206.683C320.703 204.333 321.506 201.853 321.987 199.301C322.197 197.846 323.121 198.365 323.121 199.197C322.951 202.477 322.249 205.708 321.042 208.762C329.568 220.405 340.698 231.631 344.856 245.77C349.534 239.845 367.831 207.403 355.149 185.891C347.667 172.896 331.345 166.243 317.413 167.283Z"
        fill="#191919" />
    <path
        d="M332.693 261.253C340.076 261.357 343.504 261.357 349.741 261.357C352.966 253.353 356.292 237.657 357.435 224.661C350.781 246.186 340.698 256.373 332.693 261.253Z"
        fill="#191919" />
    <path
        d="M304.313 254.812C292.578 255.923 280.962 258.045 269.592 261.153C276.349 261.049 300.675 260.842 309.199 261.049C306.992 259.496 305.292 257.327 304.313 254.812Z"
        fill="#191919" />
    <path
        d="M302.663 252.214C303.912 252.025 303.702 250.135 302.455 250.343C272.383 254.563 267.388 258.166 254.53 259.283C252.763 259.387 251.317 261.258 253.699 261.258C261.393 261.258 274.075 257.308 282.391 255.748C289.66 254.293 295.388 253.339 302.663 252.214Z"
        fill="#191919" />
    <path
        d="M256.181 227.263C251.603 228.178 252.751 229.654 254.414 229.238C266.266 226.744 282.274 227.263 294.126 229.238C295.27 229.446 295.79 227.679 294.646 227.471C282.898 225.496 267.918 224.922 256.181 227.263Z"
        fill="#191919" />
    <path
        d="M329.37 224.562C329.886 224.984 330.929 224.354 330.504 223.617C320.681 211.929 311.947 199.368 304.411 186.089C303.995 185.362 302.747 186.089 303.059 186.817C307.019 194.725 322.56 219.011 329.37 224.562Z"
        fill="#191919" />
    <path
        d="M342.257 246.602C342.673 245.562 341.312 244.73 340.802 245.657C337.683 251.166 333.941 256.675 327.912 259.378C321.779 262.185 315.02 261.353 310.55 256.052C300.883 244.617 293.814 208.235 291.214 191.703C291.006 190.663 289.551 191.079 289.759 192.118C291.941 207.919 299.02 245.137 309.303 257.299C317.179 266.685 333.799 264.364 342.257 246.602Z"
        fill="#191919" />
    <path
        d="M187.261 205.119C187.989 204.707 187.469 203.872 186.637 203.985C182.895 204.713 180.4 205.752 179.255 209.496C178.1 212.906 177.814 216.551 178.423 220.099C178.631 221.044 179.983 220.827 180.087 219.891C180.191 215.837 179.567 215.006 180.918 210.536C182.062 206.368 183.94 207.009 187.261 205.119Z"
        fill="#191919" />
    <path
        d="M188.612 189.218C188.498 191.472 188.567 193.732 188.82 195.975C188.924 196.806 190.379 196.702 190.483 195.975C190.53 193.718 190.426 191.461 190.171 189.218C190.065 188.489 188.629 188.489 188.612 189.218Z"
        fill="#191919" />
    <path
        d="M196.509 188.384C199.285 186.872 203.691 183.914 205.553 180.274C206.072 179.235 205.97 178.923 205.241 177.987C204.322 176.948 203.236 176.07 202.028 175.389C200.782 174.765 200.676 175.181 199.743 175.804C193.608 180.066 184.245 179.235 177.806 175.908C177.286 175.596 175.83 176.428 177.182 177.156C185.188 181.212 193.814 181.939 201.196 176.74C202.386 177.494 203.47 178.403 204.421 179.443C201.959 182.942 198.625 185.737 194.751 187.553C193.296 185.785 191.841 184.122 190.385 182.355C188.191 179.919 187.291 184.304 183.731 187.864C180.128 186.085 176.685 183.998 173.44 181.627C174.479 180.586 175.415 179.548 176.454 178.507C177.078 177.987 176.246 176.948 175.509 177.373C174.413 178.167 173.403 179.073 172.495 180.076C172.122 180.505 171.935 181.064 171.974 181.631C172.013 182.198 172.275 182.726 172.703 183.1C174.366 184.659 182.786 190.064 184.139 189.441C186.426 188.307 187.673 185.283 189.232 183.412C190.688 184.867 192.663 187.778 193.806 188.921C194.534 189.736 195.774 188.785 196.509 188.384Z"
        fill="#191919" />
    <path
        d="M207.531 146.595C207.908 144.995 208.047 143.349 207.945 141.709C207.737 139.942 206.076 139.838 206.178 141.813C206.386 144.412 205.452 147.426 205.764 148.05C206.491 149.819 209.09 146.916 210.336 148.78C212.103 151.69 208.257 157.2 205.866 155.744C205.244 155.329 204.732 155.64 204.307 156.992C203.671 158.812 202.834 160.555 201.812 162.189C196.199 170.401 184.868 172.48 178.631 165.402C176.432 162.554 175 159.19 174.473 155.631C174.457 155.397 174.38 155.171 174.249 154.976C174.119 154.78 173.94 154.623 173.73 154.518C173.52 154.413 173.287 154.364 173.052 154.377C172.818 154.39 172.591 154.464 172.394 154.591C170.211 156.255 168.236 153.76 168.028 150.641C167.716 146.378 170.315 146.066 172.186 147.521C172.302 147.615 172.446 147.671 172.595 147.68C172.745 147.688 172.893 147.65 173.02 147.569C173.146 147.489 173.244 147.37 173.3 147.231C173.355 147.092 173.366 146.939 173.33 146.793C173.226 145.848 172.706 140.556 172.706 139.413C172.602 138.373 171.354 138.789 171.354 139.725C171.458 141.596 171.562 143.571 171.77 145.338C171.197 145.06 170.564 144.926 169.927 144.947C169.29 144.969 168.668 145.146 168.115 145.463C167.562 145.779 167.095 146.226 166.754 146.764C166.412 147.302 166.207 147.916 166.157 148.551C165.325 154.166 169.275 158.532 172.914 156.453C173.953 161.027 175.72 165.705 179.568 168.511C179.359 170.382 179.257 172.254 179.049 174.125C178.945 175.788 180.088 175.996 180.504 175.164C180.785 173.27 180.958 171.361 181.024 169.447C183.572 170.774 186.428 171.397 189.297 171.251C192.166 171.105 194.944 170.195 197.344 168.615C197.448 170.486 197.344 172.461 197.552 174.333C197.554 174.451 197.581 174.567 197.631 174.675C197.681 174.782 197.753 174.877 197.842 174.955C197.931 175.032 198.036 175.09 198.149 175.125C198.263 175.159 198.382 175.169 198.499 175.155C198.617 175.14 198.73 175.101 198.831 175.04C198.932 174.978 199.019 174.897 199.087 174.799C199.154 174.702 199.201 174.592 199.223 174.476C199.245 174.359 199.242 174.24 199.215 174.125C198.903 171.006 199.111 169.031 199.007 167.472C202.155 164.976 204.445 161.56 205.558 157.701C206.187 157.85 206.843 157.853 207.474 157.709C208.105 157.565 208.694 157.277 209.196 156.869C214.08 153.561 213.662 144.724 207.531 146.595Z"
        fill="#191919" />
    <path
        d="M181.646 137.446C180.594 137.425 179.55 137.628 178.582 138.04C177.615 138.452 176.745 139.064 176.031 139.837C175.407 140.46 175.823 141.812 177.07 141.188C178.414 140.224 179.997 139.648 181.646 139.525C183.517 139.317 183.213 137.557 181.646 137.446Z"
        fill="#191919" />
    <path
        d="M206.905 202.628C206.613 200.101 205.662 197.695 204.148 195.652C202.634 193.609 200.609 191.999 198.277 190.985C197.143 190.569 197.029 191.713 197.861 192.119C203.162 194.926 205.241 200.331 205.451 206.05C205.657 210.728 203.474 218.005 208.984 220.603C209.929 221.019 210.649 219.469 209.711 219.044C205.033 216.871 208.005 209.704 206.905 202.628Z"
        fill="#191919" />
    <path
        d="M182.996 192.752C183.505 192.119 182.892 191.297 182.165 191.807C178.126 195.265 175.167 199.811 173.641 204.905C172.913 207.609 173.121 210.416 172.497 213.015C171.77 216.029 169.171 217.173 166.78 218.836C165.949 219.356 166.676 220.811 167.612 220.395C169.942 219.443 171.934 217.813 173.329 215.717C175.512 211.975 173.329 207.297 177.799 199.499C179.36 197.123 181.098 194.868 182.996 192.752Z"
        fill="#191919" />
    <path
        d="M176.755 215.311C177.113 212.098 176.859 208.761 178.626 205.85C179.422 204.648 180.464 203.628 181.683 202.857C182.901 202.087 184.27 201.583 185.697 201.38C186.944 201.172 186.831 199.925 185.697 199.925C184.049 199.979 182.437 200.422 180.992 201.217C179.547 202.011 178.31 203.136 177.381 204.499C175.588 207.763 174.895 211.518 175.406 215.207C175.404 215.935 176.663 216.143 176.755 215.311Z"
        fill="#191919" />
    <path
        d="M189.45 214.38C189.072 217.088 189.658 257.313 189.762 259.496C189.762 260.64 191.633 260.536 191.633 259.392C191.633 247.863 191.113 227.062 190.905 214.484C190.794 213.854 189.558 213.543 189.45 214.38Z"
        fill="#191919" />
    <path
        d="M200.564 233.502C199.372 233.053 198.31 232.315 197.475 231.353C196.641 230.391 196.059 229.236 195.782 227.992C194.639 222.483 200.356 217.182 197.446 211.464C196.936 210.395 196.092 209.521 195.041 208.975C193.99 208.43 192.79 208.242 191.623 208.44C191.471 208.44 191.325 208.501 191.218 208.608C191.111 208.715 191.051 208.86 191.051 209.012C191.051 209.164 191.111 209.309 191.218 209.416C191.325 209.524 191.471 209.584 191.623 209.584C192.297 209.609 192.959 209.771 193.569 210.06C194.179 210.349 194.724 210.758 195.171 211.264C195.619 211.769 195.959 212.36 196.171 213.001C196.383 213.641 196.463 214.319 196.406 214.991C196.406 218.006 194.743 220.812 194.119 223.723C193.485 226.011 193.731 228.455 194.808 230.571C195.885 232.688 197.717 234.324 199.94 235.157C201.084 235.685 201.704 233.933 200.564 233.502Z"
        fill="#191919" />
    <path
        d="M165.948 221.34C165.838 220.508 165.948 217.701 164.492 218.127C163.217 218.362 161.965 218.71 160.75 219.166C159.087 219.894 158.255 221.765 160.542 221.141C161.582 220.829 162.725 220.517 163.755 220.196C164.285 226.933 166.984 233.316 171.447 238.389C165.358 243.592 158.774 248.187 151.791 252.111C149.816 253.254 150.336 255.021 151.999 254.086C159.555 250.142 166.577 245.252 172.895 239.533C173.207 239.221 173.623 238.805 173.207 238.181C169.482 232.358 166.838 228.102 165.948 221.34Z"
        fill="#191919" />
    <path
        d="M254.415 244.522C253.264 233.607 245.475 212.295 241.109 202.834C234.454 188.593 223.955 183.395 209.194 180.171C209.001 180.129 208.799 180.166 208.633 180.273C208.467 180.381 208.351 180.549 208.309 180.743C208.267 180.936 208.304 181.138 208.412 181.304C208.519 181.47 208.688 181.587 208.881 181.628C221.668 186.098 231.128 187.761 238.095 200.963C243.084 210.424 254.103 239.428 252.544 250.551C251.296 259.179 246.722 258.763 240.693 259.179C229.881 259.906 211.377 245.457 203.683 238.389C208.881 234.749 212.209 226.433 213.145 220.611C221.421 222.883 229.41 226.091 236.959 230.175C238 230.694 238.832 229.343 237.792 228.823C232.985 226.127 227.98 223.799 222.821 221.859C222.373 219.378 221.299 217.053 219.703 215.102C218.871 214.374 218.455 215.31 218.767 215.83C219.783 217.477 220.553 219.262 221.054 221.131C218.592 220.188 216.053 219.458 213.466 218.948C211.491 218.636 211.491 218.948 211.179 220.611C207.747 237.141 199.951 236.724 202.133 239.116C209.828 247.744 228.331 260.738 240.391 260.946C251.712 261.252 255.654 256.27 254.415 244.522Z"
        fill="#191919" />
    <path
        d="M201.606 211.465C201.477 209.946 200.907 208.497 199.967 207.297C199.027 206.096 197.758 205.196 196.314 204.706C194.534 204.361 192.72 204.222 190.908 204.29C190.075 204.29 190.075 205.33 190.804 205.54C193.819 206.371 196.314 205.226 198.497 208.346C200.887 211.673 199.536 214.895 199.952 216.87C200.009 217.026 200.109 217.161 200.242 217.261C200.374 217.36 200.533 217.419 200.698 217.43C200.863 217.441 201.028 217.404 201.172 217.323C201.317 217.242 201.434 217.121 201.511 216.974C201.862 215.157 201.894 213.293 201.606 211.465Z"
        fill="#191919" />
    <path
        d="M188.191 207.827C186.993 208.207 185.89 208.84 184.958 209.683C184.025 210.526 183.284 211.559 182.784 212.712C178.418 221.86 190.374 228.617 173.117 234.96C172.905 235.023 172.726 235.165 172.616 235.357C172.507 235.549 172.476 235.776 172.53 235.99C172.583 236.204 172.717 236.39 172.904 236.507C173.091 236.625 173.316 236.667 173.532 236.623C176.285 235.975 178.848 234.692 181.017 232.879C190.686 224.771 176.859 216.974 188.711 208.97C189.335 208.45 189.025 207.63 188.191 207.827Z"
        fill="#191919" />
    <path
        d="M179.149 146.697C180.487 147.857 182.173 144.202 180.398 143.266C178.837 142.435 178.204 145.876 179.149 146.697Z"
        fill="#191919" />
    <path
        d="M200.151 204.082C202.829 206.607 202.646 210.319 202.75 213.751C202.75 214.582 203.997 214.479 204.205 213.751C204.725 210.009 204.309 205.537 201.398 202.73C198.28 199.82 193.498 199.404 189.548 200.028C189.458 200.032 189.37 200.055 189.289 200.095C189.209 200.136 189.138 200.193 189.081 200.263C189.025 200.333 188.983 200.414 188.96 200.502C188.938 200.589 188.933 200.68 188.948 200.769C188.963 200.857 188.996 200.942 189.046 201.017C189.096 201.092 189.162 201.156 189.238 201.204C189.314 201.251 189.4 201.282 189.489 201.295C189.579 201.307 189.669 201.3 189.756 201.275C193.29 201.275 197.316 201.409 200.151 204.082Z"
        fill="#191919" />
    <path
        d="M164.596 144.099C165.53 144.933 166.571 143.476 165.739 142.644C159.71 136.615 159.71 127.465 163.868 120.397C175.823 99.8128 211.377 103.973 218.758 125.178C220.037 128.569 220.171 132.284 219.138 135.758C218.106 139.231 215.964 142.27 213.04 144.411C212.417 144.931 212.937 146.074 213.768 145.659C222.084 141.501 223.539 130.586 220.109 122.79C209.922 99.6068 170.313 98.3594 160.646 122.79C157.735 129.962 158.661 138.807 164.596 144.099Z"
        fill="#191919" />
    <path
        d="M167.817 137.862C174.15 138.569 181.956 134.12 185.074 128.714C185.169 128.562 185.203 128.38 185.168 128.204C185.134 128.028 185.034 127.872 184.89 127.766C184.745 127.661 184.565 127.614 184.387 127.636C184.209 127.658 184.046 127.746 183.931 127.883C179.253 133.6 174.989 135.471 167.817 136.303C167.632 136.333 167.464 136.428 167.342 136.571C167.221 136.714 167.154 136.895 167.154 137.082C167.154 137.27 167.221 137.451 167.342 137.594C167.464 137.737 167.632 137.832 167.817 137.862Z"
        fill="#191919" />
    <path
        d="M187.777 153.872C188.507 153.354 188.505 152.625 187.777 152.313C187.258 152.105 184.451 152.833 184.243 152.313C183.827 151.274 185.387 146.802 185.699 144.619C185.906 143.06 185.179 143.06 184.451 144.307C183.723 145.554 181.427 151.897 182.474 153.768C183.516 155.328 186.742 154.604 187.777 153.872Z"
        fill="#191919" />
    <path
        d="M145.675 197.43C152.007 188.586 158.983 184.956 169.378 181.733C170.417 181.421 170.105 179.758 169.066 180.07C157.111 183.604 150.977 186.931 143.7 197.014C142.661 198.261 144.634 198.883 145.675 197.43Z"
        fill="#191919" />
    <path
        d="M210.241 138.797C210.392 138.752 210.524 138.656 210.613 138.525C210.703 138.395 210.745 138.237 210.733 138.08C210.721 137.922 210.655 137.773 210.546 137.658C210.438 137.542 210.293 137.468 210.137 137.446C203.69 137.342 195.894 136.406 191.008 131.729C186.434 127.363 184.147 119.772 183.826 113.639C183.722 112.6 182.163 112.505 182.267 113.535C182.371 119.98 185.291 128.402 189.959 132.872C194.627 137.342 203.883 139.772 210.241 138.797Z"
        fill="#191919" />
    <path
        d="M184.969 159.799C188.339 161.588 192.558 160.526 193.701 157.304C193.909 156.576 193.077 155.952 192.558 156.576C189.534 160.11 186.944 158.655 185.376 158.759C184.554 158.655 184.353 159.472 184.969 159.799Z"
        fill="#191919" />
    <path
        d="M198.383 142.229C197.597 139.961 193.186 137.447 191.107 138.175C190.275 138.487 189.963 140.15 191.107 140.358C193.417 140.658 195.586 141.635 197.344 143.164C197.863 143.58 198.674 143.068 198.383 142.229Z"
        fill="#191919" />
    <path
        d="M191.727 147.426C193.706 147.033 193.598 143.372 192.039 143.788C190.582 144.1 190.066 147.757 191.727 147.426Z"
        fill="#191919" />
    <path
        d="M244.034 84.0492C242.567 75.4523 252.628 67.5582 261.443 73.6603C269.86 79.4874 265.723 94.1317 254.135 93.4466C249.152 93.1506 245.028 89.8752 244.034 84.0492Z"
        fill="#003090" />
    <path
        d="M253.942 67.3301C254.062 68.4923 254.587 70.08 253.731 70.2101C252.791 70.3519 252.827 68.5304 252.791 67.6745C252.765 67.0631 252.72 64.2664 253.139 64.2433C253.51 64.2229 253.882 66.9572 253.942 67.3301Z"
        fill="#003090" />
    <path
        d="M257.839 70.4365C257.688 69.5768 259.955 66.144 260.347 66.2638C260.926 66.4411 259.399 70.4408 258.808 70.847C258.725 70.9189 258.624 70.9661 258.516 70.9832C258.407 71.0004 258.296 70.9868 258.196 70.944C258.095 70.9013 258.008 70.831 257.945 70.7413C257.882 70.6516 257.845 70.546 257.839 70.4365Z"
        fill="#003090" />
    <path
        d="M249.013 71.6769C249.116 72.2572 248.666 72.4163 248.299 72.225C247.464 71.7887 244.948 68.8185 245.213 68.5595C245.615 68.1672 249.01 71.282 249.013 71.6769Z"
        fill="#003090" />
    <path
        d="M123.533 160.327C124.054 160.743 124.886 160.327 124.574 159.704C123.845 157.625 123.221 155.546 124.782 153.363C125.421 152.507 126.281 151.841 127.27 151.438C128.26 151.034 129.34 150.909 130.395 151.074C130.566 151.073 130.732 151.017 130.868 150.914C131.004 150.811 131.103 150.666 131.149 150.502C131.196 150.338 131.189 150.163 131.128 150.004C131.067 149.845 130.956 149.709 130.811 149.619C127.901 148.267 122.181 150.762 122.181 156.273C122.1 157.006 122.179 157.749 122.412 158.449C122.646 159.148 123.028 159.789 123.533 160.327Z"
        fill="#191919" />
    <path
        d="M119.579 172.583C119.59 172.81 119.688 173.025 119.852 173.182C120.017 173.339 120.235 173.426 120.463 173.426C120.69 173.426 120.909 173.339 121.074 173.182C121.238 173.025 121.336 172.81 121.346 172.583C121.571 170.668 121.43 168.728 120.931 166.866C119.891 163.227 116.461 161.876 116.565 158.238C116.669 156.055 117.085 153.872 117.188 151.793C117.186 151.623 117.121 151.46 117.004 151.336C116.888 151.212 116.73 151.136 116.56 151.123C116.391 151.11 116.223 151.161 116.089 151.266C115.955 151.37 115.865 151.521 115.837 151.689C115.421 153.768 115.006 155.847 114.798 157.926C114.382 162.5 117.5 163.747 118.748 166.658C119.587 168.512 119.876 170.569 119.579 172.583Z"
        fill="#191919" />
    <path
        d="M120.725 133.807L122.284 149.088C122.388 149.712 123.532 149.712 123.635 148.984C124.155 145.138 122.804 137.549 121.972 133.486C121.868 132.872 120.621 133.08 120.725 133.807Z"
        fill="#191919" />
    <path
        d="M131.228 161.877C131.632 162.714 132.683 162.085 132.475 161.357C132.163 159.59 131.435 157.511 134.866 157.511C137.672 157.511 138.079 160.006 137.984 162.293C137.776 166.555 134.138 170.193 134.138 174.039C134.142 174.257 134.224 174.465 134.37 174.626C134.516 174.787 134.715 174.89 134.931 174.915C135.147 174.941 135.364 174.887 135.544 174.764C135.723 174.641 135.851 174.458 135.905 174.247C136.945 169.985 137.361 170.401 138.816 166.867C140.073 164.233 140.26 161.215 139.336 158.447C137.257 153.769 127.92 155.056 131.228 161.877Z"
        fill="#191919" />
    <path
        d="M126.546 156.471C126.345 158.011 126.636 159.575 127.378 160.94C127.462 161.063 127.587 161.152 127.731 161.192C127.875 161.232 128.028 161.219 128.163 161.157C128.299 161.095 128.408 160.987 128.472 160.852C128.535 160.718 128.55 160.565 128.512 160.421C128.096 158.238 127.68 155.639 129.759 154.495C130.674 153.936 131.715 153.614 132.786 153.56C133.857 153.505 134.925 153.72 135.892 154.184C136.62 154.599 137.244 153.456 136.724 152.936C134.966 150.753 127.17 151.585 126.546 156.471Z"
        fill="#191919" />
    <path
        d="M79.56 139.004C78.9363 139.108 78.3126 139.212 77.7928 139.316C76.8573 136.405 74.0506 133.391 70.6203 134.638C66.982 135.989 66.8762 139.94 67.086 141.707C64.062 142.019 60.951 142.434 57.9365 142.746C57.7656 142.787 57.6147 142.886 57.5108 143.028C57.4068 143.169 57.3566 143.343 57.3691 143.518C57.3816 143.693 57.456 143.858 57.579 143.983C57.702 144.109 57.8656 144.186 58.0404 144.202C61.1589 143.994 64.2774 143.786 67.3978 143.682C69.2273 153.035 79.7943 150.497 78.3126 141.187C78.8323 141.083 79.3521 141.083 79.7679 140.979C80.9227 149.068 90.3273 149.318 89.4352 139.732C90.2668 139.732 92.034 139.316 91.2024 138.068C90.7866 137.445 89.851 137.861 89.2273 137.965C87.5641 131.104 79.8718 131.935 79.56 139.004ZM68.7492 142.538C68.4373 140.147 68.9571 137.653 70.5163 136.717C73.1151 135.054 75.7138 137.653 76.5454 140.979C78.2653 148.938 69.7584 150.624 68.7492 142.538ZM85.693 145.241C81.8752 146.564 79.3105 137.891 82.6785 135.366C87.1521 131.864 90.0816 143.712 85.6892 145.241H85.693Z"
        fill="#191919" />
    <path
        d="M79.7641 150.753C77.3732 150.961 77.5811 152.001 79.1404 152.209C80.1799 152.313 81.8431 152.105 82.3534 151.169C83.185 149.714 82.0415 147.321 80.5862 145.97C79.5467 144.93 79.027 145.866 79.4522 146.386C80.3934 147.841 82.6747 150.234 79.7641 150.753Z"
        fill="#191919" />
    <path
        d="M87.357 147.945C87.2587 146.905 86.223 146.905 86.223 147.945C86.4309 155.015 85.7032 166.346 75.6201 167.177C71.6681 167.489 67.4062 165.618 63.9758 163.643C63.3521 163.227 62.5205 164.267 63.2482 164.786C66.6828 167.259 70.7679 168.669 74.9964 168.841C75.2043 170.504 75.6201 172.271 75.828 173.934C76.3477 177.157 77.5952 175.597 77.3873 174.558C77.1683 172.609 76.891 170.668 76.5556 168.737C86.3175 167.177 88.1262 156.051 87.357 147.945Z"
        fill="#191919" />
    <path
        d="M73.114 160.11C73.6893 160.385 74.3161 160.535 74.9535 160.551C75.5908 160.567 76.2244 160.449 76.8129 160.204C77.4014 159.958 77.9317 159.592 78.369 159.128C78.8063 158.664 79.1409 158.113 79.351 157.511C80.0787 155.952 79.6628 155.64 78.3115 155.64C76.9973 155.739 75.6779 155.537 74.453 155.051C73.2281 154.565 72.1297 153.807 71.241 152.833C69.5287 151.405 69.1091 158.585 73.114 160.11ZM78.1036 157.199C76.4404 160.412 71.4489 158.863 71.3468 155.12C73.3186 156.519 75.6869 157.247 78.1036 157.199Z"
        fill="#191919" />
    <path
        d="M72.8009 142.228C72.5835 142.85 72.9029 144.515 73.9443 144.307C74.7759 144.203 74.7759 143.06 74.4641 142.332C74.0483 141.293 73.1997 141.079 72.8009 142.228Z"
        fill="#191919" />
    <path
        d="M84.34 140.357C84.117 141.081 84.444 142.956 85.474 142.54C85.9938 142.332 86.2017 141.813 86.0977 140.877C85.8993 139.726 84.7294 139.102 84.34 140.357Z"
        fill="#191919" />
    <path
        d="M66.2509 136.095C67.8262 134.28 70.0058 133.099 72.3859 132.768C72.6326 132.718 72.8532 132.581 73.0076 132.382C73.1621 132.183 73.24 131.936 73.2275 131.684C73.2149 131.433 73.1126 131.194 72.9391 131.012C72.7656 130.829 72.5325 130.715 72.2819 130.689C71.0792 130.7 69.8922 130.964 68.799 131.466C67.7058 131.968 66.7311 132.695 65.9391 133.6C63.6522 136.095 65.6102 136.805 66.2509 136.095Z"
        fill="#191919" />
    <path
        d="M38.6 134.744C38.4293 137.97 39.1793 141.178 40.7625 143.994C42.3456 146.81 44.6967 149.118 47.5416 150.649C48.0613 153.663 50.0364 157.199 53.7786 157.199C54.8964 162.755 55.6258 168.382 55.9615 174.039C55.9543 174.139 55.9678 174.24 56.0011 174.334C56.0344 174.429 56.0868 174.515 56.1551 174.589C56.2233 174.662 56.306 174.721 56.3979 174.761C56.4898 174.801 56.5889 174.821 56.6892 174.821C56.7894 174.821 56.8885 174.801 56.9804 174.761C57.0723 174.721 57.155 174.662 57.2232 174.589C57.2915 174.515 57.3439 174.429 57.3772 174.334C57.4105 174.24 57.424 174.139 57.4168 174.039C57.3092 168.627 56.7178 163.234 55.6497 157.927C55.4418 156.992 55.4418 155.119 54.4023 155.222C52.3233 155.43 50.2443 153.663 49.6206 150.337C48.8929 146.803 50.868 143.892 53.6746 145.234C54.0904 145.442 54.4022 145.13 54.6101 144.922C58.6642 140.972 63.7577 133.695 63.7577 125.689C69.1631 128.082 82.1588 129.018 88.0839 127.041C87.6681 119.141 80.0798 106.978 63.238 108.642C44.4231 110.522 38.7852 124.867 38.6 134.744Z"
        fill="#191919" />
    <path
        d="M81.8433 131.519C83.1647 131.117 84.576 131.117 85.8974 131.519C86.9369 131.831 86.8329 130.792 86.0013 130.064C85.2884 129.687 84.5075 129.457 83.7043 129.385C82.9011 129.314 82.0918 129.403 81.3236 129.648C79.7643 130.376 80.2992 132.179 81.8433 131.519Z"
        fill="#191919" />
    <path
        d="M149.311 199.924C136.109 199.723 114.278 199.196 102.324 200.236C92.9663 201.067 90.6794 203.978 88.4964 212.088C85.3779 223.938 80.3883 243.794 78.7251 255.125C66.1636 254.939 53.6011 255.425 41.0914 256.58C36.4137 257.204 36.1018 260.634 37.5571 262.09C38.2848 262.817 39.2203 261.778 38.6911 261.05C38.5882 260.866 38.5226 260.663 38.4982 260.454C38.4738 260.244 38.4911 260.032 38.5491 259.829C38.607 259.626 38.7045 259.437 38.836 259.272C38.9674 259.107 39.1301 258.969 39.3148 258.867C41.9136 257.1 73.4142 256.788 77.8841 256.788C79.5473 256.788 80.067 256.58 80.4828 254.813C83.6013 240.156 87.6648 223.314 91.3976 209.489C92.5316 205.017 95.9714 202.626 101.483 202.211C115.412 201.067 135.06 201.691 149.821 201.899C155.021 202.003 158.137 204.082 157.723 209.905C157.204 217.701 150.341 241.611 147.846 250.447C147.055 253.913 145.833 257.265 144.208 260.426C143.584 261.466 145.144 262.611 145.767 261.56C147.635 257.655 149.131 253.583 150.237 249.398C153.563 237.756 158.243 220.914 159.698 210.623C160.341 203.562 156.381 200.031 149.311 199.924Z"
        fill="#191919" />
    <path
        d="M120.932 224.875C120.51 225.495 121.244 226.434 121.971 225.914C122.702 225.319 123.611 224.985 124.553 224.966C125.495 224.947 126.417 225.244 127.171 225.81C128.522 227.058 128.834 229.656 126.339 234.126C123.219 239.845 118.957 240.677 117.078 238.39C114.791 235.583 116.974 229.864 119.157 227.577C119.677 226.954 118.741 226.018 118.212 226.538C113.638 230.696 112.807 236.831 115.405 239.637C119.563 244.211 125.594 240.469 127.879 235.583C129.231 232.671 131.31 228.721 129.439 225.706C129.052 224.948 128.48 224.299 127.777 223.819C127.073 223.339 126.26 223.044 125.413 222.962C124.565 222.879 123.711 223.011 122.928 223.345C122.144 223.679 121.458 224.205 120.932 224.875Z"
        fill="#191919" />
    <path
        d="M133.408 97.1107C135.81 95.5685 132.68 91.4955 130.195 93.9903C128.106 95.9673 131.442 98.3714 133.408 97.1107Z"
        fill="#191919" />
    <path
        d="M108.041 98.8767C110.751 99.8954 112.823 96.9016 111.16 95.3424C108.873 93.1594 104.932 97.7087 108.041 98.8767Z"
        fill="#191919" />
    <path
        d="M119.584 98.2547C123.224 99.3887 124.574 94.7204 121.039 93.8888C118.752 93.369 116.571 97.3134 119.584 98.2547Z"
        fill="#191919" />
    <path
        d="M257.638 116.758C257.129 115.713 255.873 116.031 255.975 116.966C256.392 120.179 262.835 120.708 264.708 117.174C268.033 110.729 257.526 108.858 256.184 113.016C255.665 114.575 257.014 114.471 257.744 113.328C258.677 111.769 264.81 112.383 263.149 116.135C262.421 118.006 258.49 118.516 257.638 116.758Z"
        fill="#003090" />
    <path
        d="M239.86 95.0335C239.756 100.751 245.785 102.83 250.359 103.765C267.097 107.196 274.685 98.256 272.606 92.0171C272.595 91.9332 272.566 91.8526 272.521 91.7808C272.476 91.7091 272.416 91.6478 272.346 91.601C272.275 91.5543 272.195 91.5232 272.112 91.5099C272.028 91.4965 271.942 91.5012 271.861 91.5237C271.779 91.5462 271.703 91.5858 271.638 91.64C271.573 91.6943 271.52 91.7618 271.484 91.8381C271.447 91.9144 271.427 91.9976 271.425 92.0823C271.423 92.167 271.439 92.251 271.472 92.3289C272.096 99.9192 263.258 102.724 257.125 102.83C252.344 102.934 239.142 100.439 241.949 93.1605C242.468 91.9131 241.533 91.1855 240.815 91.9131C236.553 96.3849 230.106 95.1375 226.987 89.7302C223.661 83.909 225.428 75.6969 232.705 76.6325C232.926 76.6452 233.143 76.5764 233.317 76.4391C233.491 76.3018 233.608 76.1055 233.646 75.8876C233.685 75.6696 233.642 75.4451 233.526 75.2567C233.41 75.0683 233.228 74.929 233.016 74.8653C226.883 72.3705 225.834 62.8052 233.224 58.3354C240.295 54.0734 246.22 56.4643 251.002 62.0776C251.833 63.1171 252.873 62.9092 252.977 60.8302C253.496 55.4248 260.357 52.3063 265.245 53.5537C266.541 53.974 267.741 54.6482 268.774 55.537C269.808 56.4257 270.654 57.5113 271.263 58.7304C271.873 59.9495 272.234 61.2777 272.325 62.6376C272.416 63.9975 272.235 65.362 271.794 66.6514C271.482 67.5964 272.417 67.9007 273.145 67.6928C279.59 66.0277 286.451 73.0982 287.074 79.2312C288.114 89.2104 279.174 89.5223 273.769 88.3788C272.729 88.1709 272.937 89.3238 273.769 89.6262C281.565 92.225 289.673 88.5867 288.737 79.2312C288.114 72.3705 280.941 64.8842 273.665 66.0277C274.171 63.7542 274.019 61.3836 273.228 59.193C272.436 57.0025 271.037 55.0825 269.195 53.6576C262.54 48.772 252.665 53.0339 251.314 59.7907C249.211 57.1816 246.262 55.3898 242.978 54.7254C239.693 54.061 236.28 54.5658 233.328 56.1524C226.26 59.7907 222.933 69.252 229.588 74.6574C224.7 75.8009 222.518 80.6865 223.141 85.6761C224.682 94.6177 233.725 99.2955 239.86 95.0335Z"
        fill="#003090" />
    <path
        d="M352.557 264.794C263.738 263.881 117.22 262.148 5.55318 267.185C4.82553 267.185 4.92948 269.471 5.65713 269.471C113.034 266.756 211.181 264.669 352.661 267.808C353.591 267.808 353.485 264.803 352.557 264.794Z"
        fill="#003090" />
    <path
        d="M111.68 197.747C116.877 197.747 127.066 197.747 134.031 197.643C135.553 190.545 136.626 183.357 137.244 176.124C131.734 176.851 121.338 176.332 116.764 174.564C115.687 182.415 113.987 190.167 111.68 197.747Z"
        fill="#003090" />
    <path
        d="M34.6569 261.251C34.3602 259.968 34.507 258.622 35.0733 257.432C35.6396 256.243 36.5921 255.281 37.7754 254.702C40.582 253.351 69.3799 253.143 76.1424 252.831C76.4542 251.168 77.3898 246.698 78.7411 240.877C61.724 237.461 44.4289 235.617 27.0742 235.367C25.5149 235.367 26.1386 233.91 27.0742 233.91C29.569 233.806 32.0638 233.806 34.5586 233.806C36.4811 226.203 39.3451 218.87 43.0844 211.977C43.5002 211.249 44.4357 211.665 44.1239 212.393C40.9028 219.313 38.3272 226.516 36.4297 233.91C50.8094 234.46 65.1271 236.093 79.2609 238.798C81.5478 228.921 84.6663 216.239 87.5769 207.715C90.0717 200.125 94.0218 198.253 99.3251 197.942C102.788 197.792 106.255 197.757 109.72 197.838C110.136 196.59 110.552 195.343 110.968 193.784C105.874 185.468 94.9573 178.085 80.0925 176.942C74.9989 182.973 60.7559 182.349 52.9596 174.967C48.3858 175.487 33.3036 178.813 24.2675 189.002C11.5837 203.555 -5.67196 236.927 2.64404 254.494C6.78692 263.441 29.9697 261.776 34.6569 261.251Z"
        fill="#003090" />
    <path
        d="M177.899 17.7916C178.218 15.1928 176.444 1.98931 175.092 0.741908C175.013 0.658511 174.914 0.596178 174.804 0.560514C174.695 0.52485 174.578 0.516973 174.465 0.537587C174.351 0.558201 174.245 0.606661 174.155 0.678614C174.065 0.750566 173.994 0.843754 173.949 0.949806C173.533 1.88536 176.028 16.1265 176.34 17.7916C176.38 17.9684 176.479 18.1262 176.621 18.2393C176.762 18.3524 176.938 18.414 177.119 18.414C177.301 18.414 177.477 18.3524 177.618 18.2393C177.76 18.1262 177.859 17.9684 177.899 17.7916Z"
        fill="#003090" />
    <path
        d="M192.56 70.8075C192.637 70.6506 192.672 70.4764 192.661 70.3019C192.651 70.1274 192.595 69.9586 192.5 69.812C192.405 69.6654 192.273 69.546 192.118 69.4654C191.963 69.3849 191.79 69.3459 191.615 69.3522C189.848 69.3522 187.457 72.7845 178.724 71.5352C177.779 71.4312 177.164 72.7845 178.1 73.2003C183.621 75.2755 191.717 72.7807 192.56 70.8075Z"
        fill="#003090" />
    <path
        d="M203.163 52.5144C206.911 54.6909 210.842 56.5344 214.912 58.0237C215.09 58.0514 215.273 58.0216 215.434 57.9385C215.595 57.8554 215.725 57.7234 215.806 57.5615C215.887 57.3996 215.915 57.2162 215.885 57.0377C215.855 56.8592 215.769 56.6949 215.639 56.5684C211.907 54.3913 207.973 52.581 203.891 51.163C203.712 51.0665 203.502 51.0452 203.307 51.1037C203.112 51.1621 202.948 51.2957 202.851 51.4749C202.755 51.6541 202.734 51.8643 202.792 52.0592C202.851 52.2541 202.984 52.4179 203.163 52.5144Z"
        fill="#003090" />
    <path
        d="M183.309 75.4876C183.096 75.4423 182.873 75.4781 182.685 75.5882C182.497 75.6982 182.357 75.8745 182.292 76.0826C182.227 76.2906 182.242 76.5154 182.334 76.713C182.426 76.9106 182.588 77.0667 182.789 77.1508C185.388 78.6061 189.971 76.9429 188.195 75.3837C187.371 74.656 186.112 76.0319 183.309 75.4876Z"
        fill="#003090" />
    <path
        d="M200.879 28.0827C202.43 27.4401 210.756 17.6877 212.107 15.8166C212.627 15.0889 211.484 14.3613 210.86 14.881C207.417 18.2034 204.154 21.7081 201.087 25.38C199.112 27.5629 200.147 28.3851 200.879 28.0827Z"
        fill="#003090" />
    <path
        d="M174.677 60.934C174.761 61.1198 174.908 61.2703 175.091 61.3591C175.275 61.4479 175.484 61.4694 175.682 61.4199C175.88 61.3704 176.054 61.2531 176.174 61.0883C176.295 60.9235 176.353 60.7218 176.34 60.5182C175.612 55.9444 171.454 53.3362 169.158 49.6034C164.376 41.8053 170.717 32.8656 178.825 30.7866C185.48 29.0194 192.964 31.4103 194.732 39.4144C196.291 46.277 193.172 51.2666 190.989 57.5036C190.574 58.855 191.934 59.2708 192.549 58.0234C195.355 52.7314 198.058 46.381 197.226 40.35C195.771 30.6826 187.663 26.4207 178.617 28.6036C170.717 30.5787 163.961 37.4394 165.312 46.0691C166.465 53.1377 172.66 55.0901 174.677 60.934Z"
        fill="#003090" />
    <path
        d="M176.975 68.8342C179.367 69.6849 181.922 69.9773 184.444 69.689C186.967 69.4008 189.39 68.5395 191.528 67.171C192.464 66.4434 192.048 64.8841 190.697 65.4039C185.187 67.3789 183.004 67.8987 177.597 67.171C176.654 67.0671 176.03 68.4279 176.975 68.8342Z"
        fill="#003090" />
    <path
        d="M148.378 61.2458C147.655 62.1908 148.378 63.4288 150.457 61.9735C153.345 60.1762 156.091 58.1606 158.671 55.9444C158.809 55.8236 158.899 55.6567 158.923 55.4748C158.947 55.2929 158.905 55.1085 158.803 54.9558C158.701 54.8031 158.547 54.6927 158.37 54.645C158.193 54.5974 158.004 54.6159 157.84 54.697C154.499 56.5964 151.333 58.7879 148.378 61.2458Z"
        fill="#003090" />
    <path
        d="M156.183 33.4891C156.354 33.5339 156.536 33.5169 156.697 33.441C156.857 33.3652 156.986 33.2354 157.06 33.0744C157.134 32.9133 157.15 32.7312 157.103 32.56C157.057 32.3887 156.952 32.2393 156.806 32.1377C152.649 29.4416 148.306 27.0416 143.811 24.9557C143.624 24.8971 143.422 24.907 143.242 24.9835C143.062 25.0601 142.915 25.1983 142.827 25.3735C142.74 25.5486 142.717 25.7492 142.764 25.9394C142.811 26.1295 142.924 26.2967 143.083 26.411C147.277 29.0771 151.654 31.4424 156.183 33.4891Z"
        fill="#003090" />
    <path
        d="M176.976 64.8805C180.427 65.9635 189.14 64.2568 191.011 62.8015C192.258 61.762 191.115 60.3067 189.556 60.9304C185.676 62.4034 181.538 63.0753 177.392 62.9055C175.511 62.8015 175.209 64.3324 176.976 64.8805Z"
        fill="#003090" />
    <path
        d="M185.388 58.8534C185.255 53.3753 185.743 47.8996 186.844 42.5314C186.87 42.3582 186.83 42.1816 186.731 42.0368C186.633 41.8919 186.483 41.7896 186.312 41.7502C186.142 41.7109 185.962 41.7373 185.81 41.8243C185.658 41.9113 185.545 42.0525 185.492 42.2196C184.125 47.6507 183.634 53.2654 184.037 58.8516C184.032 58.9433 184.046 59.0351 184.078 59.1213C184.109 59.2076 184.158 59.2864 184.221 59.3532C184.284 59.4199 184.36 59.4731 184.445 59.5095C184.529 59.5459 184.62 59.5647 184.712 59.5649C184.804 59.565 184.895 59.5464 184.979 59.5102C185.063 59.4741 185.14 59.4211 185.203 59.3546C185.266 59.288 185.315 59.2092 185.347 59.1231C185.379 59.0369 185.393 58.9452 185.388 58.8534Z"
        fill="#003090" />
    <path
        d="M182.894 41.5985C180.146 42.3322 177.316 42.7133 174.472 42.7325C174.315 42.7337 174.162 42.777 174.027 42.858C173.893 42.9389 173.783 43.0545 173.708 43.1927C173.634 43.3309 173.598 43.4865 173.604 43.6433C173.611 43.8001 173.659 43.9522 173.745 44.0839C175.876 48.9015 177.75 53.8287 179.36 58.8448C179.672 59.7898 180.607 59.5724 180.399 58.6369C179.428 53.7294 177.892 48.9507 175.824 44.3957C178.41 44.2736 180.966 43.7836 183.414 42.9404C183.572 42.8582 183.694 42.7206 183.757 42.5538C183.82 42.387 183.819 42.2029 183.755 42.0366C183.691 41.8704 183.567 41.7338 183.408 41.6529C183.249 41.5721 183.066 41.5527 182.894 41.5985Z"
        fill="#003090" />
    <path
        d="M107.523 114.055C107.78 119.028 106.997 124 105.225 128.653C103.453 133.307 100.731 137.54 97.2318 141.082C95.2568 143.057 96.92 143.473 98.895 142.746C108.251 139.107 116.661 128.4 119.061 118.835C119.477 117.172 118.022 117.276 117.814 118.315C116.538 123.018 114.311 127.409 111.272 131.218C108.233 135.026 104.445 138.171 100.142 140.459C106.506 133.297 109.828 123.937 109.403 114.365C109.299 112.806 109.092 112.702 107.22 112.39C91.2103 109.896 85.2851 86.9207 110.547 77.6691C133.106 69.4552 150.467 84.7377 146.515 100.124C143.605 111.663 131.339 113.43 121.254 113.43C119.902 113.43 120.006 115.093 121.358 115.093C131.753 115.301 143.605 113.846 147.451 103.451C155.767 81.3074 132.482 69.2416 112.834 74.7585C81.0137 83.908 89.0179 113.328 107.523 114.055Z"
        fill="#003090" />
</svg>