<svg width="374" height="250" viewBox="0 0 374 250" fill="none" xmlns="http://www.w3.org/2000/svg">
<g clip-path="url(#clip0_2933_13018)">
<path d="M238.203 183.503C219.722 189.116 200.434 191.921 181.119 192.477C171.488 192.755 161.831 192.422 152.284 191.283C143.601 190.227 134.777 188.671 126.483 185.782C119.247 183.281 111.565 178.502 112.261 169.806C112.233 170.056 112.205 170.279 112.205 170.529L112.038 171.612C110.118 182.975 108.17 194.311 106.249 205.674C105.999 206.897 105.971 207.091 106.166 206.286C106.11 206.508 106.055 206.758 105.999 206.98C107.418 201.896 110.758 197.756 114.015 193.727C117.215 189.782 120.527 185.809 122.809 181.253C123.978 178.891 124.842 176.613 125.398 174.057C127.012 166.611 128.07 158.832 129.322 151.33C130.352 145.218 131.688 138.995 132.217 132.799C132.634 127.965 131.243 123.408 127.986 119.769C121.223 112.212 110.369 110.128 100.655 110.1C90.4963 110.1 80.1984 111.906 70.1229 109.878C64.9741 108.822 59.9642 106.683 56.3459 102.793C52.6999 98.8757 49.2208 93.0134 49.6106 87.4849C49.5828 87.7346 49.5549 87.9569 49.5549 88.2071C49.1373 90.9298 48.6918 93.6247 48.2746 96.3474C46.5766 105.988 44.9069 115.657 43.209 125.298C43.2368 125.159 43.2647 125.048 43.2925 124.909C43.2368 125.131 43.1811 125.381 43.1255 125.603C45.4355 116.713 55.8726 115.49 63.4989 115.046C63.6938 115.046 64.7792 108.461 64.6122 109.294C65.4485 104.651 66.2556 100.002 67.0336 95.3476C67.8128 90.7075 68.6198 86.04 69.3437 81.4003C69.4272 80.8169 70.1229 75.5938 70.1785 75.5938C65.5027 75.8713 60.5763 76.1215 56.3738 78.3443C54.5923 79.2889 52.9504 80.5945 51.698 82.2061C49.7777 84.7065 49.4157 87.7072 48.8589 90.7354C47.1613 100.015 45.5747 109.322 44.0717 118.63C43.5709 121.769 42.6804 125.103 42.8192 128.326C42.9306 130.66 43.738 132.91 44.7399 134.994C46.7159 139.022 49.4436 142.773 53.201 145.302C60.8269 150.386 70.6797 150.525 79.5024 150.136C88.8262 149.719 98.4006 148.608 107.53 151.192C112.428 152.581 117.243 154.998 120.778 158.721C124.313 162.444 125.871 167.139 125.454 172.251C125.482 172.001 125.509 171.779 125.509 171.529C124.814 178.002 125.816 172.195 128.515 154.137C131.938 136.189 132.913 130.41 131.438 136.744C131.493 136.522 131.549 136.272 131.605 136.05C130.102 141.94 126.623 146.913 122.865 151.608C119.247 156.137 115.017 160.61 113.068 166.194C112.122 168.917 111.732 171.862 111.231 174.668C109.227 185.754 107.057 196.923 105.637 208.092C105.303 210.814 105.498 213.481 106.75 215.954C108.754 219.871 112.706 222.372 116.658 224.067C121.39 226.122 126.539 227.317 131.577 228.401C137.821 229.733 144.142 230.68 150.503 231.235C163.25 232.402 176.109 232.179 188.856 231.04C203.273 229.762 217.579 227.123 231.439 222.928C231.773 222.816 232.692 216.482 232.553 217.176C233.389 212.532 234.196 207.883 234.974 203.229C235.753 198.589 236.56 193.922 237.284 189.282C237.451 188.254 237.618 187.226 237.757 186.198C238.008 185.337 238.119 184.42 238.203 183.503Z" fill="#EEEEEE"/>
<path d="M106.363 205.817C107.959 201.304 111.009 197.491 114.004 193.791C116.635 190.512 119.377 187.232 121.532 183.616C121.532 183.616 121.504 183.616 121.504 183.588H121.56C122.036 182.803 122.456 182.018 122.876 181.205C124.051 178.823 124.862 176.328 125.422 173.749C125.422 173.693 125.45 173.609 125.45 173.552C125.478 173.216 125.506 172.684 125.59 171.927C125.954 166.853 124.415 162.172 120.888 158.444C120.22 157.747 119.51 157.091 118.762 156.481C116.466 159.397 114.367 162.48 113.164 165.984C112.213 168.731 111.821 171.702 111.317 174.534C109.302 185.718 107.119 196.987 105.692 208.256C105.664 208.368 105.664 208.508 105.664 208.62C105.86 207.695 106.14 206.742 106.363 205.817ZM106.112 206.434C106.056 206.686 106.028 206.826 106 206.882C106.056 206.742 106.084 206.574 106.112 206.434Z" fill="url(#paint0_linear_2933_13018)"/>
<path d="M43.0835 124.822C43.1114 124.738 43.1114 124.682 43.1392 124.599C43.1114 124.738 43.0835 124.85 43.0557 124.989C43.0557 124.933 43.0557 124.878 43.0835 124.822C43.0557 124.989 43 125.156 42.9722 125.296C45.2856 116.373 55.738 115.146 63.3751 114.7C63.57 114.7 64.6571 108.092 64.49 108.929C64.5457 108.594 64.6014 108.287 64.6571 107.952C64.6014 107.925 64.5179 107.897 64.4622 107.869C64.49 107.841 64.5179 107.813 64.5457 107.813C64.6014 107.785 64.6571 107.73 64.7128 107.702C65.4654 103.464 66.2179 99.1974 66.9426 94.9314C67.7231 90.2746 68.5313 85.5905 69.256 80.9338C69.3396 80.3483 70.0365 75.1064 70.0921 75.1064C65.4097 75.3853 60.4762 75.6363 56.2674 77.8666C54.4835 78.8149 52.8391 80.1251 51.585 81.7424C49.6618 84.252 49.2994 87.2635 48.7417 90.3025C47.0417 99.6155 45.4526 108.956 43.9475 118.297C43.5851 120.528 43.0557 122.842 42.8047 125.129C42.8886 124.961 42.9722 124.794 43.0835 124.627V124.822Z" fill="url(#paint1_linear_2933_13018)"/>
<path d="M191.995 201.354C228.639 201.354 258.345 171.649 258.345 135.004C258.345 98.3602 228.639 68.6543 191.995 68.6543C155.35 68.6543 125.645 98.3602 125.645 135.004C125.645 171.649 155.35 201.354 191.995 201.354Z" fill="#003090"/>
<path d="M197.84 108.001L203.473 116.743C204.362 118.118 206.339 119.493 207.821 119.886L217.901 122.439C224.126 124.011 225.807 129.315 221.755 134.226L215.134 142.181C214.146 143.458 213.355 145.717 213.454 147.289L214.047 157.602C214.442 163.986 209.896 167.227 203.967 164.87L194.283 161.039C192.8 160.45 190.33 160.45 188.847 161.039L179.163 164.87C173.234 167.227 168.688 163.887 169.083 157.602L169.676 147.289C169.775 145.717 168.985 143.36 167.997 142.181L161.376 134.226C157.324 129.315 159.004 124.011 165.229 122.439L175.309 119.886C176.89 119.493 178.867 118.019 179.657 116.743L185.29 108.001C188.847 102.698 194.381 102.698 197.84 108.001Z" fill="white"/>
<path d="M125.508 65.5432C143.989 59.9307 163.276 57.1249 182.592 56.5693C192.222 56.2913 201.88 56.6246 211.426 57.7636C220.11 58.8195 228.933 60.3754 237.227 63.2647C244.463 65.7651 252.145 70.544 251.449 79.2399C251.477 78.9902 251.505 78.7679 251.505 78.5177L251.672 77.4343C253.592 66.071 255.541 54.7354 257.461 43.3721C257.712 42.1495 257.74 41.955 257.545 42.7608C257.6 42.5385 257.656 42.2887 257.712 42.0664C256.292 47.1507 252.952 51.2905 249.696 55.3189C246.495 59.2642 243.183 63.2369 240.901 67.7935C239.732 70.1551 238.869 72.4331 238.312 74.9892C236.698 82.4351 235.641 90.2143 234.388 97.7159C233.359 103.828 232.023 110.052 231.494 116.247C231.076 121.081 232.468 125.638 235.724 129.277C242.488 136.835 253.342 138.918 263.055 138.946C273.215 138.946 283.512 137.14 293.588 139.168C298.737 140.224 303.747 142.363 307.365 146.253C311.011 150.171 314.49 156.033 314.1 161.561C314.128 161.312 314.156 161.089 314.156 160.839C314.573 158.117 315.019 155.422 315.436 152.699C317.134 143.058 318.804 133.389 320.501 123.749C320.474 123.888 320.446 123.999 320.418 124.138C320.474 123.915 320.529 123.665 320.585 123.443C318.275 132.334 307.838 133.556 300.212 134.001C300.017 134.001 298.932 140.585 299.099 139.752C298.262 144.396 297.455 149.045 296.677 153.699C295.898 158.339 295.091 163.006 294.367 167.646C294.284 168.229 293.588 173.453 293.532 173.453C298.208 173.175 303.134 172.925 307.337 170.702C309.118 169.757 310.76 168.452 312.013 166.84C313.933 164.34 314.295 161.339 314.852 158.311C316.549 149.031 318.136 139.724 319.639 130.417C320.14 127.277 321.03 123.943 320.891 120.72C320.78 118.387 319.973 116.136 318.971 114.052C316.995 110.024 314.267 106.273 310.51 103.745C302.884 98.6605 293.031 98.5217 284.208 98.9107C274.884 99.3275 265.31 100.439 256.181 97.8547C251.282 96.4655 246.467 94.0487 242.933 90.3257C239.398 86.6027 237.84 81.9074 238.257 76.7952C238.229 77.0454 238.201 77.2677 238.201 77.5174C238.897 71.0439 237.895 76.8509 235.195 94.9097C231.772 112.858 230.798 118.637 232.273 112.302C232.217 112.524 232.162 112.774 232.106 112.997C233.609 107.107 237.088 102.133 240.845 97.4379C244.464 92.9096 248.694 88.4362 250.642 82.8519C251.589 80.1292 251.978 77.1842 252.479 74.3779C254.483 63.2926 256.654 52.1237 258.074 40.9548C258.407 38.2321 258.213 35.565 256.96 33.0925C254.956 29.175 251.004 26.6746 247.052 24.9796C242.32 22.9238 237.171 21.7291 232.134 20.6453C225.889 19.313 219.569 18.3665 213.208 17.8113C200.461 16.6448 187.602 16.8671 174.855 18.0062C160.438 19.284 146.132 21.9236 132.271 26.1186C131.937 26.23 131.019 32.5643 131.158 31.8699C130.321 36.5138 129.514 41.163 128.737 45.8172C127.957 50.4569 127.15 55.1244 126.427 59.7641C126.26 60.7922 126.092 61.8203 125.953 62.8479C125.703 63.7094 125.591 64.6261 125.508 65.5432Z" fill="#EEEEEE"/>
<path d="M257.345 43.2301C255.75 47.743 252.7 51.5553 249.705 55.2554C247.074 58.535 244.332 61.815 242.176 65.4307C242.176 65.4307 242.205 65.4307 242.205 65.459H242.149C241.673 66.244 241.253 67.0285 240.833 67.8418C239.658 70.2242 238.846 72.7192 238.286 75.2981C238.286 75.3542 238.259 75.4381 238.259 75.4942C238.23 75.8304 238.202 76.3632 238.119 77.1199C237.755 82.1938 239.294 86.8751 242.82 90.603C243.488 91.3002 244.199 91.9555 244.947 92.5653C247.242 89.6501 249.341 86.5667 250.544 83.0628C251.496 80.3155 251.888 77.3443 252.392 74.5131C254.407 63.3284 256.59 52.0598 258.017 40.7912C258.045 40.679 258.045 40.539 258.045 40.4268C257.849 41.3518 257.569 42.3051 257.345 43.2301ZM257.597 42.6134C257.653 42.3612 257.681 42.2207 257.709 42.1646C257.653 42.3051 257.625 42.473 257.597 42.6134Z" fill="url(#paint2_linear_2933_13018)"/>
<path d="M320.626 124.226C320.598 124.31 320.598 124.365 320.571 124.449C320.598 124.31 320.626 124.198 320.654 124.059C320.654 124.114 320.654 124.17 320.626 124.226C320.654 124.059 320.71 123.891 320.738 123.752C318.424 132.674 307.972 133.901 300.335 134.347C300.14 134.347 299.053 140.956 299.22 140.119C299.164 140.454 299.108 140.761 299.053 141.095C299.108 141.123 299.192 141.151 299.248 141.179C299.22 141.207 299.192 141.235 299.164 141.235C299.108 141.263 299.053 141.318 298.997 141.346C298.244 145.584 297.492 149.851 296.767 154.117C295.987 158.773 295.178 163.457 294.454 168.114C294.37 168.699 293.673 173.942 293.617 173.942C298.3 173.663 303.234 173.412 307.442 171.181C309.226 170.233 310.871 168.922 312.125 167.305C314.048 164.796 314.41 161.784 314.968 158.745C316.668 149.432 318.257 140.092 319.762 130.751C320.125 128.52 320.654 126.206 320.905 123.919C320.821 124.086 320.738 124.254 320.626 124.421V124.226Z" fill="url(#paint3_linear_2933_13018)"/>
<path d="M321.545 141.624C316.166 144.292 309.027 140.862 309.027 140.862C309.027 140.862 310.614 133.106 315.995 130.442C321.374 127.774 328.509 131.201 328.509 131.201C328.509 131.201 326.923 138.956 321.545 141.624Z" fill="url(#paint4_linear_2933_13018)"/>
<path d="M92.6585 70.7442C100.755 75.5966 112.371 71.1111 112.371 71.1111C112.371 71.1111 110.852 58.7591 102.751 53.9121C94.654 49.0592 83.043 53.5397 83.043 53.5397C83.043 53.5397 84.5618 65.8913 92.6585 70.7442Z" fill="url(#paint5_linear_2933_13018)"/>
<path d="M112.062 91.3379C108.59 91.3379 105.775 94.1523 105.775 97.624C105.775 101.096 108.59 103.91 112.062 103.91C115.533 103.91 118.348 101.096 118.348 97.624C118.348 94.1523 115.533 91.3379 112.062 91.3379Z" fill="#003090"/>
<path d="M81.4623 217.266C77.5086 217.266 74.3035 214.061 74.3035 210.107C74.3035 206.153 77.5086 202.948 81.4623 202.948C85.416 202.948 88.6211 206.153 88.6211 210.107C88.6211 214.061 85.416 217.266 81.4623 217.266Z" fill="#003090"/>
<path d="M267.23 81.7086C265.385 81.7086 263.889 80.213 263.889 78.368C263.889 76.523 265.385 75.0273 267.23 75.0273C269.075 75.0273 270.57 76.523 270.57 78.368C270.57 80.213 269.075 81.7086 267.23 81.7086Z" fill="#003090"/>
<path d="M65.6697 63.6861C63.2975 63.6861 61.3745 61.763 61.3745 59.3909C61.3745 57.0187 63.2975 55.0957 65.6697 55.0957C68.0418 55.0957 69.9648 57.0187 69.9648 59.3909C69.9648 61.763 68.0418 63.6861 65.6697 63.6861Z" fill="#EEEEEE"/>
<path d="M50.3661 168.986C46.9396 168.986 44.1618 166.208 44.1618 162.781C44.1618 159.355 46.9396 156.577 50.3661 156.577C53.7926 156.577 56.5703 159.355 56.5703 162.781C56.5703 166.208 53.7926 168.986 50.3661 168.986Z" fill="#EEEEEE"/>
<path d="M283.358 55.0658C281.614 55.0658 280.201 53.6521 280.201 51.9084C280.201 50.1646 281.614 48.751 283.358 48.751C285.102 48.751 286.516 50.1646 286.516 51.9084C286.516 53.6521 285.102 55.0658 283.358 55.0658Z" fill="#EEEEEE"/>
<path d="M306.393 81.1018C306.393 83.7053 304.282 85.8158 301.679 85.8158C299.075 85.8158 296.965 83.7053 296.965 81.1018C296.965 78.4983 299.075 76.3877 301.679 76.3877C304.282 76.3877 306.393 78.4983 306.393 81.1018Z" fill="#EEEEEE"/>
<path d="M112.104 35.1312C110.361 35.1312 108.947 33.7176 108.947 31.9738C108.947 30.23 110.361 28.8164 112.104 28.8164C113.848 28.8164 115.262 30.23 115.262 31.9738C115.262 33.7176 113.848 35.1312 112.104 35.1312Z" fill="#EEEEEE"/>
<path d="M275.512 190.12C272.847 190.12 270.688 188.392 270.688 186.261C270.688 184.129 272.847 182.401 275.512 182.401C278.176 182.401 280.336 184.129 280.336 186.261C280.336 188.392 278.176 190.12 275.512 190.12Z" fill="#EEEEEE"/>
<path d="M93.0649 165.64H93.1305C93.5216 171.388 97.6385 171.477 97.6385 171.477C97.6385 171.477 93.0985 171.569 93.0985 178.212C93.0985 171.569 88.5586 171.477 88.5586 171.477C88.5586 171.477 92.6738 171.388 93.0649 165.64Z" fill="#EEEEEE"/>
</g>
<defs>
<linearGradient id="paint0_linear_2933_13018" x1="94.4628" y1="183.663" x2="147.381" y2="183.426" gradientUnits="userSpaceOnUse">
<stop stop-color="white"/>
<stop offset="1" stop-color="#EEEEEE"/>
</linearGradient>
<linearGradient id="paint1_linear_2933_13018" x1="27.506" y1="101.271" x2="99.7832" y2="100.814" gradientUnits="userSpaceOnUse">
<stop stop-color="white"/>
<stop offset="1" stop-color="#EEEEEE"/>
</linearGradient>
<linearGradient id="paint2_linear_2933_13018" x1="269.246" y1="65.3842" x2="216.327" y2="65.6206" gradientUnits="userSpaceOnUse">
<stop stop-color="white"/>
<stop offset="1" stop-color="#EEEEEE"/>
</linearGradient>
<linearGradient id="paint3_linear_2933_13018" x1="336.204" y1="147.776" x2="263.927" y2="148.234" gradientUnits="userSpaceOnUse">
<stop stop-color="white"/>
<stop offset="1" stop-color="#EEEEEE"/>
</linearGradient>
<linearGradient id="paint4_linear_2933_13018" x1="300.891" y1="149.946" x2="345.253" y2="114.856" gradientUnits="userSpaceOnUse">
<stop stop-color="white"/>
<stop offset="1" stop-color="#EEEEEE"/>
</linearGradient>
<linearGradient id="paint5_linear_2933_13018" x1="123.99" y1="86.3645" x2="58.8418" y2="25.833" gradientUnits="userSpaceOnUse">
<stop stop-color="white"/>
<stop offset="1" stop-color="#EEEEEE"/>
</linearGradient>
<clipPath id="clip0_2933_13018">
<rect width="374" height="249.333" fill="white"/>
</clipPath>
</defs>
</svg>
