<svg width="336" height="233" viewBox="0 0 336 233" fill="none" xmlns="http://www.w3.org/2000/svg">
<path d="M262.032 191.685H78.4199V193.562H262.032V191.685Z" fill="#EFE6D5"/>
<path d="M268.37 192.052H68.4909L0.930176 227.935H335.93L268.37 192.052Z" fill="#003090"/>
<path d="M298.832 213.252H38.0171L70.2155 194.827H266.634L266.702 194.866L298.832 213.252ZM40.2574 212.657H296.591L266.475 195.423H70.3734L40.2574 212.657Z" fill="white"/>
<path d="M239.103 225.224H97.7539L111.181 214.247H225.676L225.759 214.314L239.103 225.224ZM99.4234 224.628H237.433L225.463 214.842H111.394L99.4234 224.628Z" fill="white"/>
<path d="M331.2 232.802H6.70611L0.930176 227.933H335.93L331.2 232.802Z" fill="black"/>
<path d="M268.368 63.9551H68.4893V192.05H268.368V63.9551Z" fill="#1B1E56"/>
<path d="M265.738 69.9141H71.0698V186.099H265.738V69.9141Z" fill="white"/>
<path d="M265.759 69.9141H71.0908V76.5009H265.759V69.9141Z" fill="white"/>
<path d="M266.208 76.9498H70.646V69.4692H266.208V76.9498ZM71.5391 76.0561H265.314V70.363H71.5391V76.0561Z" fill="#1B1E56"/>
<path d="M77.141 72.1133H74.8799V74.3744H77.141V72.1133Z" fill="#1B1E56"/>
<path d="M80.4946 72.1133H78.2334V74.3744H80.4946V72.1133Z" fill="#1B1E56"/>
<path d="M83.8451 72.1133H81.584V74.3744H83.8451V72.1133Z" fill="#1B1E56"/>
<path d="M240.539 76.5923H95.498V179.016H240.539V76.5923Z" fill="#1B1E56"/>
<path d="M238.114 79.5259H98.0186V178.822H238.114V79.5259Z" fill="white"/>
<path d="M239.261 170.712H96.8716V178.823H239.261V170.712Z" fill="#1B1E56"/>
<path d="M185.313 174.936C185.313 176.214 184.277 177.251 182.998 177.251C181.719 177.251 180.683 176.214 180.683 174.936C180.683 173.657 181.719 172.62 182.998 172.62C184.277 172.62 185.313 173.657 185.313 174.936Z" fill="#003090"/>
<path d="M194.11 174.936C194.11 176.214 193.074 177.251 191.795 177.251C190.516 177.251 189.479 176.214 189.479 174.936C189.479 173.657 190.516 172.62 191.795 172.62C193.074 172.62 194.11 173.657 194.11 174.936Z" fill="#003090"/>
<path d="M142.711 177.251C143.99 177.251 145.026 176.214 145.026 174.936C145.026 173.657 143.99 172.62 142.711 172.62C141.432 172.62 140.396 173.657 140.396 174.936C140.396 176.214 141.432 177.251 142.711 177.251Z" fill="#003090"/>
<path d="M151.512 177.251C152.79 177.251 153.827 176.214 153.827 174.936C153.827 173.657 152.79 172.62 151.512 172.62C150.233 172.62 149.196 173.657 149.196 174.936C149.196 176.214 150.233 177.251 151.512 177.251Z" fill="#003090"/>
<path d="M207.762 171.049C207.61 166.894 207.025 162.762 205.754 158.811C203.966 153.256 200.768 148.061 196.165 144.473C190.895 140.366 184.011 138.48 179.343 133.7C176.174 130.455 174.295 125.994 174.155 121.461H158.892C158.752 125.994 156.873 130.455 153.704 133.7C149.037 138.48 142.152 140.366 136.882 144.473C132.279 148.061 129.081 153.256 127.293 158.811C126.022 162.762 125.437 166.894 125.285 171.049H207.762Z" fill="#003090"/>
<path d="M208.23 171.498H124.825L124.841 171.035C125.01 166.438 125.674 162.396 126.871 158.677C128.829 152.597 132.197 147.564 136.611 144.123C138.911 142.33 141.537 140.943 144.076 139.602C147.371 137.861 150.779 136.062 153.387 133.39C156.467 130.236 158.312 125.884 158.448 121.45L158.461 121.017H174.592L174.605 121.45C174.742 125.884 176.586 130.236 179.666 133.39C182.275 136.061 185.682 137.861 188.977 139.602C191.517 140.943 194.142 142.33 196.442 144.123C200.856 147.563 204.224 152.596 206.182 158.677C207.379 162.394 208.042 166.436 208.212 171.035L208.23 171.498ZM125.754 170.604H207.301C207.109 166.28 206.464 162.464 205.333 158.95C203.43 153.04 200.166 148.157 195.894 144.828C193.656 143.084 191.066 141.715 188.561 140.392C185.204 138.619 181.734 136.786 179.027 134.015C175.894 130.805 173.977 126.416 173.731 121.911H159.323C159.077 126.416 157.161 130.806 154.027 134.015C151.32 136.786 147.85 138.62 144.494 140.392C141.989 141.716 139.399 143.084 137.161 144.828C132.888 148.158 129.624 153.041 127.722 158.95C126.59 162.465 125.945 166.281 125.754 170.604Z" fill="#1B1E56"/>
<path d="M179.348 133.701C176.179 130.456 174.3 125.995 174.16 121.463H158.896C158.756 125.996 156.877 130.456 153.708 133.701C153.4 134.018 153.058 134.291 152.73 134.584C162.255 140.79 171.452 140.752 180.326 134.584C179.998 134.291 179.656 134.018 179.348 133.701Z" fill="white"/>
<path d="M166.758 139.673H166.757C162.09 139.672 157.291 138.087 152.492 134.96L152.003 134.642L152.438 134.253C152.541 134.161 152.646 134.07 152.751 133.98C152.97 133.79 153.19 133.601 153.395 133.392C156.474 130.238 158.319 125.886 158.456 121.451L158.469 121.018H174.599L174.613 121.451C174.749 125.886 176.594 130.238 179.674 133.391C179.88 133.602 180.102 133.794 180.323 133.985C180.425 134.073 180.529 134.163 180.63 134.253L181.052 134.63L180.587 134.953C176.08 138.084 171.427 139.673 166.758 139.673ZM153.479 134.53C157.963 137.35 162.427 138.778 166.757 138.779H166.757C171.079 138.779 175.397 137.354 179.601 134.543C179.41 134.376 179.217 134.204 179.033 134.015C175.9 130.806 173.983 126.417 173.736 121.912H159.329C159.082 126.417 157.166 130.807 154.033 134.015C153.853 134.2 153.665 134.369 153.479 134.53Z" fill="#1B1E56"/>
<path d="M167.04 141.304C166.909 140.605 166.779 139.907 166.648 139.209C164.304 138.55 161.906 137.864 159.913 136.345C157.919 134.825 156.38 132.274 156.596 129.596C155.334 131.348 153.654 132.724 151.775 133.544C151.857 139.251 154.758 144.81 159.173 147.718C160.562 145.887 161.951 144.056 163.34 142.226C163.832 141.578 164.354 140.905 165.067 140.604C165.78 140.303 166.733 140.528 167.04 141.304Z" fill="#003090"/>
<path d="M159.271 148.323L158.922 148.092C154.39 145.106 151.407 139.399 151.324 133.552L151.319 133.254L151.592 133.136C153.405 132.344 155.008 131.031 156.228 129.335L157.165 128.034L157.036 129.633C156.853 131.901 158.087 134.396 160.179 135.99C162.129 137.477 164.486 138.139 166.764 138.78L167.031 138.855L167.475 141.223L166.62 141.469C166.46 141.067 166.043 140.923 165.707 140.923C165.543 140.923 165.38 140.956 165.235 141.016C164.615 141.279 164.124 141.926 163.691 142.497L159.271 148.323ZM152.224 133.83C152.391 139.137 155.044 144.276 159.068 147.11L162.979 141.956C163.455 141.329 164.047 140.548 164.887 140.193C165.349 139.997 165.911 139.983 166.361 140.13L166.255 139.564C164.072 138.949 161.641 138.228 159.637 136.7C158.047 135.489 156.43 133.389 156.162 130.851C155.043 132.122 153.703 133.137 152.224 133.83Z" fill="#1B1E56"/>
<path d="M167.012 141.283C167.142 140.585 166.641 139.911 166.771 139.213C169.115 138.554 171.513 137.868 173.507 136.349C175.5 134.829 176.624 132.227 176.408 129.55C177.67 131.302 179.765 132.729 181.644 133.549C181.563 139.256 178.662 144.815 174.247 147.723C172.858 145.892 171.469 144.061 170.079 142.231C169.588 141.583 169.065 140.91 168.353 140.609C167.641 140.307 167.318 140.507 167.012 141.283Z" fill="#003090"/>
<path d="M174.147 148.324L169.726 142.498C169.292 141.927 168.8 141.28 168.181 141.017C167.989 140.936 167.878 140.92 167.818 140.92C167.759 140.92 167.637 140.92 167.429 141.446L166.574 141.199C166.621 140.951 166.544 140.665 166.462 140.363C166.363 139.996 166.25 139.579 166.334 139.13L166.385 138.857L166.652 138.782C168.931 138.141 171.287 137.479 173.238 135.992C175.122 134.556 176.167 132.1 175.964 129.584L175.835 127.985L176.772 129.287C177.853 130.789 179.742 132.229 181.824 133.138L182.097 133.256L182.093 133.553C182.008 139.401 179.026 145.109 174.494 148.094L174.147 148.324ZM167.819 140.025C168.028 140.025 168.26 140.08 168.529 140.194C169.369 140.549 169.961 141.33 170.438 141.958L174.349 147.111C178.372 144.278 181.025 139.139 181.193 133.832C179.527 133.064 177.99 131.977 176.863 130.788C176.701 133.139 175.581 135.329 173.78 136.702C171.788 138.22 169.375 138.942 167.203 139.554C167.218 139.735 167.27 139.928 167.324 140.13C167.326 140.134 167.327 140.138 167.328 140.142C167.467 140.069 167.629 140.025 167.819 140.025Z" fill="#1B1E56"/>
<path d="M138.74 169.848C138.337 162.606 137.427 155.328 136.036 148.215L136.913 148.044C138.312 155.197 139.227 162.516 139.633 169.798L138.74 169.848Z" fill="#1B1E56"/>
<path d="M196.884 148.259C196.018 155.461 195.448 162.699 195.177 169.949L196.884 148.259Z" fill="#003090"/>
<path d="M195.617 169.964L194.724 169.93C194.995 162.695 195.571 155.386 196.434 148.203L197.322 148.31C196.461 155.469 195.887 162.754 195.617 169.964Z" fill="#1B1E56"/>
<path d="M166.113 169.705C166.004 159.029 166.004 149.307 166.113 139.982L167.006 139.993C166.898 149.311 166.898 159.026 167.006 169.696L166.113 169.705Z" fill="#1B1E56"/>
<path d="M190.873 171.495H172.876V162.01H190.873V171.495ZM173.77 170.602H189.979V162.904H173.77V170.602Z" fill="#1B1E56"/>
<path d="M117.086 148.108C116.687 147.955 116.459 147.517 116.414 147.092C116.37 146.668 116.471 146.243 116.545 145.822C116.806 144.318 116.699 142.752 116.235 141.297C116.024 140.633 115.777 139.8 116.289 139.326C116.679 138.964 117.335 139.059 117.752 139.39C118.168 139.721 118.402 140.225 118.621 140.71C119.511 142.681 120.402 144.651 121.293 146.621C121.758 147.649 122.226 148.688 122.449 149.794C122.673 150.9 122.633 152.095 122.116 153.097C121.599 154.1 120.542 154.863 119.414 154.827L117.086 148.108Z" fill="white"/>
<path d="M119.487 155.279C119.458 155.279 119.429 155.278 119.4 155.277L119.428 154.384C120.32 154.403 121.245 153.814 121.719 152.895C122.254 151.858 122.173 150.686 122.011 149.885C121.797 148.824 121.334 147.799 120.886 146.807L118.214 140.896C118.026 140.483 117.814 140.013 117.474 139.742C117.221 139.539 116.806 139.458 116.593 139.655C116.299 139.928 116.466 140.55 116.661 141.163C117.147 142.688 117.259 144.325 116.985 145.9L116.947 146.111C116.886 146.443 116.828 146.756 116.859 147.048C116.886 147.305 117.017 147.605 117.247 147.693L116.926 148.527C116.405 148.326 116.039 147.795 115.97 147.141C115.926 146.721 115.999 146.328 116.069 145.948L116.106 145.747C116.355 144.313 116.253 142.822 115.811 141.435C115.601 140.779 115.252 139.681 115.985 139C116.583 138.445 117.485 138.608 118.031 139.042C118.539 139.447 118.811 140.046 119.028 140.527L121.701 146.438C122.169 147.474 122.654 148.546 122.888 149.706C123.079 150.648 123.168 152.036 122.514 153.303C121.899 154.494 120.692 155.279 119.487 155.279Z" fill="#1B1E56"/>
<path d="M125.222 159.235C125.317 156.94 125.412 154.621 124.98 152.366C124.549 150.11 123.538 147.889 121.767 146.427C120.449 145.339 118.794 144.73 117.444 143.683C115.902 142.488 114.83 140.773 114.102 138.963C113.374 137.152 112.964 135.234 112.533 133.331C112.408 132.776 112.244 132.167 111.768 131.855C111.292 131.543 110.453 131.852 110.534 132.416C110.023 132.149 109.362 132.46 109.051 132.946C108.742 133.433 108.695 134.036 108.672 134.612C108.55 137.689 108.839 140.766 109.128 143.831C109.343 146.106 109.576 148.447 110.638 150.472C112.218 153.488 115.423 155.394 117.019 158.403C117.497 159.304 117.856 160.333 118.676 160.941C120.274 162.125 122.596 161.072 124.501 161.643L125.222 159.235Z" fill="white"/>
<path d="M124.374 162.068C123.646 161.85 122.837 161.894 121.981 161.941C120.744 162.009 119.464 162.078 118.411 161.297C117.679 160.755 117.291 159.958 116.915 159.188C116.82 158.993 116.726 158.799 116.625 158.609C115.861 157.168 114.723 156 113.519 154.765C112.313 153.528 111.067 152.248 110.243 150.677C109.126 148.546 108.892 146.062 108.685 143.871C108.399 140.838 108.104 137.703 108.228 134.592C108.253 133.954 108.309 133.281 108.676 132.704C108.989 132.213 109.602 131.828 110.208 131.871C110.292 131.725 110.415 131.597 110.574 131.496C111.011 131.217 111.603 131.211 112.014 131.479C112.672 131.91 112.859 132.737 112.971 133.231L113.053 133.596C113.444 135.334 113.849 137.132 114.517 138.794C115.313 140.773 116.391 142.299 117.718 143.328C118.335 143.806 119.014 144.186 119.732 144.589C120.518 145.029 121.332 145.485 122.053 146.08C124.195 147.849 125.066 150.427 125.42 152.279C125.864 154.598 125.765 156.963 125.669 159.251L124.776 159.213C124.87 156.976 124.966 154.664 124.543 152.446C124.217 150.739 123.421 148.368 121.484 146.769C120.825 146.225 120.082 145.809 119.296 145.368C118.581 144.967 117.841 144.553 117.171 144.034C115.717 142.906 114.545 141.255 113.689 139.127C112.993 137.399 112.581 135.565 112.181 133.792L112.099 133.428C111.988 132.938 111.852 132.441 111.524 132.226C111.409 132.151 111.193 132.161 111.053 132.25C110.998 132.285 110.973 132.318 110.977 132.35L111.1 133.212L110.329 132.809C110.046 132.663 109.62 132.885 109.43 133.184C109.182 133.573 109.142 134.089 109.12 134.628C108.999 137.678 109.291 140.784 109.574 143.787C109.773 145.896 109.999 148.287 111.034 150.261C111.798 151.718 112.944 152.895 114.159 154.141C115.354 155.367 116.59 156.636 117.415 158.191C117.52 158.388 117.619 158.592 117.719 158.797C118.062 159.502 118.387 160.168 118.942 160.579C119.738 161.168 120.804 161.112 121.932 161.048C122.827 161.001 123.753 160.949 124.63 161.211L124.374 162.068Z" fill="#1B1E56"/>
<path d="M129.964 171.05C129.047 166.715 128.445 162.276 128.203 157.801C124.305 158.258 120.379 158.35 116.471 158.073C116.308 162.396 116.327 166.728 116.499 171.05H129.964Z" fill="#003090"/>
<path d="M130.514 171.496H116.068L116.05 171.067C115.873 166.629 115.864 162.251 116.022 158.055L116.039 157.593L116.5 157.626C120.366 157.899 124.298 157.808 128.148 157.356L128.621 157.3L128.646 157.775C128.883 162.141 129.473 166.576 130.399 170.957L130.514 171.496ZM116.927 170.602H129.414C128.575 166.511 128.026 162.376 127.782 158.297C124.179 158.691 120.519 158.777 116.899 158.549C116.764 162.446 116.773 166.497 116.927 170.602Z" fill="#1B1E56"/>
<path d="M128.876 162.105H117.326V162.999H128.876V162.105Z" fill="#1B1E56"/>
<path d="M153.727 105.487C153.528 105.014 153.307 104.539 152.957 104.164C152.608 103.789 152.108 103.522 151.598 103.565C150.845 103.63 150.285 104.357 150.154 105.101C150.023 105.846 150.221 106.604 150.417 107.335C150.76 108.609 151.103 109.883 151.445 111.157C151.692 112.076 151.972 113.05 152.683 113.683C153.108 114.061 153.683 114.288 154.247 114.223C154.812 114.158 155.347 113.775 155.524 113.235L153.727 105.487Z" fill="white"/>
<path d="M154.046 114.681C153.459 114.682 152.864 114.447 152.382 114.019C151.548 113.275 151.249 112.166 151.009 111.274L149.981 107.453C149.782 106.717 149.558 105.882 149.709 105.026C149.863 104.145 150.547 103.209 151.554 103.122C152.156 103.068 152.801 103.346 153.28 103.862C153.69 104.303 153.936 104.844 154.134 105.316L153.309 105.661C153.141 105.26 152.936 104.804 152.625 104.47C152.332 104.155 151.961 103.981 151.631 104.013C151.079 104.06 150.683 104.65 150.589 105.181C150.473 105.842 150.67 106.575 150.844 107.221L151.872 111.042C152.081 111.82 152.341 112.786 152.976 113.352C153.331 113.667 153.785 113.826 154.192 113.781C154.607 113.733 154.979 113.452 155.095 113.098L155.944 113.376C155.72 114.062 155.057 114.581 154.295 114.668C154.212 114.677 154.129 114.681 154.046 114.681Z" fill="#1B1E56"/>
<path d="M180.417 105.487C180.615 105.014 180.837 104.539 181.186 104.164C181.535 103.789 182.035 103.522 182.546 103.565C183.299 103.63 183.859 104.357 183.99 105.101C184.121 105.846 183.922 106.604 183.726 107.335C183.384 108.609 183.041 109.883 182.699 111.157C182.451 112.076 182.171 113.05 181.46 113.683C181.036 114.061 180.461 114.288 179.896 114.223C179.332 114.158 178.797 113.775 178.62 113.235L180.417 105.487Z" fill="white"/>
<path d="M180.086 114.683C180.002 114.683 179.919 114.678 179.836 114.669C179.075 114.582 178.412 114.062 178.186 113.377L179.036 113.098C179.152 113.453 179.523 113.733 179.938 113.781C180.349 113.825 180.801 113.667 181.154 113.352C181.789 112.786 182.049 111.82 182.258 111.043L183.287 107.221C183.47 106.543 183.658 105.841 183.543 105.181C183.449 104.65 183.052 104.06 182.5 104.013C182.173 103.986 181.799 104.155 181.506 104.47C181.196 104.804 180.989 105.26 180.821 105.661L179.997 105.316C180.195 104.844 180.44 104.303 180.851 103.862C181.33 103.347 181.975 103.068 182.577 103.123C183.583 103.209 184.267 104.146 184.423 105.026C184.573 105.881 184.349 106.716 184.151 107.454L183.122 111.275C182.882 112.167 182.584 113.276 181.75 114.019C181.268 114.448 180.674 114.683 180.086 114.683Z" fill="#1B1E56"/>
<path d="M167.256 90.6793C161.732 90.0132 156.192 91.7434 152.639 96.2967C153.309 99.8467 152.785 105.85 152.89 109.493C153.016 113.859 153.557 117.544 155.976 121.069C157.66 123.524 159.132 125.734 161.362 127.143C162.466 127.84 163.768 128.167 165.073 128.167H169.019C170.325 128.167 171.626 127.84 172.73 127.143C174.96 125.735 176.433 123.524 178.116 121.07C180.535 117.544 181.076 113.859 181.202 109.494C181.308 105.851 181.005 99.6435 181.674 96.093C178.121 91.5391 172.78 90.0132 167.256 90.6793Z" fill="white"/>
<path d="M169.022 128.607H165.076C163.623 128.607 162.258 128.229 161.126 127.514C158.891 126.103 157.377 123.894 155.774 121.555L155.61 121.316C153.165 117.751 152.576 114.014 152.446 109.5C152.41 108.266 152.446 106.774 152.483 105.196C152.556 102.144 152.638 98.6867 152.202 96.3737L152.165 96.1753L152.288 96.0162C155.271 92.194 159.781 90.089 164.987 90.089C165.736 90.089 166.5 90.1342 167.258 90.2236C168.077 90.1271 168.895 90.0776 169.69 90.0776C174.835 90.0776 179.101 92.0605 182.029 95.8119L182.154 95.971L182.116 96.1694C181.651 98.6367 181.663 102.416 181.674 105.751C181.679 107.126 181.683 108.424 181.652 109.5C181.521 114.013 180.933 117.75 178.488 121.316L178.324 121.554C176.722 123.893 175.207 126.103 172.973 127.514C171.84 128.229 170.474 128.607 169.022 128.607ZM153.117 96.4095C153.53 98.8065 153.449 102.207 153.377 105.216C153.34 106.783 153.304 108.263 153.339 109.474C153.465 113.83 154.025 117.425 156.347 120.81L156.511 121.049C158.128 123.408 159.524 125.445 161.602 126.758C162.591 127.383 163.792 127.714 165.075 127.714H169.021C170.304 127.714 171.505 127.383 172.494 126.758C174.573 125.445 175.97 123.408 177.586 121.049L177.75 120.81C180.072 117.424 180.632 113.83 180.758 109.474C180.789 108.413 180.784 107.121 180.78 105.754C180.768 102.467 180.756 98.7529 181.2 96.2057C178.452 92.7803 174.476 90.9714 169.689 90.9714C168.913 90.9714 168.113 91.0208 167.311 91.1173L167.257 91.1239L167.204 91.1173C166.464 91.028 165.718 90.9827 164.987 90.9827C160.135 90.9821 155.927 92.9078 153.117 96.4095Z" fill="#1B1E56"/>
<path d="M155.296 91.1603C154.353 92.0409 153.412 92.9215 152.469 93.8022V97.7227H153.675C153.678 97.7018 153.678 97.681 153.682 97.6601C154.351 97.0685 155.053 96.5191 155.83 96.0806C157.249 95.2804 158.963 94.8669 160.528 95.3197C161.78 95.682 162.846 96.5644 164.119 96.8456C166.331 97.3342 168.465 95.9287 170.659 95.3632C173.663 94.5892 177.021 95.5545 179.224 97.7227H181.106V92.5515C180.405 92.1184 179.723 91.6417 179.045 91.1597L155.296 91.1603Z" fill="#1B1E56"/>
<path d="M152.079 96.7364C153.239 95.5924 154.418 94.4341 155.837 93.6339C157.256 92.8337 158.97 92.4202 160.535 92.873C161.787 93.2353 162.853 94.1177 164.127 94.3989C166.339 94.8875 168.473 93.482 170.667 92.9165C174.004 92.0561 177.792 93.33 179.932 96.0315C180.008 99.3157 180.254 102.596 180.668 105.854C181.145 105.957 181.621 106.059 182.097 106.161C183.237 101.356 183.862 96.4301 183.957 91.4931C179.635 90.0554 176.507 85.7726 172.003 85.0892C170.186 84.8133 168.335 85.1684 166.497 85.1404C164.252 85.1064 161.922 84.5124 159.813 85.284C158.452 85.7821 157.353 86.7974 156.294 87.7871C154.696 89.2802 153.098 90.7739 151.501 92.2671C150.962 92.7705 150.403 93.305 150.172 94.0057C149.955 94.6641 150.057 95.3803 150.162 96.0655C150.666 99.3759 151.171 102.686 151.676 105.996C152.382 105.821 153.089 105.646 153.796 105.471C153.199 102.073 153.165 98.5769 153.695 95.1681L152.079 96.7364Z" fill="#1B1E56"/>
<path d="M169.98 118.857C168.644 119.245 167.215 119.308 165.85 119.037C165.489 118.966 165.127 118.871 164.76 118.893C164.393 118.915 164.01 119.078 163.835 119.402C163.553 119.924 163.936 120.573 164.41 120.931C165.357 121.645 166.622 121.751 167.807 121.725C168.521 121.709 169.246 121.653 169.914 121.397C170.58 121.14 171.189 120.66 171.457 119.998C171.605 119.633 171.621 119.162 171.331 118.896C170.983 118.577 170.434 118.726 169.98 118.857Z" fill="#1B1E56"/>
<path d="M175.409 106.714C175.409 107.372 174.876 107.905 174.218 107.905C173.561 107.905 173.027 107.372 173.027 106.714V105.981C173.027 105.323 173.561 104.79 174.218 104.79C174.876 104.79 175.409 105.323 175.409 105.981V106.714Z" fill="#1B1E56"/>
<path d="M176.91 103.09C174.976 102.143 172.819 101.72 170.671 101.869L170.609 100.977C172.913 100.817 175.229 101.271 177.303 102.288L176.91 103.09Z" fill="#1B1E56"/>
<path d="M167.662 116.55C166.904 116.55 166.199 116.208 165.782 115.956C165.543 115.81 165.312 115.65 165.082 115.49C164.649 115.188 164.241 114.903 163.781 114.734L164.089 113.895C164.658 114.104 165.133 114.436 165.593 114.756C165.807 114.906 166.022 115.056 166.245 115.19C166.59 115.4 167.47 115.854 168.186 115.556C168.76 115.317 169.14 114.899 169.664 114.321C169.887 114.074 170.132 113.805 170.421 113.516L171.053 114.147C170.775 114.425 170.54 114.684 170.325 114.921C169.769 115.534 169.287 116.065 168.529 116.38C168.242 116.502 167.948 116.55 167.662 116.55Z" fill="#1B1E56"/>
<path d="M160.753 106.713C160.753 107.371 160.22 107.904 159.562 107.904C158.904 107.904 158.371 107.371 158.371 106.713V105.98C158.371 105.322 158.904 104.789 159.562 104.789C160.22 104.789 160.753 105.322 160.753 105.98V106.713Z" fill="#1B1E56"/>
<path d="M156.821 103.563L156.359 102.798C158.108 101.742 160.11 101.106 162.147 100.959L162.211 101.85C160.313 101.987 158.45 102.579 156.821 103.563Z" fill="#1B1E56"/>
<path d="M260.335 0.199219H189.637V19.958H260.335V0.199219Z" fill="#003090"/>
<path d="M196.74 9.76764C198.871 9.76764 200.599 8.03984 200.599 5.90848C200.599 3.77713 198.871 2.04932 196.74 2.04932C194.609 2.04932 192.881 3.77713 192.881 5.90848C192.881 8.03984 194.609 9.76764 196.74 9.76764Z" fill="white"/>
<path d="M196.742 10.2161C194.368 10.2161 192.436 8.2844 192.436 5.91004C192.436 3.53567 194.368 1.604 196.742 1.604C199.116 1.604 201.048 3.53567 201.048 5.91004C201.048 8.2844 199.116 10.2161 196.742 10.2161ZM196.742 2.49774C194.861 2.49774 193.33 4.02842 193.33 5.91004C193.33 7.79166 194.86 9.32233 196.742 9.32233C198.623 9.32233 200.154 7.79166 200.154 5.91004C200.154 4.02842 198.623 2.49774 196.742 2.49774Z" fill="#1B1E56"/>
<path d="M250.921 5.31445H207.39V6.20819H250.921V5.31445Z" fill="white"/>
<path d="M250.921 11.3296H207.39V12.2233H250.921V11.3296Z" fill="white"/>
<path d="M257.87 79.5361H187.172V99.2949H257.87V79.5361Z" fill="white"/>
<path d="M260.337 71.5117H189.639V91.2705H260.337V71.5117Z" fill="#003090"/>
<path d="M196.742 81.084C198.874 81.084 200.602 79.3562 200.602 77.2249C200.602 75.0935 198.874 73.3657 196.742 73.3657C194.611 73.3657 192.883 75.0935 192.883 77.2249C192.883 79.3562 194.611 81.084 196.742 81.084Z" fill="white"/>
<path d="M196.745 81.5291C194.371 81.5291 192.438 79.5974 192.438 77.223C192.438 74.8487 194.37 72.917 196.745 72.917C199.119 72.917 201.051 74.8487 201.051 77.223C201.05 79.5974 199.118 81.5291 196.745 81.5291ZM196.745 73.8107C194.863 73.8107 193.332 75.3414 193.332 77.223C193.332 79.1046 194.863 80.6353 196.745 80.6353C198.626 80.6353 200.157 79.1046 200.157 77.223C200.156 75.3414 198.626 73.8107 196.745 73.8107Z" fill="white"/>
<path d="M250.923 76.6235H207.392V77.5173H250.923V76.6235Z" fill="white"/>
<path d="M250.923 82.6421H207.392V83.5358H250.923V82.6421Z" fill="white"/>
<path d="M279.956 23.4966V42.9702H209.543V23.4966H279.956Z" fill="white" stroke="black" stroke-width="0.284826"/>
<path d="M216.504 25.3472C218.557 25.3473 220.221 27.0113 220.221 29.064C220.221 31.1165 218.556 32.7807 216.504 32.7808C214.451 32.7808 212.787 31.1166 212.787 29.064C212.787 27.0113 214.451 25.3472 216.504 25.3472Z" fill="white" stroke="black" stroke-width="0.284826"/>
<path d="M216.506 24.9023C218.801 24.9023 220.67 26.7699 220.67 29.0654C220.67 31.3612 218.801 33.2295 216.506 33.2295C214.211 33.2295 212.342 31.3611 212.342 29.0654C212.342 26.7699 214.21 24.9023 216.506 24.9023ZM216.506 25.5107C214.546 25.5107 212.951 27.1053 212.951 29.0654C212.951 31.0257 214.546 32.6201 216.506 32.6201C218.466 32.6201 220.061 31.0257 220.061 29.0654C220.061 27.1053 218.466 25.5107 216.506 25.5107Z" fill="#1B1E56" stroke="black" stroke-width="0.284826"/>
<path d="M270.542 28.6055V29.2139H227.296V28.6055H270.542Z" fill="#1B1E56" stroke="black" stroke-width="0.284826"/>
<path d="M270.542 34.6274V35.2358H227.296V34.6274H270.542Z" fill="#1B1E56" stroke="black" stroke-width="0.284826"/>
<path d="M279.955 47.2646V66.7383H209.542V47.2646H279.955Z" fill="white" stroke="black" stroke-width="0.284826"/>
<path d="M279.956 47.2266V66.7002H209.543V47.2266H279.956Z" fill="white" stroke="black" stroke-width="0.284826"/>
<path d="M216.952 50.1528C219.004 50.1529 220.668 51.817 220.668 53.8696C220.668 55.9222 219.004 57.5863 216.952 57.5864C214.899 57.5864 213.235 55.9222 213.235 53.8696C213.235 51.8169 214.899 50.1528 216.952 50.1528Z" fill="white" stroke="black" stroke-width="0.284826"/>
<path d="M216.954 49.708C219.249 49.708 221.118 51.5756 221.118 53.8711C221.118 56.1669 219.249 58.0352 216.954 58.0352C214.658 58.0352 212.79 56.1668 212.79 53.8711C212.79 51.5756 214.658 49.708 216.954 49.708ZM216.954 50.3164C214.994 50.3164 213.399 51.911 213.398 53.8711C213.398 55.8314 214.993 57.4258 216.954 57.4258C218.914 57.4258 220.509 55.8314 220.509 53.8711C220.509 51.911 218.914 50.3164 216.954 50.3164Z" fill="#1B1E56" stroke="black" stroke-width="0.284826"/>
<path d="M270.99 53.415V54.0234H227.744V53.415H270.99Z" fill="#1B1E56" stroke="black" stroke-width="0.284826"/>
<path d="M270.99 59.437V60.0454H227.744V59.437H270.99Z" fill="#1B1E56" stroke="black" stroke-width="0.284826"/>
<path d="M283.39 172.721H279.389V206.867H283.39V172.721Z" fill="white"/>
<path d="M283.834 207.312H278.94V172.272H283.834V207.312ZM279.834 206.419H282.941V173.166H279.834V206.419Z" fill="#1B1E56"/>
<path d="M308.29 207.084C306.883 206.265 305.207 206.088 303.595 205.862C300.743 205.461 293.595 204.854 290.83 204.044C288.656 203.407 286.436 202.579 284.693 201.184V193.188H277.808V201.395C276.11 202.662 274.01 203.44 271.949 204.044C269.185 204.854 262.037 205.461 259.185 205.862C257.572 206.088 255.897 206.265 254.49 207.084C253.083 207.904 252.02 208.896 252.477 210.458C259.522 209.406 270.074 208.911 277.809 207.967V209.749H284.694V207.933C292.452 208.899 303.175 209.394 310.305 210.458C310.76 208.896 309.697 207.904 308.29 207.084Z" fill="white"/>
<path d="M252.159 210.961L252.049 210.586C251.468 208.598 253.036 207.416 254.267 206.7C255.64 205.901 257.218 205.684 258.744 205.473L259.125 205.42C259.943 205.306 261.088 205.177 262.413 205.027C265.743 204.652 269.886 204.185 271.827 203.616C273.503 203.126 275.629 202.407 277.365 201.17V192.744H285.144V200.968C286.914 202.322 289.173 203.094 290.96 203.617C292.901 204.185 297.044 204.652 300.374 205.028C301.699 205.177 302.844 205.307 303.662 205.421L304.043 205.474C305.57 205.684 307.147 205.901 308.52 206.7C309.75 207.416 311.318 208.599 310.738 210.587L310.628 210.962L310.243 210.904C306.351 210.322 301.291 209.903 296.396 209.499C292.537 209.18 288.554 208.849 285.145 208.441V210.2H277.366V208.474C274.022 208.868 270.147 209.188 266.393 209.499C261.499 209.905 256.438 210.323 252.546 210.904L252.159 210.961ZM284.249 207.43L284.751 207.492C288.249 207.926 292.427 208.273 296.467 208.607C301.203 208.999 306.096 209.404 309.956 209.958C310.06 209.04 309.486 208.297 308.069 207.472C306.849 206.762 305.36 206.557 303.92 206.359L303.536 206.306C302.731 206.193 301.591 206.065 300.272 205.916C296.908 205.537 292.723 205.065 290.707 204.474C288.785 203.911 286.332 203.069 284.416 201.534L284.249 201.4V193.637H278.257V201.621L278.077 201.756C276.197 203.158 273.883 203.945 272.077 204.474C270.061 205.065 265.876 205.537 262.513 205.916C261.193 206.065 260.053 206.193 259.248 206.306L258.865 206.359C257.425 206.557 255.936 206.762 254.715 207.472C253.299 208.297 252.724 209.04 252.828 209.958C256.688 209.404 261.579 208.999 266.316 208.607C270.25 208.281 274.318 207.945 277.755 207.526L278.256 207.465V209.305H284.248L284.249 207.43Z" fill="#1B1E56"/>
<path d="M257.762 213.329C257.762 215.256 256.2 216.818 254.273 216.818C252.346 216.818 250.784 215.256 250.784 213.329C250.784 211.402 252.346 209.84 254.273 209.84C256.2 209.84 257.762 211.402 257.762 213.329Z" fill="black"/>
<path d="M256.365 213.335C256.365 214.491 255.428 215.428 254.272 215.428C253.116 215.428 252.179 214.491 252.179 213.335C252.179 212.179 253.116 211.242 254.272 211.242C255.428 211.242 256.365 212.179 256.365 213.335Z" fill="white"/>
<path d="M254.266 215.873C252.865 215.873 251.726 214.734 251.726 213.333C251.726 211.932 252.865 210.793 254.266 210.793C255.667 210.793 256.806 211.932 256.806 213.333C256.806 214.734 255.667 215.873 254.266 215.873ZM254.266 211.687C253.359 211.687 252.62 212.425 252.62 213.333C252.62 214.24 253.358 214.979 254.266 214.979C255.174 214.979 255.912 214.241 255.912 213.333C255.912 212.426 255.174 211.687 254.266 211.687Z" fill="#1B1E56"/>
<path d="M311.995 213.329C311.995 215.256 310.433 216.818 308.506 216.818C306.579 216.818 305.017 215.256 305.017 213.329C305.017 211.402 306.579 209.84 308.506 209.84C310.433 209.84 311.995 211.402 311.995 213.329Z" fill="black"/>
<path d="M310.718 213.335C310.718 214.491 309.781 215.428 308.625 215.428C307.469 215.428 306.532 214.491 306.532 213.335C306.532 212.179 307.469 211.242 308.625 211.242C309.781 211.242 310.718 212.179 310.718 213.335Z" fill="white"/>
<path d="M308.623 215.873C307.222 215.873 306.083 214.734 306.083 213.333C306.083 211.932 307.222 210.793 308.623 210.793C310.023 210.793 311.164 211.932 311.164 213.333C311.164 214.734 310.023 215.873 308.623 215.873ZM308.623 211.687C307.715 211.687 306.977 212.425 306.977 213.333C306.977 214.24 307.715 214.979 308.623 214.979C309.53 214.979 310.27 214.241 310.27 213.333C310.27 212.426 309.53 211.687 308.623 211.687Z" fill="#1B1E56"/>
<path d="M331.191 83.4327C329.84 79.5628 325.793 77.0943 321.72 76.6325C317.78 76.1863 313.678 77.3875 310.608 79.8965C307.539 82.4055 305.544 86.1926 305.224 90.1441C304.99 93.0291 305.836 96.2793 308.305 97.7915C310.082 98.8801 312.302 98.8479 314.384 98.7591C317.302 98.6346 320.218 98.4654 323.131 98.2521C324.992 98.1156 326.958 97.9226 328.461 96.8179C330.385 95.4034 331.064 92.8658 331.432 90.5063C331.8 88.151 331.976 85.6837 331.191 83.4327Z" fill="black"/>
<path d="M320.427 91.4265C322.464 90.0299 323.946 87.8438 324.488 85.4331C324.836 83.8887 324.783 82.1829 323.957 80.8327C322.959 79.2025 321.009 78.3749 319.111 78.1467C315.333 77.6933 311.37 79.3664 309.059 82.3902C306.748 85.414 306.176 89.6783 307.608 93.2044C311.99 93.7198 316.787 93.9212 320.427 91.4265Z" fill="#1B1E56"/>
<path d="M298.421 104.616C295.077 113.179 295.116 123.023 290.312 130.861C286.261 137.473 279 142.22 276.987 149.708C276.372 151.992 276.326 154.52 277.383 156.636C278.449 158.769 280.481 160.231 282.5 161.499C285.776 163.557 289.227 165.339 292.802 166.818C294.68 167.594 296.688 168.3 298.7 168.025C302.008 167.574 304.362 164.673 306.27 161.933C319.933 142.311 329.095 118.732 327.646 94.867C323.935 95.6094 320.112 94.9093 316.352 94.4911C312.591 94.0728 308.58 93.9858 305.257 95.7959C301.924 97.6138 299.804 101.078 298.421 104.616Z" fill="#1B1E56"/>
<path d="M251.125 175.422C251.06 174.43 251.709 173.498 252.541 172.955C253.375 172.412 254.371 172.189 255.347 171.998C272.018 168.729 289.551 172.07 306.06 168.062C306.462 171.328 304.248 174.481 301.401 176.133C298.554 177.784 295.182 178.226 291.903 178.513C283.182 179.279 274.411 179.192 265.657 179.104C262.093 179.068 258.507 179.031 255.004 178.369C253.281 178.043 251.24 177.172 251.125 175.422Z" fill="white"/>
<path d="M274.063 179.607C271.258 179.607 268.41 179.578 265.655 179.551C262.124 179.515 258.473 179.478 254.923 178.808C253.698 178.576 250.833 177.786 250.681 175.452C250.61 174.377 251.23 173.278 252.3 172.582C253.194 171.999 254.212 171.766 255.263 171.559C263.197 170.004 271.436 169.937 279.404 169.872C288.209 169.8 297.315 169.726 305.957 167.627L306.445 167.509L306.505 168.007C306.957 171.671 304.381 174.922 301.627 176.519C298.647 178.247 295.066 178.685 291.944 178.958C285.397 179.534 278.949 179.607 274.063 179.607ZM305.659 168.617C297.069 170.622 288.096 170.695 279.41 170.766C271.483 170.83 263.287 170.897 255.434 172.437C254.473 172.625 253.547 172.835 252.787 173.331C252.001 173.842 251.524 174.653 251.572 175.394C251.687 177.152 254.293 177.78 255.089 177.93C258.561 178.586 262.172 178.622 265.664 178.658C268.416 178.685 271.262 178.714 274.063 178.714C278.93 178.714 285.352 178.641 291.867 178.069C294.893 177.803 298.358 177.383 301.179 175.747C303.549 174.372 305.779 171.672 305.659 168.617Z" fill="#1B1E56"/>
<path d="M317.189 119.146C316.294 126.244 312.445 132.595 308.407 138.5C304.369 144.405 299.984 150.241 297.754 157.038C296.995 159.352 296.496 161.829 296.959 164.22C297.422 166.61 299.014 168.896 301.337 169.628C303.397 170.276 305.696 169.612 307.459 168.366C309.224 167.12 310.543 165.353 311.771 163.577C323.061 147.255 329.149 127.767 331.813 108.102C332.373 103.972 332.621 99.2653 329.824 96.1741C328.873 95.1219 327.567 94.3336 326.152 94.2365C324.362 94.1132 322.655 95.0969 321.399 96.3773C318.63 99.2015 317.661 103.341 317.454 107.29C317.248 111.241 317.683 115.222 317.189 119.146Z" fill="black"/>
<path d="M303.489 166.244C301.286 166.244 299.332 164.471 298.606 162.53C297.894 160.628 297.967 158.355 298.83 155.583C300.541 150.082 304.151 145.442 307.642 140.956C310.506 137.275 313.467 133.47 315.37 129.204C317.579 124.253 318.532 118.418 318.284 111.365C318.267 110.862 318.243 110.357 318.22 109.851C318.087 106.944 317.949 103.938 318.854 101.128C319.879 97.9414 322.92 94.7228 326.556 95.0386C326.72 95.0529 326.842 95.1971 326.827 95.3615C326.813 95.5254 326.667 95.6523 326.505 95.632C323.179 95.3454 320.377 98.3424 319.421 101.311C318.548 104.018 318.684 106.97 318.815 109.824C318.838 110.332 318.861 110.839 318.879 111.345C319.131 118.49 318.16 124.412 315.914 129.449C313.981 133.78 310.997 137.614 308.111 141.323C304.653 145.767 301.078 150.363 299.398 155.761C298.576 158.402 298.499 160.548 299.163 162.323C299.886 164.254 301.945 166.007 304.14 165.589C304.298 165.557 304.457 165.664 304.487 165.826C304.518 165.987 304.412 166.143 304.25 166.174C303.995 166.221 303.74 166.244 303.489 166.244Z" fill="#1B1E56"/>
<path d="M327.294 114.87C324.343 114.87 321.376 114.428 318.574 113.561C318.417 113.513 318.328 113.346 318.377 113.189C318.426 113.031 318.592 112.942 318.75 112.992C322.43 114.13 326.401 114.522 330.233 114.123C330.395 114.105 330.543 114.225 330.56 114.388C330.577 114.552 330.458 114.698 330.295 114.715C329.301 114.819 328.299 114.87 327.294 114.87Z" fill="#1B1E56"/>
<path d="M324.996 130.471C321.966 130.471 318.909 129.884 316.105 128.759C315.952 128.698 315.878 128.525 315.939 128.373C316 128.22 316.176 128.146 316.326 128.207C319.304 129.401 322.573 129.978 325.781 129.861C325.947 129.856 326.084 129.984 326.09 130.148C326.095 130.313 325.966 130.451 325.802 130.457C325.534 130.467 325.265 130.471 324.996 130.471Z" fill="#1B1E56"/>
<path d="M319.29 144.393C319.24 144.393 319.189 144.38 319.143 144.354C315.922 142.523 312.435 141.293 308.779 140.699C308.617 140.672 308.506 140.519 308.533 140.357C308.558 140.195 308.714 140.084 308.874 140.111C312.601 140.716 316.155 141.97 319.436 143.836C319.579 143.918 319.629 144.099 319.548 144.243C319.494 144.338 319.394 144.393 319.29 144.393Z" fill="#1B1E56"/>
<path d="M313.888 155.671C313.85 155.671 313.811 155.664 313.774 155.648C309.648 153.937 305.37 152.472 301.057 151.293C300.897 151.25 300.804 151.086 300.847 150.927C300.89 150.769 301.055 150.676 301.213 150.718C305.55 151.904 309.853 153.377 314.002 155.098C314.154 155.161 314.226 155.335 314.163 155.487C314.116 155.602 314.005 155.671 313.888 155.671Z" fill="#1B1E56"/>
<path d="M282.943 163.511C277.842 163.82 272.797 162.501 267.706 162.066C262.615 161.632 257.025 162.268 253.301 165.768C252.058 166.936 251.063 168.425 250.731 170.098C250.399 171.771 250.8 173.633 251.992 174.853C253.692 176.591 256.419 176.659 258.85 176.612C268.938 176.416 279.026 176.22 289.114 176.024C291.612 175.976 294.139 175.923 296.548 175.263C298.957 174.603 301.274 173.26 302.599 171.142C303.924 169.025 304.041 166.062 302.468 164.122C300.917 162.21 298.211 161.693 295.749 161.744C291.437 161.833 287.249 163.25 282.943 163.511Z" fill="black"/>
<path d="M251.512 174.646C251.39 174.646 251.276 174.571 251.232 174.451C250.199 171.624 251.507 168.597 254.916 165.925C258.016 163.496 261.98 163.122 264.771 163.234C267.449 163.343 270.11 163.903 272.684 164.445C273.419 164.601 274.154 164.755 274.89 164.901C277.944 165.502 281.524 166.022 284.916 165.324C286.275 165.043 287.615 164.565 288.911 164.103C290.058 163.694 291.242 163.272 292.45 162.98C294.301 162.533 297.776 162.096 300.238 164.189C300.364 164.295 300.379 164.483 300.273 164.608C300.167 164.734 299.979 164.749 299.853 164.643C298.2 163.238 295.552 162.843 292.59 163.559C291.412 163.844 290.243 164.261 289.111 164.664C287.796 165.133 286.435 165.618 285.036 165.906C281.541 166.627 277.887 166.097 274.774 165.485C274.036 165.34 273.298 165.184 272.561 165.028C270.012 164.491 267.375 163.935 264.746 163.829C262.058 163.718 258.24 164.076 255.283 166.394C253.026 168.162 250.589 170.958 251.791 174.245C251.847 174.4 251.767 174.571 251.613 174.628C251.581 174.641 251.546 174.646 251.512 174.646Z" fill="#1B1E56"/>
<path d="M213.403 196.095C214.43 192.865 216.374 189.943 218.903 187.829C215.618 187.011 212.504 185.52 209.774 183.459C208.116 186.414 206.132 189.248 203.766 191.961C206.377 194.468 209.835 195.951 213.403 196.095Z" fill="#EFE6D5"/>
<path d="M215.852 193.958C215.707 192.877 214.34 192.391 213.271 192.603C212.201 192.815 211.266 193.468 210.211 193.743C208.14 194.283 205.761 193.109 204.929 191.137C204.672 190.526 204.518 189.813 203.984 189.42C203.511 189.071 202.851 189.08 202.295 189.271C201.739 189.462 201.253 189.81 200.748 190.111C199.144 191.068 197.276 191.574 195.409 191.558C194.164 191.547 192.853 191.321 191.719 191.835C190.312 192.472 189.602 194.069 189.328 195.589C190.034 195.832 190.74 196.075 191.446 196.318L213.805 202.384C215.035 200.582 215.773 198.449 215.921 196.272C215.96 195.681 216.224 194.419 215.852 193.958Z" fill="white"/>
<path d="M276.94 159.54C279.315 157.592 280.049 154.221 280.717 151.439C281.344 148.827 281.642 145.968 280.562 143.509C279.404 140.874 276.69 139.194 273.894 138.512C271.097 137.829 267.474 137.514 264.603 137.301C256.401 136.693 249.84 135.188 240.048 135.737C236.93 135.911 233.826 135.645 231.088 137.148C228.036 138.826 226.726 142.442 225.567 145.726C221.224 158.032 212.263 176.807 205.492 187.962C206.676 190.36 208.6 191.401 210.503 192.114C212.404 192.826 218.326 192.858 220.186 192.041C222.676 190.947 221.433 190.822 223.001 188.6C226.828 183.178 234.028 170.183 236.578 163.965C237.689 161.257 237.667 157.835 240.361 156.694C242.577 155.757 246.616 157.255 249.432 157.946C256.377 159.65 260.444 160.014 267.538 160.907C270.766 161.312 274.424 161.602 276.94 159.54Z" fill="#1B1E56"/>
<path d="M205.871 188.192L205.106 187.728C211.902 176.534 220.889 157.625 225.142 145.575C226.249 142.439 227.626 138.537 230.87 136.754C233.158 135.498 235.709 135.426 238.177 135.357C238.789 135.34 239.405 135.322 240.02 135.288C246.823 134.907 252.184 135.524 257.369 136.12C259.698 136.388 262.106 136.665 264.632 136.852C267.728 137.082 271.262 137.407 273.996 138.074L273.784 138.943C271.114 138.291 267.625 137.971 264.566 137.744C262.021 137.555 259.604 137.277 257.266 137.009C251.882 136.388 246.794 135.804 240.069 136.18C239.446 136.215 238.822 136.233 238.202 136.25C235.731 136.319 233.398 136.385 231.3 137.537C228.354 139.156 227.095 142.724 225.984 145.872C221.716 157.969 212.692 176.954 205.871 188.192Z" fill="white"/>
<path d="M214.79 201.406C214.764 201.406 214.738 201.402 214.712 201.395L190.392 194.826C190.233 194.784 190.139 194.619 190.182 194.461C190.225 194.302 190.388 194.209 190.548 194.251L214.867 200.82C215.026 200.862 215.12 201.027 215.077 201.185C215.042 201.318 214.922 201.406 214.79 201.406Z" fill="#1B1E56"/>
<path d="M231.4 215.359C231.538 211.972 232.643 208.64 234.524 205.934C231.14 206.012 227.743 205.396 224.566 204.128C223.746 207.416 222.58 210.672 221.013 213.913C224.194 215.643 227.92 216.161 231.4 215.359Z" fill="#EFE6D5"/>
<path d="M233.192 212.65C232.767 211.646 231.321 211.537 230.345 212.024C229.369 212.51 228.64 213.386 227.694 213.93C225.84 214.998 223.234 214.493 221.913 212.809C221.503 212.288 221.167 211.642 220.548 211.403C219.999 211.191 219.365 211.373 218.879 211.705C218.393 212.035 218.016 212.5 217.608 212.923C216.314 214.269 214.645 215.25 212.841 215.727C211.636 216.045 210.312 216.173 209.354 216.968C208.164 217.953 207.901 219.682 208.038 221.22C208.783 221.268 209.528 221.316 210.273 221.364L233.44 221.317C234.151 219.254 234.301 217.001 233.868 214.863C233.752 214.283 233.673 212.996 233.192 212.65Z" fill="white"/>
<path d="M294.969 154.361C295.765 152.189 296.392 149.812 295.765 147.585C294.942 144.662 292.075 142.681 289.111 142.023C286.146 141.366 283.061 141.789 280.054 142.215C273.503 143.144 266.951 144.073 260.399 145.001C255.677 145.67 250.955 146.34 246.233 147.009C244.873 147.202 243.483 147.404 242.264 148.036C238.794 149.836 237.891 154.287 237.27 158.146C235.043 172.003 227.065 197.97 222.16 211.119C225.12 213.23 228.609 214.594 232.216 215.052C233.311 215.191 234.489 215.232 235.447 214.683C236.808 213.901 237.294 212.21 237.682 210.689C239.962 201.755 249.14 183.112 251.113 172.255C251.531 169.953 253.159 167.88 255.147 166.647C257.068 165.455 259.464 165.422 261.725 165.426C266.636 165.434 271.546 165.442 276.457 165.451C280.947 165.458 285.774 165.362 289.409 162.725C292.158 160.729 293.799 157.552 294.969 154.361Z" fill="#1B1E56"/>
<path d="M222.577 211.278L221.739 210.966C226.47 198.287 234.563 172.157 236.827 158.078C237.513 153.814 238.482 149.496 242.057 147.642C243.356 146.968 244.851 146.756 246.168 146.57L279.99 141.775L280.115 142.659L246.294 147.454C244.985 147.639 243.632 147.831 242.468 148.435C239.262 150.097 238.359 154.18 237.709 158.219C235.437 172.356 227.319 198.565 222.577 211.278Z" fill="white"/>
<path d="M233.872 220.17H233.871L208.925 220.091C208.761 220.091 208.628 219.957 208.628 219.792C208.629 219.628 208.762 219.496 208.926 219.496H208.928L233.873 219.574C234.037 219.575 234.17 219.709 234.17 219.873C234.169 220.037 234.036 220.17 233.872 220.17Z" fill="#1B1E56"/>
<path d="M306.886 99.1734C307.484 98.1343 307.257 96.8401 307.086 95.6533C306.566 92.0443 307.926 85.1548 308.784 81.6108C305.852 82.4301 300.221 85.6619 297.211 85.2078C296.507 90.2908 295.96 93.6531 292.753 98.5019C292.988 102.803 300.686 102.557 304.796 100.776C305.615 100.42 306.44 99.948 306.886 99.1734Z" fill="white"/>
<path d="M298.647 102.433C294.752 102.433 292.442 101.009 292.306 98.5278L292.297 98.38L292.379 98.2573C295.482 93.5646 296.042 90.3775 296.766 85.1485L296.828 84.7005L297.275 84.7678C297.444 84.7934 297.631 84.8059 297.828 84.8059C299.75 84.8059 302.545 83.6244 305.011 82.5823C306.377 82.005 307.666 81.4604 308.662 81.1815L309.396 80.9766L309.216 81.7172C308.149 86.1209 307.067 92.3962 307.527 95.5904L307.552 95.7632C307.723 96.9399 307.918 98.274 307.272 99.3971C306.733 100.333 305.759 100.845 304.971 101.186C303.172 101.968 300.807 102.433 298.647 102.433ZM293.21 98.6219C293.478 101.252 297.087 101.54 298.646 101.54C298.646 101.54 298.647 101.54 298.648 101.54C300.692 101.54 302.923 101.101 304.618 100.367C305.279 100.081 306.091 99.6605 306.498 98.952C306.99 98.097 306.827 96.9769 306.669 95.8931L306.644 95.7185C306.095 91.9118 307.56 84.9209 308.168 82.2778C307.347 82.5656 306.375 82.9767 305.36 83.4057C302.817 84.4812 299.933 85.6997 297.83 85.6997C297.75 85.6997 297.671 85.6979 297.593 85.6943C296.904 90.6164 296.253 93.9769 293.21 98.6219Z" fill="#1B1E56"/>
<path d="M293.968 75.6613C291.411 79.3923 291.481 81.4652 291.964 87.8912C292.026 88.7176 293.707 89.8115 294.405 90.2584C294.907 90.5801 295.508 90.7124 296.101 90.7696C298.618 91.0121 304.608 89.4802 306.888 83.9528C307.852 81.6153 308.467 84.7923 309.508 82.4882C310.846 79.5246 312.574 74.3957 311.121 71.4863C310.061 69.3628 301.85 68.2146 299.495 67.9227C297.14 67.6307 295.902 70.5485 294.52 72.4831C293.594 73.7808 294.87 74.3457 293.968 75.6613Z" fill="white"/>
<path d="M296.641 91.2433C296.432 91.2433 296.237 91.2344 296.059 91.2171C295.264 91.1402 294.661 90.9561 294.164 90.6373C292.969 89.8729 291.59 88.8737 291.518 87.9269C291.02 81.2972 290.992 79.2166 293.599 75.411C293.942 74.9099 293.882 74.5947 293.798 74.1586C293.7 73.6575 293.58 73.0337 294.157 72.2251C294.424 71.8528 294.685 71.4428 294.949 71.0263C296.081 69.2478 297.389 67.2148 299.551 67.4812C303.56 67.9787 310.447 69.134 311.522 71.2885C313.198 74.6454 310.958 80.3689 309.916 82.6735C309.692 83.1693 309.319 83.8277 308.663 83.8277C308.382 83.8277 308.149 83.7037 307.96 83.6048C307.869 83.5566 307.744 83.4904 307.694 83.4904C307.694 83.4904 307.538 83.553 307.303 84.1256C305.147 89.3474 299.746 91.2433 296.641 91.2433ZM299.172 68.3517C297.711 68.3517 296.69 69.9556 295.703 71.5066C295.429 71.9368 295.16 72.3598 294.885 72.7453C294.53 73.241 294.592 73.555 294.675 73.9894C294.771 74.4869 294.891 75.1072 294.337 75.9157C291.892 79.4841 291.919 81.3377 292.41 87.8596C292.424 88.0467 292.671 88.6193 294.647 89.8836C295.021 90.1231 295.497 90.2638 296.146 90.3263C296.298 90.3406 296.463 90.3484 296.641 90.3484C299.506 90.349 304.49 88.6002 306.477 83.7836C306.705 83.2306 307.05 82.5955 307.695 82.5955C307.966 82.5955 308.195 82.7164 308.379 82.8142C308.479 82.8672 308.604 82.9333 308.664 82.9333C308.704 82.9333 308.871 82.8177 309.102 82.3053C309.874 80.5977 312.27 74.7854 310.723 71.6871C310.102 70.4436 305.674 69.1412 299.441 68.3678C299.349 68.357 299.26 68.3517 299.172 68.3517Z" fill="#1B1E56"/>
<path d="M305.46 85.5568C304.118 86.702 302.307 87.2794 300.551 87.1203C299.75 87.0482 298.919 86.8021 298.382 86.2039C297.854 85.6158 297.698 84.7954 297.387 84.069C297.039 83.2528 296.458 82.5562 295.746 82.0295C294.387 82.1886 292.733 82.1189 292.758 80.9672C292.391 80.9535 292.022 80.9761 291.659 81.0482C290.93 83.0865 290.723 85.4704 290.032 87.4396C289.749 88.247 292.154 89.2158 292.843 89.7234C293.754 90.3949 294.838 90.8317 295.962 90.9639C297.495 91.1439 299.047 90.7608 300.465 90.1536C302.15 89.4327 303.702 88.3864 304.948 87.044C305.329 86.6353 305.701 86.0603 305.46 85.5568Z" fill="#1B1E56"/>
<path d="M297.702 66.416C297.54 66.4393 297.379 66.4619 297.218 66.4851L297.702 66.416Z" fill="black"/>
<path d="M313.114 72.5524C312.657 72.0466 313.057 70.2519 312.631 69.7193C310.696 67.3008 306.351 66.1503 304.312 65.8095C302.604 65.5241 300.854 65.7427 299.141 65.9989C298.079 66.158 296.962 66.3576 296.145 67.0536C295.328 67.7501 294.984 69.1163 295.718 69.901C296.884 70.9455 298.471 71.5056 300.035 71.4263C301.065 71.3739 302.122 71.0611 303.105 71.3727C303.954 71.642 305.598 72.1705 305.999 72.9665C306.399 73.7625 307.038 75.1175 306.69 75.9373C303.926 82.4324 306.603 83.9047 307.174 86.7158C311.145 84.1073 315.321 78.8628 314.359 74.2094C314.179 73.3455 313.707 73.2078 313.114 72.5524Z" fill="#1B1E56"/>
<path d="M305.369 79.0785C306.043 79.113 306.889 79.1095 307.373 78.7627C307.856 78.4159 308.372 78.0036 308.966 78.0471C309.553 78.09 310.031 78.6036 310.174 79.175C310.317 79.7464 310.181 80.3542 309.951 80.8964C309.403 82.1863 308.304 83.2308 306.989 83.7128C306.664 83.832 306.317 83.919 305.973 83.8796C305.629 83.8409 305.287 83.6568 305.13 83.3482L305.369 79.0785Z" fill="white"/>
<path d="M306.144 84.3384C306.072 84.3384 305.998 84.3349 305.925 84.3265C305.401 84.2669 304.944 83.9708 304.733 83.5531L305.53 83.1486C305.606 83.2993 305.801 83.4125 306.025 83.4381C306.243 83.462 306.504 83.4179 306.837 83.2957C308.032 82.8578 309.043 81.8961 309.541 80.7236C309.775 80.1718 309.843 79.688 309.742 79.2858C309.635 78.8604 309.288 78.5202 308.935 78.4946C308.554 78.4666 308.14 78.7615 307.746 79.0475L307.635 79.1279C307.038 79.5551 306.096 79.5653 305.347 79.5265L305.392 78.634C305.751 78.6519 306.696 78.7013 307.114 78.401L307.222 78.3236C307.722 77.9613 308.297 77.5538 309 77.6032C309.744 77.6574 310.406 78.2598 310.609 79.0684C310.758 79.6636 310.676 80.3375 310.364 81.0727C309.771 82.4687 308.567 83.6133 307.144 84.1347C306.895 84.2264 306.538 84.3384 306.144 84.3384Z" fill="#1B1E56"/>
<path d="M292.29 76.5919C292.514 76.8422 292.853 76.9488 293.178 77.0334C293.521 77.1222 293.888 77.1973 294.225 77.0841C294.62 76.9506 294.886 76.5865 295.097 76.2273C295.459 75.6106 295.742 74.8533 295.465 74.1937C295.248 73.6777 294.701 73.3351 294.142 73.3089C293.583 73.2827 293.03 73.549 292.655 73.9649C292.279 74.3802 292.074 74.9319 292.021 75.4896C291.985 75.8769 292.031 76.3011 292.29 76.5919Z" fill="white"/>
<path d="M293.853 77.5869C293.577 77.5869 293.313 77.5279 293.069 77.4647C292.694 77.3676 292.268 77.2353 291.959 76.888C291.654 76.5454 291.522 76.0473 291.578 75.4467C291.642 74.7591 291.908 74.1263 292.324 73.6639C292.78 73.1599 293.431 72.8584 294.068 72.8584L294.164 72.8608C294.914 72.8959 295.603 73.3613 295.878 74.0191C296.165 74.7001 296.033 75.5188 295.484 76.4518C295.253 76.8451 294.917 77.3205 294.37 77.5058C294.21 77.5601 294.036 77.5869 293.853 77.5869ZM294.117 73.7539C293.677 73.7539 293.275 73.9446 292.987 74.2628C292.699 74.5827 292.514 75.0326 292.468 75.5295C292.445 75.7714 292.454 76.1003 292.626 76.2927C292.769 76.453 293.045 76.5346 293.293 76.599C293.574 76.6717 293.882 76.7277 294.084 76.6586C294.351 76.568 294.56 76.2588 294.714 75.999C295.112 75.3221 295.226 74.7728 295.054 74.3652C294.911 74.0238 294.528 73.7724 294.122 73.7533C294.121 73.7539 294.119 73.7539 294.117 73.7539Z" fill="#1B1E56"/>
<path d="M302.359 77.2897C302.455 77.0687 302.552 76.8166 302.456 76.5956C302.368 76.3936 302.15 76.2876 301.948 76.1988C301.187 75.8633 300.427 75.5285 299.665 75.193C299.172 74.9761 298.594 74.7604 298.118 75.0125C297.789 75.1871 297.605 75.5416 297.44 75.8752C297.114 76.5336 296.786 77.313 297.111 77.972C297.331 78.4194 297.8 78.6816 298.243 78.9098C298.971 79.284 299.798 79.6504 300.581 79.4138C301.496 79.1386 301.979 78.1662 302.359 77.2897Z" fill="white"/>
<path d="M300.061 79.933C299.359 79.933 298.676 79.6309 298.041 79.305C297.52 79.0369 296.989 78.7288 296.712 78.167C296.261 77.253 296.768 76.2264 297.041 75.6752C297.2 75.3523 297.441 74.8649 297.91 74.6158C298.118 74.5056 298.351 74.4502 298.603 74.4502C299.034 74.4502 299.455 74.6099 299.847 74.7821L302.129 75.7878C302.345 75.8832 302.706 76.0422 302.867 76.4164C303.045 76.8287 302.867 77.2428 302.771 77.4651C302.347 78.4416 301.804 79.5105 300.712 79.84C300.506 79.9014 300.287 79.933 300.061 79.933ZM298.604 75.3433C298.497 75.3433 298.408 75.3636 298.33 75.4053C298.131 75.5108 297.992 75.7688 297.843 76.0708C297.56 76.6428 297.279 77.2935 297.514 77.7719C297.671 78.0901 298.046 78.3028 298.45 78.5101C299.131 78.8599 299.874 79.1572 300.454 78.9832C301.18 78.7646 301.608 77.9012 301.951 77.1094C302.057 76.8651 302.057 76.7918 302.047 76.7703C302.032 76.7358 301.939 76.6804 301.769 76.6059L299.487 75.599C299.185 75.4661 298.869 75.3433 298.604 75.3433Z" fill="#1B1E56"/>
<path d="M295.61 74.5435C296.256 74.8503 296.9 75.1566 297.546 75.4634L295.61 74.5435Z" fill="white"/>
<path d="M295.797 74.1445L295.414 74.9517L297.349 75.8719L297.733 75.0648L295.797 74.1445Z" fill="#1B1E56"/>
<path d="M302.538 77.1309C303.583 77.7714 304.631 78.4149 305.639 78.9934L302.538 77.1309Z" fill="white"/>
<path d="M305.421 79.3757C304.448 78.818 303.424 78.1906 302.434 77.584L302.308 77.5072L302.774 76.7451L302.9 76.8226C303.885 77.4255 304.903 78.0494 305.865 78.6011L305.421 79.3757Z" fill="#1B1E56"/>
<path d="M293.665 83.0298C294.317 83.3372 294.982 83.6792 295.418 84.2536C295.773 84.7231 295.902 85.3422 295.845 85.9469C295.789 86.5386 295.581 87.1088 295.292 87.6278C295.105 87.9638 294.881 88.2879 294.579 88.5257C294.276 88.7634 294.101 88.6335 293.72 88.5769C293.158 88.4935 292.775 88.4578 292.735 87.8911C292.699 87.3954 293.18 86.4778 292.558 86.2705C292.402 86.0834 292.15 85.9374 291.997 86.1263C291.844 86.3152 291.797 86.566 291.701 86.7894C291.604 87.0129 291.499 86.9628 291.256 86.9485C291.473 85.7885 291.79 85.1521 292.006 83.992C292.059 83.7084 291.933 83.1525 292.144 82.9559C292.342 82.7712 292.636 82.72 292.903 82.7587C293.171 82.7974 293.42 82.9142 293.665 83.0298Z" fill="white"/>
<path d="M294.223 89.1112C294.09 89.1112 293.971 89.085 293.856 89.0594C293.795 89.0463 293.728 89.0308 293.652 89.0195C293.07 88.9343 292.351 88.8288 292.287 87.9238C292.272 87.7105 292.318 87.4793 292.362 87.2564C292.396 87.0872 292.458 86.7714 292.418 86.6868L292.296 86.6463L292.247 86.5945C292.233 86.6344 292.218 86.6767 292.203 86.7196C292.174 86.803 292.144 86.8864 292.11 86.9669C291.982 87.2624 291.767 87.4114 291.469 87.4114C291.423 87.4114 291.373 87.4078 291.314 87.4024L290.722 87.3649L290.815 86.8674C290.928 86.2644 291.067 85.7967 291.201 85.3438C291.335 84.8934 291.462 84.468 291.565 83.9109C291.575 83.859 291.572 83.7369 291.57 83.6392C291.563 83.3079 291.554 82.8962 291.838 82.6305C292.115 82.3713 292.545 82.2581 292.966 82.317C293.302 82.3653 293.596 82.5035 293.855 82.6257C294.554 82.9546 295.278 83.3311 295.772 83.9836C296.177 84.5174 296.36 85.2294 296.289 85.9891C296.231 86.6016 296.027 87.2261 295.682 87.8457C295.519 88.1371 295.257 88.5613 294.853 88.8777C294.652 89.035 294.447 89.1112 294.223 89.1112ZM292.815 85.8944C293.481 86.2042 293.324 86.9949 293.238 87.4304C293.207 87.5883 293.172 87.7665 293.178 87.8606C293.19 88.034 293.191 88.0483 293.723 88.1263L293.783 88.1353C293.882 88.1496 293.969 88.1687 294.048 88.1859C294.12 88.202 294.187 88.2169 294.223 88.2169C294.229 88.2169 294.246 88.2169 294.3 88.1746C294.511 88.0096 294.701 87.7665 294.899 87.4102C295.184 86.8995 295.352 86.3931 295.398 85.9051C295.448 85.3689 295.328 84.8779 295.059 84.5234C294.687 84.0318 294.096 83.728 293.473 83.4342C293.251 83.3294 293.042 83.231 292.839 83.2013C292.683 83.1792 292.525 83.2102 292.448 83.2829C292.457 83.3008 292.461 83.5004 292.463 83.6189C292.467 83.7726 292.47 83.9311 292.443 84.0747C292.331 84.6777 292.192 85.1454 292.058 85.5983C292.057 85.5995 292.057 85.6006 292.057 85.6018C292.373 85.547 292.666 85.7466 292.815 85.8944Z" fill="#1B1E56"/>
<path d="M291.834 85.3325C292.395 85.8116 293.023 86.2108 293.695 86.5146L291.834 85.3325Z" fill="white"/>
<path d="M293.509 86.9205C292.798 86.5988 292.135 86.1787 291.541 85.6711L292.122 84.9912C292.652 85.444 293.243 85.8194 293.877 86.106L293.509 86.9205Z" fill="#1B1E56"/>
<path d="M234.217 111.26C235.522 111.808 236.965 111.894 238.36 112.13C240.183 112.438 241.96 113.014 243.617 113.833C243.345 113.141 243.755 112.381 244.187 111.776C244.619 111.172 245.115 110.509 245.027 109.771C244.958 109.19 244.54 108.723 244.171 108.269C242.394 106.089 241.35 103.321 241.243 100.51C241.229 100.138 241.283 99.3808 241.103 99.0555C240.922 98.7302 240.411 98.4829 240.086 98.6646C239.796 98.8273 239.38 99.6632 239.343 99.9939C239.227 101.054 239.484 102.049 239.367 103.109C237.078 102.409 234.789 101.71 232.499 101.011C232.117 100.894 231.71 100.776 231.322 100.873C230.933 100.969 230.59 101.367 230.705 101.751C229.764 101.637 229.405 101.422 228.962 101.813C228.52 102.203 228.626 102.797 229.018 103.238C228.436 103.969 228.542 104.668 229.373 105.097C229.106 105.159 229.128 106.02 229.171 106.289C229.215 106.559 229.388 106.788 229.556 107.004C230.861 108.686 232.254 110.437 234.217 111.26Z" fill="white"/>
<path d="M243.615 114.127C243.57 114.127 243.525 114.116 243.482 114.096C241.847 113.288 240.107 112.724 238.308 112.42C237.968 112.362 237.626 112.313 237.283 112.265C236.219 112.114 235.119 111.959 234.099 111.531C232.013 110.656 230.518 108.73 229.318 107.182C229.145 106.959 228.931 106.683 228.874 106.332C228.873 106.322 228.77 105.63 228.938 105.175C228.565 104.903 228.426 104.595 228.377 104.367C228.301 104.009 228.392 103.623 228.643 103.241C228.452 102.961 228.358 102.655 228.376 102.36C228.394 102.06 228.528 101.792 228.764 101.586C229.141 101.253 229.547 101.256 230.157 101.362C230.233 101.376 230.316 101.39 230.404 101.405C230.425 101.313 230.46 101.223 230.509 101.137C230.665 100.865 230.941 100.657 231.248 100.58C231.657 100.479 232.114 100.579 232.584 100.723L239.095 102.712C239.108 102.335 239.082 101.961 239.056 101.571C239.021 101.052 238.984 100.516 239.045 99.959C239.085 99.5884 239.525 98.6339 239.938 98.4022C240.379 98.1561 241.095 98.4296 241.362 98.9092C241.539 99.2292 241.537 99.7726 241.537 100.209C241.537 100.318 241.536 100.416 241.54 100.496C241.644 103.25 242.66 105.942 244.4 108.079L244.487 108.184C244.844 108.619 245.248 109.112 245.322 109.734C245.42 110.563 244.916 111.266 244.47 111.887L244.427 111.948C243.885 112.706 243.715 113.27 243.893 113.722C243.937 113.836 243.907 113.967 243.816 114.05C243.76 114.1 243.688 114.127 243.615 114.127ZM229.504 105.36C229.438 105.503 229.422 105.983 229.464 106.238C229.496 106.439 229.651 106.64 229.79 106.818C231.008 108.388 232.389 110.168 234.33 110.982C235.28 111.38 236.341 111.531 237.368 111.676C237.716 111.725 238.064 111.774 238.408 111.833C240.076 112.115 241.695 112.613 243.23 113.316C243.245 112.666 243.623 112.048 243.943 111.599L243.986 111.538C244.387 110.979 244.801 110.401 244.73 109.803C244.677 109.353 244.346 108.95 244.026 108.56L243.939 108.453C242.117 106.218 241.054 103.399 240.945 100.518C240.942 100.432 240.942 100.324 240.942 100.206C240.942 99.8977 240.943 99.3811 240.841 99.1964C240.731 98.9998 240.376 98.8401 240.23 98.9217C240.056 99.0188 239.67 99.7392 239.639 100.023C239.583 100.527 239.617 101.014 239.651 101.53C239.687 102.047 239.723 102.583 239.662 103.139C239.652 103.227 239.604 103.306 239.53 103.355C239.456 103.404 239.364 103.417 239.279 103.392L232.411 101.294C232.101 101.199 231.69 101.085 231.392 101.16C231.245 101.196 231.102 101.304 231.028 101.433C230.981 101.515 230.968 101.592 230.99 101.664C231.019 101.76 230.997 101.864 230.932 101.941C230.867 102.017 230.772 102.056 230.668 102.044C230.432 102.016 230.231 101.981 230.056 101.95C229.63 101.876 229.443 101.783 229.159 102.034C229.044 102.135 228.981 102.258 228.973 102.397C228.96 102.599 229.058 102.832 229.241 103.038C229.337 103.146 229.342 103.308 229.251 103.421C229.084 103.631 228.898 103.944 228.963 104.244C229.023 104.526 229.293 104.718 229.51 104.83C229.62 104.887 229.684 105.007 229.669 105.131C229.653 105.231 229.591 105.316 229.504 105.36Z" fill="#1B1E56"/>
<path d="M235.467 104.122C235.436 104.122 235.404 104.117 235.373 104.107C234.253 103.735 231.105 102.575 229.961 101.912C229.819 101.83 229.77 101.648 229.852 101.505C229.935 101.362 230.118 101.314 230.26 101.397C231.279 101.987 234.253 103.108 235.56 103.542C235.717 103.594 235.801 103.762 235.749 103.918C235.708 104.043 235.592 104.122 235.467 104.122Z" fill="#1B1E56"/>
<path d="M234.533 105.978C234.51 105.978 234.486 105.975 234.461 105.969C233.252 105.667 231.232 104.592 229.757 103.807C229.377 103.605 229.035 103.423 228.754 103.279C228.607 103.204 228.549 103.025 228.624 102.878C228.7 102.731 228.879 102.674 229.025 102.748C229.308 102.893 229.654 103.077 230.036 103.281C231.484 104.052 233.467 105.107 234.605 105.39C234.765 105.43 234.862 105.592 234.822 105.751C234.789 105.888 234.668 105.978 234.533 105.978Z" fill="#1B1E56"/>
<path d="M232.909 107.682C232.879 107.682 232.849 107.678 232.82 107.668C231.695 107.315 229.717 105.918 228.907 105.248C228.781 105.143 228.763 104.955 228.868 104.828C228.973 104.702 229.161 104.684 229.287 104.789C230.199 105.544 232.046 106.801 232.998 107.1C233.156 107.149 233.243 107.316 233.194 107.473C233.153 107.6 233.036 107.682 232.909 107.682Z" fill="#1B1E56"/>
<path d="M232.603 108.04C232.481 108.04 232.366 107.964 232.322 107.842C232.267 107.687 232.347 107.516 232.503 107.461C233.837 106.984 235.29 106.79 236.704 106.901C236.868 106.913 236.99 107.057 236.977 107.222C236.965 107.386 236.82 107.506 236.657 107.495C235.324 107.389 233.96 107.572 232.703 108.022C232.67 108.034 232.636 108.04 232.603 108.04Z" fill="#1B1E56"/>
<path d="M238.805 107.339C238.669 107.339 238.546 107.246 238.515 107.108C238.196 105.739 238.359 104.287 238.972 103.021C239.044 102.873 239.222 102.812 239.37 102.883C239.518 102.955 239.58 103.133 239.508 103.281C238.954 104.425 238.807 105.736 239.096 106.973C239.133 107.134 239.033 107.294 238.873 107.331C238.85 107.336 238.827 107.339 238.805 107.339Z" fill="#1B1E56"/>
<path d="M290.172 100.604C288.917 99.7118 287.208 99.6707 285.742 100.141C284.275 100.611 283 101.531 281.777 102.466C274.343 108.15 270.319 113.77 263.824 120.508C258.228 117.178 249.485 109.356 243.855 107.584C242.301 109.507 240.596 111.315 238.865 113.104C243.542 119.783 253.426 127.243 259.689 132.688C262.754 135.353 267.125 133.698 270.096 131.762C272.828 129.982 275.236 127.76 277.626 125.556C280.027 123.342 282.626 121.448 285.041 119.258C289.04 115.633 292.331 111.071 292.221 105.448C292.186 103.628 291.656 101.657 290.172 100.604Z" fill="white"/>
<path d="M263.534 134.521C261.932 134.521 260.541 134.017 259.398 133.023C258.021 131.826 256.473 130.534 254.834 129.167C248.903 124.22 242.182 118.614 238.502 113.357L238.291 113.055L238.547 112.79C240.468 110.806 242.047 109.112 243.511 107.3L243.701 107.063L243.992 107.154C247.629 108.3 252.383 111.804 256.98 115.194C259.447 117.012 261.782 118.734 263.751 119.938C265.622 117.988 267.289 116.13 268.903 114.332C272.708 110.093 276.303 106.089 281.508 102.109C282.74 101.166 284.073 100.205 285.607 99.7132C286.257 99.5053 286.946 99.395 287.599 99.395C288.678 99.395 289.657 99.6864 290.434 100.238C292.319 101.577 292.645 104.07 292.671 105.437C292.767 110.402 290.371 115.031 285.344 119.588C284.175 120.647 282.948 121.651 281.761 122.622C280.486 123.664 279.169 124.742 277.931 125.884C275.561 128.07 273.108 130.332 270.342 132.134C268.974 133.025 266.271 134.521 263.534 134.521ZM239.446 113.145C243.104 118.22 249.632 123.665 255.405 128.48C257.049 129.851 258.6 131.146 259.984 132.348C260.96 133.197 262.155 133.627 263.534 133.627C266.039 133.628 268.569 132.223 269.854 131.385C272.557 129.622 274.981 127.387 277.325 125.225C278.582 124.066 279.91 122.979 281.194 121.929C282.372 120.965 283.591 119.969 284.743 118.924C289.567 114.552 291.868 110.146 291.777 105.454C291.754 104.255 291.481 102.079 289.915 100.966C288.899 100.244 287.335 100.098 285.88 100.565C284.481 101.013 283.221 101.925 282.05 102.819C276.912 106.748 273.345 110.722 269.568 114.93C267.877 116.813 266.129 118.76 264.148 120.816L263.902 121.071L263.597 120.89C261.528 119.659 259.061 117.84 256.449 115.914C252.239 112.81 247.483 109.303 244.009 108.102C242.647 109.768 241.184 111.343 239.446 113.145Z" fill="#1B1E56"/>
<path d="M241.882 114.978C241.815 114.978 241.748 114.956 241.693 114.91C241.566 114.806 241.547 114.618 241.652 114.491L246.351 108.763C246.456 108.636 246.643 108.618 246.771 108.722C246.898 108.826 246.916 109.014 246.812 109.141L242.112 114.869C242.053 114.941 241.968 114.978 241.882 114.978Z" fill="#1B1E56"/>
<path d="M271.103 131.588C269.921 131.678 268.971 132.568 268.168 133.44C266.371 135.39 264.764 137.515 263.376 139.775C267.023 143.055 270.726 146.375 275.105 148.584C281.55 151.836 289.287 152.432 296.154 150.206C297.02 147.885 297.887 145.563 298.753 143.241C290.321 139.556 281.889 135.872 273.457 132.188C272.707 131.86 271.919 131.525 271.103 131.588Z" fill="#1B1E56"/>
<path d="M316.056 103.03C314.519 100.03 311.419 98.1559 308.048 98.1904L289.308 98.3817C286.14 98.6915 283.584 101.226 282.13 104.058C280.677 106.888 280.068 110.065 279.051 113.079C276.816 119.701 272.632 125.482 268.143 130.839C265.991 133.406 263.605 136.268 264.938 139.953C265.42 141.288 266.336 142.432 267.48 143.272C270.485 145.483 274.221 145.625 277.793 145.461C280.683 145.329 283.605 145.02 286.451 145.542C288.33 145.886 290.126 146.586 291.994 146.986C293.861 147.385 295.892 147.462 297.6 146.607C300.016 145.398 301.206 142.68 302.21 140.172C306.883 128.492 313.997 118.691 316.546 106.531C316.79 105.368 316.632 104.154 316.089 103.096L316.056 103.03Z" fill="white"/>
<path d="M294.504 147.718C293.702 147.718 292.828 147.617 291.904 147.42C291.031 147.233 290.168 146.98 289.332 146.736C288.367 146.453 287.369 146.161 286.375 145.978C285.314 145.784 284.184 145.693 282.82 145.693C281.665 145.693 280.481 145.76 279.336 145.825C278.829 145.854 278.323 145.882 277.817 145.905C277.1 145.938 276.47 145.954 275.891 145.954C273.324 145.954 270.019 145.69 267.218 143.63C265.951 142.697 265.018 141.478 264.522 140.102C263.097 136.166 265.598 133.182 267.804 130.549C271.845 125.727 276.292 119.864 278.631 112.934C278.959 111.963 279.25 110.954 279.532 109.978C280.124 107.924 280.736 105.8 281.737 103.851C283.49 100.436 286.305 98.2244 289.269 97.9349L308.143 97.7412C311.666 97.7412 314.852 99.6896 316.458 102.825L316.492 102.889C317.077 104.033 317.253 105.358 316.989 106.621C315.372 114.331 312.014 120.943 308.46 127.943C306.441 131.917 304.354 136.025 302.629 140.336C301.508 143.14 300.296 145.759 297.805 147.005C296.858 147.478 295.747 147.718 294.504 147.718ZM282.82 144.8C284.24 144.8 285.42 144.895 286.536 145.1C287.575 145.29 288.596 145.589 289.583 145.879C290.402 146.118 291.25 146.367 292.091 146.546C292.953 146.731 293.765 146.825 294.504 146.825C295.608 146.825 296.582 146.616 297.403 146.205C299.613 145.1 300.743 142.641 301.798 140.004C303.538 135.656 305.634 131.529 307.661 127.538C311.189 120.592 314.521 114.032 316.113 106.437C316.336 105.373 316.188 104.258 315.696 103.297L315.662 103.233C314.21 100.396 311.329 98.6344 308.143 98.6344L308.057 98.6349L289.317 98.8262C286.696 99.0842 284.146 101.116 282.532 104.259C281.572 106.131 280.971 108.213 280.39 110.226C280.105 111.211 279.812 112.23 279.478 113.22C277.091 120.29 272.584 126.238 268.49 131.123C266.338 133.691 264.113 136.346 265.362 139.798C265.799 141.006 266.624 142.083 267.749 142.91C269.771 144.397 272.282 145.06 275.891 145.06C276.457 145.06 277.074 145.045 277.777 145.013C278.279 144.99 278.783 144.961 279.286 144.933C280.443 144.867 281.64 144.8 282.82 144.8Z" fill="#1B1E56"/>
<path d="M272.074 144.786C271.979 144.786 271.885 144.741 271.827 144.655C270.713 143.012 270.615 140.626 271.571 138.43C272.417 136.486 273.906 134.892 275.358 133.425L275.698 133.083C277.016 131.758 278.379 130.388 279.298 128.761C279.945 127.618 280.379 126.334 280.798 125.091C281.248 123.759 281.713 122.382 282.446 121.142C283.389 119.548 284.733 118.25 286.034 116.994C286.76 116.293 287.511 115.568 288.177 114.804C291.549 110.941 293.1 105.727 294.468 101.128C294.515 100.971 294.68 100.88 294.839 100.928C294.997 100.975 295.086 101.14 295.04 101.298C293.654 105.956 292.083 111.235 288.627 115.197C287.943 115.979 287.183 116.714 286.448 117.423C285.176 118.651 283.861 119.921 282.96 121.446C282.257 122.631 281.803 123.979 281.363 125.282C280.934 126.55 280.492 127.862 279.818 129.054C278.859 130.751 277.467 132.15 276.121 133.503L275.782 133.844C274.369 135.271 272.922 136.819 272.117 138.668C271.242 140.679 271.32 142.846 272.321 144.322C272.413 144.458 272.378 144.643 272.241 144.735C272.19 144.77 272.132 144.786 272.074 144.786Z" fill="#1B1E56"/>
<path d="M306.964 95.3833C306.274 96.7978 304.681 97.5444 303.136 97.8482C301.591 98.1515 299.988 98.1217 298.466 98.5209C296.943 98.9195 295.103 99.961 294.686 101.479C295.651 101.395 296.725 100.924 297.031 101.844C297.338 102.763 296.421 106.095 296.301 107.057C297.495 105.678 300.166 103.834 301.86 103.157C303.554 102.48 305.316 101.759 306.516 100.385C307.717 99.0107 308.144 96.7751 306.964 95.3833Z" fill="white"/>
<path d="M296.304 107.506C296.243 107.506 296.181 107.493 296.122 107.467C295.942 107.387 295.836 107.199 295.861 107.003C295.898 106.704 296.003 106.21 296.125 105.638C296.373 104.472 296.788 102.522 296.61 101.987C296.558 101.833 296.5 101.733 296.172 101.733C295.96 101.733 295.701 101.777 295.426 101.825C295.195 101.865 294.957 101.906 294.726 101.926C294.581 101.936 294.438 101.879 294.344 101.767C294.251 101.654 294.218 101.503 294.257 101.362C294.737 99.6134 296.765 98.5069 298.355 98.0904C299.246 97.8569 300.161 97.7651 301.047 97.6763C301.711 97.6096 302.398 97.5405 303.052 97.4118C304.055 97.2152 305.845 96.664 306.565 95.19C306.631 95.0541 306.761 94.9612 306.911 94.9427C307.056 94.9242 307.234 94.9647 307.308 95.097C308.421 97.1073 307.852 99.6741 306.855 100.681C305.472 102.078 303.684 102.912 302.028 103.574C300.366 104.238 297.748 106.075 296.642 107.352C296.555 107.451 296.431 107.506 296.304 107.506ZM296.172 100.839C296.996 100.839 297.326 101.31 297.458 101.704C297.691 102.404 297.412 103.878 297.017 105.738C298.383 104.555 300.315 103.296 301.697 102.744C303.259 102.119 305.03 101.411 306.182 100.092C307.063 99.0843 307.527 97.4428 306.973 96.2243C305.96 97.5643 304.242 98.0892 303.224 98.2889C302.529 98.4253 301.821 98.4968 301.136 98.5653C300.246 98.6547 299.405 98.7393 298.582 98.955C297.385 99.2678 296.075 99.9679 295.439 100.916C295.686 100.875 295.936 100.839 296.172 100.839Z" fill="#1B1E56"/>
<path d="M289.731 98.2598C289.95 97.1342 290.631 96.8673 291.607 96.2649C292.583 95.6626 293.763 94.226 294.892 94.0234C294.423 95.4832 294.329 96.7642 294.561 97.9422C294.793 99.1195 295.102 100.376 294.643 101.485C293.953 100.829 293.37 99.6552 292.442 99.8625C291.513 100.07 290.335 101.975 289.522 102.469C290.118 101.315 289.483 99.5342 289.731 98.2598Z" fill="white"/>
<path d="M288.395 103.682L289.125 102.269C289.413 101.709 289.347 100.879 289.282 100.076C289.23 99.434 289.176 98.7708 289.292 98.1792C289.522 96.9965 290.221 96.5794 291.03 96.0962L291.373 95.8894C291.691 95.6934 292.048 95.3865 292.427 95.0618C293.184 94.4118 293.967 93.7403 294.813 93.5877L295.545 93.4561L295.317 94.1639C294.881 95.5218 294.778 96.7307 295 97.8592L295.055 98.1327C295.279 99.2475 295.533 100.511 295.056 101.66L294.807 102.261L294.336 101.813C294.134 101.621 293.948 101.397 293.767 101.18C293.363 100.696 292.969 100.207 292.539 100.301C292.135 100.391 291.511 101.09 291.01 101.651C290.567 102.147 290.149 102.614 289.755 102.854L288.395 103.682ZM294.216 94.7961C293.811 95.0505 293.394 95.4086 293.009 95.7405C292.603 96.0884 292.22 96.4173 291.842 96.6503C291.719 96.726 291.602 96.7962 291.488 96.8636C290.736 97.3122 290.323 97.5589 290.169 98.3496C290.077 98.8203 290.124 99.3947 290.172 100.003C290.205 100.395 290.236 100.792 290.233 101.18C290.269 101.139 290.306 101.098 290.343 101.057C290.991 100.332 291.66 99.5835 292.344 99.431C292.448 99.4078 292.553 99.3958 292.656 99.3958C293.419 99.3958 293.949 100.006 294.414 100.563C294.486 99.8487 294.33 99.0693 294.178 98.3096L294.122 98.0332C293.921 97.0137 293.952 95.9478 294.216 94.7961Z" fill="#1B1E56"/>
<path d="M262.853 119.392C264.205 119.858 265.439 120.664 266.407 121.715C268.462 119.531 269.754 116.642 270.01 113.653C270.074 112.917 269.941 111.978 269.232 111.768C268.511 111.555 267.879 112.296 267.153 112.488C266.639 112.624 266.098 112.476 265.585 112.339C265.072 112.201 264.521 112.074 264.019 112.248C263.517 112.422 263.127 113.021 263.369 113.494C262.689 113.28 261.88 113.825 261.825 114.537C261.799 114.871 261.914 115.2 261.931 115.534C261.947 115.838 261.882 116.14 261.84 116.442C261.755 117.047 261.761 117.665 261.857 118.268C261.901 118.551 261.975 118.847 262.177 119.05C262.357 119.23 262.612 119.309 262.853 119.392Z" fill="white"/>
<path d="M266.405 122.009H266.404C266.321 122.009 266.243 121.974 266.186 121.913C265.249 120.896 264.062 120.12 262.754 119.669C262.462 119.569 262.182 119.474 261.965 119.257C261.698 118.99 261.611 118.629 261.56 118.312C261.459 117.679 261.453 117.035 261.543 116.397L261.573 116.197C261.609 115.969 261.642 115.754 261.632 115.546C261.625 115.421 261.603 115.297 261.582 115.173C261.545 114.962 261.508 114.744 261.527 114.51C261.583 113.79 262.249 113.179 262.997 113.147C263.001 113.02 263.029 112.89 263.081 112.762C263.227 112.397 263.549 112.091 263.92 111.963C264.439 111.783 265.099 111.897 265.661 112.047C266.164 112.182 266.678 112.302 267.075 112.197C267.309 112.135 267.543 112 267.79 111.858C268.257 111.589 268.791 111.324 269.315 111.479C270.035 111.691 270.406 112.513 270.306 113.675C270.043 116.744 268.734 119.671 266.623 121.915C266.566 121.975 266.488 122.009 266.405 122.009ZM263.056 113.742C262.599 113.742 262.153 114.13 262.12 114.557C262.108 114.717 262.138 114.889 262.169 115.072C262.194 115.219 262.219 115.367 262.227 115.515C262.241 115.785 262.201 116.041 262.163 116.289L262.133 116.48C262.052 117.059 262.058 117.643 262.149 118.218C262.185 118.441 262.24 118.689 262.386 118.835C262.506 118.955 262.697 119.02 262.9 119.089C264.244 119.552 265.434 120.3 266.401 121.275C268.297 119.161 269.469 116.456 269.712 113.624C269.769 112.961 269.65 112.199 269.146 112.05C268.829 111.956 268.471 112.153 268.087 112.374C267.818 112.529 267.538 112.689 267.228 112.772C266.7 112.912 266.075 112.775 265.52 112.626C265.023 112.493 264.498 112.392 264.116 112.526C263.906 112.598 263.716 112.778 263.634 112.983C263.596 113.078 263.565 113.22 263.634 113.354C263.688 113.461 263.673 113.591 263.596 113.682C263.519 113.775 263.395 113.811 263.279 113.774C263.208 113.752 263.133 113.742 263.056 113.742Z" fill="#1B1E56"/>
<path d="M292.231 141.312C298.577 139.451 299.961 135.211 304.235 129.889C308.51 124.566 312.29 118.331 314.867 111.892C315.701 109.808 316.498 107.622 316.41 105.359C316.322 103.096 315.116 100.731 313.081 100.061C310.784 99.3041 308.404 100.871 306.613 102.578C299.97 108.908 295.483 117.31 290.198 124.95C282.551 121.863 275.774 118.981 269.331 114.812C267.062 115.894 264.06 117.849 264.192 121.69C270.073 127.607 275.954 133.525 281.835 139.442C282.756 140.369 283.726 141.326 284.944 141.706C286.183 142.091 290.986 141.677 292.231 141.312Z" fill="white"/>
<path d="M267.458 122.998C267.437 122.998 267.416 122.996 267.394 122.991C267.233 122.955 267.132 122.797 267.167 122.636C267.725 120.094 269.429 117.848 271.725 116.626C271.869 116.548 272.051 116.602 272.129 116.748C272.206 116.894 272.151 117.074 272.006 117.152C269.861 118.293 268.271 120.391 267.749 122.764C267.718 122.903 267.595 122.998 267.458 122.998Z" fill="#1B1E56"/>
<path d="M286.702 142.311C285.821 142.311 285.185 142.252 284.813 142.136C283.464 141.716 282.431 140.678 281.519 139.761L263.754 121.884L263.748 121.708C263.641 118.58 265.405 116.193 269.141 114.412L269.367 114.304L269.577 114.44C275.96 118.571 282.628 121.41 290.037 124.405C291.387 122.441 292.706 120.399 293.984 118.422C297.639 112.766 301.418 106.918 306.308 102.258C308.826 99.8599 311.189 98.9704 313.224 99.6401C315.6 100.422 316.774 103.146 316.86 105.346C316.951 107.684 316.132 109.945 315.285 112.061C312.784 118.309 309.084 124.572 304.586 130.172C303.558 131.452 302.711 132.652 301.891 133.812C299.335 137.431 297.316 140.29 292.36 141.743C291.385 142.03 288.583 142.311 286.702 142.311ZM264.637 121.504L282.153 139.131C282.991 139.973 283.94 140.929 285.077 141.282C285.239 141.332 285.664 141.417 286.701 141.417C288.64 141.417 291.294 141.126 292.107 140.887C296.764 139.521 298.608 136.911 301.16 133.298C301.987 132.126 302.843 130.914 303.888 129.612C308.331 124.08 311.985 117.896 314.454 111.729C315.299 109.618 316.05 107.544 315.965 105.38C315.891 103.479 314.913 101.137 312.943 100.489C311.22 99.9213 309.183 100.75 306.922 102.905C302.109 107.492 298.359 113.295 294.733 118.905C293.387 120.988 291.996 123.141 290.568 125.207L290.364 125.501L290.033 125.367C282.528 122.337 275.782 119.487 269.301 115.326C266.145 116.89 264.616 118.914 264.637 121.504Z" fill="#1B1E56"/>
</svg>
