<svg width="337" height="241" viewBox="0 0 337 241" fill="none" xmlns="http://www.w3.org/2000/svg">
<path d="M50.5812 132.41L36.437 167.769" stroke="black" stroke-width="0.52775" stroke-miterlimit="10"/>
<path d="M94.3164 146.177L107.082 182.754" stroke="black" stroke-width="0.52775" stroke-miterlimit="10"/>
<path d="M119.857 107.477L153.381 128.81" stroke="black" stroke-width="0.52775" stroke-miterlimit="10"/>
<path d="M172.56 65.2051L183.471 101.92" stroke="black" stroke-width="0.52775" stroke-miterlimit="10"/>
<path d="M244.545 79.1206L225.432 112.623" stroke="black" stroke-width="0.52775" stroke-miterlimit="10"/>
<path d="M284.661 88.5244L292.08 126.414" stroke="black" stroke-width="0.52775" stroke-miterlimit="10"/>
<path d="M42.8335 151.774C51.4554 156.923 59.9389 162.565 69.9118 164.365C93.9572 172.316 121.165 158.973 130.328 135.548C132.612 129.13 133.942 122.343 136.581 116.016C146.551 90.3268 176.727 78.6123 202.66 83.1351C220.956 85.4419 235.631 97.0614 251.687 104.937C263.268 109.982 276.315 110.369 288.261 106.904" stroke="#003090" stroke-width="0.52775" stroke-miterlimit="10" stroke-dasharray="2.11 2.64"/>
<path d="M326.61 102.168C315.157 117.421 296.759 127.835 277.656 129.127C271.858 129.52 266.014 129.276 260.272 128.382C257.04 127.879 254.101 127.277 250.987 126.17C247.634 124.979 244.361 123.566 241.196 121.942C236.977 119.778 232.962 117.248 228.936 114.751C217.076 107.395 204.385 100.925 190.064 101.233C177.517 101.503 166.042 107.515 158.58 117.725C155.661 121.718 154.031 126.727 151.966 133.069C145.933 151.605 136.337 168.225 118.704 177.867C102.908 186.504 84.1047 187.505 66.9612 182.631C57.305 179.886 48.8283 175.239 40.3589 169.976C29.5247 163.244 16.2703 160.663 3.70931 162.961C2.8306 163.122 1.95559 163.306 1.08691 163.515" stroke="#003090" stroke-width="0.52775" stroke-miterlimit="10"/>
<path d="M1 125.489C17.1544 119.366 34.0271 123.745 48.7419 131.439C57.8018 136.177 66.9445 141.922 76.7358 145.022C84.6468 147.527 93.512 147.915 100.837 143.498C108.691 138.763 113.114 129.741 115.182 121.095C127.577 69.2629 189.546 47.6383 235.152 73.7113C246.083 78.9803 260.468 91.4368 270.152 91.1349C289.274 91.0985 306.553 77.8573 316.928 62.8053C319.334 59.3148 321.765 55.7952 324.855 52.8931C327.945 49.991 331.789 47.7159 336 47.2319" stroke="#003090" stroke-width="0.52775" stroke-miterlimit="10"/>
<path d="M96.834 180.085H95.3548V174.174H94.6178V172.695H96.834V180.085Z" fill="#003090"/>
<path d="M175.601 96.8439C175.601 97.1497 175.543 97.4366 175.426 97.7046C175.309 97.9726 175.15 98.208 174.947 98.4107C174.748 98.61 174.514 98.768 174.246 98.8848C173.978 99.0016 173.691 99.0601 173.385 99.0601H170.427V97.5809H173.385C173.488 97.5809 173.585 97.562 173.674 97.5242C173.763 97.4864 173.841 97.4349 173.906 97.3696C173.975 97.3009 174.028 97.2219 174.066 97.1325C174.103 97.0432 174.122 96.947 174.122 96.8439C174.122 96.7408 174.103 96.6446 174.066 96.5553C174.028 96.466 173.975 96.3887 173.906 96.3234C173.841 96.2547 173.763 96.2014 173.674 96.1636C173.585 96.1258 173.488 96.1069 173.385 96.1069H171.37V94.6278H173.385C173.488 94.6278 173.585 94.6089 173.674 94.5711C173.763 94.5333 173.841 94.4818 173.906 94.4165C173.975 94.3478 174.028 94.2687 174.066 94.1794C174.103 94.0866 174.122 93.9887 174.122 93.8856C174.122 93.7826 174.103 93.6864 174.066 93.597C174.028 93.5077 173.975 93.4304 173.906 93.3651C173.841 93.2964 173.763 93.2431 173.674 93.2053C173.585 93.1675 173.488 93.1486 173.385 93.1486H170.427V91.6695H173.385C173.691 91.6695 173.978 91.7279 174.246 91.8447C174.514 91.9615 174.748 92.1213 174.947 92.324C175.15 92.5233 175.309 92.7569 175.426 93.0249C175.543 93.2929 175.601 93.5798 175.601 93.8856C175.601 94.1571 175.552 94.4216 175.452 94.6793C175.352 94.9336 175.211 95.1621 175.029 95.3648C175.211 95.5675 175.352 95.7977 175.452 96.0554C175.552 96.3096 175.601 96.5725 175.601 96.8439Z" fill="#003090"/>
<path d="M126.284 120.681C126.284 120.987 126.225 121.275 126.108 121.547C125.992 121.815 125.832 122.05 125.629 122.253C125.43 122.452 125.196 122.61 124.928 122.727C124.66 122.844 124.373 122.902 124.068 122.902H123.325C123.222 122.902 123.126 122.921 123.037 122.959C122.947 122.997 122.868 123.05 122.8 123.119C122.734 123.184 122.683 123.261 122.645 123.351C122.607 123.44 122.588 123.536 122.588 123.639V124.376H126.083V125.855H121.109V123.639C121.109 123.334 121.168 123.047 121.285 122.779C121.401 122.507 121.559 122.272 121.759 122.073C121.961 121.87 122.197 121.712 122.465 121.598C122.733 121.482 123.02 121.423 123.325 121.423H124.068C124.171 121.423 124.267 121.404 124.356 121.366C124.446 121.329 124.523 121.277 124.588 121.212C124.657 121.143 124.71 121.064 124.748 120.975C124.786 120.882 124.805 120.784 124.805 120.681C124.805 120.578 124.786 120.482 124.748 120.392C124.71 120.303 124.657 120.226 124.588 120.161C124.523 120.092 124.446 120.039 124.356 120.001C124.267 119.963 124.171 119.944 124.068 119.944H121.429V118.465H124.068C124.373 118.465 124.66 118.523 124.928 118.64C125.196 118.757 125.43 118.917 125.629 119.119C125.832 119.319 125.992 119.552 126.108 119.82C126.225 120.088 126.284 120.375 126.284 120.681Z" fill="#003090"/>
<path d="M234.717 82.7528H233.98V84.2319H232.501V82.7528H228.806L229.63 76.8414H231.109L230.465 81.2788H232.501V77.5835H233.98V81.2788H234.717V82.7528Z" fill="#003090"/>
<path d="M282.824 119.16C282.824 119.52 282.76 119.845 282.633 120.134C282.506 120.422 282.336 120.666 282.123 120.865C281.91 121.065 281.662 121.218 281.381 121.324C281.102 121.431 280.81 121.484 280.505 121.484H277.526V120.005H280.505C280.604 120.005 280.704 119.989 280.803 119.958C280.907 119.927 280.998 119.878 281.077 119.809C281.159 119.74 281.224 119.653 281.272 119.546C281.324 119.44 281.35 119.311 281.35 119.16C281.35 119.022 281.324 118.902 281.272 118.799C281.224 118.692 281.159 118.605 281.077 118.536C280.998 118.464 280.907 118.41 280.803 118.376C280.704 118.338 280.604 118.319 280.505 118.319H277.526L277.959 114.093H282.52V115.572H279.288L279.154 116.84H280.505C280.81 116.84 281.102 116.894 281.381 117C281.662 117.107 281.91 117.261 282.123 117.464C282.336 117.663 282.506 117.907 282.633 118.196C282.76 118.481 282.824 118.802 282.824 119.16Z" fill="#003090"/>
<path d="M92.7436 114.998C95.2502 103.893 88.2802 92.8591 77.1755 90.3524C66.0708 87.8458 55.0366 94.8158 52.5299 105.921C50.0233 117.025 56.9933 128.059 68.098 130.566C79.2027 133.073 90.2369 126.103 92.7436 114.998Z" stroke="#003090" stroke-width="0.52775" stroke-miterlimit="10"/>
<path d="M72.6335 127.983C82.3097 127.983 90.1538 120.139 90.1538 110.463C90.1538 100.786 82.3097 92.9424 72.6335 92.9424C62.9574 92.9424 55.1133 100.786 55.1133 110.463C55.1133 120.139 62.9574 127.983 72.6335 127.983Z" stroke="#003090" stroke-width="0.52775" stroke-miterlimit="10" stroke-dasharray="2.13 2.66"/>
<path d="M72.6274 131.072V148.592" stroke="#003090" stroke-width="0.52775" stroke-miterlimit="10"/>
<path d="M72.6288 150.654C73.7673 150.654 74.6902 149.731 74.6902 148.593C74.6902 147.454 73.7673 146.531 72.6288 146.531C71.4903 146.531 70.5674 147.454 70.5674 148.593C70.5674 149.731 71.4903 150.654 72.6288 150.654Z" fill="#003090"/>
<path d="M83.9057 103.488V110.359C83.9057 111.304 83.1352 112.074 82.1905 112.074H81.2775V115.309L77.8207 112.074H76.1214H70.8544C69.9098 112.074 69.1445 111.304 69.1445 110.359V106.665V103.488C69.1445 102.543 69.9098 101.772 70.8544 101.772H82.1905C83.1352 101.772 83.9057 102.543 83.9057 103.488ZM78.7126 107.572L79.8156 106.665L78.7126 105.757L78.8499 104.337L77.4302 104.475L76.5225 103.372L75.6147 104.475L74.1951 104.337L74.3376 105.757L73.2346 106.665L74.3376 107.572L74.1951 108.992L75.6147 108.855L76.5225 109.953L77.4302 108.855L78.8499 108.992L78.7126 107.572Z" fill="#ACC8FE"/>
<path d="M79.8164 106.667L78.7134 107.575L78.8506 108.995L77.431 108.857L76.5232 109.955L75.6155 108.857L74.1959 108.995L74.3383 107.575L73.2354 106.667L74.3383 105.759L74.1959 104.34L75.6155 104.477L76.5232 103.374L77.431 104.477L78.8506 104.34L78.7134 105.759L79.8164 106.667Z" fill="#CADCFF"/>
<path d="M76.1201 112.074V115.251C76.1201 116.195 75.3495 116.96 74.4049 116.96H67.4438L63.9871 120.196V116.96H63.0688C62.1241 116.96 61.3589 116.195 61.3589 115.251V108.374C61.3589 107.429 62.1241 106.664 63.0688 106.664H69.1432V110.358C69.1432 111.303 69.9084 112.074 70.8531 112.074H76.1201Z" fill="#003090"/>
<path d="M158.237 197.984C160.81 186.895 153.906 175.821 142.817 173.248C131.729 170.675 120.654 177.579 118.081 188.668C115.508 199.756 122.412 210.831 133.501 213.404C144.59 215.977 155.664 209.073 158.237 197.984Z" stroke="#003090" stroke-width="0.52775" stroke-miterlimit="10"/>
<path d="M138.162 210.832C147.838 210.832 155.682 202.988 155.682 193.312C155.682 183.636 147.838 175.792 138.162 175.792C128.486 175.792 120.642 183.636 120.642 193.312C120.642 202.988 128.486 210.832 138.162 210.832Z" stroke="#003090" stroke-width="0.52775" stroke-miterlimit="10" stroke-dasharray="2.13 2.66"/>
<path d="M138.167 172.7V155.18" stroke="#003090" stroke-width="0.52775" stroke-miterlimit="10"/>
<path d="M136.103 155.181C136.103 154.043 137.026 153.12 138.164 153.12C139.302 153.12 140.225 154.043 140.225 155.181C140.225 156.32 139.302 157.242 138.164 157.242C137.026 157.242 136.103 156.32 136.103 155.181Z" fill="#003090"/>
<path d="M135.196 203.057V200.936H132.937V203.057L134.067 202.503L135.196 203.057ZM145.635 199.432V201.828C145.635 202.925 144.748 203.807 143.656 203.807H132.214C131.122 203.807 130.235 202.925 130.235 201.828V199.432H132.473H145.635Z" fill="#CADCFF"/>
<path d="M135.198 200.935V203.056L134.069 202.502L132.939 203.056V200.935H135.198Z" fill="black"/>
<path d="M145.635 184.787V199.432H132.473V182.808H143.656C144.748 182.808 145.635 183.695 145.635 184.787Z" fill="#003090"/>
<path d="M132.473 182.808V199.432H130.235V184.787C130.235 183.695 131.122 182.808 132.214 182.808H132.473Z" fill="#003090"/>
<path d="M145.635 199.432V201.828C145.635 202.926 144.748 203.807 143.656 203.807H132.214C131.122 203.807 130.235 202.926 130.235 201.828V199.432V184.787C130.235 183.695 131.122 182.808 132.214 182.808H132.473H143.656C144.748 182.808 145.635 183.695 145.635 184.787V199.432Z" stroke="#003090" stroke-width="0.52775" stroke-miterlimit="10"/>
<path d="M130.235 199.432H132.473H145.635" stroke="#003090" stroke-width="0.52775" stroke-miterlimit="10"/>
<path d="M132.473 182.808V199.432" stroke="#003090" stroke-width="0.52775" stroke-miterlimit="10"/>
<path d="M132.939 200.935V203.056L134.069 202.502L135.198 203.056V200.935H132.939Z" stroke="#003090" stroke-width="0.52775" stroke-miterlimit="10"/>
<path d="M135.197 200.935H144.238" stroke="#003090" stroke-width="0.52775" stroke-miterlimit="10"/>
<path d="M173.732 48.5626C175.579 37.3292 167.969 26.726 156.736 24.8796C145.502 23.0332 134.899 30.6428 133.053 41.8761C131.206 53.1094 138.816 63.7126 150.049 65.5591C161.283 67.4055 171.886 59.7959 173.732 48.5626Z" stroke="#003090" stroke-width="0.52775" stroke-miterlimit="10"/>
<path d="M170.679 48.0662C172.246 38.5178 165.775 29.5073 156.227 27.9407C146.678 26.3741 137.668 32.8447 136.101 42.3932C134.535 51.9416 141.005 60.9521 150.554 62.5187C160.102 64.0852 169.113 57.6147 170.679 48.0662Z" stroke="#003090" stroke-width="0.52775" stroke-miterlimit="10" stroke-dasharray="2.13 2.66"/>
<path d="M153.384 65.8359V83.3557" stroke="#003090" stroke-width="0.52775" stroke-miterlimit="10"/>
<path d="M153.381 85.4182C154.52 85.4182 155.443 84.4953 155.443 83.3568C155.443 82.2183 154.52 81.2954 153.381 81.2954C152.243 81.2954 151.32 82.2183 151.32 83.3568C151.32 84.4953 152.243 85.4182 153.381 85.4182Z" fill="#003090"/>
<path d="M144.063 50.1996V43.3652H162.693V50.1996H161.226H159.643H158.877H157.289H156.524H154.94H154.17H152.587H151.821H150.233H149.468H147.884H147.114H145.531H144.063Z" fill="#CADCFF"/>
<path d="M144.063 53.4996V50.2012H145.531H147.114H147.884H149.468H150.233H151.821H152.587H154.17H154.94H156.524H157.289H158.877H159.643H161.226H162.693V53.4996H144.063Z" fill="#CADCFF"/>
<path d="M153.378 38.5601H155.183H156.983H158.788H160.587H162.693V43.3679H144.063V38.5601H146.169H147.969H149.774H151.579H153.378Z" fill="#003090"/>
<path d="M162.693 50.2022V53.5007H144.063V50.2022V43.3679V38.5601H146.169H147.969H149.774H151.579H153.378H155.183H156.983H158.788H160.587H162.693V43.3679V50.2022Z" stroke="#003090" stroke-width="0.52775" stroke-miterlimit="10"/>
<path d="M146.169 36.9541V38.5585V39.6615" stroke="#003090" stroke-width="0.52775" stroke-miterlimit="10"/>
<path d="M147.969 36.9541V38.5585V39.6615" stroke="#003090" stroke-width="0.52775" stroke-miterlimit="10"/>
<path d="M149.772 36.9541V38.5585V39.6615" stroke="#003090" stroke-width="0.52775" stroke-miterlimit="10"/>
<path d="M151.577 36.9541V38.5585V39.6615" stroke="#003090" stroke-width="0.52775" stroke-miterlimit="10"/>
<path d="M153.376 36.9541V38.5585V39.6615" stroke="#003090" stroke-width="0.52775" stroke-miterlimit="10"/>
<path d="M155.185 36.9541V38.5585V39.6615" stroke="#003090" stroke-width="0.52775" stroke-miterlimit="10"/>
<path d="M156.984 36.9541V38.5585V39.6615" stroke="#003090" stroke-width="0.52775" stroke-miterlimit="10"/>
<path d="M158.788 36.9541V38.5585V39.6615" stroke="#003090" stroke-width="0.52775" stroke-miterlimit="10"/>
<path d="M160.588 36.9541V38.5585V39.6615" stroke="#003090" stroke-width="0.52775" stroke-miterlimit="10"/>
<path d="M144.063 43.3647H162.693" stroke="#003090" stroke-width="0.52775" stroke-miterlimit="10"/>
<path d="M145.529 45.0781H147.112" stroke="#003090" stroke-width="0.52775" stroke-miterlimit="10"/>
<path d="M147.882 45.0781H149.465" stroke="#003090" stroke-width="0.52775" stroke-miterlimit="10"/>
<path d="M150.235 45.0781H151.823" stroke="#003090" stroke-width="0.52775" stroke-miterlimit="10"/>
<path d="M152.584 45.0781H154.167" stroke="#003090" stroke-width="0.52775" stroke-miterlimit="10"/>
<path d="M154.941 45.0781H156.524" stroke="#003090" stroke-width="0.52775" stroke-miterlimit="10"/>
<path d="M157.29 45.0781H158.878" stroke="#003090" stroke-width="0.52775" stroke-miterlimit="10"/>
<path d="M159.643 45.0781H161.226" stroke="#003090" stroke-width="0.52775" stroke-miterlimit="10"/>
<path d="M145.529 46.7832H147.112" stroke="#003090" stroke-width="0.52775" stroke-miterlimit="10"/>
<path d="M147.882 46.7832H149.465" stroke="#003090" stroke-width="0.52775" stroke-miterlimit="10"/>
<path d="M150.235 46.7832H151.823" stroke="#003090" stroke-width="0.52775" stroke-miterlimit="10"/>
<path d="M152.584 46.7832H154.167" stroke="#003090" stroke-width="0.52775" stroke-miterlimit="10"/>
<path d="M154.941 46.7832H156.524" stroke="#003090" stroke-width="0.52775" stroke-miterlimit="10"/>
<path d="M157.29 46.7832H158.878" stroke="#003090" stroke-width="0.52775" stroke-miterlimit="10"/>
<path d="M159.643 46.7832H161.226" stroke="#003090" stroke-width="0.52775" stroke-miterlimit="10"/>
<path d="M145.529 48.4922H147.112" stroke="#003090" stroke-width="0.52775" stroke-miterlimit="10"/>
<path d="M147.882 48.4922H149.465" stroke="#003090" stroke-width="0.52775" stroke-miterlimit="10"/>
<path d="M150.235 48.4922H151.823" stroke="#003090" stroke-width="0.52775" stroke-miterlimit="10"/>
<path d="M152.584 48.4922H154.167" stroke="#003090" stroke-width="0.52775" stroke-miterlimit="10"/>
<path d="M154.941 48.4922H156.524" stroke="#003090" stroke-width="0.52775" stroke-miterlimit="10"/>
<path d="M157.29 48.4922H158.878" stroke="#003090" stroke-width="0.52775" stroke-miterlimit="10"/>
<path d="M159.643 48.4922H161.226" stroke="#003090" stroke-width="0.52775" stroke-miterlimit="10"/>
<path d="M145.529 50.2012H147.112" stroke="#003090" stroke-width="0.52775" stroke-miterlimit="10"/>
<path d="M147.882 50.2012H149.465" stroke="#003090" stroke-width="0.52775" stroke-miterlimit="10"/>
<path d="M150.235 50.2012H151.823" stroke="#003090" stroke-width="0.52775" stroke-miterlimit="10"/>
<path d="M152.584 50.2012H154.167" stroke="#003090" stroke-width="0.52775" stroke-miterlimit="10"/>
<path d="M154.941 50.2012H156.524" stroke="#003090" stroke-width="0.52775" stroke-miterlimit="10"/>
<path d="M157.29 50.2012H158.878" stroke="#003090" stroke-width="0.52775" stroke-miterlimit="10"/>
<path d="M159.643 50.2012H161.226" stroke="#003090" stroke-width="0.52775" stroke-miterlimit="10"/>
<path d="M145.529 51.9102H147.112" stroke="#003090" stroke-width="0.52775" stroke-miterlimit="10"/>
<path d="M147.882 51.9102H149.465" stroke="#003090" stroke-width="0.52775" stroke-miterlimit="10"/>
<path d="M282.265 71.5756C290.314 63.5263 290.314 50.4757 282.265 42.4264C274.216 34.377 261.165 34.377 253.116 42.4264C245.066 50.4757 245.066 63.5263 253.116 71.5756C261.165 79.6249 274.216 79.6249 282.265 71.5756Z" stroke="#003090" stroke-width="0.52775" stroke-miterlimit="10"/>
<path d="M280.076 69.3905C286.918 62.5485 286.918 51.4554 280.076 44.6134C273.234 37.7714 262.141 37.7714 255.299 44.6134C248.457 51.4554 248.457 62.5485 255.299 69.3905C262.141 76.2325 273.234 76.2325 280.076 69.3905Z" stroke="#003090" stroke-width="0.52775" stroke-miterlimit="10" stroke-dasharray="2.13 2.66"/>
<path d="M267.693 77.6123V95.132" stroke="#003090" stroke-width="0.52775" stroke-miterlimit="10"/>
<path d="M267.695 97.1907C268.833 97.1907 269.756 96.2677 269.756 95.1293C269.756 93.9908 268.833 93.0679 267.695 93.0679C266.556 93.0679 265.633 93.9908 265.633 95.1293C265.633 96.2677 266.556 97.1907 267.695 97.1907Z" fill="#003090"/>
<path d="M256.082 61.4053L257.76 63.9965H254.403L256.082 61.4053Z" fill="#CADCFF"/>
<path d="M260.639 57.1728L256.08 55.6107V52.877L268.524 57.1465V59.8802L260.639 57.1728Z" fill="#003090"/>
<path d="M276.41 57.1781L274.494 57.8325L268.525 59.8802V57.1465L280.975 52.877V55.6107L276.41 57.1781Z" fill="#003090"/>
<path d="M280.974 52.8779L268.524 57.1474L256.08 52.8779L268.524 48.6084L280.974 52.8779Z" fill="#003090"/>
<path d="M274.495 57.834L276.41 57.1796V61.6285C276.41 63.407 272.885 64.8478 268.526 64.8478C264.172 64.8478 260.641 63.407 260.641 61.6285V57.1743L268.526 59.8817L274.495 57.834Z" fill="#ABC7FF"/>
<path d="M268.524 57.1474L256.08 52.8779L268.524 48.6084L280.974 52.8779L268.524 57.1474Z" stroke="#003090" stroke-width="0.52775" stroke-miterlimit="10" stroke-linejoin="bevel"/>
<path d="M256.08 52.877V55.6107L260.639 57.1728L268.524 59.8802L274.493 57.8325L276.409 57.1781L280.974 55.6107V52.877" stroke="#003090" stroke-width="0.52775" stroke-miterlimit="10"/>
<path d="M260.641 57.1494V57.1758V61.63C260.641 63.4085 264.172 64.8493 268.526 64.8493C272.885 64.8493 276.41 63.4085 276.41 61.63V57.1811V57.1494" stroke="#003090" stroke-width="0.52775" stroke-miterlimit="10"/>
<path d="M256.08 55.6138V61.4085V61.6037" stroke="#003090" stroke-width="0.52775" stroke-miterlimit="10"/>
<path d="M256.082 61.4053L254.403 63.9965H257.76L256.082 61.4053Z" stroke="#003090" stroke-width="0.52775" stroke-miterlimit="10"/>
<path d="M268.525 59.8832V57.1494" stroke="#003090" stroke-width="0.52775" stroke-miterlimit="10" stroke-linejoin="bevel"/>
<path d="M274.495 57.8345V61.6026" stroke="#003090" stroke-width="0.52775" stroke-miterlimit="10" stroke-linejoin="bevel"/>
<path d="M224.865 132.756C227.525 121.688 220.709 110.559 209.641 107.898C198.573 105.238 187.444 112.054 184.783 123.122C182.123 134.19 188.939 145.32 200.007 147.98C211.075 150.64 222.205 143.824 224.865 132.756Z" stroke="#003090" stroke-width="0.52775" stroke-miterlimit="10"/>
<path d="M221.965 131.539C223.955 122.07 217.893 112.78 208.423 110.79C198.954 108.799 189.665 114.862 187.674 124.331C185.684 133.8 191.747 143.09 201.216 145.08C210.685 147.071 219.974 141.008 221.965 131.539Z" stroke="#003090" stroke-width="0.52775" stroke-miterlimit="10" stroke-dasharray="2.13 2.66"/>
<path d="M204.821 107.32V89.7998" stroke="#003090" stroke-width="0.52775" stroke-miterlimit="10"/>
<path d="M204.819 91.8586C205.957 91.8586 206.88 90.9357 206.88 89.7972C206.88 88.6588 205.957 87.7358 204.819 87.7358C203.68 87.7358 202.757 88.6588 202.757 89.7972C202.757 90.9357 203.68 91.8586 204.819 91.8586Z" fill="#003090"/>
<path d="M200.303 135.404V136.211H198.635V135.404V134.543H200.303V135.404Z" fill="#003090"/>
<path d="M200.303 135.402V134.542H198.636V135.402V136.21H200.303V135.402ZM193.517 133.127H216.125V135.386C216.125 136.442 215.27 137.297 214.215 137.297H195.427C194.372 137.297 193.517 136.442 193.517 135.386V133.127Z" fill="black"/>
<path d="M216.125 123.583V133.13H193.517V123.583H216.125ZM207.106 128.85C207.481 128.682 207.481 128.143 207.106 127.98L202.926 126.122C202.61 125.979 202.251 126.212 202.251 126.56V130.27C202.251 130.618 202.61 130.851 202.926 130.708L207.106 128.85Z" fill="#CADCFF"/>
<path d="M216.125 123.582H193.517V122.221C193.517 121.165 194.372 120.31 195.427 120.31H214.215C215.27 120.31 216.125 121.165 216.125 122.221V123.582Z" fill="#003090"/>
<path d="M207.107 127.977C207.481 128.141 207.481 128.679 207.107 128.848L202.927 130.706C202.61 130.848 202.251 130.616 202.251 130.268V126.558C202.251 126.209 202.61 125.977 202.927 126.12L207.107 127.977Z" fill="#003090"/>
<path d="M216.125 133.129V135.388C216.125 136.443 215.27 137.298 214.215 137.298H195.427C194.372 137.298 193.517 136.443 193.517 135.388V133.129V123.582V122.221C193.517 121.165 194.372 120.31 195.427 120.31H214.215C215.27 120.31 216.125 121.165 216.125 122.221V123.582V133.129Z" stroke="#003090" stroke-width="0.52775" stroke-miterlimit="10" stroke-linejoin="bevel"/>
<path d="M193.517 123.583H216.125" stroke="#003090" stroke-width="0.52775" stroke-miterlimit="10" stroke-linejoin="bevel"/>
<path d="M195.354 122.048H197.438" stroke="#003090" stroke-width="0.52775" stroke-miterlimit="10" stroke-linejoin="bevel"/>
<path d="M198.235 122.048H200.325" stroke="#003090" stroke-width="0.52775" stroke-miterlimit="10" stroke-linejoin="bevel"/>
<path d="M201.125 122.048H203.209" stroke="#003090" stroke-width="0.52775" stroke-miterlimit="10" stroke-linejoin="bevel"/>
<path d="M193.517 133.127H216.125" stroke="#003090" stroke-width="0.52775" stroke-miterlimit="10" stroke-linejoin="bevel"/>
<path d="M200.303 135.406H213.777" stroke="#003090" stroke-width="0.52775" stroke-miterlimit="10" stroke-linejoin="bevel"/>
<path d="M195.866 135.406H198.636" stroke="#003090" stroke-width="0.52775" stroke-miterlimit="10" stroke-linejoin="bevel"/>
<path d="M200.303 135.404V136.211H198.635V135.404V134.543H200.303V135.404Z" stroke="#003090" stroke-width="0.52775" stroke-miterlimit="10"/>
<path d="M202.251 126.558V130.268C202.251 130.616 202.61 130.848 202.927 130.706L207.107 128.848C207.481 128.679 207.481 128.141 207.107 127.977L202.927 126.12C202.61 125.977 202.251 126.209 202.251 126.558Z" stroke="#003090" stroke-width="0.52775" stroke-miterlimit="10"/>
</svg>
