<svg width="262" height="262" viewBox="0 0 262 262" fill="none" xmlns="http://www.w3.org/2000/svg">
<path d="M185.603 72.9899C184.686 73.2519 155.108 94.3809 152.661 96.2371C150.214 98.0934 145.398 104.65 146.024 105.249C146.994 106.176 155.283 103.175 156.393 102.532C157.503 101.888 188.415 80.0612 189.929 79.0146C191.443 77.9679 186.527 72.7292 185.603 72.9899Z" fill="#003090"/>
<path d="M131.052 140.687C117.944 141.439 105.938 130.993 87.2102 125.132C79.3502 126.501 64.4594 125.744 62.3202 120.891C34.3229 125.039 10.7062 142.768 7.03818 154.689C3.52345 166.096 19.7714 188.638 27.5698 196.002C31.0125 176.424 35.7992 155.576 43.4038 137.183C43.7889 136.25 44.6496 136.821 44.3575 137.722C36.026 163.381 30.1238 189.766 26.7288 216.529C41.5318 225.281 88.6918 227.325 103.972 223.581C104.096 217.121 105.008 195.438 105.849 178.661C99.2845 178.137 92.7358 177.372 86.2395 176.303C85.202 176.133 85.6591 175.036 86.6757 175.173C98.8928 176.813 123.618 179.686 137.897 175.774C146.674 173.369 164.691 164.115 179.031 120.492C174.883 117.381 167.832 114.695 160.885 113.942C158.988 119.409 137.501 140.316 131.052 140.687Z" fill="#003090"/>
<path d="M124 48.4071C131.138 53.4047 137.54 59.3789 143.018 66.155C143.886 67.1859 144.852 66.3751 145.507 65.5327C154.213 54.2824 158.869 47.68 170.507 38.0227C171.424 37.2655 170.386 36.1573 169.408 36.8437C161.431 42.4165 149.167 54.1606 143.931 62.4555C138.337 56.395 131.947 51.1209 124.936 46.7775C123.593 45.9574 122.697 47.5399 124 48.4071Z" fill="#003090"/>
<path d="M131.838 47.1725C134.098 47.4345 150.502 46.7415 153.06 46.6957C154.336 46.6721 154.431 44.6337 153.134 44.6835C150.552 44.7818 134.008 45.1643 131.689 45.5756C130.739 45.7433 130.988 47.0716 131.838 47.1725Z" fill="#003090"/>
<path d="M126.427 97.063C125.289 96.5495 124.353 98.0992 125.391 98.7424C131.195 102.36 136.739 106.379 141.982 110.771C143.564 112.093 145.511 109.575 143.947 108.241C138.66 103.712 132.762 99.9493 126.427 97.063Z" fill="#003090"/>
<path d="M160.156 70.6382C160.212 65.7532 159.735 60.5171 159.709 55.602C159.709 54.3575 157.977 54.5658 157.988 55.809C158.03 61.0149 158.074 66.2169 158.119 71.415C154.21 71.415 136.572 71.8931 132.547 72.649C132.123 68.1806 131.92 63.6768 131.262 59.232C131.229 59.056 131.132 58.8985 130.989 58.7898C130.847 58.6811 130.669 58.6288 130.491 58.6429C130.312 58.657 130.145 58.7366 130.021 58.8663C129.898 58.9961 129.827 59.1669 129.821 59.346C130.03 63.7109 130.214 68.1701 130.548 72.535C130.726 74.8577 130.734 74.7031 133.026 74.5367C140.959 73.959 149.036 73.4887 156.989 73.4167C159.284 73.3944 160.122 73.5516 160.156 70.6382Z" fill="#003090"/>
<path d="M150.297 88.485C145.91 88.5413 141.127 88.6094 136.765 89.1059C132.213 89.6299 132.534 90.0125 132.856 94.1154C132.93 95.1942 133.068 96.2677 133.27 97.3301C133.294 97.5292 133.39 97.7125 133.54 97.8456C133.69 97.9786 133.884 98.052 134.084 98.052C134.285 98.052 134.478 97.9786 134.628 97.8456C134.778 97.7125 134.874 97.5292 134.898 97.3301C134.898 96.5834 134.535 91.5124 134.636 91.388C134.737 91.2635 148.512 90.2967 149.983 90.1959C151.251 90.1081 151.561 88.468 150.297 88.485Z" fill="#003090"/>
<path d="M135.608 108.547C135.563 108.348 135.448 108.173 135.284 108.052C135.12 107.932 134.918 107.876 134.715 107.893C134.512 107.911 134.323 108.002 134.182 108.149C134.041 108.296 133.958 108.489 133.949 108.692C134.007 111.408 134.204 114.119 134.54 116.814C134.521 117.069 134.604 117.322 134.77 117.516C134.937 117.71 135.173 117.83 135.428 117.849C135.559 117.86 145.595 117.602 152.935 116.908C154.812 116.731 153.671 115.05 152.572 115.135C147.387 115.528 141.581 115.736 136.375 115.891C136.168 113.369 135.992 110.964 135.608 108.547Z" fill="#003090"/>
<path d="M91.0609 84.7131C88.5313 84.5585 87.0275 87.6789 88.3859 87.9593C89.0907 88.1047 89.3186 86.3414 90.947 86.3519C91.1643 86.367 91.3787 86.2952 91.5431 86.1522C91.7074 86.0092 91.8083 85.8068 91.8234 85.5895C91.8385 85.3721 91.7666 85.1577 91.6237 84.9934C91.4807 84.829 91.2783 84.7282 91.0609 84.7131Z" fill="#191919"/>
<path d="M94.6026 81.9128C94.2253 81.153 93.5546 81.7713 93.7315 82.4931C94.8437 86.9354 96.1052 89.4099 97.0497 94.346C97.558 97.0001 95.1332 95.3822 95.0585 97.4573C95.0108 98.9946 94.855 100.527 94.5921 102.042C93.5406 101.858 92.5788 101.333 91.8542 100.549C91.3879 99.9371 90.5796 100.487 90.9634 101.306C91.3078 101.943 91.8004 102.487 92.3996 102.893C92.9989 103.299 93.6871 103.555 94.4061 103.639C93.5664 110.32 90.036 110.703 84.3885 109.534C83.351 109.321 82.3122 108.951 81.1738 108.798C80.6236 108.725 79.2088 109.835 82.9056 110.872C82.9056 112.666 83.2986 121.823 83.8082 123.503C84.0244 124.207 85.1366 124.124 85.0737 123.326C84.7462 119.177 84.6165 115.299 84.5497 111.245C95.8157 113.548 95.6349 106.652 96.5362 97.8175C98.8588 97.4848 98.9636 95.563 98.6099 93.7212C97.8174 89.6211 96.4692 85.6483 94.6026 81.9128Z" fill="#191919"/>
<path d="M66.1172 100.439C66.3283 103.765 66.3283 107.1 66.1172 110.426C66.1172 111.269 67.226 111.293 67.4183 110.426C67.8271 107.177 67.9606 103.9 67.8173 100.629C70.3139 100.095 72.3218 97.3039 73.1097 95.5793C73.5148 96.1361 74.1185 96.5157 74.7958 96.6398C75.4731 96.7638 76.1722 96.6228 76.7483 96.2457C77.4914 95.5576 76.9261 94.6266 75.9937 94.9591C75.2709 95.215 74.6927 94.7799 74.3081 94.1264C73.7993 93.2706 73.1964 90.0165 74.4628 89.4108C75.6554 88.8412 77.4726 90.2782 77.7473 89.0451C78.5177 86.6295 78.6855 84.0621 78.2359 81.5669C82.5077 81.5669 92.2136 80.2022 92.9812 71.7251C93.866 61.9498 63.1913 69.3326 58.2978 75.9969C53.7687 82.1625 62.2444 98.0571 66.1172 100.439Z" fill="#191919"/>
<path d="M66.1466 108.121C65.9102 112.436 64.8407 116.046 64.7881 120.061C64.8045 120.228 64.8793 120.383 64.9994 120.499C65.1194 120.616 65.2768 120.686 65.4436 120.697C65.6104 120.708 65.7758 120.659 65.9102 120.56C66.0447 120.461 66.1396 120.317 66.178 120.154C66.9719 116.333 67.095 112.212 67.7958 108.24C67.9622 107.291 66.3247 107.198 66.1466 108.121Z" fill="#191919"/>
<path d="M92.6191 89.999C92.0218 87.9214 90.0542 87.831 90.8258 90.7562C91.5279 93.405 93.2492 92.1841 92.6191 89.999Z" fill="#191919"/>
<path d="M156.665 89.7188C157.29 89.09 161.905 88.7311 162.255 88.6197C163.05 88.3577 162.866 87.1879 162.202 86.9298C160.865 86.4058 157.08 87.1577 155.815 87.8468C154.549 88.5359 154.337 90.8454 153.212 93.2702C152.634 94.5147 151.86 95.6596 151.356 96.9303C151.111 97.55 151.859 97.9783 152.393 97.5526C154.944 95.5431 156.633 89.7502 156.665 89.7188Z" fill="#191919"/>
<path d="M153.563 100.576C153.388 100.567 153.216 100.62 153.078 100.727C152.939 100.833 152.843 100.984 152.806 101.155C152.768 101.325 152.793 101.504 152.874 101.658C152.956 101.812 153.09 101.932 153.252 101.997C162.277 105.303 161.723 111.32 162.979 112.749C163.25 113.059 165.025 113.719 164.586 111.177C163.701 106.05 158.799 100.988 153.563 100.576Z" fill="#191919"/>
<path d="M172.043 94.5198C175.551 103.072 175.724 105.182 175.496 114.432C175.47 115.469 177.025 115.886 177.3 114.825C178.894 108.684 177.027 98.8428 173.349 93.6605C172.807 92.8954 171.719 93.7325 172.043 94.5198Z" fill="#191919"/>
<path d="M166.293 97.2462C166.087 99.5701 164.62 99.5517 163.182 99.984C161.384 100.524 162.404 101.02 163.182 101.208C163.78 101.376 164.412 101.392 165.018 101.253C165.624 101.113 166.185 100.824 166.65 100.411C167.115 99.9976 167.468 99.4742 167.677 98.8886C167.887 98.3031 167.945 97.6743 167.848 97.0601C167.631 96.0357 166.381 96.2519 166.293 97.2462Z" fill="#191919"/>
<path d="M230.661 64.9107C232.652 64.8007 232.071 61.751 230.1 61.8624C215.865 62.6693 201.385 61.81 187.586 62.6719C186.014 62.7689 186.29 65.1491 187.717 65.3155C195.945 66.2744 222.625 65.3653 230.661 64.9107Z" fill="#191919"/>
<path d="M253.803 45.8952C236.841 45.3345 201.076 45.5022 185.314 47.1607C184.027 47.2917 183.675 49.6588 185.221 49.6497C203.263 49.537 233.008 48.3279 254.094 48.9947C256.106 49.0602 255.775 45.9607 253.803 45.8952Z" fill="#191919"/>
<path d="M251.698 89.2813C231.155 90.9843 206.533 88.8634 187.812 91.1271C186.329 91.3065 186.701 93.8309 188.226 93.7471C204.94 92.7475 229.703 93.4654 251.781 92.42C253.772 92.3192 253.719 89.1136 251.698 89.2813Z" fill="#191919"/>
<path d="M228.042 103.839C218.438 103.265 197.183 103.328 189.135 103.724C187.631 103.798 187.413 106.334 188.979 106.43C200.966 107.166 214.052 107.128 227.863 106.845C229.493 106.813 229.835 103.945 228.042 103.839Z" fill="#191919"/>
<path d="M45.4497 53.5159C52.8764 47.862 53.721 34.5515 48.0371 27.3811C41.8724 19.6056 28.5047 16.5726 19.7156 21.1512C8.36287 27.0667 5.45753 46.9461 14.8719 55.8417C20.4651 61.1258 28.4765 63.3275 39.8601 59.1443C42.6281 61.6718 46.3595 64.1932 50.0759 64.8343C50.1619 64.8508 50.2508 64.8424 50.3321 64.8099C50.4134 64.7775 50.4837 64.7224 50.5347 64.6512C50.5856 64.58 50.6151 64.4957 50.6197 64.4083C50.6242 64.3209 50.6036 64.234 50.5603 64.1579C49.1257 61.6674 46.3128 56.3006 45.4497 53.5159ZM49.2146 63.6806C46.0002 62.7119 42.8333 60.3041 40.4396 57.9668C40.3546 57.8849 40.2482 57.8285 40.1326 57.8042C40.017 57.7799 39.897 57.7887 39.7861 57.8294C31.292 60.9012 22.5311 60.9998 15.9252 54.7295C7.2999 46.5392 10.0247 27.957 20.4316 22.5242C28.5655 18.2776 41.1142 21.1221 46.8817 28.3031C52.2309 34.9637 51.4559 47.729 44.4555 52.8298C44.3607 52.8982 44.2892 52.9939 44.2507 53.1042C44.2121 53.2144 44.2082 53.3338 44.2397 53.4463C44.983 56.0857 47.8549 61.2984 49.2146 63.6806Z" fill="#191919"/>
<path d="M20.3314 34.4328C20.4306 33.6087 20.7724 32.8327 21.3136 32.2033C21.8547 31.5739 22.5707 31.1195 23.3706 30.8978C26.3649 29.9669 29.0016 31.708 30.8211 34.3139C31.323 33.801 31.8658 33.3297 32.4441 32.9048C34.4697 31.4958 37.1117 31.4517 38.8167 33.5213C39.4716 34.4117 39.9322 35.4297 40.1685 36.5094C40.4049 37.5891 40.4118 38.7065 40.1888 39.789C39.648 42.2549 36.851 44.9938 34.7999 46.5473C33.5035 47.5149 32.1229 48.3643 30.6749 49.0854C30.5952 49.1276 30.505 49.1455 30.4153 49.1369C30.3256 49.1283 30.2404 49.0935 30.1702 49.037C27.9589 47.2114 24.2803 44.0224 22.5568 41.6825C21.2948 40.1763 20.5086 38.3292 20.2979 36.3756C20.2434 35.7285 20.2546 35.0776 20.3314 34.4328Z" fill="#003090"/>
</svg>
