<svg width="262" height="262" viewBox="0 0 262 262" fill="none" xmlns="http://www.w3.org/2000/svg">
<path d="M247.266 208.745C167.448 209.153 84.3019 209.624 7.31974 209.531C6.37785 209.531 6.24554 211.009 7.20839 211.014C86.9573 211.47 167.336 210.752 247.11 210.359C248.178 210.356 248.303 208.74 247.266 208.745Z" fill="#191919"/>
<path d="M203.443 140.373C203.4 141.333 203.117 142.266 202.621 143.088C202.097 143.828 202.769 144.529 203.503 143.888C203.944 143.413 204.255 142.833 204.405 142.203C204.556 141.573 204.541 140.915 204.363 140.292C204.318 140.204 204.247 140.131 204.16 140.083C204.074 140.035 203.974 140.014 203.876 140.022C203.777 140.031 203.683 140.069 203.606 140.132C203.529 140.194 203.472 140.278 203.443 140.373Z" fill="#191919"/>
<path d="M203.646 136.089C204.848 135.161 205.702 133.855 206.071 132.383C206.367 131.218 205.656 130.456 204.981 131.915C204.536 133.116 203.875 134.226 203.03 135.19C202.37 135.931 202.741 136.54 203.646 136.089Z" fill="#191919"/>
<path d="M192.044 124.807C192.286 129.198 191.029 134.093 192.281 137.877C192.461 138.418 193.371 138.322 193.304 137.714C192.948 134.717 192.948 131.689 193.304 128.692C193.967 118.531 191.077 119.699 191.25 120.582C191.696 121.95 191.963 123.37 192.044 124.807Z" fill="#191919"/>
<path d="M202.094 134.033C203.227 132.435 203.87 130.542 203.946 128.585C203.846 127.102 202.736 126.99 202.671 128.354C202.502 130.107 201.948 131.8 201.048 133.314C200.595 134.321 201.204 135.218 202.094 134.033Z" fill="#191919"/>
<path d="M204.003 138C203.507 138.631 203.965 139.134 204.685 138.808C205.726 138.114 206.551 137.141 207.065 135.999C207.589 134.361 206.254 134.165 206.056 135.258C205.882 136.222 204.434 137.452 204.003 138Z" fill="#191919"/>
<path d="M197.37 129.736C197.754 128.92 200.138 125.806 200.231 126.215C200.101 128.55 199.272 130.792 197.852 132.65C197.511 133.095 198.007 133.931 198.89 133.213C200.312 132.055 201.603 127.884 201.447 126.066C201.435 125.905 201.389 125.748 201.313 125.605C201.236 125.463 201.13 125.338 201.003 125.239C200.875 125.141 200.727 125.07 200.57 125.032C200.413 124.993 200.25 124.989 200.091 125.018C198.73 125.247 197.016 127.83 196.525 129.341C196.369 129.833 197.139 130.225 197.37 129.736Z" fill="#191919"/>
<path d="M161.648 124.801C161.521 124.702 161.374 124.629 161.218 124.587C161.061 124.546 160.898 124.537 160.738 124.56C160.577 124.584 160.424 124.64 160.286 124.725C160.148 124.81 160.029 124.922 159.936 125.054C159.579 125.625 159.828 125.987 160.359 125.721C160.723 125.537 161.134 125.469 161.538 125.528C161.945 125.543 161.974 125.002 161.648 124.801Z" fill="#191919"/>
<path d="M153.24 131.993C153.017 131.489 152.128 131.862 152.217 132.423C152.597 134.802 155.781 135.894 157.117 135.604C157.568 135.505 157.893 135.19 157.554 134.802C157.024 134.198 154.581 135.04 153.24 131.993Z" fill="#191919"/>
<path d="M153.761 122.113C153.274 122.214 152.826 122.451 152.468 122.796C152.109 123.141 151.856 123.581 151.737 124.063C151.619 124.803 152.174 125.242 152.804 124.278C152.939 124.044 153.12 123.839 153.335 123.675C153.55 123.51 153.795 123.39 154.057 123.322C155.086 123.055 154.747 122.001 153.761 122.113Z" fill="#191919"/>
<path d="M155.971 125.992C155.64 125.86 155.272 125.856 154.938 125.982C154.605 126.108 154.331 126.355 154.17 126.673C153.908 127.185 154.133 127.608 154.726 127.26C155.089 127.022 155.514 126.895 155.949 126.896C156.412 126.892 156.468 126.243 155.971 125.992Z" fill="#191919"/>
<path d="M162.099 121.262C161.755 120.961 161.336 120.757 160.886 120.672C160.436 120.588 159.972 120.625 159.542 120.781C158.845 121.077 158.964 121.886 159.804 121.886C160.407 121.796 161.023 121.857 161.597 122.064C162.269 122.313 162.47 121.596 162.099 121.262Z" fill="#191919"/>
<path d="M157.856 130.213C157.201 130.798 158.049 131.272 159.471 130.606C159.731 130.529 159.956 130.365 160.11 130.143C160.263 129.92 160.336 129.652 160.316 129.382C160.054 128.318 159.597 127.313 158.967 126.416C158.443 125.883 158.181 126.588 158.412 127.158C158.723 127.932 158.971 128.731 159.153 129.546C159.185 129.622 158.015 130.069 157.856 130.213Z" fill="#191919"/>
<path d="M79.6716 79.8743C79.3337 84.7213 80.3489 97.8541 75.7285 102.374C71.8902 106.127 65.2787 102.864 62.5984 99.2165C62.0561 98.4763 61.4364 99.3933 61.9683 100.12C65.1529 104.462 72.3618 107.6 76.7438 103.308C81.1257 99.0147 80.5585 86.3614 80.6502 80.0669C80.6581 79.5337 79.7149 79.2573 79.6716 79.8743Z" fill="#191919"/>
<path d="M55.8197 90.7871C56.4666 91.9632 57.4433 92.9244 58.6296 93.5525C58.2194 97.1648 58.0954 100.804 58.2589 104.436C58.3349 106.326 59.4877 106.27 59.4379 104.436C59.3242 100.852 59.4651 97.2645 59.8597 93.7005C60.1217 91.3949 59.4052 93.4136 57.2057 90.2238C55.4843 87.7269 56.4197 85.0375 57.9471 84.8527C59.8008 84.634 60.8173 86.9972 61.6544 85.9872C63.2267 83.635 64.2407 80.9547 64.619 78.1508C69.1188 79.1988 84.8467 81.1179 85.7624 72.3868C86.8733 61.7876 67.273 61.5858 61.4396 68.9624C58.3401 65.3521 51.1797 69.3109 56.6358 83.789C54.604 85.023 54.2215 88.3622 55.8197 90.7871Z" fill="#191919"/>
<path d="M138.174 129.922C138.821 131.098 139.798 132.06 140.984 132.688C140.574 136.3 140.45 139.939 140.613 143.571C140.689 145.462 141.842 145.405 141.792 143.571C141.679 139.987 141.82 136.4 142.214 132.836C142.476 130.53 141.76 132.549 139.56 129.359C137.839 126.862 138.774 124.173 140.302 123.988C142.155 123.769 143.172 126.132 144.009 125.122C145.581 122.77 146.595 120.09 146.973 117.286C151.473 118.334 167.201 120.253 168.117 111.522C169.228 100.923 149.628 100.721 143.794 108.098C140.695 104.487 133.534 108.446 138.99 122.924C136.959 124.158 136.576 127.497 138.174 129.922Z" fill="#191919"/>
<path d="M78.713 82.6846C78.0654 82.0979 77.2285 81.7636 76.355 81.7427C75.4576 81.8029 75.2271 82.826 76.2947 83.0527C76.8853 83.072 77.4574 83.2627 77.9414 83.6016C78.7719 84.3378 79.4715 83.3658 78.713 82.6846Z" fill="#191919"/>
<path d="M72.4438 92.8454C71.4364 92.7786 70.8128 93.9118 72.6442 94.0389C73.8153 94.1201 74.4153 93.8004 74.7048 93.2529C75.1411 92.4289 74.9865 89.1788 74.7048 87.7364C74.7048 87.6096 74.6545 87.488 74.5648 87.3983C74.4751 87.3087 74.3535 87.2583 74.2267 87.2583C74.0999 87.2583 73.9782 87.3087 73.8886 87.3983C73.7989 87.488 73.7485 87.6096 73.7485 87.7364C73.8717 92.0437 74.3472 92.9712 72.4438 92.8454Z" fill="#191919"/>
<path d="M67.0158 93.8868C66.6307 97.7788 71.6008 99.4241 73.013 98.1194C73.0785 98.0428 73.1228 97.9504 73.1415 97.8514C73.1602 97.7524 73.1527 97.6502 73.1197 97.555C73.0868 97.4598 73.0295 97.3748 72.9535 97.3086C72.8776 97.2424 72.7856 97.1972 72.6868 97.1775C72.1646 97.3125 71.6196 97.334 71.0884 97.2408C70.5571 97.1475 70.052 96.9415 69.6071 96.6367C69.1621 96.3318 68.7876 95.9352 68.5088 95.4736C68.2299 95.0119 68.0532 94.4958 67.9905 93.9601C67.991 93.8362 67.9445 93.7167 67.8604 93.6257C67.7763 93.5347 67.6609 93.4789 67.5373 93.4696C67.4138 93.4603 67.2913 93.4982 67.1945 93.5756C67.0977 93.653 67.0339 93.7642 67.0158 93.8868Z" fill="#191919"/>
<path d="M77.1249 89.271C78.148 89.1924 78.0668 87.0558 77.1249 87.1135C76.4214 87.1567 76.124 89.3483 77.1249 89.271Z" fill="#191919"/>
<path d="M70.0502 86.9951C69.0979 87.1719 69.3088 89.1003 70.0502 89.0623C70.7917 89.0243 71.0052 86.8169 70.0502 86.9951Z" fill="#191919"/>
<path d="M70.692 82.1833C70.1051 81.5283 67.641 81.9842 67.286 83.6059C67.1969 84.0147 67.6489 84.8295 68.427 83.8509C69.2052 82.8723 70.1196 83.3688 70.4287 83.2653C70.5331 83.2287 70.6267 83.1665 70.7009 83.0845C70.7752 83.0025 70.8278 82.9032 70.8539 82.7957C70.8801 82.6882 70.879 82.5759 70.8507 82.469C70.8224 82.362 70.7679 82.2638 70.692 82.1833Z" fill="#191919"/>
<path d="M60.9417 137.77C61.2526 130.633 62.119 123.532 63.5329 116.531C63.7136 115.633 62.5766 115.382 62.3905 116.269C61.4395 120.814 59.2033 133.245 59.9291 137.767C59.949 137.887 60.0107 137.995 60.1032 138.074C60.1956 138.153 60.3129 138.196 60.4343 138.196C60.5556 138.196 60.6731 138.154 60.766 138.076C60.8589 137.998 60.9211 137.889 60.9417 137.77Z" fill="#191919"/>
<path d="M102.548 189.389C102.928 188.19 103.163 171.025 102.881 169.031C102.848 168.92 102.779 168.821 102.686 168.752C102.593 168.682 102.479 168.644 102.362 168.644C102.246 168.644 102.132 168.682 102.039 168.752C101.945 168.821 101.877 168.92 101.844 169.031C101.495 170.914 101.836 179.877 101.288 189.389C101.25 190.041 102.341 190.039 102.548 189.389Z" fill="#191919"/>
<path d="M38.8755 169.523C38.7982 173.322 41.0174 187.318 41.84 192.392C42.0811 193.877 42.0339 194.095 43.509 194.528C59.6587 199.278 83.0828 196.281 100.443 194.765C100.54 194.755 100.635 194.726 100.721 194.68C100.807 194.634 100.883 194.571 100.945 194.495C101.007 194.419 101.053 194.332 101.081 194.239C101.109 194.145 101.119 194.047 101.109 193.949C101.099 193.852 101.07 193.758 101.024 193.672C100.978 193.585 100.915 193.509 100.839 193.447C100.764 193.386 100.676 193.339 100.583 193.311C100.489 193.283 100.391 193.273 100.294 193.283C82.0531 194.883 61.2333 197.567 43.4644 193.172C42.3811 186.098 40.8837 178.552 39.9576 169.449C39.9432 168.827 38.8886 168.87 38.8755 169.523Z" fill="#191919"/>
<path d="M40.1591 138.357C39.0023 139.582 37.6792 144.676 37.4749 146.178C37.4683 146.299 37.5054 146.417 37.5793 146.512C37.6532 146.608 37.7591 146.673 37.8773 146.696C37.9955 146.72 38.1183 146.7 38.2229 146.64C38.3275 146.58 38.4071 146.484 38.4469 146.371C39.6468 141.36 40.9058 139.96 40.9961 138.781C41.0276 138.372 40.4682 138.03 40.1591 138.357Z" fill="#191919"/>
<path d="M115.558 169.159C116.441 169.103 116.493 168.033 115.558 167.966C108.384 167.479 101.258 166.455 94.2374 164.905C93.112 159.218 92.8619 153.393 93.4959 147.631C93.6086 146.735 92.482 146.772 92.3693 147.631C91.6383 153.208 91.4353 159.211 93.1108 164.615C90.9309 164.007 84.4739 162.388 82.7316 160.998C81.9476 155.577 81.6844 150.094 81.9456 144.623C91.8895 144.436 101.798 145.856 111.29 148.827C111.824 148.995 111.867 148.241 111.393 147.952C108.118 145.953 101.475 144.749 97.5831 144.245C97.346 142.658 96.1591 137.751 95.4033 136.936C95.3509 136.89 95.2899 136.854 95.2237 136.831C95.1575 136.808 95.0874 136.798 95.0174 136.802C94.9474 136.806 94.879 136.824 94.8159 136.855C94.7529 136.885 94.6965 136.928 94.65 136.981C94.126 137.565 95.3823 138.946 96.2705 144.082C91.7922 143.493 87.2799 143.201 82.7631 143.207C81.0509 143.207 80.6579 143.207 80.4876 144.779C80.153 149.881 80.3518 155.005 81.081 160.065C81.3339 161.962 81.6574 162.292 83.5268 163.238C88.8664 165.943 108.887 169.592 115.558 169.159Z" fill="#191919"/>
<path d="M59.5102 154.937C58.7098 164.515 60.1063 182.605 61.6678 192.455C61.7988 193.314 63.1429 193.198 63.025 192.324C61.4186 179.939 60.6013 167.465 60.5779 154.976C60.5622 154.848 60.5015 154.73 60.4067 154.643C60.312 154.556 60.1893 154.506 60.0608 154.501C59.9323 154.497 59.8062 154.538 59.7053 154.618C59.6044 154.697 59.5353 154.81 59.5102 154.937Z" fill="#191919"/>
<path d="M29.3279 173.301C33.5241 171.958 37.3168 169.585 40.3594 166.399C41.2397 165.482 41.5515 165.013 40.6555 163.841C38.9413 161.839 37.7145 159.467 37.0712 156.911C36.428 154.356 36.3859 151.685 36.9482 149.11C37.1945 147.761 36.9482 146.992 35.5478 147.368C31.4265 148.476 24.3565 151.07 21.4627 153.722C21.0016 154.143 21.5439 154.923 22.0705 154.611C26.2386 151.995 30.7917 150.05 35.5635 148.847C34.3845 155.74 36.2015 159.64 39.8564 165.03C38.287 166.715 36.4991 168.184 34.5404 169.396C28.3729 164.355 26.7734 157.897 27.1271 154.881C27.1992 154.273 25.9403 153.309 25.956 155.066C25.9818 157.966 26.6697 160.823 27.9671 163.417C29.2646 166.012 31.1373 168.276 33.4426 170.036C32.2341 170.708 30.9717 171.278 29.6685 171.739C21.8793 174.49 17.8235 172.725 16.2214 164.697C13.6734 151.931 24.1259 132.573 32.2938 123.108C38.8582 115.5 41.1009 115.282 51.3163 111.758C52.237 114.323 53.6624 116.677 55.5083 118.682C57.2545 120.584 57.9711 118.107 63.0761 114.145C64.8154 115.786 66.399 117.584 67.8065 119.516C68.4104 120.267 69.1165 120.204 70.0335 119.835C75.4011 117.354 80.2355 113.855 84.268 109.53C85.2688 110.486 97.761 114.676 105.381 122.199C112.43 129.16 122.005 146.232 123.306 156.368C123.419 157.242 124.464 157.005 124.354 156.123C123.044 145.913 113.974 128.792 106.276 121.277C100.479 115.611 92.4883 111.555 84.9793 108.671C85.0537 108.578 85.1086 108.47 85.1407 108.356C85.1728 108.241 85.1814 108.121 85.1662 108.003C85.1509 107.884 85.112 107.771 85.0517 107.668C84.9915 107.565 84.9112 107.475 84.8156 107.404C83.539 106.237 82.168 105.178 80.7166 104.238C79.3843 103.395 79.3359 103.36 78.1071 104.432C73.019 108.867 70.3231 110.413 63.1914 112.356C60.8728 110.808 58.8179 108.899 57.1052 106.699C56.3676 105.755 56.3047 105.624 55.186 106.203C53.6284 107.01 50.4923 109.309 50.8931 110.465C40.0581 114.233 38.0971 114.181 31.2261 122.267C23.0294 131.915 12.4473 151.127 14.8197 164.434C16.3327 172.918 20.6714 176.062 29.3279 173.301ZM79.5455 105.05C81.0031 105.972 82.3816 107.014 83.6667 108.164C79.6275 112.768 74.5997 116.399 68.9593 118.787C67.5291 116.804 65.8775 114.991 64.0364 113.383C69.9084 112.18 75.2999 109.285 79.5455 105.054V105.05ZM56.0965 107.23C57.6613 109.595 59.6949 111.613 62.0714 113.16C60.1486 114.529 58.4183 116.149 56.927 117.978C54.8105 115.799 53.1612 113.211 52.08 110.372C53.1868 109.062 54.5518 107.993 56.0899 107.234L56.0965 107.23Z" fill="#191919"/>
<path d="M70.9276 155.978C70.9276 155.757 70.8463 155.46 70.6014 155.392C69.3922 155.061 69.8599 156.44 65.9234 156.334C65.7911 156.311 65.655 156.338 65.5415 156.41C65.428 156.482 65.3452 156.593 65.3093 156.722C65.2734 156.852 65.2868 156.99 65.347 157.11C65.4073 157.23 65.51 157.323 65.6352 157.372C67.5438 158.138 70.9092 157.061 70.9276 155.978Z" fill="#191919"/>
<path d="M68.5648 141.027C67.9268 140.924 67.8823 141.881 68.4338 142.095C72.4122 143.645 74.017 142.635 77.7452 145.75C78.1972 146.128 79.0657 145.802 78.864 145.095C78.2404 142.888 72.7751 141.711 68.5648 141.027Z" fill="#191919"/>
<path d="M71.5814 160.137C72.3674 159.568 71.8709 158.545 70.9068 158.974C69.861 159.518 68.6496 159.65 67.5112 159.345C66.9034 159.234 66.7632 159.924 67.282 160.368C68.2619 161.206 70.5884 160.858 71.5814 160.137Z" fill="#191919"/>
<path d="M64.2231 153.156C63.6991 153.28 63.7934 154.274 64.3541 154.239C70.5949 153.846 72.4472 147.179 71.1517 146.032C71.0648 145.955 70.9527 145.912 70.8366 145.912C70.7205 145.912 70.6084 145.955 70.5215 146.032C69.353 147.064 70.6814 151.635 64.2231 153.156Z" fill="#191919"/>
<path d="M69.907 163.356C74.361 164.498 79.3154 161.25 79.208 159.449C79.208 159.004 78.6526 158.56 78.2229 158.878C77.7932 159.196 76.3326 162.659 70.0681 162.318C69.9439 162.322 69.825 162.37 69.732 162.452C69.639 162.535 69.5777 162.647 69.5586 162.77C69.5395 162.893 69.5639 163.019 69.6275 163.126C69.6911 163.232 69.7899 163.314 69.907 163.356Z" fill="#191919"/>
<path d="M39.6278 148.208C41.4985 145.789 45.9761 141.134 49.3978 143.064C50.1759 143.503 50.7235 142.325 49.9401 141.885C45.9289 139.636 40.2893 144.014 38.8195 147.267C38.2497 148.524 39.278 148.66 39.6278 148.208Z" fill="#191919"/>
<path d="M51.9727 157.184C50.5146 157.026 49.0923 156.631 47.7623 156.013C47.2383 155.923 45.9283 157.311 49.4077 158.109C53.3508 159.017 52.6617 157.229 51.9727 157.184Z" fill="#191919"/>
<path d="M46.9657 159.247C45.5496 158.558 45.5679 160.495 47.9967 161.115C48.7394 161.305 50.9717 161.276 50.7621 160.373C50.5708 159.559 49.8202 160.634 46.9657 159.247Z" fill="#191919"/>
<path d="M48.4573 163.36C49.0665 163.046 48.7599 162.11 48.1154 162.312C45.8884 162.993 44.3413 162.926 41.2143 161.763C41.1041 161.73 40.9861 161.734 40.8786 161.775C40.771 161.816 40.6799 161.891 40.6193 161.989C40.5586 162.087 40.5318 162.202 40.543 162.316C40.5542 162.431 40.6028 162.538 40.6812 162.622C41.8162 163.377 43.12 163.839 44.4767 163.967C45.8333 164.096 47.2008 163.887 48.4573 163.36Z" fill="#191919"/>
<path d="M54.1469 154.228C50.0702 152.115 49.1217 150.855 48.024 148.624C47.7947 148.156 46.714 148.332 47.0899 149.594C47.8458 152.119 51.3972 154.22 53.6137 155.358C53.6893 155.404 53.7736 155.433 53.8611 155.444C53.9487 155.455 54.0375 155.447 54.122 155.422C54.2064 155.396 54.2845 155.353 54.3512 155.295C54.418 155.238 54.4719 155.167 54.5094 155.087C54.5469 155.007 54.5673 154.92 54.5691 154.832C54.5709 154.744 54.5542 154.656 54.5201 154.575C54.4859 154.493 54.435 154.42 54.3707 154.36C54.3065 154.299 54.2302 154.253 54.1469 154.224V154.228Z" fill="#191919"/>
<path d="M198.965 177.569C196.746 180.339 195.495 185.758 198.728 187.949C202.301 190.368 206.764 187.867 208.946 184.716C211.435 181.135 211.778 175.965 208.946 174.152C205.83 172.154 201.499 174.408 198.965 177.569ZM209.017 181.514C207.576 185.22 202.899 188.93 199.654 186.792C197.125 185.126 198.344 180.358 200.076 178.325C201.613 176.518 204.353 174.439 206.926 174.901C210.01 175.455 209.87 179.326 209.017 181.514Z" fill="#191919"/>
<path d="M166.936 201.505C166.861 201.505 144.317 201.858 140.358 202.017C137.345 202.139 136.652 202.366 136.652 205.101C136.56 205.728 136.689 206.368 137.018 206.909C137.347 207.451 137.855 207.86 138.454 208.067C138.964 208.181 139.195 207.533 138.854 207.162C138.581 206.929 138.37 206.631 138.241 206.295C138.111 205.96 138.067 205.598 138.113 205.241C138.202 203.669 138.157 203.502 140.255 203.434C148.758 203.153 156.817 203.449 165.653 203.047C167.536 202.962 168.062 203.13 168.329 201.268C170.008 189.541 171.641 174.447 173.644 161.563C174.585 155.514 179.878 154.133 185.35 153.958C197.262 153.572 213.81 153.28 225.863 153.097C236.153 152.94 234.849 157.115 234.285 163.476C232.975 178.303 231.516 191.283 229.622 204.041C229.499 204.863 229.15 205.634 228.614 206.268C228.536 206.312 228.469 206.372 228.416 206.444C228.363 206.516 228.325 206.599 228.306 206.686C228.287 206.773 228.287 206.864 228.305 206.951C228.323 207.039 228.36 207.121 228.412 207.194C228.465 207.266 228.532 207.327 228.609 207.372C228.687 207.416 228.773 207.444 228.861 207.454C228.95 207.463 229.04 207.453 229.125 207.425C229.21 207.397 229.288 207.352 229.354 207.292C230.318 206.336 230.928 205.081 231.082 203.734C232.683 190.792 234.399 178.225 235.59 165.148C236.535 154.77 236.561 151.589 226.923 151.544C215.589 151.492 195.047 152.485 186.195 152.501C178.715 152.513 173.488 154.247 172.339 161.945C170.381 175.102 168.514 188.629 166.936 201.505Z" fill="#191919"/>
<path d="M102.094 196.298C84.4094 198.618 52.6616 200.79 42.2693 195.734C42.1056 198.223 42.1278 204.163 42.061 207.461C47.4726 207.395 98.5875 207.18 102.109 207.04C102.153 205.356 102.311 198.936 102.094 196.298Z" fill="#191919"/>
<path d="M163.964 122.373C163.606 127.506 164.681 141.414 159.788 146.201C155.723 150.175 148.721 146.719 145.882 142.857C145.308 142.073 144.652 143.044 145.215 143.814C148.588 148.412 156.222 151.736 160.863 147.19C165.504 142.643 164.903 129.243 165 122.577C165.008 122.012 164.009 121.72 163.964 122.373Z" fill="#191919"/>
<path d="M223.893 121.568C223.291 130.201 223.316 140.731 216.288 147.909C215.554 148.657 216.636 149.887 217.362 149.131C224.649 141.547 225.405 132.006 225.287 121.657C225.293 121.566 225.281 121.474 225.251 121.387C225.222 121.301 225.175 121.22 225.115 121.152C225.054 121.083 224.98 121.026 224.898 120.986C224.816 120.946 224.726 120.922 224.635 120.916C224.543 120.91 224.452 120.922 224.365 120.952C224.278 120.982 224.198 121.028 224.129 121.089C224.06 121.149 224.004 121.223 223.963 121.305C223.923 121.387 223.899 121.477 223.893 121.568Z" fill="#003090"/>
<path d="M222.398 59.2739C222.214 57.1242 222.209 52.9309 221.796 51.1519C221.665 50.5964 220.78 50.455 220.625 51.0785C220.355 53.9111 220.425 56.7658 220.834 59.5817C220.958 60.5564 222.491 60.3782 222.398 59.2739Z" fill="#003090"/>
<path d="M189.688 87.1437C190.786 87.2249 195.381 86.3341 197.057 86.1716C197.909 86.0904 197.799 84.6258 196.909 84.69C195.583 84.783 190.652 85.2822 189.429 86.0171C189.327 86.0883 189.249 86.1883 189.204 86.3042C189.16 86.4202 189.151 86.5468 189.178 86.6678C189.206 86.7888 189.27 86.8988 189.36 86.9836C189.451 87.0684 189.565 87.1241 189.688 87.1437Z" fill="#003090"/>
<path d="M198.05 64.0924C199.753 65.5714 200.633 66.2461 201.756 67.2731C202.557 68.0054 203.733 67.2312 203.046 66.3915C201.637 64.8902 200.077 63.5385 198.39 62.358C197.021 61.1357 196.245 62.5309 198.05 64.0924Z" fill="#003090"/>
<path d="M242.615 57.0482C241.251 58.0202 239.078 61.6843 238.278 63.0833C238.218 63.1741 238.177 63.2764 238.158 63.3837C238.138 63.4911 238.141 63.6012 238.166 63.7074C238.192 63.8135 238.238 63.9133 238.304 64.0007C238.369 64.088 238.452 64.1609 238.546 64.215C238.641 64.269 238.746 64.303 238.854 64.3148C238.963 64.3266 239.072 64.3159 239.177 64.2835C239.281 64.2511 239.377 64.1976 239.46 64.1263C239.542 64.0551 239.609 63.9676 239.657 63.8693C240.884 61.7943 242.237 59.7887 243.496 57.732C243.735 57.3403 243.023 56.7521 242.615 57.0482Z" fill="#003090"/>
<path d="M205.331 84.0676C205.855 91.2294 211.028 97.3523 216.621 101.459C217.361 102.003 217.931 101.088 217.296 100.496C213.069 96.5165 208.672 92.3402 207.325 86.4112C202.575 65.4996 239.619 62.5325 239.833 81.7437C239.91 88.7639 235.379 94.5568 231.226 99.7954C230.58 100.61 231.517 101.288 232.205 100.537C236.494 95.8497 240.814 90.1591 241.375 83.4859C243.275 61.2133 203.734 62.4212 205.331 84.0676Z" fill="#003090"/>
<path d="M254.652 77.7579C252.073 78.0579 249.463 78.4011 246.923 78.8635C246.183 78.9945 246.485 80.146 247.16 80.0936C249.755 79.8936 252.345 79.6019 254.93 79.2185C255.807 79.0889 255.475 77.6636 254.652 77.7579Z" fill="#003090"/>
<path d="M229.535 85.9076C235.595 80.5798 228.444 75.4393 225.874 81.5924C225.243 83.1078 224.746 84.6758 224.391 86.2783C222.989 86.5272 221.562 86.5993 220.142 86.4931C219.595 84.4548 218.846 81.1221 216.736 80.2051C212.423 78.3292 210.162 86.5363 218.864 87.959C219.844 92.0852 220.609 96.2598 221.155 100.466C221.172 100.596 221.236 100.716 221.335 100.803C221.434 100.89 221.561 100.938 221.693 100.938C221.824 100.938 221.952 100.89 222.051 100.803C222.149 100.716 222.213 100.596 222.231 100.466C222.16 96.3096 221.6 92.1765 220.562 88.1516C221.733 88.1986 222.906 88.1438 224.068 87.9878C223.51 92.0707 223.736 96.2227 224.735 100.221C224.957 101.236 226.078 100.961 225.892 99.9822C225.117 95.9157 225.099 91.7411 225.84 87.6682C227.206 87.4201 228.482 86.8124 229.535 85.9076ZM229.58 80.6138C231.647 81.9736 228.416 85.3298 226.229 85.8538C227.438 80.999 228.816 80.1108 229.58 80.6138ZM214.753 83.8613C213.9 82.2003 215.375 80.7252 216.732 82.1269C217.578 83.353 218.145 84.7494 218.394 86.218C217.657 86.092 216.953 85.8181 216.325 85.4128C215.697 85.0076 215.157 84.4794 214.739 83.86L214.753 83.8613Z" fill="#003090"/>
<path d="M253.016 98.6938C250.797 97.4161 248.459 96.3587 246.034 95.5367C245.41 95.3664 245.019 96.3227 245.536 96.6777C247.624 98.0886 250.129 98.8052 252.305 100.084C253.682 100.9 254.714 99.8506 253.016 98.6938Z" fill="#003090"/>
<path d="M204.838 101.334C203.874 101.516 200.602 105.411 200.122 106.312C199.154 108.146 200.524 108.337 200.826 107.795C202.199 105.331 204.635 103.649 205.349 102.605C205.684 102.119 205.608 101.189 204.838 101.334Z" fill="#003090"/>
<path d="M217.025 102.959C216.654 112.937 218.796 119.061 224.238 119.072C231.169 119.082 231.918 110.762 231.451 102.452C226.668 103.058 221.839 103.228 217.025 102.959ZM228.108 112.047C226.227 113.307 224.07 114.093 221.82 114.339C220.989 114.353 220.829 113.432 221.619 113.234C223.656 112.747 225.587 111.896 227.32 110.72C227.494 110.646 227.689 110.637 227.868 110.696C228.048 110.754 228.2 110.876 228.296 111.039C228.392 111.201 228.426 111.393 228.392 111.578C228.357 111.764 228.256 111.931 228.108 112.047ZM228.33 107.103C226.71 108.395 221.221 109.772 220.427 109.723C219.842 109.723 219.484 109.091 220.064 108.708C221.093 108.03 224.387 107.46 227.478 105.826C228.522 105.276 229.329 106.307 228.336 107.103H228.33Z" fill="#003090"/>
<path d="M156.258 161.463C154.435 158.862 147.407 153.88 141.573 149.781C136.658 151.262 127.533 155.563 122.61 160.582C117.687 165.6 109.588 189.018 111.667 200.613C113.108 208.648 119.311 207.596 135.39 207.448C135.034 206.328 134.687 202.325 136.717 201.131C138.748 199.938 158.631 200.083 165.629 200.146C165.918 198.566 166.482 194.216 167.112 188.959C154.939 188.217 139.505 190.169 127.419 191.147C126.677 191.206 126.626 190.516 127.322 190.405C128.966 190.058 130.623 189.779 132.289 189.567C132.49 186.602 133.525 176.86 134.632 173.999C134.865 173.4 135.515 173.62 135.41 174.207C134.549 179.24 133.985 184.319 133.72 189.419C144.859 188.105 156.072 187.511 167.287 187.64C171.027 157.649 170.5 154.862 177.332 152.375C175.367 151.382 165.952 148.521 161.387 148.521C161.033 150.225 158.364 158.653 156.258 161.463Z" fill="#003090"/>
<path d="M188.609 151.042C192.582 150.902 199.84 150.716 202.404 150.576C202.583 149.545 202.887 147.956 203.48 145.541C201.997 144.493 194.035 140.411 191.69 139.384C191.508 140.178 189.358 148.096 188.609 151.042Z" fill="#003090"/>
<path d="M39.781 76.1045C47.1193 70.5179 47.9538 57.3659 42.3376 50.2808C36.2463 42.5979 23.0377 39.601 14.3533 44.1251C3.1357 49.9701 0.26495 69.6129 9.56725 78.4026C15.0938 83.6238 23.0099 85.7992 34.2579 81.6658C36.9929 84.1633 40.6799 86.6546 44.3521 87.2881C44.4371 87.3044 44.5249 87.2961 44.6052 87.264C44.6856 87.232 44.755 87.1775 44.8054 87.1072C44.8558 87.0369 44.8849 86.9536 44.8894 86.8672C44.8939 86.7808 44.8735 86.695 44.8307 86.6198C43.4132 84.1589 40.6338 78.856 39.781 76.1045ZM43.5011 86.1482C40.3249 85.191 37.1957 82.8119 34.8305 80.5024C34.7465 80.4214 34.6414 80.3657 34.5272 80.3417C34.413 80.3177 34.2944 80.3264 34.1848 80.3666C25.7919 83.4019 17.1353 83.4993 10.608 77.3036C2.08538 69.2108 4.77774 50.8499 15.0607 45.4817C23.0978 41.2857 35.4971 44.0964 41.1959 51.1919C46.4815 57.7731 45.7157 70.3865 38.7986 75.4266C38.705 75.4941 38.6343 75.5887 38.5962 75.6976C38.5581 75.8066 38.5543 75.9246 38.5854 76.0357C39.3198 78.6437 42.1575 83.7943 43.5011 86.1482Z" fill="#191919"/>
<path d="M12.4297 62.2201C12.533 62.266 12.6305 62.3061 12.7223 62.3405C12.814 62.3635 12.9058 62.3864 12.9976 62.4094C13.3646 62.5241 13.6744 62.7019 13.9267 62.9428C14.1906 63.1837 14.3971 63.4762 14.5462 63.8203C14.6838 64.1301 14.7699 64.457 14.8043 64.8011C14.8387 65.1453 14.81 65.4894 14.7182 65.8335C14.4659 66.8889 13.812 67.6116 12.7567 68.0016C12.4928 68.1048 12.2175 68.1966 11.9307 68.2769C11.644 68.3457 11.3514 68.4031 11.0532 68.449C10.8123 68.4605 10.5714 68.4432 10.3305 68.3974C10.0437 68.3056 9.86591 68.1048 9.79708 67.7951C9.73972 67.6001 9.79134 67.4395 9.95194 67.3133C10.1125 67.2101 10.2674 67.2101 10.4165 67.3133C10.4854 67.3592 10.5771 67.365 10.6918 67.3305C11.0245 67.2388 11.3514 67.1298 11.6726 67.0036C11.9938 66.866 12.2978 66.6939 12.5846 66.4874C12.8484 66.2924 13.0549 66.0687 13.204 65.8163C13.3646 65.564 13.4564 65.2772 13.4794 64.956C13.5252 64.5889 13.4507 64.2677 13.2557 63.9924C13.0607 63.7171 12.7567 63.5393 12.3437 63.459C12.1946 63.436 12.034 63.4303 11.8619 63.4418C11.7013 63.4532 11.535 63.4532 11.3629 63.4418C11.0302 63.3959 10.8008 63.2525 10.6746 63.0116C10.5484 62.7707 10.5829 62.5069 10.7779 62.2201C10.8696 62.0939 10.9671 61.9735 11.0704 61.8587C11.1851 61.7326 11.2941 61.6064 11.3973 61.4802C11.5235 61.354 11.644 61.2164 11.7587 61.0672C11.8734 60.9181 11.9824 60.769 12.0856 60.6198C12.1544 60.5854 12.1716 60.5453 12.1372 60.4994C12.1143 60.4765 12.0856 60.465 12.0512 60.465C12.0282 60.465 12.0053 60.465 11.9824 60.465C11.6497 60.5568 11.3228 60.6715 11.0016 60.8091C10.6918 60.9353 10.3993 61.1131 10.124 61.3425C10.0781 61.3884 10.0265 61.4458 9.96915 61.5146C9.92326 61.5834 9.88885 61.658 9.86591 61.7383C9.78561 62.048 9.6078 62.1168 9.33249 61.9448C9.18336 61.853 9.08586 61.7211 9.03997 61.549C8.99409 61.3655 9.0113 61.1762 9.09159 60.9812C9.16042 60.7977 9.25793 60.6371 9.38411 60.4994C9.5103 60.3617 9.64795 60.2413 9.79708 60.1381C10.1412 59.8742 10.5083 59.6677 10.8983 59.5186C11.2998 59.3695 11.707 59.272 12.12 59.2261C12.2347 59.2031 12.338 59.2031 12.4297 59.2261C12.533 59.2376 12.6362 59.2548 12.7395 59.2777C13.0262 59.358 13.2385 59.5129 13.3761 59.7423C13.5138 59.9602 13.5482 60.2184 13.4794 60.5166C13.4449 60.7231 13.3704 60.9181 13.2557 61.1016C13.1524 61.2852 13.0377 61.463 12.9115 61.6351C12.7395 61.8301 12.5789 62.0251 12.4297 62.2201ZM21.8022 63.958C21.8367 63.8547 21.8711 63.7515 21.9055 63.6483C21.9399 63.545 21.9801 63.4475 22.0259 63.3557C22.2439 62.8166 22.5536 62.352 22.9551 61.962C23.0813 61.8587 23.2017 61.7727 23.3165 61.7039C23.4426 61.6351 23.5803 61.6006 23.7294 61.6006C23.9818 61.6006 24.1825 61.6637 24.3317 61.7899C24.4808 61.9161 24.607 62.0767 24.7102 62.2717C24.7676 62.3749 24.8077 62.4839 24.8307 62.5986C24.8536 62.7134 24.8823 62.8281 24.9167 62.9428C24.9855 62.9084 25.0314 62.8682 25.0544 62.8223C25.0773 62.765 25.0945 62.7134 25.106 62.6675C25.2207 62.438 25.3411 62.2201 25.4673 62.0136C25.605 61.8071 25.7656 61.6178 25.9491 61.4458C26.2818 61.159 26.6489 61.0099 27.0504 60.9984C27.4518 60.9869 27.8017 61.1991 28.1 61.6351C28.2606 61.853 28.3753 62.0824 28.4441 62.3233C28.5129 62.5642 28.5703 62.8051 28.6162 63.046C28.6965 63.5393 28.7481 64.0268 28.771 64.5086C28.794 64.9904 28.7768 65.4779 28.7194 65.9712C28.6735 66.2006 28.6449 66.43 28.6334 66.6595C28.6219 66.8774 28.6047 67.1011 28.5818 67.3305C28.5703 67.4452 28.5818 67.5772 28.6162 67.7263C28.6391 67.8525 28.6162 67.9729 28.5474 68.0876C28.49 68.2024 28.3982 68.2769 28.272 68.3113C28.1573 68.3572 28.0426 68.363 27.9279 68.3285C27.8247 68.2827 27.7329 68.2024 27.6526 68.0876C27.5838 67.927 27.5321 67.7722 27.4977 67.6231C27.4518 67.2674 27.4002 66.9118 27.3429 66.5562C27.2855 66.2006 27.2282 65.8507 27.1708 65.5066C27.1479 65.2772 27.1307 65.0478 27.1192 64.8183C27.1192 64.5889 27.1192 64.3595 27.1192 64.1301C27.1077 63.935 27.0848 63.7458 27.0504 63.5622C27.0159 63.3787 26.9873 63.1894 26.9643 62.9944C26.9528 62.937 26.9356 62.8797 26.9127 62.8223C26.9012 62.765 26.8668 62.7134 26.8095 62.6675C26.6833 62.7248 26.5743 62.8051 26.4825 62.9084C26.3908 63.0001 26.299 63.1091 26.2072 63.2353C26.0581 63.4647 25.9147 63.7114 25.777 63.9752C25.6509 64.2276 25.5361 64.4857 25.4329 64.7495C25.3526 65.0019 25.2723 65.26 25.192 65.5238C25.1232 65.7762 25.0658 66.0343 25.0199 66.2981C25.0085 66.3899 25.0027 66.4817 25.0027 66.5734C25.0027 66.6537 24.9913 66.734 24.9683 66.8143C24.9454 67.2158 24.7561 67.4338 24.4005 67.4682C24.0678 67.5255 23.8441 67.3592 23.7294 66.9692C23.6721 66.7742 23.6319 66.5792 23.609 66.3842C23.5975 66.1891 23.5688 65.9999 23.5229 65.8163C23.4885 65.4837 23.4598 65.1567 23.4369 64.8355C23.4254 64.5143 23.414 64.1931 23.4025 63.872C23.4025 63.8031 23.3853 63.763 23.3509 63.7515C23.282 63.7859 23.2362 63.8375 23.2132 63.9064C23.1903 63.9637 23.1673 64.0211 23.1444 64.0784C22.6741 65.26 22.4217 66.4759 22.3873 67.7263C22.3873 67.8066 22.3815 67.8984 22.3701 68.0016C22.3586 68.1048 22.3242 68.2024 22.2668 68.2941C22.1177 68.5121 21.9227 68.6268 21.6818 68.6383C21.4409 68.6612 21.2287 68.5694 21.0451 68.363C20.9304 68.2138 20.8444 68.0188 20.787 67.7779C20.6838 67.3879 20.592 66.9921 20.5117 66.5906C20.4314 66.1891 20.3626 65.7934 20.3052 65.4034C20.2249 64.9216 20.1561 64.4455 20.0988 63.9752C20.0414 63.4934 20.0127 63.0116 20.0127 62.5298C20.0013 62.3692 20.0013 62.2029 20.0127 62.0308C20.0242 61.8587 20.0586 61.6924 20.116 61.5318C20.1848 61.4056 20.2823 61.2967 20.4085 61.2049C20.5347 61.1131 20.6609 61.073 20.787 61.0844C20.9362 61.0844 21.0624 61.1303 21.1656 61.2221C21.2803 61.3139 21.3606 61.4343 21.4065 61.5834C21.4638 61.7211 21.4925 61.8645 21.4925 62.0136C21.504 62.1513 21.5212 62.3004 21.5441 62.461C21.6015 62.8854 21.6531 63.3328 21.699 63.8031C21.699 63.8605 21.7334 63.9121 21.8022 63.958ZM31.1269 59.9832C30.7942 60.1323 30.5075 60.0864 30.2666 59.8455C30.1863 59.7538 30.1346 59.6333 30.1117 59.4842C30.0888 59.3351 30.106 59.1917 30.1633 59.054C30.2321 58.9049 30.3469 58.7844 30.5075 58.6927C30.6681 58.5894 30.8287 58.5378 30.9893 58.5378C31.3219 58.5378 31.5456 58.6927 31.6603 59.0024C31.7177 59.1401 31.7234 59.2834 31.6775 59.4326C31.6431 59.5702 31.5628 59.6907 31.4366 59.7939C31.3907 59.8398 31.3391 59.8799 31.2818 59.9144C31.2359 59.9373 31.1843 59.9602 31.1269 59.9832ZM31.8152 67.1241C31.8611 67.365 31.7865 67.537 31.5915 67.6403C31.385 67.7435 31.1785 67.7206 30.972 67.5714C30.8803 67.4911 30.8114 67.3994 30.7656 67.2961C30.7197 67.1929 30.6738 67.0839 30.6279 66.9692C30.5935 66.8086 30.5591 66.6423 30.5247 66.4702C30.5017 66.2981 30.4788 66.1318 30.4558 65.9712C30.387 65.3976 30.3297 64.8241 30.2838 64.2505C30.2494 63.6655 30.2551 63.0862 30.301 62.5126C30.3124 62.3864 30.3297 62.2602 30.3526 62.1341C30.3755 61.9964 30.4272 61.8702 30.5075 61.7555C30.5648 61.6408 30.6394 61.549 30.7311 61.4802C30.8344 61.4114 30.9548 61.377 31.0925 61.377C31.3563 61.3884 31.5456 61.5261 31.6603 61.7899C31.7636 61.9964 31.8152 62.2201 31.8152 62.461V64.8355C31.8037 64.9732 31.7922 65.1395 31.7808 65.3345C31.7693 65.5295 31.7636 65.7418 31.7636 65.9712C31.7636 66.1547 31.7636 66.344 31.7636 66.539C31.775 66.734 31.7922 66.929 31.8152 67.1241ZM36.5429 63.9236C36.3364 64.1071 36.1873 64.2964 36.0955 64.4914C35.8546 64.9158 35.6596 65.3632 35.5105 65.8335C35.3614 66.3039 35.2467 66.7857 35.1664 67.2789C35.1549 67.3936 35.1319 67.5083 35.0975 67.6231C35.0631 67.7378 35.0172 67.841 34.9599 67.9328C34.7878 68.2196 34.5584 68.3457 34.2716 68.3113C34.1225 68.3113 33.9963 68.2712 33.8931 68.1909C33.7898 68.1106 33.698 68.0073 33.6177 67.8812C33.5719 67.7779 33.5374 67.6689 33.5145 67.5542C33.503 67.4395 33.4858 67.3248 33.4629 67.2101C33.4055 66.7512 33.3424 66.2924 33.2736 65.8335C33.2162 65.3632 33.1761 64.8986 33.1532 64.4398C33.1302 64.1301 33.1302 63.8203 33.1532 63.5106C33.1761 63.2009 33.2105 62.8912 33.2564 62.5814C33.2564 62.5241 33.2679 62.4725 33.2908 62.4266C33.3138 62.3692 33.331 62.3176 33.3424 62.2717C33.4457 61.9849 33.6349 61.8587 33.9103 61.8932C34.025 61.9046 34.1282 61.9562 34.22 62.048C34.3118 62.1398 34.3634 62.2488 34.3748 62.375C34.4093 62.6503 34.4379 62.9198 34.4609 63.1837C34.4953 63.4475 34.5354 63.7114 34.5813 63.9752C34.5928 64.0211 34.5985 64.0784 34.5985 64.1473C34.5985 64.2046 34.6157 64.262 34.6502 64.3193C34.7075 64.2964 34.7419 64.2677 34.7534 64.2333C34.7649 64.1874 34.7763 64.1473 34.7878 64.1128C34.9025 63.8834 35.0172 63.6597 35.1319 63.4418C35.2467 63.2124 35.3786 63.0059 35.5277 62.8223C35.5965 62.7306 35.6654 62.6445 35.7342 62.5642C35.803 62.4725 35.8833 62.3922 35.9751 62.3233C36.2733 62.0824 36.5945 61.9907 36.9387 62.048C37.2828 62.0939 37.5639 62.2832 37.7818 62.6158C37.8851 62.7994 37.9654 62.9944 38.0227 63.2009C38.0801 63.3959 38.1202 63.5966 38.1432 63.8031C38.2005 64.1473 38.2464 64.4971 38.2808 64.8527C38.3267 65.1969 38.3726 65.541 38.4185 65.8852C38.4414 66.0916 38.4701 66.2981 38.5045 66.5046C38.5504 66.6996 38.5848 66.9004 38.6077 67.1068C38.6307 67.1871 38.6594 67.256 38.6938 67.3133C38.7282 67.3707 38.7855 67.428 38.8658 67.4854C39.1067 67.6116 39.1813 67.8123 39.0895 68.0876C38.9863 68.3744 38.8085 68.5522 38.5561 68.6211C38.3038 68.6899 38.0629 68.6325 37.8334 68.449C37.7302 68.3572 37.6442 68.2597 37.5753 68.1565C37.5065 68.0532 37.4434 67.9442 37.3861 67.8295C37.2025 67.4969 37.0649 67.1585 36.9731 66.8143C36.8813 66.4702 36.8125 66.1088 36.7666 65.7303C36.7322 65.4665 36.7035 65.1969 36.6806 64.9216C36.6576 64.6463 36.6175 64.3767 36.5601 64.1128C36.5601 64.0899 36.5544 64.067 36.5429 64.044C36.5429 64.0096 36.5429 63.9695 36.5429 63.9236Z" fill="black"/>
</svg>
