<svg width="262" height="262" viewBox="0 0 262 262" fill="none" xmlns="http://www.w3.org/2000/svg">
<path d="M68.5279 48.0052C67.0384 48.372 65.7009 50.7562 66.6939 51.1021C67.3961 51.3483 67.324 50.0881 68.8554 49.4934C69.7436 49.1475 69.4829 47.7707 68.5279 48.0052Z" fill="#191919"/>
<path d="M70.2375 53.7084C70.7484 53.1438 70.1877 51.0635 69.2327 51.6976C68.5384 52.2347 69.3585 54.6844 70.2375 53.7084Z" fill="#191919"/>
<path d="M53.1481 63.1441C53.3394 66.1576 53.3394 69.1801 53.1481 72.1936C53.1481 72.9573 54.1529 72.9796 54.3271 72.1936C54.6976 69.2498 54.8185 66.2799 54.6887 63.3157C56.951 62.8323 58.7706 60.3027 59.4846 58.7399C59.8517 59.2444 60.3988 59.5885 61.0125 59.7009C61.6263 59.8133 62.2597 59.6855 62.7818 59.3438C63.4552 58.7202 62.943 57.8766 62.098 58.1779C61.443 58.4098 60.919 58.0155 60.5706 57.4233C60.1094 56.6478 59.5632 53.699 60.7107 53.1501C61.7915 52.634 63.4382 53.9361 63.6871 52.8187C64.3853 50.6298 64.5373 48.3032 64.1298 46.0421C68.0009 46.0421 76.7962 44.8054 77.4918 37.1236C78.2936 28.2654 50.4967 34.9555 46.0623 40.9946C41.9581 46.5818 49.6386 60.9852 53.1481 63.1441Z" fill="#191919"/>
<path d="M73.1781 57.9151C74.4554 57.8247 74.6191 56.7177 74.4554 55.582C73.9595 52.4148 73.0537 49.3257 71.7607 46.3923C71.7029 46.2654 71.5985 46.1657 71.4691 46.1137C71.3397 46.0618 71.1953 46.0617 71.0658 46.1135C70.9363 46.1652 70.8318 46.2648 70.7738 46.3917C70.7159 46.5185 70.709 46.6627 70.7546 46.7945C71.7162 49.9079 72.5151 53.0693 73.148 56.2658C73.1965 56.5081 73.2187 56.4872 72.9672 56.5173C71.9402 56.6405 70.3708 56.0496 70.4782 58.1365C70.4623 58.6273 70.4926 59.1185 70.5686 59.6037C69.5228 59.7959 68.4431 59.5762 67.5556 58.9906C66.805 58.4889 66.298 59.1216 66.4893 59.9967C66.6905 60.9149 67.1829 61.7437 67.8931 62.3595C68.6034 62.9754 69.4935 63.3454 70.4311 63.4145C70.4311 64.6314 70.3708 65.9991 68.99 66.3606C67.3694 66.5609 65.7274 66.5034 64.1247 66.1903C63.564 66.0869 63.175 66.9108 63.7422 67.1951C64.2579 67.4496 64.8113 67.6195 65.381 67.6982C65.5109 69.422 65.7764 71.1329 66.1749 72.815C66.1877 72.8979 66.2177 72.9772 66.2629 73.0479C66.3081 73.1186 66.3676 73.1791 66.4375 73.2255C66.5073 73.2719 66.5861 73.3033 66.6688 73.3176C66.7515 73.3319 66.8362 73.3288 66.9176 73.3085C66.9991 73.2882 67.0753 73.2512 67.1417 73.1998C67.208 73.1483 67.2628 73.0837 67.3028 73.0099C67.3427 72.9361 67.3668 72.8548 67.3736 72.7712C67.3803 72.6876 67.3696 72.6034 67.3421 72.5242C67.0997 71.0164 66.7984 69.4169 66.6478 67.8292C67.6588 67.9507 68.6839 67.8651 69.6608 67.5776C71.6716 66.8126 71.8118 64.9026 71.6716 63.0529C71.6716 62.6101 71.6716 61.9866 70.8673 62.1176C70.8673 62.1176 69.3582 62.5407 68.0311 60.5194C68.8144 60.8574 69.6731 60.9821 70.5201 60.8809C72.4209 60.649 71.8367 60.0333 71.8367 58.0251C72.2767 57.9274 72.728 57.8904 73.1781 57.9151Z" fill="#191919"/>
<path d="M20.8289 80.2165C20.9408 80.4076 21.124 80.5464 21.3382 80.6024C21.5524 80.6585 21.7801 80.6271 21.9712 80.5152C22.1623 80.4033 22.3011 80.2201 22.3571 80.0059C22.4131 79.7917 22.3818 79.564 22.2699 79.3729C21.0909 77.552 19.5556 76.8983 18.2482 75.8136C17.1704 74.7182 16.2728 73.459 15.5889 72.0827C14.8959 71.078 14.0261 71.34 14.5029 72.6866C15.7775 76.2616 17.4347 76.6651 20.8289 80.2165Z" fill="#191919"/>
<path d="M24.2441 70.3654C23.9102 67.191 24.0253 63.9854 24.586 60.843C24.7877 59.6798 24.1995 59.4741 23.5799 60.5627C22.5686 62.3378 22.3629 68.4476 23.0271 70.5357C23.2445 71.2209 24.2742 70.8973 24.2441 70.3654Z" fill="#191919"/>
<path d="M21.4358 74.0322C19.9175 68.4319 20.3511 66.1997 20.862 60.8405C20.9223 60.2077 20.0433 60.23 19.8573 60.7199C18.3665 64.6303 18.7608 70.5227 20.1586 74.4147C20.2402 74.5409 20.3606 74.6372 20.5016 74.6891C20.6426 74.7411 20.7967 74.7458 20.9407 74.7027C21.0847 74.6596 21.2108 74.5709 21.3001 74.45C21.3894 74.3291 21.437 74.1825 21.4358 74.0322Z" fill="#191919"/>
<path d="M27.7285 69.79C27.7331 67.461 27.9484 65.1372 28.3717 62.847C28.6049 61.6392 27.9001 60.9174 27.2556 62.454C26.5315 64.783 26.242 67.2253 26.4015 69.659C26.501 71.2637 27.7128 71.4498 27.7285 69.79Z" fill="#191919"/>
<path d="M32.4517 79.2005C32.7268 75.129 30.4357 72.6243 31.2963 66.1306C31.3959 65.3761 30.6413 64.7852 30.2208 66.1306C28.8754 70.4405 30.7907 75.5246 31.2256 79.0996C31.3605 80.2144 32.3535 80.6179 32.4517 79.2005Z" fill="#191919"/>
<path d="M134.484 136.5C131.61 135.618 128.993 134.056 126.853 131.945C124.043 128.729 122.648 134.614 134.132 137.578C134.275 137.625 134.431 137.613 134.565 137.545C134.699 137.476 134.8 137.358 134.847 137.215C134.894 137.072 134.881 136.916 134.813 136.782C134.745 136.648 134.626 136.547 134.484 136.5Z" fill="#191919"/>
<path d="M132.08 138.674C129.495 137.856 127.011 136.742 124.68 135.356C124.287 135.119 123.199 135.487 124.097 136.461C126.335 138.219 128.994 139.359 131.809 139.769C133.246 139.791 133.297 138.992 132.08 138.674Z" fill="#191919"/>
<path d="M119.987 130.012C119.695 130.604 120.553 131.322 120.993 130.725C123.442 127.409 128.353 129.72 131.399 127.468C131.578 127.359 131.707 127.182 131.756 126.978C131.806 126.774 131.773 126.558 131.664 126.378C131.555 126.199 131.379 126.07 131.174 126.019C130.97 125.969 130.754 126.002 130.575 126.111C127.376 127.927 121.867 126.191 119.987 130.012Z" fill="#191919"/>
<path d="M124.252 126.687C125.048 126.597 125.413 126.147 125.117 125.682C124.687 125.004 122.984 125.384 122.104 125.521C120.372 125.783 118.731 125.671 118.676 126.457C118.577 127.802 122.392 126.899 124.252 126.687Z" fill="#191919"/>
<path d="M125.286 142.079C121.392 140.618 117.591 138.918 113.905 136.991C113.414 136.736 112.464 137.07 113.392 137.995C114.881 139.473 122.712 142.692 124.92 143.023C125.417 143.023 125.838 142.282 125.286 142.079Z" fill="#191919"/>
<path d="M130.403 140.842C127.39 140.016 125.949 139.933 122.936 138.208C122.272 137.826 121.587 138.743 122.242 139.212C124.594 140.891 127.396 141.826 130.285 141.897C130.401 141.874 130.506 141.814 130.586 141.727C130.666 141.64 130.716 141.53 130.729 141.412C130.743 141.295 130.718 141.176 130.659 141.074C130.601 140.971 130.511 140.89 130.403 140.842Z" fill="#191919"/>
<path d="M199.856 61.776C199.856 65.8986 201.857 67.464 203.809 70.6447C204.489 71.7529 205.5 71.1687 205.336 70.4023C204.88 68.2697 201.777 67.2754 200.983 61.7157C200.969 61.5708 200.9 61.4368 200.789 61.3418C200.679 61.2468 200.536 61.1981 200.391 61.2059C200.246 61.2137 200.109 61.2773 200.009 61.3835C199.91 61.4898 199.855 61.6304 199.856 61.776Z" fill="#191919"/>
<path d="M209.099 59.8371C209.512 56.3656 207.914 50.5819 206.244 47.6619C206.168 47.5248 206.043 47.4222 205.894 47.3758C205.745 47.3294 205.583 47.3428 205.444 47.4132C205.304 47.4835 205.197 47.6054 205.146 47.753C205.094 47.9006 205.102 48.0624 205.168 48.2043C206.735 51.8546 207.545 55.7847 207.551 59.7571C207.526 60.9938 208.945 61.1628 209.099 59.8371Z" fill="#191919"/>
<path d="M215.887 70.2296C214.893 64.8783 215.786 55.145 214.278 50.3726C214.069 49.7085 212.837 49.3666 213.093 50.6242C214.457 57.1742 213.291 63.9456 214.369 70.3606C214.527 71.3156 216.068 71.2147 215.887 70.2296Z" fill="#191919"/>
<path d="M212.009 60.3159C212.712 58.2448 211.415 50.9363 210.751 49.0657C210.087 47.195 208.821 47.1007 209.475 49.6696C210.329 53.1153 210.738 56.6563 210.691 60.2059C210.724 60.3493 210.802 60.4784 210.913 60.5747C211.024 60.6711 211.163 60.7296 211.31 60.7418C211.456 60.754 211.603 60.7194 211.729 60.6429C211.854 60.5663 211.952 60.4518 212.009 60.3159Z" fill="#191919"/>
<path d="M202.223 50.3386C204.166 54.4526 204.849 59.0488 204.188 63.55C204.04 64.5547 205.543 64.8351 205.685 63.8618C206.413 59.0299 205.561 54.0924 203.258 49.7832C203.184 49.6459 203.059 49.5436 202.91 49.4986C202.761 49.4537 202.6 49.4698 202.463 49.5435C202.326 49.6171 202.223 49.7423 202.178 49.8914C202.133 50.0405 202.149 50.2014 202.223 50.3386Z" fill="#191919"/>
<path d="M193.557 46.8758C190.816 41.7354 183.863 41.0988 178.848 42.7533C174.013 44.3462 172.15 50.0539 171.81 54.728C171.495 59.0326 171.734 65.7896 173.016 69.307C173.469 70.8243 174.359 72.1745 175.575 73.1886C176.791 74.2026 178.279 74.8355 179.853 75.0081V78.5451C179.873 78.6919 179.946 78.8264 180.058 78.9237C180.17 79.021 180.313 79.0746 180.461 79.0746C180.61 79.0746 180.753 79.021 180.865 78.9237C180.977 78.8264 181.049 78.6919 181.07 78.5451C181.201 77.3661 181.221 76.1727 181.291 74.9858C183.683 74.7238 187.133 72.7837 187.756 70.2607C187.802 70.1284 187.795 69.9834 187.735 69.8565C187.676 69.7296 187.57 69.6308 187.439 69.5811C187.308 69.5313 187.163 69.5345 187.034 69.59C186.906 69.6454 186.804 69.7488 186.75 69.8781C184.619 74.4631 175.861 75.8203 173.771 66.611C172.723 59.8488 172.076 49.0478 177.61 45.055C180.555 42.9314 189.626 42.3039 192.32 47.6592C193.493 50.6119 193.521 53.8959 192.4 56.8685C191.705 56.6608 190.957 56.7184 190.301 57.0301C189.646 57.3417 189.129 57.8853 188.851 58.5558C188.498 59.1781 189.345 59.8042 189.768 59.22C192.724 55.1144 194.294 63.805 191.225 63.8744C190.854 63.8836 189.487 63.3124 189.487 64.3984C189.487 64.9617 190.07 65.3337 190.582 65.4647C190.477 69.1789 190.952 72.8867 191.99 76.4543C192.037 76.6092 192.144 76.7393 192.286 76.8165C192.429 76.8937 192.596 76.9118 192.751 76.8669C192.907 76.8221 193.039 76.7178 193.118 76.5766C193.197 76.4355 193.218 76.2687 193.176 76.1124C192.437 72.6018 191.98 69.0377 191.809 65.4543C195.016 64.7102 194.745 59.7636 193.629 57.9545C194.432 57.0401 195.883 51.2368 193.557 46.8758Z" fill="#191919"/>
<path d="M183.663 63.2714C183.444 62.2653 182.548 62.1763 182.145 62.8391C181.655 63.5657 180.978 64.1464 180.185 64.5198C179.392 64.8931 178.513 65.0452 177.641 64.96C177.127 64.96 176.92 65.4211 177.127 65.9661C178.947 70.7384 184.936 69.1415 183.663 63.2714ZM182.547 64.4674C182.648 67.7254 180.013 68.5795 178.575 66.287C179.324 66.2615 180.061 66.0878 180.743 65.776C181.424 65.4641 182.037 65.0203 182.547 64.4701V64.4674Z" fill="#191919"/>
<path d="M180.444 59.8851C181.449 59.8156 181.361 56.9101 180.173 57.2114C179.216 57.455 179.268 59.9663 180.444 59.8851Z" fill="#191919"/>
<path d="M174.855 57.2501C173.85 57.4453 173.638 59.8518 174.855 59.7941C175.94 59.7391 175.769 57.068 174.855 57.2501Z" fill="#191919"/>
<path d="M182.218 53.4036C179.729 52.6988 178.891 54.9324 180.59 54.7607C180.961 54.6712 181.348 54.6739 181.718 54.7687C182.088 54.8634 182.429 55.0474 182.711 55.3044C184.241 56.7009 185.047 54.2066 182.218 53.4036Z" fill="#191919"/>
<path d="M175.505 53.4624C175.168 53.4634 174.835 53.543 174.533 53.6949C174.231 53.8468 173.969 54.0668 173.767 54.3375C173.204 54.9702 173.767 55.6946 174.219 55.2715C174.396 55.0658 174.624 54.9089 174.879 54.8158C175.134 54.7227 175.409 54.6965 175.677 54.7397C176.501 54.8091 176.864 53.4598 175.505 53.4624Z" fill="#191919"/>
<path d="M179.25 63.3498C179.813 63.1729 179.973 62.2651 179.25 62.273C178.537 62.2864 177.825 62.2191 177.127 62.0725C177.429 60.3525 178.085 58.0456 177.641 57.8189C176.83 57.4076 175.899 61.2983 175.8 61.9821C175.492 64.1227 178.918 63.4519 179.25 63.3498Z" fill="#191919"/>
<path d="M173.99 185.25C177.701 186.678 183.411 187.412 189.464 187.704C188.023 180.368 186.303 171.95 186.216 164.578C186.208 163.885 187.213 163.675 187.293 164.398C188.211 172.276 189.648 180.085 191.595 187.773C198.242 187.984 204.896 187.803 211.523 187.231C212.066 180.917 212.789 159.713 213.192 143.163C201.533 147.928 180.013 147.728 167.435 144.169C169.054 158.365 171.587 174.271 173.99 185.25Z" fill="#191919"/>
<path d="M58.5156 166.803C57.253 166.98 55.9739 167.007 54.7049 166.884C58.9549 175.594 62.6052 184.583 65.6303 193.789C70.0843 208.528 74.0562 237.114 74.3077 241.929C75.7356 242.693 89.2679 242.312 92.5966 241.929C92.5966 238.692 94.576 202.188 93.6014 188.874C93.0774 181.777 90.1954 160.109 87.9409 143.881C72.7894 148.436 52.7516 148.637 37.8609 142.584C39.0163 161.034 41.0206 178.419 37.3172 188.592C31.9667 201.874 25.6282 214.736 18.355 227.07C19.12 228.026 28.9319 234.108 34.5531 237.366C50.8404 214.441 60.2291 200.808 63.2985 192.513C60.6513 183.643 57.2644 175.01 53.1735 166.706C51.5167 166.432 49.8904 165.997 48.3173 165.409C47.7239 165.187 47.7566 164.084 48.6985 164.403C51.8846 165.433 55.2258 165.899 58.572 165.781C59.2401 165.764 59.3711 166.68 58.5156 166.803Z" fill="#191919"/>
<path d="M32.2235 237.369C32.1207 237.197 31.954 237.074 31.76 237.025C31.566 236.977 31.3608 237.007 31.1893 237.11C31.0178 237.213 30.8943 237.38 30.8457 237.574C30.7972 237.768 30.8277 237.973 30.9306 238.144C31.0105 238.275 39.4809 251.822 38.6989 252.671C37.6849 253.77 16.8952 240.481 15.1005 237.589C13.9582 235.747 17.2044 233.578 19.3738 230.713C19.8899 230.032 19.0096 228.948 18.3087 229.556C16.745 230.969 15.3422 232.551 14.1259 234.272C11.3474 238.042 15.4241 240.466 18.0769 242.456C23.1063 246.195 28.3911 249.578 33.8925 252.581C36.9671 254.276 42.4075 256.127 39.6565 250.248C37.5222 245.765 35.0368 241.459 32.2235 237.369Z" fill="#191919"/>
<path d="M105.673 249.95C101.277 247.424 96.6957 245.234 91.9691 243.4C91.8604 243.354 91.7436 243.33 91.6257 243.33C91.5077 243.33 91.3909 243.353 91.2821 243.399C91.1733 243.445 91.0747 243.512 90.992 243.596C90.9094 243.68 90.8444 243.78 90.8008 243.889C90.7572 243.999 90.736 244.116 90.7382 244.234C90.7405 244.352 90.7663 244.468 90.8141 244.576C90.8619 244.684 90.9308 244.781 91.0167 244.862C91.1025 244.943 91.2036 245.006 91.3141 245.048C94.8912 246.459 98.4037 248.029 101.841 249.753C103.394 250.529 108.879 253.011 104.083 253.132L76.8059 253.796C73.6488 253.865 73.6619 253.373 74.2815 250.407C74.7436 248.358 75.4175 246.363 76.2924 244.454C76.633 243.684 75.4094 242.952 74.9758 243.711C73.9218 245.591 73.1702 247.624 72.7488 249.737C71.4388 256.058 74.1466 255.488 79.1128 255.387L104.901 254.814C108.97 254.71 108.928 252.19 105.673 249.95Z" fill="#191919"/>
<path d="M143.348 225.298C170.101 229.391 204.787 232.148 231.957 234.034C233.053 234.11 233.052 232.406 231.957 232.331C202.365 230.411 169.885 227.091 143.479 223.935C142.755 223.853 142.574 225.179 143.348 225.298Z" fill="#191919"/>
<path d="M246.009 37.8564C245.861 30.9291 245.24 18.5562 236.769 16.9842C236.074 16.8532 235.765 17.9824 236.417 18.1802C243.811 20.4255 243.988 31.5121 244.39 38.0385C244.395 38.0613 244.395 38.0851 244.39 38.1079C245.063 108.156 247.322 161.976 246.803 230.588C246.742 238.631 243.104 246.203 237.211 248.102C236.627 248.29 236.729 249.378 237.463 249.268C245.192 248.108 248.814 237.534 248.803 230.607C248.707 166.105 247.467 106.314 246.009 37.8564Z" fill="#191919"/>
<path d="M181.272 23.35C177.511 24.0521 178.259 30.686 181.756 30.3074C185.586 29.8882 185.485 22.564 181.272 23.35ZM181.453 24.9691C183.001 24.5984 183.528 27.7712 181.674 28.4878C180.229 29.0472 180.106 25.2914 181.453 24.9691Z" fill="#191919"/>
<path d="M141.455 40.9733C169.375 37.8293 198.757 33.5639 227.008 29.913C228.193 29.7597 228.187 27.9008 227.008 28.0528C198.619 31.7339 166.958 35.6416 141.234 39.3541C140.32 39.4864 140.541 41.0755 141.455 40.9733Z" fill="#191919"/>
<path d="M236.625 37.3084C236.513 22.7098 237.138 9.3648 217.773 12.3346C196.478 15.5991 174.488 19.8016 153.245 22.4792C134.916 24.7848 135.919 37.239 136.012 53.1647C136.129 73.0518 136.274 92.4516 136.524 113.651C136.534 114.385 137.834 114.325 137.821 113.651C137.483 91.8031 137.727 70.4213 137.711 49.2425C137.701 35.1115 138.071 26.3345 153.577 24.1075C175.239 20.995 196.86 17.3231 218.507 14.0533C232.744 11.9023 234.828 20.2168 234.935 33.0352C235.491 98.64 236.805 164.234 237.58 229.838C237.751 244.286 234.634 250.648 219.212 248.518C197.363 245.505 173.466 244.629 152.29 240.937C139.22 238.659 139.202 228.872 139.219 218.295C139.26 193.853 138.671 167.102 138.214 142.175C138.2 141.371 136.996 141.491 136.997 142.255C137.047 166.919 137.213 194.064 137.481 219.181C137.599 230.316 138.485 240.433 152.14 242.617C174.259 246.154 196.78 247.646 219.502 250.258C234.292 251.961 239.676 246.025 239.545 230.713C238.974 166.184 237.121 101.746 236.625 37.3084Z" fill="#191919"/>
<path d="M216.831 71.9013C214.166 71.7703 206.867 73.2388 204.323 73.8021C203.906 82.3937 204.75 91 206.826 99.3471C207.01 99.9694 205.95 100.142 205.741 99.5685C203.664 93.8831 202.805 85.3406 202.503 79.2176C200.23 77.8208 197.723 76.8446 195.103 76.3356C192.63 77.6221 185.421 84.962 182.496 85.9772C180.716 84.7 179.483 83.3022 177.78 78.7382C166.368 82.0355 157.581 99.148 153.77 104.296C149.959 109.445 142.821 115.431 131.762 123.992C134.393 127.62 136.43 131.644 137.795 135.913C147.461 132.209 156.447 126.929 164.388 120.289C164.864 112.061 165.964 103.881 167.68 95.8206C167.855 95.0149 168.859 95.1774 168.686 95.9712C165.86 113.667 165.368 124.424 167.245 142.171C179.482 145.8 201.96 145.97 213.283 141.014C213.434 134.057 213.525 128.145 213.505 124.827C207.855 122.655 201.428 110.848 198.805 105.724C198.522 105.171 199.29 104.646 199.629 105.171C202.463 109.543 209.432 121.833 214.339 123.209C218.512 124.377 223.154 121.258 224.041 115.467C225.003 109.244 219.625 76.8282 216.831 71.9013Z" fill="#003090"/>
<path d="M96.8856 106.763C93.7416 101.473 83.0703 76.0263 68.4219 73.8046C62.3959 76.6604 54.4167 77.0429 51.6617 73.312C41.487 75.4997 36.0924 86.6386 33.9309 95.8388C33.7488 96.613 32.7139 96.482 32.9248 95.6986C33.5246 92.5701 34.4515 89.5132 35.6902 86.5784C35.368 85.4426 34.9553 83.8942 34.3527 81.4314C32.2567 80.8576 23.9762 81.6226 20.8296 82.2855C19.4973 104.405 24.846 118.671 28.0739 122.965C29.4363 124.778 33.1017 125.73 35.9863 125.454C36.117 113.098 37.7754 100.805 40.9237 88.8565C40.953 88.7366 41.0288 88.6333 41.1343 88.5693C41.2398 88.5053 41.3664 88.4859 41.4863 88.5152C41.6062 88.5446 41.7095 88.6203 41.7735 88.7259C41.8375 88.8314 41.8569 88.958 41.8276 89.0779C37.6736 106.084 36.8011 123.138 37.8059 140.52C48.3239 145.669 70.1105 147.387 87.7457 141.897C86.8916 135.765 86.158 130.587 85.7348 127.53C75.5679 119.67 72.699 117.283 66.8931 103.923C66.601 103.249 67.4263 102.807 67.7682 103.47C70.7812 109.313 73.7811 115.406 78.8285 119.698C88.3033 128.167 99.4335 134.576 111.514 138.52C112.648 133.553 114.966 128.934 118.271 125.057C115.908 123.448 99.0182 110.356 96.8856 106.763Z" fill="#003090"/>
<path d="M158.586 191.097C144.259 191.097 146.522 219.07 159.372 219.902C173.991 220.849 171.617 191.097 158.586 191.097ZM156.788 198.417C157.547 196.257 160.085 196.235 160.809 198.658C161.212 200.005 161.392 205.133 160.698 206.51C160.494 206.816 160.214 207.064 159.886 207.23C159.558 207.396 159.192 207.474 158.825 207.457C158.458 207.44 158.101 207.328 157.79 207.132C157.478 206.937 157.223 206.664 157.048 206.34C156.253 204.911 156.198 200.087 156.788 198.417ZM159.461 211.588C159.522 212.754 159.461 213.87 159.622 215.096C159.784 216.322 158.235 216.192 158.05 215.248C157.896 214.001 157.845 212.743 157.9 211.487C153.616 210.633 153.138 205.33 153.536 202.237C153.607 201.684 154.652 201.604 154.682 202.237C154.832 205.381 154.491 209.276 158.603 209.835C162.715 210.394 162.841 204.739 162.786 201.983C162.765 200.918 164.041 200.978 164.096 201.983C164.274 205.626 164.318 211.205 159.461 211.588Z" fill="#003090"/>
<path d="M184.044 192.552C168.962 193.029 170.735 220.15 183.622 221.65C199.893 223.542 198.552 192.095 184.044 192.552ZM184.275 211.746C183.34 212.43 178.002 211.504 177.408 210.791C176.514 209.714 176.503 204.084 177.258 203.41C178.012 202.737 184.374 203.773 184.788 204.658C185.124 205.374 185.05 211.208 184.256 211.785L184.275 211.746ZM189.895 213.856C188.779 213.856 186.075 208.901 186.065 208.196C186.054 207.491 189.564 203.249 190.519 203.561C191.233 203.843 190.751 213.867 189.876 213.897L189.895 213.856Z" fill="#003090"/>
<path d="M210.188 194.21C195.588 193.589 195.175 223.343 210.78 223.554C225.49 223.747 226.042 194.886 210.188 194.21ZM218.502 208.85C218.713 209.533 218.572 211.967 217.698 212.6C216.028 213.179 214.2 213.097 212.589 212.369C212.149 211.984 212.327 209.896 212.357 209.563C212.531 207.938 206.827 208.075 206.999 209.432C207.171 210.79 207.078 211.825 206.687 212.088C206.123 212.468 203.167 212.63 202.393 211.796C201.898 210.633 201.802 209.339 202.122 208.116C204.836 203.15 217.083 204.023 218.52 208.85H218.502Z" fill="#003090"/>
<path d="M117.536 13.2305C116.904 12.7956 116.13 13.7414 116.681 14.2366C118.046 15.4627 125.026 21.6158 126.736 22.28C126.858 22.3112 126.987 22.3065 127.107 22.2662C127.226 22.226 127.332 22.152 127.411 22.0531C127.489 21.9543 127.538 21.8348 127.55 21.7091C127.562 21.5834 127.538 21.4568 127.48 21.3446C126.514 19.8604 119.019 14.2549 117.536 13.2305Z" fill="#003090"/>
<path d="M137.159 15.457C137.263 14.4535 135.04 8.15114 134.626 6.93153C134.556 6.79704 134.445 6.68884 134.308 6.62321C134.171 6.55759 134.017 6.53808 133.869 6.56763C133.72 6.59717 133.585 6.67417 133.484 6.78705C133.383 6.89992 133.321 7.04257 133.308 7.19353C133.32 8.77208 134.917 14.8348 136.043 15.8395C136.13 15.9271 136.24 15.9886 136.36 16.0167C136.48 16.0448 136.605 16.0386 136.722 15.9986C136.838 15.9587 136.941 15.8867 137.018 15.7909C137.096 15.6951 137.145 15.5793 137.159 15.457Z" fill="#003090"/>
<path d="M122.711 33.2009C121.846 32.728 114.426 33.5022 113.22 33.8245C113.076 33.8726 112.952 33.9666 112.866 34.092C112.781 34.2174 112.739 34.3674 112.747 34.519C112.754 34.6705 112.812 34.8154 112.91 34.9312C113.008 35.0471 113.141 35.1277 113.289 35.1607C114.134 35.2524 121.866 35.0703 122.76 34.3865C122.86 34.3206 122.941 34.2301 122.995 34.1237C123.049 34.0174 123.075 33.8989 123.07 33.7796C123.065 33.6604 123.029 33.5445 122.966 33.4431C122.903 33.3417 122.815 33.2583 122.711 33.2009Z" fill="#003090"/>
</svg>
