<svg width="308" height="305" viewBox="0 0 308 305" fill="none" xmlns="http://www.w3.org/2000/svg">
    <path fill-rule="evenodd" clip-rule="evenodd"
        d="M121.004 237.99C121.269 237.751 121.485 237.461 121.639 237.138C121.792 236.816 121.881 236.467 121.899 236.11C121.917 235.752 121.864 235.395 121.744 235.059C121.623 234.722 121.438 234.413 121.198 234.149C114.264 226.534 107.774 218.561 100.9 210.894C100.424 210.363 99.7817 210.007 99.0783 209.887C98.3751 209.765 97.6513 209.886 97.0244 210.226C65.6284 227.329 34.4528 245.089 2.00133 260.306C1.61925 260.485 1.28376 260.75 1.02092 261.081C0.758076 261.412 0.574962 261.799 0.485784 262.212C0.396606 262.624 0.403787 263.052 0.506759 263.461C0.609714 263.872 0.805705 264.251 1.07948 264.573L34.3927 303.522C34.8631 304.072 35.5026 304.453 36.2113 304.601C36.9201 304.75 37.6582 304.66 38.3105 304.346C49.4995 298.975 59.1755 290.361 68.6494 282.793C86.7021 268.357 103.871 253.369 121.004 237.99Z"
        fill="#191919" />
    <path fill-rule="evenodd" clip-rule="evenodd"
        d="M125.376 174.917C125.173 174.638 124.867 174.451 124.526 174.396C124.185 174.342 123.836 174.426 123.556 174.628C121.987 176.092 120.331 177.462 118.598 178.728C117.733 176.39 114.274 172.382 110.79 172.323C108.19 172.276 105.446 174.222 103.487 179.148C102.098 182.311 101.403 185.737 101.45 189.192C101.37 190.506 100.845 202.076 100.825 203.387C100.805 204.556 100.889 205.725 100.844 206.87C100.822 207.221 100.94 207.565 101.172 207.829C101.404 208.093 101.732 208.253 102.082 208.275C102.433 208.298 102.778 208.18 103.041 207.948C103.305 207.715 103.465 207.388 103.487 207.037C103.581 205.93 103.733 204.816 103.778 203.684C103.927 199.581 103.409 197.143 103.955 190.501C104.09 188.712 104.389 186.942 104.847 185.209C105.13 183.47 105.521 181.752 106.016 180.064C107.237 176.358 108.871 174.501 110.787 174.461C113.379 174.409 115.187 177.549 116.423 180.306C114.801 181.413 113.252 182.624 111.786 183.93C111.523 184.152 111.357 184.467 111.323 184.808C111.288 185.15 111.388 185.493 111.601 185.763C111.814 186.032 112.123 186.209 112.464 186.256C112.805 186.301 113.15 186.214 113.427 186.01C115.648 184.694 122.3 178.819 125.082 176.727C125.359 176.523 125.545 176.221 125.6 175.882C125.655 175.543 125.574 175.195 125.376 174.917Z"
        fill="#191919" />
    <path fill-rule="evenodd" clip-rule="evenodd"
        d="M120.216 175.333C121.989 173.598 124.017 172.143 126.228 171.017C126.935 170.703 127.668 170.453 128.419 170.269C131.231 169.526 132.749 171.887 133.279 174.747C133.786 177.97 133.647 181.263 132.871 184.433C132.854 184.603 132.87 184.775 132.92 184.94C132.969 185.104 133.051 185.257 133.159 185.389C133.268 185.523 133.402 185.633 133.553 185.713C133.704 185.795 133.87 185.845 134.04 185.862C134.21 185.88 134.382 185.867 134.546 185.819C134.71 185.77 134.863 185.69 134.996 185.583C135.129 185.476 135.239 185.343 135.32 185.192C135.401 185.042 135.451 184.877 135.468 184.706C135.981 178.223 135.916 174.999 135.431 172.616C133.609 163.656 123.219 168.81 120.253 171.388C119.54 172.049 118.881 172.768 118.284 173.536C118.058 173.795 117.943 174.132 117.961 174.476C117.979 174.818 118.13 175.142 118.382 175.376C118.634 175.61 118.966 175.737 119.31 175.73C119.654 175.725 119.982 175.585 120.224 175.341L120.216 175.333Z"
        fill="#191919" />
    <path fill-rule="evenodd" clip-rule="evenodd"
        d="M136.26 197.171C136.19 197.326 136.151 197.493 136.145 197.664C136.14 197.836 136.168 198.004 136.228 198.165C136.288 198.325 136.379 198.47 136.496 198.596C136.613 198.719 136.753 198.821 136.908 198.891C137.064 198.961 137.232 199 137.402 199.006C137.573 199.011 137.743 198.983 137.903 198.923C138.062 198.863 138.208 198.773 138.333 198.656C138.458 198.539 138.558 198.399 138.628 198.243C141.871 191.294 143.739 182.265 139.483 176.256C139.398 176.104 139.283 175.971 139.146 175.864C139.009 175.757 138.852 175.677 138.685 175.63C138.517 175.583 138.342 175.571 138.169 175.591C137.996 175.613 137.83 175.668 137.678 175.755C134.747 177.42 143.254 181.628 136.26 197.171Z"
        fill="#191919" />
    <path fill-rule="evenodd" clip-rule="evenodd"
        d="M144.13 187.463C144.057 191.526 143.91 199.232 141.642 204.197C141.565 204.35 141.52 204.519 141.51 204.693C141.5 204.865 141.524 205.037 141.581 205.2C141.639 205.364 141.728 205.513 141.844 205.641C141.96 205.768 142.101 205.872 142.257 205.945C142.414 206.019 142.584 206.059 142.756 206.065C142.929 206.072 143.101 206.044 143.263 205.982C143.424 205.92 143.572 205.828 143.697 205.708C143.822 205.589 143.922 205.446 143.991 205.289C146.481 198.452 148.071 194.349 146.76 187.189C146.746 187.012 146.697 186.842 146.616 186.685C146.535 186.528 146.423 186.389 146.288 186.276C146.152 186.164 145.995 186.079 145.826 186.027C145.658 185.977 145.48 185.96 145.305 185.977C145.129 185.995 144.959 186.049 144.805 186.134C144.65 186.219 144.514 186.334 144.404 186.473C144.295 186.612 144.214 186.77 144.167 186.941C144.12 187.109 144.107 187.288 144.13 187.463Z"
        fill="#191919" />
    <path fill-rule="evenodd" clip-rule="evenodd"
        d="M150.177 197.887C149.786 198.962 149.309 199.997 148.925 201.07C148.041 203.536 147.353 206.051 146.253 208.418C144.789 211.514 142.774 214.319 140.306 216.694C136.536 220.928 132.126 224.545 127.236 227.414C125.618 228.416 123.896 229.281 122.236 230.3C121.946 230.487 121.742 230.781 121.668 231.118C121.595 231.455 121.659 231.808 121.845 232.098C122.032 232.389 122.327 232.592 122.664 232.666C123.001 232.739 123.354 232.676 123.644 232.489C125.337 231.348 126.951 230.134 128.617 229.035C132.701 226.545 136.623 223.802 140.361 220.817C142.285 219.276 143.912 217.395 145.16 215.27C146.463 213.461 147.592 211.535 148.532 209.515C150.356 206.111 151.751 202.494 152.685 198.748C152.743 198.585 152.767 198.411 152.757 198.237C152.747 198.064 152.703 197.893 152.628 197.736C152.552 197.581 152.446 197.441 152.316 197.325C152.186 197.21 152.035 197.122 151.87 197.065C151.537 196.951 151.172 196.973 150.854 197.127C150.537 197.28 150.294 197.554 150.177 197.887Z"
        fill="#191919" />
    <path fill-rule="evenodd" clip-rule="evenodd"
        d="M165.228 121.953C161.312 119.328 153.727 119.994 145.387 116.455C134.709 111.935 130.093 104.167 125.497 93.4794C124.773 91.7994 123.994 90.0375 123.266 88.1354C123.149 87.8032 122.905 87.5312 122.587 87.379C122.269 87.2271 121.904 87.2075 121.572 87.3246C121.24 87.4418 120.968 87.686 120.816 88.0038C120.664 88.3216 120.644 88.6866 120.761 89.0188C121.404 91.0111 122.032 92.8999 122.765 94.64C125.833 102.11 130.508 108.813 136.459 114.273C143.139 119.976 148.044 120.984 156.551 122.031C159.141 122.121 161.686 122.724 164.041 123.805C167.373 125.917 168.772 128.007 168.331 129.895C167.546 133.254 162.209 133.84 161.638 134.177C160.896 132.301 159.973 130.502 158.881 128.807C158.729 128.49 158.456 128.247 158.126 128.13C157.793 128.014 157.429 128.034 157.112 128.186C156.797 128.338 156.553 128.61 156.436 128.941C156.321 129.273 156.341 129.637 156.493 129.954C158.348 135.694 160.916 138.853 163.006 143.354C163.151 143.659 163.408 143.895 163.725 144.013C164.041 144.131 164.39 144.122 164.701 143.988C165.01 143.853 165.255 143.604 165.384 143.292C165.514 142.981 165.517 142.631 165.394 142.317C164.143 140.477 163.119 138.494 162.341 136.41C172.252 133.795 173.151 127.038 165.228 121.953Z"
        fill="#191919" />
    <path fill-rule="evenodd" clip-rule="evenodd"
        d="M165.442 138.905C167.236 141.631 168.32 144.762 168.595 148.013C168.707 150.922 166.072 151.887 163.164 151.779C159.913 151.566 156.735 150.715 153.812 149.274C153.485 149.164 153.128 149.189 152.818 149.343C152.508 149.496 152.273 149.766 152.162 150.094C152.107 150.255 152.083 150.426 152.094 150.596C152.105 150.767 152.15 150.934 152.226 151.087C152.302 151.24 152.407 151.376 152.536 151.488C152.665 151.6 152.815 151.685 152.977 151.739C153.742 151.974 160.202 153.706 161.778 153.994C168.989 155.315 171.464 152.537 171.21 147.888C171.16 147.004 170.375 142.849 170.33 142.669C169.924 140.702 168.991 138.882 167.63 137.405C167.431 137.115 167.124 136.916 166.778 136.852C166.432 136.788 166.075 136.864 165.786 137.064C165.496 137.263 165.297 137.569 165.233 137.915C165.168 138.261 165.245 138.618 165.444 138.908L165.442 138.905Z"
        fill="#191919" />
    <path fill-rule="evenodd" clip-rule="evenodd"
        d="M158.702 155.931C155.293 156.242 151.86 155.711 148.704 154.385C145.548 153.059 142.766 150.978 140.602 148.325C140.48 148.206 140.336 148.111 140.178 148.047C140.02 147.984 139.85 147.952 139.68 147.953C139.509 147.955 139.34 147.99 139.183 148.057C139.026 148.124 138.884 148.221 138.764 148.343C138.645 148.464 138.551 148.608 138.487 148.767C138.423 148.925 138.391 149.094 138.393 149.265C138.394 149.436 138.429 149.604 138.496 149.761C138.563 149.918 138.66 150.061 138.782 150.18C144.36 154.856 151.841 160.524 159.138 158.53C159.31 158.502 159.473 158.44 159.62 158.348C159.767 158.256 159.896 158.136 159.996 157.994C160.098 157.852 160.17 157.693 160.208 157.523C160.248 157.354 160.253 157.179 160.225 157.007C160.196 156.837 160.135 156.671 160.043 156.524C159.949 156.377 159.831 156.249 159.689 156.149C159.547 156.047 159.386 155.975 159.218 155.936C159.049 155.896 158.874 155.891 158.702 155.92V155.931Z"
        fill="#191919" />
    <path fill-rule="evenodd" clip-rule="evenodd"
        d="M147.491 160.783C141.546 158.124 137.449 157.707 133.077 151.933C132.965 151.801 132.827 151.693 132.673 151.616C132.518 151.538 132.349 151.492 132.177 151.48C132.004 151.469 131.831 151.492 131.668 151.549C131.504 151.605 131.353 151.694 131.225 151.81C131.096 151.925 130.992 152.065 130.918 152.222C130.845 152.379 130.803 152.548 130.796 152.721C130.789 152.894 130.817 153.066 130.877 153.228C130.938 153.39 131.031 153.539 131.15 153.664C136.455 158.624 139.63 161.705 146.711 163.318C147.043 163.41 147.398 163.37 147.7 163.204C148.002 163.039 148.228 162.762 148.33 162.433C148.431 162.104 148.401 161.747 148.244 161.441C148.087 161.134 147.817 160.9 147.491 160.788V160.783Z"
        fill="#191919" />
    <path fill-rule="evenodd" clip-rule="evenodd"
        d="M136.892 163.224C125.326 155.926 123.532 154.071 120.67 149.169C118.366 145.115 116.329 140.914 114.573 136.594C112.255 131.492 99.9768 106.838 95.2207 100.278C95.119 100.141 94.9912 100.025 94.8446 99.9375C94.6981 99.8499 94.536 99.7919 94.367 99.7668C94.1981 99.742 94.0259 99.7505 93.8604 99.7921C93.6948 99.8335 93.5391 99.9073 93.402 100.009C93.2649 100.111 93.1492 100.239 93.0615 100.385C92.9738 100.532 92.9159 100.694 92.891 100.863C92.866 101.032 92.8745 101.204 92.916 101.369C92.9576 101.535 93.0315 101.691 93.1332 101.828C102.318 113.969 106.936 127.664 111.553 137.37C112.819 140.027 117.565 149.112 119.79 152.587C121.683 155.619 124.185 158.224 127.138 160.238C129.81 162.17 132.609 163.921 135.516 165.477C135.664 165.571 135.829 165.632 136.002 165.662C136.174 165.691 136.351 165.686 136.521 165.647C136.692 165.607 136.853 165.534 136.995 165.432C137.137 165.33 137.257 165.2 137.349 165.051C137.441 164.903 137.502 164.737 137.529 164.564C137.556 164.392 137.549 164.214 137.507 164.044C137.466 163.874 137.391 163.713 137.287 163.573C137.183 163.433 137.052 163.313 136.902 163.224H136.892Z"
        fill="#191919" />
    <path fill-rule="evenodd" clip-rule="evenodd"
        d="M126.797 79.7194C115.386 39.9083 118.185 42.9878 108.818 1.18605C108.738 0.846174 108.529 0.551018 108.234 0.363744C107.939 0.176487 107.583 0.111991 107.241 0.184052C107.072 0.220508 106.911 0.290114 106.768 0.388877C106.625 0.487658 106.503 0.61366 106.409 0.759651C106.315 0.905659 106.251 1.06879 106.22 1.23968C106.189 1.41057 106.192 1.58587 106.229 1.75552C107.041 5.66496 107.753 9.22039 108.4 12.4953C97.3785 17.6288 85.5315 20.052 65.4815 35.9938C64.0299 37.1151 62.7165 38.4043 61.5687 39.8348C60.1396 36.0129 58.9954 32.0905 58.1452 28.0997C58.0719 27.7697 57.8731 27.4813 57.5907 27.2955C57.3085 27.1094 56.965 27.0406 56.633 27.1036C56.3008 27.1665 56.0062 27.3563 55.8117 27.6326C55.617 27.909 55.5375 28.2502 55.5901 28.584C58.4291 43.0496 79.5312 86.9071 87.103 100.693C87.1906 100.845 87.3075 100.979 87.447 101.086C87.5866 101.193 87.7457 101.272 87.9158 101.317C88.0856 101.363 88.2628 101.374 88.4371 101.351C88.6115 101.328 88.7795 101.271 88.9316 101.182C100.044 94.7712 111.993 89.6092 126.173 81.2408C126.431 81.0932 126.634 80.8634 126.747 80.5877C126.86 80.312 126.878 80.0064 126.797 79.7194ZM62.6358 42.7623C71.5235 33.1615 92.0428 21.2193 103.272 17.0193C105.136 16.3179 107.021 15.6833 108.895 14.9852C109.292 16.9993 112.412 32.4334 113.499 37.5018C92.2683 46.6117 94.1403 44.7396 84.0302 51.1641C75.0522 56.8421 73.0716 58.5522 70.2627 61.3044C67.6191 55.3692 64.8886 48.8294 62.6358 42.7623ZM71.4183 63.8878C72.4036 63.0378 73.4424 62.2529 74.4343 61.4263C76.9393 59.3621 79.3742 57.263 82.0395 55.4694C89.9545 50.679 98.1764 46.4151 106.652 42.7056C109.458 41.5366 110.708 41.1024 114.035 39.9851C114.695 43.0128 117.876 56.7002 118.995 61.0889C117.024 61.8855 115.094 62.7589 113.15 63.6106C97.5789 70.4827 99.3725 69.8982 89.9036 76.1724C86.5641 78.1413 83.4832 80.5187 80.7319 83.2498C77.5289 76.9456 74.3826 70.4309 71.4183 63.8878ZM88.7462 98.213C86.6354 94.4989 84.3608 90.3056 82.0512 85.835C87.3286 80.691 93.3893 76.4177 100.007 73.1747C107.874 68.6089 111.221 66.129 119.62 63.5138C120.822 68.1447 122.231 73.3484 123.953 79.4339C117.739 82.8123 100.099 91.5247 88.7462 98.213Z"
        fill="#003090" />
    <path fill-rule="evenodd" clip-rule="evenodd"
        d="M221.418 148.618C236.147 144.693 242.559 142.439 252.806 139.89C255.812 139.142 258.861 138.507 261.896 137.731C279.023 133.347 285.578 130.825 303.402 129.818C303.572 129.806 303.739 129.761 303.891 129.685C304.045 129.609 304.18 129.504 304.292 129.375C304.404 129.246 304.491 129.096 304.544 128.935C304.599 128.773 304.621 128.602 304.607 128.431C304.596 128.261 304.551 128.095 304.476 127.942C304.399 127.789 304.294 127.653 304.165 127.541C304.036 127.429 303.886 127.343 303.724 127.289C303.562 127.235 303.392 127.213 303.221 127.225C296.51 127.746 283.893 129.932 277.42 131.233C257.881 135.154 258.467 135.585 252.136 137.377C231.543 143.207 236.794 141.306 220.695 146.061C220.366 146.165 220.092 146.393 219.928 146.697C219.766 147 219.728 147.355 219.822 147.686C219.915 148.017 220.134 148.299 220.433 148.472C220.73 148.644 221.084 148.694 221.418 148.611V148.618Z"
        fill="#191919" />
    <path fill-rule="evenodd" clip-rule="evenodd"
        d="M205.833 184.953C210.318 181.859 215.277 179.514 220.514 178.011C233.286 174.17 243.807 174.299 257.346 172.791C263.008 172.161 301.123 168.019 305.979 167.34C306.148 167.315 306.31 167.256 306.457 167.168C306.602 167.079 306.731 166.964 306.831 166.827C306.933 166.69 307.006 166.533 307.048 166.368C307.09 166.202 307.098 166.03 307.073 165.862C307.046 165.693 306.99 165.531 306.901 165.384C306.813 165.239 306.697 165.11 306.56 165.01C306.423 164.908 306.266 164.835 306.101 164.793C305.936 164.751 305.764 164.744 305.595 164.77C301.383 165.438 297.182 166.152 292.947 166.697C276.948 168.751 255.989 168.948 229.789 173.231C219.602 174.901 211.744 176.852 204.199 182.874C203.936 183.094 203.769 183.408 203.734 183.751C203.698 184.091 203.797 184.434 204.009 184.704C204.221 184.975 204.53 185.15 204.871 185.197C205.211 185.244 205.555 185.155 205.833 184.953Z"
        fill="#191919" />
    <path fill-rule="evenodd" clip-rule="evenodd"
        d="M190.282 210.1C187.996 213.263 186.69 213.176 184.853 212.634C182.398 211.906 181.4 206.635 181.099 204.088C181.076 203.92 181.019 203.758 180.932 203.609C180.845 203.462 180.732 203.333 180.595 203.232C180.46 203.128 180.304 203.053 180.139 203.01C179.974 202.968 179.802 202.958 179.633 202.981C179.463 203.005 179.301 203.061 179.154 203.148C179.007 203.233 178.876 203.349 178.774 203.485C178.671 203.621 178.596 203.776 178.554 203.941C178.511 204.107 178.501 204.279 178.524 204.447C179.053 207.804 180.647 214.133 183.808 215.206C193.714 218.562 198.671 198.464 202.178 188.784C202.301 188.459 202.291 188.096 202.153 187.777C202.013 187.458 201.754 187.206 201.43 187.074C197.893 185.693 199.573 197.245 190.282 210.1Z"
        fill="#191919" />
    <path fill-rule="evenodd" clip-rule="evenodd"
        d="M184.44 200.388C181.935 200.949 174.42 204.338 170.514 205.687C170.352 205.741 170.201 205.826 170.073 205.938C169.943 206.049 169.837 206.186 169.76 206.338C169.684 206.492 169.639 206.657 169.627 206.828C169.614 207 169.635 207.17 169.689 207.332C169.744 207.494 169.829 207.644 169.941 207.773C170.053 207.903 170.188 208.008 170.342 208.085C170.495 208.162 170.661 208.207 170.831 208.22C171.001 208.232 171.173 208.21 171.335 208.157C175.343 206.838 181.123 204.561 185.372 202.87C185.697 202.743 185.961 202.492 186.105 202.172C186.248 201.853 186.262 201.489 186.14 201.161C186.08 200.998 185.986 200.849 185.869 200.722C185.751 200.595 185.609 200.493 185.45 200.422C185.291 200.35 185.121 200.31 184.947 200.305C184.775 200.298 184.602 200.326 184.44 200.388Z"
        fill="#191919" />
    <path fill-rule="evenodd" clip-rule="evenodd"
        d="M175.585 209.528C173.386 210.687 171.005 211.459 168.545 211.811C164.44 212.337 162.167 211.113 163.894 206.402C165.34 202.452 166.537 199.537 167.224 197.307C167.354 196.993 167.357 196.641 167.23 196.325C167.103 196.01 166.86 195.756 166.547 195.617C166.237 195.48 165.884 195.47 165.565 195.59C165.246 195.709 164.988 195.949 164.844 196.257C164.628 196.781 162.285 203.124 161.815 204.821C160.537 209.428 159.872 213.535 164.592 214.289C168.852 215.053 173.242 214.178 176.885 211.84C177.184 211.664 177.402 211.379 177.493 211.043C177.583 210.707 177.538 210.35 177.367 210.048C177.197 209.745 176.916 209.522 176.582 209.425C176.25 209.328 175.891 209.365 175.585 209.528Z"
        fill="#191919" />
    <path fill-rule="evenodd" clip-rule="evenodd"
        d="M160.697 199.109C160.604 191.799 164.799 185.492 169.328 181.477C169.455 181.363 169.556 181.225 169.63 181.069C169.702 180.916 169.743 180.749 169.752 180.578C169.76 180.408 169.735 180.238 169.677 180.076C169.62 179.915 169.531 179.768 169.416 179.642C169.301 179.516 169.162 179.413 169.009 179.341C168.855 179.267 168.686 179.226 168.516 179.217C168.346 179.209 168.175 179.234 168.015 179.293C167.855 179.349 167.708 179.44 167.581 179.553C161.627 184.817 156.49 191.911 158.062 199.394C158.075 199.571 158.125 199.743 158.205 199.902C158.287 200.059 158.399 200.198 158.536 200.311C158.673 200.425 158.83 200.51 159 200.56C159.171 200.612 159.349 200.628 159.525 200.608C159.702 200.59 159.872 200.535 160.027 200.45C160.181 200.363 160.318 200.246 160.426 200.106C160.535 199.967 160.615 199.807 160.662 199.635C160.707 199.463 160.719 199.284 160.694 199.109H160.697Z"
        fill="#191919" />
    <path fill-rule="evenodd" clip-rule="evenodd"
        d="M156.577 188.501C158.054 182.909 161.295 177.94 165.821 174.335C165.951 174.225 166.056 174.091 166.135 173.939C166.211 173.787 166.258 173.622 166.273 173.453C166.287 173.283 166.267 173.112 166.215 172.95C166.161 172.788 166.078 172.638 165.968 172.508C165.857 172.379 165.722 172.272 165.572 172.194C165.42 172.117 165.255 172.07 165.084 172.057C164.916 172.044 164.744 172.062 164.583 172.115C164.421 172.167 164.271 172.251 164.141 172.361C158.885 177.685 155.729 181.192 154.071 187.653C154.01 187.818 153.985 187.995 153.994 188.171C154.002 188.346 154.047 188.518 154.122 188.677C154.199 188.835 154.306 188.977 154.438 189.093C154.57 189.209 154.724 189.3 154.891 189.355C155.058 189.412 155.233 189.435 155.408 189.422C155.584 189.41 155.756 189.361 155.913 189.283C156.07 189.203 156.208 189.093 156.323 188.959C156.437 188.825 156.524 188.67 156.577 188.501Z"
        fill="#191919" />
    <path fill-rule="evenodd" clip-rule="evenodd"
        d="M153.622 179.723C161.156 170.262 166.561 163.607 177.942 159.766C183.851 158.048 189.86 156.692 195.933 155.705C196.1 155.668 196.259 155.599 196.399 155.503C196.54 155.406 196.66 155.282 196.752 155.138C196.845 154.995 196.907 154.835 196.939 154.666C196.969 154.499 196.967 154.327 196.93 154.16C196.894 153.993 196.825 153.834 196.728 153.694C196.631 153.554 196.508 153.433 196.364 153.34C196.221 153.248 196.06 153.185 195.893 153.155C195.725 153.123 195.553 153.126 195.386 153.163C185.189 155.148 174.766 156.962 166.271 162.774C161.74 166.017 157.695 169.89 154.26 174.278C153.307 175.521 152.467 176.847 151.528 178.119C151.314 178.397 151.22 178.747 151.265 179.095C151.31 179.442 151.492 179.758 151.769 179.971C152.047 180.185 152.398 180.28 152.746 180.235C153.093 180.19 153.408 180.008 153.622 179.731V179.723Z"
        fill="#191919" />
    <path fill-rule="evenodd" clip-rule="evenodd"
        d="M218.589 168.747C224.658 166.103 220.997 157.86 218.834 151.109C217.964 148.252 216.764 145.732 213.869 144.997C210.018 144.356 206.064 144.789 202.443 146.248C199.922 147.369 198.622 149.165 199.078 151.051C199.118 151.218 201.617 164.63 203.402 167.287C204.239 168.548 205.523 169.443 206.996 169.792C207.525 173.351 208.831 176.751 210.82 179.752C210.922 179.892 211.051 180.013 211.197 180.103C211.346 180.195 211.511 180.255 211.683 180.28C211.855 180.306 212.031 180.298 212.198 180.255C212.366 180.211 212.525 180.136 212.664 180.031C212.802 179.926 212.918 179.794 213.004 179.643C213.091 179.493 213.148 179.326 213.168 179.154C213.19 178.98 213.176 178.807 213.13 178.638C213.081 178.471 213.001 178.316 212.893 178.181C210.843 174.289 210.033 172.229 209.861 170.123C211.911 170.038 213.951 169.809 215.969 169.44C216.754 171.888 217.837 174.231 219.197 176.414C219.3 176.549 219.429 176.664 219.576 176.749C219.723 176.836 219.886 176.891 220.055 176.915C220.226 176.938 220.398 176.928 220.561 176.885C220.726 176.841 220.882 176.766 221.017 176.662C221.154 176.559 221.268 176.43 221.354 176.283C221.441 176.136 221.496 175.973 221.52 175.804C221.543 175.635 221.533 175.463 221.49 175.298C221.446 175.133 221.371 174.977 221.268 174.842C220.164 172.908 219.267 170.866 218.589 168.747ZM208.674 160.996C208.622 161.188 208.497 161.352 208.323 161.452C208.151 161.551 207.948 161.577 207.754 161.526C207.562 161.474 207.398 161.349 207.3 161.177C207.2 161.005 207.173 160.799 207.225 160.607C208.009 156.689 209.214 152.867 210.818 149.207C210.853 149.111 210.907 149.022 210.975 148.947C211.046 148.872 211.129 148.812 211.223 148.77C211.316 148.728 211.416 148.705 211.52 148.703C211.622 148.701 211.724 148.72 211.819 148.758C211.914 148.796 211.999 148.852 212.073 148.925C212.144 148.997 212.203 149.083 212.241 149.178C212.28 149.273 212.298 149.374 212.296 149.477C212.295 149.579 212.273 149.68 212.231 149.773C210.803 153.433 209.614 157.182 208.674 160.996ZM215.499 153.697C214.072 157.356 212.883 161.103 211.942 164.917C211.917 165.013 211.872 165.101 211.814 165.18C211.754 165.258 211.678 165.323 211.593 165.373C211.508 165.422 211.413 165.453 211.316 165.467C211.218 165.48 211.119 165.473 211.024 165.448C210.929 165.423 210.84 165.378 210.762 165.318C210.683 165.258 210.618 165.185 210.568 165.099C210.519 165.014 210.486 164.919 210.474 164.822C210.461 164.724 210.468 164.625 210.493 164.53C211.278 160.612 212.482 156.789 214.087 153.131C214.122 153.034 214.175 152.945 214.244 152.87C214.314 152.795 214.397 152.735 214.491 152.693C214.584 152.651 214.684 152.628 214.788 152.626C214.89 152.624 214.992 152.642 215.087 152.68C215.182 152.719 215.267 152.775 215.341 152.848C215.413 152.92 215.471 153.005 215.509 153.1C215.548 153.196 215.566 153.298 215.565 153.399C215.563 153.501 215.541 153.603 215.499 153.697Z"
        fill="#191919" />
    <path fill-rule="evenodd" clip-rule="evenodd"
        d="M199.233 102.345C196.977 103.636 195.058 104.794 195.058 104.794C194.834 104.934 194.655 105.136 194.545 105.376C194.433 105.616 194.395 105.883 194.431 106.145C194.47 106.407 194.583 106.651 194.757 106.85C194.932 107.049 195.161 107.192 195.415 107.264L198.966 108.314C198.844 111.931 198.81 115.114 198.81 115.114C198.807 115.394 198.892 115.667 199.052 115.896C199.213 116.124 199.441 116.297 199.705 116.389C199.969 116.481 200.255 116.489 200.524 116.41C200.791 116.331 201.028 116.17 201.2 115.949C201.2 115.949 204.016 111.996 205.589 109.8C209.421 110.442 213.408 110.869 213.408 110.869C213.678 110.91 213.955 110.864 214.199 110.739C214.445 110.614 214.643 110.416 214.769 110.172C214.894 109.929 214.941 109.652 214.901 109.38C214.861 109.109 214.737 108.857 214.547 108.66C214.547 108.66 212.155 106.245 209.465 103.483C210.894 100.938 212.29 98.3708 212.29 98.3708C212.392 98.1766 212.432 97.956 212.407 97.7382C212.381 97.5204 212.29 97.3155 212.145 97.1507C212 96.9859 211.809 96.8686 211.597 96.8145C211.384 96.7604 211.16 96.7721 210.954 96.8478C206.915 98.3958 206.496 98.6848 205.303 99.149C203.383 97.1133 201.963 95.5318 201.963 95.5318C201.779 95.3421 201.544 95.2096 201.287 95.1507C201.03 95.0917 200.759 95.1086 200.512 95.1995C200.263 95.2903 200.046 95.4511 199.887 95.6624C199.729 95.8736 199.635 96.1265 199.617 96.3902C199.617 96.3902 199.356 100.183 199.233 102.345Z"
        fill="#003090" />
    <path fill-rule="evenodd" clip-rule="evenodd"
        d="M63.9476 132.625C60.6827 132.844 57.817 133.094 57.817 133.094C57.5511 133.125 57.3003 133.234 57.0952 133.406C56.8903 133.578 56.7402 133.807 56.6634 134.063C56.5864 134.32 56.5862 134.593 56.6627 134.85C56.7393 135.106 56.8891 135.335 57.0939 135.507L60.7796 138.669C58.7756 142.566 57.0722 146.072 57.0722 146.072C56.9449 146.321 56.9003 146.604 56.9447 146.881C56.9892 147.157 57.1203 147.412 57.3193 147.609C57.5182 147.806 57.7746 147.934 58.0515 147.976C58.3282 148.018 58.6111 147.97 58.8591 147.84L67.1623 143.443C71.2004 146.182 75.5774 148.817 75.5774 148.817C75.8066 148.965 76.0763 149.037 76.3485 149.024C76.6209 149.011 76.8824 148.914 77.0965 148.745C77.3104 148.576 77.4664 148.344 77.5422 148.082C77.618 147.82 77.6102 147.541 77.5196 147.284C77.5196 147.284 76.0166 143.353 74.3583 138.906C77.2825 136.878 80.2401 134.781 80.2401 134.781C80.4206 134.653 80.5575 134.473 80.6322 134.265C80.707 134.056 80.7159 133.83 80.6577 133.617C80.5996 133.403 80.4772 133.213 80.3072 133.071C80.1372 132.93 79.9278 132.844 79.7073 132.825C79.5403 132.81 75.377 132.453 71.9485 132.341C70.7545 129.039 69.8844 126.486 69.8844 126.486C69.7939 126.24 69.6344 126.025 69.425 125.867C69.2157 125.71 68.9654 125.616 68.7039 125.596C68.4425 125.577 68.181 125.634 67.9509 125.759C67.7208 125.885 67.5317 126.074 67.4061 126.304C67.4061 126.304 65.19 130.32 63.9476 132.625Z"
        fill="#003090" />
    <path fill-rule="evenodd" clip-rule="evenodd"
        d="M164.434 241.824C159.925 241.991 156.418 242.067 156.418 242.067C156.157 242.078 155.907 242.163 155.692 242.31C155.478 242.457 155.309 242.663 155.204 242.9C155.1 243.139 155.065 243.401 155.102 243.658C155.139 243.917 155.249 244.157 155.416 244.356C155.416 244.356 158.981 248.514 161.051 250.886C159.641 254.949 158.485 258.568 158.485 258.568C158.407 258.833 158.41 259.116 158.495 259.378C158.581 259.64 158.743 259.872 158.96 260.041C159.179 260.209 159.442 260.31 159.718 260.325C159.993 260.341 160.267 260.275 160.504 260.133L166.244 256.783C169.775 260.697 172.998 264.164 172.998 264.164C173.181 264.366 173.424 264.506 173.691 264.565C173.958 264.623 174.235 264.598 174.487 264.493C174.74 264.388 174.953 264.207 175.099 263.977C175.244 263.746 175.314 263.476 175.301 263.202C175.301 263.202 174.683 255.166 174.397 251.303C179.608 247.517 184.945 243.262 184.945 243.262C185.169 243.097 185.332 242.865 185.413 242.598C185.494 242.332 185.488 242.046 185.394 241.784C185.301 241.522 185.125 241.298 184.893 241.143C184.663 240.988 184.387 240.913 184.11 240.924C184.11 240.924 178.813 241.205 172.842 241.477C171.956 237.185 170.995 232.763 170.995 232.763C170.945 232.548 170.83 232.354 170.666 232.205C170.503 232.057 170.297 231.963 170.077 231.935C169.858 231.906 169.636 231.946 169.439 232.05C169.244 232.152 169.083 232.312 168.981 232.507C166.598 237.103 164.511 241.656 164.434 241.824Z"
        fill="#003090" />
    <path
        d="M189.971 67.2145C189.759 67.2145 189.551 67.1605 189.364 67.0575C189.178 66.9545 189.021 66.8058 188.909 66.6256C188.797 66.4454 188.732 66.2395 188.721 66.0273C188.709 65.815 188.752 65.6036 188.846 65.4126L204.502 33.4087C204.574 33.2609 204.676 33.1288 204.798 33.0199C204.921 32.911 205.065 32.8274 205.22 32.7739C205.377 32.7206 205.541 32.6983 205.706 32.7085C205.87 32.7186 206.03 32.7612 206.179 32.8334C206.326 32.9057 206.458 33.0064 206.566 33.1296C206.676 33.253 206.76 33.3965 206.813 33.5521C206.867 33.7078 206.889 33.8724 206.879 34.0366C206.868 34.2008 206.825 34.3614 206.753 34.5092L191.097 66.5131C190.993 66.7238 190.833 66.9012 190.634 67.0253C190.436 67.1494 190.205 67.2148 189.971 67.2145Z"
        fill="#191919" />
    <path
        d="M177.996 65.6038C177.678 65.6031 177.373 65.4822 177.142 65.2651C176.91 65.0482 176.77 64.7514 176.748 64.4348L174.911 37.2656C174.9 37.1011 174.921 36.9361 174.975 36.7799C175.028 36.6236 175.11 36.4795 175.219 36.3554C175.327 36.2313 175.459 36.13 175.608 36.0568C175.755 35.9837 175.917 35.9404 176.08 35.9296C176.246 35.9185 176.409 35.9401 176.566 35.9929C176.722 36.0458 176.867 36.1288 176.99 36.2373C177.114 36.3459 177.216 36.4778 177.289 36.6256C177.363 36.7732 177.405 36.9341 177.416 37.0986L179.253 64.2678C179.265 64.4395 179.24 64.6116 179.181 64.7736C179.125 64.9356 179.033 65.0839 178.916 65.2092C178.797 65.3346 178.655 65.4343 178.497 65.5021C178.338 65.5699 178.168 65.6046 177.996 65.6038Z"
        fill="#191919" />
    <path
        d="M237.379 264.725C237.174 264.725 236.97 264.675 236.788 264.578C236.606 264.482 236.453 264.34 236.337 264.169L213.552 230.13C213.458 229.993 213.393 229.839 213.358 229.677C213.325 229.515 213.323 229.348 213.355 229.185C213.387 229.023 213.448 228.867 213.54 228.73C213.632 228.592 213.751 228.473 213.888 228.381C214.024 228.289 214.18 228.224 214.342 228.193C214.504 228.161 214.672 228.161 214.834 228.194C214.996 228.228 215.15 228.291 215.287 228.385C215.424 228.478 215.543 228.597 215.633 228.735L238.418 262.768C238.545 262.957 238.62 263.177 238.632 263.404C238.644 263.632 238.594 263.859 238.487 264.059C238.381 264.26 238.221 264.428 238.026 264.547C237.83 264.664 237.607 264.725 237.379 264.725Z"
        fill="#191919" />
    <path
        d="M250.214 243.23C249.652 243.23 250.086 243.382 227.335 229.05C227.197 228.961 227.075 228.848 226.981 228.712C226.886 228.579 226.818 228.427 226.781 228.267C226.744 228.106 226.741 227.939 226.768 227.777C226.796 227.615 226.856 227.46 226.943 227.321C227.031 227.181 227.145 227.061 227.28 226.966C227.414 226.87 227.566 226.804 227.726 226.767C227.886 226.73 228.053 226.725 228.215 226.754C228.377 226.782 228.533 226.84 228.671 226.929L250.882 240.917C251.111 241.062 251.286 241.278 251.383 241.531C251.479 241.785 251.49 242.062 251.415 242.323C251.34 242.584 251.183 242.812 250.966 242.976C250.749 243.14 250.487 243.228 250.214 243.23Z"
        fill="#191919" />
</svg>