<svg width="383" height="259" viewBox="0 0 383 259" fill="none" xmlns="http://www.w3.org/2000/svg">
<path d="M119.445 215.718L116.28 109.139H271.4V215.19L119.676 215.521" fill="#0B0A10"/>
<path d="M264.311 210.444H125.975L122.875 115.208H265.86L264.311 210.444Z" fill="#313131"/>
<path d="M99.5977 246.391H291.915L271.404 215.195H119.186L99.5977 246.391Z" fill="#B7B8FB"/>
<path d="M99.5977 246.391H291.915L271.404 215.195H119.186L99.5977 246.391Z" fill="black"/>
<path d="M121.824 219.284H267.051L270.086 222.714H118.922L121.824 219.284Z" stroke="white" stroke-width="0.183838" stroke-miterlimit="10" stroke-linecap="round" stroke-linejoin="round"/>
<path d="M116.62 226.944H272.239L275.49 230.62H114.235L116.62 226.944Z" stroke="white" stroke-width="0.197038" stroke-miterlimit="10" stroke-linecap="round" stroke-linejoin="round"/>
<path d="M148.031 235.902H235.865L237.7 240.057H146.685L148.031 235.902Z" stroke="white" stroke-width="0.157378" stroke-miterlimit="10" stroke-linecap="round" stroke-linejoin="round"/>
<path d="M281.063 103.353C291.465 106.261 300.528 106.364 301.305 103.585C302.082 100.804 294.28 96.1932 283.877 93.285C273.475 90.3769 264.412 90.2731 263.635 93.0534C262.858 95.8338 270.66 100.445 281.063 103.353Z" fill="#050004"/>
<path d="M295.113 106.021C295.003 106.021 294.894 106.021 294.787 106.019C290.929 105.975 286.014 105.171 280.949 103.755C275.884 102.339 271.266 100.478 267.943 98.515C265.489 97.0648 262.68 94.9204 263.233 92.9422C264.219 89.4107 274.663 90.2777 283.989 92.8846C293.314 95.491 302.691 100.167 301.705 103.698C301.173 105.601 297.899 106.021 295.113 106.021ZM281.173 102.953C286.17 104.349 291.008 105.142 294.797 105.186C298.317 105.236 300.591 104.586 300.902 103.473C301.514 101.283 294.626 96.7246 283.763 93.688C272.899 90.6502 264.647 90.9754 264.035 93.1678C263.724 94.2802 265.344 96.0112 268.367 97.798C271.629 99.7246 276.177 101.556 281.173 102.953Z" fill="white"/>
<path d="M285.375 77.9995C284.97 77.9041 284.624 77.6281 284.427 77.2615L284.262 76.9555C285.087 75.6451 285.864 74.3023 286.482 72.8887C287.441 70.6964 288.187 68.3522 289.784 66.515C290.805 65.3402 293.415 64.1126 294.525 66.0026C294.53 66.0104 294.533 66.0194 294.537 66.0272C292.422 71.4085 290.072 75.7921 288.431 78.4195C287.452 78.3781 286.436 78.2491 285.375 77.9995Z" fill="white"/>
<path d="M288.432 78.8336C288.427 78.8336 288.421 78.8336 288.414 78.833C287.345 78.788 286.32 78.647 285.281 78.4016C284.764 78.2798 284.32 77.9348 284.062 77.456L283.897 77.1512C283.825 77.0186 283.831 76.8579 283.911 76.7307C284.9 75.1617 285.575 73.9245 286.102 72.7197C286.298 72.2703 286.485 71.8149 286.673 71.3583C287.403 69.5835 288.158 67.7494 289.471 66.2386C290.232 65.362 291.759 64.4932 293.068 64.6162C293.849 64.6882 294.477 65.0938 294.886 65.7886C294.943 65.896 294.971 66.064 294.927 66.1768C292.413 72.5745 289.795 77.0222 288.786 78.6374C288.709 78.7598 288.575 78.8336 288.432 78.8336ZM284.746 76.9682L284.795 77.0606C284.939 77.3264 285.192 77.5244 285.472 77.5904H285.473C286.382 77.8052 287.278 77.936 288.208 77.9888C289.274 76.2603 291.71 72.0417 294.072 66.0694C293.805 65.6926 293.451 65.4904 292.992 65.4478C291.989 65.3608 290.735 66.0556 290.099 66.787C288.877 68.1939 288.148 69.9639 287.444 71.6763C287.254 72.1383 287.064 72.5991 286.865 73.0545C286.345 74.2437 285.688 75.4587 284.746 76.9682Z" fill="#050004"/>
<path d="M288.429 78.416C290.069 75.7893 292.42 71.4057 294.534 66.0238C294.559 65.962 294.583 65.902 294.607 65.8402C295.19 64.3468 296.143 63.9232 297.076 63.9526C298.447 63.9952 299.495 64.9606 299.887 66.19C298.452 70.8333 296.022 74.6283 294.031 77.537C292.339 78.1706 290.472 78.503 288.429 78.416Z" fill="white"/>
<path d="M289.063 78.8476C288.847 78.8476 288.63 78.8434 288.413 78.8338C288.265 78.8278 288.131 78.7432 288.062 78.6118C287.992 78.481 287.998 78.3226 288.077 78.1966C289.074 76.6012 291.66 72.2063 294.148 65.8733L294.222 65.6891C294.935 63.8586 296.201 63.5052 297.091 63.5382C298.557 63.5832 299.811 64.5756 300.287 66.0647C300.313 66.1463 300.313 66.2333 300.288 66.3149C298.889 70.8377 296.621 74.4952 294.378 77.7742C294.329 77.845 294.26 77.899 294.179 77.9296C292.548 78.5398 290.83 78.8476 289.063 78.8476ZM296.99 64.3704C296.076 64.3704 295.424 64.902 294.999 65.9939L294.924 66.1793C292.684 71.8817 290.361 76.0348 289.168 78.0136C290.754 78.0022 292.296 77.7268 293.766 77.1934C295.925 74.0285 298.099 70.5053 299.452 66.1973C299.058 65.1162 298.134 64.4046 297.066 64.3716C297.04 64.371 297.015 64.3704 296.99 64.3704Z" fill="#050004"/>
<path d="M294.034 77.5395C296.025 74.6301 298.455 70.8352 299.89 66.1924C299.968 65.9428 300.046 65.6938 300.117 65.4394C300.387 64.4728 300.931 63.5782 301.776 63.0364C304.054 61.5755 306.112 63.5782 306.112 63.5782C306.238 63.7606 306.331 63.9736 306.408 64.1998C304.664 68.0326 300.673 75.0567 294.034 77.5395Z" fill="white"/>
<path d="M294.036 77.9539C293.911 77.9539 293.788 77.8969 293.708 77.7937C293.596 77.6509 293.589 77.4511 293.692 77.3017C295.899 74.0768 298.128 70.4834 299.494 66.0668L299.537 65.9283C299.599 65.7285 299.661 65.528 299.718 65.3235C300.039 64.1733 300.691 63.2355 301.552 62.6823C303.575 61.3845 305.61 62.5041 306.404 63.2769C306.591 63.5337 306.701 63.7635 306.804 64.0617C306.839 64.1625 306.833 64.2735 306.79 64.3701C304.979 68.3492 300.932 75.4021 294.183 77.9269C294.135 77.9449 294.085 77.9539 294.036 77.9539ZM303.537 62.9157C303.06 62.9157 302.538 63.0405 302.002 63.3843C301.314 63.8265 300.787 64.5951 300.52 65.5491C300.461 65.7603 300.397 65.9672 300.334 66.1736L300.291 66.3116C299.058 70.301 297.147 73.6166 295.175 76.5931C300.799 73.8488 304.292 67.799 305.959 64.1805C305.9 64.0305 305.838 63.9111 305.77 63.8127C305.754 63.8061 304.808 62.9157 303.537 62.9157Z" fill="#050004"/>
<path d="M274.198 82.3534C274.54 81.3808 274.607 80.3326 274.394 79.324L272.393 69.8723C272.101 68.4911 272.615 67.0632 273.721 66.1854C275.437 64.8234 277.966 65.3292 279.026 67.2455L284.263 76.9546L284.428 77.2606C284.626 77.6266 284.971 77.9026 285.376 77.9986C286.438 78.2488 287.453 78.3778 288.432 78.4192C290.476 78.5056 292.342 78.1732 294.035 77.5402C300.674 75.0569 304.664 68.0333 306.408 64.2012C306.579 63.8256 306.73 63.4788 306.858 63.1716C307.476 61.6914 308.709 60.501 310.272 60.1398C311.845 59.7762 313.742 60.177 315.04 63.234C317.637 69.3479 299.748 87.9831 299.748 87.9831L294.977 110.644C290.72 117.445 267.658 100.949 267.658 100.949L274.198 82.3534Z" fill="white"/>
<path d="M291.364 112.702C283.468 112.702 268.1 101.778 267.412 101.285C267.262 101.178 267.2 100.983 267.262 100.808L273.802 82.2124C274.119 81.3118 274.182 80.3422 273.984 79.408L271.983 69.9563C271.655 68.4101 272.221 66.8388 273.459 65.8566C274.373 65.1312 275.553 64.8462 276.698 65.0748C277.843 65.3034 278.823 66.0204 279.388 67.0416L284.792 77.0602C284.935 77.326 285.188 77.524 285.469 77.59C286.456 77.8234 287.431 77.9572 288.447 77.9998C290.323 78.0766 292.16 77.7928 293.887 77.1472C300.354 74.7275 304.269 67.8875 306.027 64.026C306.194 63.6552 306.344 63.312 306.471 63.0084C307.172 61.3302 308.557 60.1044 310.176 59.7306C311.763 59.3646 313.967 59.6436 315.421 63.0684C318.031 69.2099 301.615 86.6253 300.13 88.1823L295.383 110.728C295.373 110.776 295.355 110.822 295.328 110.864C294.761 111.769 293.872 112.348 292.686 112.582C292.274 112.663 291.832 112.702 291.364 112.702ZM268.153 100.787C270.345 102.321 285.995 113.057 292.523 111.764C293.462 111.579 294.135 111.159 294.582 110.481L299.338 87.8943C299.354 87.8181 299.391 87.7479 299.445 87.6915C299.622 87.5073 317.113 69.1871 314.653 63.3942C313.668 61.0734 312.226 60.1134 310.363 60.543C309.005 60.8568 307.838 61.8984 307.24 63.3294C307.112 63.6396 306.958 63.9906 306.786 64.3704C304.975 68.3501 300.928 75.4031 294.179 77.9278C292.347 78.6124 290.409 78.9172 288.412 78.8326C287.343 78.7876 286.318 78.6466 285.278 78.4012C284.761 78.2794 284.317 77.9344 284.059 77.4556L278.657 67.4411C278.213 66.639 277.438 66.0732 276.535 65.8926C275.632 65.7138 274.7 65.937 273.978 66.51C272.989 67.2941 272.538 68.5487 272.799 69.7835L274.8 79.2352C275.03 80.3194 274.957 81.4444 274.589 82.4896L268.153 100.787Z" fill="#050004"/>
<path d="M299.589 103.299C282.381 106.481 268.812 96.9034 264.941 93.7858C264.403 93.3526 263.602 93.61 263.408 94.273L253.094 129.633C247.452 123.304 238.932 119.455 229.821 119.365L221.698 119.286L166.276 119.752L166.268 119.723L164.805 119.759L164.319 119.761L164.312 119.771L159.849 119.88C149.406 120.136 140.011 127.97 137.153 139.574C137.037 140.042 136.932 140.516 136.838 140.995L127.864 211.604L155.582 211.698L173.754 211.791L246.595 211.558L246.508 200.57C259.764 201.816 272.984 196.058 280.52 184.853C283.232 180.821 285.189 176.205 286.169 171.184L301.063 104.826C301.263 103.935 300.487 103.133 299.589 103.299Z" fill="white" stroke="#020202" stroke-width="0.599993" stroke-miterlimit="10"/>
<path d="M246.351 156.441C246.316 156.441 246.282 156.437 246.247 156.428C246.023 156.371 245.889 156.143 245.947 155.92L252.86 129.032C252.918 128.809 253.145 128.675 253.368 128.733C253.591 128.791 253.726 129.018 253.668 129.241L246.754 156.129C246.706 156.317 246.536 156.441 246.351 156.441Z" fill="#020202"/>
<path d="M294.219 117.359C289.853 117.359 282.323 116.532 273.859 111.996C273.656 111.887 273.579 111.634 273.688 111.431C273.797 111.228 274.05 111.149 274.253 111.261C287.254 118.227 297.925 116.287 298.032 116.266C298.253 116.225 298.477 116.371 298.52 116.598C298.563 116.823 298.415 117.042 298.189 117.085C298.149 117.094 296.69 117.359 294.219 117.359Z" fill="white"/>
<path d="M293.518 112.678C293.51 112.678 293.502 112.678 293.494 112.678C292.924 112.672 292.389 112.444 291.988 112.035C291.589 111.627 291.372 111.087 291.378 110.515C291.384 109.945 291.612 109.41 292.021 109.009C292.864 108.184 294.222 108.2 295.046 109.042C295.446 109.45 295.663 109.99 295.656 110.562C295.65 111.133 295.422 111.667 295.014 112.068C294.61 112.462 294.081 112.678 293.518 112.678ZM293.518 109.233C293.188 109.233 292.858 109.357 292.604 109.605C292.089 110.109 292.081 110.937 292.584 111.451C293.086 111.965 293.915 111.974 294.43 111.471C294.945 110.968 294.953 110.14 294.45 109.625C294.195 109.365 293.857 109.233 293.518 109.233Z" fill="white"/>
<path d="M173.354 70.2345C171.697 72.8384 171.674 76.1672 172.991 78.9584L176.445 86.2735L176.28 86.3077C176.28 86.3077 179.883 105.2 188.848 100.24C190.441 99.3581 191.653 98.2254 192.582 96.9618C194.951 97.9314 197.539 98.4774 200.259 98.475C211.276 98.4666 220.214 89.6724 220.501 78.7274C221.626 78.533 222.486 78.104 222.892 77.3276C224.309 76.058 225.353 74.3474 225.778 72.3428C226.845 67.3101 223.63 62.3649 218.598 61.2982C218.174 61.2082 217.751 61.159 217.33 61.129C213.296 56.7298 210.658 52.1723 202.674 52.2641C199.195 52.3049 195.816 53.8732 193.838 56.8168C193.817 56.848 193.813 56.8924 193.783 56.9158C193.436 57.1912 189.533 57.1744 188.994 57.2584C185.125 57.8572 180.149 58.84 177.844 62.3337C176.824 63.8787 176.346 65.6997 176.061 67.5417C174.958 68.2239 174.042 69.1527 173.354 70.2345Z" fill="#050004"/>
<path d="M185.939 101.486C185.176 101.486 184.431 101.316 183.708 100.977C178.219 98.4029 175.963 86.8734 175.87 86.3844L175.793 85.9812L175.841 85.9716L172.614 79.1353C171.19 76.1203 171.339 72.623 173.002 70.0094C173.698 68.915 174.621 67.9772 175.679 67.2884C175.911 65.8508 176.358 63.8259 177.495 62.1015C179.747 58.6875 184.322 57.5571 188.93 56.8437C189.127 56.8131 189.593 56.7981 190.401 56.7735C191.337 56.7453 193.028 56.6949 193.491 56.5827C195.455 53.6596 198.885 51.889 202.668 51.8446C209.737 51.751 212.777 55.2802 216.008 59.0037C216.502 59.5719 217.003 60.1485 217.526 60.7239C217.96 60.7605 218.332 60.8133 218.684 60.8883C221.227 61.4277 223.408 62.9247 224.825 65.1045C226.242 67.2842 226.725 69.8846 226.186 72.4274C225.761 74.4295 224.737 76.2127 223.224 77.5873C222.811 78.3193 222.033 78.8167 220.907 79.0693C220.442 90.2022 211.436 98.8811 200.26 98.8895C200.254 98.8895 200.247 98.8895 200.241 98.8895C197.663 98.8895 195.136 98.4107 192.723 97.4651C191.724 98.7515 190.49 99.8057 189.05 100.602C187.986 101.191 186.947 101.486 185.939 101.486ZM176.773 86.6292C177.224 88.6938 179.503 98.0855 184.063 100.223C185.502 100.898 187.001 100.783 188.645 99.8735C190.075 99.0827 191.286 98.0195 192.245 96.7139L192.438 96.4511L192.739 96.5747C195.141 97.5587 197.665 98.0567 200.241 98.0567C200.247 98.0567 200.253 98.0567 200.259 98.0567C211.091 98.0483 219.799 89.5524 220.084 78.7147L220.093 78.3733L220.43 78.3151C221.505 78.1297 222.209 77.7319 222.523 77.1331L222.614 77.0161C224.024 75.7537 224.977 74.1074 225.37 72.2552C225.863 69.9302 225.421 67.5524 224.126 65.5592C222.83 63.5667 220.836 62.1975 218.512 61.7049C218.152 61.6281 217.768 61.5771 217.3 61.5429L217.135 61.5309L217.022 61.4085C216.453 60.7875 215.912 60.1635 215.379 59.5503C212.143 55.822 209.363 52.6042 202.678 52.6786C199.168 52.7194 195.993 54.3526 194.184 57.0465C194.19 57.0513 194.149 57.1551 194.043 57.2397C193.77 57.4557 193.06 57.5277 190.426 57.6063C189.829 57.6243 189.213 57.6423 189.058 57.6669C184.639 58.3509 180.265 59.4171 178.191 62.5599C177.356 63.8265 176.81 65.4284 176.472 67.6022L176.443 67.7912L176.28 67.8926C175.26 68.5238 174.37 69.41 173.705 70.4558C172.194 72.83 172.065 76.0183 173.367 78.7777L177.047 86.571L176.773 86.6292Z" fill="#050004"/>
<path d="M219.554 74.5143C216.079 69.2098 215.549 68.9572 219.194 74.6985C215.505 76.6731 211.017 77.1069 206.803 75.4935C203.278 74.1447 200.581 71.5954 198.951 68.5C199.491 70.606 199.414 72.892 198.578 75.0765C197.019 79.1517 193.273 81.7364 189.19 82.031L189.211 84.3098C189.219 85.064 189.131 85.775 188.98 86.4434C187.234 84.9116 185.12 84.089 182.916 84.293C182.607 84.3218 182.305 84.3782 182.007 84.446C181.894 84.4742 181.782 84.503 181.672 84.5354C181.505 84.5816 181.341 84.6362 181.179 84.6944C181.021 84.7508 180.866 84.8108 180.713 84.8756C180.147 85.1222 179.604 85.4288 179.099 85.8062L179.09 85.7768C176.478 87.572 174.87 90.6644 175.181 94.0453C175.677 99.4435 180.816 103.297 186.292 102.026C186.447 102.14 186.513 102.191 186.667 102.305L187.821 134.337L212.165 132.259C211.647 126.183 210.551 113.979 210.55 113.964C210.561 113.91 212.039 113.488 213.877 112.983C213.919 112.971 213.962 112.96 214.006 112.948C220.569 111.132 224.813 104.777 224.016 98.0131C223.416 92.9155 222.839 87.7598 222.798 86.4458C222.67 82.3118 221.849 78.0171 219.554 74.5143Z" fill="white"/>
<path d="M187.822 134.754C187.721 134.754 187.622 134.718 187.545 134.649C187.46 134.574 187.409 134.466 187.406 134.353L186.259 102.522L186.197 102.476C183.558 103.032 180.821 102.46 178.655 100.896C176.434 99.2931 175.017 96.8097 174.766 94.0851C174.455 90.697 176.021 87.382 178.855 85.4344C178.896 85.4068 178.94 85.3864 178.986 85.3744C179.462 85.0342 179.986 84.739 180.547 84.4942C180.712 84.4252 180.875 84.3616 181.039 84.3028C181.211 84.241 181.385 84.184 181.562 84.1348C181.671 84.1024 181.789 84.0725 181.907 84.0431C182.283 83.9573 182.589 83.9063 182.879 83.8793C184.89 83.6933 186.932 84.3287 188.701 85.6768C188.768 85.2226 188.8 84.7666 188.796 84.3154L188.774 82.0373C188.772 81.8171 188.942 81.6335 189.161 81.6173C193.203 81.3257 196.746 78.7007 198.19 74.9298C198.965 72.903 199.089 70.716 198.549 68.6052C198.496 68.4006 198.605 68.1888 198.802 68.1126C198.998 68.037 199.222 68.121 199.321 68.3076C200.971 71.4396 203.682 73.854 206.953 75.1061C210.742 76.5557 214.96 76.3451 218.6 74.5392C215.994 70.4268 216.067 70.38 216.474 70.1172C216.88 69.8568 216.962 69.7962 219.905 74.2878C221.95 77.4077 223.064 81.4949 223.217 86.4346C223.25 87.5122 223.67 91.4998 224.432 97.9659C225.261 104.998 220.923 111.469 214.118 113.351L213.989 113.387C212.134 113.898 211.336 114.133 210.995 114.242C211.169 116.186 212.113 126.721 212.582 132.226C212.602 132.455 212.432 132.657 212.202 132.677L187.858 134.753C187.846 134.754 187.834 134.754 187.822 134.754ZM186.294 101.61C186.383 101.61 186.47 101.638 186.543 101.693L186.918 101.972C187.019 102.047 187.08 102.165 187.085 102.291L188.223 133.884L211.716 131.88C211.215 126.035 210.255 115.332 210.147 114.115L210.136 114C210.133 113.959 210.136 113.918 210.144 113.878C210.211 113.56 210.211 113.56 213.767 112.581L214.007 112.948L213.896 112.547C220.302 110.775 224.384 104.683 223.604 98.0625C222.829 91.48 222.418 87.5758 222.383 86.4598C222.241 81.8417 221.24 78.0083 219.409 75.0581C219.404 75.0611 219.398 75.0642 219.393 75.0672C215.452 77.1761 210.808 77.4737 206.655 75.8837C203.85 74.8098 201.434 72.9282 199.69 70.4898C199.795 72.0954 199.552 73.7028 198.969 75.2267C197.457 79.1771 193.811 81.9623 189.612 82.4129L189.63 84.3064C189.638 85.0468 189.556 85.7968 189.389 86.536C189.357 86.6794 189.251 86.7952 189.111 86.8408C188.972 86.8882 188.818 86.8552 188.707 86.758C186.966 85.231 184.981 84.5219 182.957 84.7096C182.703 84.733 182.432 84.7786 182.1 84.8536C182.003 84.8782 181.896 84.9052 181.792 84.9364C181.628 84.982 181.475 85.033 181.321 85.0882C181.171 85.1422 181.022 85.1998 180.876 85.261C180.325 85.501 179.81 85.798 179.351 86.1412C179.304 86.176 179.252 86.2 179.197 86.2126C176.695 88.0006 175.318 90.9724 175.598 94.0077C175.826 96.4929 177.119 98.7573 179.144 100.219C181.196 101.701 183.701 102.201 186.2 101.62C186.23 101.614 186.262 101.61 186.294 101.61Z" fill="#050004"/>
<path d="M203.757 114.883C200.568 114.901 197.56 114.111 194.909 112.705C199.352 121.159 211.332 121.84 211.332 121.84L210.622 113.513C208.491 114.372 206.182 114.869 203.757 114.883Z" fill="#050004"/>
<path d="M210.192 86.0662C210.097 86.8114 209.416 87.3394 208.671 87.2446C207.925 87.1504 207.397 86.4694 207.492 85.7236C207.587 84.9784 208.267 84.4504 209.013 84.5452C209.758 84.64 210.286 85.3204 210.192 86.0662Z" fill="#050004"/>
<path d="M221.812 86.0695C221.728 86.7307 221.124 87.1987 220.463 87.1153C219.801 87.0313 219.333 86.4271 219.417 85.7659C219.501 85.1047 220.105 84.6367 220.767 84.7207C221.428 84.8041 221.896 85.4083 221.812 86.0695Z" fill="#050004"/>
<path d="M210.028 79.6052C209.634 79.8758 209.066 79.931 208.52 80.0168C207.969 80.0912 207.417 80.18 206.94 80.2736C206.462 80.3672 205.917 80.4938 205.379 80.6336C204.841 80.7608 204.291 80.924 203.83 80.8214C203.386 80.729 203.122 80.2646 203.488 79.559C203.827 78.875 204.893 77.9942 206.473 77.6804C208.053 77.3744 209.353 77.7908 209.908 78.299C210.493 78.818 210.409 79.3496 210.028 79.6052Z" fill="#050004"/>
<path d="M218.179 78.8336C218.529 79.073 219.033 79.1222 219.517 79.1978C220.006 79.2632 220.496 79.3412 220.919 79.4246C221.343 79.5074 221.827 79.619 222.305 79.7426C222.782 79.8548 223.27 79.9994 223.679 79.9082C224.072 79.8254 224.306 79.4138 223.982 78.7874C223.681 78.1808 222.734 77.4008 221.332 77.123C219.93 76.8524 218.778 77.2232 218.286 77.6744C217.766 78.1364 217.841 78.608 218.179 78.8336Z" fill="#050004"/>
<path d="M212.761 94.2389C212.542 94.2389 212.359 94.0685 212.345 93.8471C212.331 93.6173 212.506 93.4193 212.736 93.4055L214.982 93.2681C215.763 93.2207 216.462 92.8211 216.9 92.1725C217.338 91.5239 217.448 90.7259 217.2 89.9832L214.466 81.8028C214.394 81.5844 214.511 81.348 214.729 81.2748C214.95 81.201 215.184 81.3198 215.257 81.5376L217.991 89.7186C218.322 90.7092 218.176 91.7735 217.592 92.6387C217.008 93.5039 216.075 94.0367 215.033 94.1003L212.787 94.2377C212.779 94.2389 212.77 94.2389 212.761 94.2389Z" fill="#050004"/>
<path d="M211.281 97.908C211.273 97.908 211.264 97.9074 211.256 97.9074C205.846 97.5888 205.789 93.9846 205.789 93.948C205.79 93.7182 205.976 93.5322 206.206 93.5322H206.207C206.436 93.5328 206.622 93.7182 206.623 93.9474C206.625 94.0692 206.716 96.8052 211.306 97.0752C211.535 97.0884 211.711 97.2864 211.697 97.5156C211.684 97.737 211.5 97.908 211.281 97.908Z" fill="#050004"/>
<path d="M222.607 91.9783C220.032 91.9783 217.758 90.1057 217.338 87.4837C217.113 86.0755 217.449 84.6644 218.285 83.5094C219.121 82.3544 220.357 81.5942 221.765 81.3686C224.671 80.9024 227.415 82.8896 227.88 85.7953C228.346 88.7017 226.359 91.4455 223.453 91.9105C223.17 91.9561 222.886 91.9783 222.607 91.9783ZM222.612 82.1348C222.376 82.1348 222.137 82.1534 221.897 82.1918C219.445 82.5848 217.768 84.8996 218.161 87.3517C218.555 89.8039 220.872 91.4815 223.321 91.0873C225.773 90.6943 227.449 88.3795 227.057 85.9273C226.702 83.7152 224.784 82.1348 222.612 82.1348Z" fill="#003090"/>
<path d="M207.55 93.2082C206.279 93.2082 205.044 92.8104 203.995 92.0508C202.679 91.0974 201.812 89.6886 201.555 88.0842C201.025 84.7717 203.288 81.6445 206.601 81.1135C209.916 80.5819 213.041 82.8463 213.572 86.1595C213.829 87.7644 213.446 89.3736 212.492 90.69C211.54 92.007 210.131 92.8734 208.526 93.1302C208.2 93.1824 207.874 93.2082 207.55 93.2082ZM207.566 81.8707C207.292 81.8707 207.013 81.8923 206.733 81.9373C203.874 82.3957 201.921 85.0939 202.379 87.9528C202.601 89.3376 203.349 90.5532 204.485 91.3758C205.621 92.1978 207.009 92.5296 208.394 92.307C209.78 92.085 210.995 91.3374 211.818 90.2016C212.64 89.0652 212.971 87.6768 212.749 86.292C212.335 83.7127 210.099 81.8707 207.566 81.8707Z" fill="#003090"/>
<path d="M213.354 86.9925C213.221 86.9925 213.09 86.9289 213.009 86.8107C212.879 86.6205 212.928 86.3613 213.119 86.2311C215.994 84.2673 217.934 86.0433 217.954 86.0619C218.121 86.2197 218.129 86.4837 217.971 86.6517C217.813 86.8185 217.55 86.8263 217.383 86.6703C217.314 86.6079 215.885 85.3521 213.588 86.9205C213.517 86.9691 213.435 86.9925 213.354 86.9925Z" fill="#003090"/>
<path d="M182.6 95.8662C182.488 95.8662 182.375 95.8206 182.293 95.7312C182.137 95.5614 182.149 95.2974 182.318 95.142L184.109 93.4974L181.435 91.3627C181.255 91.2187 181.225 90.9565 181.369 90.7765C181.513 90.5971 181.775 90.5677 181.955 90.7111L185.01 93.1494C185.105 93.225 185.162 93.339 185.167 93.4608C185.171 93.5826 185.122 93.6996 185.032 93.7824L182.883 95.7558C182.803 95.8302 182.701 95.8662 182.6 95.8662Z" fill="#050004"/>
<path d="M214.485 211.662H183.924V116.92L199.405 125.833L214.485 116.92V211.662Z" fill="#003090"/>
<path d="M214.482 212.075H183.921C183.69 212.075 183.504 211.889 183.504 211.658V116.916C183.504 116.768 183.583 116.63 183.712 116.556C183.841 116.481 184 116.482 184.129 116.555L199.399 125.347L214.27 116.558C214.4 116.483 214.56 116.481 214.689 116.555C214.819 116.628 214.9 116.767 214.9 116.917V211.659C214.899 211.889 214.713 212.075 214.482 212.075ZM184.337 211.241H214.065V117.647L199.614 126.189C199.484 126.264 199.324 126.266 199.194 126.191L184.338 117.638V211.241H184.337Z" fill="#003090"/>
<g opacity="0.63">
<path d="M214.202 212.079H183.921C183.691 212.079 183.504 211.893 183.504 211.662V116.786C183.504 116.637 183.584 116.499 183.713 116.424C183.843 116.351 184.002 116.351 184.131 116.425L199.257 125.228L213.988 116.427C214.117 116.35 214.278 116.348 214.408 116.423C214.539 116.497 214.619 116.635 214.619 116.785V211.662C214.619 211.893 214.432 212.079 214.202 212.079ZM184.338 211.245H213.785V117.52L199.473 126.07C199.343 126.148 199.181 126.148 199.05 126.073L184.338 117.511V211.245Z" fill="#000201"/>
</g>
<path d="M185.918 134.908C185.774 134.908 185.634 134.834 185.556 134.7C185.441 134.501 185.509 134.246 185.708 134.131L199.249 126.284C199.378 126.211 199.537 126.209 199.666 126.284L213.208 134.077C213.407 134.191 213.476 134.446 213.361 134.646C213.246 134.846 212.992 134.914 212.792 134.8L199.459 127.127L186.126 134.853C186.06 134.89 185.988 134.908 185.918 134.908Z" fill="#003090"/>
<path d="M126.091 151.665C117.695 153.666 110.373 153.118 109.736 150.444C109.099 147.769 115.388 143.98 123.784 141.98C132.18 139.98 139.502 140.526 140.139 143.201C140.776 145.876 134.486 149.665 126.091 151.665Z" fill="#000201"/>
<path d="M127.32 151.834C126.946 151.933 126.573 152.026 126.199 152.116C118.611 153.924 110.104 153.99 109.284 150.552C108.465 147.112 116.096 143.343 123.676 141.528C131.263 139.721 139.77 139.655 140.59 143.093C141.368 146.362 134.516 149.937 127.32 151.834ZM122.741 142.719C114.716 144.835 109.714 148.351 110.187 150.336C110.682 152.413 117.291 153.284 125.983 151.213C134.666 149.142 140.182 145.384 139.687 143.307C139.192 141.231 132.583 140.36 123.891 142.43C123.501 142.524 123.118 142.62 122.741 142.719Z" fill="#000201"/>
<path d="M116.044 142.473C113.126 138.345 111.687 133.115 113.305 128.189L116.189 128.875C116.189 128.875 117.95 120.935 117.73 115.313C118.572 113.293 126.344 116.293 126.344 116.293C126.344 116.293 125.337 114.301 124.835 113.306C124.301 112.251 124.143 111.227 124.251 110.049C124.36 108.872 125.419 107.701 126.578 107.937C127.718 108.168 130.329 112.479 131.109 113.475C135.807 119.465 136.741 127.908 136.897 135.281C136.98 139.211 143.397 179.026 142.932 180.881C140.129 192.081 125.056 194.057 119.465 183.955C118.668 181.932 118.102 179.836 117.773 177.704C117.326 174.823 119.109 148.38 119.081 147.494C119.042 146.25 118.332 145.234 117.536 144.282C117.022 143.667 116.473 143.079 116.044 142.473Z" fill="white"/>
<path d="M134.027 190.424C133.463 190.573 132.883 190.686 132.288 190.765C126.842 191.477 121.808 188.935 119.149 184.131C118.326 182.051 117.75 179.922 117.416 177.761C117.081 175.604 117.963 160.662 118.437 152.635C118.599 149.892 118.726 147.725 118.72 147.506C118.686 146.434 118.111 145.534 117.258 144.514C117.104 144.329 116.946 144.147 116.789 143.965C116.43 143.55 116.058 143.119 115.749 142.683V142.683C112.459 138.027 111.443 132.704 112.962 128.079C113.02 127.9 113.206 127.798 113.387 127.84L115.913 128.442C116.247 126.836 117.559 120.168 117.369 115.329C117.367 115.277 117.376 115.224 117.397 115.176C118.201 113.247 123.63 114.914 126.001 115.748L124.902 113.574C124.399 112.576 123.771 111.335 123.892 110.018C123.964 109.232 124.4 108.452 125.03 107.984C125.525 107.615 126.1 107.475 126.647 107.586C127.576 107.775 128.963 109.72 130.549 112.052C130.902 112.571 131.207 113.019 131.391 113.254C136.31 119.526 137.108 128.317 137.255 135.275C137.291 137.02 138.609 146.041 140.004 155.591C142.147 170.263 143.533 179.957 143.28 180.97C142.092 185.716 138.62 189.213 134.027 190.424ZM116.337 142.267C116.626 142.675 116.97 143.073 117.334 143.495C117.493 143.68 117.654 143.865 117.811 144.053C118.631 145.034 119.396 146.13 119.439 147.484C119.446 147.725 119.352 149.339 119.155 152.678C118.683 160.679 117.804 175.57 118.126 177.651C118.453 179.76 119.015 181.837 119.798 183.825C122.291 188.323 127.049 190.725 132.194 190.051C137.342 189.379 141.322 185.832 142.581 180.795C142.817 179.828 140.863 166.446 139.293 155.695C137.894 146.122 136.574 137.08 136.536 135.29C136.392 128.443 135.613 119.802 130.826 113.698C130.627 113.444 130.33 113.008 129.955 112.455C129.068 111.15 127.222 108.436 126.506 108.29C126.063 108.201 125.693 108.388 125.461 108.561C124.997 108.906 124.178 109.857 124.125 110.438C124.024 111.548 125.081 114.012 125.544 114.927L126.034 116.088C126.101 116.22 126.933 117.732 126.834 117.842C126.734 117.952 126.613 117.353 126.473 117.3C123.278 116.086 118.725 114.328 118.092 115.392C118.29 120.991 116.558 128.876 116.54 128.955C116.519 129.049 116.461 129.13 116.38 129.182C116.296 129.233 116.199 129.249 116.106 129.227L113.547 128.618C112.246 132.951 113.254 137.906 116.337 142.267Z" fill="#050004"/>
<path d="M112.582 196.708C113.045 199.697 113.839 202.639 114.957 205.478C122.801 219.65 143.95 216.879 147.883 201.165C148.437 198.953 142.019 158.285 140.007 142.733L137.802 144.361C129.757 150.3 119.65 152.727 109.786 151.089C110.836 152.369 111.956 192.665 112.582 196.708Z" fill="white"/>
<g opacity="0.24">
<path d="M135.382 214.512C134.593 214.72 133.781 214.88 132.948 214.989C125.325 215.987 118.277 212.427 114.555 205.702C113.403 202.791 112.595 199.807 112.127 196.778C111.872 195.129 111.544 187.745 111.165 179.195C110.666 167.917 109.98 152.472 109.407 151.349C109.286 151.199 109.28 151.006 109.376 150.839C109.473 150.671 109.676 150.597 109.866 150.629C119.548 152.238 129.632 149.817 137.529 143.986L139.735 142.358C139.867 142.262 140.041 142.241 140.192 142.305C140.344 142.369 140.449 142.509 140.47 142.672C141.178 148.151 142.423 156.672 143.741 165.693C146.746 186.268 148.69 199.861 148.336 201.276C146.673 207.921 141.812 212.816 135.382 214.512ZM110.421 151.656C110.921 154.281 111.362 162.692 112.093 179.154C112.455 187.322 112.797 195.038 113.044 196.636C113.502 199.597 114.293 202.514 115.392 205.307C118.901 211.637 125.591 215.015 132.827 214.068C140.069 213.119 145.663 208.132 147.435 201.051C147.772 199.708 145.027 180.922 142.823 165.827C141.566 157.22 140.375 149.069 139.652 143.573L138.08 144.733C130.173 150.57 120.131 153.075 110.421 151.656Z" fill="#050004"/>
</g>
<path d="M135.382 214.513C134.592 214.721 133.781 214.881 132.947 214.99C125.325 215.988 118.277 212.428 114.555 205.703C113.403 202.792 112.595 199.807 112.127 196.779C111.871 195.13 111.544 187.746 111.165 179.196C110.665 167.918 109.98 152.473 109.407 151.35C109.285 151.2 109.279 151.007 109.376 150.84C109.473 150.672 109.675 150.598 109.866 150.63C119.548 152.239 129.632 149.818 137.529 143.987L139.734 142.359C139.866 142.263 140.041 142.242 140.192 142.306C140.343 142.37 140.449 142.51 140.47 142.673C141.178 148.152 142.423 156.673 143.741 165.694C146.746 186.269 148.69 199.862 148.335 201.277C146.673 207.922 141.812 212.817 135.382 214.513ZM110.421 151.657C110.92 154.282 111.362 162.692 112.093 179.155C112.455 187.323 112.797 195.039 113.044 196.637C113.502 199.597 114.292 202.515 115.392 205.308C118.9 211.638 125.591 215.016 132.827 214.069C140.069 213.12 145.663 208.133 147.435 201.052C147.771 199.709 145.027 180.923 142.823 165.828C141.566 157.221 140.375 149.07 139.652 143.574L138.08 144.734C130.173 150.571 120.131 153.076 110.421 151.657Z" fill="#050004"/>
<path d="M127.022 119.54L118.96 130.103L110.502 117.07L111.232 110.617L124.238 113.973L127.022 119.54Z" fill="#111111"/>
<path d="M118.929 130.902L110.021 117.178L110.829 110.029L124.558 113.572L127.565 119.587L118.929 130.902ZM110.981 116.952L118.99 129.292L126.477 119.484L123.916 114.365L111.631 111.194L110.981 116.952Z" fill="#000201"/>
<path d="M125.33 114.749C125.33 114.749 124.226 112.385 123.747 111.397C123.24 110.35 122.719 109.231 122.82 108.064C122.921 106.897 123.923 105.738 125.022 105.973C126.104 106.205 128.586 110.483 129.328 111.471" fill="white"/>
<path d="M125.135 115.568C125.135 115.568 123.908 112.972 123.376 111.887C122.845 110.803 122.183 109.453 122.311 108.025C122.387 107.175 122.845 106.333 123.505 105.827C124.022 105.43 124.62 105.28 125.191 105.399C126.162 105.602 127.625 107.72 129.299 110.258C129.674 110.825 129.996 111.316 130.191 111.572C130.311 111.73 130.284 111.956 130.132 112.079C129.98 112.202 129.76 112.175 129.641 112.018C129.43 111.741 129.117 111.265 128.72 110.663C127.779 109.236 125.822 106.267 125.051 106.105C124.57 106.005 124.171 106.213 123.921 106.405C123.423 106.787 123.064 107.448 123.007 108.091C122.898 109.312 123.509 110.56 124 111.561C124.534 112.649 125.763 115.251 125.763 115.251L125.135 115.568Z" fill="#050004"/>
<path d="M128.074 121.935C128.059 121.939 128.044 121.942 128.028 121.944C127.837 121.969 127.662 121.829 127.637 121.632C127.363 119.419 124.987 115.188 124.963 115.145C124.866 114.973 124.923 114.752 125.09 114.652C125.256 114.553 125.471 114.61 125.568 114.782C125.669 114.96 128.039 119.182 128.331 121.539C128.354 121.722 128.241 121.89 128.074 121.935Z" fill="#000201"/>
<path d="M128.527 100.204L132.842 100.988C134.951 101.371 136.991 99.8599 137.399 97.6142L137.552 96.7676C137.96 94.5212 136.582 92.39 134.473 92.0072L130.157 91.2236L128.527 100.204Z" fill="#000201"/>
<path d="M132.794 101.261L128.479 100.478C128.329 100.45 128.23 100.307 128.257 100.157L129.888 91.1758C129.901 91.1038 129.942 91.0402 130.002 90.9988C130.063 90.9574 130.136 90.9418 130.208 90.9544L134.524 91.738C135.62 91.9372 136.566 92.5774 137.189 93.541C137.809 94.4992 138.035 95.6632 137.825 96.8194L137.671 97.666C137.461 98.8216 136.841 99.832 135.923 100.511C135.463 100.852 134.956 101.09 134.427 101.217C133.896 101.343 133.343 101.361 132.794 101.261ZM128.848 99.9843L132.893 100.719C133.836 100.89 134.795 100.659 135.595 100.068C136.399 99.4726 136.944 98.584 137.129 97.567L137.283 96.7204C137.467 95.7034 137.27 94.6804 136.727 93.8398C136.187 93.0052 135.37 92.4514 134.425 92.2804L130.38 91.546L128.848 99.9843Z" fill="#000201"/>
<path d="M115.422 135.278C117.459 135.648 119.461 134.019 119.893 131.639L124.119 108.367C124.551 105.987 123.25 103.758 121.212 103.387C119.175 103.017 117.173 104.647 116.741 107.027L112.515 130.299C112.083 132.679 113.384 134.908 115.422 135.278Z" fill="#000201"/>
<path d="M115.373 135.551C113.19 135.155 111.787 132.777 112.245 130.251L116.471 106.979C116.93 104.454 119.079 102.722 121.263 103.118C122.329 103.312 123.24 103.975 123.831 104.986C124.413 105.983 124.612 107.202 124.39 108.418L120.165 131.69C119.944 132.905 119.329 133.976 118.434 134.705C117.946 135.102 117.406 135.373 116.845 135.508C116.363 135.624 115.866 135.641 115.373 135.551ZM117.013 107.078L112.787 130.35C112.383 132.576 113.587 134.666 115.471 135.009C116.376 135.174 117.304 134.914 118.086 134.277C118.879 133.632 119.425 132.677 119.622 131.591L123.848 108.319C124.045 107.232 123.87 106.147 123.354 105.264C122.847 104.394 122.068 103.824 121.164 103.66C120.744 103.584 120.326 103.6 119.924 103.697C118.523 104.035 117.327 105.347 117.013 107.078Z" fill="#000201"/>
<path d="M116.105 106.314L123.998 107.747C125.651 108.047 127.235 106.95 127.535 105.297L127.855 103.537C128.155 101.884 127.058 100.301 125.405 100L117.512 98.567C115.859 98.267 114.275 99.3638 113.975 101.017L113.655 102.777C113.355 104.43 114.452 106.013 116.105 106.314Z" fill="#FFF9F3"/>
<path d="M123.951 108.019L116.057 106.586C115.185 106.428 114.427 105.939 113.922 105.211C113.418 104.482 113.227 103.601 113.386 102.729L113.705 100.969C114.032 99.1689 115.762 97.9714 117.562 98.2978L125.456 99.7311C127.256 100.059 128.454 101.789 128.127 103.588L127.807 105.348C127.65 106.22 127.161 106.978 126.432 107.483C126.089 107.721 125.713 107.888 125.32 107.983C124.877 108.09 124.413 108.103 123.951 108.019ZM114.246 101.068L113.927 102.828C113.655 104.329 114.654 105.772 116.155 106.044L124.048 107.478C124.776 107.61 125.511 107.451 126.118 107.03C126.725 106.609 127.133 105.977 127.265 105.25L127.585 103.49C127.857 101.99 126.858 100.547 125.357 100.274L117.463 98.8401C117.073 98.7694 116.688 98.7843 116.325 98.8719C115.292 99.1209 114.448 99.9567 114.246 101.068Z" fill="#000201"/>
<path d="M116.238 102.556L125.309 104.203C129.741 105.007 134.029 101.832 134.886 97.111L135.21 95.3308C136.067 90.6095 133.169 86.1293 128.738 85.3247L119.666 83.6777L116.238 102.556Z" fill="#005FDC"/>
<path d="M125.261 104.475L116.19 102.828C116.04 102.801 115.941 102.657 115.969 102.508L119.396 83.6305C119.41 83.5585 119.45 83.4949 119.51 83.4535C119.571 83.4121 119.644 83.3959 119.717 83.4085L128.788 85.0561C131.008 85.4592 132.925 86.757 134.19 88.7118C135.451 90.6606 135.91 93.03 135.482 95.3825L135.159 97.1627C134.493 100.832 131.803 103.599 128.557 104.381C127.499 104.635 126.385 104.679 125.261 104.475ZM116.559 102.335L125.359 103.933C129.637 104.71 133.787 101.627 134.617 97.0631L134.94 95.2829C135.342 93.069 134.911 90.8406 133.727 89.01C132.546 87.1848 130.757 85.9728 128.689 85.5972L119.889 83.9995L116.559 102.335Z" fill="#050004"/>
<path d="M119.666 83.679L116.238 102.557C109.406 101.316 102.309 102.474 95.9081 105.874L85.74 111.077L94.2497 64.3916L101.801 73.4251C106.596 78.8593 112.834 82.4382 119.666 83.679Z" fill="#F8EEE2"/>
<path d="M85.5729 111.297C85.4889 111.235 85.4475 111.13 85.4661 111.027L93.9758 64.3412C93.9944 64.2362 94.073 64.1516 94.1762 64.124C94.2782 64.1024 94.3892 64.1318 94.4582 64.214L102.004 73.2415C106.784 78.6559 112.907 82.1706 119.712 83.406C119.862 83.433 119.961 83.577 119.934 83.7264L116.506 102.604C116.493 102.676 116.452 102.74 116.392 102.781C116.332 102.823 116.258 102.839 116.186 102.825C109.379 101.589 102.41 102.728 96.0301 106.117L85.8621 111.32C85.8423 111.33 85.8219 111.338 85.8009 111.343C85.7235 111.363 85.6395 111.347 85.5729 111.297ZM116.014 102.237L119.343 83.8986C112.524 82.5972 106.39 79.0429 101.586 73.6009L94.412 65.0186L86.1081 110.577L95.7757 105.63C98.2975 104.291 100.909 103.297 103.568 102.657C107.662 101.67 111.866 101.522 116.014 102.237Z" fill="#000201"/>
<path d="M119.666 83.679L116.238 102.557C109.406 101.316 102.309 102.474 95.9081 105.874L85.74 111.077L94.2497 64.3916L101.801 73.4251C106.596 78.8593 112.834 82.4382 119.666 83.679Z" fill="white"/>
<path d="M85.5729 111.297C85.4889 111.235 85.4475 111.13 85.4661 111.027L93.9758 64.3412C93.9944 64.2362 94.073 64.1516 94.1762 64.124C94.2782 64.1024 94.3892 64.1318 94.4582 64.214L102.004 73.2415C106.784 78.6559 112.907 82.1706 119.712 83.406C119.862 83.433 119.961 83.577 119.934 83.7264L116.506 102.604C116.493 102.676 116.452 102.74 116.392 102.781C116.332 102.823 116.258 102.839 116.186 102.825C109.379 101.589 102.41 102.728 96.0301 106.117L85.8621 111.32C85.8423 111.33 85.8219 111.338 85.8009 111.343C85.7235 111.363 85.6395 111.347 85.5729 111.297ZM116.014 102.237L119.343 83.8986C112.524 82.5972 106.39 79.0429 101.586 73.6009L94.412 65.0186L86.1081 110.577L95.7757 105.63C98.2975 104.291 100.909 103.297 103.568 102.657C107.662 101.67 111.866 101.522 116.014 102.237Z" fill="#050004"/>
<path d="M96.4687 89.0033C98.9814 75.752 97.2429 64.2938 92.5856 63.4107C87.9284 62.5276 82.116 72.554 79.6033 85.8053C77.0906 99.0565 78.8292 110.515 83.4864 111.398C88.1437 112.281 93.9561 102.255 96.4687 89.0033Z" fill="white"/>
<path d="M83.4725 111.676C82.4357 111.491 81.5183 110.829 80.7456 109.709C77.9634 105.678 77.3892 96.088 79.317 85.8467C81.8777 72.2395 87.7127 62.2622 92.6026 63.1352C93.6394 63.32 94.5568 63.9818 95.3296 65.1014C98.1118 69.1327 98.686 78.7224 96.7582 88.9637C94.4518 101.219 89.4887 110.529 84.9539 111.621C84.4535 111.742 83.9585 111.763 83.4725 111.676ZM79.8582 85.9493C77.9556 96.0556 78.495 105.479 81.1992 109.396C81.8856 110.391 82.6829 110.976 83.5691 111.134C83.9879 111.208 84.4151 111.19 84.8495 111.086C89.1047 110.06 93.9826 100.735 96.2176 88.8629C98.1202 78.7566 97.5808 69.3337 94.8766 65.4158C94.1902 64.421 93.3928 63.8366 92.5066 63.6782C92.0878 63.6038 91.6606 63.6218 91.2256 63.7262C86.9711 64.751 82.0926 74.0767 79.8582 85.9493Z" fill="#000201"/>
<path d="M82.5315 86.0939C80.5953 96.5116 81.6537 105.428 84.8955 106.009C88.1366 106.59 92.3342 98.6164 94.2704 88.1987C96.2066 77.781 95.1482 68.8651 91.9064 68.2837C88.6646 67.7029 84.4677 75.6768 82.5315 86.0939Z" fill="#000201"/>
<mask id="mask0_4516_25902" style="mask-type:luminance" maskUnits="userSpaceOnUse" x="81" y="68" width="15" height="39">
<path d="M82.5344 86.0969C80.5983 96.5145 81.6566 105.43 84.8984 106.012C88.1396 106.593 92.3371 98.6193 94.2733 88.2016C96.2095 77.7839 95.1511 68.868 91.9093 68.2867C88.6676 67.7059 84.4706 75.6798 82.5344 86.0969Z" fill="white"/>
</mask>
<g mask="url(#mask0_4516_25902)">
<path d="M88.4085 87.3946C86.5239 97.5369 87.5541 106.218 90.7101 106.783C93.8661 107.349 97.952 99.5859 99.8372 89.4442C101.722 79.3019 100.692 70.6212 97.5362 70.0554C94.3796 69.4896 90.2931 77.2524 88.4085 87.3946Z" fill="#000201"/>
</g>
<mask id="mask1_4516_25902" style="mask-type:luminance" maskUnits="userSpaceOnUse" x="81" y="68" width="15" height="39">
<path d="M82.5344 86.0969C80.5983 96.5145 81.6566 105.43 84.8984 106.012C88.1396 106.593 92.3371 98.6193 94.2733 88.2016C96.2095 77.7839 95.1511 68.868 91.9093 68.2867C88.6676 67.7059 84.4706 75.6798 82.5344 86.0969Z" fill="white"/>
</mask>
<g mask="url(#mask1_4516_25902)">
<path d="M99.3171 84.5801L93.1834 83.5007C90.6784 83.0597 88.1902 85.1681 87.6262 88.21C87.0623 91.252 88.636 94.075 91.1416 94.516L97.2753 95.5954L99.3171 84.5801Z" fill="white"/>
<path d="M97.2295 95.8678L91.0957 94.7884C89.9744 94.591 88.9706 93.9262 88.2698 92.9158C87.3698 91.6193 87.0368 89.8865 87.3566 88.1609C87.9476 84.9755 90.5852 82.7634 93.2323 83.2301L99.3661 84.3095C99.4387 84.3221 99.5029 84.3635 99.5449 84.4235C99.5869 84.4841 99.6031 84.5585 99.5899 84.6305L97.5481 95.6458C97.5277 95.7562 97.4443 95.839 97.3417 95.8636C97.3051 95.8726 97.2673 95.8744 97.2295 95.8678ZM93.1375 83.7725C90.7826 83.3579 88.4348 85.3721 87.899 88.2611C87.6056 89.8433 87.9056 91.4249 88.7222 92.6014C89.339 93.49 90.2156 94.0738 91.1911 94.2454L97.0561 95.278L98.9977 84.8045L93.1375 83.7725Z" fill="#050004"/>
</g>
<mask id="mask2_4516_25902" style="mask-type:luminance" maskUnits="userSpaceOnUse" x="81" y="68" width="15" height="39">
<path d="M82.5344 86.0969C80.5983 96.5145 81.6566 105.43 84.8984 106.012C88.1396 106.593 92.3371 98.6193 94.2733 88.2016C96.2095 77.7839 95.1511 68.868 91.9093 68.2867C88.6676 67.7059 84.4706 75.6798 82.5344 86.0969Z" fill="white"/>
</mask>
<g mask="url(#mask2_4516_25902)">
<path d="M89.1472 89.1688C89.305 88.0036 88.9792 86.8918 88.3762 86.2666C87.9136 86.8066 87.5716 87.58 87.4486 88.4872C87.301 89.575 87.499 90.6249 87.9298 91.3995C88.5346 91.0017 89.0092 90.1876 89.1472 89.1688Z" fill="white"/>
<path d="M87.8653 91.6644C87.7909 91.6464 87.7273 91.5978 87.6901 91.5306C87.2137 90.6744 87.0265 89.55 87.1771 88.4472C87.3019 87.5238 87.6547 86.6844 88.1683 86.0844C88.2187 86.0256 88.2907 85.9896 88.3693 85.9884C88.4467 85.986 88.5217 86.0166 88.5751 86.0724C89.2621 86.7846 89.5861 87.984 89.4211 89.2026C89.2765 90.264 88.7761 91.17 88.0819 91.6266C88.0549 91.644 88.0255 91.6566 87.9949 91.6644C87.9535 91.6752 87.9085 91.6752 87.8653 91.6644ZM88.8763 89.1294C88.9987 88.2252 88.8079 87.3138 88.3855 86.7072C88.0483 87.2004 87.8167 87.8322 87.7231 88.5222C87.6055 89.3868 87.7165 90.2604 88.0267 90.9708C88.4617 90.5604 88.7713 89.8968 88.8763 89.1294Z" fill="#050004"/>
</g>
<path d="M117.666 83.2598L114.332 102.266L116.222 102.499L119.663 83.681L117.666 83.2598Z" fill="#FFF9F3"/>
<path d="M116.185 102.769L114.296 102.537C114.221 102.527 114.153 102.488 114.109 102.427C114.064 102.366 114.045 102.29 114.058 102.216L117.392 83.2091C117.405 83.1353 117.447 83.0699 117.51 83.0285C117.571 82.9871 117.648 82.9721 117.72 82.9871L119.717 83.4083C119.864 83.4389 119.958 83.5811 119.931 83.7275L116.49 102.545C116.47 102.655 116.387 102.738 116.283 102.764C116.252 102.771 116.219 102.773 116.185 102.769ZM117.885 83.5847L114.651 102.025L115.995 102.19L119.341 83.8919L117.885 83.5847Z" fill="#000201"/>
<path d="M108.057 116.224L108.037 116.311C107.729 117.658 108.653 118.95 110.09 119.181L118.273 120.5C119.711 120.731 121.14 119.818 121.449 118.471L121.469 118.384C121.778 117.037 120.854 115.744 119.416 115.513L111.231 114.194C109.793 113.963 108.364 114.876 108.057 116.224Z" fill="white"/>
<path d="M119.548 120.793C119.123 120.905 118.67 120.933 118.215 120.86L110.031 119.541C109.223 119.411 108.509 118.963 108.071 118.315C107.655 117.698 107.518 116.959 107.684 116.234L107.704 116.146C108.055 114.613 109.664 113.581 111.288 113.841L119.473 115.16C120.282 115.29 120.997 115.737 121.434 116.386C121.849 117.002 121.987 117.742 121.82 118.469L121.8 118.555C121.548 119.659 120.642 120.505 119.548 120.793ZM110.131 114.606C109.292 114.827 108.6 115.469 108.408 116.308C108.408 116.308 108.408 116.308 108.408 116.308L108.388 116.395C108.267 116.923 108.368 117.463 108.671 117.911C109.001 118.402 109.526 118.728 110.147 118.828L118.331 120.146C119.589 120.349 120.829 119.563 121.098 118.393L121.117 118.307C121.238 117.778 121.138 117.238 120.835 116.789C120.505 116.298 119.98 115.972 119.358 115.873L111.174 114.554C110.817 114.497 110.462 114.518 110.131 114.606Z" fill="#050004"/>
<path d="M109.109 111.059L109.089 111.145C108.78 112.493 109.703 113.785 111.141 114.017L119.324 115.335C120.762 115.567 122.192 114.654 122.501 113.306L122.521 113.22C122.831 111.873 121.908 110.581 120.47 110.349L112.285 109.03C110.847 108.798 109.418 109.711 109.109 111.059Z" fill="white"/>
<path d="M120.598 115.628C120.173 115.74 119.72 115.768 119.265 115.695L111.083 114.377C110.273 114.246 109.559 113.799 109.122 113.151C108.706 112.534 108.569 111.794 108.736 111.068L108.755 110.983L108.756 110.982C109.107 109.45 110.716 108.416 112.342 108.677L120.526 109.996C121.336 110.127 122.05 110.574 122.486 111.223C122.901 111.84 123.039 112.579 122.871 113.305L122.852 113.391C122.598 114.494 121.693 115.339 120.598 115.628ZM109.46 111.142L109.44 111.228C109.319 111.758 109.418 112.297 109.721 112.746C110.051 113.237 110.576 113.563 111.197 113.663L119.38 114.981C120.638 115.185 121.88 114.397 122.148 113.228L122.167 113.143C122.289 112.613 122.189 112.074 121.887 111.625C121.556 111.134 121.032 110.808 120.41 110.709L112.226 109.389C110.97 109.186 109.728 109.973 109.46 111.142Z" fill="#050004"/>
<path d="M108.56 121.315L108.555 121.338C108.249 122.668 109.162 123.945 110.581 124.174L116.164 125.073C117.584 125.302 118.996 124.4 119.3 123.069L119.306 123.046C119.611 121.715 118.698 120.439 117.278 120.21L111.697 119.311C110.277 119.082 108.865 119.984 108.56 121.315Z" fill="white"/>
<path d="M117.42 125.362C117.001 125.473 116.554 125.5 116.105 125.428L110.523 124.529C109.723 124.4 109.016 123.958 108.584 123.317C108.173 122.707 108.037 121.975 108.202 121.256L108.207 121.232C108.554 119.716 110.147 118.695 111.753 118.953L117.335 119.853C118.135 119.982 118.841 120.423 119.274 121.065C119.685 121.675 119.821 122.407 119.657 123.125C119.402 124.235 118.504 125.077 117.42 125.362ZM110.609 119.717C109.782 119.935 109.1 120.567 108.91 121.394V121.396L108.905 121.42C108.785 121.939 108.884 122.47 109.183 122.912C109.508 123.396 110.026 123.716 110.638 123.815L116.221 124.715C117.458 124.915 118.683 124.14 118.947 122.987C119.072 122.443 118.973 121.911 118.674 121.468C118.348 120.985 117.831 120.664 117.218 120.565L111.637 119.666C111.286 119.61 110.936 119.631 110.609 119.717Z" fill="#050004"/>
<path d="M107.569 126.21L107.549 126.296C107.241 127.644 108.164 128.936 109.602 129.168L112.364 129.613C113.802 129.844 115.232 128.932 115.541 127.584L115.561 127.498C115.871 126.15 114.947 124.858 113.51 124.626L110.744 124.18C109.307 123.949 107.878 124.863 107.569 126.21Z" fill="white"/>
<path d="M113.642 129.9C113.218 130.013 112.764 130.041 112.309 129.968L109.548 129.522C108.739 129.392 108.024 128.945 107.587 128.297C107.172 127.68 107.034 126.94 107.201 126.214L107.221 126.128C107.572 124.595 109.182 123.562 110.806 123.823L113.571 124.268C114.38 124.399 115.095 124.846 115.532 125.494C115.947 126.111 116.084 126.851 115.917 127.577L115.897 127.663C115.643 128.766 114.737 129.612 113.642 129.9ZM109.648 124.588C108.808 124.809 108.116 125.45 107.924 126.289C107.924 126.289 107.924 126.289 107.924 126.289L107.904 126.375C107.784 126.904 107.883 127.444 108.186 127.893C108.517 128.384 109.041 128.709 109.663 128.809L112.425 129.254C113.682 129.456 114.925 128.67 115.193 127.501L115.213 127.415C115.334 126.886 115.235 126.347 114.932 125.898C114.602 125.407 114.077 125.081 113.455 124.981L110.691 124.536C110.334 124.478 109.979 124.5 109.648 124.588Z" fill="#050004"/>
<path d="M35.5322 128.266L49.3057 111.061L50.5795 116.893L64.1219 107.1L48.6481 126.248L46.9741 120.889L35.5322 128.266Z" fill="#003090"/>
<path d="M48.5529 126.738C48.3729 126.703 48.2247 126.573 48.1701 126.397L46.6923 121.664L35.8019 128.685C35.5823 128.817 35.3249 128.781 35.1611 128.599C34.9979 128.418 34.9901 128.145 35.1425 127.954L48.9153 110.751C49.0347 110.601 49.2315 110.534 49.4181 110.577C49.6053 110.621 49.7505 110.768 49.7913 110.956L50.9037 116.044L63.8275 106.697C64.0375 106.556 64.3105 106.577 64.4827 106.758C64.6549 106.94 64.6657 107.22 64.5079 107.414L49.0347 126.562C48.9915 126.615 48.9381 126.658 48.8787 126.69C48.7797 126.741 48.6663 126.759 48.5529 126.738ZM50.8707 117.297C50.7333 117.392 50.5569 117.419 50.4003 117.359C50.2431 117.299 50.1273 117.164 50.0907 117L49.0389 112.19L37.8328 126.187L46.7019 120.47C46.8321 120.391 46.9965 120.367 47.1423 120.42C47.2887 120.473 47.4015 120.591 47.4489 120.74L48.8439 125.209L61.379 109.697L50.8707 117.297Z" fill="#050004"/>
<path d="M40.8538 43.1855L60.0482 51.0821L55.1144 53.7766L67.5499 63.4257L46.1481 54.5062L50.5485 51.5759L40.8538 43.1855Z" fill="#003090"/>
<path d="M67.3575 63.8853L45.9552 54.9658C45.7854 54.8956 45.669 54.7366 45.651 54.553C45.633 54.3694 45.7176 54.1918 45.8712 54.0898L49.7261 51.5224L40.5264 43.5623C40.3422 43.4015 40.3002 43.1315 40.4286 42.9233C40.5546 42.7169 40.8156 42.6311 41.0424 42.7235L60.2374 50.6194C60.415 50.692 60.5356 50.8612 60.5464 51.0538C60.5566 51.2452 60.4558 51.427 60.2872 51.5188L56.0213 53.8492L67.8555 63.0315C68.0523 63.1845 68.1063 63.4599 67.9803 63.6765C67.9311 63.7593 67.8621 63.8241 67.7811 63.8667C67.6539 63.9333 67.4997 63.9435 67.3575 63.8853ZM43.4946 44.8103L50.8751 51.1966C50.9927 51.2992 51.0563 51.4498 51.0467 51.6052C51.0371 51.7606 50.9543 51.9028 50.8247 51.9892L47.2002 54.4036L64.288 61.5243L54.8087 54.169C54.6767 54.0658 54.6047 53.9032 54.6179 53.7358C54.6311 53.5684 54.7283 53.4178 54.8759 53.338L58.8922 51.1438L43.4946 44.8103Z" fill="#050004"/>
<path d="M3.31689 79.258L38.5917 73.9229L33.7024 82.2568L60.5641 85.4829L21.1313 91.2621L25.0259 83.0506L3.31689 79.258Z" fill="#003090"/>
<path d="M60.6363 85.9734L21.2029 91.7532C21.0211 91.7802 20.8393 91.704 20.7301 91.5558C20.6209 91.4082 20.6017 91.212 20.6803 91.0458L24.2941 83.4259L3.2313 79.7449C2.99011 79.7029 2.81491 79.4923 2.81791 79.2475C2.82091 79.0015 3.00151 78.7981 3.2421 78.7597L38.5169 73.4246C38.7077 73.3958 38.8973 73.4792 39.0053 73.6382C39.1127 73.7972 39.1193 74.0042 39.0227 74.1704L34.5186 81.8479L60.6237 84.9834C60.8727 85.0134 61.0605 85.2222 61.0629 85.4724C61.0659 85.6644 60.9585 85.8354 60.7959 85.92C60.7479 85.947 60.6939 85.9656 60.6363 85.9734ZM6.41787 79.2889L25.1119 82.5559C25.2655 82.5829 25.3981 82.6801 25.4695 82.8181C25.5409 82.9567 25.5445 83.1199 25.4773 83.2609L21.9823 90.6306L56.7903 85.5282L33.6438 82.7491C33.477 82.7287 33.3306 82.6261 33.2556 82.4749C33.1812 82.3249 33.1878 82.1461 33.2724 82.0009L37.6319 74.5688L6.41787 79.2889Z" fill="#050004"/>
<path d="M305.22 194.265C298.719 201.275 298.935 212.045 305.702 218.32C312.469 224.595 323.224 223.998 329.725 216.988L348.619 196.612L360.739 207.851L341.43 228.673C328.5 242.618 307.105 243.805 293.644 231.324C280.184 218.842 279.754 197.419 292.685 183.474L311.994 162.651L324.113 173.89L305.22 194.265Z" fill="#050004"/>
<path d="M292.401 183.206L311.709 162.383C311.78 162.307 311.877 162.262 311.981 162.258C312.084 162.254 312.185 162.292 312.261 162.362L324.381 173.6C324.54 173.749 324.546 173.996 324.402 174.152L305.509 194.527C302.434 197.843 300.79 202.114 300.878 206.557C300.967 210.994 302.775 215.068 305.971 218.031C309.164 220.993 313.364 222.488 317.795 222.243C322.23 221.997 326.366 220.036 329.442 216.72L348.335 196.344C348.405 196.268 348.503 196.223 348.606 196.219C348.709 196.215 348.811 196.253 348.886 196.323L361.006 207.561C361.166 207.709 361.172 207.957 361.027 208.113L341.719 228.936C328.662 243.017 306.979 244.214 293.382 231.607C284.949 223.786 281.577 212.463 283.348 201.631C284.432 195 287.444 188.552 292.401 183.206ZM348.642 197.16L330.014 217.25C326.801 220.715 322.476 222.766 317.838 223.022C313.194 223.28 308.791 221.71 305.44 218.603C302.089 215.495 300.192 211.223 300.098 206.573C300.005 201.925 301.723 197.462 304.936 193.997L323.564 173.908L312.017 163.2L292.973 183.736C280.21 197.5 280.63 218.718 293.912 231.034C307.193 243.349 328.383 242.17 341.146 228.405L360.189 207.868L348.642 197.16Z" fill="#050004"/>
<path d="M307.603 194.926C301.103 201.936 301.319 212.706 308.086 218.981C314.852 225.256 325.608 224.659 332.109 217.649L351.002 197.273L363.122 208.512L343.814 229.335C330.883 243.28 309.489 244.466 296.028 231.985C282.567 219.503 282.138 198.08 295.069 184.135L314.377 163.312L326.497 174.551L307.603 194.926Z" fill="#003090"/>
<path d="M294.78 183.871L314.089 163.049C314.236 162.891 314.482 162.881 314.64 163.028L326.76 174.266C326.835 174.336 326.88 174.434 326.885 174.537C326.889 174.639 326.852 174.74 326.781 174.817L307.888 195.193C304.813 198.508 303.169 202.78 303.257 207.223C303.346 211.66 305.154 215.734 308.349 218.696C311.543 221.659 315.742 223.154 320.173 222.909C324.609 222.663 328.745 220.701 331.82 217.385L350.714 197.01C350.784 196.934 350.882 196.889 350.985 196.885C351.088 196.881 351.19 196.918 351.265 196.989L363.385 208.227C363.544 208.375 363.55 208.622 363.406 208.778L344.098 229.602C331.041 243.682 309.358 244.881 295.761 232.272C287.328 224.452 283.956 213.129 285.727 202.297C286.811 195.666 289.823 189.219 294.78 183.871ZM351.021 197.826L332.393 217.916C329.18 221.381 324.856 223.431 320.217 223.688C315.573 223.946 311.17 222.376 307.819 219.269C304.468 216.161 302.571 211.889 302.478 207.239C302.383 202.592 304.102 198.127 307.315 194.662L325.943 174.573L314.396 163.865L295.353 184.402C282.589 198.166 283.01 219.385 296.291 231.7C309.572 244.015 330.762 242.836 343.525 229.071L362.568 208.535L351.021 197.826Z" fill="#050004"/>
<path d="M341.886 207.128L353.992 218.354L363.118 208.512L351.012 197.286L341.886 207.128Z" fill="url(#paint0_linear_4516_25902)"/>
<path d="M341.601 206.864L350.726 197.023C350.796 196.947 350.894 196.902 350.997 196.898C351.101 196.894 351.202 196.931 351.278 197.002L363.384 208.227C363.543 208.375 363.549 208.623 363.405 208.779L354.28 218.62C354.21 218.696 354.112 218.741 354.009 218.745C353.906 218.749 353.804 218.711 353.729 218.641L341.622 207.416C341.522 207.323 341.482 207.191 341.502 207.066C341.514 206.993 341.548 206.922 341.601 206.864ZM362.567 208.534L351.033 197.839L342.439 207.108L353.973 217.803L362.567 208.534Z" fill="#050004"/>
<path d="M305.248 173.154L317.355 184.38L326.481 174.538L314.374 163.312L305.248 173.154Z" fill="url(#paint1_linear_4516_25902)"/>
<path d="M304.959 172.891L314.085 163.049C314.232 162.891 314.478 162.881 314.637 163.028L326.743 174.254C326.819 174.324 326.864 174.422 326.868 174.525C326.871 174.628 326.835 174.728 326.764 174.805L317.638 184.647C317.491 184.805 317.245 184.815 317.087 184.668L304.98 173.442C304.905 173.372 304.86 173.274 304.856 173.171C304.854 173.145 304.856 173.119 304.86 173.093C304.873 173.018 304.907 172.948 304.959 172.891ZM325.927 174.561L314.393 163.866L305.798 173.135L317.331 183.83L325.927 174.561Z" fill="#050004"/>
<path d="M330.959 142.781L335.233 159.476L330.991 157.53L330.743 170.598L326.053 151.925L330.188 153.399L330.959 142.781Z" fill="#003090"/>
<path d="M325.792 151.638C325.899 151.542 326.05 151.51 326.186 151.559L329.838 152.861L330.571 142.755C330.592 142.555 330.736 142.412 330.926 142.394C331.116 142.377 331.291 142.501 331.338 142.686L335.613 159.381C335.65 159.526 335.6 159.681 335.485 159.777C335.37 159.873 335.209 159.894 335.073 159.832L331.371 158.135L331.135 170.606C331.124 170.803 330.983 170.964 330.789 170.986C330.594 171.008 330.414 170.883 330.366 170.693L325.676 152.022C325.663 151.969 325.661 151.916 325.669 151.864C325.684 151.778 325.726 151.698 325.792 151.638ZM330.602 157.524C330.608 157.394 330.673 157.271 330.784 157.201C330.896 157.132 331.035 157.123 331.154 157.177L334.654 158.781L331.176 145.197L330.579 153.428C330.567 153.546 330.505 153.661 330.403 153.726C330.301 153.793 330.174 153.808 330.058 153.767L326.611 152.539L330.41 167.665L330.602 157.524Z" fill="#050004"/>
<path d="M381.622 186.108L367.663 194.389L368.299 190.039L356.424 193.273L372.06 184.093L371.821 188.221L381.622 186.108Z" fill="#003090"/>
<path d="M356.224 192.938L371.86 183.758C371.984 183.684 372.138 183.687 372.261 183.761C372.384 183.836 372.455 183.973 372.447 184.116L372.239 187.733L381.538 185.727C381.725 185.687 381.913 185.788 381.983 185.966C382.053 186.142 381.984 186.345 381.819 186.444L367.86 194.726C367.731 194.803 367.569 194.799 367.444 194.715C367.319 194.632 367.253 194.484 367.275 194.335L367.825 190.574L356.523 193.652C356.335 193.703 356.137 193.607 356.061 193.426C356.032 193.356 356.024 193.283 356.036 193.212C356.054 193.1 356.12 192.999 356.224 192.938ZM379.362 186.995L371.901 188.604C371.782 188.629 371.658 188.598 371.565 188.519C371.473 188.439 371.423 188.321 371.43 188.199L371.625 184.799L359.141 192.129L368.195 189.663C368.321 189.629 368.457 189.66 368.555 189.748C368.654 189.835 368.702 189.966 368.683 190.096L368.166 193.637L379.362 186.995Z" fill="#050004"/>
<path d="M376.73 145.693L363.479 170.244L360.569 163.27L345.924 178.539L360.853 151.181L364.152 157.475L376.73 145.693Z" fill="#003090"/>
<path d="M345.579 178.349L360.508 150.99C360.576 150.864 360.709 150.786 360.853 150.787C360.997 150.789 361.129 150.868 361.195 150.996L364.258 156.837L376.46 145.406C376.6 145.275 376.814 145.264 376.966 145.381C377.118 145.498 377.16 145.707 377.071 145.875L363.819 170.426C363.747 170.558 363.606 170.638 363.456 170.63C363.306 170.623 363.174 170.53 363.115 170.391L360.436 163.967L346.203 178.805C346.067 178.947 345.848 178.966 345.69 178.85C345.569 178.761 345.513 178.614 345.536 178.472C345.543 178.43 345.557 178.388 345.579 178.349ZM375.248 147.611L364.417 157.756C364.327 157.84 364.205 157.877 364.084 157.857C363.964 157.836 363.861 157.761 363.804 157.653L360.843 152.004L347.666 176.154L360.285 162.997C360.376 162.903 360.509 162.859 360.639 162.884C360.768 162.908 360.876 162.996 360.928 163.117L363.522 169.336L375.248 147.611Z" fill="#050004"/>
<path d="M22.3684 195.109V206.348C22.3684 206.8 22.7386 207.171 23.1916 207.171H27.2038C27.6207 209.472 28.3893 211.651 29.4525 213.65L25.318 218.646C25.0294 218.995 25.0786 219.516 25.4272 219.805L34.0857 226.97C34.4343 227.259 34.9557 227.21 35.2443 226.861L38.5652 222.848C40.0178 223.638 41.5676 224.272 43.1924 224.727V230.486C43.1924 230.939 43.5632 231.309 44.0156 231.309H55.2546C55.7076 231.309 56.0778 230.939 56.0778 230.486V224.499C57.5736 224.022 59.0004 223.392 60.3414 222.627L63.8448 226.861C64.1333 227.21 64.6547 227.259 65.0039 226.97L73.6624 219.805C74.011 219.516 74.0602 218.995 73.7716 218.646L69.2807 213.22L69.2813 213.219C70.2293 211.34 70.9199 209.308 71.3075 207.171H77.2876C77.7406 207.171 78.1108 206.801 78.1108 206.348V195.109C78.1108 194.656 77.7406 194.286 77.2876 194.286H69.8495C69.5723 193.642 69.2657 193.013 68.9315 192.402L72.8405 187.679C73.129 187.33 73.0799 186.808 72.7313 186.52L64.0728 179.355C63.7242 179.066 63.2028 179.115 62.9136 179.464L59.7222 183.321C58.5642 182.708 57.3462 182.194 56.079 181.79V176.998C56.079 176.546 55.7088 176.175 55.2558 176.175H44.015C43.5626 176.175 43.1918 176.545 43.1918 176.998V181.563C41.918 181.919 40.6898 182.386 39.5192 182.952L36.6333 179.465C36.3447 179.117 35.8233 179.067 35.4747 179.356L26.8162 186.52C26.4676 186.808 26.4184 187.33 26.707 187.678L30.0027 191.661C29.4999 192.502 29.0511 193.378 28.6605 194.285H23.1904C22.7386 194.286 22.3684 194.656 22.3684 195.109ZM35.4297 203.144C35.4297 195.51 41.6198 189.319 49.2553 189.319C56.8908 189.319 63.0798 195.509 63.0798 203.144C63.0798 210.78 56.8902 216.969 49.2553 216.969C41.6204 216.969 35.4297 210.78 35.4297 203.144Z" stroke="#121924" stroke-width="0.599993" stroke-miterlimit="10" stroke-linecap="round" stroke-linejoin="round"/>
<path d="M351.435 90.6199V96.1182C351.435 96.3396 351.616 96.5208 351.838 96.5208H353.8C354.004 97.6464 354.38 98.7126 354.901 99.69L352.878 102.134C352.737 102.305 352.761 102.56 352.931 102.701L357.167 106.207C357.338 106.348 357.593 106.324 357.734 106.153L359.359 104.19C360.07 104.576 360.828 104.887 361.622 105.109V107.927C361.622 108.148 361.804 108.329 362.025 108.329H367.523C367.745 108.329 367.926 108.148 367.926 107.927V104.998C368.657 104.765 369.356 104.457 370.011 104.083L371.726 106.154C371.867 106.324 372.122 106.349 372.293 106.207L376.529 102.702C376.699 102.561 376.724 102.305 376.582 102.135L374.385 99.4806C374.849 98.5614 375.186 97.5672 375.376 96.522H378.302C378.523 96.522 378.704 96.3408 378.704 96.1194V90.6211C378.704 90.3997 378.523 90.2185 378.302 90.2185H374.663C374.527 89.9035 374.377 89.5963 374.213 89.2969L376.125 86.9863C376.266 86.8159 376.242 86.5603 376.072 86.4193L371.836 82.9142C371.666 82.7732 371.411 82.7972 371.269 82.9676L369.708 84.854C369.141 84.5546 368.546 84.3026 367.925 84.1052V81.761C367.925 81.5396 367.744 81.3584 367.523 81.3584H362.024C361.803 81.3584 361.622 81.5396 361.622 81.761V83.9942C360.999 84.1682 360.398 84.3968 359.825 84.6734L358.414 82.9676C358.273 82.7972 358.018 82.7732 357.847 82.9142L353.611 86.4193C353.44 86.5603 353.416 86.8153 353.557 86.9863L355.17 88.9345C354.924 89.3461 354.704 89.7745 354.514 90.2179H351.838C351.616 90.2173 351.435 90.3985 351.435 90.6199ZM357.825 94.5511C357.825 90.8161 360.853 87.7873 364.588 87.7873C368.324 87.7873 371.351 90.8155 371.351 94.5511C371.351 98.2866 368.323 101.314 364.588 101.314C360.853 101.314 357.825 98.286 357.825 94.5511Z" stroke="#121924" stroke-width="0.599993" stroke-miterlimit="10" stroke-linecap="round" stroke-linejoin="round"/>
<path d="M231.822 16.667V25.9669C231.822 26.3413 232.129 26.6479 232.503 26.6479H235.823C236.168 28.5517 236.804 30.3553 237.684 32.0089L234.263 36.1428C234.024 36.4314 234.065 36.8628 234.354 37.1016L241.518 43.0307C241.807 43.2695 242.238 43.2287 242.477 42.9401L245.225 39.6192C246.427 40.2732 247.709 40.7976 249.053 41.1738V45.9395C249.053 46.3139 249.36 46.6205 249.734 46.6205H259.034C259.409 46.6205 259.715 46.3139 259.715 45.9395V40.986C260.953 40.5912 262.134 40.0704 263.243 39.4368L266.143 42.9401C266.381 43.2287 266.813 43.2695 267.101 43.0307L274.266 37.1016C274.554 36.8628 274.595 36.4314 274.356 36.1428L270.641 31.6525L270.641 31.6519C271.425 30.0967 271.997 28.4155 272.318 26.6473H277.266C277.641 26.6473 277.947 26.3407 277.947 25.9663V16.6664C277.947 16.292 277.641 15.9854 277.266 15.9854H271.11C270.881 15.4526 270.627 14.9324 270.351 14.4273L273.585 10.5189C273.824 10.2303 273.783 9.7989 273.495 9.56011L266.33 3.63097C266.042 3.39217 265.61 3.43297 265.372 3.72157L262.73 6.91294C261.772 6.40594 260.764 5.98054 259.715 5.64635V1.68099C259.715 1.3066 259.409 1 259.034 1H249.734C249.36 1 249.053 1.3066 249.053 1.68099V5.45855C248 5.75315 246.984 6.13954 246.015 6.60754L243.627 3.72217C243.388 3.43357 242.956 3.39277 242.668 3.63157L235.503 9.56071C235.215 9.7995 235.174 10.2309 235.413 10.5195L238.14 13.8153C237.724 14.5113 237.353 15.236 237.03 15.9866H232.503C232.129 15.9854 231.822 16.292 231.822 16.667ZM242.631 23.3162C242.631 16.9982 247.753 11.8761 254.071 11.8761C260.389 11.8761 265.51 16.9982 265.51 23.3162C265.51 29.6341 260.389 34.7556 254.071 34.7556C247.753 34.7556 242.631 29.6341 242.631 23.3162Z" stroke="#121924" stroke-width="0.599993" stroke-miterlimit="10" stroke-linecap="round" stroke-linejoin="round"/>
<path d="M375.993 240.334C375.762 240.334 375.576 240.147 375.576 239.917V236.226C375.576 235.995 375.762 235.809 375.993 235.809C376.223 235.809 376.41 235.995 376.41 236.226V239.917C376.41 240.147 376.223 240.334 375.993 240.334Z" fill="#121924"/>
<path d="M375.993 249.817C375.762 249.817 375.576 249.63 375.576 249.4V245.709C375.576 245.479 375.762 245.292 375.993 245.292C376.223 245.292 376.41 245.479 376.41 245.709V249.4C376.41 249.63 376.223 249.817 375.993 249.817Z" fill="#121924"/>
<path d="M382.58 243.229H378.888C378.658 243.229 378.471 243.043 378.471 242.813C378.471 242.582 378.658 242.396 378.888 242.396H382.58C382.811 242.396 382.997 242.582 382.997 242.813C382.997 243.043 382.811 243.229 382.58 243.229Z" fill="#121924"/>
<path d="M373.098 243.229H369.406C369.176 243.229 368.989 243.043 368.989 242.813C368.989 242.582 369.176 242.396 369.406 242.396H373.098C373.328 242.396 373.515 242.582 373.515 242.813C373.515 243.043 373.328 243.229 373.098 243.229Z" fill="#121924"/>
<path d="M371.337 247.884C371.23 247.884 371.124 247.843 371.043 247.761C370.88 247.599 370.88 247.335 371.043 247.171L373.653 244.561C373.815 244.399 374.079 244.399 374.242 244.561C374.405 244.725 374.405 244.988 374.242 245.151L371.632 247.761C371.551 247.843 371.444 247.884 371.337 247.884Z" fill="#121924"/>
<path d="M378.04 241.184C377.933 241.184 377.826 241.143 377.745 241.062C377.583 240.899 377.583 240.635 377.745 240.472L380.355 237.863C380.518 237.699 380.782 237.699 380.945 237.863C381.108 238.025 381.108 238.289 380.945 238.452L378.335 241.062C378.253 241.143 378.147 241.184 378.04 241.184Z" fill="#121924"/>
<path d="M373.947 241.184C373.84 241.184 373.734 241.143 373.653 241.062L371.043 238.452C370.88 238.29 370.88 238.026 371.043 237.863C371.205 237.699 371.469 237.699 371.632 237.863L374.242 240.472C374.405 240.635 374.405 240.899 374.242 241.062C374.161 241.143 374.054 241.184 373.947 241.184Z" fill="#121924"/>
<path d="M380.65 247.884C380.543 247.884 380.436 247.843 380.355 247.761L377.745 245.151C377.583 244.989 377.583 244.725 377.745 244.561C377.908 244.399 378.172 244.399 378.335 244.561L380.945 247.171C381.108 247.335 381.108 247.598 380.945 247.761C380.863 247.843 380.756 247.884 380.65 247.884Z" fill="#121924"/>
<path d="M155.518 71.6746C155.288 71.6746 155.101 71.488 155.101 71.2576V67.5664C155.101 67.336 155.288 67.1494 155.518 67.1494C155.749 67.1494 155.935 67.336 155.935 67.5664V71.2576C155.935 71.4886 155.749 71.6746 155.518 71.6746Z" fill="#121924"/>
<path d="M155.518 81.1525C155.288 81.1525 155.101 80.9659 155.101 80.7355V77.0449C155.101 76.8145 155.288 76.6279 155.518 76.6279C155.749 76.6279 155.935 76.8145 155.935 77.0449V80.7355C155.935 80.9665 155.749 81.1525 155.518 81.1525Z" fill="#121924"/>
<path d="M162.102 74.5693H158.41C158.18 74.5693 157.993 74.3827 157.993 74.1524C157.993 73.922 158.18 73.7354 158.41 73.7354H162.102C162.332 73.7354 162.519 73.922 162.519 74.1524C162.519 74.3827 162.332 74.5693 162.102 74.5693Z" fill="#121924"/>
<path d="M152.623 74.5693H148.932C148.701 74.5693 148.515 74.3827 148.515 74.1524C148.515 73.922 148.701 73.7354 148.932 73.7354H152.623C152.854 73.7354 153.04 73.922 153.04 74.1524C153.04 74.3827 152.854 74.5693 152.623 74.5693Z" fill="#121924"/>
<path d="M150.863 79.2244C150.756 79.2244 150.649 79.1836 150.568 79.102C150.406 78.9394 150.406 78.6754 150.568 78.5122L153.178 75.9022C153.341 75.7396 153.605 75.7396 153.768 75.9022C153.931 76.0648 153.931 76.3288 153.768 76.492L151.158 79.102C151.077 79.1836 150.97 79.2244 150.863 79.2244Z" fill="#121924"/>
<path d="M157.562 72.5246C157.455 72.5246 157.349 72.4838 157.268 72.4022C157.104 72.2396 157.104 71.9756 157.268 71.8124L159.878 69.203C160.04 69.0404 160.304 69.0404 160.467 69.203C160.63 69.3656 160.63 69.6296 160.467 69.7928L157.857 72.4022C157.775 72.4838 157.668 72.5246 157.562 72.5246Z" fill="#121924"/>
<path d="M153.473 72.5246C153.366 72.5246 153.259 72.4838 153.178 72.4022L150.568 69.7928C150.406 69.6302 150.406 69.3662 150.568 69.203C150.731 69.0404 150.995 69.0404 151.158 69.203L153.768 71.8124C153.931 71.975 153.931 72.239 153.768 72.4022C153.687 72.4838 153.58 72.5246 153.473 72.5246Z" fill="#121924"/>
<path d="M160.172 79.2244C160.065 79.2244 159.959 79.1836 159.878 79.102L157.268 76.492C157.104 76.3294 157.104 76.0654 157.268 75.9022C157.43 75.7396 157.694 75.7396 157.857 75.9022L160.467 78.5122C160.63 78.6748 160.63 78.9388 160.467 79.102C160.385 79.1836 160.278 79.2244 160.172 79.2244Z" fill="#121924"/>
<path d="M341.659 41.9294C341.429 41.9294 341.242 41.7428 341.242 41.5125V37.8213C341.242 37.5909 341.429 37.4043 341.659 37.4043C341.889 37.4043 342.076 37.5909 342.076 37.8213V41.5125C342.076 41.7428 341.889 41.9294 341.659 41.9294Z" fill="#121924"/>
<path d="M341.659 51.4122C341.429 51.4122 341.242 51.2256 341.242 50.9953V47.3047C341.242 47.0743 341.429 46.8877 341.659 46.8877C341.889 46.8877 342.076 47.0743 342.076 47.3047V50.9953C342.076 51.2256 341.889 51.4122 341.659 51.4122Z" fill="#121924"/>
<path d="M348.243 44.8242H344.551C344.32 44.8242 344.134 44.6376 344.134 44.4072C344.134 44.1768 344.32 43.9902 344.551 43.9902H348.243C348.473 43.9902 348.66 44.1768 348.66 44.4072C348.66 44.6376 348.473 44.8242 348.243 44.8242Z" fill="#121924"/>
<path d="M338.764 44.8242H335.072C334.842 44.8242 334.655 44.6376 334.655 44.4072C334.655 44.1768 334.842 43.9902 335.072 43.9902H338.764C338.994 43.9902 339.181 44.1768 339.181 44.4072C339.181 44.6376 338.995 44.8242 338.764 44.8242Z" fill="#121924"/>
<path d="M337.003 49.4841C336.897 49.4841 336.79 49.4434 336.709 49.3618C336.546 49.1992 336.546 48.9352 336.709 48.772L339.319 46.162C339.481 45.9994 339.745 45.9994 339.909 46.162C340.071 46.3246 340.071 46.5886 339.909 46.7518L337.299 49.3618C337.217 49.4434 337.11 49.4841 337.003 49.4841Z" fill="#121924"/>
<path d="M343.706 42.7795C343.6 42.7795 343.493 42.7387 343.412 42.6571C343.249 42.4945 343.249 42.2305 343.412 42.0673L346.022 39.4579C346.184 39.2953 346.448 39.2953 346.611 39.4579C346.774 39.6205 346.774 39.8845 346.611 40.0477L344.002 42.6571C343.919 42.7387 343.813 42.7795 343.706 42.7795Z" fill="#121924"/>
<path d="M339.613 42.7795C339.507 42.7795 339.4 42.7387 339.319 42.6571L336.709 40.0477C336.546 39.8851 336.546 39.6211 336.709 39.4579C336.871 39.2953 337.135 39.2953 337.299 39.4579L339.909 42.0673C340.071 42.2299 340.071 42.4939 339.909 42.6571C339.827 42.7387 339.72 42.7795 339.613 42.7795Z" fill="#121924"/>
<path d="M346.316 49.4841C346.21 49.4841 346.103 49.4434 346.022 49.3618L343.412 46.7518C343.249 46.5892 343.249 46.3252 343.412 46.162C343.574 45.9994 343.838 45.9994 344.002 46.162L346.611 48.772C346.774 48.9346 346.774 49.1986 346.611 49.3618C346.529 49.4434 346.423 49.4841 346.316 49.4841Z" fill="#121924"/>
<path d="M11.8538 120.289C11.6234 120.289 11.4368 120.102 11.4368 119.872V116.181C11.4368 115.95 11.6234 115.764 11.8538 115.764C12.0842 115.764 12.2708 115.95 12.2708 116.181V119.872C12.2708 120.103 12.0842 120.289 11.8538 120.289Z" fill="#121924"/>
<path d="M11.854 129.772C11.6236 129.772 11.437 129.585 11.437 129.355V125.664C11.437 125.434 11.6236 125.247 11.854 125.247C12.0844 125.247 12.271 125.434 12.271 125.664V129.355C12.271 129.586 12.0844 129.772 11.854 129.772Z" fill="#121924"/>
<path d="M18.4415 123.184H14.7498C14.5194 123.184 14.3328 122.997 14.3328 122.767C14.3328 122.536 14.5194 122.35 14.7498 122.35H18.4415C18.6719 122.35 18.8585 122.536 18.8585 122.767C18.8585 122.998 18.6719 123.184 18.4415 123.184Z" fill="#121924"/>
<path d="M8.95934 123.184H5.26758C5.03718 123.184 4.85059 122.997 4.85059 122.767C4.85059 122.536 5.03718 122.35 5.26758 122.35H8.95934C9.18974 122.35 9.37634 122.536 9.37634 122.767C9.37634 122.998 9.18974 123.184 8.95934 123.184Z" fill="#121924"/>
<path d="M7.1934 127.844C7.0866 127.844 6.9798 127.803 6.8988 127.721C6.73621 127.559 6.73621 127.295 6.8988 127.131L9.50878 124.521C9.67197 124.359 9.93537 124.359 10.0986 124.521C10.2612 124.684 10.2612 124.948 10.0986 125.111L7.4886 127.721C7.407 127.803 7.3002 127.844 7.1934 127.844Z" fill="#121924"/>
<path d="M13.9012 121.139C13.7944 121.139 13.6882 121.098 13.6066 121.016C13.444 120.854 13.444 120.59 13.6066 120.427L16.2165 117.817C16.3791 117.655 16.6431 117.655 16.8063 117.817C16.9695 117.98 16.9695 118.244 16.8063 118.407L14.1964 121.016C14.1148 121.099 14.008 121.139 13.9012 121.139Z" fill="#121924"/>
<path d="M9.80337 121.139C9.69658 121.139 9.58978 121.098 9.50878 121.016L6.8988 118.407C6.73621 118.244 6.73621 117.98 6.8988 117.817C7.0614 117.655 7.3254 117.655 7.4886 117.817L10.0986 120.427C10.2612 120.589 10.2612 120.853 10.0986 121.016C10.017 121.099 9.91017 121.139 9.80337 121.139Z" fill="#121924"/>
<path d="M16.5111 127.844C16.4043 127.844 16.2975 127.803 16.2165 127.721L13.6066 125.111C13.444 124.949 13.444 124.685 13.6066 124.521C13.7692 124.359 14.0332 124.359 14.1964 124.521L16.8063 127.131C16.9695 127.294 16.9695 127.558 16.8063 127.721C16.7247 127.803 16.6179 127.844 16.5111 127.844Z" fill="#121924"/>
<path d="M263.03 54.0567H276.76C281.641 54.0567 285.598 50.0997 285.598 45.2188C285.598 40.3378 281.642 36.3809 276.76 36.3809H263.03C258.149 36.3809 254.192 40.3378 254.192 45.2188C254.192 50.0997 258.149 54.0567 263.03 54.0567Z" fill="#000201"/>
<path d="M276.757 54.4756H263.027C257.924 54.4756 253.772 50.3237 253.772 45.2207C253.772 40.1178 257.924 35.9658 263.027 35.9658H276.757C281.86 35.9658 286.012 40.1172 286.012 45.2207C286.012 50.3243 281.86 54.4756 276.757 54.4756ZM263.027 36.7998C258.384 36.7998 254.606 40.5774 254.606 45.2207C254.606 49.8641 258.384 53.6416 263.027 53.6416H276.757C281.401 53.6416 285.178 49.8641 285.178 45.2207C285.178 40.5774 281.401 36.7998 276.757 36.7998H263.027Z" fill="#000201"/>
<path d="M276.485 46.7616C275.634 46.7616 274.942 46.0692 274.942 45.2184C274.942 44.3676 275.634 43.6758 276.485 43.6758C277.336 43.6758 278.027 44.3682 278.027 45.2184C278.027 46.0692 277.335 46.7616 276.485 46.7616ZM276.485 44.5092C276.094 44.5092 275.776 44.8272 275.776 45.2178C275.776 45.609 276.094 45.927 276.485 45.927C276.876 45.927 277.193 45.609 277.193 45.2178C277.193 44.8278 276.875 44.5092 276.485 44.5092Z" fill="white"/>
<path d="M263.294 46.7616C262.444 46.7616 261.752 46.0692 261.752 45.2184C261.752 44.3676 262.444 43.6758 263.294 43.6758C264.145 43.6758 264.837 44.3682 264.837 45.2184C264.837 46.0692 264.145 46.7616 263.294 46.7616ZM263.294 44.5092C262.903 44.5092 262.586 44.8272 262.586 45.2178C262.586 45.609 262.904 45.927 263.294 45.927C263.685 45.927 264.003 45.609 264.003 45.2178C264.003 44.8278 263.685 44.5092 263.294 44.5092Z" fill="white"/>
<path d="M269.643 46.7616C268.792 46.7616 268.099 46.0692 268.099 45.2184C268.099 44.3676 268.792 43.6758 269.643 43.6758C270.493 43.6758 271.185 44.3682 271.185 45.2184C271.186 46.0692 270.493 46.7616 269.643 46.7616ZM269.643 44.5092C269.251 44.5092 268.933 44.8272 268.933 45.2178C268.933 45.609 269.251 45.927 269.643 45.927C270.033 45.927 270.351 45.609 270.351 45.2178C270.352 44.8278 270.034 44.5092 269.643 44.5092Z" fill="white"/>
<path d="M8.09495 258.326H113.09C117.023 258.326 120.212 255.138 120.212 251.205V245.653C120.212 241.72 117.023 238.531 113.09 238.531H8.09495C4.162 238.531 0.973633 241.72 0.973633 245.653V251.205C0.973633 255.138 4.162 258.326 8.09495 258.326Z" fill="#003090"/>
<path d="M111.086 258.701H10.1076C4.86669 258.701 0.602539 254.437 0.602539 249.196V247.66C0.602539 242.419 4.86669 238.155 10.1076 238.155H111.086C116.327 238.155 120.592 242.419 120.592 247.66V249.196C120.592 254.437 116.327 258.701 111.086 258.701ZM10.1076 238.907C5.28069 238.907 1.35373 242.834 1.35373 247.661V249.196C1.35373 254.023 5.28069 257.95 10.1076 257.95H111.086C115.913 257.95 119.84 254.023 119.84 249.196V247.661C119.84 242.834 115.913 238.907 111.086 238.907H10.1076Z" fill="#050004"/>
<path d="M15.8281 253.332H92.1617C92.5283 253.332 92.8253 253.035 92.8253 252.669V244.197C92.8253 243.83 92.5283 243.533 92.1617 243.533H15.8281C15.4615 243.533 15.1646 243.83 15.1646 244.197V252.669C15.1646 253.035 15.4615 253.332 15.8281 253.332Z" fill="white"/>
<path d="M106.597 250.952C105.51 250.952 104.481 250.479 103.772 249.657C103.189 248.981 102.868 248.117 102.868 247.224C102.868 245.168 104.541 243.496 106.597 243.496C108.652 243.496 110.325 245.168 110.325 247.224C110.325 249.279 108.652 250.952 106.597 250.952ZM106.597 244.295C104.982 244.295 103.667 245.609 103.667 247.224C103.667 247.925 103.919 248.604 104.378 249.135C104.935 249.782 105.743 250.152 106.597 250.152C108.211 250.152 109.526 248.838 109.526 247.223C109.526 245.609 108.211 244.295 106.597 244.295Z" fill="white"/>
<path d="M100.379 253.37C100.277 253.37 100.174 253.331 100.096 253.253C99.94 253.097 99.94 252.844 100.096 252.688L103.729 249.055C103.885 248.899 104.138 248.899 104.294 249.055C104.45 249.211 104.45 249.465 104.294 249.621L100.661 253.253C100.583 253.331 100.481 253.37 100.379 253.37Z" fill="white"/>
<defs>
<linearGradient id="paint0_linear_4516_25902" x1="358.556" y1="213.433" x2="346.449" y2="202.207" gradientUnits="userSpaceOnUse">
<stop stop-color="white"/>
<stop offset="0.9413" stop-color="#F9F9F9"/>
</linearGradient>
<linearGradient id="paint1_linear_4516_25902" x1="321.918" y1="179.459" x2="309.811" y2="168.233" gradientUnits="userSpaceOnUse">
<stop stop-color="white"/>
<stop offset="0.9413" stop-color="#F9F9F9"/>
</linearGradient>
</defs>
</svg>
