<svg width="378" height="378" viewBox="0 0 378 378" fill="none" xmlns="http://www.w3.org/2000/svg">
<path d="M301.05 213.175C302.566 213.094 304.029 212.595 305.277 211.732C306.525 210.869 307.509 209.676 308.119 208.287C308.639 206.52 306.768 205.896 306.142 207.871C305.619 208.953 304.83 209.883 303.848 210.574C302.866 211.266 301.725 211.696 300.531 211.823C300.115 211.927 299.283 213.209 301.05 213.175Z" fill="#191919"/>
<path d="M304.165 198.202C303.552 195.911 300.421 197.994 302.293 200.177C302.813 200.801 304.802 200.589 304.165 198.202Z" fill="#191919"/>
<path d="M299.697 188.536C298.24 188.946 298.242 190.615 300.111 190.615C302.201 190.461 304.299 190.784 306.246 191.56C306.38 191.605 306.526 191.603 306.658 191.554C306.791 191.505 306.903 191.412 306.975 191.291C307.048 191.169 307.077 191.027 307.057 190.887C307.038 190.747 306.971 190.617 306.868 190.521C305.886 189.692 304.737 189.086 303.5 188.743C302.262 188.401 300.965 188.33 299.697 188.536Z" fill="#191919"/>
<path d="M294.085 193.725C292.697 192.94 291.06 192.716 289.512 193.101C288.567 193.413 288.68 194.452 289.615 194.556C290.837 194.599 292.038 194.881 293.15 195.388C294.395 195.915 294.701 194.26 294.085 193.725Z" fill="#191919"/>
<path d="M295.745 200.907C295.45 203.218 295.415 205.554 295.641 207.873C296.059 210.576 302.19 208.601 301.256 207.146C300.737 206.314 298.657 208.091 297.304 207.457C296.943 205.294 296.805 203.099 296.89 200.907C296.89 200.755 296.83 200.609 296.723 200.502C296.615 200.394 296.47 200.334 296.318 200.334C296.166 200.334 296.02 200.394 295.913 200.502C295.805 200.609 295.745 200.755 295.745 200.907Z" fill="#191919"/>
<path d="M293.665 201.635C295.22 200.69 293.77 197.477 292.419 198.516C291.378 199.14 291.788 202.77 293.665 201.635Z" fill="#191919"/>
<path d="M283.166 210.056C284.622 214.838 288.156 221.075 292.21 223.986C294.081 225.337 295.017 223.986 293.155 222.219C289.158 218.851 286.142 214.47 284.423 209.535C284.354 209.368 284.221 209.236 284.055 209.167C283.888 209.098 283.7 209.098 283.534 209.167C283.367 209.236 283.235 209.369 283.166 209.536C283.097 209.702 283.097 209.89 283.166 210.056Z" fill="#191919"/>
<path d="M316.952 215.045C317.46 214.616 317.056 213.797 316.432 214.1C310.611 216.595 306.557 225.638 309.363 232.085C309.779 232.917 310.922 232.605 310.715 231.667C309.155 223.673 311.21 219.887 316.952 215.045Z" fill="#191919"/>
<path d="M282.233 217.021C283.05 219.619 284.382 222.027 286.15 224.099C287.918 226.17 290.086 227.864 292.525 229.079C293.876 229.702 295.227 228.663 293.148 227.312C288.87 224.86 285.484 221.11 283.481 216.605C282.961 215.773 282.003 216.091 282.233 217.021Z" fill="#191919"/>
<path d="M286.702 209.848C289.041 214.684 292.966 218.573 297.824 220.867C304.581 223.881 305.934 219.203 311.756 215.357C312.379 214.941 312.066 214.11 311.338 214.318C306.141 215.565 305.621 222.426 298.344 218.892C294.099 216.533 290.523 213.135 287.949 209.016C287.828 208.878 287.662 208.789 287.48 208.764C287.298 208.74 287.113 208.783 286.961 208.885C286.808 208.987 286.698 209.14 286.65 209.318C286.602 209.495 286.621 209.683 286.702 209.848Z" fill="#191919"/>
<path d="M295.743 237.197C296.264 238.026 297.616 237.301 297.198 236.469C295.223 231.166 287.323 230.022 284.516 225.344C283.996 224.513 283.061 225.344 283.382 226.176C286.283 231.678 292.218 231.568 295.743 237.197Z" fill="#191919"/>
<path d="M285.975 193.629C286.357 198.724 287.37 203.753 288.99 208.599C289.198 209.327 290.549 209.015 290.341 208.184C288.149 201.159 287.268 193.792 287.742 186.449C288.478 186.716 289.261 186.828 290.042 186.776C290.823 186.725 291.585 186.511 292.279 186.149C292.973 185.788 293.584 185.286 294.074 184.675C294.564 184.064 294.921 183.359 295.123 182.602C297.931 186.76 306.247 186.345 308.846 182.602C308.119 188.32 314.771 198.403 316.123 196.532C316.746 195.587 317.37 194.557 318.514 194.245C322.775 192.893 323.503 201.002 320.904 202.145C319.77 202.665 317.474 201.2 318.825 204.848C320.62 209.61 322.147 214.468 323.399 219.401C323.607 220.336 324.751 219.92 324.751 218.985C323.836 213.943 322.443 209 320.593 204.222C321.559 204.099 322.456 203.651 323.135 202.953C323.815 202.254 324.238 201.346 324.335 200.376C325.551 199.934 326.637 199.195 327.494 198.226C328.351 197.257 328.951 196.088 329.241 194.827C329.53 193.566 329.5 192.253 329.151 191.007C328.803 189.761 328.149 188.622 327.247 187.694C332.861 182.081 331.821 172.827 323.191 172.931C323.727 171.229 323.734 169.404 323.213 167.697C322.692 165.991 321.667 164.481 320.272 163.368C318.877 162.255 317.178 161.589 315.399 161.459C313.619 161.329 311.841 161.741 310.3 162.64C307.181 154.22 294.395 156.715 294.083 164.2C285.975 157.547 275.474 167.942 281.711 175.946C274.645 176.059 274.021 192.901 285.975 193.629Z" fill="#191919"/>
<path d="M300.214 243.009C300.837 243.706 301.657 244.196 302.566 244.414C303.474 244.631 304.428 244.566 305.298 244.227C306.169 243.888 306.915 243.291 307.437 242.516C307.959 241.741 308.231 240.825 308.218 239.891C309.939 239.218 311.606 238.419 313.208 237.5C312.975 236.087 312.444 234.741 311.649 233.55C310.03 233.969 308.462 234.561 306.971 235.317C306.37 234.572 305.548 234.038 304.623 233.792C303.698 233.546 302.719 233.601 301.827 233.948C300.936 234.295 300.178 234.917 299.663 235.724C299.149 236.531 298.904 237.48 298.965 238.435C297.926 239.059 296.782 239.787 296.366 240.099C296.315 241.535 296.711 242.952 297.5 244.153C298.341 243.841 299.373 243.433 300.214 243.009ZM301.148 238.435C301.477 234.797 306.251 235.213 305.828 239.787C305.516 243.529 300.755 242.803 301.148 238.435Z" fill="#191919"/>
<path d="M277.45 278.145C277.138 272.948 276.93 260.68 278.282 256.106C278.489 255.275 279.529 255.067 279.416 256.834C279.066 263.901 279.135 270.983 279.623 278.041C287.473 277.789 295.33 278.171 303.118 279.185C299.79 270.453 295.112 243.32 294.592 239.786C294.072 236.252 287.004 233.859 283.252 230.221C274.52 233.339 262.356 243.112 252.897 256.418C256.377 264.003 259.228 271.861 261.421 279.913C266.727 279.026 272.078 278.436 277.45 278.145Z" fill="#191919"/>
<path d="M326.413 221.283C322.152 225.752 318.513 227.935 312.068 228.039C313.42 237.3 321.53 250.806 328.598 260.683C329.703 258.333 330.506 255.853 330.987 253.301C331.197 251.846 332.121 252.365 332.121 253.197C331.951 256.477 331.249 259.708 330.042 262.762C338.568 274.405 349.698 285.631 353.856 299.77C358.534 293.845 376.831 261.403 364.149 239.891C356.667 226.896 340.345 220.243 326.413 221.283Z" fill="#191919"/>
<path d="M341.692 315.253C349.075 315.357 352.503 315.357 358.74 315.357C361.965 307.353 365.291 291.657 366.434 278.661C359.78 300.186 349.697 310.373 341.692 315.253Z" fill="#191919"/>
<path d="M313.313 308.812C301.579 309.923 289.962 312.045 278.592 315.153C285.349 315.049 309.675 314.842 318.199 315.049C315.992 313.496 314.293 311.327 313.313 308.812Z" fill="#191919"/>
<path d="M311.663 306.214C312.912 306.025 312.702 304.135 311.455 304.343C281.383 308.563 276.388 312.166 263.53 313.283C261.763 313.387 260.317 315.258 262.699 315.258C270.393 315.258 283.075 311.308 291.391 309.748C298.66 308.293 304.388 307.339 311.663 306.214Z" fill="#191919"/>
<path d="M265.18 281.263C260.603 282.178 261.75 283.654 263.413 283.238C275.265 280.744 291.274 281.263 303.126 283.238C304.269 283.446 304.789 281.679 303.646 281.471C291.897 279.496 276.917 278.922 265.18 281.263Z" fill="#191919"/>
<path d="M338.37 278.562C338.886 278.984 339.93 278.354 339.504 277.617C329.681 265.929 320.947 253.368 313.411 240.089C312.995 239.362 311.748 240.089 312.06 240.817C316.019 248.725 331.561 273.011 338.37 278.562Z" fill="#191919"/>
<path d="M351.258 300.602C351.673 299.562 350.313 298.73 349.802 299.657C346.684 305.166 342.942 310.675 336.912 313.378C330.779 316.185 324.021 315.353 319.551 310.052C309.884 298.617 302.815 262.235 300.214 245.703C300.006 244.663 298.551 245.079 298.759 246.118C300.942 261.919 308.02 299.137 318.304 311.299C326.179 320.685 342.8 318.364 351.258 300.602Z" fill="#191919"/>
<path d="M196.261 259.119C196.989 258.707 196.469 257.872 195.637 257.985C191.895 258.713 189.4 259.752 188.255 263.496C187.1 266.906 186.814 270.551 187.423 274.099C187.631 275.044 188.983 274.827 189.087 273.891C189.191 269.837 188.567 269.006 189.918 264.536C191.062 260.368 192.94 261.009 196.261 259.119Z" fill="#191919"/>
<path d="M197.611 243.218C197.497 245.472 197.567 247.732 197.819 249.975C197.923 250.806 199.378 250.702 199.482 249.975C199.529 247.718 199.425 245.461 199.17 243.218C199.065 242.489 197.628 242.489 197.611 243.218Z" fill="#191919"/>
<path d="M205.51 242.384C208.286 240.872 212.692 237.914 214.554 234.274C215.073 233.235 214.971 232.923 214.242 231.987C213.323 230.948 212.237 230.07 211.029 229.389C209.783 228.765 209.677 229.181 208.744 229.804C202.609 234.066 193.246 233.235 186.807 229.908C186.287 229.596 184.831 230.428 186.183 231.156C194.189 235.212 202.815 235.939 210.197 230.74C211.387 231.494 212.471 232.403 213.421 233.443C210.959 236.942 207.626 239.737 203.752 241.553C202.297 239.785 200.842 238.122 199.386 236.355C197.192 233.919 196.292 238.304 192.732 241.864C189.129 240.085 185.686 237.998 182.441 235.627C183.48 234.586 184.416 233.548 185.455 232.507C186.079 231.987 185.247 230.948 184.51 231.373C183.414 232.167 182.404 233.073 181.496 234.076C181.123 234.505 180.936 235.064 180.975 235.631C181.014 236.198 181.276 236.726 181.704 237.1C183.367 238.659 191.787 244.064 193.14 243.441C195.427 242.307 196.674 239.283 198.233 237.412C199.689 238.867 201.664 241.778 202.807 242.921C203.535 243.736 204.775 242.785 205.51 242.384Z" fill="#191919"/>
<path d="M216.531 200.595C216.908 198.995 217.047 197.349 216.945 195.709C216.737 193.942 215.076 193.838 215.178 195.813C215.386 198.412 214.452 201.426 214.764 202.05C215.491 203.819 218.09 200.916 219.336 202.78C221.103 205.69 217.257 211.2 214.866 209.744C214.244 209.329 213.732 209.64 213.307 210.992C212.671 212.812 211.834 214.555 210.812 216.189C205.199 224.401 193.868 226.48 187.631 219.402C185.432 216.554 184 213.19 183.473 209.631C183.457 209.397 183.38 209.171 183.249 208.976C183.119 208.78 182.94 208.623 182.73 208.518C182.52 208.413 182.287 208.364 182.052 208.377C181.818 208.39 181.591 208.464 181.394 208.591C179.211 210.255 177.236 207.76 177.028 204.641C176.716 200.378 179.315 200.066 181.186 201.521C181.302 201.615 181.446 201.671 181.595 201.68C181.745 201.688 181.893 201.65 182.02 201.569C182.146 201.489 182.244 201.37 182.3 201.231C182.355 201.092 182.366 200.939 182.33 200.793C182.226 199.848 181.706 194.556 181.706 193.413C181.602 192.373 180.354 192.789 180.354 193.725C180.458 195.596 180.562 197.571 180.77 199.338C180.197 199.06 179.564 198.926 178.927 198.947C178.29 198.969 177.668 199.146 177.115 199.463C176.562 199.779 176.095 200.226 175.754 200.764C175.412 201.302 175.207 201.916 175.157 202.551C174.325 208.166 178.275 212.532 181.914 210.453C182.953 215.027 184.72 219.705 188.568 222.511C188.359 224.382 188.257 226.254 188.049 228.125C187.945 229.788 189.088 229.996 189.504 229.164C189.785 227.27 189.958 225.361 190.024 223.447C192.572 224.774 195.428 225.397 198.297 225.251C201.166 225.105 203.944 224.195 206.344 222.615C206.448 224.486 206.344 226.461 206.552 228.333C206.554 228.451 206.581 228.567 206.631 228.675C206.681 228.782 206.753 228.877 206.842 228.955C206.931 229.032 207.036 229.09 207.149 229.125C207.263 229.159 207.382 229.169 207.499 229.155C207.617 229.14 207.73 229.101 207.831 229.04C207.932 228.978 208.019 228.897 208.087 228.799C208.154 228.702 208.201 228.592 208.223 228.476C208.245 228.359 208.242 228.24 208.215 228.125C207.903 225.006 208.111 223.031 208.007 221.472C211.155 218.976 213.445 215.56 214.558 211.701C215.187 211.85 215.843 211.853 216.474 211.709C217.105 211.565 217.694 211.277 218.196 210.869C223.08 207.561 222.662 198.724 216.531 200.595Z" fill="#191919"/>
<path d="M190.646 191.446C189.595 191.425 188.551 191.628 187.583 192.04C186.615 192.452 185.745 193.064 185.031 193.837C184.407 194.46 184.823 195.812 186.071 195.188C187.414 194.224 188.997 193.648 190.646 193.525C192.517 193.317 192.213 191.557 190.646 191.446Z" fill="#191919"/>
<path d="M215.904 256.628C215.613 254.101 214.662 251.695 213.148 249.652C211.633 247.609 209.609 245.999 207.276 244.985C206.142 244.569 206.029 245.713 206.86 246.119C212.162 248.926 214.241 254.331 214.451 260.05C214.657 264.728 212.474 272.005 217.983 274.603C218.928 275.019 219.648 273.469 218.711 273.044C214.033 270.871 217.004 263.704 215.904 256.628Z" fill="#191919"/>
<path d="M191.996 246.752C192.505 246.119 191.892 245.297 191.165 245.807C187.126 249.265 184.167 253.811 182.641 258.905C181.913 261.609 182.121 264.416 181.497 267.015C180.77 270.029 178.171 271.173 175.78 272.836C174.949 273.356 175.676 274.811 176.612 274.395C178.942 273.443 180.934 271.813 182.329 269.717C184.512 265.975 182.329 261.297 186.799 253.499C188.36 251.123 190.098 248.868 191.996 246.752Z" fill="#191919"/>
<path d="M185.756 269.311C186.114 266.098 185.86 262.761 187.627 259.85C188.423 258.648 189.465 257.628 190.684 256.857C191.902 256.087 193.271 255.583 194.698 255.38C195.945 255.172 195.832 253.925 194.698 253.925C193.05 253.979 191.438 254.422 189.993 255.217C188.548 256.011 187.311 257.136 186.382 258.499C184.588 261.763 183.896 265.518 184.407 269.207C184.405 269.935 185.664 270.143 185.756 269.311Z" fill="#191919"/>
<path d="M198.45 268.38C198.072 271.088 198.658 311.313 198.762 313.496C198.762 314.64 200.633 314.536 200.633 313.392C200.633 301.863 200.113 281.062 199.906 268.484C199.794 267.854 198.558 267.543 198.45 268.38Z" fill="#191919"/>
<path d="M209.564 287.502C208.372 287.053 207.31 286.315 206.475 285.353C205.641 284.391 205.059 283.236 204.782 281.992C203.639 276.483 209.356 271.182 206.446 265.464C205.936 264.395 205.092 263.521 204.041 262.975C202.99 262.43 201.79 262.242 200.623 262.44C200.471 262.44 200.325 262.501 200.218 262.608C200.111 262.715 200.051 262.86 200.051 263.012C200.051 263.164 200.111 263.309 200.218 263.416C200.325 263.524 200.471 263.584 200.623 263.584C201.297 263.609 201.959 263.771 202.569 264.06C203.179 264.349 203.724 264.758 204.171 265.264C204.619 265.769 204.959 266.36 205.171 267.001C205.383 267.641 205.463 268.319 205.406 268.991C205.406 272.006 203.743 274.812 203.119 277.723C202.485 280.011 202.731 282.455 203.808 284.571C204.885 286.688 206.717 288.324 208.94 289.157C210.084 289.685 210.704 287.933 209.564 287.502Z" fill="#191919"/>
<path d="M174.947 275.34C174.837 274.508 174.947 271.701 173.491 272.127C172.216 272.362 170.964 272.71 169.749 273.166C168.086 273.894 167.254 275.765 169.541 275.141C170.581 274.829 171.724 274.517 172.754 274.196C173.284 280.933 175.983 287.316 180.446 292.389C174.357 297.592 167.773 302.187 160.79 306.111C158.815 307.254 159.335 309.021 160.998 308.086C168.554 304.142 175.576 299.252 181.894 293.533C182.206 293.221 182.622 292.805 182.206 292.181C178.481 286.358 175.837 282.102 174.947 275.34Z" fill="#191919"/>
<path d="M263.414 298.522C262.263 287.607 254.474 266.295 250.108 256.834C243.453 242.593 232.954 237.395 218.194 234.171C218 234.129 217.798 234.166 217.632 234.273C217.466 234.381 217.35 234.549 217.308 234.743C217.266 234.936 217.303 235.138 217.411 235.304C217.518 235.47 217.687 235.587 217.88 235.628C230.668 240.098 240.127 241.761 247.094 254.963C252.083 264.424 263.102 293.428 261.543 304.551C260.295 313.179 255.721 312.763 249.692 313.179C238.88 313.906 220.376 299.457 212.682 292.389C217.88 288.749 221.208 280.433 222.144 274.611C230.42 276.883 238.409 280.091 245.958 284.175C246.999 284.694 247.831 283.343 246.791 282.823C241.984 280.127 236.979 277.799 231.82 275.859C231.372 273.378 230.298 271.053 228.702 269.102C227.87 268.374 227.455 269.31 227.766 269.83C228.782 271.477 229.552 273.262 230.053 275.131C227.591 274.188 225.052 273.458 222.465 272.948C220.49 272.636 220.49 272.948 220.178 274.611C216.746 291.141 208.95 290.724 211.132 293.116C218.827 301.744 237.33 314.738 249.39 314.946C260.711 315.252 264.654 310.27 263.414 298.522Z" fill="#191919"/>
<path d="M210.606 265.465C210.477 263.946 209.907 262.497 208.967 261.297C208.027 260.096 206.758 259.196 205.314 258.706C203.534 258.361 201.72 258.222 199.908 258.29C199.075 258.29 199.075 259.33 199.804 259.54C202.819 260.371 205.314 259.226 207.497 262.346C209.887 265.673 208.536 268.895 208.952 270.87C209.009 271.026 209.109 271.161 209.242 271.261C209.374 271.36 209.533 271.419 209.698 271.43C209.863 271.441 210.028 271.404 210.172 271.323C210.317 271.242 210.434 271.121 210.511 270.974C210.862 269.157 210.894 267.293 210.606 265.465Z" fill="#191919"/>
<path d="M197.192 261.827C195.994 262.207 194.891 262.84 193.959 263.683C193.026 264.526 192.285 265.559 191.785 266.712C187.419 275.86 199.375 282.617 182.118 288.96C181.906 289.023 181.727 289.165 181.617 289.357C181.508 289.549 181.477 289.776 181.531 289.99C181.584 290.204 181.718 290.39 181.905 290.507C182.092 290.625 182.317 290.667 182.533 290.623C185.286 289.975 187.849 288.692 190.018 286.879C199.687 278.771 185.86 270.974 197.712 262.97C198.336 262.45 198.026 261.63 197.192 261.827Z" fill="#191919"/>
<path d="M188.148 200.697C189.486 201.857 191.172 198.202 189.398 197.266C187.836 196.435 187.203 199.876 188.148 200.697Z" fill="#191919"/>
<path d="M209.15 258.082C211.829 260.607 211.645 264.319 211.749 267.751C211.749 268.582 212.997 268.479 213.204 267.751C213.724 264.009 213.308 259.537 210.398 256.73C207.279 253.82 202.498 253.404 198.548 254.028C198.458 254.032 198.369 254.055 198.289 254.095C198.208 254.136 198.138 254.193 198.081 254.263C198.024 254.333 197.983 254.414 197.96 254.502C197.937 254.589 197.933 254.68 197.948 254.769C197.962 254.857 197.996 254.942 198.046 255.017C198.096 255.092 198.161 255.156 198.238 255.204C198.314 255.251 198.4 255.282 198.489 255.295C198.578 255.307 198.669 255.3 198.755 255.275C202.29 255.275 206.315 255.409 209.15 258.082Z" fill="#191919"/>
<path d="M173.597 198.099C174.531 198.933 175.572 197.476 174.74 196.644C168.711 190.615 168.711 181.465 172.869 174.397C184.824 153.813 220.378 157.973 227.759 179.178C229.038 182.569 229.172 186.284 228.139 189.758C227.107 193.231 224.965 196.27 222.041 198.411C221.418 198.931 221.937 200.074 222.769 199.659C231.085 195.501 232.54 184.586 229.11 176.79C218.923 153.607 179.314 152.359 169.647 176.79C166.736 183.962 167.662 192.807 173.597 198.099Z" fill="#191919"/>
<path d="M176.816 191.862C183.149 192.569 190.955 188.12 194.074 182.714C194.168 182.562 194.202 182.38 194.168 182.204C194.134 182.028 194.034 181.872 193.889 181.766C193.744 181.661 193.565 181.614 193.387 181.636C193.209 181.658 193.046 181.746 192.93 181.883C188.252 187.6 183.989 189.471 176.816 190.303C176.631 190.333 176.463 190.428 176.342 190.571C176.22 190.714 176.154 190.895 176.154 191.082C176.154 191.27 176.22 191.451 176.342 191.594C176.463 191.737 176.631 191.832 176.816 191.862Z" fill="#191919"/>
<path d="M196.777 207.872C197.507 207.354 197.505 206.625 196.777 206.313C196.257 206.105 193.451 206.833 193.243 206.313C192.827 205.274 194.386 200.802 194.698 198.619C194.906 197.06 194.178 197.06 193.451 198.307C192.723 199.554 190.427 205.897 191.474 207.768C192.515 209.328 195.741 208.604 196.777 207.872Z" fill="#191919"/>
<path d="M154.675 251.43C161.007 242.586 167.983 238.956 178.378 235.733C179.417 235.421 179.105 233.758 178.066 234.07C166.111 237.604 159.977 240.931 152.7 251.014C151.661 252.261 153.634 252.883 154.675 251.43Z" fill="#191919"/>
<path d="M219.241 192.797C219.393 192.752 219.524 192.656 219.614 192.525C219.703 192.395 219.745 192.237 219.733 192.08C219.721 191.922 219.655 191.773 219.547 191.658C219.438 191.542 219.294 191.468 219.137 191.446C212.69 191.342 204.894 190.406 200.008 185.729C195.435 181.363 193.148 173.772 192.826 167.639C192.722 166.6 191.163 166.505 191.267 167.535C191.371 173.98 194.291 182.402 198.959 186.872C203.628 191.342 212.883 193.772 219.241 192.797Z" fill="#191919"/>
<path d="M193.97 213.799C197.34 215.588 201.558 214.526 202.702 211.304C202.91 210.576 202.078 209.952 201.558 210.576C198.534 214.11 195.945 212.655 194.376 212.759C193.554 212.655 193.354 213.472 193.97 213.799Z" fill="#191919"/>
<path d="M207.383 196.229C206.597 193.961 202.186 191.447 200.107 192.175C199.275 192.487 198.963 194.15 200.107 194.358C202.417 194.658 204.586 195.635 206.344 197.164C206.863 197.58 207.674 197.068 207.383 196.229Z" fill="#191919"/>
<path d="M200.728 201.426C202.706 201.033 202.599 197.372 201.039 197.788C199.582 198.1 199.066 201.757 200.728 201.426Z" fill="#191919"/>
<path d="M262.942 121.33C263.061 122.492 263.586 124.08 262.73 124.21C261.79 124.352 261.826 122.53 261.79 121.675C261.765 121.063 261.72 118.266 262.139 118.243C262.51 118.223 262.881 120.957 262.942 121.33Z" fill="#003090"/>
<path d="M266.839 124.437C266.688 123.577 268.955 120.144 269.347 120.264C269.926 120.441 268.399 124.441 267.808 124.847C267.725 124.919 267.624 124.966 267.516 124.983C267.407 125 267.296 124.987 267.196 124.944C267.095 124.901 267.008 124.831 266.945 124.741C266.882 124.652 266.845 124.546 266.839 124.437Z" fill="#003090"/>
<path d="M258.014 125.677C258.117 126.257 257.667 126.416 257.3 126.225C256.465 125.789 253.949 122.818 254.214 122.559C254.616 122.167 258.011 125.282 258.014 125.677Z" fill="#003090"/>
<path d="M132.533 214.327C133.055 214.743 133.886 214.327 133.575 213.704C132.845 211.625 132.221 209.546 133.783 207.363C134.421 206.507 135.282 205.841 136.271 205.438C137.26 205.034 138.34 204.909 139.396 205.074C139.566 205.073 139.732 205.017 139.868 204.914C140.004 204.811 140.103 204.666 140.15 204.502C140.197 204.338 140.189 204.163 140.128 204.004C140.067 203.845 139.956 203.709 139.812 203.619C136.901 202.267 131.182 204.762 131.182 210.273C131.101 211.006 131.179 211.749 131.413 212.449C131.646 213.148 132.028 213.789 132.533 214.327Z" fill="#191919"/>
<path d="M128.58 226.583C128.59 226.81 128.688 227.025 128.853 227.182C129.017 227.339 129.236 227.426 129.463 227.426C129.691 227.426 129.91 227.339 130.074 227.182C130.239 227.025 130.336 226.81 130.347 226.583C130.572 224.668 130.43 222.728 129.931 220.866C128.892 217.227 125.461 215.876 125.565 212.238C125.669 210.055 126.085 207.872 126.189 205.793C126.187 205.623 126.121 205.46 126.005 205.336C125.889 205.212 125.73 205.136 125.561 205.123C125.391 205.11 125.223 205.161 125.089 205.266C124.956 205.37 124.866 205.521 124.838 205.689C124.422 207.768 124.006 209.847 123.798 211.926C123.382 216.5 126.501 217.747 127.748 220.658C128.588 222.512 128.876 224.569 128.58 226.583Z" fill="#191919"/>
<path d="M129.725 187.807L131.285 203.088C131.389 203.712 132.532 203.712 132.636 202.984C133.156 199.138 131.804 191.549 130.973 187.486C130.869 186.872 129.621 187.08 129.725 187.807Z" fill="#191919"/>
<path d="M140.227 215.877C140.632 216.714 141.682 216.085 141.474 215.357C141.163 213.59 140.435 211.511 143.865 211.511C146.672 211.511 147.078 214.006 146.984 216.293C146.776 220.555 143.138 224.193 143.138 228.039C143.141 228.257 143.224 228.465 143.37 228.626C143.515 228.787 143.715 228.89 143.93 228.915C144.146 228.941 144.364 228.887 144.543 228.764C144.722 228.641 144.851 228.458 144.905 228.247C145.944 223.985 146.36 224.401 147.815 220.867C149.073 218.233 149.259 215.215 148.335 212.447C146.256 207.769 136.92 209.056 140.227 215.877Z" fill="#191919"/>
<path d="M135.547 210.471C135.346 212.011 135.637 213.575 136.378 214.94C136.463 215.063 136.588 215.152 136.731 215.192C136.875 215.232 137.028 215.219 137.164 215.157C137.299 215.095 137.408 214.987 137.472 214.852C137.536 214.718 137.55 214.565 137.512 214.421C137.096 212.238 136.681 209.639 138.76 208.495C139.675 207.936 140.715 207.614 141.787 207.56C142.858 207.505 143.926 207.72 144.893 208.184C145.62 208.599 146.244 207.456 145.724 206.936C143.967 204.753 136.17 205.585 135.547 210.471Z" fill="#191919"/>
<path d="M88.5609 193.004C87.9372 193.108 87.3135 193.212 86.7938 193.316C85.8582 190.405 83.0516 187.391 79.6212 188.638C75.983 189.989 75.8772 193.94 76.0869 195.707C73.0629 196.019 69.952 196.434 66.9375 196.746C66.7666 196.787 66.6157 196.886 66.5117 197.028C66.4078 197.169 66.3575 197.343 66.37 197.518C66.3825 197.693 66.457 197.858 66.58 197.983C66.703 198.109 66.8666 198.186 67.0414 198.202C70.1599 197.994 73.2784 197.786 76.3988 197.682C78.2283 207.035 88.7953 204.497 87.3135 195.187C87.8333 195.083 88.353 195.083 88.7688 194.979C89.9236 203.068 99.3283 203.318 98.4362 193.732C99.2678 193.732 101.035 193.316 100.203 192.068C99.7875 191.445 98.852 191.861 98.2283 191.965C96.5651 185.104 88.8728 185.935 88.5609 193.004ZM77.7501 196.538C77.4383 194.147 77.958 191.653 79.5173 190.717C82.116 189.054 84.7148 191.653 85.5464 194.979C87.2663 202.938 78.7594 204.624 77.7501 196.538ZM94.694 199.241C90.8762 200.564 88.3115 191.891 91.6794 189.366C96.1531 185.864 99.0826 197.712 94.6902 199.241H94.694Z" fill="#191919"/>
<path d="M88.765 204.753C86.3742 204.961 86.5821 206.001 88.1413 206.209C89.1808 206.313 90.844 206.105 91.3543 205.169C92.1859 203.714 91.0425 201.321 89.5872 199.97C88.5477 198.93 88.0279 199.866 88.4532 200.386C89.3944 201.841 91.6756 204.234 88.765 204.753Z" fill="#191919"/>
<path d="M96.357 201.945C96.2587 200.905 95.223 200.905 95.223 201.945C95.4309 209.015 94.7032 220.346 84.6201 221.177C80.6681 221.489 76.4062 219.618 72.9758 217.643C72.3521 217.227 71.5205 218.267 72.2482 218.786C75.6828 221.259 79.7679 222.669 83.9964 222.841C84.2043 224.504 84.6201 226.271 84.828 227.934C85.3477 231.157 86.5952 229.597 86.3873 228.558C86.1683 226.609 85.891 224.668 85.5556 222.737C95.3175 221.177 97.1262 210.051 96.357 201.945Z" fill="#191919"/>
<path d="M82.1145 214.11C82.6898 214.385 83.3166 214.535 83.954 214.551C84.5913 214.567 85.2249 214.449 85.8134 214.204C86.4019 213.958 86.9321 213.592 87.3695 213.128C87.8068 212.664 88.1414 212.113 88.3515 211.511C89.0791 209.952 88.6633 209.64 87.312 209.64C85.9978 209.739 84.6784 209.537 83.4535 209.051C82.2286 208.565 81.1302 207.807 80.2415 206.833C78.5292 205.405 78.1096 212.585 82.1145 214.11ZM87.1041 211.199C85.4409 214.412 80.4494 212.863 80.3473 209.12C82.319 210.519 84.6874 211.247 87.1041 211.199Z" fill="#191919"/>
<path d="M81.8014 196.228C81.584 196.85 81.9034 198.515 82.9448 198.307C83.7764 198.203 83.7764 197.06 83.4646 196.332C83.0488 195.293 82.2002 195.079 81.8014 196.228Z" fill="#191919"/>
<path d="M93.34 194.357C93.117 195.081 93.444 196.956 94.474 196.54C94.9938 196.332 95.2017 195.813 95.0977 194.877C94.8993 193.726 93.7294 193.102 93.34 194.357Z" fill="#191919"/>
<path d="M75.2514 190.095C76.8267 188.28 79.0063 187.099 81.3864 186.768C81.6331 186.718 81.8537 186.581 82.0081 186.382C82.1625 186.183 82.2405 185.936 82.228 185.684C82.2154 185.433 82.1131 185.194 81.9396 185.012C81.7661 184.829 81.533 184.715 81.2824 184.689C80.0797 184.7 78.8927 184.964 77.7995 185.466C76.7063 185.968 75.7316 186.695 74.9396 187.6C72.6527 190.095 74.6107 190.805 75.2514 190.095Z" fill="#191919"/>
<path d="M47.6 188.744C47.4293 191.97 48.1793 195.178 49.7625 197.994C51.3456 200.81 53.6967 203.118 56.5416 204.649C57.0613 207.663 59.0364 211.199 62.7786 211.199C63.8964 216.755 64.6258 222.382 64.9615 228.039C64.9543 228.139 64.9678 228.24 65.0011 228.334C65.0344 228.429 65.0868 228.515 65.1551 228.589C65.2233 228.662 65.306 228.721 65.3979 228.761C65.4898 228.801 65.5889 228.821 65.6892 228.821C65.7894 228.821 65.8885 228.801 65.9804 228.761C66.0723 228.721 66.155 228.662 66.2232 228.589C66.2915 228.515 66.3439 228.429 66.3772 228.334C66.4105 228.24 66.424 228.139 66.4168 228.039C66.3092 222.627 65.7178 217.234 64.6497 211.927C64.4418 210.992 64.4418 209.119 63.4023 209.222C61.3233 209.43 59.2443 207.663 58.6206 204.337C57.8929 200.803 59.868 197.892 62.6746 199.234C63.0904 199.442 63.4022 199.13 63.6101 198.922C67.6642 194.972 72.7577 187.695 72.7577 179.689C78.1631 182.082 91.1588 183.018 97.0839 181.041C96.6681 173.141 89.0798 160.978 72.238 162.642C53.4231 164.522 47.7852 178.867 47.6 188.744Z" fill="#191919"/>
<path d="M90.8443 185.519C92.1657 185.117 93.577 185.117 94.8984 185.519C95.9379 185.831 95.8339 184.792 95.0023 184.064C94.2894 183.687 93.5085 183.457 92.7053 183.385C91.9021 183.314 91.0927 183.403 90.3245 183.648C88.7653 184.376 89.3002 186.179 90.8443 185.519Z" fill="#191919"/>
<path d="M158.311 253.924C145.11 253.723 123.278 253.196 111.324 254.236C101.967 255.067 99.6799 257.978 97.4969 266.088C94.3784 277.938 89.3888 297.794 87.7256 309.125C75.1641 308.939 62.6016 309.425 50.0919 310.58C45.4142 311.204 45.1023 314.634 46.5576 316.09C47.2853 316.817 48.2208 315.778 47.6916 315.05C47.5887 314.866 47.5231 314.663 47.4987 314.454C47.4743 314.244 47.4916 314.032 47.5496 313.829C47.6075 313.626 47.705 313.437 47.8364 313.272C47.9679 313.107 48.1306 312.969 48.3153 312.867C50.9141 311.1 82.4147 310.788 86.8846 310.788C88.5478 310.788 89.0675 310.58 89.4833 308.813C92.6018 294.156 96.6653 277.314 100.398 263.489C101.532 259.017 104.972 256.626 110.483 256.211C124.412 255.067 144.061 255.691 158.822 255.899C164.021 256.003 167.138 258.082 166.724 263.905C166.204 271.701 159.341 295.611 156.847 304.447C156.056 307.913 154.834 311.265 153.208 314.426C152.585 315.466 154.144 316.611 154.768 315.56C156.635 311.655 158.132 307.583 159.238 303.398C162.564 291.756 167.244 274.914 168.699 264.623C169.341 257.562 165.382 254.031 158.311 253.924Z" fill="#191919"/>
<path d="M129.932 278.875C129.511 279.495 130.244 280.434 130.972 279.914C131.702 279.319 132.611 278.985 133.553 278.966C134.496 278.947 135.417 279.244 136.171 279.81C137.522 281.058 137.834 283.656 135.339 288.126C132.219 293.845 127.957 294.677 126.078 292.39C123.792 289.583 125.975 283.864 128.157 281.577C128.677 280.954 127.742 280.018 127.212 280.538C122.639 284.696 121.807 290.831 124.406 293.637C128.564 298.211 134.595 294.469 136.88 289.583C138.231 286.671 140.31 282.721 138.439 279.706C138.052 278.948 137.481 278.299 136.777 277.819C136.074 277.339 135.261 277.044 134.413 276.962C133.566 276.879 132.711 277.011 131.928 277.345C131.145 277.679 130.459 278.205 129.932 278.875Z" fill="#191919"/>
<path d="M142.408 151.111C144.81 149.568 141.68 145.496 139.195 147.99C137.107 149.967 140.442 152.371 142.408 151.111Z" fill="#191919"/>
<path d="M117.041 152.877C119.751 153.895 121.823 150.902 120.16 149.342C117.873 147.159 113.932 151.709 117.041 152.877Z" fill="#191919"/>
<path d="M128.584 152.255C132.224 153.389 133.573 148.72 130.039 147.889C127.752 147.369 125.571 151.313 128.584 152.255Z" fill="#191919"/>
<path d="M266.637 170.758C266.129 169.713 264.872 170.031 264.974 170.966C265.392 174.179 271.835 174.708 273.708 171.174C277.032 164.729 266.526 162.858 265.184 167.016C264.664 168.575 266.014 168.471 266.743 167.328C267.677 165.769 273.81 166.383 272.149 170.135C271.421 172.006 267.49 172.516 266.637 170.758Z" fill="#003090"/>
<path d="M248.86 149.034C248.756 154.751 254.785 156.83 259.359 157.765C276.097 161.196 283.685 152.256 281.606 146.017C281.595 145.933 281.566 145.853 281.521 145.781C281.476 145.709 281.416 145.648 281.346 145.601C281.275 145.554 281.195 145.523 281.112 145.51C281.028 145.497 280.942 145.501 280.861 145.524C280.779 145.546 280.703 145.586 280.638 145.64C280.573 145.694 280.52 145.762 280.484 145.838C280.447 145.914 280.427 145.998 280.425 146.082C280.423 146.167 280.439 146.251 280.472 146.329C281.096 153.919 272.258 156.724 266.125 156.83C261.344 156.934 248.142 154.439 250.949 147.161C251.468 145.913 250.533 145.185 249.815 145.913C245.553 150.385 239.106 149.137 235.987 143.73C232.661 137.909 234.428 129.697 241.705 130.632C241.926 130.645 242.143 130.576 242.317 130.439C242.491 130.302 242.608 130.106 242.646 129.888C242.685 129.67 242.642 129.445 242.526 129.257C242.41 129.068 242.228 128.929 242.016 128.865C235.883 126.371 234.834 116.805 242.224 112.335C249.295 108.073 255.22 110.464 260.002 116.078C260.833 117.117 261.873 116.909 261.977 114.83C262.496 109.425 269.357 106.306 274.245 107.554C275.541 107.974 276.741 108.648 277.774 109.537C278.808 110.426 279.654 111.511 280.263 112.73C280.873 113.949 281.234 115.278 281.325 116.638C281.416 117.998 281.235 119.362 280.794 120.651C280.482 121.596 281.417 121.901 282.145 121.693C288.59 120.028 295.451 127.098 296.074 133.231C297.114 143.21 288.174 143.522 282.769 142.379C281.729 142.171 281.937 143.324 282.769 143.626C290.565 146.225 298.673 142.587 297.737 133.231C297.114 126.371 289.941 118.884 282.665 120.028C283.171 117.754 283.019 115.384 282.228 113.193C281.436 111.002 280.037 109.083 278.195 107.658C271.54 102.772 261.665 107.034 260.314 113.791C258.211 111.182 255.262 109.39 251.978 108.725C248.693 108.061 245.28 108.566 242.328 110.152C235.26 113.791 231.933 123.252 238.588 128.657C233.7 129.801 231.518 134.687 232.141 139.676C233.682 148.618 242.725 153.295 248.86 149.034Z" fill="#003090"/>
<path d="M361.557 318.794C272.738 317.881 126.22 316.148 14.5532 321.185C13.8255 321.185 13.9295 323.471 14.6571 323.471C122.034 320.756 220.181 318.669 361.661 321.808C362.591 321.808 362.485 318.803 361.557 318.794Z" fill="#003090"/>
<path d="M120.68 251.747C125.877 251.747 136.066 251.747 143.031 251.643C144.553 244.545 145.626 237.357 146.244 230.124C140.734 230.851 130.338 230.332 125.764 228.564C124.687 236.415 122.987 244.167 120.68 251.747Z" fill="#003090"/>
<path d="M43.6564 315.251C43.3597 313.968 43.5065 312.622 44.0729 311.432C44.6392 310.243 45.5916 309.281 46.7749 308.702C49.5815 307.351 78.3795 307.143 85.1419 306.831C85.4537 305.168 86.3893 300.698 87.7406 294.877C70.7235 291.461 53.4284 289.617 36.0737 289.367C34.5144 289.367 35.1381 287.91 36.0737 287.91C38.5685 287.806 41.0633 287.806 43.5581 287.806C45.4806 280.203 48.3447 272.87 52.0839 265.977C52.4997 265.249 53.4352 265.665 53.1234 266.393C49.9024 273.313 47.3267 280.516 45.4292 287.91C59.8089 288.46 74.1266 290.093 88.2604 292.798C90.5473 282.921 93.6658 270.239 96.5764 261.715C99.0712 254.125 103.021 252.253 108.325 251.942C111.788 251.792 115.254 251.757 118.72 251.838C119.135 250.59 119.551 249.343 119.967 247.784C114.873 239.468 103.957 232.085 89.092 230.942C83.9984 236.973 69.7554 236.349 61.9591 228.967C57.3853 229.487 42.3031 232.813 33.267 243.002C20.5833 257.555 3.32755 290.927 11.6436 308.494C15.7864 317.441 38.9692 315.776 43.6564 315.251Z" fill="#003090"/>
<path d="M186.9 71.7916C187.219 69.1928 185.444 55.9893 184.093 54.7419C184.013 54.6585 183.914 54.5962 183.805 54.5605C183.695 54.5248 183.578 54.517 183.465 54.5376C183.352 54.5582 183.245 54.6067 183.155 54.6786C183.065 54.7506 182.995 54.8438 182.949 54.9498C182.534 55.8854 185.028 70.1265 185.34 71.7916C185.38 71.9684 185.479 72.1262 185.621 72.2393C185.763 72.3524 185.939 72.414 186.12 72.414C186.301 72.414 186.477 72.3524 186.619 72.2393C186.76 72.1262 186.859 71.9684 186.9 71.7916Z" fill="#003090"/>
<path d="M201.56 124.808C201.637 124.651 201.671 124.476 201.661 124.302C201.65 124.127 201.595 123.959 201.5 123.812C201.405 123.665 201.273 123.546 201.118 123.465C200.963 123.385 200.789 123.346 200.615 123.352C198.848 123.352 196.457 126.784 187.723 125.535C186.778 125.431 186.164 126.784 187.099 127.2C192.62 129.276 200.717 126.781 201.56 124.808Z" fill="#003090"/>
<path d="M212.164 106.514C215.912 108.691 219.843 110.534 223.913 112.024C224.091 112.051 224.274 112.022 224.435 111.938C224.596 111.855 224.726 111.723 224.807 111.562C224.888 111.4 224.916 111.216 224.886 111.038C224.856 110.859 224.77 110.695 224.64 110.568C220.908 108.391 216.973 106.581 212.892 105.163C212.713 105.067 212.503 105.045 212.308 105.104C212.113 105.162 211.949 105.296 211.852 105.475C211.756 105.654 211.735 105.864 211.793 106.059C211.852 106.254 211.985 106.418 212.164 106.514Z" fill="#003090"/>
<path d="M192.31 129.488C192.096 129.442 191.874 129.478 191.686 129.588C191.498 129.698 191.357 129.875 191.292 130.083C191.227 130.291 191.242 130.515 191.334 130.713C191.426 130.911 191.589 131.067 191.79 131.151C194.389 132.606 198.972 130.943 197.195 129.384C196.371 128.656 195.112 130.032 192.31 129.488Z" fill="#003090"/>
<path d="M209.879 82.0827C211.43 81.4401 219.756 71.6877 221.107 69.8166C221.627 69.0889 220.484 68.3613 219.86 68.881C216.417 72.2034 213.154 75.7081 210.087 79.38C208.112 81.5629 209.147 82.3851 209.879 82.0827Z" fill="#003090"/>
<path d="M183.677 114.934C183.761 115.12 183.908 115.27 184.091 115.359C184.275 115.448 184.484 115.469 184.682 115.42C184.88 115.37 185.054 115.253 185.174 115.088C185.295 114.924 185.353 114.722 185.34 114.518C184.612 109.944 180.454 107.336 178.158 103.603C173.376 95.8053 179.717 86.8656 187.825 84.7866C194.48 83.0194 201.964 85.4103 203.732 93.4144C205.291 100.277 202.172 105.267 199.989 111.504C199.574 112.855 200.934 113.271 201.549 112.023C204.355 106.731 207.058 100.381 206.226 94.35C204.771 84.6826 196.663 80.4207 187.617 82.6036C179.717 84.5787 172.961 91.4394 174.312 100.069C175.465 107.138 181.66 109.09 183.677 114.934Z" fill="#003090"/>
<path d="M185.975 122.834C188.367 123.685 190.922 123.977 193.444 123.689C195.967 123.401 198.39 122.539 200.528 121.171C201.464 120.443 201.048 118.884 199.697 119.404C194.187 121.379 192.004 121.899 186.597 121.171C185.654 121.067 185.03 122.428 185.975 122.834Z" fill="#003090"/>
<path d="M157.379 115.246C156.655 116.191 157.379 117.429 159.458 115.973C162.346 114.176 165.092 112.161 167.672 109.944C167.81 109.824 167.9 109.657 167.924 109.475C167.948 109.293 167.906 109.108 167.804 108.956C167.702 108.803 167.548 108.693 167.371 108.645C167.194 108.597 167.005 108.616 166.841 108.697C163.5 110.596 160.334 112.788 157.379 115.246Z" fill="#003090"/>
<path d="M165.183 87.4891C165.355 87.5339 165.537 87.5169 165.697 87.441C165.858 87.3652 165.986 87.2354 166.061 87.0744C166.135 86.9133 166.15 86.7312 166.104 86.56C166.057 86.3887 165.952 86.2393 165.807 86.1377C161.649 83.4416 157.306 81.0416 152.811 78.9557C152.624 78.8971 152.423 78.907 152.243 78.9835C152.062 79.0601 151.915 79.1983 151.828 79.3735C151.74 79.5486 151.718 79.7492 151.765 79.9394C151.812 80.1295 151.925 80.2967 152.084 80.411C156.277 83.0771 160.655 85.4424 165.183 87.4891Z" fill="#003090"/>
<path d="M185.975 118.881C189.427 119.963 198.139 118.257 200.011 116.802C201.258 115.762 200.115 114.307 198.555 114.93C194.676 116.403 190.538 117.075 186.391 116.905C184.511 116.802 184.208 118.332 185.975 118.881Z" fill="#003090"/>
<path d="M194.389 112.853C194.256 107.375 194.744 101.9 195.845 96.5314C195.871 96.3582 195.831 96.1816 195.732 96.0368C195.634 95.8919 195.484 95.7896 195.313 95.7502C195.143 95.7109 194.963 95.7373 194.811 95.8243C194.659 95.9113 194.546 96.0525 194.493 96.2196C193.126 101.651 192.634 107.265 193.038 112.852C193.033 112.943 193.047 113.035 193.079 113.121C193.11 113.208 193.159 113.286 193.222 113.353C193.285 113.42 193.361 113.473 193.446 113.51C193.53 113.546 193.621 113.565 193.713 113.565C193.805 113.565 193.896 113.546 193.98 113.51C194.064 113.474 194.141 113.421 194.204 113.355C194.267 113.288 194.316 113.209 194.348 113.123C194.38 113.037 194.394 112.945 194.389 112.853Z" fill="#003090"/>
<path d="M191.894 95.5985C189.147 96.3322 186.317 96.7133 183.473 96.7325C183.316 96.7337 183.162 96.777 183.028 96.858C182.893 96.9389 182.783 97.0545 182.709 97.1927C182.634 97.3309 182.598 97.4865 182.605 97.6433C182.611 97.8001 182.66 97.9522 182.745 98.0839C184.876 102.902 186.75 107.829 188.36 112.845C188.672 113.79 189.608 113.572 189.4 112.637C188.428 107.729 186.893 102.951 184.824 98.3957C187.41 98.2736 189.966 97.7836 192.414 96.9404C192.572 96.8582 192.695 96.7206 192.758 96.5538C192.821 96.387 192.82 96.2029 192.755 96.0366C192.691 95.8704 192.568 95.7338 192.409 95.6529C192.25 95.5721 192.067 95.5527 191.894 95.5985Z" fill="#003090"/>
<path d="M116.522 168.055C116.779 173.028 115.997 178 114.225 182.653C112.453 187.307 109.73 191.54 106.231 195.082C104.256 197.057 105.919 197.473 107.895 196.746C117.25 193.107 125.661 182.4 128.061 172.835C128.477 171.172 127.021 171.276 126.813 172.315C125.537 177.018 123.311 181.409 120.271 185.218C117.232 189.026 113.444 192.171 109.142 194.459C115.506 187.297 118.828 177.937 118.403 168.365C118.299 166.806 118.091 166.702 116.22 166.39C100.21 163.896 94.2846 140.921 119.546 131.669C142.105 123.455 159.467 138.738 155.515 154.124C152.604 165.663 140.338 167.43 130.253 167.43C128.902 167.43 129.006 169.093 130.357 169.093C140.752 169.301 152.604 167.846 156.451 157.451C164.767 135.307 141.482 123.242 121.833 128.759C90.0132 137.908 98.0174 167.328 116.522 168.055Z" fill="#003090"/>
</svg>
