<svg width="306" height="280" viewBox="0 0 306 280" fill="none" xmlns="http://www.w3.org/2000/svg">
<path d="M292.789 25.4619H60.5602C54.057 25.4619 48.7852 30.7338 48.7852 37.2369V217.971C48.7852 224.474 54.057 229.746 60.5602 229.746H292.789C299.292 229.746 304.564 224.474 304.564 217.971V37.2369C304.564 30.7338 299.292 25.4619 292.789 25.4619Z" fill="white"/>
<path d="M292.791 230.122H60.562C53.8629 230.122 48.4116 224.67 48.4116 217.971V37.2354C48.4116 30.5362 53.8629 25.085 60.562 25.085H292.793C299.492 25.085 304.943 30.5362 304.943 37.2354V217.971C304.943 224.67 299.492 230.122 292.793 230.122H292.791ZM60.562 25.8374C54.2772 25.8374 49.164 30.9505 49.164 37.2354V217.971C49.164 224.256 54.2772 229.369 60.562 229.369H292.793C299.077 229.369 304.192 224.256 304.192 217.971V37.2354C304.192 30.9505 299.079 25.8374 292.793 25.8374H60.562Z" fill="black"/>
<path d="M304.625 51.0063H48.8466C48.6386 51.0063 48.4712 50.8372 48.4712 50.6309V37.2648C48.4712 30.5488 53.9343 25.084 60.6503 25.084H292.822C299.538 25.084 305.001 30.5471 305.001 37.2648V50.6309C305.001 50.8389 304.833 51.0063 304.625 51.0063ZM49.2219 50.2539H304.248V37.2631C304.248 30.9613 299.122 25.8347 292.82 25.8347H60.6503C54.3486 25.8347 49.2219 30.9613 49.2219 37.2631V50.2539Z" fill="black"/>
<path d="M275.51 211.179H77.8466C72.2618 211.179 67.7168 206.634 67.7168 201.049V78.2705C67.7168 72.6856 72.2618 68.1406 77.8466 68.1406H275.51C281.096 68.1406 285.639 72.6856 285.639 78.2705V201.049C285.639 206.634 281.094 211.179 275.51 211.179ZM77.8466 68.8914C72.676 68.8914 68.4692 73.0982 68.4692 78.2688V201.048C68.4692 206.218 72.676 210.425 77.8466 210.425H275.51C280.68 210.425 284.889 206.218 284.889 201.048V78.2688C284.889 73.0982 280.682 68.8914 275.51 68.8914H77.8466Z" fill="black"/>
<path d="M266.457 41.5302C268.135 39.8524 268.135 37.132 266.457 35.4541C264.78 33.7763 262.059 33.7763 260.381 35.4541C258.703 37.132 258.703 39.8524 260.381 41.5302C262.059 43.2081 264.78 43.2081 266.457 41.5302Z" fill="black"/>
<path d="M281.635 39.471C282.18 37.1616 280.75 34.8476 278.441 34.3026C276.131 33.7575 273.817 35.1878 273.272 37.4972C272.727 39.8066 274.157 42.1206 276.467 42.6656C278.776 43.2107 281.09 41.7805 281.635 39.471Z" fill="black"/>
<path d="M295.685 39.471C296.231 37.1616 294.8 34.8476 292.491 34.3026C290.181 33.7575 287.867 35.1878 287.322 37.4972C286.777 39.8066 288.208 42.1206 290.517 42.6656C292.826 43.2107 295.14 41.7805 295.685 39.471Z" fill="black"/>
<path d="M147.58 7.37402H8.26812C3.90995 7.37402 0.376953 10.907 0.376953 15.2652V114.978C0.376953 119.336 3.90995 122.869 8.26812 122.869H147.58C151.938 122.869 155.471 119.336 155.471 114.978V15.2652C155.471 10.907 151.938 7.37402 147.58 7.37402Z" fill="white"/>
<path d="M147.578 123.245H8.26823C3.70971 123.245 0 119.537 0 114.977V15.2682C0 10.7097 3.70971 7 8.26823 7H147.578C152.137 7 155.847 10.7097 155.847 15.2682V114.979C155.847 119.537 152.137 123.247 147.578 123.247V123.245ZM8.26823 7.75243C4.12397 7.75243 0.752427 11.124 0.752427 15.2682V114.979C0.752427 119.123 4.12397 122.495 8.26823 122.495H147.578C151.723 122.495 155.094 119.123 155.094 114.979V15.2682C155.094 11.124 151.723 7.75243 147.578 7.75243H8.26823Z" fill="#003090"/>
<path d="M140.471 21.9522H114.055C112.963 21.9522 112.079 21.0679 112.079 19.9756C112.079 18.8833 112.963 17.999 114.055 17.999H140.471C141.564 17.999 142.448 18.8833 142.448 19.9756C142.448 21.0679 141.564 21.9522 140.471 21.9522Z" fill="#003090"/>
<path d="M146.144 30.419H108.313C107.221 30.419 106.336 29.5347 106.336 28.4424C106.336 27.3501 107.221 26.4658 108.313 26.4658H146.144C147.236 26.4658 148.121 27.3501 148.121 28.4424C148.121 29.5347 147.236 30.419 146.144 30.419Z" fill="#003090"/>
<path d="M146.239 46.3301H108.437C107.344 46.3301 106.46 45.4458 106.46 44.3535C106.46 43.2613 107.344 42.377 108.437 42.377H146.239C147.331 42.377 148.215 43.2613 148.215 44.3535C148.215 45.4458 147.331 46.3301 146.239 46.3301Z" fill="#003090"/>
<path d="M146.113 53.9717H109.134C108.042 53.9717 107.158 53.0874 107.158 51.9952C107.158 50.9029 108.042 50.0186 109.134 50.0186H146.113C147.205 50.0186 148.09 50.9029 148.09 51.9952C148.09 53.0874 147.205 53.9717 146.113 53.9717Z" fill="#003090"/>
<path d="M146.364 61.7413H109.385C108.293 61.7413 107.408 60.857 107.408 59.7647C107.408 58.6724 108.293 57.7881 109.385 57.7881H146.364C147.456 57.7881 148.34 58.6724 148.34 59.7647C148.34 60.857 147.456 61.7413 146.364 61.7413Z" fill="#003090"/>
<path d="M146.24 69.3829H108.44C107.348 69.3829 106.463 68.4986 106.463 67.4063C106.463 66.314 107.348 65.4297 108.44 65.4297H146.24C147.333 65.4297 148.217 66.314 148.217 67.4063C148.217 68.4986 147.333 69.3829 146.24 69.3829Z" fill="#003090"/>
<path d="M146.114 77.2784H108.313C107.221 77.2784 106.336 76.3941 106.336 75.3018C106.336 74.2095 107.221 73.3252 108.313 73.3252H146.114C147.206 73.3252 148.09 74.2095 148.09 75.3018C148.09 76.3941 147.206 77.2784 146.114 77.2784Z" fill="#003090"/>
<path d="M122.148 38.713H108.38C107.288 38.713 106.403 37.8286 106.403 36.7364C106.403 35.6441 107.288 34.7598 108.38 34.7598H122.148C123.241 34.7598 124.125 35.6441 124.125 36.7364C124.125 37.8286 123.241 38.713 122.148 38.713Z" fill="#003090"/>
<path d="M146.334 38.713H131.806C130.714 38.713 129.83 37.8286 129.83 36.7364C129.83 35.6441 130.714 34.7598 131.806 34.7598H146.334C147.426 34.7598 148.31 35.6441 148.31 36.7364C148.31 37.8286 147.426 38.713 146.334 38.713Z" fill="#003090"/>
<path d="M47.9406 83.5723H10.6812C9.5889 83.5723 8.70459 82.688 8.70459 81.5957C8.70459 80.5035 9.5889 79.6191 10.6812 79.6191H47.9406C49.0329 79.6191 49.9172 80.5035 49.9172 81.5957C49.9172 82.688 49.0329 83.5723 47.9406 83.5723Z" fill="#003090"/>
<path d="M83.3122 83.4454H54.7876C53.6953 83.4454 52.811 82.5611 52.811 81.4688C52.811 80.3765 53.6953 79.4922 54.7876 79.4922H83.3122C84.4044 79.4922 85.2887 80.3765 85.2887 81.4688C85.2887 82.5611 84.4044 83.4454 83.3122 83.4454Z" fill="#003090"/>
<path d="M36.8181 75.3272H10.5577C9.46537 75.3272 8.58105 74.4429 8.58105 73.3506C8.58105 72.2583 9.46537 71.374 10.5577 71.374H36.8181C37.9104 71.374 38.7947 72.2583 38.7947 73.3506C38.7947 74.4429 37.9104 75.3272 36.8181 75.3272Z" fill="#003090"/>
<path d="M83.4086 117.594H11.2366C9.50861 117.594 8.10352 116.189 8.10352 114.461V91.6566C8.10352 89.9302 9.50861 88.5234 11.2366 88.5234H83.4086C85.1366 88.5234 86.5417 89.9285 86.5417 91.6566V114.461C86.5417 116.187 85.1366 117.594 83.4086 117.594ZM11.2366 89.2775C9.92455 89.2775 8.85594 90.3462 8.85594 91.6583V114.463C8.85594 115.775 9.92455 116.843 11.2366 116.843H83.4086C84.7207 116.843 85.7893 115.775 85.7893 114.463V91.6583C85.7893 90.3462 84.7207 89.2775 83.4086 89.2775H11.2366Z" fill="#003090"/>
<path d="M146.808 117.594H95.1849C93.4569 117.594 92.0518 116.189 92.0518 114.461V91.6566C92.0518 89.9285 93.4569 88.5234 95.1849 88.5234H146.808C148.534 88.5234 149.939 89.9285 149.939 91.6566V114.461C149.939 116.189 148.534 117.594 146.808 117.594ZM95.1849 89.2775C93.8728 89.2775 92.8042 90.3462 92.8042 91.6583V114.463C92.8042 115.775 93.8728 116.843 95.1849 116.843H146.808C148.12 116.843 149.189 115.775 149.189 114.463V91.6583C149.189 90.3462 148.12 89.2775 146.808 89.2775H95.1849Z" fill="#003090"/>
<path d="M98.3189 17.8604H11.4924C9.83111 17.8604 8.48438 19.2071 8.48438 20.8684V58.586C8.48438 60.2473 9.83111 61.594 11.4924 61.594H98.3189C99.9801 61.594 101.327 60.2473 101.327 58.586V20.8684C101.327 19.2071 99.9801 17.8604 98.3189 17.8604Z" fill="#003090"/>
<path d="M276.359 210.724C275.998 208.844 275.655 207.449 275.346 206.126C273.051 196.345 270.589 188.369 268.792 182.992L263.916 165.227L203.766 176.163C203.766 176.163 201.818 189.297 197.844 210.724H276.357H276.359Z" fill="black"/>
<path d="M211.544 208.482C218.146 208.482 222.443 201.289 219.489 195.175C218.811 193.773 218.123 192.36 217.443 190.99C212.369 180.749 197.846 182.984 196.037 194.341C196.005 194.541 195.601 194.742 195.573 194.945C194.637 202.131 200.166 208.484 207.169 208.484H211.544V208.482Z" fill="black"/>
<path d="M294.187 127.949C294.187 102.698 289.284 91.0397 254.933 81.5963C246.206 79.197 233.347 78.1909 220.882 79.5927C186.173 80.0204 172.908 95.5086 160.758 95.1247C147.378 94.702 136.266 77.332 136.266 77.332C131.837 72.5249 127.142 74.9581 124.628 76.3868C121.618 78.0996 120.331 82.1052 119.789 84.9171C119.439 86.7331 119.746 88.6167 120.641 90.2179C125.076 98.1615 140.66 124.261 155.081 126.41C166.523 128.115 189.456 121.745 199.904 119.727C207.271 145.448 195.572 194.939 195.572 194.939C204.309 188.682 233.565 196.749 252.317 203.875C261.693 207.437 270.11 205.449 276.254 201.932C282.4 198.415 271.515 162.089 271.515 162.089C271.515 162.089 294.187 149.962 294.187 127.947V127.949Z" fill="white"/>
<path d="M262.319 206.148C259.199 206.148 255.803 205.6 252.186 204.227C235.458 197.869 204.759 188.825 195.795 195.245C195.668 195.337 195.497 195.338 195.367 195.252C195.237 195.164 195.174 195.005 195.21 194.853C195.326 194.361 206.702 145.589 199.64 120.162C197.418 120.6 194.701 121.212 191.581 121.915C179.956 124.536 164.035 128.124 155.03 126.781C140.453 124.61 124.774 98.3871 120.315 90.4012C119.374 88.7137 119.056 86.7422 119.423 84.8468C120.009 81.8083 121.357 77.818 124.444 76.0612C126.636 74.815 131.769 71.8932 136.546 77.0774C136.561 77.0943 136.574 77.1112 136.586 77.1298C136.696 77.3022 147.748 94.3392 160.774 94.75C165.342 94.8955 170.131 92.7261 176.196 89.9802C185.983 85.5502 199.384 79.4834 220.882 79.218C232.601 77.8974 245.703 78.6684 255.037 81.2351C272.07 85.9171 282.158 91.2787 287.744 98.6187C293.407 106.057 294.567 115.725 294.567 127.951C294.567 139.451 288.345 148.215 283.123 153.541C278.176 158.59 273.162 161.591 271.964 162.274C272.442 163.902 274.82 172.135 276.559 180.619C279.187 193.431 279.148 200.713 276.443 202.261C272.958 204.254 268.119 206.15 262.317 206.15L262.319 206.148ZM205.576 192.334C218.973 192.334 239.733 198.69 252.455 203.524C262.522 207.348 270.854 204.592 276.072 201.606C280.901 198.843 274.163 172.223 271.161 162.198C271.11 162.027 271.186 161.843 271.343 161.758C271.568 161.638 293.816 149.479 293.816 127.948C293.816 103.97 289.971 91.6169 254.839 81.9588C245.592 79.4175 232.599 78.6532 220.931 79.967C199.553 80.2325 186.233 86.262 176.507 90.6633C170.352 93.4481 165.501 95.6496 160.752 95.4991C147.47 95.0798 136.645 78.6059 135.973 77.5609C132.128 73.4099 128.178 74.8015 124.818 76.7121C121.979 78.3269 120.719 82.1042 120.161 84.9871C119.828 86.7084 120.118 88.5007 120.973 90.0326C125.39 97.9424 140.905 123.915 155.142 126.036C164.008 127.356 179.85 123.787 191.417 121.18C194.706 120.439 197.545 119.798 199.839 119.355C200.027 119.32 200.218 119.433 200.272 119.621C207.039 143.247 197.668 187.327 196.146 194.134C198.415 192.87 201.687 192.332 205.578 192.332L205.576 192.334Z" fill="black"/>
<path d="M129.05 93.6625C125.181 93.6625 122.672 89.3796 122.565 89.1953C122.462 89.0161 122.523 88.7861 122.704 88.683C122.883 88.5799 123.113 88.6407 123.216 88.8217C123.24 88.8622 125.665 92.9693 129.117 92.9118C131.777 92.8712 134.41 90.4601 136.942 85.7443C137.041 85.5617 137.269 85.4924 137.451 85.5905C137.634 85.6885 137.703 85.9168 137.605 86.0994C134.932 91.0756 132.08 93.6203 129.126 93.6642C129.1 93.6642 129.075 93.6642 129.05 93.6642V93.6625Z" fill="black"/>
<path d="M240.314 151.169C240.172 151.169 240.037 151.088 239.973 150.951C239.885 150.763 239.968 150.538 240.155 150.452C252.899 144.556 259.076 135.906 262.013 129.687C265.198 122.942 265.371 117.518 265.373 117.464C265.378 117.259 265.545 117.097 265.748 117.097C265.751 117.097 265.755 117.097 265.758 117.097C265.966 117.102 266.13 117.274 266.125 117.482C266.12 117.709 265.952 123.091 262.709 129.974C259.722 136.316 253.437 145.138 240.471 151.135C240.421 151.159 240.367 151.171 240.314 151.171V151.169Z" fill="black"/>
<path d="M245.949 168.88C245.743 168.88 245.575 168.714 245.574 168.508C245.57 168.3 245.738 168.129 245.946 168.127C261.573 167.941 271.88 162.133 271.981 162.074C272.161 161.971 272.391 162.034 272.494 162.213C272.597 162.392 272.534 162.622 272.355 162.725C272.252 162.784 261.774 168.689 245.954 168.878H245.949V168.88Z" fill="black"/>
<path d="M231.474 167.507C231.474 167.507 234.677 167.851 241.011 166.265C245.799 165.066 244.386 149.522 238.561 153.732C233.698 157.247 230.852 157.704 230.852 157.704L226.163 155.367C224.322 154.451 222.349 153.849 220.318 153.609C212.236 152.657 212.721 154.523 212.721 154.523C212.374 156.41 213.049 156.696 214.534 157.32L220.856 159.978C221.733 160.347 221.933 161.54 221.226 162.195C220.129 163.209 218.861 164.009 217.486 164.552C214.994 165.536 210.648 167.118 206.172 168.13C204.067 168.606 203.399 171.214 205.341 172.179L219.298 173.207C222.836 173.468 226.324 172.24 228.975 169.802L231.471 167.506L231.474 167.507Z" fill="white"/>
<path d="M220.22 173.616C219.905 173.616 219.589 173.604 219.274 173.581L205.317 172.553C205.268 172.549 205.22 172.536 205.176 172.514C204.214 172.035 203.712 171.146 203.832 170.136C203.969 168.99 204.879 168.036 206.091 167.761C210.644 166.731 215.1 165.088 217.35 164.2C218.684 163.674 219.902 162.906 220.972 161.917C221.214 161.692 221.324 161.363 221.265 161.031C221.207 160.705 221.006 160.446 220.712 160.323L214.39 157.665C212.934 157.053 211.968 156.647 212.342 154.51C212.334 154.368 212.359 154.116 212.589 153.85C213.394 152.927 216.008 152.719 220.362 153.233C222.418 153.475 224.426 154.08 226.33 155.029L230.904 157.308C231.469 157.179 234.154 156.452 238.34 153.426C239.891 152.305 241.049 152.579 241.749 153.005C243.861 154.295 244.625 158.657 244.121 161.959C243.727 164.545 242.627 166.246 241.103 166.628C235.518 168.026 232.363 167.943 231.609 167.894L229.234 170.079C226.758 172.355 223.518 173.616 220.22 173.616ZM205.448 171.809L219.329 172.832C222.741 173.084 226.165 171.878 228.725 169.524L231.22 167.228C231.3 167.155 231.408 167.12 231.514 167.132C231.547 167.135 234.742 167.445 240.921 165.897C242.136 165.593 243.032 164.115 243.379 161.845C243.849 158.767 243.149 154.738 241.359 153.646C240.625 153.198 239.759 153.328 238.783 154.033C233.904 157.56 231.034 158.052 230.914 158.072C230.836 158.084 230.757 158.072 230.688 158.037L225.999 155.7C224.173 154.79 222.247 154.21 220.277 153.979C214.554 153.304 213.382 154.087 213.159 154.344C213.155 154.347 213.089 154.425 213.089 154.425C213.103 154.478 213.105 154.533 213.094 154.587C212.802 156.178 213.201 156.346 214.684 156.97L221.006 159.628C221.532 159.849 221.907 160.324 222.009 160.899C222.112 161.484 221.917 162.069 221.486 162.467C220.346 163.52 219.05 164.337 217.629 164.898C214.856 165.992 210.631 167.505 206.26 168.493C205.215 168.73 204.664 169.533 204.581 170.224C204.5 170.892 204.816 171.465 205.45 171.807L205.448 171.809Z" fill="black"/>
<path d="M97.549 53.4218C97.8551 52.4969 98.7715 51.9559 99.6897 52.1571C102.253 52.7218 115.448 55.6284 117.91 56.1881C120.372 56.7477 120.47 59.4886 121.872 61.9978C123.091 64.179 127.286 72.175 131.858 77.7463C133.236 79.4253 133.427 81.8314 132.357 83.7386C131.741 84.8326 130.96 85.908 130.032 86.5421C127.646 88.172 125.854 90.1148 121.064 78.6543C120.771 77.9543 120.281 77.354 119.647 76.9381C118.756 76.3514 117.352 75.2844 115.983 73.6595C115.983 73.6595 107.958 83.458 105.907 63.5635C105.724 61.7949 106.512 60.0719 108.002 59.2028C108.12 59.1335 108.245 59.0642 108.376 58.9948L98.7614 55.9124C97.7553 55.5895 97.2075 54.4634 97.5507 53.4269L97.549 53.4218Z" fill="white"/>
<path d="M127.458 88.1587C127.251 88.1587 127.04 88.13 126.822 88.0674C125.043 87.55 123.217 84.7771 120.718 78.7982C120.451 78.1608 120.01 77.6248 119.441 77.2511C118.56 76.6712 117.27 75.6888 115.979 74.2279C115.211 75.0378 113.07 76.9873 110.801 76.3059C108.092 75.4926 106.319 71.2165 105.534 63.5992C105.348 61.8002 106.101 60.0772 107.472 59.0965L98.6491 56.2677C98.0776 56.0851 97.6109 55.6827 97.332 55.1349C97.0462 54.5735 96.9955 53.9056 97.195 53.3054C97.5619 52.1996 98.6711 51.5486 99.7735 51.7921C104.075 52.739 115.733 55.309 117.996 55.8231C119.906 56.2576 120.539 57.8757 121.208 59.5886C121.494 60.3207 121.79 61.0782 122.203 61.8154C122.336 62.0538 122.505 62.3632 122.706 62.7302C124.321 65.6756 128.1 72.5726 132.151 77.5081C133.621 79.2987 133.836 81.8773 132.686 83.9215C131.922 85.2809 131.101 86.2667 130.246 86.85L129.931 87.0681C129.159 87.6058 128.366 88.1587 127.459 88.1587H127.458ZM115.984 73.2827C116.094 73.2827 116.2 73.3317 116.271 73.4163C117.597 74.9888 118.951 76.0269 119.856 76.6221C120.549 77.0786 121.088 77.7313 121.413 78.5074C123.751 84.1007 125.537 86.9092 127.033 87.3454C127.87 87.5889 128.626 87.0614 129.502 86.451L129.821 86.2295C130.581 85.7104 131.323 84.8109 132.03 83.5529C133.029 81.7758 132.843 79.5371 131.568 77.9832C127.473 72.9936 123.67 66.0527 122.045 63.0903C121.844 62.7251 121.677 62.4173 121.543 62.1806C121.107 61.3995 120.801 60.6166 120.505 59.8608C119.859 58.2071 119.348 56.9001 117.827 56.5552C115.568 56.0412 103.911 53.4728 99.6095 52.5259C98.8825 52.3653 98.1503 52.8032 97.9068 53.5421C97.7682 53.9597 97.802 54.4044 97.9998 54.795C98.1858 55.1619 98.4969 55.4308 98.8757 55.5525L108.49 58.6349C108.634 58.6806 108.737 58.8091 108.75 58.9596C108.764 59.1101 108.684 59.2538 108.551 59.3248C108.426 59.3907 108.306 59.4584 108.191 59.5243C106.86 60.3021 106.109 61.8712 106.28 63.5232C107.215 72.5996 109.371 75.0919 111.016 75.5856C113.319 76.2772 115.669 73.4484 115.691 73.4197C115.762 73.3334 115.867 73.2827 115.979 73.2827H115.982H115.984Z" fill="black"/>
<path d="M117.82 69.544C117.755 69.544 117.69 69.5271 117.63 69.4933C116.993 69.1213 115.821 68.2894 115.346 67.9495C112.749 66.0879 111.3 64.2364 110.666 63.298C110.223 62.642 110 61.9065 110.018 61.1726C110.055 59.7878 110.933 59.4801 111.356 59.333C112.901 58.7936 115.378 60.2816 115.655 60.4523C115.831 60.5606 115.887 60.7922 115.777 60.9697C115.667 61.1456 115.436 61.2014 115.26 61.0915C114.59 60.6789 112.627 59.6847 111.602 60.0415C111.203 60.1801 110.791 60.3238 110.769 61.1912C110.754 61.7695 110.933 62.3512 111.288 62.877C111.893 63.7732 113.281 65.5452 115.782 67.3375C116.146 67.5978 117.382 68.4771 118.007 68.844C118.187 68.9488 118.248 69.1788 118.143 69.358C118.073 69.4781 117.947 69.544 117.818 69.544H117.82Z" fill="black"/>
<path d="M116.088 74.1486C115.988 74.1486 115.888 74.1097 115.814 74.0302C113.688 71.7695 113.814 69.3652 113.82 69.2654C113.834 69.0591 114.011 68.9019 114.219 68.9137C114.426 68.9272 114.583 69.1048 114.571 69.3111C114.569 69.3466 114.476 71.5092 116.363 73.5145C116.505 73.665 116.499 73.9034 116.346 74.0454C116.274 74.1131 116.181 74.1469 116.089 74.1469L116.088 74.1486Z" fill="black"/>
<path d="M242.451 81.0061L241.58 57.4746L225.073 66.1436L225.254 81.0162C225.374 84.332 228.098 86.1817 228.098 86.1817C231.471 88.7467 236.197 88.2818 239.636 85.8097L240.432 85.2382C241.765 84.2812 242.527 82.6834 242.451 81.0061Z" fill="white"/>
<path d="M233.373 88.2866C231.381 88.2866 229.459 87.688 227.871 86.4808C227.77 86.4131 225.007 84.4957 224.88 81.0295L224.699 66.1484C224.698 66.0064 224.775 65.8762 224.9 65.8102L241.408 57.1413C241.523 57.0804 241.66 57.0838 241.772 57.148C241.883 57.2123 241.954 57.3306 241.959 57.4591L242.83 80.9889C242.911 82.8015 242.1 84.5042 240.656 85.5424L239.859 86.1139C237.851 87.5578 235.57 88.2849 233.375 88.2849L233.373 88.2866ZM225.453 66.3699L225.633 81.0126C225.744 84.0798 228.286 85.8535 228.311 85.8721C231.397 88.2173 235.855 88.0668 239.418 85.5052L240.214 84.9337C241.45 84.0443 242.147 82.5834 242.076 81.0244V81.021L241.227 58.0865L225.452 66.3716L225.453 66.3699Z" fill="black"/>
<path d="M217.581 30.5224C221.987 30.2603 216.448 34.9253 232.743 30.0287C239.232 28.0791 235.95 35.8705 237.634 35.37C243.857 33.5186 243.642 33.5744 246.679 34.3961C248.689 34.9389 250 38.7534 249.621 41.6025C249.122 45.3629 246.104 46.3351 243.434 54.2838C241.557 59.8653 242.019 63.2554 239.844 64.0704C237.646 64.8938 236.021 61.8588 233.554 62.5723C230.362 63.4955 230.993 69.1818 227.885 71.5405C225.925 73.0285 221.365 73.7183 214.057 70.0627C212.874 69.4709 212.265 68.0862 212.615 66.7741C213.063 65.0934 213.641 62.973 214.358 60.9948C217.774 51.5666 221.035 49.4345 219.853 46.9929C218.043 43.251 211.161 45.3984 210.021 42.3245C208.838 39.1322 211.55 30.8842 217.583 30.5241L217.581 30.5224Z" fill="black"/>
<path d="M232.961 46.7505L231.699 49.1718C231.106 50.3132 230.59 51.4917 230.154 52.7074C229.335 54.9849 227.785 58.8367 226.936 61.0145C224.21 68.0129 215.844 60.3246 215.844 60.3246L215.263 58.3988L214.138 57.927C213.92 57.8357 213.719 57.6987 213.575 57.506C213.215 57.0275 213.213 56.3934 213.519 55.9268C215.2 53.3719 218.705 47.6365 219.965 42.4879C219.965 42.4879 227.144 40.579 232.961 46.7489V46.7505Z" fill="white"/>
<path d="M223.152 64.3312C219.692 64.3312 215.771 60.7686 215.59 60.6012C215.541 60.5556 215.504 60.4981 215.486 60.4339L214.955 58.6771L213.993 58.2747C213.695 58.1495 213.448 57.9635 213.274 57.7336C212.829 57.1435 212.801 56.3353 213.205 55.7215C214.706 53.4405 218.333 47.5733 219.599 42.401C219.632 42.2674 219.735 42.1626 219.868 42.1271C219.943 42.1068 227.333 40.235 233.234 46.4945C233.344 46.6112 233.368 46.7837 233.294 46.9257L232.032 49.347C231.449 50.468 230.935 51.6432 230.507 52.8352C229.914 54.4905 228.918 57.0116 228.118 59.0372C227.808 59.8235 227.521 60.5505 227.288 61.1508C226.621 62.8602 225.57 63.8933 224.161 64.2213C223.833 64.2974 223.495 64.3329 223.154 64.3329L223.152 64.3312ZM216.174 60.1143C216.782 60.6503 220.949 64.1943 223.991 63.4875C225.142 63.2204 226.014 62.3411 226.586 60.8769C226.819 60.2766 227.107 59.5479 227.418 58.7599C228.216 56.7394 229.208 54.2234 229.799 52.5799C230.238 51.3557 230.766 50.1501 231.366 48.9987L232.502 46.8158C227.491 41.674 221.468 42.565 220.272 42.8051C218.982 47.8405 215.695 53.3019 213.832 56.134C213.604 56.4824 213.619 56.944 213.874 57.2804C213.967 57.4039 214.109 57.507 214.283 57.5814L215.408 58.0531C215.511 58.0971 215.59 58.1833 215.623 58.2916L216.175 60.1177L216.174 60.1143Z" fill="black"/>
<path d="M231.181 55.2061C231.181 55.2061 234.204 49.3795 236.476 51.3645C238.749 53.3479 235.262 59.6767 231.181 55.2061Z" fill="white"/>
<path d="M219.981 56.2015C219.342 56.2015 218.806 55.9952 218.381 55.586C217.595 54.8269 217.257 53.3812 217.374 51.2862C217.463 49.6765 217.915 48.7145 218.752 48.3442C219.369 48.0703 220.023 48.0516 220.593 48.2901C221.065 48.4879 221.425 48.8413 221.582 49.2589C222.586 51.9271 222.167 54.1184 221.44 55.2783C221.097 55.8278 220.681 56.1508 220.272 56.188C220.172 56.1964 220.074 56.2015 219.979 56.2015H219.981ZM219.758 48.8751C219.529 48.8751 219.291 48.9275 219.058 49.0306C218.503 49.2758 218.199 50.0282 218.124 51.3285C218.021 53.1681 218.29 54.4549 218.904 55.0467C219.23 55.3612 219.658 55.4914 220.204 55.4406C220.331 55.4288 220.573 55.2479 220.804 54.881C221.408 53.9189 221.788 51.9389 220.88 49.5244C220.797 49.3029 220.581 49.1017 220.304 48.985C220.133 48.914 219.949 48.8785 219.758 48.8785V48.8751Z" fill="black"/>
<path d="M233.907 50.6754C233.891 50.6754 233.875 50.6754 233.858 50.672L220.081 48.8729C219.875 48.8459 219.73 48.6582 219.759 48.4519C219.786 48.2456 219.972 48.1002 220.18 48.1273L233.957 49.9263C234.163 49.9534 234.308 50.1411 234.279 50.3473C234.254 50.5367 234.093 50.6754 233.907 50.6754Z" fill="black"/>
<path d="M213.964 54.7283C213.906 54.7283 213.849 54.7164 213.796 54.691C213.4 54.5017 213.118 53.7645 212.985 53.3418C212.565 52.0094 212.423 50.0429 213.284 48.5178C213.573 48.0055 213.986 47.6943 214.511 47.5963C215.815 47.3494 217.342 48.5753 217.406 48.6277C217.567 48.7579 217.59 48.9946 217.46 49.1569C217.33 49.3176 217.093 49.3429 216.931 49.211C216.567 48.9168 215.443 48.1847 214.65 48.3352C214.349 48.3927 214.116 48.5736 213.938 48.8881C212.785 50.9323 213.776 53.7509 214.136 54.0232C214.324 54.1128 214.395 54.3326 214.305 54.5203C214.241 54.6538 214.104 54.7299 213.964 54.7299V54.7283Z" fill="black"/>
<path d="M127.535 203.503C133.294 203.503 137.962 198.835 137.962 193.076C137.962 187.317 133.294 182.648 127.535 182.648C121.776 182.648 117.107 187.317 117.107 193.076C117.107 198.835 121.776 203.503 127.535 203.503Z" fill="white"/>
<path d="M161.636 203.504C167.395 203.504 172.063 198.836 172.063 193.077C172.063 187.318 167.395 182.649 161.636 182.649C155.877 182.649 151.208 187.318 151.208 193.077C151.208 198.836 155.877 203.504 161.636 203.504Z" fill="white"/>
<path d="M161.636 203.881C155.679 203.881 150.832 199.035 150.832 193.077C150.832 187.118 155.678 182.272 161.636 182.272C167.595 182.272 172.441 187.118 172.441 193.077C172.441 199.035 167.593 203.881 161.636 203.881ZM161.636 183.025C156.093 183.025 151.584 187.534 151.584 193.077C151.584 198.62 156.093 203.129 161.636 203.129C167.179 203.129 171.688 198.62 171.688 193.077C171.688 187.534 167.179 183.025 161.636 183.025Z" fill="black"/>
<path d="M158.169 197.111V189.039C158.169 188.626 158.602 188.359 158.971 188.54L167.043 192.525C167.454 192.728 167.457 193.313 167.048 193.52L158.976 197.606C158.606 197.794 158.169 197.525 158.169 197.111Z" fill="black"/>
<path d="M195.726 203.504C201.485 203.504 206.153 198.836 206.153 193.077C206.153 187.318 201.485 182.649 195.726 182.649C189.967 182.649 185.298 187.318 185.298 193.077C185.298 198.836 189.967 203.504 195.726 203.504Z" fill="white"/>
<path d="M195.726 203.881C189.769 203.881 184.921 199.035 184.921 193.077C184.921 187.118 189.769 182.272 195.726 182.272C201.683 182.272 206.53 187.118 206.53 193.077C206.53 199.035 201.684 203.881 195.726 203.881ZM195.726 183.025C190.183 183.025 185.674 187.534 185.674 193.077C185.674 198.62 190.183 203.129 195.726 203.129C201.268 203.129 205.778 198.62 205.778 193.077C205.778 187.534 201.268 183.025 195.726 183.025Z" fill="black"/>
<path d="M199.147 196.856C199.05 196.856 198.954 196.819 198.881 196.747L191.923 189.789C191.776 189.642 191.776 189.403 191.923 189.258C192.07 189.111 192.309 189.111 192.454 189.258L199.412 196.216C199.559 196.363 199.559 196.601 199.412 196.747C199.339 196.819 199.243 196.856 199.147 196.856Z" fill="black"/>
<path d="M192.192 196.856C192.096 196.856 191.999 196.819 191.927 196.747C191.78 196.599 191.78 196.361 191.927 196.216L198.885 189.258C199.032 189.111 199.27 189.111 199.415 189.258C199.563 189.405 199.563 189.643 199.415 189.789L192.458 196.747C192.385 196.819 192.289 196.856 192.192 196.856Z" fill="black"/>
<path d="M145.857 151.701C145.733 151.701 145.612 151.64 145.541 151.528C145.429 151.354 145.48 151.121 145.654 151.009L164.11 139.146C164.285 139.035 164.517 139.085 164.629 139.259C164.74 139.434 164.689 139.667 164.515 139.779L146.06 151.641C145.997 151.682 145.926 151.701 145.857 151.701Z" fill="black"/>
<path d="M121.342 167.463C121.218 167.463 121.097 167.402 121.026 167.29C120.914 167.116 120.965 166.883 121.139 166.771L137.848 156.031C138.022 155.919 138.255 155.97 138.367 156.144C138.478 156.318 138.428 156.552 138.254 156.663L121.545 167.404C121.482 167.444 121.411 167.463 121.342 167.463Z" fill="black"/>
<path d="M137.32 170.161C137.196 170.161 137.075 170.1 137.004 169.989C136.892 169.815 136.943 169.581 137.117 169.47L180.09 141.846C180.265 141.735 180.497 141.785 180.609 141.96C180.72 142.134 180.67 142.367 180.495 142.479L137.521 170.102C137.458 170.143 137.387 170.161 137.318 170.161H137.32Z" fill="black"/>
<path d="M122.265 143.902C122.181 143.902 122.095 143.873 122.024 143.814C121.865 143.68 121.844 143.444 121.978 143.285L123.855 141.053C123.988 140.894 124.225 140.874 124.384 141.007C124.543 141.141 124.563 141.377 124.43 141.536L122.553 143.768C122.478 143.856 122.372 143.902 122.265 143.902Z" fill="black"/>
<path d="M117.895 149.101C117.81 149.101 117.724 149.072 117.653 149.013C117.494 148.88 117.474 148.643 117.607 148.484L119.484 146.252C119.618 146.093 119.854 146.073 120.013 146.206C120.172 146.34 120.193 146.577 120.059 146.736L118.182 148.968C118.108 149.055 118.001 149.101 117.895 149.101Z" fill="black"/>
<path d="M119.534 144.136C119.45 144.136 119.364 144.107 119.293 144.048L117.061 142.171C116.902 142.037 116.881 141.801 117.015 141.642C117.149 141.483 117.385 141.462 117.544 141.596L119.776 143.473C119.935 143.606 119.955 143.843 119.822 144.002C119.747 144.09 119.641 144.136 119.534 144.136Z" fill="black"/>
<path d="M124.737 148.51C124.652 148.51 124.566 148.481 124.495 148.422L122.263 146.545C122.104 146.411 122.084 146.175 122.218 146.016C122.351 145.857 122.588 145.837 122.747 145.97L124.979 147.847C125.138 147.981 125.158 148.217 125.024 148.376C124.95 148.464 124.844 148.51 124.737 148.51Z" fill="black"/>
<path d="M111.961 134.887C111.687 134.887 111.413 134.849 111.143 134.769C110.378 134.546 109.746 134.032 109.364 133.32C108.583 131.871 109.105 130.047 110.525 129.254C111.21 128.871 112.002 128.782 112.754 129.002C113.518 129.225 114.151 129.739 114.533 130.451C115.314 131.9 114.791 133.724 113.371 134.517C112.931 134.762 112.45 134.886 111.961 134.886V134.887ZM110.892 129.911C109.829 130.505 109.44 131.874 110.027 132.965C110.312 133.498 110.784 133.881 111.354 134.047C111.912 134.209 112.499 134.144 113.006 133.861C114.069 133.268 114.458 131.898 113.872 130.807C113.586 130.277 113.114 129.891 112.544 129.725C111.988 129.563 111.4 129.629 110.892 129.911Z" fill="black"/>
<path d="M144.424 139.414C145.697 139.303 146.641 138.193 146.532 136.935C146.423 135.676 145.302 134.745 144.028 134.856C142.755 134.966 141.811 136.076 141.92 137.335C142.029 138.594 143.15 139.524 144.424 139.414Z" fill="black"/>
<path d="M259.778 2.39349C259.682 2.39349 259.585 2.35629 259.513 2.28358L257.873 0.645156C257.725 0.498052 257.725 0.259646 257.873 0.114234C258.02 -0.0328696 258.258 -0.0328696 258.403 0.114234L260.044 1.75266C260.191 1.89976 260.191 2.13817 260.044 2.28358C259.971 2.35629 259.874 2.39349 259.778 2.39349Z" fill="black"/>
<path d="M265.52 8.12884C265.424 8.12884 265.328 8.09165 265.255 8.01894L263.615 6.38051C263.468 6.23341 263.468 5.995 263.615 5.84959C263.762 5.70248 264 5.70248 264.146 5.84959L265.786 7.48801C265.933 7.63512 265.933 7.87353 265.786 8.01894C265.713 8.09165 265.617 8.12884 265.52 8.12884Z" fill="black"/>
<path d="M258.138 8.12884C258.042 8.12884 257.945 8.09165 257.873 8.01894C257.725 7.87184 257.725 7.63343 257.873 7.48801L259.513 5.84959C259.66 5.70248 259.898 5.70248 260.044 5.84959C260.191 5.99669 260.191 6.2351 260.044 6.38051L258.403 8.01894C258.331 8.09165 258.234 8.12884 258.138 8.12884Z" fill="black"/>
<path d="M263.88 2.39349C263.784 2.39349 263.687 2.35629 263.615 2.28358C263.468 2.13648 263.468 1.89807 263.615 1.75266L265.255 0.114234C265.402 -0.0328696 265.64 -0.0328696 265.786 0.114234C265.933 0.261337 265.933 0.499743 265.786 0.645156L264.146 2.28358C264.073 2.35629 263.977 2.39349 263.88 2.39349Z" fill="black"/>
<path d="M262.442 278.435C262.328 278.435 262.215 278.384 262.142 278.286C262.017 278.12 262.049 277.885 262.213 277.759C277.649 266.017 290.543 251.598 300.541 234.906C300.648 234.728 300.879 234.669 301.057 234.776C301.235 234.882 301.294 235.114 301.187 235.291C291.14 252.068 278.182 266.557 262.67 278.357C262.602 278.41 262.523 278.433 262.443 278.433L262.442 278.435Z" fill="black"/>
<path d="M288.661 266.783C288.569 266.783 288.476 266.749 288.404 266.681C288.251 266.539 288.243 266.303 288.385 266.15C294.631 259.456 300.304 252.15 305.248 244.433C305.359 244.259 305.591 244.208 305.767 244.32C305.943 244.432 305.993 244.665 305.88 244.839C300.912 252.593 295.209 259.937 288.934 266.663C288.86 266.742 288.76 266.783 288.659 266.783H288.661Z" fill="black"/>
<path d="M165.835 255.706C167.673 251.884 167.847 248.034 165.835 244.144L167.279 242.394L215.001 243.707L213.64 256.389L167.183 256.833L165.835 255.706Z" fill="white"/>
<path d="M167.183 257.209C167.095 257.209 167.008 257.179 166.941 257.121L165.593 255.993C165.461 255.883 165.421 255.697 165.495 255.542C167.379 251.622 167.38 247.952 165.5 244.316C165.431 244.183 165.448 244.02 165.544 243.904L166.988 242.154C167.063 242.064 167.176 242.013 167.289 242.017L215.012 243.329C215.116 243.332 215.214 243.378 215.284 243.457C215.353 243.537 215.385 243.64 215.375 243.745L214.014 256.426C213.994 256.616 213.835 256.761 213.644 256.763L167.186 257.207H167.183V257.209ZM166.298 255.603L167.318 256.455L213.302 256.014L214.585 244.069L167.455 242.773L166.283 244.191C168.097 247.848 168.104 251.685 166.3 255.601L166.298 255.603Z" fill="#003090"/>
<path d="M246.096 241.001H164.555C163.698 241.001 163.003 241.702 163.003 242.568C163.003 243.434 163.698 244.136 164.555 244.136H206.481C208.95 244.136 210.95 246.158 210.95 248.652V251.191C210.95 253.685 208.948 255.708 206.481 255.708H164.555C163.698 255.708 163.003 256.409 163.003 257.275C163.003 258.141 163.698 258.842 164.555 258.842H246.096C250.648 258.842 254.337 255.114 254.337 250.515V249.326C254.337 244.727 250.648 240.999 246.096 240.999V241.001Z" fill="#003090"/>
<path d="M169.926 277.626H244.374V260.681H169.926C171.88 266.22 171.935 272.236 169.926 277.626Z" fill="white"/>
<path d="M244.373 278H169.925C169.802 278 169.687 277.939 169.616 277.839C169.546 277.738 169.53 277.609 169.572 277.494C171.523 272.261 171.521 266.333 169.57 260.804C169.53 260.689 169.548 260.561 169.617 260.463C169.688 260.363 169.802 260.304 169.923 260.304H244.371C244.579 260.304 244.747 260.473 244.747 260.679V277.625C244.747 277.833 244.579 278 244.371 278H244.373ZM170.459 277.248H243.998V261.053H170.451C172.23 266.425 172.233 272.135 170.459 277.248Z" fill="#003090"/>
<path d="M232.921 266.993H176.565C176.357 266.993 176.189 266.824 176.189 266.618C176.189 266.411 176.357 266.242 176.565 266.242H232.921C233.129 266.242 233.296 266.411 233.296 266.618C233.296 266.824 233.129 266.993 232.921 266.993Z" fill="#003090"/>
<path d="M232.918 271.73H186.615C186.407 271.73 186.239 271.561 186.239 271.355C186.239 271.149 186.407 270.979 186.615 270.979H232.918C233.126 270.979 233.294 271.149 233.294 271.355C233.294 271.561 233.126 271.73 232.918 271.73Z" fill="#003090"/>
<path d="M235.858 261.487H168.927C168.22 261.487 167.649 260.909 167.649 260.195C167.649 259.482 168.222 258.903 168.927 258.903H253.334C256.437 258.903 258.953 261.445 258.953 264.581V273.505C258.953 276.64 256.437 279.183 253.334 279.183H168.927C168.22 279.183 167.649 278.605 167.649 277.891C167.649 277.178 168.222 276.6 168.927 276.6H235.858C238.049 276.6 239.826 274.804 239.826 272.589V265.499C239.826 263.284 238.049 261.489 235.858 261.489V261.487Z" fill="#003090"/>
<path d="M205.53 248.163H171.13C170.922 248.163 170.754 247.994 170.754 247.787C170.754 247.581 170.922 247.412 171.13 247.412H205.53C205.738 247.412 205.905 247.581 205.905 247.787C205.905 247.994 205.738 248.163 205.53 248.163Z" fill="#003090"/>
</svg>
