<svg width="15" height="17" viewBox="0 0 15 17" fill="none" xmlns="http://www.w3.org/2000/svg">
<path d="M6.14649 13.2637C6.0567 13.2638 5.96777 13.2462 5.88482 13.2118C5.80186 13.1775 5.72652 13.127 5.66311 13.0635L2.90139 10.3017C2.63443 10.0348 2.63443 9.60194 2.90139 9.33501C3.16837 9.06802 3.60117 9.06802 3.86813 9.33501L6.14693 11.6138L12.8003 4.97321C13.0675 4.7065 13.5003 4.70689 13.767 4.97412C14.0337 5.24132 14.0333 5.67417 13.7661 5.94086L6.62941 13.0639C6.56602 13.1273 6.49073 13.1776 6.40786 13.2119C6.32499 13.2462 6.23617 13.2638 6.14649 13.2637Z" fill="#005FDC"/>
</svg>
