<svg width="15" height="17" viewBox="0 0 15 17" fill="none" xmlns="http://www.w3.org/2000/svg">
<path d="M5.81348 13.2637C5.72369 13.2638 5.63477 13.2462 5.55181 13.2118C5.46885 13.1775 5.39351 13.127 5.3301 13.0635L2.56838 10.3017C2.30142 10.0348 2.30142 9.60194 2.56838 9.33501C2.83537 9.06802 3.26816 9.06802 3.53512 9.33501L5.81392 11.6138L12.4673 4.97321C12.7345 4.7065 13.1673 4.70689 13.434 4.97412C13.7007 5.24132 13.7003 5.67417 13.4331 5.94086L6.2964 13.0639C6.23301 13.1273 6.15773 13.1776 6.07486 13.2119C5.99199 13.2462 5.90316 13.2638 5.81348 13.2637Z" fill="#FBBC11"/>
</svg>
