<svg width="14" height="17" viewBox="0 0 14 17" fill="none" xmlns="http://www.w3.org/2000/svg">
<path d="M5.48048 13.2637C5.39069 13.2638 5.30176 13.2462 5.2188 13.2118C5.13585 13.1775 5.0605 13.127 4.99709 13.0635L2.23537 10.3017C1.96842 10.0348 1.96842 9.60194 2.23537 9.33501C2.50236 9.06802 2.93516 9.06802 3.20211 9.33501L5.48091 11.6138L12.1343 4.97321C12.4015 4.7065 12.8343 4.70689 13.101 4.97412C13.3677 5.24132 13.3673 5.67417 13.1001 5.94086L5.96339 13.0639C5.90001 13.1273 5.82472 13.1776 5.74185 13.2119C5.65898 13.2462 5.57016 13.2638 5.48048 13.2637Z" fill="#346AEA"/>
</svg>
