<svg width="39" height="56" viewBox="0 0 39 56" fill="none" xmlns="http://www.w3.org/2000/svg">
<g opacity="0.5">
<path d="M38.9383 21.058C37.9815 33.045 27.9945 36.6585 27.9945 36.6585C27.2601 38.4806 26.3031 43.115 26.3031 43.115H12.9724C12.9724 43.115 12.0153 38.4806 11.281 36.6585C11.281 36.6585 1.29425 33.045 0.337173 21.058C-0.327551 12.7293 5.60318 0.416802 19.5651 0.414062H19.7098C33.6723 0.417076 39.6033 12.7293 38.9383 21.058Z" fill="#003090"/>
</g>
<g opacity="0.7">
<path d="M37.2907 21.1189C36.4155 32.0825 27.2812 35.3877 27.2812 35.3877C26.6096 37.0542 25.7342 43.1159 25.7342 43.1159H13.5417C13.5417 43.1159 12.6663 37.0545 11.9947 35.3877C11.9947 35.3877 2.86068 32.0825 1.98525 21.1189C1.37724 13.5012 6.80162 2.24004 19.5717 2.2373H19.704C32.4743 2.24004 37.8987 13.5012 37.2907 21.1189Z" fill="#003090"/>
</g>
<path d="M16.3973 44.2487L12.4785 23.2598" stroke="white" stroke-width="0.822" stroke-miterlimit="10"/>
<path d="M22.8848 44.2479L26.7969 23.2578" stroke="white" stroke-width="0.822" stroke-miterlimit="10"/>
<path d="M12.8145 24.0614C12.8145 24.0614 13.5904 28.1714 15.4517 28.1711C17.3127 28.1709 19.0567 22.0442 16.614 22.0448C14.1713 22.0453 16.5373 30.0708 19.6395 30.0705C22.7415 30.07 24.5238 22.0437 22.3527 22.0439C20.1815 22.0445 20.8679 28.4418 23.8534 28.4413C25.4554 28.441 26.5994 24.3201 26.5994 24.3201" stroke="white" stroke-width="0.274" stroke-miterlimit="10"/>
<path d="M27.9888 43.1318H11.2891V52.3226H27.9888V43.1318Z" fill="#455A64"/>
<path d="M26.0947 52.3223C25.1127 54.0638 23.2295 55.6215 19.6382 55.6215C16.0469 55.6215 14.1637 54.0638 13.1816 52.3223H26.0947Z" fill="#455A64"/>
<path d="M26.0947 52.3223C25.8139 52.8201 25.4604 53.3015 25.0127 53.7356L13.5154 52.8536C13.3929 52.6782 13.2817 52.5031 13.1816 52.3223H26.0947Z" fill="#37474F"/>
<path d="M28.4773 44.8847L10.8008 46.5189V45.7171L28.4773 44.083V44.8847Z" fill="#37474F"/>
<path d="M28.4773 47.3115L10.8008 48.9456V48.1439L28.4773 46.5098V47.3115Z" fill="#37474F"/>
<path d="M28.4773 49.7373L10.8008 51.3717V50.57L28.4773 48.9355V49.7373Z" fill="#37474F"/>
<g opacity="0.5">
<path d="M4.54498 18.2579C5.1571 18.3604 5.94978 15.2009 9.34765 11.5435C10.8571 9.91869 16.5829 7.88616 16.1705 6.01091C15.7579 4.13592 10.6497 6.06379 8.08013 9.0408C3.94492 13.8317 3.98136 18.1636 4.54498 18.2579Z" fill="white"/>
<path d="M34.6715 18.9163C35.7976 18.9163 35.7996 17.166 34.6715 17.166C33.5454 17.166 33.5434 18.9163 34.6715 18.9163Z" fill="white"/>
<path d="M29.1609 32.0793C29.7766 32.5484 32.7651 29.7914 34.1126 26.5007C35.2308 23.77 35.4234 20.3165 34.6713 20.1165C33.9192 19.9167 33.4317 24.6539 32.5272 26.3985C31.386 28.6006 28.503 31.5779 29.1609 32.0793Z" fill="white"/>
</g>
</svg>
