
<svg width="55" height="55"  id="Layer_1" xmlns="http://www.w3.org/2000/svg" viewBox="0 0 55 55">
<defs>
<style>
.cls-1{fill:#fff;}.cls-2{stroke-linejoin:round;}.cls-2,.cls-3{stroke-linecap:round;}.cls-2,.cls-3,.cls-4,.cls-5{fill:none;stroke:#8792a7;}.cls-2,.cls-3,.cls-5{stroke-width:1.5px;}.cls-3,.cls-5{stroke-miterlimit:10;}.cls-5{isolation:isolate;opacity:.4;}
</style>
</defs>
<path class="cls-1" d="m27.574,1.702h0c14.359,0,26,11.641,26,26h0c0,14.359-11.641,26-26,26h0c-14.359,0-26-11.641-26-26h0C1.574,13.343,13.215,1.702,27.574,1.702Z"/>
<path class="cls-4" d="m27.574,2.202h0c14.083,0,25.5,11.417,25.5,25.5h0c0,14.083-11.417,25.5-25.5,25.5h0c-14.083,0-25.5-11.417-25.5-25.5h0C2.074,13.619,13.491,2.202,27.574,2.202Z"/>
<path class="cls-3" d="m27.595,18.612c-3.31,0-6,2.69-6,6v2.89c0,.61-.26,1.54-.57,2.06l-1.15,1.91c-.71,1.18-.22,2.49,1.08,2.93,4.31,1.44,8.96,1.44,13.27,0,1.21-.4,1.74-1.83,1.08-2.93l-1.15-1.91c-.3-.52-.56-1.45-.56-2.06v-2.89c0-3.3-2.7-6-6-6Z"/>
<path class="cls-2" d="m29.444,18.902c-.31-.09-.63-.16-.96-.2-.96-.12-1.88-.05-2.74.2.29-.74,1.01-1.26,1.85-1.26s1.56.52,1.85,1.26Z"/>
<path class="cls-5" d="m30.594,34.762c0,1.65-1.35,3-3,3-.82,0-1.58-.34-2.12-.88-.54-.54-.88-1.3-.88-2.12"/>
</svg>