<svg width="25" height="24" viewBox="0 0 25 24" fill="none" xmlns="http://www.w3.org/2000/svg">
    <path
        d="M18.4434 12.75H6.44336C6.24485 12.7487 6.05485 12.6693 5.91448 12.5289C5.77411 12.3885 5.69467 12.1985 5.69336 12C5.69467 11.8015 5.77411 11.6115 5.91448 11.4711C6.05485 11.3307 6.24485 11.2513 6.44336 11.25H18.4434C18.6419 11.2513 18.8319 11.3307 18.9722 11.4711C19.1126 11.6115 19.192 11.8015 19.1934 12C19.192 12.1985 19.1126 12.3885 18.9722 12.5289C18.8319 12.6693 18.6419 12.7487 18.4434 12.75Z"
        fill="#003090" />
    <path
        d="M12.4434 18.75C12.2449 18.7487 12.0548 18.6693 11.9145 18.5289C11.7741 18.3885 11.6947 18.1985 11.6934 18V6C11.6947 5.80149 11.7741 5.61149 11.9145 5.47112C12.0548 5.33075 12.2449 5.25131 12.4434 5.25C12.6419 5.25131 12.8319 5.33075 12.9722 5.47112C13.1126 5.61149 13.192 5.80149 13.1934 6V18C13.192 18.1985 13.1126 18.3885 12.9722 18.5289C12.8319 18.6693 12.6419 18.7487 12.4434 18.75Z"
        fill="#003090" />
</svg>