<svg width="23" height="18" viewBox="0 0 23 18" fill="none" xmlns="http://www.w3.org/2000/svg">
<path d="M1.62804 12.7337L0.259287 3.83716C0.158037 3.18016 0.906537 2.73166 1.43829 3.13066L5.70279 6.32866C5.81363 6.41169 5.94024 6.47127 6.07488 6.50375C6.20952 6.53622 6.34937 6.54092 6.48588 6.51755C6.6224 6.49417 6.75272 6.44322 6.86888 6.36781C6.98505 6.29239 7.08463 6.19409 7.16154 6.07891L10.712 0.753906C11.087 0.191406 11.9135 0.191406 12.2885 0.753906L15.839 6.07891C15.9159 6.19409 16.0155 6.29239 16.1317 6.36781C16.2479 6.44322 16.3782 6.49417 16.5147 6.51755C16.6512 6.54092 16.7911 6.53622 16.9257 6.50375C17.0603 6.47127 17.1869 6.41169 17.2978 6.32866L21.5623 3.13066C22.0948 2.73166 22.8425 3.18016 22.7413 3.83716L21.3725 12.7337H1.62804ZM20.3428 17.6702H2.65779C2.52256 17.6702 2.38865 17.6435 2.26372 17.5918C2.13878 17.54 2.02527 17.4642 1.92964 17.3685C1.73653 17.1754 1.62804 16.9135 1.62804 16.6404V14.3792H21.3725V16.6404C21.3725 17.2089 20.9113 17.6702 20.3428 17.6702Z" fill="white"/>
</svg>
