<svg width="23" height="23" viewBox="0 0 23 23" fill="none" xmlns="http://www.w3.org/2000/svg">
<path d="M22.2093 11.4699C22.2093 13.6352 21.5671 15.752 20.3641 17.5525C19.1611 19.3529 17.4512 20.7562 15.4506 21.5848C13.4501 22.4135 11.2487 22.6303 9.12496 22.2079C7.00118 21.7854 5.05037 20.7427 3.51921 19.2115C1.98805 17.6804 0.94532 15.7296 0.522875 13.6058C0.100429 11.482 0.317244 9.28065 1.1459 7.2801C1.97456 5.27954 3.37784 3.56964 5.17829 2.36662C6.97874 1.1636 9.0955 0.521484 11.2609 0.521484C14.1636 0.524624 16.9465 1.67912 18.9991 3.73166C21.0516 5.7842 22.2061 8.56713 22.2093 11.4699ZM12.1732 13.5291C12.1618 13.2116 12.2342 12.8967 12.3832 12.6161C12.5321 12.3354 12.7524 12.099 13.0217 11.9306C13.5855 11.62 14.0571 11.1659 14.3888 10.6142C14.7204 10.0625 14.9002 9.43297 14.9099 8.78937C14.9197 8.14578 14.759 7.51105 14.4443 6.94958C14.1296 6.38811 13.6719 5.91987 13.1178 5.59235C12.5637 5.26484 11.9328 5.0897 11.2892 5.08471C10.6455 5.07972 10.012 5.24505 9.45289 5.56393C8.89376 5.88281 8.42892 6.3439 8.10552 6.90042C7.78211 7.45694 7.61165 8.0891 7.61142 8.73277H9.43615C9.43592 8.46433 9.49492 8.19914 9.60895 7.95612C9.72297 7.7131 9.88921 7.49824 10.0958 7.32684C10.3024 7.15544 10.5443 7.03174 10.8042 6.96455C11.0641 6.89737 11.3356 6.88835 11.5994 6.93815C11.9598 7.00811 12.2912 7.18392 12.5512 7.44313C12.8112 7.70234 12.9881 8.03317 13.0592 8.39337C13.131 8.77145 13.0814 9.16256 12.9175 9.51077C12.7536 9.85899 12.4839 10.1465 12.1468 10.3321C11.5886 10.6555 11.1273 11.1227 10.811 11.685C10.4947 12.2473 10.335 12.8841 10.3485 13.5291V14.207H12.1732V13.5291ZM12.1732 16.0317H10.3485V17.8564H12.1732V16.0317Z" fill="#333333"/>
</svg>
