<svg width="13" height="13" viewBox="0 0 13 13" fill="none" xmlns="http://www.w3.org/2000/svg">
    <path
        d="M13 6.5C13 7.78558 12.6188 9.04229 11.9046 10.1112C11.1903 11.1801 10.1752 12.0132 8.98744 12.5052C7.79972 12.9972 6.49279 13.1259 5.23191 12.8751C3.97104 12.6243 2.81285 12.0052 1.90381 11.0962C0.994767 10.1872 0.375702 9.02896 0.124899 7.76809C-0.125905 6.50721 0.00281636 5.20028 0.494786 4.01256C0.986755 2.82484 1.81988 1.80968 2.8888 1.09545C3.95772 0.381218 5.21442 0 6.5 0C8.22334 0.00186392 9.87555 0.687282 11.0941 1.90586C12.3127 3.12445 12.9981 4.77666 13 6.5ZM7.04167 7.72254C7.03487 7.53405 7.07785 7.34709 7.16629 7.18049C7.25472 7.01389 7.38549 6.87353 7.54542 6.77354C7.88014 6.58916 8.16013 6.31953 8.35701 5.992C8.55388 5.66447 8.66063 5.2907 8.66642 4.90861C8.67221 4.52651 8.57684 4.14967 8.38999 3.81633C8.20313 3.48299 7.93143 3.205 7.60246 3.01055C7.27349 2.81611 6.89894 2.71213 6.51681 2.70917C6.13468 2.7062 5.75856 2.80436 5.42661 2.99368C5.09466 3.18299 4.81868 3.45674 4.62668 3.78714C4.43467 4.11755 4.33347 4.49286 4.33334 4.875H5.41667C5.41653 4.71563 5.45156 4.55819 5.51926 4.41391C5.58695 4.26963 5.68565 4.14206 5.8083 4.04031C5.93096 3.93855 6.07456 3.86511 6.22886 3.82522C6.38316 3.78533 6.54435 3.77998 6.70096 3.80954C6.91494 3.85108 7.11168 3.95546 7.26605 4.10935C7.42042 4.26324 7.52542 4.45965 7.56763 4.6735C7.61025 4.89797 7.58082 5.13017 7.48354 5.3369C7.38625 5.54363 7.22609 5.71431 7.02596 5.82454C6.69455 6.01654 6.42069 6.2939 6.23292 6.62772C6.04515 6.96155 5.95032 7.33961 5.95834 7.72254V8.125H7.04167V7.72254ZM7.04167 9.20833H5.95834V10.2917H7.04167V9.20833Z"
        fill="#333333" />
</svg>