<svg width="43" height="42" viewBox="0 0 43 42" fill="none" xmlns="http://www.w3.org/2000/svg">
<g clip-path="url(#clip0_2933_12126)">
<path d="M33.9432 3.12109H14.6758V11.1111H38.0582V7.23451C38.0582 4.96616 36.2122 3.12109 33.9432 3.12109Z" fill="#CED9F9"/>
<path d="M23.0352 12.3403H0.5V4.92636C0.5 2.20972 2.71068 0 5.42828 0H12.6336C13.3497 0 14.0396 0.150925 14.6664 0.434509C15.5418 0.828964 16.2939 1.47913 16.8213 2.3286L23.0352 12.3403Z" fill="#1640C1"/>
<path d="M42.5 14.0004V37.8817C42.5 40.153 40.6511 42.0003 38.3789 42.0003H4.62111C2.34891 42.0003 0.5 40.153 0.5 37.8817V9.88086H38.3789C40.6511 9.88086 42.5 11.7288 42.5 14.0004Z" fill="#2354E6"/>
<path d="M42.5 14.0004V37.8817C42.5 40.153 40.6511 42.0003 38.3789 42.0003H21.5V9.88086H38.3789C40.6511 9.88086 42.5 11.7288 42.5 14.0004Z" fill="#1849D6"/>
<path d="M32.549 25.9405C32.549 32.0329 27.5928 36.9894 21.5011 36.9894C15.4093 36.9894 10.4531 32.0329 10.4531 25.9405C10.4531 19.8491 15.4093 14.8926 21.5011 14.8926C27.5928 14.8926 32.549 19.8491 32.549 25.9405Z" fill="#E7ECFC"/>
<path d="M32.5479 25.9405C32.5479 32.0329 27.5918 36.9894 21.5 36.9894V14.8926C27.5918 14.8926 32.5479 19.8491 32.5479 25.9405Z" fill="#CED9F9"/>
<path d="M25.0593 26.0758C24.8289 26.2709 24.5466 26.3661 24.2668 26.3661C23.9166 26.3661 23.5686 26.2177 23.3251 25.9287L22.7287 25.2218V29.8499C22.7287 30.5292 22.1776 31.0803 21.4983 31.0803C20.8189 31.0803 20.2678 30.5292 20.2678 29.8499V25.2218L19.6715 25.9287C19.2325 26.4481 18.4567 26.5145 17.9373 26.0758C17.4182 25.6378 17.3515 24.8617 17.7896 24.3422L20.2252 21.4548C20.5427 21.0793 21.0061 20.8633 21.4983 20.8633C21.9905 20.8633 22.4538 21.0793 22.7714 21.4548L25.207 24.3422C25.645 24.8617 25.5784 25.6378 25.0593 26.0758Z" fill="#6C8DEF"/>
<path d="M25.061 26.0758C24.8306 26.2709 24.5483 26.3661 24.2686 26.3661C23.9183 26.3661 23.5703 26.2177 23.3268 25.9287L22.7305 25.2218V29.8499C22.7305 30.5292 22.1793 31.0803 21.5 31.0803V20.8633C21.9922 20.8633 22.4555 21.0793 22.7731 21.4548L25.2087 24.3422C25.6467 24.8617 25.5801 25.6378 25.061 26.0758Z" fill="#3B67E9"/>
</g>
<defs>
<clipPath id="clip0_2933_12126">
<rect width="42" height="42" fill="white" transform="translate(0.5)"/>
</clipPath>
</defs>
</svg>
