<svg width="183" height="183" viewBox="0 0 183 183" fill="none" xmlns="http://www.w3.org/2000/svg">
    <rect width="183" height="183" rx="18.9515" fill="#D9E6FF" />
    <g clip-path="url(#clip0_2750_9496)">
        <path
            d="M92.0014 99.2613C98.6401 99.2613 104.776 97.3904 109.684 94.2119C113.487 91.7777 118.435 92.18 121.775 95.2177C131.049 103.627 136.32 115.556 136.299 128.089V133.46C136.299 139.013 131.793 143.499 126.241 143.499H57.7619C52.2096 143.499 47.7034 139.013 47.7034 133.46V128.089C47.6631 115.576 52.9338 103.627 62.2078 95.2378C65.5473 92.2001 70.5162 91.7978 74.2983 94.232C79.227 97.3904 85.3426 99.2613 92.0014 99.2613Z"
            fill="#003090" />
        <path
            d="M92.0027 90.3102C105.757 90.3102 116.908 79.1598 116.908 65.4051C116.908 51.6504 105.757 40.5 92.0027 40.5C78.248 40.5 67.0977 51.6504 67.0977 65.4051C67.0977 79.1598 78.248 90.3102 92.0027 90.3102Z"
            fill="#005FDC" />
    </g>
    <defs>
        <clipPath id="clip0_2750_9496">
            <rect width="103" height="103" fill="white" transform="translate(40.5 40.5)" />
        </clipPath>
    </defs>
</svg>