<svg width="26" height="24" viewBox="0 0 26 24" fill="none" xmlns="http://www.w3.org/2000/svg">
    <path
        d="M13.0625 14.75C12.8588 14.7487 12.6639 14.6693 12.5198 14.5289C12.3758 14.3885 12.2943 14.1985 12.293 14V9C12.2943 8.80149 12.3758 8.61149 12.5198 8.47112C12.6639 8.33075 12.8588 8.25131 13.0625 8.25C13.2662 8.25131 13.4611 8.33075 13.6052 8.47112C13.7492 8.61149 13.8307 8.80149 13.8321 9V14C13.8307 14.1985 13.7492 14.3885 13.6052 14.5289C13.4611 14.6693 13.2662 14.7487 13.0625 14.75Z"
        fill="#FFC62A" />
    <path
        d="M13.0612 17.9966C12.9924 17.9944 12.9239 17.9877 12.856 17.9766C12.7917 17.9657 12.7294 17.9455 12.6713 17.9166C12.6059 17.8947 12.5438 17.8645 12.4866 17.8266L12.3327 17.7066C12.1454 17.5149 12.0391 17.2613 12.0352 16.9966C12.0399 16.7329 12.1461 16.4806 12.3327 16.2896L12.4866 16.1686C12.5438 16.1307 12.6059 16.1005 12.6713 16.0786C12.7294 16.0497 12.7917 16.0295 12.856 16.0186C12.9876 15.9886 13.1246 15.9886 13.2562 16.0186C13.3241 16.0279 13.39 16.0482 13.4511 16.0786C13.5165 16.1005 13.5786 16.1307 13.6358 16.1686L13.7897 16.2886C13.9766 16.4798 14.0828 16.7326 14.0873 16.9966C14.0833 17.2613 13.977 17.5149 13.7897 17.7066L13.6358 17.8266C13.5786 17.8645 13.5165 17.8947 13.4511 17.9166C13.39 17.9471 13.3241 17.9673 13.2562 17.9766C13.1918 17.9882 13.1266 17.9949 13.0612 17.9966Z"
        fill="#FFC62A" />
    <path
        d="M19.278 22.1598H6.84633C6.01149 22.2303 5.17246 22.0831 4.4152 21.7334C3.65794 21.3837 3.0097 20.8441 2.5369 20.1698C2.16068 19.4395 1.99089 18.6247 2.04499 17.8091C2.09909 16.9936 2.37513 16.2069 2.84472 15.5298L9.06261 4.62984C10.0887 2.82984 11.5046 1.83984 13.0642 1.83984C14.6238 1.83984 16.0398 2.82984 17.0658 4.62984L23.2837 15.5398C23.7554 16.216 24.0328 17.003 24.0869 17.8189C24.141 18.6349 23.97 19.4501 23.5915 20.1798C23.116 20.8517 22.4663 21.3888 21.7087 21.7366C20.951 22.0844 20.1124 22.2304 19.278 22.1598ZM13.0601 3.33984C12.0956 3.33984 11.1517 4.05984 10.4026 5.35984L4.195 16.2698C3.86464 16.722 3.66065 17.2502 3.60309 17.8025C3.54552 18.3548 3.63635 18.9121 3.86667 19.4198C4.20856 19.8647 4.66427 20.2142 5.18824 20.4336C5.71221 20.653 6.28608 20.7344 6.85248 20.6698H19.2883C19.8546 20.7333 20.4281 20.6513 20.9518 20.432C21.4756 20.2128 21.9314 19.8638 22.2741 19.4198C22.5071 18.9127 22.5995 18.3549 22.5419 17.8021C22.4842 17.2493 22.2787 16.7209 21.9457 16.2698L15.7176 5.35984C14.9686 4.05984 14.0287 3.33984 13.0601 3.33984Z"
        fill="#FFC62A" />
</svg>