<svg width="165" height="161" viewBox="0 0 165 161" fill="none" xmlns="http://www.w3.org/2000/svg">
    <path
        d="M45.3304 115.984C44.4449 123.776 41.9525 134.209 40.8047 138.105H52.4141L59.5633 137.268C59.5633 137.268 61.2031 122.07 62.2525 118.721C63.3019 115.372 62.4821 83.5906 62.5149 83.3008C62.5477 83.011 45.0352 90.7712 43.2971 98.2094C42.6412 101.075 45.6583 113.343 45.3304 115.984Z"
        fill="white" />
    <path
        d="M40.8389 138.33C40.7733 138.33 40.7077 138.298 40.6421 138.234C40.6093 138.169 40.5765 138.105 40.6093 138.041C41.7571 134.144 44.2495 123.679 45.135 115.951C45.2662 114.824 44.7414 111.733 44.1839 108.481C43.4624 104.198 42.7082 99.787 43.1017 98.1448C44.7742 90.9964 61.434 83.043 62.549 83.043H62.5818C62.713 83.0752 62.7786 83.1718 62.7786 83.3006C62.7786 83.365 62.7786 84.2344 62.8114 85.4258C62.9426 92.9606 63.4017 115.919 62.5162 118.785C61.4996 122.069 59.8599 137.139 59.8271 137.3C59.8271 137.397 59.7287 137.493 59.6303 137.493L52.5138 138.33H40.8389ZM41.134 137.88H52.4482L59.3679 137.042C59.5647 135.239 61.0733 121.78 62.0571 118.624C62.6474 116.756 62.7458 105.583 62.3523 85.3936C62.3195 84.3632 62.3195 83.8158 62.3195 83.526C60.2206 84.2988 45.1678 91.3184 43.5608 98.2092C43.2001 99.787 43.9544 104.359 44.6431 108.384C45.2006 111.669 45.7253 114.792 45.5941 115.984C44.7086 123.551 42.3146 133.758 41.134 137.88Z"
        fill="#232323" />
    <path d="M40.5098 126.449L41.5592 119.719L62.6135 123.325L61.7608 130.635L40.5098 126.449Z" fill="white" />
    <path
        d="M61.7619 130.859H61.7291L40.478 126.673C40.3468 126.641 40.2812 126.545 40.2812 126.416L41.3307 119.654C41.3307 119.589 41.3635 119.525 41.4291 119.493C41.4947 119.461 41.5275 119.428 41.593 119.461L62.6473 123.099C62.7785 123.131 62.8441 123.228 62.8441 123.357L61.9914 130.666C61.9914 130.731 61.9586 130.795 61.893 130.827C61.8602 130.859 61.8275 130.859 61.7619 130.859ZM40.7732 126.287L61.5651 130.376L62.3522 123.518L41.757 119.944L40.7732 126.287Z"
        fill="#232323" />
    <path d="M63.1375 138.106L63.5967 127.737L39.5581 123.133L36.377 138.106H63.1375Z" fill="#232323" />
    <path
        d="M63.1382 138.329H36.3448C36.2136 138.329 36.1152 138.233 36.1152 138.104V138.072L39.3291 123.099C39.3619 122.97 39.4603 122.906 39.5915 122.938L63.6629 127.51C63.7613 127.542 63.8597 127.639 63.8597 127.736L63.4005 138.072C63.4005 138.233 63.3021 138.329 63.1382 138.329C63.171 138.329 63.171 138.329 63.1382 138.329ZM36.64 137.879H62.9086L63.3349 127.929L39.7227 123.389L36.64 137.879Z"
        fill="#232323" />
    <path
        d="M59.728 125.643C60.2713 125.643 60.7118 125.21 60.7118 124.677C60.7118 124.143 60.2713 123.711 59.728 123.711C59.1846 123.711 58.7441 124.143 58.7441 124.677C58.7441 125.21 59.1846 125.643 59.728 125.643Z"
        fill="#232323" />
    <path d="M99.8819 24.956L37.9238 46.957L67.6814 127.746L129.639 105.745L99.8819 24.956Z" fill="white" />
    <path
        d="M67.9259 127.801C67.8275 127.801 67.7291 127.737 67.7291 127.64L37.7546 46.8825C37.7218 46.7537 37.7874 46.6249 37.8858 46.5927L99.8352 24.4713C99.9664 24.4391 100.098 24.5035 100.13 24.6001L130.105 105.358C130.138 105.422 130.138 105.486 130.105 105.519C130.072 105.583 130.039 105.615 129.974 105.647L68.0243 127.801C67.9915 127.801 67.9587 127.801 67.9259 127.801ZM38.2793 46.9469L68.0898 127.286L129.58 105.293L99.7696 24.9543L38.2793 46.9469Z"
        fill="#232323" />
    <path d="M98.0475 24.3287L36.1113 46.4766L66.0639 127.227L128 105.08L98.0475 24.3287Z" fill="white" />
    <path
        d="M66.0876 127.48C65.9892 127.48 65.8908 127.415 65.858 127.319L35.8835 46.5613C35.8507 46.4325 35.9163 46.3037 36.0147 46.2715L97.9314 24.1179C97.9969 24.0857 98.0625 24.0857 98.0953 24.1179C98.1609 24.1501 98.1937 24.1823 98.2265 24.2467L128.201 105.004C128.234 105.069 128.234 105.133 128.201 105.165C128.168 105.23 128.135 105.262 128.07 105.294L66.1204 127.448L66.0876 127.48ZM36.4082 46.6257L66.2188 126.965L127.709 104.972L97.8986 24.6009L36.4082 46.6257Z"
        fill="#232323" />
    <path d="M96.0733 23.1592L34.1152 45.1602L63.8728 125.95L125.831 103.949L96.0733 23.1592Z" fill="white" />
    <path
        d="M64.154 126.031C64.0556 126.031 63.9572 125.966 63.9244 125.87L33.9499 45.1121C33.9171 44.9833 33.9827 44.8545 34.0811 44.8223L96.0306 22.6687C96.0961 22.6365 96.1617 22.6365 96.1945 22.6687C96.2601 22.7009 96.2929 22.7331 96.3257 22.7975L126.3 103.587C126.333 103.716 126.267 103.845 126.169 103.877L64.2196 126.031C64.1868 126.031 64.1868 126.031 64.154 126.031ZM34.4747 45.1765L64.2852 125.515L125.775 103.523L95.9978 23.1839L34.4747 45.1765Z"
        fill="#232323" />
    <path
        d="M70.3514 43.5345C70.253 43.5345 70.1546 43.4701 70.1218 43.3735C70.089 43.2447 70.1546 43.1159 70.253 43.0837L82.9118 38.5435C83.043 38.5113 83.1742 38.5757 83.207 38.6723C83.2397 38.8011 83.1742 38.9299 83.0758 38.9621L70.417 43.5023C70.417 43.5345 70.3842 43.5345 70.3514 43.5345Z"
        fill="#232323" />
    <path
        d="M72.1241 48.2673C71.9929 48.2673 71.8945 48.1707 71.8945 48.0419C71.8945 47.9453 71.9601 47.8487 72.0585 47.8165L90.1612 41.3443C90.2924 41.3121 90.4236 41.3765 90.4564 41.4731C90.4892 41.6019 90.4564 41.7307 90.3252 41.7629L72.1897 48.2673C72.1569 48.2673 72.1569 48.2673 72.1241 48.2673Z"
        fill="#232323" />
    <path
        d="M73.8624 53.0017C73.7312 53.0017 73.6328 52.9051 73.6328 52.7763C73.6328 52.6797 73.6984 52.6153 73.764 52.5831L81.9299 49.6529C82.0611 49.6207 82.1923 49.6851 82.2251 49.7817C82.2579 49.9105 82.1923 50.0393 82.0939 50.0715L73.928 53.0017C73.928 52.9695 73.8952 53.0017 73.8624 53.0017Z"
        fill="#232323" />
    <path
        d="M85.2413 48.9109C85.1101 48.9109 85.0117 48.8143 85.0117 48.6855C85.0117 48.5889 85.0773 48.4923 85.1757 48.4601L93.3416 45.5299C93.4728 45.4977 93.604 45.5621 93.6368 45.6587C93.6695 45.7875 93.604 45.9163 93.5056 45.9485L85.3397 48.8787C85.3069 48.9109 85.2741 48.9109 85.2413 48.9109Z"
        fill="#232323" />
    <path
        d="M75.633 57.7028C75.5347 57.7028 75.4363 57.6384 75.4363 57.5418C75.4035 57.413 75.4691 57.2842 75.5674 57.252L88.2262 52.744C88.3574 52.7118 88.4886 52.744 88.5214 52.8728C88.5542 53.0016 88.4886 53.1304 88.3902 53.1626L75.7314 57.7028C75.6658 57.7028 75.633 57.7028 75.633 57.7028Z"
        fill="#D1D3D4" />
    <path
        d="M63.3023 72.4506C63.204 72.4506 63.1056 72.3862 63.1056 72.2896C63.0728 72.1608 63.1056 72.032 63.2368 71.9998L75.7316 67.524C75.8628 67.4918 75.9939 67.5562 76.0267 67.6528C76.0595 67.7816 75.9939 67.9104 75.8956 67.9426L63.3679 72.4506C63.3679 72.4506 63.3351 72.4506 63.3023 72.4506Z"
        fill="#D1D3D4" />
    <path d="M62.6589 78.3149L57.0508 80.3203L58.6893 84.7376L64.2974 82.7321L62.6589 78.3149Z" fill="white" />
    <path
        d="M58.6767 84.9765C58.6439 84.9765 58.6111 84.9765 58.5783 84.9443C58.5127 84.9121 58.4799 84.8799 58.4471 84.8155L56.8074 80.4041C56.7746 80.2753 56.8402 80.1465 56.9385 80.1143L62.5465 78.1179C62.612 78.0857 62.6776 78.0857 62.7104 78.1179C62.776 78.1501 62.8088 78.1823 62.8416 78.2467L64.4813 82.6581C64.5141 82.7869 64.4486 82.9157 64.3502 82.9479L58.7423 84.9443C58.7423 84.9443 58.7095 84.9765 58.6767 84.9765ZM57.3649 80.4685L58.8406 84.4613L63.9894 82.6259L62.5137 78.6331L57.3649 80.4685Z"
        fill="#232323" />
    <path d="M59.5789 70.4321L53.9707 72.4375L55.6092 76.8547L61.2173 74.8493L59.5789 70.4321Z" fill="white" />
    <path
        d="M55.6278 77.0857C55.5295 77.0857 55.4311 77.0213 55.3983 76.9247L53.7585 72.5133C53.7257 72.3845 53.7913 72.2557 53.8897 72.2235L59.4976 70.2271C59.6288 70.1949 59.76 70.2593 59.7928 70.3559L61.4325 74.7673C61.4653 74.8961 61.3997 75.0249 61.3013 75.0571L55.6934 77.0535C55.6606 77.0535 55.6606 77.0857 55.6278 77.0857ZM54.2832 72.5777L55.759 76.5705L60.9406 74.7351L59.4648 70.7423L54.2832 72.5777Z"
        fill="#232323" />
    <path
        d="M66.0565 79.8569C65.9581 79.8569 65.8597 79.7925 65.8269 79.6959C65.7941 79.5671 65.8597 79.4383 65.9581 79.4061L78.4529 74.9303C78.5841 74.8981 78.7153 74.9625 78.748 75.0591C78.7808 75.1879 78.7153 75.3167 78.6169 75.3489L66.122 79.8569C66.0892 79.8569 66.0892 79.8569 66.0565 79.8569Z"
        fill="#D1D3D4" />
    <path d="M86.114 61.5727L80.5059 63.5781L82.1443 67.9954L87.7525 65.9899L86.114 61.5727Z" fill="white" />
    <path
        d="M82.1576 68.199C82.0592 68.199 81.9608 68.1346 81.928 68.038L80.2883 63.6266C80.2555 63.5622 80.2555 63.4978 80.2883 63.4656C80.3211 63.4012 80.3539 63.369 80.4195 63.3368L86.0274 61.3404C86.1585 61.3082 86.2897 61.3726 86.3225 61.4692L87.9623 65.8806C87.9951 65.945 87.9951 66.0094 87.9623 66.0416C87.9295 66.106 87.8967 66.1382 87.8311 66.1704L82.2232 68.1668C82.1904 68.199 82.1576 68.199 82.1576 68.199ZM80.813 63.691L82.2888 67.6838L87.4703 65.8162L85.9946 61.8234L80.813 63.691Z"
        fill="#232323" />
    <path
        d="M89.5049 63.0798C89.3738 63.0798 89.2754 62.9832 89.2754 62.8544C89.2754 62.7578 89.341 62.6934 89.4066 62.6612L101.901 58.1854C102 58.1532 102.131 58.1854 102.197 58.3142C102.229 58.443 102.197 58.5718 102.065 58.604L89.5705 63.0798C89.5377 63.0798 89.5377 63.0798 89.5049 63.0798Z"
        fill="#D1D3D4" />
    <path d="M88.8718 68.9731L83.2637 70.9785L84.9021 75.3958L90.5103 73.3903L88.8718 68.9731Z" fill="white" />
    <path
        d="M84.8802 75.6046C84.7818 75.6046 84.6834 75.5402 84.6834 75.4436L83.0437 71.0322C83.0109 70.9034 83.0765 70.7746 83.1749 70.7424L88.7828 68.746C88.914 68.7138 89.0451 68.746 89.0779 68.8748L90.7177 73.2862C90.7505 73.415 90.7177 73.5438 90.5865 73.576L84.9786 75.5724C84.9458 75.6046 84.913 75.6046 84.8802 75.6046ZM83.5356 71.0966L85.0114 75.0894L90.193 73.254L88.7172 69.2612L83.5356 71.0966Z"
        fill="#232323" />
    <path
        d="M92.2264 70.4857C92.128 70.4857 92.0296 70.4213 91.9968 70.3247C91.964 70.1959 92.0296 70.0671 92.128 70.0349L104.623 65.5591C104.754 65.4947 104.885 65.5591 104.918 65.6557C104.984 65.7845 104.918 65.9133 104.82 65.9455H104.787L92.292 70.4213C92.292 70.4535 92.2592 70.4857 92.2264 70.4857Z"
        fill="#D1D3D4" />
    <path d="M107.776 73.9454L60.9082 90.7051L66.0705 104.622L112.939 87.8628L107.776 73.9454Z" fill="white" />
    <path
        d="M66.0885 104.875C66.0557 104.875 66.0229 104.875 65.9901 104.842C65.9245 104.81 65.8917 104.778 65.8589 104.714L60.7101 90.8032C60.6773 90.7388 60.6773 90.6744 60.7101 90.6422C60.7429 90.5778 60.7757 90.5456 60.8413 90.5134L107.705 73.7694C107.836 73.7372 107.967 73.7694 108 73.8982L113.182 87.8086C113.215 87.873 113.215 87.9374 113.182 87.9696C113.149 88.034 113.116 88.0662 113.051 88.0984L66.1541 104.842C66.1213 104.875 66.0885 104.875 66.0885 104.875ZM61.2021 90.8354L66.2197 104.327L112.657 87.712L107.64 74.2202L61.2021 90.8354Z"
        fill="#232323" />
    <path
        d="M62.0225 93.9278C61.8914 93.9278 61.793 93.8312 61.793 93.7024C61.793 93.6058 61.8586 93.5414 61.9241 93.5092L108.788 76.733C108.919 76.6686 109.05 76.733 109.083 76.8296C109.149 76.9584 109.083 77.0872 108.985 77.1194H108.952L62.0881 93.8956C62.0553 93.9278 62.0553 93.9278 62.0225 93.9278Z"
        fill="#232323" />
    <path
        d="M79.0427 100.239C78.9443 100.239 78.846 100.174 78.8132 100.078L73.6316 86.1673C73.5988 86.0385 73.6644 85.9097 73.7628 85.8775C73.8939 85.8453 74.0251 85.9097 74.0579 86.0063L79.2395 99.9167C79.2723 100.046 79.2067 100.174 79.1083 100.207C79.1083 100.207 79.0755 100.239 79.0427 100.239Z"
        fill="#232323" />
    <path
        d="M98.6209 107.227C98.5225 107.227 98.4241 107.163 98.3913 107.066C98.3585 106.937 98.4241 106.808 98.5225 106.776L117.412 100.014C117.544 99.9498 117.675 100.014 117.707 100.111C117.773 100.24 117.707 100.368 117.609 100.401H117.576L98.6865 107.163C98.6537 107.227 98.6537 107.227 98.6209 107.227Z"
        fill="#D1D3D4" />
    <path
        d="M67.6632 109.189C67.532 109.189 67.4336 109.093 67.4336 108.964C67.4336 108.867 67.4992 108.771 67.5976 108.739L114.461 91.9947C114.56 91.9303 114.724 91.9947 114.757 92.0913C114.822 92.1879 114.757 92.3489 114.658 92.3811C114.658 92.3811 114.625 92.3811 114.625 92.4133L67.7615 109.157C67.7287 109.189 67.696 109.189 67.6632 109.189Z"
        fill="#D1D3D4" />
    <path
        d="M87.6026 36.0965C87.0451 36.0965 86.5532 35.7745 86.3564 35.2593L84.2903 29.6243C84.2247 29.4955 84.2903 29.3667 84.3887 29.3345C84.4871 29.3023 84.6511 29.3345 84.6838 29.4311V29.4633L86.7827 35.0983C86.9467 35.5169 87.4386 35.7423 87.8649 35.5813C88.2913 35.4203 88.5208 34.9373 88.3569 34.5187L85.4053 26.4043C85.2741 26.0179 84.979 25.6959 84.5855 25.5349C84.1919 25.3739 83.7656 25.3417 83.3721 25.4705C82.5522 25.7603 82.1258 26.6619 82.421 27.4669L82.5522 27.7889C82.585 27.9177 82.5194 28.0465 82.421 28.0787C82.2898 28.1109 82.1586 28.0787 82.1258 27.9499L81.9947 27.6279C81.6339 26.5653 82.2242 25.4383 83.3065 25.0841C84.3231 24.7621 85.4381 25.2773 85.8317 26.2433L88.8488 34.3577C89.1111 35.0339 88.7504 35.7745 88.0617 35.9999C87.8977 36.0643 87.7666 36.0965 87.6026 36.0965Z"
        fill="#232323" />
    <path
        d="M46.248 101.944C48.7732 97.8868 51.9871 91.64 54.1188 87.3896C55.1354 85.2966 58.9724 86.4558 59.2348 88.2268C59.6283 90.7062 55.1682 103.49 55.1354 103.425C58.6117 107.482 59.2348 113.665 56.6112 118.269"
        fill="white" />
    <path
        d="M56.6117 118.559C56.4805 118.559 56.3822 118.463 56.3822 118.334C56.3822 118.302 56.3822 118.269 56.415 118.237C58.9402 113.729 58.3499 107.579 54.972 103.618C54.9064 103.554 54.9064 103.457 54.9392 103.393L54.972 103.361C55.2343 102.781 59.3993 90.6419 59.0385 88.2913C58.9074 87.4863 57.8907 86.7457 56.6773 86.5525C55.5951 86.3915 54.7424 86.7457 54.3489 87.5185C53.2667 89.7081 49.4625 97.2429 46.4781 102.073C46.4125 102.169 46.2814 102.234 46.1502 102.169C46.0518 102.105 45.9862 101.976 46.0518 101.847C49.0361 97.0175 52.8075 89.5149 53.8898 87.3253C54.3489 86.3915 55.3983 85.9407 56.6773 86.1339C57.8579 86.2949 59.2353 87.0999 59.4321 88.2269C59.76 90.3521 56.2182 101.558 55.3655 103.425C58.8746 107.708 59.4321 113.6 56.8085 118.43C56.7429 118.527 56.6773 118.559 56.6117 118.559Z"
        fill="#232323" />
    <path d="M62.3613 42.786L45.3828 48.8574L52.8569 69.0073L69.8355 62.9359L62.3613 42.786Z" fill="white" />
    <path
        d="M62.384 42.7945L69.8612 62.9195L52.8407 69.0054L45.3635 48.8804L62.384 42.7945ZM62.3512 42.3438C62.2856 42.3438 62.2528 42.3438 62.1872 42.376L45.1995 48.4618C45.0683 48.494 45.0027 48.5905 44.9371 48.6871C44.8716 48.7837 44.8716 48.9126 44.9044 49.0414L52.3816 69.1664C52.4144 69.263 52.5128 69.3596 52.6111 69.424C52.6767 69.4562 52.7423 69.4562 52.8079 69.4562C52.8735 69.4562 52.9063 69.4562 52.9719 69.424L69.9596 63.3382C70.1892 63.2416 70.3203 62.9839 70.222 62.7586L62.7447 42.6335C62.7119 42.4725 62.548 42.3438 62.3512 42.3438Z"
        fill="#232323" />
    <path
        d="M67.6635 57.124L69.828 62.9522L52.8402 69.0058L50.6758 63.1776C51.7908 60.9558 54.0536 59.539 56.0869 58.6052C56.874 58.251 57.6283 57.9612 58.2514 57.7358L58.3826 57.6714C58.9729 57.446 59.6944 57.2206 60.4486 57.0274H60.4814C62.7115 56.48 65.3679 56.1258 67.6635 57.124Z"
        fill="#003090" />
    <path
        d="M61.0066 58.1211L61.4329 64.1103L61.5641 65.8491L61.1705 65.9779L60.1211 64.5611L56.5137 59.7311C57.4319 59.0549 59.7932 58.2177 61.0066 58.1211Z"
        fill="#232323" />
    <path
        d="M59.1041 51.843C58.8417 50.5228 60.8094 49.4924 61.2685 50.9736C61.4325 51.4888 61.4325 52.0362 61.2357 52.5514C61.0062 53.0666 60.5142 53.3886 59.9567 53.3886"
        fill="white" />
    <path
        d="M60.0233 53.5807H59.9249C59.7937 53.5807 59.6954 53.4519 59.6954 53.3231C59.6954 53.1943 59.8265 53.0977 59.9577 53.0977C60.4168 53.0977 60.8104 52.8401 61.0072 52.4215C61.1711 51.9707 61.2039 51.4877 61.0399 51.0047C60.876 50.4251 60.4496 50.4251 60.2201 50.4573C59.6298 50.6183 59.269 51.1657 59.3346 51.7453C59.3674 51.8741 59.269 52.0029 59.1378 52.0029C59.0067 52.0029 58.8755 51.9385 58.8755 51.8097C58.7443 50.9725 59.269 50.1675 60.1217 49.9743C60.712 49.8133 61.3351 50.1675 61.4991 50.7793C61.4991 50.8115 61.4991 50.8115 61.4991 50.8437C61.6958 51.4233 61.663 52.0351 61.4335 52.5825C61.1711 53.1943 60.6464 53.5485 60.0233 53.5807Z"
        fill="#232323" />
    <path
        d="M53.9221 53.6794C53.2662 52.5202 51.069 52.971 51.6921 54.3878C51.8888 54.903 52.2824 55.2894 52.7415 55.547C53.2334 55.8046 53.8237 55.708 54.2501 55.3538"
        fill="white" />
    <path
        d="M53.3978 55.9328C53.1355 55.9328 52.8731 55.8684 52.6435 55.7718C52.1188 55.482 51.6925 55.0312 51.4629 54.4838C51.1678 53.9686 51.3317 53.2924 51.8893 53.0026C51.9221 53.0026 51.922 52.9704 51.9548 52.9704C52.7419 52.6162 53.6602 52.8738 54.1193 53.5822C54.1849 53.6788 54.1521 53.8398 54.0209 53.9042C53.8897 53.9686 53.7586 53.9364 53.693 53.8076C53.365 53.2924 52.7091 53.1314 52.1844 53.3568C51.9876 53.4534 51.6597 53.711 51.922 54.2906C52.1188 54.7414 52.4468 55.0956 52.8731 55.3532C53.2666 55.5464 53.7586 55.5142 54.1193 55.2244C54.2177 55.1278 54.3489 55.1278 54.4472 55.2244C54.5456 55.321 54.5456 55.4498 54.4472 55.5464C54.1521 55.7718 53.7914 55.9328 53.3978 55.9328Z"
        fill="#232323" />
    <path
        d="M56.4812 59.7634C57.2027 60.3752 58.2521 60.5362 59.1376 60.182C60.0886 59.86 60.7773 59.0872 61.0069 58.1534L59.0392 53.4844L54.9727 54.9334L56.4812 59.7634Z"
        fill="white" />
    <path
        d="M58.1204 60.6013C57.4645 60.6013 56.8086 60.3759 56.3167 59.9251C56.2839 59.8929 56.2839 59.8607 56.2511 59.8285L54.7097 54.9985C54.6769 54.8697 54.7425 54.7409 54.8409 54.7087L58.9074 53.2597C59.0386 53.2275 59.1698 53.2597 59.2026 53.3885L61.1703 58.0575C61.2031 58.0897 61.2031 58.1541 61.2031 58.1863C60.9735 59.2167 60.2192 60.0539 59.1698 60.4081C58.8746 60.5047 58.4811 60.5691 58.1204 60.6013ZM56.6774 59.6353C57.3333 60.1505 58.2515 60.2793 59.0386 59.9573C59.8913 59.6675 60.5144 58.9913 60.744 58.1541L58.8746 53.7749L55.2016 55.0951L56.6774 59.6353Z"
        fill="#232323" />
    <path
        d="M55.6936 56.9616C56.1855 57.3158 56.743 57.509 57.3333 57.5734C58.3171 57.7344 59.6945 57.7988 60.6128 57.2836L59.6945 55.3516C59.0058 55.7058 58.2843 55.9634 57.5301 56.1244C56.8742 56.3176 56.2183 56.4464 55.5296 56.4464C55.4312 56.4464 55.4968 56.8006 55.6936 56.9616Z"
        fill="#232323" />
    <path
        d="M58.6791 57.9291C58.2199 57.9291 57.7608 57.8969 57.3017 57.8003C56.6786 57.7359 56.0883 57.5105 55.5636 57.1241C55.334 56.9631 55.2356 56.6733 55.3012 56.3835C55.334 56.2547 55.4652 56.1903 55.5963 56.1903C56.2522 56.1903 56.9081 56.0937 57.5312 55.9005C58.2527 55.7395 58.9742 55.4819 59.6301 55.1277C59.6957 55.0955 59.7613 55.0955 59.8269 55.1277C59.8925 55.1599 59.9253 55.1921 59.9581 55.2565L60.8763 57.1885C60.9419 57.2851 60.8763 57.4139 60.7779 57.4783C60.0892 57.8003 59.3678 57.9291 58.6791 57.9291ZM55.7603 56.6733C55.7931 56.7055 55.7931 56.7377 55.8259 56.7699C56.285 57.0919 56.8098 57.2851 57.3345 57.3495C57.9248 57.4461 59.3022 57.6071 60.286 57.1885L59.5645 55.6429C58.9086 55.9327 58.2527 56.1903 57.564 56.3513C57.0065 56.5445 56.3834 56.6411 55.7603 56.6733Z"
        fill="#232323" />
    <path
        d="M57.7603 56.5764L58.0882 56.4476C59.6952 55.868 60.515 54.1614 59.9247 52.5836L58.2522 48.1078C55.9565 47.1096 53.2674 48.0756 52.1523 50.2974L53.8249 54.7732C54.3824 56.351 56.1533 57.156 57.7603 56.5764Z"
        fill="white" />
    <path
        d="M56.415 47.7205C57.0381 47.7205 57.694 47.8493 58.2515 48.1391L59.9241 52.6149C60.5144 54.1927 59.6945 55.8993 58.0876 56.4789L57.7596 56.6077C57.4317 56.7365 57.0709 56.8009 56.7102 56.8009C55.4312 56.8009 54.2834 55.9959 53.8242 54.8367L52.1517 50.3609C52.6436 49.2661 53.5947 48.4289 54.7425 48.0747C55.3 47.8171 55.8575 47.7205 56.415 47.7205ZM56.415 47.2697C55.7919 47.2697 55.1688 47.3663 54.5785 47.5917C52.3485 48.3967 51.7254 50.1033 51.6926 50.1677C51.6598 50.2643 51.6598 50.3931 51.6926 50.4897L53.3651 54.9655C54.021 56.7687 56.0543 57.7025 57.8908 57.0263L58.2187 56.8975C60.0552 56.2535 61.0063 54.2571 60.3176 52.4539L58.6451 47.9781C58.6123 47.8815 58.5467 47.7849 58.4483 47.7205C57.858 47.3985 57.1365 47.2375 56.415 47.2697Z"
        fill="#232323" />
    <path d="M59.6612 61.4062L58.6445 61.0842L59.202 60.2148L60.2187 60.5368L59.6612 61.4062Z" fill="white" />
    <path
        d="M61.434 64.1438L61.5324 65.9148L61.1716 66.0436L60.0894 64.6268L59.3023 61.3102V61.278L59.2695 61.1814V61.117L59.7615 60.9238L59.7942 60.9882L59.8598 61.0848L61.434 64.1438Z"
        fill="white" />
    <path
        d="M54.9721 68.4908C54.8737 68.4908 54.8081 68.4264 54.7753 68.362L52.4469 63.6608C52.3813 63.5642 52.4141 63.4032 52.5452 63.3388C52.5452 63.3388 52.5452 63.3388 52.578 63.3388C52.6764 63.2744 52.8404 63.3066 52.906 63.4354L55.2344 68.1366C55.3 68.2654 55.2344 68.3942 55.136 68.4586C55.0376 68.4586 55.0049 68.4908 54.9721 68.4908Z"
        fill="#232323" />
    <path
        d="M67.7294 63.9168C67.631 63.9168 67.5326 63.8524 67.4998 63.7558L66.188 58.7004C66.1552 58.5716 66.2208 58.4427 66.352 58.4105C66.4832 58.3783 66.6144 58.4427 66.6472 58.5715L67.959 63.627C67.9918 63.7558 67.9262 63.8846 67.795 63.9168C67.7622 63.9168 67.7294 63.9168 67.7294 63.9168Z"
        fill="#232323" />
    <path
        d="M53.5288 54.1936C53.1025 52.7768 52.3482 51.1024 52.5777 50.716C52.8073 50.3296 53.1025 50.716 53.332 50.2974C53.5616 49.8788 53.3648 49.8466 53.3648 49.8466C53.3648 49.8466 54.3815 49.0738 54.939 48.9772C55.4965 48.8806 56.7755 48.8162 57.2674 48.14C57.2674 48.14 58.5136 48.8806 58.776 49.4602C59.0383 50.0398 59.4647 51.7142 59.5958 51.6498C59.727 51.5854 59.9566 50.072 59.891 49.3636C59.7598 48.0756 58.776 47.013 57.4642 46.8198C57.4642 46.8198 57.3002 46.0792 55.4309 46.2724C53.5616 46.4656 51.9546 47.6892 51.6267 48.3976C51.2332 49.428 51.1676 50.555 51.4627 51.6498C51.7251 52.4548 52.053 52.4548 52.053 52.4548L53.5288 54.1936Z"
        fill="white" />
    <path
        d="M53.5287 54.4198C53.4631 54.4198 53.3975 54.3876 53.3319 54.3554L51.8561 52.6488C51.6922 52.5844 51.397 52.3912 51.1674 51.715C50.8723 50.588 50.9379 49.3966 51.3642 48.3018C51.7578 47.4968 53.3975 46.241 55.3652 46.0478C56.9393 45.8868 57.4313 46.3698 57.5952 46.6274C58.9398 46.885 59.9565 48.012 60.0876 49.3644C60.1204 49.7186 59.9893 51.6506 59.6613 51.8438C59.5957 51.876 59.5301 51.876 59.4317 51.876C59.2678 51.8116 59.2022 51.6828 58.8742 50.6202C58.7431 50.2338 58.6119 49.8152 58.5135 49.5898C58.3495 49.2356 57.6936 48.7526 57.2673 48.495C56.7426 49.0102 55.7915 49.139 55.2012 49.2356L54.9388 49.2678C54.4797 49.4288 54.0206 49.6542 53.6271 49.9762C53.6271 50.1694 53.5943 50.3304 53.4959 50.4914C53.3975 50.7168 53.1679 50.8456 52.9056 50.8456C52.8072 50.8456 52.7744 50.8456 52.7416 50.91C52.6432 51.1032 53.0367 52.2302 53.2991 52.9708C53.4303 53.3894 53.5943 53.808 53.7254 54.1944C53.7582 54.291 53.7254 54.4198 53.6271 54.452C53.5943 54.4198 53.5615 54.4198 53.5287 54.4198ZM52.0201 52.198C52.0857 52.198 52.1185 52.2302 52.1513 52.2624L52.9056 53.1318C52.9056 53.0996 52.8728 53.0674 52.8728 53.0674C52.3809 51.6828 52.1513 50.9422 52.3481 50.6202C52.4464 50.427 52.676 50.2982 52.9056 50.3304C53.0368 50.3304 53.0368 50.3304 53.1023 50.2338C53.1351 50.1694 53.1679 50.105 53.1679 50.0406C53.1351 50.0084 53.1023 49.9762 53.1023 49.9118C53.0695 49.8152 53.1023 49.7508 53.2007 49.6864C53.2991 49.5898 54.283 48.8814 54.8733 48.7526L55.1356 48.7204C55.6931 48.656 56.6442 48.495 57.0377 48.012C57.1033 47.9154 57.2673 47.8832 57.3657 47.9476C57.4968 48.012 58.6775 48.7204 58.9398 49.3644C59.0382 49.622 59.1694 50.0406 59.3006 50.4592C59.3334 50.6202 59.3989 50.7812 59.4645 50.9422C59.5629 50.427 59.5957 49.9118 59.5957 49.3966C59.4973 48.2052 58.5791 47.2392 57.3657 47.0782C57.2673 47.0782 57.2017 46.9816 57.1689 46.9172C57.1689 46.9172 56.9721 46.402 55.3652 46.5308C53.5287 46.724 52.0201 47.9154 51.725 48.5272C51.3642 49.5254 51.2986 50.588 51.561 51.5862C51.8233 52.1336 52.0201 52.198 52.0201 52.198Z"
        fill="#232323" />
</svg>