<svg width="146" height="124" viewBox="0 0 146 124" fill="none" xmlns="http://www.w3.org/2000/svg">
    <path
        d="M145.616 98.434H0.389623C0.261218 98.434 0.132812 98.3394 0.132812 98.1818C0.132812 98.0243 0.229117 97.9297 0.389623 97.9297H145.616C145.744 97.9297 145.872 98.0243 145.872 98.1818C145.872 98.3394 145.744 98.434 145.616 98.434Z"
        fill="#D1D3D4" />
    <path d="M95.9249 72.8408L100.644 106.661L102.409 106.881L98.7177 72.4941L94.7051 72.8408" fill="#231F20" />
    <path
        d="M102.412 107.102H102.38L100.646 106.881C100.55 106.881 100.454 106.787 100.454 106.692L95.7667 72.9984L94.8037 73.0929C94.6753 73.0929 94.5469 72.9984 94.5469 72.8723C94.5469 72.7462 94.6432 72.6201 94.7716 72.6201L98.72 72.2734C98.8484 72.2734 98.9768 72.368 98.9768 72.4941L102.636 106.85C102.636 106.913 102.604 107.007 102.572 107.039C102.508 107.102 102.476 107.102 102.412 107.102ZM100.871 106.44L102.123 106.598L98.5274 72.7462L96.2161 72.9353L100.871 106.44Z"
        fill="#231F20" />
    <path d="M74.8671 3.65625H124.656L119.873 76.4021H70.084L74.8671 3.65625Z" fill="white" />
    <path
        d="M119.875 76.6542H70.086C70.0218 76.6542 69.9576 76.6226 69.9255 76.5911C69.8934 76.5281 69.8613 76.465 69.8613 76.402L74.6444 3.65618C74.6444 3.53011 74.7407 3.43555 74.8691 3.43555H124.658C124.722 3.43555 124.787 3.46707 124.819 3.49859C124.851 3.56162 124.883 3.62466 124.883 3.6877L120.1 76.4335C120.1 76.5281 120.003 76.6542 119.875 76.6542ZM70.3428 76.1814H119.65L124.401 3.90833H75.0938L70.3428 76.1814Z"
        fill="#231F20" />
    <path d="M77.4024 5.86328H121.863L117.368 74.1964H72.9082L77.4024 5.86328Z" fill="white" />
    <path
        d="M117.37 74.4153H72.9103C72.8461 74.4153 72.7819 74.3838 72.7498 74.3523C72.7177 74.3208 72.6855 74.2262 72.6855 74.1632L77.1797 5.83001C77.1797 5.70393 77.3081 5.60938 77.4365 5.60938H121.897C121.961 5.60938 122.025 5.64089 122.057 5.67241C122.089 5.70393 122.121 5.79849 122.121 5.86153L117.627 74.1947C117.595 74.3208 117.499 74.4153 117.37 74.4153ZM73.135 73.9425H117.114L121.576 6.11368H77.597L73.135 73.9425Z"
        fill="#D1D3D4" />
    <path
        d="M75.6994 0.220703H124.301C125.039 0.220703 125.681 0.788044 125.681 1.5445C125.681 1.57602 125.681 1.63906 125.681 1.67058L125.553 3.62475H73.998L74.1264 1.67058C74.1907 0.851082 74.8648 0.252222 75.6994 0.220703Z"
        fill="white" />
    <path
        d="M125.556 3.87684H74.001C73.9367 3.87684 73.8725 3.84532 73.8083 3.8138C73.7762 3.75076 73.7441 3.68772 73.7441 3.62468L73.8725 1.67051C73.9368 0.724938 74.7393 0.031519 75.6702 0H124.271C125.17 0 125.877 0.693418 125.909 1.54443C125.909 1.60747 125.909 1.63899 125.909 1.70203L125.78 3.6562C125.78 3.78228 125.684 3.87684 125.556 3.87684ZM74.2578 3.40405H125.331L125.459 1.67051C125.491 1.35532 125.363 1.04013 125.17 0.819496C124.946 0.598863 124.657 0.472785 124.336 0.472785H75.7023C74.9961 0.472785 74.4183 1.00861 74.3862 1.70203L74.2578 3.40405Z"
        fill="#231F20" />
    <path d="M74.1624 76.4023L68.9941 117.472H70.8881L77.5652 76.4023H74.1624Z" fill="white" />
    <path
        d="M70.886 117.692H68.9599C68.8957 117.692 68.8315 117.661 68.7673 117.629C68.7352 117.566 68.7031 117.503 68.7031 117.44L73.8714 76.4023C73.8714 76.2762 73.9998 76.1816 74.1282 76.1816H77.531C77.5952 76.1816 77.6594 76.2132 77.7236 76.2762C77.7557 76.3392 77.7878 76.4023 77.7878 76.4653L71.1428 117.503C71.1107 117.629 71.0144 117.692 70.886 117.692ZM69.2488 117.219H70.6934L77.2742 76.6229H74.3529L69.2488 117.219Z"
        fill="#231F20" />
    <path d="M114.093 76.4023L115.698 117.472H113.772L110.658 76.4023H114.093Z" fill="white" />
    <path
        d="M115.669 117.692H113.743C113.614 117.692 113.518 117.598 113.486 117.472L110.404 76.4338C110.404 76.3708 110.436 76.3077 110.469 76.2447C110.501 76.1816 110.565 76.1816 110.629 76.1816H114.032C114.16 76.1816 114.256 76.2762 114.256 76.4023L115.862 117.44C115.926 117.598 115.829 117.692 115.669 117.692C115.701 117.724 115.701 117.692 115.669 117.692ZM113.968 117.219H115.412L113.839 76.6229H110.918L113.968 117.219Z"
        fill="#231F20" />
    <path
        d="M35.7656 108.676V116.745L39.682 117.848L39.5857 116.209L41.3512 117.943C41.3512 117.943 51.9125 119.802 51.8483 118.415C51.7841 117.029 50.7248 116.272 49.4086 115.579C47.9641 114.854 44.2083 112.742 44.2083 112.742L43.6625 106.816"
        fill="white" />
    <path
        d="M49.9213 119.173C47.1285 119.173 42.5059 118.385 41.3181 118.196C41.286 118.196 41.2218 118.165 41.1897 118.133L39.8736 116.841L39.9378 117.881C39.9378 117.944 39.9057 118.039 39.8415 118.07C39.7773 118.133 39.7131 118.133 39.6168 118.102L35.7004 116.998C35.6041 116.967 35.5078 116.872 35.5078 116.778V108.709C35.5078 108.583 35.6041 108.457 35.7646 108.457C35.9251 108.457 36.0214 108.551 36.0214 108.709V116.62L39.4563 117.566L39.3921 116.242C39.3921 116.147 39.4563 116.053 39.5205 116.021C39.6168 115.99 39.7131 115.99 39.7773 116.053L41.5107 117.755C45.074 118.385 50.8843 119.11 51.6226 118.511C51.6547 118.48 51.6547 118.48 51.6547 118.48C51.5905 117.282 50.6917 116.557 49.3434 115.864C47.931 115.139 44.1751 113.059 44.143 113.027C44.0788 112.995 44.0467 112.932 44.0146 112.838L43.4368 106.912C43.4368 106.786 43.5331 106.66 43.6615 106.66C43.7899 106.66 43.8862 106.755 43.9183 106.849L44.4641 112.649C45.1061 112.995 48.2841 114.761 49.536 115.422C50.788 116.084 52.072 116.935 52.1041 118.448C52.1041 118.606 52.0399 118.763 51.9115 118.858C51.6226 119.079 50.8843 119.173 49.9213 119.173Z"
        fill="#231F20" />
    <path
        d="M24.1783 113.122L24.082 119.867L28.5762 121.033L28.6404 119.111L30.1813 121.506C30.1813 121.506 41.2562 123.901 41.834 122.452C42.4118 121.002 41.4167 118.827 38.6881 117.503C36.8904 116.684 35.0928 115.927 33.1988 115.297L32.5568 112.334"
        fill="white" />
    <path
        d="M39.8399 123.176C36.9187 123.176 32.0072 122.167 30.1454 121.758C30.0812 121.726 30.017 121.694 29.9849 121.663L28.8613 119.898L28.8292 121.064C28.8292 121.127 28.7971 121.19 28.7329 121.253C28.6687 121.285 28.6045 121.316 28.5403 121.285L24.0461 120.119C23.9498 120.087 23.8535 119.992 23.8535 119.898L23.9177 113.121C23.9177 112.995 24.014 112.901 24.1745 112.901C24.3029 112.901 24.3992 112.995 24.3992 113.153L24.335 119.74L28.3477 120.78L28.4119 119.141C28.4119 119.015 28.5082 118.921 28.6366 118.921C28.7329 118.921 28.7971 118.952 28.8292 119.047L30.3059 121.379C35.5063 122.514 41.2845 123.239 41.5734 122.451C42.087 121.096 41.2203 119.078 38.5238 117.818C36.7582 116.998 34.9284 116.242 33.0666 115.611C32.9703 115.58 32.9382 115.517 32.9061 115.454L32.264 112.491C32.2319 112.365 32.3282 112.239 32.4566 112.207C32.585 112.176 32.7135 112.27 32.7456 112.396L33.3555 115.233C35.1853 115.863 36.9829 116.588 38.7164 117.408C41.6376 118.795 42.5685 121.096 41.9907 122.64C41.8944 123.018 41.0277 123.176 39.8399 123.176Z"
        fill="#231F20" />
    <path
        d="M21.6074 63.8575L23.2125 114.036L35.6678 114.099L35.5073 111.262L45.0092 111.609L47.16 56.9863L21.6074 63.8575Z"
        fill="#231F20" />
    <path
        d="M35.6687 114.319L23.2134 114.256C23.085 114.256 22.9887 114.161 22.9566 114.035L21.3516 63.857C21.3516 63.7625 21.4158 63.6364 21.5442 63.6049L47.1289 56.7338C47.1931 56.7022 47.2894 56.7338 47.3536 56.7653C47.4178 56.7968 47.4499 56.8914 47.4499 56.9544L45.267 111.577C45.267 111.703 45.1707 111.797 45.0102 111.797L35.7971 111.451L35.9255 114.004C35.9255 114.224 35.8292 114.319 35.6687 114.319ZM23.4702 113.815L35.4119 113.846L35.2835 111.262C35.2835 111.199 35.3156 111.136 35.3477 111.072C35.3798 111.041 35.4761 111.009 35.5403 111.009L44.7855 111.356L46.9362 57.3011L21.8652 64.0146L23.4702 113.815Z"
        fill="#231F20" />
    <path
        d="M69.8544 14.4024C69.9186 14.2764 70.0149 14.1503 70.1433 14.1188C70.4322 14.0557 70.4964 14.497 70.4322 14.7807L69.6938 18.1217C70.8816 16.1045 72.1977 14.1503 73.6744 12.3222C73.7386 12.2276 73.8349 12.1331 73.9633 12.1016C74.2522 12.1016 74.2522 12.5428 74.1238 12.795C73.3534 14.497 72.3903 16.073 71.2347 17.5228L73.9633 13.6775C74.2522 13.2362 74.5732 12.858 74.9906 12.5428C75.1832 12.9526 75.0227 13.4569 74.7979 13.8666C74.2522 15.0328 73.6102 16.136 72.8719 17.2076C73.867 15.6317 75.0227 14.1503 76.3067 12.795C76.4993 13.646 76.1141 14.5285 75.6326 15.2535C75.1511 15.9784 74.509 16.6403 74.1559 17.4598C74.8942 16.4197 75.6968 15.4426 76.5956 14.5285C76.724 14.3394 76.9487 14.2449 77.1413 14.2449C77.366 14.3079 77.5265 14.5285 77.5265 14.7492C77.4944 14.9698 77.4302 15.1904 77.2697 15.3795C75.3758 18.563 73.0645 21.4627 70.4001 24.0473C70.2396 24.2049 68.0246 22.2507 67.832 22.03C67.2863 21.5257 67.0294 20.8323 67.0936 20.1074C67.3826 18.2162 68.9876 16.1045 69.8544 14.4024Z"
        fill="white" />
    <path
        d="M70.4629 24.3001C69.9813 24.3001 67.7664 22.2199 67.7343 22.1884C67.0922 21.495 66.8354 20.8331 66.9317 20.0766C67.0922 18.6267 67.9911 17.1138 68.7936 15.7585C69.1146 15.2227 69.4035 14.7184 69.6282 14.2456C69.6924 14.0565 69.885 13.8989 70.0776 13.8358C70.2382 13.8043 70.3987 13.8674 70.495 13.9619C70.6876 14.2141 70.7197 14.4977 70.6555 14.7814L70.2382 16.7041C71.2333 15.1281 72.3247 13.5837 73.4804 12.1023C73.5767 11.9132 73.7693 11.8186 73.9619 11.7871C74.1224 11.7871 74.2829 11.8501 74.3471 11.9762C74.4755 12.1969 74.4755 12.449 74.4113 12.6696C74.5397 12.512 74.7002 12.386 74.8607 12.2599C74.957 12.1969 75.1175 12.1969 75.1817 12.3229L75.2138 12.3545C75.3744 12.7957 75.3422 13.2685 75.1175 13.6782C75.4386 13.3 75.7917 12.9218 76.1127 12.5751C76.1769 12.512 76.2732 12.4805 76.3374 12.512C76.4337 12.5436 76.4979 12.6066 76.4979 12.7012C76.6263 13.2685 76.5621 13.8674 76.3053 14.4032L76.4016 14.3086C76.5942 14.088 76.851 13.9619 77.172 13.9619C77.5251 14.025 77.7819 14.3401 77.7819 14.7184C77.7498 15.002 77.6535 15.2542 77.493 15.4748C75.5991 18.6898 73.2878 21.621 70.5913 24.2056C70.5913 24.2686 70.5271 24.3001 70.4629 24.3001ZM70.1419 14.3401C70.1419 14.3401 70.1097 14.3717 70.0455 14.4977C69.7887 14.9705 69.4998 15.5063 69.1788 16.0422C68.4084 17.366 67.5416 18.8158 67.3811 20.1712C67.3169 20.77 67.5095 21.3058 68.0553 21.9047C68.7936 22.5981 69.564 23.2285 70.3666 23.8274C72.9989 21.3058 75.2459 18.4376 77.1078 15.2857C77.2362 15.1281 77.3004 14.939 77.3325 14.7499C77.3325 14.6238 77.2683 14.4977 77.172 14.4662C77.0757 14.4347 76.9152 14.5608 76.8189 14.6869C75.9201 15.5694 75.1175 16.5465 74.3792 17.5866C74.315 17.6812 74.1545 17.7127 74.0582 17.6496C73.9298 17.5866 73.8977 17.4605 73.9619 17.3345C74.2187 16.7986 74.5718 16.2628 74.957 15.79C75.1175 15.5694 75.3102 15.3488 75.4707 15.0966C75.8559 14.5608 76.1127 13.9619 76.1448 13.3C75.2459 14.2771 74.4434 15.3172 73.673 16.4204C73.4804 16.7356 73.2878 17.0193 73.0952 17.3029C73.031 17.3975 72.8705 17.429 72.7741 17.366C72.6778 17.3029 72.6457 17.1453 72.7099 17.0508C72.9026 16.7356 73.0952 16.4519 73.2878 16.1682C73.7693 15.3803 74.2187 14.5608 74.636 13.7413C74.7644 13.4891 74.8607 13.237 74.8928 12.9533C74.636 13.2055 74.4113 13.4891 74.2187 13.8043L72.9026 15.6639C72.4852 16.3574 72.0037 17.0193 71.4901 17.6496C71.4259 17.7442 71.2654 17.7757 71.1691 17.6812C71.0728 17.6181 71.0407 17.4605 71.1049 17.366L72.4852 15.4118C73.031 14.5293 73.5125 13.6152 73.9619 12.7012C74.0261 12.5751 74.0261 12.449 73.994 12.3229C73.994 12.3545 73.9619 12.3545 73.8977 12.449C72.421 14.2771 71.1049 16.1998 69.9171 18.217C69.8529 18.3431 69.6924 18.3746 69.5961 18.3115C69.4998 18.2485 69.4356 18.1539 69.4677 18.0594L70.2061 14.7184C70.2382 14.5923 70.2061 14.4662 70.1419 14.3401Z"
        fill="#231F20" />
    <path d="M65.2012 20.992L66.3568 19.6367L71.6214 23.5766L70.1127 25.5308L65.2012 20.992Z" fill="#231F20" />
    <path
        d="M70.1117 25.7501C70.0475 25.7501 69.9833 25.7186 69.9512 25.687L65.0397 21.1483C64.9434 21.0537 64.9434 20.9277 65.0076 20.8331L66.1633 19.4778C66.2596 19.3832 66.388 19.3832 66.4843 19.4463L71.7489 23.3546C71.8452 23.4177 71.8773 23.5753 71.781 23.6698L70.3043 25.624C70.2722 25.687 70.208 25.7501 70.1117 25.7501ZM65.5213 20.9907L70.0796 25.1827L71.2674 23.6383L66.388 19.9506L65.5213 20.9907Z"
        fill="#231F20" />
    <path
        d="M39.5527 21.4655L40.7726 21.9698C45.0741 23.7979 56.2454 29.3137 56.759 29.1246C57.3368 28.904 64.8806 20.0156 64.8806 20.0156L71.333 25.4054C71.333 25.4054 63.2755 39.8411 58.8135 39.652C54.3514 39.4628 42.2492 33.6949 42.2492 33.6949"
        fill="#003090" />
    <path
        d="M53.7066 42.1102C53.7066 42.1102 55.6648 41.4483 56.0821 40.4712C56.4994 39.4942 57.5588 36.2477 58.0724 36.1847C58.586 36.1216 58.8749 36.6575 58.586 37.7921C58.2971 38.9268 58.0403 40.944 58.0403 40.9755C58.1045 40.5973 66.6113 41.0071 67.4139 41.0386C67.767 41.0701 68.2164 41.2277 68.1201 41.5429C68.0559 41.732 67.8312 41.8266 67.6065 41.8581C65.7446 42.2363 63.8506 42.4885 61.9245 42.5515L65.8409 42.583C66.4187 42.583 67.1249 42.6461 67.4139 43.1504C66.0335 43.3395 64.6532 43.4655 63.2728 43.5601L67.2212 43.9068C67.4781 43.9383 67.8312 44.1274 67.6707 44.3481C66.2903 44.5372 64.91 44.6948 63.5296 44.7893C64.621 44.8839 65.7767 44.9785 66.7718 45.4197C66.9323 45.4828 67.1249 45.6088 67.1249 45.7664C67.1249 45.924 66.8681 46.0816 66.6434 46.1131C65.3915 46.3338 64.0432 46.0816 62.7592 46.0186C61.122 45.9555 59.4528 45.8925 57.8156 45.7664C57.3341 45.7349 53.3856 46.5229 53.3535 47.0902L53.7066 42.1102Z"
        fill="white" />
    <path
        d="M53.42 47.3414C53.2916 47.3414 53.1953 47.2154 53.1953 47.0893L53.4842 42.0778C53.4842 41.9832 53.5484 41.8887 53.6447 41.8571C54.1584 41.668 55.5708 41.0692 55.8918 40.3442C56.0202 40.0921 56.1807 39.6823 56.3412 39.178C57.1759 36.9402 57.6253 35.9946 58.0747 35.9316C58.2994 35.9 58.5562 35.9631 58.7167 36.1522C59.0056 36.4674 59.0377 37.0347 58.8451 37.8542C58.6525 38.6737 58.4599 39.9975 58.3315 40.6594C59.1661 40.5333 61.4132 40.5018 67.4483 40.7855C67.7693 40.7855 68.0903 40.9116 68.2829 41.1322C68.3792 41.2583 68.4113 41.4159 68.3792 41.5735C68.2829 41.9517 67.8335 42.0463 67.7051 42.0778C67.1915 42.1723 66.6778 42.2669 66.1642 42.3614C66.742 42.393 67.3841 42.519 67.6409 43.0549C67.673 43.1179 67.673 43.2125 67.6409 43.2755C67.6088 43.3385 67.5446 43.4016 67.4483 43.4016C66.9988 43.4646 66.5494 43.5276 66.0679 43.5592L67.2557 43.6537C67.5446 43.6537 67.8014 43.8113 67.9298 44.0635C67.994 44.1895 67.9619 44.3471 67.8977 44.4732C67.8656 44.5363 67.8014 44.5678 67.7372 44.5678C67.063 44.6623 66.421 44.7569 65.7469 44.8199C66.1321 44.9145 66.5173 45.0406 66.9025 45.1666C67.3199 45.3557 67.3841 45.5764 67.3841 45.7655C67.3841 45.9546 67.3199 46.2383 66.7099 46.3328C65.779 46.4589 64.8481 46.4589 63.9171 46.3328C63.5319 46.3013 63.1467 46.2698 62.7936 46.2383C61.2527 46.1752 59.5514 46.1122 57.85 45.9861C57.3364 45.9546 53.9336 46.6795 53.6447 47.1208C53.6447 47.2469 53.5163 47.3414 53.42 47.3414ZM53.9336 42.2669C53.9015 42.9288 53.741 45.4188 53.6768 46.5535C54.7683 46.0176 57.4648 45.5133 57.8821 45.5449C59.5835 45.6709 61.2848 45.734 62.8257 45.797C63.2109 45.8285 63.5961 45.8601 63.9813 45.8916C64.8802 46.0176 65.779 46.0176 66.6457 45.8916C66.8383 45.8601 66.9025 45.797 66.9346 45.7655C66.9667 45.734 66.9025 45.7025 66.742 45.6394C65.7469 45.1982 64.6234 45.1351 63.564 45.0406C63.4356 45.0406 63.3393 44.9145 63.3393 44.7884C63.3393 44.6623 63.4356 44.5678 63.564 44.5363C64.816 44.4417 66.0679 44.3156 67.3199 44.158C67.2878 44.158 67.2557 44.158 67.2557 44.1265L63.3072 43.7798C63.1788 43.7798 63.0825 43.6852 63.0825 43.5592C63.0825 43.4331 63.1788 43.3385 63.3072 43.3385C64.527 43.2755 65.7469 43.1494 66.9346 42.9918C66.6136 42.8657 66.2284 42.8027 65.8753 42.8027L61.959 42.7712C61.8305 42.7712 61.7342 42.6766 61.7342 42.5506C61.7342 42.4245 61.8305 42.3299 61.959 42.2984C63.8529 42.2038 65.7469 41.9832 67.5767 41.605C67.8656 41.5419 67.8977 41.4789 67.8977 41.4474V41.4159C67.7693 41.2898 67.5767 41.2583 67.4162 41.2583C63.3393 41.0692 58.7488 40.9431 58.2031 41.1322C58.1389 41.1952 58.0747 41.1952 58.0105 41.1952C57.8821 41.1952 57.7858 41.0692 57.7858 40.9431C57.85 40.5649 58.1068 38.7998 58.3315 37.7597C58.5562 36.8456 58.3636 36.5619 58.2994 36.4989C58.2352 36.4359 58.1389 36.4044 58.0747 36.4359C57.7858 36.5935 57.0796 38.4846 56.7264 39.3987C56.5338 39.903 56.3733 40.3127 56.2449 40.5964C55.8918 41.4474 54.4152 42.0778 53.9336 42.2669Z"
        fill="#231F20" />
    <path
        d="M30.7248 20.9284C30.7248 20.9284 20.7734 24.0488 19.1683 28.0517C17.5633 32.0546 21.0944 63.8888 21.0944 63.8888L49.5682 63.9518C49.5682 63.9518 47.3532 31.046 45.7481 26.5073C44.1431 21.9686 35.6363 19.4786 30.7248 20.9284Z"
        fill="#003090" />
    <path
        d="M30.3711 23.5126L38.7495 46.8051C38.7495 46.8051 39.841 28.398 39.3273 24.8994C38.8137 21.4008 30.3711 23.5126 30.3711 23.5126Z"
        fill="white" />
    <path
        d="M34.127 25.4665L36.2135 28.1141L36.1814 39.713L38.7495 46.8048L39.231 39.713L37.0161 28.0825L38.1717 25.2773L34.127 25.4665Z"
        fill="#D1D3D4" />
    <path
        d="M39.5851 1.51275C40.2271 1.95401 40.8691 2.52136 41.5112 2.86807C42.6668 3.52996 43.983 3.90819 45.3312 3.97123C45.6843 3.97123 45.2349 6.96553 45.1707 7.2492C44.8818 8.35237 44.3361 9.3925 43.5977 10.275C42.9236 11.063 42.1853 11.7879 41.447 12.4814C40.4839 13.3954 38.911 13.616 37.659 13.8682C36.5676 14.0888 35.3798 14.4671 34.2884 14.5616C33.1969 14.6562 31.8487 14.8453 30.8214 14.4986C29.4732 14.0258 28.6065 12.4183 28.0607 11.2206C27.3866 9.67617 27.1298 7.94262 27.6113 6.33515C27.7718 5.70477 28.1249 5.16895 28.5744 4.72768C29.1522 4.22338 29.7621 4.22338 30.4683 4.16034C30.3399 3.27781 30.5967 2.80503 31.3351 2.17465C33.0364 0.693254 36.1503 0.378064 38.301 0.913887C38.7826 1.00844 39.1999 1.22908 39.5851 1.51275Z"
        fill="white" />
    <path
        d="M32.2638 14.9398C31.7502 14.9398 31.2045 14.8768 30.6908 14.7192C29.5994 14.341 28.6043 13.2063 27.8017 11.3151C27.256 10.0544 26.7424 8.19476 27.3523 6.2721C27.5449 5.6102 27.898 5.01134 28.3796 4.53855C28.9574 4.03425 29.5673 3.97121 30.1772 3.90817C30.113 3.1202 30.4019 2.58438 31.1403 1.954C32.97 0.378048 36.2123 0.0943771 38.3309 0.661719C38.8125 0.787795 39.2619 1.03995 39.6471 1.32362C39.9039 1.48121 40.1607 1.67033 40.3854 1.85944C40.7385 2.14311 41.1558 2.42678 41.5411 2.64741C42.6646 3.30931 43.9487 3.68754 45.2648 3.71906C45.3611 3.71906 45.4574 3.7821 45.5216 3.84514C45.8747 4.31792 45.3611 7.24919 45.329 7.28071C45.008 8.41539 44.4623 9.48703 43.7239 10.4011C43.0498 11.1891 42.3115 11.9455 41.5411 12.6389C40.6101 13.5215 39.1977 13.7736 37.9457 14.0258L37.6568 14.0888C37.2395 14.1518 36.8222 14.2779 36.4049 14.3725C35.6986 14.5616 34.9924 14.6877 34.2541 14.7822L33.9973 14.8137C33.4516 14.9083 32.8416 14.9398 32.2638 14.9398ZM36.2123 0.882351C34.5109 0.882351 32.649 1.32362 31.4934 2.33222C30.7871 2.93108 30.6266 3.34083 30.7229 4.09729C30.7229 4.16032 30.7229 4.22336 30.6587 4.2864C30.6266 4.34944 30.5624 4.38096 30.4982 4.38096L30.2735 4.41248C29.6636 4.47551 29.1821 4.50704 28.7327 4.91678C28.2833 5.32653 27.9943 5.86235 27.8338 6.42969C27.2881 8.22627 27.7696 9.99134 28.2512 11.1575C29.0216 12.9226 29.8883 13.9627 30.8514 14.3094C31.7502 14.6246 32.97 14.4986 33.9652 14.3725L34.222 14.341C34.9282 14.2464 35.6344 14.1203 36.3086 13.9312C36.7259 13.8367 37.1753 13.7106 37.5926 13.6475L37.8815 13.5845C39.0693 13.3639 40.4175 13.1117 41.2522 12.3237C42.0226 11.6303 42.7288 10.9054 43.4029 10.1174C44.1092 9.2664 44.6549 8.25779 44.9438 7.18615C45.0401 6.87096 45.329 4.72767 45.2327 4.22336C43.8845 4.16033 42.5683 3.7821 41.4127 3.08868C40.9953 2.83653 40.578 2.55286 40.1928 2.23767C39.9681 2.04855 39.7113 1.85944 39.4866 1.70184C39.1335 1.44969 38.7483 1.22906 38.2988 1.10298C37.5926 0.945388 36.9185 0.882351 36.2123 0.882351Z"
        fill="#231F20" />
    <path
        d="M39.3607 19.3839L39.8101 24.2064C39.8101 24.2064 37.7235 26.6333 34.5134 25.9399C31.3033 25.2465 30.8218 23.1032 30.8218 23.1032L30.6934 14.3094C30.6934 14.3094 33.0046 13.0486 32.2342 8.03711C32.2342 8.03711 37.1457 9.42395 41.8646 8.73053C41.8646 8.73053 42.0572 14.4039 41.7041 16.8309C41.351 19.2579 39.3607 19.3839 39.3607 19.3839Z"
        fill="white" />
    <path
        d="M35.6672 26.3183C35.2499 26.3183 34.8647 26.2868 34.4795 26.1922C31.173 25.4673 30.6273 23.2925 30.5952 23.1979C30.5952 23.1664 30.5952 23.1664 30.5952 23.1349L30.4668 14.3411C30.4668 14.2465 30.4989 14.1835 30.5952 14.1205C30.6273 14.1205 32.7781 12.8282 32.0077 8.06883C32.0077 7.97427 32.0398 7.91123 32.0719 7.84819C32.1361 7.78516 32.2324 7.78516 32.2966 7.78516C32.3608 7.78516 37.2402 9.14047 41.8306 8.47857C41.8948 8.47857 41.959 8.47857 42.0232 8.54161C42.0874 8.57313 42.1195 8.63617 42.1195 8.73073C42.1195 8.95136 42.3122 14.4357 41.959 16.8626C41.6701 18.9114 40.2256 19.4472 39.6477 19.5733L40.0972 24.175C40.0972 24.2381 40.0972 24.3011 40.033 24.3641C39.9046 24.4587 38.2674 26.3183 35.6672 26.3183ZM31.0446 23.1034C31.1088 23.324 31.7187 25.1206 34.5437 25.7195C37.2402 26.3183 39.1662 24.5217 39.5193 24.112L39.0699 19.3841C39.0699 19.3211 39.0699 19.2581 39.1341 19.195C39.1662 19.132 39.2304 19.132 39.2946 19.1005C39.3588 19.1005 41.0923 18.9429 41.4133 16.7681C41.7022 14.6878 41.6059 10.1176 41.5738 8.98288C37.6896 9.48718 33.6769 8.63617 32.4571 8.3525C33.0349 12.576 31.3656 14.089 30.8841 14.4357L31.0446 23.1034Z"
        fill="#231F20" />
    <path
        d="M32.5233 14.1513C32.3949 13.7101 32.138 13.3634 31.7849 13.0797C31.4318 12.8591 31.0787 12.67 30.6614 12.5439C30.4367 12.4493 30.212 12.4178 29.9873 12.4493C29.8268 12.4808 29.6663 12.5439 29.5378 12.6069C29.1847 12.7645 28.9279 13.0482 28.7995 13.4264C28.7353 13.7101 28.7032 14.0253 28.7674 14.3089C28.7995 14.6241 28.8958 14.9393 29.0242 15.2545C29.6021 16.4838 31.0787 17.0511 32.3307 16.4838H32.3628"
        fill="white" />
    <path
        d="M31.3356 16.9567C30.2442 16.9567 29.2811 16.3579 28.8317 15.3808C28.7033 15.0656 28.607 14.7189 28.5428 14.3722C28.4786 14.0255 28.4786 13.7103 28.5749 13.3636C28.7354 12.9538 29.0243 12.6071 29.4416 12.418C29.6021 12.3235 29.7947 12.2604 29.9873 12.2289C30.2442 12.1974 30.5331 12.2604 30.7578 12.355C31.1751 12.4811 31.5924 12.6702 31.9455 12.9223C32.3307 13.2375 32.6196 13.6473 32.7481 14.12C32.7802 14.2461 32.6839 14.3722 32.5554 14.4037C32.427 14.4352 32.2986 14.3722 32.2665 14.2461C32.1702 13.8679 31.9455 13.5527 31.6245 13.3005C31.3035 13.0799 30.9504 12.9223 30.5652 12.7962C30.3726 12.7332 30.18 12.7017 29.9873 12.7017C29.8589 12.7332 29.7305 12.7647 29.6342 12.8278C29.3453 12.9854 29.1206 13.206 28.9922 13.4897C28.928 13.7418 28.928 14.0255 28.9922 14.2776C29.0243 14.5928 29.1206 14.8765 29.249 15.1602C29.7626 16.2949 31.1109 16.7676 32.2665 16.2633H32.2986C32.427 16.2003 32.5554 16.2633 32.6196 16.3894C32.6839 16.5155 32.6196 16.6416 32.5233 16.7046C32.1702 16.8622 31.7529 16.9567 31.3356 16.9567Z"
        fill="#231F20" />
    <path
        d="M39.4551 21.811C38.2674 21.9686 37.0797 21.6219 36.1808 20.8339C34.7684 19.5416 34.8647 18.7852 34.8647 18.7852C34.8647 18.7852 37.1439 19.9514 39.2304 19.5101L39.4551 21.811Z"
        fill="#231F20" />
    <path
        d="M38.945 22.0635C37.8856 22.0635 36.8584 21.6853 36.0559 20.9919C34.5792 19.6681 34.6434 18.8171 34.6755 18.7225C34.6755 18.6595 34.7397 18.5649 34.8039 18.5334C34.8681 18.5019 34.9644 18.5019 35.0286 18.5334C35.0607 18.5334 37.2436 19.6681 39.2018 19.2268C39.266 19.1953 39.3302 19.2268 39.3944 19.2583C39.4586 19.2899 39.4907 19.3529 39.4907 19.4159L39.7475 21.7483C39.7475 21.8744 39.6833 21.969 39.5549 22.0005C39.3302 22.0635 39.1376 22.0635 38.945 22.0635ZM35.2212 19.1638C35.478 19.7311 35.8954 20.2354 36.3769 20.6452C37.1473 21.3386 38.1745 21.6538 39.2339 21.5907L39.0413 19.7626C37.5004 19.9833 35.9596 19.479 35.2212 19.1638Z"
        fill="#231F20" />
    <path
        d="M38.1736 11.5352C38.1736 11.5352 39.9712 13.8676 39.586 14.3088C39.2008 14.7501 38.1094 14.5295 38.1094 14.5295"
        fill="white" />
    <path
        d="M38.6866 14.845C38.4619 14.845 38.2692 14.8135 38.0445 14.782C37.9161 14.7504 37.8198 14.6559 37.8519 14.4983C37.884 14.3722 37.9803 14.2777 38.1408 14.3092C38.1408 14.3092 38.1408 14.3092 38.1729 14.3092C38.4939 14.3722 39.2323 14.4037 39.4249 14.1831C39.4891 13.9625 38.8471 12.7963 37.9803 11.6931C37.9161 11.5986 37.9161 11.441 38.0445 11.3779C38.1408 11.3149 38.3013 11.3149 38.3655 11.4094C39.0718 12.355 40.2274 13.9625 39.778 14.4983C39.4891 14.7504 39.0718 14.8765 38.6866 14.845Z"
        fill="#231F20" />
    <path
        d="M35.5013 12.1758C35.7235 12.1154 35.8346 11.8217 35.7495 11.5197C35.6644 11.2177 35.4154 11.0218 35.1932 11.0822C34.9711 11.1425 34.86 11.4362 34.9451 11.7382C35.0301 12.0402 35.2792 12.2361 35.5013 12.1758Z"
        fill="#231F20" />
    <path
        d="M39.806 11.9883C40.0281 11.9279 40.1392 11.6342 40.0542 11.3322C39.9691 11.0302 39.72 10.8343 39.4979 10.8947C39.2758 10.955 39.1647 11.2487 39.2498 11.5507C39.3348 11.8527 39.5839 12.0486 39.806 11.9883Z"
        fill="#231F20" />
    <path
        d="M38.0116 16.1063C37.9795 16.2009 37.9474 16.3269 37.9153 16.4215C37.819 16.7682 37.8832 17.1779 38.0758 17.4616C38.3006 17.7768 38.75 17.8398 39.071 17.6192C39.2315 17.4616 39.3278 17.241 39.3278 17.0203C39.3599 16.7682 39.3278 16.4845 39.2315 16.2639C39.1352 16.0117 38.8784 15.8541 38.6216 15.7911C38.3327 15.7596 38.0758 15.9172 38.0116 16.1693"
        fill="#231F20" />
    <path
        d="M38.7147 17.9982H38.6184C38.3295 17.9666 38.0727 17.8406 37.9122 17.6199C37.6554 17.2417 37.5591 16.8004 37.6875 16.3592C37.7196 16.2331 37.7517 16.1385 37.7838 16.0125C37.8159 15.9494 37.848 15.8864 37.9122 15.8864C38.1048 15.6658 38.3616 15.5397 38.6505 15.5712C39.0036 15.6342 39.2925 15.8549 39.4531 16.1701C39.5815 16.4537 39.6136 16.7689 39.5815 17.0526C39.5815 17.3363 39.4531 17.5884 39.2283 17.7775C39.0999 17.9351 38.9073 17.9982 38.7147 17.9982ZM38.2011 16.3907L38.169 16.4853C38.0727 16.7689 38.1369 17.0841 38.2974 17.3363C38.3937 17.4623 38.5221 17.5254 38.6826 17.5254C38.7789 17.5254 38.8752 17.5254 38.9394 17.4623C39.0357 17.3363 39.0999 17.1787 39.132 17.0211C39.1641 16.8004 39.132 16.5798 39.0678 16.3907C39.0036 16.2331 38.8431 16.107 38.6505 16.0755C38.49 16.044 38.3295 16.1385 38.2974 16.2961C38.2332 16.3277 38.2011 16.3592 38.2011 16.3907Z"
        fill="#231F20" />
    <path d="M30.6621 4.79102C30.9831 5.35836 31.272 5.9257 31.5288 6.49304L30.6621 4.79102Z" fill="white" />
    <path
        d="M31.527 6.74539C31.4307 6.74539 31.3344 6.68235 31.3023 6.5878C31.0455 6.02046 30.7566 5.45311 30.4676 4.88577C30.4034 4.7597 30.4355 4.63362 30.564 4.57058C30.6924 4.50754 30.8208 4.53906 30.885 4.66514C31.206 5.23248 31.4949 5.79982 31.7517 6.39868C31.8159 6.52476 31.7517 6.65084 31.6233 6.71387C31.5912 6.74539 31.5591 6.74539 31.527 6.74539Z"
        fill="#231F20" />
    <path d="M51.4609 40.9432L53.5796 40.502L55.4736 47.5937L52.2314 47.8459L51.4609 40.9432Z" fill="#231F20" />
    <path
        d="M52.2334 48.0966C52.105 48.0966 52.0087 48.002 52.0087 47.876L51.2383 40.9418C51.2383 40.8157 51.3025 40.7212 51.4309 40.6896L53.5175 40.2484C53.6459 40.2169 53.7743 40.3114 53.8064 40.406L55.7325 47.4977C55.7646 47.5608 55.7325 47.6238 55.7004 47.6869C55.6682 47.7499 55.604 47.7814 55.5077 47.7814L52.2334 48.0966ZM51.7198 41.0994L52.426 47.5923L55.1546 47.3717L53.357 40.7527L51.7198 41.0994Z"
        fill="#231F20" />
    <path
        d="M20.6758 34.1047C20.6758 34.1047 23.0513 55.5691 26.0046 55.5061C28.9579 55.4431 54.0932 48.1622 54.0932 48.1622L52.2955 40.0933L30.8198 41.3541C30.8198 41.3541 31.1087 28.9356 28.7653 28.3367C26.4219 27.7379 21.6709 28.5259 20.6758 34.1047Z"
        fill="#003090" />
    <path
        d="M28.7033 54.0232C27.5798 54.0232 26.7773 53.8656 26.4242 53.5189C24.5944 51.7854 21.9621 43.8426 20.678 40.0288C20.3891 39.2093 20.1644 38.4843 20.0681 38.2952C20.036 38.2322 20.0039 38.1692 20.0039 38.1061C20.0039 37.98 20.1002 37.8855 20.2286 37.8855C20.4533 37.854 20.4533 37.854 21.1274 39.9027C22.2831 43.4013 25.0117 51.5332 26.7452 53.2037C28.607 54.9688 46.4232 50.2409 53.1003 48.2867C53.2287 48.2237 53.3571 48.2867 53.4213 48.4128C53.4855 48.5389 53.4213 48.665 53.2929 48.728H53.2608C51.1742 49.3269 34.9952 54.0232 28.7033 54.0232Z"
        fill="#231F20" />
    <path
        d="M31.7864 42.2042C31.658 42.2042 31.5617 42.1412 31.5617 42.0151L28.5121 28.4304C28.48 28.3043 28.5763 28.1783 28.7047 28.1467C28.8331 28.1152 28.9615 28.2098 28.9936 28.3358L31.979 41.7314L50.2767 40.2185C50.4051 40.2185 50.5335 40.3131 50.5335 40.4391C50.5335 40.5652 50.4372 40.6913 50.3088 40.6913L31.7864 42.2042Z"
        fill="#231F20" />
    <path
        d="M35.795 111.168C35.6666 111.168 35.5703 111.042 35.5703 110.916L37.7853 68.3654C37.7853 68.2394 37.8816 68.1133 38.01 68.1133C38.1384 68.1133 38.2668 68.2078 38.2668 68.3339C38.2668 68.3654 38.2668 68.3654 38.2668 68.397L36.0839 110.948C36.0518 111.074 35.9234 111.168 35.795 111.168Z"
        fill="white" />
    <path
        d="M23.629 70.1292C23.5006 70.1292 23.4043 70.0346 23.4043 69.877C23.4043 69.7825 23.4685 69.7194 23.5327 69.6564C25.2662 68.7423 26.3576 66.9773 26.4218 65.0546C26.4218 64.9285 26.5181 64.834 26.6786 64.834C26.807 64.834 26.9033 64.9285 26.9033 65.0861C26.8391 67.1979 25.6514 69.0891 23.7574 70.0977C23.6932 70.0977 23.6611 70.1292 23.629 70.1292Z"
        fill="white" />
    <path d="M69.8574 17.9336C70.6921 18.69 71.0773 19.7932 70.8847 20.8964L69.8574 17.9336Z" fill="white" />
    <path
        d="M70.8811 21.1494H70.849C70.7206 21.1178 70.6243 20.9918 70.6564 20.8657C70.8169 19.8571 70.4638 18.8169 69.6933 18.1235C69.597 18.029 69.597 17.8714 69.6933 17.7768C69.7896 17.7138 69.918 17.6823 70.0143 17.7453C70.9132 18.5648 71.3305 19.7625 71.1379 20.9287C71.0737 21.0548 70.9774 21.1494 70.8811 21.1494Z"
        fill="#231F20" />
    <path
        d="M136.915 93.769C138.039 92.7604 139.355 91.9409 140.735 91.3105C140.864 95.3135 139.194 99.0012 137.653 101.523H132.678"
        fill="white" />
    <path
        d="M137.656 101.775H132.681C132.552 101.775 132.424 101.68 132.424 101.523C132.424 101.365 132.52 101.27 132.681 101.27H137.528C138.908 98.938 140.513 95.4709 140.513 91.6571C139.261 92.256 138.138 93.0124 137.079 93.9265C136.982 94.021 136.822 93.9895 136.725 93.895C136.629 93.8004 136.661 93.6428 136.757 93.5482C137.913 92.5396 139.229 91.6886 140.642 91.0582C140.77 91.0267 140.899 91.0582 140.963 91.1843C140.963 91.2158 140.963 91.2474 140.963 91.2474C141.091 95.3763 139.326 99.1586 137.849 101.586C137.817 101.712 137.753 101.775 137.656 101.775Z"
        fill="#231F20" />
    <path
        d="M129.789 94.8411C131.009 88.5688 136.017 84.6289 136.017 84.6289C136.948 87.5917 137.269 90.6806 136.916 93.7694C136.659 96.417 136.081 99.0331 135.182 101.555H129.853"
        fill="white" />
    <path
        d="M135.185 101.774H129.856C129.728 101.774 129.599 101.68 129.599 101.522C129.599 101.365 129.696 101.27 129.856 101.27H135.024C135.859 98.8116 136.437 96.2901 136.694 93.7055C137.015 90.7743 136.726 87.843 135.891 85.0063C134.832 85.9203 131.044 89.5765 130.017 94.8402C130.017 94.9663 129.888 95.0608 129.76 95.0608C129.631 95.0608 129.535 94.9348 129.535 94.8087V94.7772C130.755 88.5049 135.795 84.4705 135.859 84.4389C135.923 84.3759 135.988 84.3759 136.084 84.4074C136.148 84.4389 136.212 84.502 136.244 84.565C137.175 87.5593 137.496 90.6797 137.175 93.8001C136.918 96.4792 136.341 99.0953 135.442 101.617C135.41 101.711 135.313 101.774 135.185 101.774Z"
        fill="#231F20" />
    <path
        d="M127.125 101.522H131.876C131.908 100.135 131.587 98.0545 130.079 95.3439C129.982 95.1548 129.886 94.9972 129.758 94.808C126.997 90.2378 124.493 90.3008 124.493 90.3008C123.466 95.1232 125.713 99.4098 127.125 101.522Z"
        fill="white" />
    <path
        d="M131.876 101.775H127.125C127.029 101.775 126.964 101.744 126.932 101.681C125.488 99.5375 123.209 95.1878 124.268 90.3024C124.3 90.2078 124.396 90.1133 124.493 90.1133C124.621 90.1133 127.189 90.1133 129.95 94.7466L130.271 95.2824C131.876 98.1191 132.133 100.262 132.101 101.586C132.101 101.681 132.004 101.775 131.876 101.775ZM127.253 101.303H131.619C131.619 100.042 131.298 98.0561 129.854 95.4715L129.565 94.9672C127.35 91.311 125.327 90.6806 124.717 90.5861C123.786 95.1248 125.873 99.1907 127.253 101.303Z"
        fill="#231F20" />
    <path d="M127.992 108.899H137.302L138.81 101.523H126.516L127.992 108.899Z" fill="#231F20" />
</svg>