<svg width="151" height="151" viewBox="0 0 151 151" fill="none" xmlns="http://www.w3.org/2000/svg">
    <path
        d="M51.6074 110.137H55.6508C56.187 110.137 56.7012 109.924 57.0804 109.545C57.4595 109.165 57.6725 108.651 57.6725 108.115V84.8654C57.6725 84.3293 57.4595 83.815 57.0804 83.4359C56.7012 83.0567 56.187 82.8438 55.6508 82.8438H51.6074V110.137Z"
        fill="white" stroke="#231F20" stroke-width="1.50648" stroke-linecap="round" stroke-linejoin="round" />
    <path
        d="M80.9246 79.8104C81.6778 72.2569 82.6796 56.0547 76.375 56.0547C75.1688 56.0547 74.012 56.5339 73.159 57.3868C72.3061 58.2397 71.8269 59.3965 71.8269 60.6028V62.1198C71.8269 73.2391 67.0062 84.8677 57.666 84.8677V108.117H58.8591C64.6892 108.117 67.4461 112.161 77.892 112.161H95.5826C96.655 112.161 97.6835 111.735 98.4418 110.976C99.2 110.218 99.626 109.19 99.626 108.117C99.626 107.045 99.2 106.016 98.4418 105.258C97.6835 104.5 96.655 104.074 95.5826 104.074H97.6043C98.6767 104.074 99.7052 103.648 100.463 102.889C101.222 102.131 101.648 101.103 101.648 100.03C101.648 98.958 101.222 97.9296 100.463 97.1713C99.7052 96.413 98.6767 95.987 97.6043 95.987H99.626C100.698 95.987 101.727 95.561 102.485 94.8027C103.243 94.0444 103.669 93.016 103.669 91.9436C103.669 90.8712 103.243 89.8428 102.485 89.0845C101.727 88.3262 100.698 87.9002 99.626 87.9002H101.648C102.72 87.9002 103.749 87.4742 104.507 86.7159C105.265 85.9576 105.691 84.9292 105.691 83.8568C105.691 82.7844 105.265 81.756 104.507 80.9977C103.749 80.2394 102.72 79.8134 101.648 79.8134L80.9246 79.8104Z"
        fill="white" />
    <path d="M76.8809 79.8105H80.9243" stroke="#231F20" stroke-width="1.50648" stroke-linecap="round"
        stroke-linejoin="round" />
    <path d="M95.5822 104.07H93.5605" stroke="#231F20" stroke-width="1.50648" stroke-linecap="round"
        stroke-linejoin="round" />
    <path d="M97.6037 95.9844H95.582" stroke="#231F20" stroke-width="1.50648" stroke-linecap="round"
        stroke-linejoin="round" />
    <path d="M99.6252 87.8965H97.6035" stroke="#231F20" stroke-width="1.50648" stroke-linecap="round"
        stroke-linejoin="round" />
    <path
        d="M80.9246 79.8104C81.6778 72.2569 82.6796 56.0547 76.375 56.0547C75.1688 56.0547 74.012 56.5339 73.159 57.3868C72.3061 58.2397 71.8269 59.3965 71.8269 60.6028V62.1198C71.8269 73.2391 67.0062 84.8677 57.666 84.8677V108.117H58.8591C64.6892 108.117 67.4461 112.161 77.892 112.161H95.5827C96.655 112.161 97.6835 111.735 98.4418 110.976C99.2 110.218 99.626 109.19 99.626 108.117C99.626 107.045 99.2 106.016 98.4418 105.258C97.6835 104.5 96.655 104.074 95.5827 104.074H97.6043C98.6767 104.074 99.7052 103.648 100.463 102.889C101.222 102.131 101.648 101.103 101.648 100.03C101.648 98.958 101.222 97.9296 100.463 97.1713C99.7052 96.413 98.6767 95.987 97.6043 95.987H99.626C100.698 95.987 101.727 95.561 102.485 94.8027C103.243 94.0444 103.669 93.016 103.669 91.9436C103.669 90.8712 103.243 89.8428 102.485 89.0845C101.727 88.3262 100.698 87.9002 99.626 87.9002H101.648C102.72 87.9002 103.749 87.4742 104.507 86.7159C105.265 85.9576 105.691 84.9292 105.691 83.8568C105.691 82.7844 105.265 81.756 104.507 80.9977C103.749 80.2394 102.72 79.8134 101.648 79.8134L80.9246 79.8104Z"
        stroke="#231F20" stroke-width="1.50648" stroke-linecap="round" stroke-linejoin="round" />
    <path d="M37.457 80.8203H51.6089V112.158H37.457V80.8203Z" fill="#003090" />
    <path d="M37.457 80.8203H51.6089V112.158H37.457V80.8203Z" stroke="#231F20" stroke-width="1.50648"
        stroke-linecap="round" stroke-linejoin="round" />
    <path
        d="M77.0768 15.0651L80.1711 21.3336C80.2931 21.5828 80.4743 21.7984 80.6988 21.9615C80.9233 22.1246 81.1844 22.2302 81.4591 22.2691L88.3784 23.2754C88.6942 23.3213 88.9908 23.4546 89.2347 23.6602C89.4786 23.8659 89.6601 24.1357 89.7587 24.4392C89.8573 24.7426 89.869 25.0676 89.7926 25.3773C89.7161 25.6871 89.5545 25.9693 89.326 26.192L84.3184 31.073C84.1215 31.2661 83.9741 31.5039 83.8886 31.7661C83.8031 32.0284 83.7821 32.3073 83.8273 32.5794L85.0084 39.4731C85.0642 39.7881 85.0304 40.1125 84.9108 40.4092C84.7913 40.706 84.5908 40.9632 84.3322 41.1516C84.0736 41.34 83.7674 41.452 83.4482 41.4749C83.1291 41.4977 82.81 41.4305 82.5272 41.2809L76.3386 38.0239C76.0931 37.8947 75.8199 37.8272 75.5424 37.8272C75.265 37.8272 74.9918 37.8947 74.7463 38.0239L68.5576 41.2779C68.2748 41.4275 67.9557 41.4947 67.6366 41.4718C67.3175 41.449 67.0112 41.337 66.7527 41.1486C66.4941 40.9602 66.2936 40.703 66.1741 40.4062C66.0545 40.1095 66.0207 39.7851 66.0765 39.4701L67.2575 32.5764C67.3032 32.3043 67.2824 32.0252 67.1968 31.7629C67.1113 31.5006 66.9637 31.2629 66.7664 31.0699L61.7664 26.1859C61.5379 25.9632 61.3763 25.6811 61.2998 25.3713C61.2234 25.0615 61.2351 24.7366 61.3337 24.4331C61.4323 24.1297 61.6138 23.8599 61.8577 23.6542C62.1016 23.4486 62.3983 23.3153 62.714 23.2694L69.6333 22.2631C69.908 22.2241 70.1691 22.1185 70.3936 21.9554C70.6181 21.7924 70.7993 21.5768 70.9213 21.3275L74.0096 15.0651C74.1507 14.7788 74.3692 14.5378 74.6402 14.3692C74.9112 14.2007 75.224 14.1113 75.5432 14.1113C75.8624 14.1113 76.1751 14.2007 76.4462 14.3692C76.7172 14.5378 76.9356 14.7788 77.0768 15.0651Z"
        fill="#003090" />
    <path
        d="M41.3844 28.5876L46.2745 31.6683C46.4683 31.7909 46.6892 31.8644 46.9178 31.8822C47.1465 31.9001 47.3761 31.8618 47.5866 31.7708L52.8985 29.4884C53.1409 29.3841 53.4077 29.3496 53.6686 29.3891C53.9296 29.4285 54.1743 29.5403 54.375 29.7117C54.5757 29.8831 54.7244 30.1072 54.8043 30.3588C54.8841 30.6104 54.8919 30.8793 54.8268 31.135L53.4077 36.7391C53.3511 36.9608 53.3489 37.1929 53.4014 37.4156C53.4538 37.6383 53.5594 37.845 53.709 38.0181L57.5219 42.3643C57.6959 42.5628 57.8109 42.806 57.8539 43.0664C57.8969 43.3268 57.8662 43.594 57.7653 43.8379C57.6643 44.0818 57.4972 44.2925 57.2827 44.4464C57.0683 44.6002 56.815 44.691 56.5517 44.7084L50.7849 45.0896C50.556 45.1049 50.3343 45.1755 50.1388 45.2954C49.9433 45.4153 49.7799 45.581 49.6625 45.778L46.7068 50.7494C46.5721 50.9764 46.3764 51.161 46.1421 51.2825C45.9078 51.4039 45.6441 51.4573 45.381 51.4366C45.1179 51.4159 44.8658 51.322 44.6534 51.1654C44.4409 51.0088 44.2766 50.7958 44.179 50.5506L42.0322 45.183C41.9476 44.9699 41.8122 44.7808 41.6379 44.6319C41.4636 44.4831 41.2556 44.379 41.0319 44.3288L35.4022 43.0498C35.1449 42.9916 34.9091 42.8626 34.7214 42.6774C34.5336 42.4921 34.4015 42.258 34.3399 42.0016C34.2783 41.7451 34.2897 41.4765 34.3728 41.2262C34.4559 40.9759 34.6074 40.7539 34.8101 40.5852L39.2513 36.8853C39.4278 36.739 39.566 36.5517 39.6537 36.3398C39.7414 36.128 39.776 35.8978 39.7544 35.6695L39.2256 29.9133C39.2016 29.6509 39.2513 29.387 39.3693 29.1514C39.4873 28.9158 39.6688 28.7179 39.8933 28.58C40.1179 28.4421 40.3765 28.3698 40.64 28.3711C40.9035 28.3724 41.1613 28.4474 41.3844 28.5876Z"
        fill="#003090" />
    <path
        d="M22.2544 56.7189L26.6835 56.9449C26.8592 56.9538 27.0344 56.9198 27.194 56.8457C27.3536 56.7717 27.4927 56.6599 27.5994 56.5201L30.296 52.9994C30.4191 52.8387 30.5848 52.7156 30.7742 52.6441C30.9637 52.5726 31.1694 52.5555 31.368 52.5949C31.5666 52.6342 31.7503 52.7284 31.8981 52.8667C32.046 53.005 32.1522 53.182 32.2048 53.3775L33.3587 57.6605C33.4048 57.8299 33.4912 57.9857 33.6105 58.1146C33.7299 58.2434 33.8787 58.3414 34.0442 58.4002L38.2277 59.878C38.4184 59.9455 38.5865 60.065 38.7129 60.223C38.8393 60.381 38.919 60.5711 38.943 60.7721C38.9669 60.973 38.9343 61.1766 38.8486 61.3599C38.7629 61.5432 38.6277 61.6989 38.4582 61.8093L34.7417 64.2302C34.5945 64.3265 34.4729 64.4569 34.3871 64.6104C34.3013 64.7638 34.2539 64.9358 34.249 65.1115L34.1376 69.5451C34.1324 69.7474 34.0708 69.9443 33.9596 70.1134C33.8485 70.2825 33.6922 70.4171 33.5085 70.5021C33.3248 70.587 33.1211 70.6189 32.9202 70.5941C32.7193 70.5693 32.5294 70.4887 32.372 70.3616L28.9251 67.5761C28.7884 67.4651 28.6267 67.3891 28.4539 67.3548C28.2812 67.3204 28.1027 67.3286 27.9339 67.3788L23.6826 68.6427C23.4886 68.7007 23.2823 68.7032 23.087 68.6498C22.8916 68.5965 22.7152 68.4895 22.5776 68.3409C22.4401 68.1924 22.3469 68.0082 22.3087 67.8094C22.2704 67.6106 22.2887 67.4051 22.3614 67.2161L23.9432 63.0733C24.0068 62.909 24.0292 62.7317 24.0084 62.5568C23.9877 62.3819 23.9244 62.2148 23.8242 62.0699L21.3099 58.4167C21.1955 58.2503 21.1299 58.0553 21.1203 57.8536C21.1108 57.6519 21.1578 57.4515 21.256 57.2751C21.3541 57.0986 21.4996 56.9531 21.676 56.8548C21.8524 56.7566 22.0527 56.7095 22.2544 56.7189Z"
        fill="#003090" />
    <path
        d="M112.391 29.9133C112.415 29.6505 112.366 29.386 112.248 29.15C112.13 28.9139 111.948 28.7156 111.723 28.5776C111.498 28.4396 111.238 28.3674 110.974 28.3692C110.71 28.3709 110.452 28.4466 110.229 28.5876L105.339 31.6684C105.145 31.791 104.924 31.8644 104.696 31.8823C104.467 31.9001 104.237 31.8619 104.027 31.7708L98.7151 29.4885C98.4727 29.3847 98.2061 29.3508 97.9454 29.3905C97.6847 29.4302 97.4403 29.542 97.2398 29.7132C97.0393 29.8844 96.8906 30.1083 96.8105 30.3595C96.7305 30.6108 96.7223 30.8794 96.7868 31.1351L98.2059 36.7392C98.2629 36.9609 98.2653 37.193 98.2128 37.4158C98.1603 37.6386 98.0546 37.8453 97.9046 38.0182L94.0932 42.3644C93.9193 42.5628 93.8043 42.8058 93.7612 43.0661C93.7181 43.3264 93.7487 43.5935 93.8494 43.8373C93.9502 44.0812 94.1171 44.292 94.3314 44.4459C94.5456 44.5998 94.7987 44.6908 95.0619 44.7085L100.83 45.0896C101.059 45.1049 101.28 45.1756 101.476 45.2955C101.671 45.4154 101.834 45.5811 101.951 45.7781L104.907 50.7495C105.042 50.9764 105.237 51.1611 105.471 51.2825C105.706 51.404 105.969 51.4574 106.233 51.4367C106.496 51.416 106.748 51.322 106.96 51.1654C107.173 51.0088 107.337 50.7958 107.435 50.5506L109.581 45.183C109.666 44.9701 109.802 44.781 109.976 44.6322C110.15 44.4833 110.358 44.3792 110.582 44.3289L116.22 43.0529C116.478 42.9949 116.714 42.866 116.902 42.6809C117.09 42.4957 117.222 42.2617 117.284 42.0052C117.346 41.7487 117.334 41.48 117.251 41.2296C117.168 40.9792 117.017 40.757 116.814 40.5883L112.371 36.8883C112.195 36.7419 112.057 36.5546 111.969 36.3428C111.882 36.1309 111.847 35.9009 111.868 35.6726L112.391 29.9133Z"
        fill="#003090" />
    <path
        d="M130.31 58.4167C130.425 58.2502 130.491 58.0548 130.501 57.8526C130.511 57.6504 130.464 57.4495 130.365 57.2727C130.266 57.0959 130.12 56.9504 129.943 56.8525C129.766 56.7546 129.565 56.7083 129.363 56.7189L124.934 56.9449C124.758 56.9542 124.582 56.9203 124.423 56.8463C124.263 56.7722 124.124 56.6602 124.018 56.5201L121.319 52.9994C121.196 52.8387 121.031 52.7156 120.841 52.6441C120.652 52.5726 120.446 52.5555 120.248 52.5949C120.049 52.6342 119.865 52.7284 119.717 52.8667C119.569 53.005 119.463 53.182 119.411 53.3775L118.258 57.6605C118.212 57.8299 118.126 57.9857 118.006 58.1146C117.887 58.2434 117.738 58.3414 117.573 58.4002L113.391 59.878C113.2 59.945 113.031 60.0643 112.904 60.2223C112.778 60.3803 112.698 60.5707 112.674 60.7718C112.65 60.973 112.683 61.1768 112.769 61.3602C112.855 61.5436 112.99 61.6992 113.16 61.8093L116.875 64.2302C117.023 64.326 117.145 64.4563 117.231 64.6099C117.317 64.7635 117.364 64.9357 117.368 65.1115L117.481 69.5451C117.486 69.7474 117.548 69.9443 117.659 70.1134C117.77 70.2825 117.926 70.4171 118.11 70.5021C118.294 70.587 118.497 70.6189 118.698 70.5941C118.899 70.5693 119.089 70.4887 119.247 70.3616L122.698 67.5761C122.834 67.4653 122.996 67.3893 123.168 67.355C123.341 67.3206 123.519 67.3287 123.688 67.3788L127.939 68.6427C128.133 68.7005 128.339 68.7028 128.534 68.6494C128.73 68.596 128.906 68.489 129.044 68.3406C129.181 68.1921 129.275 68.0082 129.313 67.8094C129.352 67.6107 129.334 67.4052 129.262 67.2161L127.678 63.0733C127.615 62.9089 127.593 62.7317 127.614 62.5569C127.635 62.3822 127.698 62.215 127.797 62.0699L130.31 58.4167Z"
        fill="#003090" />
</svg>