<svg width="282" height="256" viewBox="0 0 282 256" fill="none" xmlns="http://www.w3.org/2000/svg">
<rect x="0.41716" y="1.0656" width="281.166" height="254.217" rx="31.3439" stroke="black" stroke-width="0.83432"/>
<path d="M147.879 155.489C166.615 154.538 183.779 154.108 186.547 155.659C187.972 156.461 190.19 166.995 191.209 174.04C196.964 173.353 204.196 172.721 211.421 172.229C210.348 166.808 209.686 163.412 207.252 158.175C206.883 157.381 207.893 157.061 208.304 157.786C210.743 162.251 212.381 167.109 213.144 172.139C222.926 171.497 232.577 171.109 238.626 171.109C237.939 165.189 234.134 151.548 227.313 144.553C222.055 139.161 211.856 134.362 202.829 133.227C202.688 134.478 202.205 135.666 201.434 136.661C200.662 137.655 199.631 138.418 198.455 138.866C193.632 140.761 184.829 141.259 176.977 136.946C168.693 139.309 153.511 148.325 147.879 155.489Z" fill="#003090"/>
<path d="M248.867 197.623C199.468 198.552 150.292 198.369 100.92 198.425C99.9215 198.425 99.696 199.985 100.729 200.004C149.99 200.914 199.839 199.842 249.092 199.239C250.144 199.23 249.913 197.604 248.867 197.623Z" fill="#003090"/>
<path d="M127.236 100.019C132.307 100.114 157.022 99.6535 159.65 99.5402C160.442 99.5058 160.422 98.1387 159.65 98.1387C156.122 98.1387 132.913 98.5864 127.236 98.8841C127.099 98.9026 126.973 98.9703 126.882 99.0747C126.79 99.179 126.74 99.3129 126.74 99.4514C126.74 99.59 126.79 99.7238 126.882 99.8282C126.973 99.9325 127.099 100 127.236 100.019Z" fill="#003090"/>
<path d="M93.0967 76.2757C95.1474 76.3719 136.904 76.2677 139.394 76.0227C139.747 75.9758 140.071 75.7994 140.301 75.5276C140.532 75.2558 140.654 74.908 140.643 74.5516C140.632 74.1951 140.489 73.8555 140.242 73.5984C139.995 73.3414 139.661 73.1852 139.305 73.1602C127.685 73.3044 103.528 73.364 93.1619 73.5907C91.607 73.6262 91.4765 76.2024 93.0967 76.2757Z" fill="#003090"/>
<path d="M151.548 120.343C148.861 120.343 128.428 120.114 126.981 120.527C126.489 120.669 126.294 121.466 126.885 121.634C128.428 122.077 148.754 121.853 151.561 121.853C154.367 121.853 157.091 121.954 159.839 121.853C160.679 121.822 160.618 120.414 159.784 120.377C157.05 120.256 154.288 120.343 151.548 120.343Z" fill="#003090"/>
<path d="M126.661 131.038C126.488 131.09 126.342 131.208 126.255 131.367C126.168 131.525 126.147 131.712 126.196 131.886C126.432 132.687 125.373 132.412 160.196 132.993C160.388 132.973 160.566 132.883 160.696 132.74C160.825 132.597 160.897 132.41 160.897 132.217C160.897 132.024 160.825 131.838 160.696 131.695C160.566 131.551 160.388 131.461 160.196 131.441C126.789 130.902 128.863 130.868 126.661 131.038Z" fill="#003090"/>
<path d="M159.451 111.187C159.638 111.174 159.813 111.093 159.942 110.959C160.072 110.824 160.147 110.647 160.153 110.46C160.159 110.273 160.095 110.091 159.974 109.949C159.853 109.807 159.684 109.715 159.498 109.69C154.529 109.553 131.405 109.361 127.209 110.197C126.522 110.333 126.676 111.334 127.332 111.392C130.88 111.711 136.305 110.519 159.451 111.187Z" fill="#003090"/>
<path d="M189.991 90.8449C190.053 80.9819 190.511 68.6777 189.683 59.1078C189.66 58.9641 189.585 58.8339 189.472 58.7424C189.359 58.6509 189.216 58.6045 189.071 58.6122C188.925 58.6198 188.788 58.6811 188.685 58.784C188.582 58.887 188.521 59.0244 188.514 59.1697C188.245 63.7611 188.498 85.0947 188.514 90.9549C188.516 91.9178 189.985 91.809 189.991 90.8449Z" fill="#003090"/>
<path d="M40.1245 59.1081C40.1245 58.247 38.7688 58.0902 38.7573 58.9718C38.3062 95.4469 38.9085 137.873 40.6512 174.159C40.6993 175.164 42.2542 174.918 42.2026 173.92C40.3615 135.536 40.0718 97.524 40.1245 59.1081Z" fill="#003090"/>
<path d="M102.266 173.257C96.1136 172.914 46.0164 173.183 44.0619 173.486C43.9173 173.533 43.7923 173.626 43.7064 173.752C43.6205 173.877 43.5785 174.027 43.587 174.179C43.5955 174.33 43.654 174.475 43.7534 174.59C43.8528 174.705 43.9875 174.783 44.1363 174.813C63.078 174.867 83.1808 174.717 102.156 174.738C103.079 174.738 103.237 173.315 102.266 173.257Z" fill="#003090"/>
<path d="M180.906 92.6988C177.324 93.3858 174.165 101.21 178.116 104.872C180.536 107.116 191.678 107.211 198.432 106.923C198.481 107.75 198.658 108.564 198.958 109.336C199.227 110.023 200.033 110.24 199.832 109.001C199.723 108.296 199.673 107.582 199.682 106.868C200.733 106.823 201.781 106.746 202.827 106.639C202.645 108.165 202.382 109.68 202.041 111.178C201.852 111.999 202.774 112.152 203.087 111.369C204.045 108.892 204.433 106.231 204.221 103.583C203.814 97.7471 187.448 91.4416 180.906 92.6988ZM182.033 95.7811C180.386 96.1579 179.996 98.6608 179.846 99.9993C179.589 102.289 178.129 100.686 178.479 98.6723C178.747 97.154 180.045 94.6808 181.937 94.927C182.047 94.9211 182.155 94.9573 182.239 95.0283C182.322 95.0993 182.376 95.1996 182.388 95.3087C182.4 95.4178 182.371 95.5275 182.305 95.6154C182.239 95.7032 182.142 95.7625 182.033 95.7811Z" fill="#191919"/>
<path d="M194.297 116.26C195.21 114.714 195.838 113.017 196.15 111.249C197.688 111.528 199.155 112.112 200.463 112.967C201.242 113.302 201.537 112.28 201.15 111.963C199.745 110.817 198.027 110.122 196.221 109.967C195.387 108.388 189.051 108.02 188.073 109.686C187.834 109.552 187.569 109.47 187.296 109.445C187.022 109.421 186.747 109.454 186.487 109.543C185.989 108.176 180.37 107.834 178.969 109.413C177.356 109.235 176.686 110.725 178.818 110.711C178.897 112.191 179.171 113.654 179.632 115.062C180.184 116.191 184.153 116.174 184.943 115.603C185.883 114.924 186.31 111.959 186.577 110.818C186.964 110.696 187.382 110.721 187.753 110.886C187.744 112.417 187.918 113.943 188.271 115.432C188.878 116.639 193.417 117.3 194.297 116.26ZM184.509 114.29C184.322 114.74 184.154 114.848 182.649 114.789C180.107 114.689 180.64 115.24 179.861 110.12C181.652 109.512 183.593 109.512 185.384 110.12C185.359 111.553 185.062 112.968 184.509 114.29ZM189.294 114.809C189.01 113.402 188.909 111.964 188.993 110.53C190.956 109.829 193.112 109.895 195.029 110.715C194.922 111.841 194.633 112.942 194.174 113.976C193.523 115.399 193.416 115.585 191.365 115.418C190.38 115.338 189.432 115.119 189.294 114.81V114.809Z" fill="#191919"/>
<path d="M190.263 113.894C190.478 114.665 191.981 114.756 191.631 112.526C191.43 111.258 189.642 111.656 190.263 113.894Z" fill="#191919"/>
<path d="M203.25 112.973C199.327 113.301 197.391 120.487 195.307 121.176C193.851 121.658 190.584 119.562 187.283 119.337C183.982 119.111 182.102 120.506 181.486 120.211C180.87 119.917 181.295 117.341 181.295 116.74C181.295 116.139 180.967 115.81 180.386 117.136C179.804 118.462 174.132 131.19 176.599 134.614C180.126 139.508 194.517 140.544 198.985 137.178C204.586 132.958 199.82 119.403 201.199 115.872C201.459 115.367 201.873 114.958 202.38 114.705C202.888 114.452 203.464 114.367 204.023 114.464C205.91 115.281 205.391 120.876 202.375 120C201.617 119.781 201.446 120.734 202.146 121.101C204.195 122.179 206.205 120.499 206.473 117.683C206.674 115.551 205.95 112.747 203.25 112.973ZM187.631 125.682C184.788 125.682 184.213 124.554 183.974 122.705C186.435 123.234 188.985 123.19 191.426 122.576C191.166 124.266 190.805 125.687 187.631 125.687V125.682Z" fill="#191919"/>
<path d="M186.271 113.669C185.744 114.882 185.35 116.149 185.095 117.447C184.812 118.987 186.86 118.992 188.015 118.814C188.702 118.709 188.828 117.926 188.075 117.871C187.522 117.83 186.436 117.802 186.333 117.611C186.427 116.333 186.673 115.072 187.064 113.852C187.223 113.348 186.488 113.151 186.271 113.669Z" fill="#191919"/>
<path d="M183.019 113.948C183.656 113.705 183.706 111.991 183.162 111.672C181.789 110.856 181.598 114.484 183.019 113.948Z" fill="#191919"/>
<path d="M194.223 53.6387C141.269 53.6799 85.0538 53.5574 32.9059 54.0016C32.0174 54.0085 31.9968 56.2916 32.8509 56.2974C85.6412 56.6283 141.241 56.2161 194.168 56.1748C195.118 56.1737 195.139 53.6387 194.223 53.6387Z" fill="#191919"/>
<path d="M133.893 175.53C124.848 174.992 110.836 173.222 102.395 169.598C101.31 169.131 95.9478 170.007 89.8598 167.194C89.2232 166.901 88.9702 167.797 89.5656 168.165C92.6766 170.081 96.6062 170.592 100.195 170.708C101.159 170.683 102.115 170.896 102.977 171.329C112.923 174.896 123.396 176.768 133.962 176.865C134.83 176.878 134.802 175.585 133.893 175.53Z" fill="#191919"/>
<path d="M236.734 172.934C236.557 171.97 235.258 172.31 235.42 173.268C235.98 176.708 235.758 180.23 234.771 183.573C232.434 191.718 225.557 190.411 218.674 190.094C211.449 189.762 201.499 189.069 195.256 188.782C195.118 188.764 194.979 188.8 194.867 188.883C194.756 188.966 194.681 189.089 194.659 189.227C194.637 189.364 194.67 189.504 194.75 189.618C194.83 189.732 194.951 189.81 195.088 189.835C201.093 190.789 213.922 191.354 218.92 191.591C225.755 191.916 233.381 192.827 235.926 184.913C237.179 181.047 237.456 176.932 236.734 172.934Z" fill="#191919"/>
<path d="M191.924 177.013C200.77 175.606 209.681 174.646 218.624 174.136C218.769 174.123 218.903 174.054 218.998 173.945C219.093 173.835 219.142 173.693 219.135 173.548C219.128 173.403 219.065 173.267 218.96 173.167C218.854 173.068 218.714 173.013 218.569 173.014C209.565 173.383 200.592 174.296 191.698 175.748C191.531 175.778 191.382 175.874 191.285 176.014C191.187 176.154 191.15 176.327 191.18 176.495C191.211 176.663 191.306 176.812 191.446 176.909C191.587 177.006 191.76 177.044 191.927 177.013H191.924Z" fill="#191919"/>
<path d="M97.7474 167.111C97.8427 167.11 97.9368 167.09 98.0242 167.052C98.1116 167.014 98.1904 166.959 98.256 166.89C98.3217 166.821 98.3727 166.739 98.4061 166.65C98.4395 166.561 98.4545 166.466 98.4504 166.371C98.4462 166.276 98.4229 166.182 98.3819 166.096C98.3408 166.01 98.2829 165.934 98.2115 165.871C98.1401 165.808 98.0568 165.759 97.9664 165.729C97.876 165.699 97.7805 165.688 97.6856 165.695C93.4354 165.832 91.2908 164.625 88.4855 162.632C88.0413 162.318 87.5695 162.873 87.913 163.319C89.9099 165.959 94.5689 167.234 97.7474 167.111Z" fill="#191919"/>
<path d="M104.817 159.861C105.334 160.759 106.42 160.881 107.386 161.099C113.094 162.396 126.155 161.964 132.213 161.893C133.074 161.882 132.9 160.769 132.015 160.777C127.592 160.822 114.242 160.948 107.619 159.725C106.396 159.496 106.459 159.677 105.835 158.695C104.655 156.833 102.897 154.556 100.763 154.518C100.127 154.506 100.076 155.12 100.619 155.393C102.504 156.338 103.991 157.922 104.817 159.861Z" fill="#191919"/>
<path d="M101.041 160.116C98.0843 159.248 93.9062 157.856 91.6082 154.887C90.9212 153.996 90.3372 154.688 90.6784 155.406C92.1097 158.42 97.3492 161.131 100.357 161.246C102.021 161.316 101.558 160.267 101.041 160.116Z" fill="#191919"/>
<path d="M89.0642 157.778C88.9698 157.663 88.8349 157.589 88.6874 157.57C88.5398 157.551 88.3908 157.59 88.2708 157.678C88.1509 157.766 88.0693 157.897 88.0426 158.043C88.016 158.189 88.0464 158.34 88.1276 158.465C89.219 160.031 90.6364 161.342 92.2824 162.308C93.9284 163.274 95.764 163.873 97.6632 164.063C97.8128 164.068 97.96 164.024 98.0824 163.938C98.2048 163.852 98.2958 163.728 98.3414 163.585C98.387 163.443 98.3848 163.289 98.3352 163.148C98.2855 163.007 98.191 162.886 98.0662 162.803C97.062 162.37 92.7935 162.092 89.0642 157.778Z" fill="#191919"/>
<path d="M220.88 192.809C218.83 192.542 195.042 193.069 193.941 192.618C192.839 192.167 187.142 159.719 185.653 157.587C184.165 155.455 137.278 156.807 135.146 158.038C133.014 159.269 140.055 196.332 141.879 197.082C143.506 197.75 218.436 196.822 220.884 196.693C223.332 196.564 222.931 193.076 220.88 192.809ZM161.807 182.146C155.41 182.678 153.405 172.184 159.798 171.141C162.832 170.645 165.506 173.336 166.073 176.65C166.19 177.296 166.171 177.959 166.015 178.597C165.859 179.234 165.57 179.832 165.168 180.351C164.765 180.869 164.258 181.297 163.679 181.607C163.1 181.916 162.462 182.1 161.807 182.146Z" fill="#191919"/>
<path d="M111.419 114.691C111.114 111.706 110.092 107.384 105.928 105.848C104.369 107.827 101.258 106.479 100.447 105.136C98.8172 107.684 96.0474 110.075 94.2156 113.172C93.3316 114.667 92.2655 116.428 93.3471 118.07C96.6014 117.771 99.8758 117.764 103.131 118.048C104.137 116.302 104.255 115.656 104.241 114.114C104.241 113.951 104.476 113.879 104.497 114.079C104.653 115.48 104.336 116.892 103.595 118.092C103.995 118.117 104.392 118.176 104.782 118.267C105.118 118.349 105.019 118.578 104.722 118.55C101.06 118.197 97.3727 118.191 93.7092 118.531C94.8743 120.007 94.8127 120.904 94.5232 122.431C96.4431 123.748 103.467 125.491 106.628 124.529C109.533 123.645 111.778 118.203 111.419 114.691Z" fill="#003090"/>
<path d="M81.7616 108.503C79.9628 107.414 76.1708 107.127 74.0801 108.242C73.6292 110.029 72.1222 112.162 71.3771 112.839C70.2713 112.57 68.3467 111.669 67.6275 110.288C64.4333 111.308 61.3104 116.166 60.3874 119.424C59.1061 118.076 56.6331 114.569 56.1173 113.377C55.0284 114.119 53.7809 114.596 52.4746 114.77C53.488 121.831 58.1034 128.324 61.3783 128.081C63.9888 127.887 65.6784 125.124 66.675 123.285C66.0657 122.606 65.5392 121.857 65.1064 121.054C65.0187 120.889 65.1401 120.577 65.3438 120.841C69.345 126.018 74.9331 129.194 82.3571 129.621C78.6434 124.559 77.3832 113.489 81.7616 108.503Z" fill="#003090"/>
<path d="M71.4953 104.228C72.5251 104.091 72.5914 102.496 71.7158 102.021C71.8515 101.115 71.9016 100.198 71.8654 99.2831C71.816 97.9825 71.0961 97.4089 69.9052 97.2707C68.8553 97.1481 67.8739 96.6866 67.1098 95.9561C65.7861 94.6908 65.8853 96.6843 67.1098 97.5532C65.9889 97.4283 64.8979 97.1112 63.8847 96.6157C63.1894 96.1981 62.8508 96.3414 62.9997 96.9456C63.0719 97.2565 63.2118 97.5476 63.4094 97.7982C63.607 98.0488 63.8574 98.2527 64.1429 98.3954C63.004 98.5457 61.8467 98.4691 60.7376 98.1701C59.782 97.9011 59.314 97.9896 59.8146 98.8228C60.2262 99.4202 60.7591 99.9243 61.3785 100.302C61.9979 100.68 62.69 100.923 63.4096 101.015C65.0588 101.195 66.8361 100.733 68.7583 99.9901C68.9858 101.075 69.5882 102.044 70.4597 102.729C70.5629 102.81 70.7108 102.824 70.7623 102.674C71.0682 101.766 72.2437 102.674 71.7992 103.524C71.6442 103.82 71.422 103.799 71.2061 103.801C70.9902 103.804 71.0612 103.934 71.0921 104.129C71.2182 104.926 72.5856 107.974 73.1734 108.49C73.3136 108.613 73.4444 108.452 73.3583 108.313C72.5668 107.036 71.9408 105.663 71.4953 104.228Z" fill="#191919"/>
<path d="M102.499 100.184C101.469 100.047 101.403 98.4521 102.278 97.9774C102.143 97.0713 102.093 96.1545 102.129 95.2391C102.178 93.9386 102.898 93.365 104.089 93.2268C105.139 93.1041 106.12 92.6426 106.884 91.9121C108.208 90.6469 108.109 92.6404 106.884 93.5092C108.005 93.3844 109.096 93.0672 110.109 92.5718C110.805 92.1542 111.143 92.2974 110.994 92.9016C110.922 93.2125 110.782 93.5036 110.585 93.7542C110.387 94.0048 110.137 94.2088 109.851 94.3515C110.99 94.5017 112.147 94.4251 113.257 94.1262C114.212 93.8572 114.68 93.9456 114.18 94.7788C113.768 95.3763 113.235 95.8803 112.616 96.2581C111.996 96.6359 111.304 96.8789 110.585 96.9714C108.935 97.1512 107.158 96.6889 105.236 95.9462C105.008 97.0307 104.406 98.0004 103.534 98.6848C103.431 98.7665 103.283 98.7796 103.232 98.63C102.926 97.7222 101.75 98.63 102.195 99.4796C102.35 99.7759 102.572 99.755 102.788 99.7574C103.004 99.7597 102.933 99.8902 102.902 100.085C102.776 100.882 101.408 103.93 100.821 104.446C100.681 104.569 100.55 104.408 100.636 104.269C101.427 102.992 102.053 101.619 102.499 100.184Z" fill="#191919"/>
<path d="M65.7087 101.916C65.544 101.942 65.3891 102.011 65.2593 102.115C65.1295 102.22 65.0294 102.356 64.969 102.512C64.8587 102.8 65.0093 102.925 65.206 102.671C65.3795 102.487 65.5956 102.35 65.8351 102.27C66.0311 102.192 66.0479 101.861 65.7087 101.916Z" fill="#191919"/>
<path d="M65.3073 103.531C65.2556 103.679 65.3746 103.75 65.502 103.641C65.5725 103.58 65.655 103.535 65.7441 103.508C65.8332 103.482 65.9269 103.474 66.0191 103.486C66.202 103.486 66.2152 103.332 66.0689 103.249C66.0017 103.21 65.9268 103.187 65.8496 103.181C65.7723 103.174 65.6946 103.185 65.6219 103.212C65.5492 103.239 65.4833 103.281 65.429 103.337C65.3746 103.392 65.3331 103.458 65.3073 103.531Z" fill="#191919"/>
<path d="M68.1195 102.73C68.0474 102.685 67.9665 102.656 67.8823 102.645C67.7981 102.634 67.7124 102.641 67.6312 102.666C67.55 102.691 67.4752 102.733 67.4116 102.789C67.3481 102.846 67.2975 102.915 67.2631 102.993C67.2107 103.135 67.3048 103.209 67.3976 103.142C67.5832 103.006 67.8079 102.934 68.0381 102.936C68.1551 102.922 68.2715 102.812 68.1195 102.73Z" fill="#191919"/>
<path d="M67.8665 105.482C67.7461 105.552 67.732 105.736 67.964 105.682C68.7424 105.497 69.1664 105.033 68.8584 104.45C68.77 104.282 68.5289 104.421 68.6045 104.59C68.847 105.129 68.1574 105.314 67.8665 105.482Z" fill="#191919"/>
<path d="M67.8799 101.554C67.6994 101.466 67.4996 101.426 67.2992 101.436C67.0987 101.447 66.9042 101.508 66.7337 101.613C66.7011 101.639 66.6781 101.674 66.6687 101.714C66.6594 101.754 66.6642 101.796 66.6823 101.833C66.7005 101.87 66.7309 101.9 66.7683 101.917C66.8058 101.934 66.848 101.937 66.8877 101.927C67.177 101.812 67.4897 101.769 67.7992 101.801C68.003 101.836 68.0854 101.671 67.8799 101.554Z" fill="#191919"/>
<path d="M66.4936 103.369C66.4069 103.709 66.2707 104.811 66.6809 104.923C66.8947 104.982 67.5322 104.731 67.4071 104.513C67.3093 104.342 66.8527 104.667 66.7949 104.57C66.6772 104.178 66.6465 103.765 66.7048 103.36C66.7095 103.172 66.5851 103.009 66.4936 103.369Z" fill="#191919"/>
<path d="M87.0061 109.69C86.9708 108.902 86.0569 107.877 85.3068 107.872C85.1313 107.872 84.9961 108.128 85.1723 108.175C85.5554 108.277 85.9046 108.479 86.1839 108.761C86.4633 109.042 86.6629 109.393 86.7623 109.776C86.8205 109.981 87.0202 110.01 87.0061 109.69Z" fill="#191919"/>
<path d="M87.6503 108.502C87.4042 107.448 86.2267 107.001 85.2372 107.136C84.1149 107.288 83.1795 108.063 82.4606 108.918C81.6964 109.825 82.3631 111.262 80.8945 111.855C80.5582 111.99 80.6904 112.223 81.032 112.119C82.8096 111.576 82.1308 109.769 82.7858 109.136C83.4407 108.502 84.1337 107.809 85.0758 107.581C86.0179 107.353 87.0024 107.706 87.3871 108.618C87.459 108.792 87.6927 108.688 87.6503 108.502Z" fill="#191919"/>
<path d="M85.8428 110.239C85.9847 110.542 86.1939 110.431 86.1159 110.138C85.9276 109.427 85.2823 108.418 84.4095 108.52C84.234 108.54 84.2646 108.812 84.4095 108.852C85.4192 109.126 85.6189 109.758 85.8428 110.239Z" fill="#191919"/>
<path d="M83.4567 109.207C83.2694 109.237 83.2193 109.53 83.4567 109.539C83.7736 109.535 84.0828 109.637 84.3351 109.829C84.5875 110.02 84.7686 110.291 84.8497 110.597C84.9398 110.78 85.085 110.78 85.0871 110.533C85.0908 109.807 84.2303 109.08 83.4567 109.207Z" fill="#191919"/>
<path d="M52.2855 110.072C51.8736 108.469 51.7872 107.987 51.811 106.963C51.8164 106.725 51.6046 106.782 51.5239 107.093C51.3504 108.157 51.5164 109.248 51.9983 110.211C52.0841 110.382 52.3309 110.247 52.2855 110.072Z" fill="#191919"/>
<path d="M50.8744 108.146C50.8744 107.873 50.6088 107.994 50.6014 108.167C50.571 109.508 50.9349 110.828 51.6481 111.964C52.0552 112.661 52.368 113.409 52.5784 114.188C52.6399 114.406 52.9096 114.442 52.875 114.012C52.7291 113.195 52.4238 112.415 51.9765 111.715C51.3223 110.634 50.9438 109.408 50.8744 108.146Z" fill="#191919"/>
<path d="M55.5658 108.662C55.404 108.382 55.2104 108.582 55.3287 108.796C56.094 110.172 54.437 111.916 55.5658 113.186C55.5939 113.212 55.63 113.227 55.6681 113.23C55.7062 113.232 55.7439 113.222 55.7752 113.2C55.8065 113.178 55.8294 113.146 55.8403 113.11C55.8511 113.073 55.8491 113.034 55.8347 112.999C55.0977 111.587 56.3707 110.053 55.5658 108.662Z" fill="#191919"/>
<path d="M53.867 106.946C53.8637 106.79 53.6626 106.647 53.6014 106.946C53.4841 107.518 53.5516 109.225 53.9215 109.699C53.9428 109.725 53.9721 109.744 54.0048 109.752C54.0376 109.76 54.072 109.757 54.1029 109.743C54.1338 109.73 54.1595 109.707 54.176 109.677C54.1926 109.648 54.199 109.614 54.1945 109.58C54.0064 108.714 53.8967 107.833 53.867 106.946Z" fill="#191919"/>
<path d="M52.8933 106.525C52.8933 106.35 52.6916 106.329 52.6277 106.525C52.3742 107.324 52.4677 109.012 52.9384 109.753C53.0393 109.914 53.3197 109.848 53.2746 109.637C52.9867 108.626 52.8581 107.576 52.8933 106.525Z" fill="#191919"/>
<path d="M92.3063 118.715C92.4818 118.787 92.5285 118.51 92.4249 118.413C91.8244 117.843 90.0518 117.767 89.1595 118.437C89.1261 118.455 89.1009 118.485 89.0892 118.521C89.0775 118.557 89.0802 118.596 89.0967 118.631C89.1132 118.665 89.1422 118.691 89.1778 118.705C89.2133 118.718 89.2527 118.717 89.2876 118.702C90.8087 118.106 91.5965 118.428 92.3063 118.715Z" fill="#191919"/>
<path d="M90.9904 121.325C92.5465 121.068 92.6806 121.495 93.1712 121.529C93.2163 121.532 93.261 121.518 93.2958 121.489C93.3305 121.46 93.3524 121.419 93.3568 121.374C93.3941 120.96 91.7916 120.623 90.8929 121.064C90.7157 121.15 90.8196 121.353 90.9904 121.325Z" fill="#191919"/>
<path d="M90.0921 120.573C91.6852 120.079 92.2262 120.391 93.1155 120.635C93.2931 120.683 93.3388 120.421 93.2198 120.324C92.594 119.813 90.8661 119.818 89.9997 120.309C89.8453 120.397 89.8998 120.633 90.0921 120.573Z" fill="#191919"/>
<path d="M89.6169 119.743C91.0411 119.311 91.6722 119.519 92.6238 119.676C92.661 119.682 92.699 119.675 92.7321 119.657C92.7653 119.64 92.7917 119.611 92.8075 119.577C92.8233 119.543 92.8276 119.505 92.8196 119.468C92.8117 119.431 92.7921 119.398 92.7637 119.373C92.1544 118.843 90.211 118.912 89.4888 119.485C89.3318 119.611 89.4367 119.798 89.6169 119.743Z" fill="#191919"/>
<path d="M107.312 99.8485C107.58 99.9188 107.849 99.3028 107.627 99.1629C107.331 98.979 106.945 99.7523 107.312 99.8485Z" fill="#191919"/>
<path d="M108.915 100.592C109.114 100.605 109.336 100.201 109.283 100.042C109.13 99.5837 108.443 100.563 108.915 100.592Z" fill="#191919"/>
<path d="M109.446 99.064C109.613 99.1639 109.745 99.3144 109.821 99.4937C109.866 99.6551 110.084 99.7072 110.082 99.42C110.068 99.2701 110.013 99.127 109.922 99.0068C109.832 98.8865 109.709 98.7937 109.569 98.7388C109.315 98.6433 109.104 98.8632 109.446 99.064Z" fill="#191919"/>
<path d="M108.143 98.4986C108.449 98.5994 108.546 98.3368 108.304 98.159C108.12 98.045 107.906 97.9868 107.689 97.9915C107.472 97.9961 107.262 98.0634 107.082 98.1852C106.968 98.3062 107.03 98.4226 107.183 98.3987C107.505 98.3265 107.842 98.3615 108.143 98.4986Z" fill="#191919"/>
<path d="M105.794 100.96C105.771 101.081 105.772 101.206 105.797 101.326C105.823 101.446 105.873 101.56 105.943 101.661C106.014 101.762 106.104 101.847 106.209 101.912C106.313 101.978 106.43 102.021 106.551 102.04C106.568 102.052 106.587 102.059 106.607 102.062C106.627 102.065 106.647 102.063 106.666 102.057C106.686 102.051 106.703 102.04 106.717 102.026C106.732 102.011 106.743 101.994 106.749 101.975C106.756 101.956 106.758 101.935 106.755 101.915C106.752 101.895 106.745 101.876 106.733 101.86C106.722 101.843 106.707 101.829 106.689 101.819C106.672 101.809 106.652 101.804 106.632 101.803C106.551 101.782 106.474 101.746 106.408 101.695C106.341 101.644 106.286 101.58 106.245 101.507C106.204 101.434 106.178 101.353 106.17 101.269C106.161 101.186 106.17 101.102 106.195 101.022C106.297 100.435 105.861 100.554 105.794 100.96Z" fill="#191919"/>
<path d="M108.022 101.456C108.302 101.323 108.552 100.236 108.411 100.091C108.194 99.8678 108.176 100.818 107.865 101.088C107.731 101.205 107.563 100.87 107.391 100.97C107.18 101.092 107.64 101.637 108.022 101.456Z" fill="#191919"/>
<path d="M90.6996 131.947C90.403 132.208 90.8926 132.556 91.174 132.374C94.5363 130.203 98.2032 132.462 97.3583 136.32C97.3314 136.403 97.3378 136.492 97.3762 136.57C97.4145 136.648 97.4818 136.708 97.5636 136.737C97.6454 136.766 97.7353 136.761 97.814 136.725C97.8927 136.688 97.9539 136.622 97.9847 136.541C99.7072 132.202 94.1587 128.895 90.6996 131.947Z" fill="#191919"/>
<path d="M98.2063 130.698C95.3591 128.176 89.4945 128 86.5391 130.499C80.3188 135.76 86.028 144.592 93.924 143.047C99.9046 141.879 102.695 134.672 98.2063 130.698ZM94.7179 142.158C88.1153 144.291 81.235 137.37 86.2815 131.654C88.8416 128.754 94.6439 128.631 97.5893 131.037C101.68 134.379 99.6272 140.571 94.7179 142.158Z" fill="#191919"/>
<path d="M70.0151 106.237C69.8328 106.556 69.5799 106.828 69.2759 107.034C68.9719 107.24 68.6248 107.373 68.2613 107.424C65.5513 107.753 64.9141 103.822 64.4975 101.947C64.4286 101.636 64.2343 101.804 64.2602 101.98C64.4572 104.062 65.283 108.044 68.0572 107.849C68.1817 108.597 68.2032 109.359 68.1211 110.113C68.1026 110.296 68.2946 110.479 68.4368 110.089C68.6103 109.615 68.5912 108.408 68.4889 107.778C68.8612 107.681 69.2089 107.506 69.5094 107.266C69.8099 107.025 70.0565 106.724 70.2333 106.383C70.3315 106.194 70.1136 106.071 70.0151 106.237Z" fill="#191919"/>
<path d="M85.4028 128.683C87.0641 128.347 91.5007 126.871 92.7948 125.75C93.0056 125.567 92.7662 125.18 92.51 125.304C89.2486 126.872 87.7638 127.202 84.4677 128.187C80.8513 123.234 79.2774 117.278 83.6443 111.229C83.8703 110.916 83.4113 110.627 83.1696 110.935C79.3533 115.795 79.3702 121.972 83.4661 128.021C84.111 128.973 84.154 128.936 85.4028 128.683Z" fill="#191919"/>
<path d="M68.2065 86.9534C75.3823 82.3692 84.0675 81.5226 91.8186 85.2272C100.508 89.3813 103.681 96.348 98.4918 105.021C96.4233 108.478 91.708 112.702 91.1092 116.272C91.0419 116.67 91.5866 116.827 91.6572 116.423C92.2396 113.089 96.5766 109.183 98.5533 106.135C104.012 97.7128 102.19 90.233 93.4426 85.3681C85.633 81.026 75.1661 81.1588 67.9493 86.6236C67.6803 86.828 67.8911 87.1551 68.2065 86.9534Z" fill="#191919"/>
<path d="M88.9106 98.0228C91.3698 100.663 89.9422 104.315 87.3374 106.262C87.055 106.473 87.3919 106.886 87.7073 106.654C90.3389 104.715 91.9774 101.196 89.9284 98.2105C87.0536 94.0224 80.6 94.8596 76.6392 98.1432C74.2049 95.5122 70.571 91.1022 68.4171 88.1747C68.1938 87.8721 67.8878 88.0987 68.1393 88.4436C70.2764 91.39 73.4682 95.6087 75.9254 98.4102C76.3787 98.9273 76.5061 99.0672 77.0595 98.6287C80.2772 96.0808 85.7144 94.5909 88.9106 98.0228Z" fill="#191919"/>
<path d="M96.352 91.0488C92.2002 85.1351 82.2445 83.258 75.9439 86.5614C75.8575 86.6009 75.7903 86.673 75.7571 86.7619C75.7238 86.8508 75.7272 86.9493 75.7665 87.0357C75.8058 87.1221 75.8777 87.1895 75.9666 87.2229C76.0554 87.2563 76.1539 87.2531 76.2404 87.2141C83.965 84.2596 90.3285 86.4266 95.9203 91.4546C96.2552 91.7558 96.6284 91.4428 96.352 91.0488Z" fill="#191919"/>
<path d="M93.1539 124.586C93.521 125.227 94.0697 124.888 93.6827 124.273C93.2957 123.657 92.8839 122.979 92.4703 122.341C92.3163 122.103 91.896 122.341 92.0359 122.597C92.4019 123.264 92.7746 123.927 93.1539 124.586Z" fill="#191919"/>
</svg>
